<?xml version="1.0" encoding="utf-8"?>
<!-- Generator: Adobe Illustrator 21.1.0, SVG Export Plug-In . SVG Version: 6.00 Build 0)  -->
<svg version="1.1" xmlns="http://www.w3.org/2000/svg" xmlns:xlink="http://www.w3.org/1999/xlink" x="0px" y="0px"
	 viewBox="0 0 300 250" style="enable-background:new 0 0 300 250;" xml:space="preserve">
<style type="text/css">
	.st0{fill:#133C7D;}
</style>
<g id="Layer_2">
	<g>
		<path class="st0" d="M20.2,21.7c0-0.6,0.5-1.1,1.1-1.1c0.6,0,1.1,0.5,1.1,1.1V32c0,0.6-0.5,1.1-1.1,1.1c-0.6,0-1.1-0.5-1.1-1.1
			V21.7z"/>
		<path class="st0" d="M24.1,32.1c-0.2-0.1-0.4-0.4-0.4-0.7c0-0.5,0.4-0.9,0.9-0.9c0.2,0,0.3,0.1,0.5,0.1c0.9,0.6,1.8,0.9,2.7,0.9
			c0.9,0,1.4-0.4,1.4-1v0c0-0.7-1-1-2.1-1.3c-1.4-0.4-2.9-0.9-2.9-2.7v0c0-1.8,1.5-2.8,3.3-2.8c1,0,2,0.3,2.9,0.8
			c0.3,0.2,0.5,0.4,0.5,0.8c0,0.5-0.4,0.9-0.9,0.9c-0.2,0-0.3,0-0.4-0.1c-0.8-0.4-1.5-0.6-2.2-0.6c-0.8,0-1.3,0.4-1.3,0.9v0
			c0,0.7,1,1,2.1,1.3c1.3,0.4,2.9,1,2.9,2.7v0c0,1.9-1.5,2.9-3.4,2.9C26.5,33.2,25.2,32.8,24.1,32.1z"/>
		<path class="st0" d="M36.9,35.6c-0.3-0.1-0.7-0.4-0.7-0.9c0-0.5,0.4-0.9,0.9-0.9c0.2,0,0.3,0,0.4,0.1c0.2,0.1,0.4,0.1,0.7,0.1
			c0.6,0,1-0.3,1.3-1l0.1-0.2l-3.4-7.7C36.1,25,36,24.8,36,24.7c0-0.6,0.5-1,1.1-1c0.5,0,0.8,0.3,1,0.8l2.5,6.1l2.3-6.1
			c0.2-0.4,0.5-0.8,1-0.8c0.6,0,1,0.4,1,1c0,0.2-0.1,0.4-0.1,0.5l-3.4,8.1c-0.8,1.9-1.6,2.6-3.1,2.6C37.7,35.9,37.3,35.8,36.9,35.6z
			"/>
		<path class="st0" d="M45.1,28.4L45.1,28.4c0-2.7,2.1-4.9,4.9-4.9c2.8,0,4.9,2.2,4.9,4.8v0c0,2.6-2.1,4.8-5,4.8
			C47.2,33.2,45.1,31.1,45.1,28.4z M52.9,28.4L52.9,28.4c0-1.7-1.2-3-2.8-3c-1.7,0-2.8,1.3-2.8,2.9v0c0,1.6,1.2,3,2.8,3
			C51.8,31.4,52.9,30,52.9,28.4z"/>
		<path class="st0" d="M64.4,32c0,0.6-0.5,1-1.1,1c-0.6,0-1.1-0.5-1.1-1v-0.5c-0.6,0.9-1.5,1.6-2.9,1.6c-2.1,0-3.3-1.4-3.3-3.6v-4.9
			c0-0.6,0.5-1.1,1.1-1.1c0.6,0,1.1,0.5,1.1,1.1V29c0,1.4,0.7,2.2,2,2.2c1.2,0,2.1-0.8,2.1-2.3v-4.3c0-0.6,0.5-1.1,1.1-1.1
			c0.6,0,1.1,0.5,1.1,1.1V32z"/>
		<path class="st0" d="M66.2,24.7c0-0.6,0.5-1.1,1.1-1.1c0.6,0,1.1,0.5,1.1,1.1v0.9c0.5-1.2,1.4-2,2.3-2c0.7,0,1.1,0.4,1.1,1
			c0,0.6-0.4,0.9-0.8,1c-1.5,0.3-2.5,1.4-2.5,3.6V32c0,0.6-0.5,1-1.1,1c-0.6,0-1.1-0.5-1.1-1V24.7z"/>
		<path class="st0" d="M76.8,21.2c0-0.6,0.5-1,1.1-1c0.6,0,1.1,0.5,1.1,1v4.1c0.7-1,1.6-1.7,3.2-1.7c2.2,0,4.3,1.7,4.3,4.8v0
			c0,3.1-2.1,4.8-4.3,4.8c-1.5,0-2.5-0.8-3.2-1.6V32c0,0.6-0.5,1-1.1,1c-0.6,0-1.1-0.5-1.1-1V21.2z M84.2,28.4L84.2,28.4
			c0-1.8-1.2-3-2.6-3c-1.4,0-2.7,1.2-2.7,3v0c0,1.8,1.3,3,2.7,3C83,31.4,84.2,30.2,84.2,28.4z"/>
		<path class="st0" d="M95.9,32c0,0.6-0.5,1-1.1,1c-0.6,0-1.1-0.5-1.1-1v-0.5c-0.6,0.9-1.5,1.6-2.9,1.6c-2.1,0-3.3-1.4-3.3-3.6v-4.9
			c0-0.6,0.5-1.1,1.1-1.1c0.6,0,1.1,0.5,1.1,1.1V29c0,1.4,0.7,2.2,2,2.2c1.2,0,2.1-0.8,2.1-2.3v-4.3c0-0.6,0.5-1.1,1.1-1.1
			c0.6,0,1.1,0.5,1.1,1.1V32z"/>
		<path class="st0" d="M97.2,32.1c-0.2-0.1-0.4-0.4-0.4-0.7c0-0.5,0.4-0.9,0.9-0.9c0.2,0,0.3,0.1,0.5,0.1c0.9,0.6,1.8,0.9,2.7,0.9
			c0.9,0,1.4-0.4,1.4-1v0c0-0.7-1-1-2.1-1.3c-1.4-0.4-2.9-0.9-2.9-2.7v0c0-1.8,1.5-2.8,3.3-2.8c1,0,2,0.3,2.9,0.8
			c0.3,0.2,0.5,0.4,0.5,0.8c0,0.5-0.4,0.9-0.9,0.9c-0.2,0-0.3,0-0.4-0.1c-0.8-0.4-1.5-0.6-2.2-0.6c-0.8,0-1.3,0.4-1.3,0.9v0
			c0,0.7,1,1,2.1,1.3c1.3,0.4,2.9,1,2.9,2.7v0c0,1.9-1.5,2.9-3.4,2.9C99.6,33.2,98.3,32.8,97.2,32.1z"/>
		<path class="st0" d="M105.4,21.3c0-0.6,0.5-1,1.2-1s1.2,0.4,1.2,1v0.1c0,0.6-0.5,1-1.2,1s-1.2-0.4-1.2-1V21.3z M105.6,24.7
			c0-0.6,0.5-1.1,1-1.1c0.6,0,1.1,0.5,1.1,1.1V32c0,0.6-0.5,1-1.1,1c-0.6,0-1-0.5-1-1V24.7z"/>
		<path class="st0" d="M109.6,24.7c0-0.6,0.5-1.1,1-1.1c0.6,0,1.1,0.5,1.1,1.1v0.5c0.6-0.9,1.5-1.6,2.9-1.6c2.1,0,3.3,1.4,3.3,3.5
			V32c0,0.6-0.5,1-1,1c-0.6,0-1.1-0.5-1.1-1v-4.3c0-1.4-0.7-2.3-2-2.3c-1.2,0-2.1,0.9-2.1,2.3V32c0,0.6-0.5,1-1.1,1
			c-0.6,0-1-0.5-1-1V24.7z"/>
		<path class="st0" d="M123.7,33.2c-2.7,0-4.7-1.9-4.7-4.8v0c0-2.6,1.9-4.8,4.5-4.8c2.9,0,4.4,2.4,4.4,4.6c0,0.6-0.5,1-1,1h-5.8
			c0.2,1.5,1.3,2.3,2.7,2.3c0.9,0,1.6-0.3,2.2-0.8c0.2-0.1,0.3-0.2,0.5-0.2c0.5,0,0.8,0.4,0.8,0.9c0,0.3-0.1,0.5-0.3,0.6
			C126.2,32.7,125.2,33.2,123.7,33.2z M125.8,27.7c-0.1-1.4-0.9-2.4-2.3-2.4c-1.3,0-2.2,1-2.4,2.4H125.8z"/>
		<path class="st0" d="M128.8,32.1c-0.2-0.1-0.4-0.4-0.4-0.7c0-0.5,0.4-0.9,0.9-0.9c0.2,0,0.3,0.1,0.5,0.1c0.9,0.6,1.8,0.9,2.7,0.9
			c0.9,0,1.4-0.4,1.4-1v0c0-0.7-1-1-2.1-1.3c-1.4-0.4-2.9-0.9-2.9-2.7v0c0-1.8,1.5-2.8,3.3-2.8c1,0,2,0.3,2.9,0.8
			c0.3,0.2,0.5,0.4,0.5,0.8c0,0.5-0.4,0.9-0.9,0.9c-0.2,0-0.3,0-0.4-0.1c-0.8-0.4-1.5-0.6-2.2-0.6c-0.8,0-1.3,0.4-1.3,0.9v0
			c0,0.7,1,1,2.1,1.3c1.3,0.4,2.9,1,2.9,2.7v0c0,1.9-1.5,2.9-3.4,2.9C131.1,33.2,129.9,32.8,128.8,32.1z"/>
		<path class="st0" d="M136.5,32.1c-0.2-0.1-0.4-0.4-0.4-0.7c0-0.5,0.4-0.9,0.9-0.9c0.2,0,0.3,0.1,0.5,0.1c0.9,0.6,1.8,0.9,2.7,0.9
			c0.9,0,1.4-0.4,1.4-1v0c0-0.7-1-1-2.1-1.3c-1.4-0.4-2.9-0.9-2.9-2.7v0c0-1.8,1.5-2.8,3.3-2.8c1,0,2,0.3,2.9,0.8
			c0.3,0.2,0.5,0.4,0.5,0.8c0,0.5-0.4,0.9-0.9,0.9c-0.2,0-0.3,0-0.4-0.1c-0.8-0.4-1.5-0.6-2.2-0.6c-0.8,0-1.3,0.4-1.3,0.9v0
			c0,0.7,1,1,2.1,1.3c1.3,0.4,2.9,1,2.9,2.7v0c0,1.9-1.5,2.9-3.4,2.9C138.8,33.2,137.6,32.8,136.5,32.1z"/>
		<path class="st0" d="M149,24.7c0-0.6,0.5-1.1,1-1.1c0.6,0,1.1,0.5,1.1,1.1v0.9c0.5-1.2,1.4-2,2.3-2c0.7,0,1.1,0.4,1.1,1
			c0,0.6-0.4,0.9-0.8,1c-1.5,0.3-2.5,1.4-2.5,3.6V32c0,0.6-0.5,1-1.1,1c-0.6,0-1-0.5-1-1V24.7z"/>
		<path class="st0" d="M159.3,33.2c-2.7,0-4.7-1.9-4.7-4.8v0c0-2.6,1.9-4.8,4.5-4.8c2.9,0,4.4,2.4,4.4,4.6c0,0.6-0.5,1-1,1h-5.8
			c0.2,1.5,1.3,2.3,2.7,2.3c0.9,0,1.6-0.3,2.2-0.8c0.2-0.1,0.3-0.2,0.5-0.2c0.5,0,0.8,0.4,0.8,0.9c0,0.3-0.1,0.5-0.3,0.6
			C161.8,32.7,160.7,33.2,159.3,33.2z M161.4,27.7c-0.1-1.4-0.9-2.4-2.3-2.4c-1.3,0-2.2,1-2.4,2.4H161.4z"/>
		<path class="st0" d="M164.1,30.3L164.1,30.3c0-2,1.6-3,3.8-3c1,0,1.8,0.2,2.5,0.4v-0.2c0-1.3-0.8-2-2.3-2c-0.8,0-1.5,0.1-2,0.4
			c-0.1,0-0.2,0.1-0.3,0.1c-0.5,0-0.9-0.4-0.9-0.9c0-0.4,0.3-0.7,0.6-0.8c0.9-0.3,1.8-0.5,3-0.5c1.4,0,2.4,0.4,3.1,1
			c0.7,0.7,1,1.6,1,2.9v4.6c0,0.6-0.5,1-1,1c-0.6,0-1-0.4-1-0.9v-0.4c-0.6,0.8-1.6,1.3-3,1.3C165.6,33.2,164.1,32.2,164.1,30.3z
			 M170.4,29.7V29c-0.5-0.2-1.3-0.4-2.1-0.4c-1.4,0-2.2,0.6-2.2,1.5v0c0,0.9,0.8,1.4,1.8,1.4C169.3,31.7,170.4,30.8,170.4,29.7z"/>
		<path class="st0" d="M183.1,32c0,0.6-0.5,1-1.1,1c-0.6,0-1.1-0.5-1.1-1v-0.6c-0.7,1-1.6,1.7-3.2,1.7c-2.2,0-4.3-1.7-4.3-4.8v0
			c0-3.1,2.1-4.8,4.3-4.8c1.5,0,2.5,0.8,3.2,1.6v-4c0-0.6,0.5-1,1-1c0.6,0,1.1,0.5,1.1,1V32z M175.7,28.4L175.7,28.4
			c0,1.8,1.2,3,2.7,3c1.4,0,2.7-1.2,2.7-3v0c0-1.8-1.3-3-2.7-3C176.9,25.4,175.7,26.5,175.7,28.4z"/>
		<path class="st0" d="M185.1,35.6c-0.3-0.1-0.7-0.4-0.7-0.9c0-0.5,0.4-0.9,0.9-0.9c0.2,0,0.3,0,0.4,0.1c0.2,0.1,0.4,0.1,0.7,0.1
			c0.6,0,1-0.3,1.3-1l0.1-0.2l-3.4-7.7c-0.1-0.2-0.1-0.4-0.1-0.5c0-0.6,0.5-1,1-1c0.5,0,0.8,0.3,1,0.8l2.5,6.1l2.3-6.1
			c0.2-0.4,0.5-0.8,1-0.8c0.6,0,1,0.4,1,1c0,0.2-0.1,0.4-0.1,0.5l-3.4,8.1c-0.8,1.9-1.6,2.6-3.1,2.6C186,35.9,185.5,35.8,185.1,35.6
			z"/>
		<path class="st0" d="M199,30.4v-4.9h-0.3c-0.5,0-0.9-0.4-0.9-0.9c0-0.5,0.4-0.9,0.9-0.9h0.3v-1.6c0-0.6,0.5-1.1,1.1-1.1
			c0.6,0,1.1,0.5,1.1,1.1v1.6h1.7c0.5,0,0.9,0.4,0.9,0.9c0,0.5-0.4,0.9-0.9,0.9h-1.7v4.5c0,0.8,0.4,1.2,1.1,1.2
			c0.2,0,0.5-0.1,0.5-0.1c0.5,0,0.9,0.4,0.9,0.9c0,0.4-0.3,0.7-0.6,0.8c-0.5,0.2-0.9,0.2-1.5,0.2C200.1,33.2,199,32.5,199,30.4z"/>
		<path class="st0" d="M204.1,28.4L204.1,28.4c0-2.7,2.1-4.9,4.9-4.9c2.8,0,4.9,2.2,4.9,4.8v0c0,2.6-2.1,4.8-5,4.8
			C206.2,33.2,204.1,31.1,204.1,28.4z M211.8,28.4L211.8,28.4c0-1.7-1.2-3-2.8-3c-1.7,0-2.8,1.3-2.8,2.9v0c0,1.6,1.2,3,2.8,3
			C210.8,31.4,211.8,30,211.8,28.4z"/>
		<path class="st0" d="M219.2,32.1c-0.2-0.1-0.4-0.4-0.4-0.7c0-0.5,0.4-0.9,0.9-0.9c0.2,0,0.3,0.1,0.5,0.1c0.9,0.6,1.8,0.9,2.7,0.9
			c0.9,0,1.4-0.4,1.4-1v0c0-0.7-1-1-2.1-1.3c-1.4-0.4-2.9-0.9-2.9-2.7v0c0-1.8,1.5-2.8,3.3-2.8c1,0,2,0.3,2.9,0.8
			c0.3,0.2,0.5,0.4,0.5,0.8c0,0.5-0.4,0.9-0.9,0.9c-0.2,0-0.3,0-0.4-0.1c-0.8-0.4-1.5-0.6-2.2-0.6c-0.8,0-1.3,0.4-1.3,0.9v0
			c0,0.7,1,1,2.1,1.3c1.3,0.4,2.9,1,2.9,2.7v0c0,1.9-1.5,2.9-3.4,2.9C221.5,33.2,220.3,32.8,219.2,32.1z"/>
		<path class="st0" d="M229.2,32.2l-2.5-7c-0.1-0.1-0.1-0.4-0.1-0.5c0-0.5,0.4-1,1-1c0.5,0,0.9,0.4,1,0.8l1.8,5.6l1.8-5.6
			c0.2-0.5,0.5-0.8,1.1-0.8h0.1c0.5,0,0.9,0.4,1.1,0.8l1.8,5.6l1.8-5.6c0.1-0.5,0.5-0.8,1-0.8c0.6,0,1,0.5,1,1
			c0,0.2-0.1,0.4-0.1,0.5l-2.5,7.1c-0.2,0.6-0.7,0.9-1.2,0.9h-0.1c-0.5,0-1-0.3-1.2-0.9l-1.8-5.5l-1.8,5.5c-0.2,0.6-0.6,0.9-1.1,0.9
			h-0.1C229.8,33.2,229.4,32.9,229.2,32.2z"/>
		<path class="st0" d="M241.2,21.3c0-0.6,0.5-1,1.2-1s1.2,0.4,1.2,1v0.1c0,0.6-0.5,1-1.2,1s-1.2-0.4-1.2-1V21.3z M241.4,24.7
			c0-0.6,0.5-1.1,1-1.1c0.6,0,1.1,0.5,1.1,1.1V32c0,0.6-0.5,1-1.1,1c-0.6,0-1-0.5-1-1V24.7z"/>
		<path class="st0" d="M245.8,30.4v-4.9h-0.3c-0.5,0-0.9-0.4-0.9-0.9c0-0.5,0.4-0.9,0.9-0.9h0.3v-1.6c0-0.6,0.5-1.1,1.1-1.1
			c0.6,0,1.1,0.5,1.1,1.1v1.6h1.7c0.5,0,0.9,0.4,0.9,0.9c0,0.5-0.4,0.9-0.9,0.9h-1.7v4.5c0,0.8,0.4,1.2,1.1,1.2
			c0.2,0,0.5-0.1,0.5-0.1c0.5,0,0.9,0.4,0.9,0.9c0,0.4-0.3,0.7-0.6,0.8c-0.5,0.2-0.9,0.2-1.5,0.2C246.9,33.2,245.8,32.5,245.8,30.4z
			"/>
		<path class="st0" d="M250.9,28.4L250.9,28.4c0-2.7,2-4.9,4.8-4.9c1.5,0,2.5,0.5,3.2,1.2c0.1,0.1,0.3,0.4,0.3,0.7c0,0.5-0.4,1-1,1
			c-0.3,0-0.5-0.1-0.6-0.2c-0.5-0.5-1.1-0.8-2-0.8c-1.5,0-2.7,1.3-2.7,2.9v0c0,1.6,1.1,3,2.8,3c0.8,0,1.5-0.3,2.1-0.8
			c0.1-0.1,0.3-0.2,0.6-0.2c0.5,0,0.9,0.4,0.9,0.9c0,0.3-0.1,0.5-0.3,0.7c-0.8,0.8-1.8,1.3-3.4,1.3
			C252.9,33.2,250.9,31.1,250.9,28.4z"/>
		<path class="st0" d="M260.5,21.2c0-0.6,0.5-1,1-1c0.6,0,1.1,0.5,1.1,1v4c0.6-0.9,1.5-1.6,2.9-1.6c2.1,0,3.3,1.4,3.3,3.5V32
			c0,0.6-0.5,1-1,1c-0.6,0-1.1-0.5-1.1-1v-4.3c0-1.4-0.7-2.3-2-2.3c-1.2,0-2.1,0.9-2.1,2.3V32c0,0.6-0.5,1-1.1,1c-0.6,0-1-0.5-1-1
			V21.2z"/>
		<path class="st0" d="M20.3,50.4v-4.9h-0.4c-0.5,0-0.9-0.4-0.9-0.9c0-0.5,0.4-0.9,0.9-0.9h0.4v-1.6c0-0.6,0.5-1.1,1.1-1.1
			c0.6,0,1,0.5,1,1.1v1.6H24c0.5,0,0.9,0.4,0.9,0.9c0,0.5-0.4,0.9-0.9,0.9h-1.7v4.5c0,0.8,0.4,1.2,1.1,1.2c0.2,0,0.5-0.1,0.5-0.1
			c0.5,0,0.9,0.4,0.9,0.9c0,0.4-0.3,0.7-0.6,0.8c-0.5,0.2-0.9,0.2-1.5,0.2C21.4,53.2,20.3,52.5,20.3,50.4z"/>
		<path class="st0" d="M25.3,48.4L25.3,48.4c0-2.7,2.1-4.9,4.9-4.9c2.8,0,4.9,2.2,4.9,4.8v0c0,2.6-2.1,4.8-5,4.8
			C27.4,53.2,25.3,51.1,25.3,48.4z M33.1,48.4L33.1,48.4c0-1.7-1.2-3-2.8-3c-1.7,0-2.8,1.3-2.8,2.9v0c0,1.6,1.2,3,2.8,3
			C32,51.4,33.1,50,33.1,48.4z"/>
		<path class="st0" d="M40.2,50.3L40.2,50.3c0-2,1.6-3,3.8-3c1,0,1.8,0.2,2.5,0.4v-0.2c0-1.3-0.8-2-2.3-2c-0.8,0-1.5,0.1-2,0.4
			c-0.1,0-0.2,0.1-0.3,0.1c-0.5,0-0.9-0.4-0.9-0.9c0-0.4,0.3-0.7,0.6-0.8c0.9-0.3,1.8-0.5,3-0.5c1.4,0,2.4,0.4,3.1,1
			c0.7,0.7,1,1.6,1,2.9v4.6c0,0.6-0.5,1-1,1c-0.6,0-1-0.4-1-0.9v-0.4c-0.6,0.8-1.6,1.3-3,1.3C41.7,53.2,40.2,52.2,40.2,50.3z
			 M46.5,49.7V49c-0.5-0.2-1.3-0.4-2.1-0.4c-1.4,0-2.2,0.6-2.2,1.5v0c0,0.9,0.8,1.4,1.8,1.4C45.4,51.7,46.5,50.8,46.5,49.7z"/>
		<path class="st0" d="M50.1,44.7c0-0.6,0.5-1.1,1.1-1.1c0.6,0,1.1,0.5,1.1,1.1v0.5c0.6-0.9,1.5-1.6,2.9-1.6c2.1,0,3.3,1.4,3.3,3.5
			V52c0,0.6-0.5,1.1-1.1,1.1c-0.6,0-1.1-0.5-1.1-1.1v-4.3c0-1.4-0.7-2.3-2-2.3c-1.2,0-2.1,0.9-2.1,2.3V52c0,0.6-0.5,1.1-1.1,1.1
			c-0.6,0-1.1-0.5-1.1-1.1V44.7z"/>
		<path class="st0" d="M64.3,44.8c0-0.7,0.6-1.3,1.3-1.3c0.7,0,1.3,0.6,1.3,1.3v0.1c0.6-0.8,1.4-1.5,2.7-1.5c2,0,3.2,1.3,3.2,3.5
			v4.8c0,0.7-0.6,1.3-1.3,1.3c-0.7,0-1.3-0.6-1.3-1.3v-4c0-1.3-0.6-1.9-1.6-1.9s-1.7,0.6-1.7,1.9v4c0,0.7-0.6,1.3-1.3,1.3
			c-0.7,0-1.3-0.6-1.3-1.3V44.8z"/>
		<path class="st0" d="M74.3,41.4c0-0.7,0.6-1.3,1.3-1.3c0.7,0,1.3,0.6,1.3,1.3V45c0.6-0.9,1.5-1.5,2.9-1.5c2.2,0,4.3,1.7,4.3,4.8v0
			c0,3.1-2,4.8-4.3,4.8c-1.4,0-2.3-0.6-2.9-1.4v0c0,0.7-0.6,1.3-1.3,1.3c-0.7,0-1.3-0.6-1.3-1.3V41.4z M81.5,48.3L81.5,48.3
			c0-1.6-1-2.6-2.3-2.6s-2.3,1-2.3,2.6v0c0,1.6,1,2.6,2.3,2.6S81.5,49.9,81.5,48.3z"/>
		<path class="st0" d="M85.2,44.8c0-0.7,0.6-1.3,1.3-1.3c0.7,0,1.3,0.6,1.3,1.3v0.1c0.6-0.8,1.4-1.5,2.7-1.5c2,0,3.2,1.3,3.2,3.5
			v4.8c0,0.7-0.6,1.3-1.3,1.3c-0.7,0-1.3-0.6-1.3-1.3v-4c0-1.3-0.6-1.9-1.6-1.9s-1.7,0.6-1.7,1.9v4c0,0.7-0.6,1.3-1.3,1.3
			c-0.7,0-1.3-0.6-1.3-1.3V44.8z"/>
		<path class="st0" d="M111.8,44.7c0-0.6,0.5-1.1,1-1.1c0.6,0,1.1,0.5,1.1,1.1v0.6c0.7-1,1.6-1.7,3.2-1.7c2.2,0,4.3,1.7,4.3,4.8v0
			c0,3.1-2.1,4.8-4.3,4.8c-1.5,0-2.5-0.8-3.2-1.6v3.3c0,0.6-0.5,1-1.1,1c-0.6,0-1-0.5-1-1V44.7z M119.2,48.4L119.2,48.4
			c0-1.8-1.2-3-2.6-3c-1.4,0-2.7,1.2-2.7,3v0c0,1.8,1.3,3,2.7,3C118,51.4,119.2,50.2,119.2,48.4z"/>
		<path class="st0" d="M122.1,48.4L122.1,48.4c0-2.7,2.1-4.9,4.9-4.9c2.8,0,4.9,2.2,4.9,4.8v0c0,2.6-2.1,4.8-5,4.8
			C124.2,53.2,122.1,51.1,122.1,48.4z M129.9,48.4L129.9,48.4c0-1.7-1.2-3-2.8-3c-1.7,0-2.8,1.3-2.8,2.9v0c0,1.6,1.2,3,2.8,3
			C128.8,51.4,129.9,50,129.9,48.4z"/>
		<path class="st0" d="M134.8,52.2l-2.5-7c-0.1-0.1-0.1-0.4-0.1-0.5c0-0.5,0.4-1,1-1c0.5,0,0.9,0.4,1,0.8l1.8,5.6l1.8-5.6
			c0.2-0.5,0.5-0.8,1.1-0.8h0.1c0.5,0,0.9,0.4,1.1,0.8l1.8,5.6l1.8-5.6c0.1-0.5,0.5-0.8,1-0.8c0.6,0,1,0.5,1,1
			c0,0.2-0.1,0.4-0.1,0.5l-2.5,7.1c-0.2,0.6-0.7,0.9-1.2,0.9H142c-0.5,0-1-0.3-1.2-0.9l-1.8-5.5l-1.8,5.5c-0.2,0.6-0.6,0.9-1.1,0.9
			H136C135.5,53.2,135,52.9,134.8,52.2z"/>
		<path class="st0" d="M150.9,53.2c-2.7,0-4.7-1.9-4.7-4.8v0c0-2.6,1.9-4.8,4.5-4.8c2.9,0,4.4,2.4,4.4,4.6c0,0.6-0.5,1-1,1h-5.8
			c0.2,1.5,1.3,2.3,2.7,2.3c0.9,0,1.6-0.3,2.2-0.8c0.2-0.1,0.3-0.2,0.5-0.2c0.5,0,0.8,0.4,0.8,0.9c0,0.3-0.1,0.5-0.3,0.6
			C153.4,52.7,152.3,53.2,150.9,53.2z M153,47.7c-0.1-1.4-0.9-2.4-2.3-2.4c-1.3,0-2.2,1-2.4,2.4H153z"/>
		<path class="st0" d="M156.3,44.7c0-0.6,0.5-1.1,1-1.1c0.6,0,1.1,0.5,1.1,1.1v0.9c0.5-1.2,1.4-2,2.3-2c0.7,0,1.1,0.4,1.1,1
			c0,0.6-0.4,0.9-0.8,1c-1.5,0.3-2.5,1.4-2.5,3.6V52c0,0.6-0.5,1.1-1.1,1.1c-0.6,0-1-0.5-1-1.1V44.7z"/>
		<path class="st0" d="M166.5,53.2c-2.7,0-4.7-1.9-4.7-4.8v0c0-2.6,1.9-4.8,4.5-4.8c2.9,0,4.4,2.4,4.4,4.6c0,0.6-0.5,1-1,1h-5.8
			c0.2,1.5,1.3,2.3,2.7,2.3c0.9,0,1.6-0.3,2.2-0.8c0.2-0.1,0.3-0.2,0.5-0.2c0.5,0,0.8,0.4,0.8,0.9c0,0.3-0.1,0.5-0.3,0.6
			C169,52.7,168,53.2,166.5,53.2z M168.6,47.7c-0.1-1.4-0.9-2.4-2.3-2.4c-1.3,0-2.2,1-2.4,2.4H168.6z"/>
		<path class="st0" d="M181,52c0,0.6-0.5,1.1-1.1,1.1c-0.6,0-1.1-0.5-1.1-1.1v-0.6c-0.7,1-1.6,1.7-3.2,1.7c-2.2,0-4.3-1.7-4.3-4.8v0
			c0-3.1,2.1-4.8,4.3-4.8c1.5,0,2.5,0.8,3.2,1.6v-4c0-0.6,0.5-1,1-1c0.6,0,1.1,0.5,1.1,1V52z M173.6,48.4L173.6,48.4
			c0,1.8,1.2,3,2.7,3c1.4,0,2.7-1.2,2.7-3v0c0-1.8-1.3-3-2.7-3C174.8,45.4,173.6,46.5,173.6,48.4z"/>
		<path class="st0" d="M187.1,44.7c0-0.6,0.5-1.1,1-1.1c0.6,0,1.1,0.5,1.1,1.1v0.6c0.7-1,1.6-1.7,3.2-1.7c2.2,0,4.3,1.7,4.3,4.8v0
			c0,3.1-2.1,4.8-4.3,4.8c-1.5,0-2.5-0.8-3.2-1.6v3.3c0,0.6-0.5,1-1.1,1c-0.6,0-1-0.5-1-1V44.7z M194.5,48.4L194.5,48.4
			c0-1.8-1.2-3-2.6-3c-1.4,0-2.7,1.2-2.7,3v0c0,1.8,1.3,3,2.7,3C193.3,51.4,194.5,50.2,194.5,48.4z"/>
		<path class="st0" d="M198.1,41.2c0-0.6,0.5-1,1-1c0.6,0,1.1,0.5,1.1,1V52c0,0.6-0.5,1.1-1.1,1.1c-0.6,0-1-0.5-1-1.1V41.2z"/>
		<path class="st0" d="M201.4,50.3L201.4,50.3c0-2,1.6-3,3.8-3c1,0,1.8,0.2,2.5,0.4v-0.2c0-1.3-0.8-2-2.3-2c-0.8,0-1.5,0.1-2,0.4
			c-0.1,0-0.2,0.1-0.3,0.1c-0.5,0-0.9-0.4-0.9-0.9c0-0.4,0.3-0.7,0.6-0.8c0.9-0.3,1.8-0.5,3-0.5c1.4,0,2.4,0.4,3.1,1
			c0.7,0.7,1,1.6,1,2.9v4.6c0,0.6-0.5,1-1,1c-0.6,0-1-0.4-1-0.9v-0.4c-0.6,0.8-1.6,1.3-3,1.3C203,53.2,201.4,52.2,201.4,50.3z
			 M207.8,49.7V49c-0.5-0.2-1.3-0.4-2.1-0.4c-1.4,0-2.2,0.6-2.2,1.5v0c0,0.9,0.8,1.4,1.8,1.4C206.7,51.7,207.8,50.8,207.8,49.7z"/>
		<path class="st0" d="M211.4,44.7c0-0.6,0.5-1.1,1-1.1c0.6,0,1.1,0.5,1.1,1.1v0.5c0.6-0.9,1.5-1.6,2.9-1.6c2.1,0,3.3,1.4,3.3,3.5
			V52c0,0.6-0.5,1.1-1,1.1c-0.6,0-1.1-0.5-1.1-1.1v-4.3c0-1.4-0.7-2.3-2-2.3c-1.2,0-2.1,0.9-2.1,2.3V52c0,0.6-0.5,1.1-1.1,1.1
			c-0.6,0-1-0.5-1-1.1V44.7z"/>
		<path class="st0" d="M20.3,65.6h-0.4c-0.5,0-0.9-0.4-0.9-0.9s0.4-0.9,0.9-0.9h0.4v-0.7c0-1,0.3-1.8,0.8-2.3
			c0.5-0.5,1.2-0.7,2.1-0.7c0.4,0,0.8,0,1.1,0.1c0.4,0.1,0.7,0.4,0.7,0.9c0,0.5-0.4,0.9-0.9,0.9c-0.1,0-0.3,0-0.4,0
			c-0.8,0-1.2,0.4-1.2,1.4v0.5H24c0.5,0,0.9,0.4,0.9,0.9s-0.4,0.9-0.9,0.9h-1.6V72c0,0.6-0.5,1.1-1.1,1.1c-0.6,0-1.1-0.5-1.1-1.1
			V65.6z"/>
		<path class="st0" d="M25.5,64.7c0-0.6,0.5-1.1,1.1-1.1c0.6,0,1.1,0.5,1.1,1.1v0.9c0.5-1.2,1.4-2,2.3-2c0.7,0,1.1,0.4,1.1,1
			c0,0.6-0.4,0.9-0.8,1c-1.5,0.3-2.5,1.4-2.5,3.6V72c0,0.6-0.5,1.1-1.1,1.1c-0.6,0-1.1-0.5-1.1-1.1V64.7z"/>
		<path class="st0" d="M31,68.4L31,68.4c0-2.7,2.1-4.9,4.9-4.9c2.8,0,4.9,2.2,4.9,4.8v0c0,2.6-2.1,4.8-5,4.8
			C33.1,73.2,31,71.1,31,68.4z M38.7,68.4L38.7,68.4c0-1.7-1.2-3-2.8-3c-1.7,0-2.8,1.3-2.8,2.9v0c0,1.6,1.2,3,2.8,3
			C37.6,71.4,38.7,70,38.7,68.4z"/>
		<path class="st0" d="M42.1,64.7c0-0.6,0.5-1.1,1.1-1.1c0.6,0,1.1,0.5,1.1,1.1v0.4c0.6-0.8,1.4-1.6,2.8-1.6c1.3,0,2.3,0.6,2.8,1.6
			c0.7-1,1.7-1.6,3.1-1.6c2,0,3.2,1.3,3.2,3.5V72c0,0.6-0.5,1.1-1.1,1.1S54,72.6,54,72v-4.3c0-1.5-0.7-2.3-1.9-2.3
			c-1.2,0-2,0.8-2,2.3V72c0,0.6-0.5,1.1-1.1,1.1c-0.6,0-1.1-0.5-1.1-1.1v-4.3c0-1.4-0.7-2.2-1.9-2.2c-1.2,0-2,0.9-2,2.3V72
			c0,0.6-0.5,1.1-1.1,1.1c-0.6,0-1.1-0.5-1.1-1.1V64.7z"/>
		<path class="st0" d="M61.5,70.3L61.5,70.3c0-2,1.6-3,3.8-3c1,0,1.8,0.2,2.5,0.4v-0.2c0-1.3-0.8-2-2.3-2c-0.8,0-1.5,0.1-2,0.4
			c-0.1,0-0.2,0.1-0.3,0.1c-0.5,0-0.9-0.4-0.9-0.9c0-0.4,0.3-0.7,0.6-0.8c0.9-0.3,1.8-0.5,3-0.5c1.4,0,2.4,0.4,3.1,1
			c0.7,0.7,1,1.6,1,2.9v4.6c0,0.6-0.5,1-1,1c-0.6,0-1-0.4-1-0.9v-0.4c-0.6,0.8-1.6,1.3-3,1.3C63.1,73.2,61.5,72.2,61.5,70.3z
			 M67.9,69.7V69c-0.5-0.2-1.3-0.4-2.1-0.4c-1.4,0-2.2,0.6-2.2,1.5v0c0,0.9,0.8,1.4,1.8,1.4C66.8,71.7,67.9,70.8,67.9,69.7z"/>
		<path class="st0" d="M75.8,64.7c0-0.6,0.5-1.1,1.1-1.1c0.6,0,1.1,0.5,1.1,1.1v0.6c0.7-1,1.6-1.7,3.2-1.7c2.2,0,4.3,1.7,4.3,4.8v0
			c0,3.1-2.1,4.8-4.3,4.8c-1.5,0-2.5-0.8-3.2-1.6v3.3c0,0.6-0.5,1-1.1,1c-0.6,0-1.1-0.5-1.1-1V64.7z M83.2,68.4L83.2,68.4
			c0-1.8-1.2-3-2.6-3c-1.4,0-2.7,1.2-2.7,3v0c0,1.8,1.3,3,2.7,3C82.1,71.4,83.2,70.2,83.2,68.4z"/>
		<path class="st0" d="M86.7,64.7c0-0.6,0.5-1.1,1.1-1.1c0.6,0,1.1,0.5,1.1,1.1v0.9c0.5-1.2,1.4-2,2.3-2c0.7,0,1.1,0.4,1.1,1
			c0,0.6-0.4,0.9-0.8,1c-1.5,0.3-2.5,1.4-2.5,3.6V72c0,0.6-0.5,1.1-1.1,1.1c-0.6,0-1.1-0.5-1.1-1.1V64.7z"/>
		<path class="st0" d="M92.2,68.4L92.2,68.4c0-2.7,2.1-4.9,4.9-4.9c2.8,0,4.9,2.2,4.9,4.8v0c0,2.6-2.1,4.8-5,4.8
			C94.3,73.2,92.2,71.1,92.2,68.4z M99.9,68.4L99.9,68.4c0-1.7-1.2-3-2.8-3c-1.7,0-2.8,1.3-2.8,2.9v0c0,1.6,1.2,3,2.8,3
			C98.8,71.4,99.9,70,99.9,68.4z"/>
		<path class="st0" d="M106.7,73.2h-0.1c-0.6,0-1-0.4-1.2-0.9l-3.1-7.1c-0.1-0.2-0.1-0.3-0.1-0.5c0-0.5,0.5-1,1.1-1s0.9,0.3,1,0.8
			l2.4,6.1l2.4-6.2c0.2-0.4,0.4-0.7,1-0.7c0.6,0,1,0.4,1,1c0,0.2-0.1,0.4-0.1,0.5l-3.1,7.1C107.7,72.8,107.3,73.2,106.7,73.2z"/>
		<path class="st0" d="M112.2,61.3c0-0.6,0.5-1,1.2-1s1.2,0.4,1.2,1v0.1c0,0.6-0.5,1-1.2,1s-1.2-0.4-1.2-1V61.3z M112.4,64.7
			c0-0.6,0.5-1.1,1-1.1c0.6,0,1.1,0.5,1.1,1.1V72c0,0.6-0.5,1.1-1.1,1.1c-0.6,0-1-0.5-1-1.1V64.7z"/>
		<path class="st0" d="M125.4,72c0,0.6-0.5,1.1-1.1,1.1c-0.6,0-1.1-0.5-1.1-1.1v-0.6c-0.7,1-1.6,1.7-3.2,1.7c-2.2,0-4.3-1.7-4.3-4.8
			v0c0-3.1,2.1-4.8,4.3-4.8c1.5,0,2.5,0.8,3.2,1.6v-4c0-0.6,0.5-1.1,1-1.1c0.6,0,1.1,0.5,1.1,1.1V72z M118,68.4L118,68.4
			c0,1.8,1.2,3,2.7,3c1.4,0,2.7-1.2,2.7-3v0c0-1.8-1.3-3-2.7-3C119.2,65.4,118,66.5,118,68.4z"/>
		<path class="st0" d="M131.4,73.2c-2.7,0-4.7-1.9-4.7-4.8v0c0-2.6,1.9-4.8,4.5-4.8c2.9,0,4.4,2.4,4.4,4.6c0,0.6-0.5,1-1,1h-5.8
			c0.2,1.5,1.3,2.3,2.7,2.3c0.9,0,1.6-0.3,2.2-0.8c0.2-0.1,0.3-0.2,0.5-0.2c0.5,0,0.8,0.4,0.8,0.9c0,0.3-0.1,0.5-0.3,0.6
			C133.9,72.7,132.8,73.2,131.4,73.2z M133.5,67.7c-0.1-1.4-0.9-2.4-2.3-2.4c-1.3,0-2.2,1-2.4,2.4H133.5z"/>
		<path class="st0" d="M136.8,64.7c0-0.6,0.5-1.1,1-1.1c0.6,0,1.1,0.5,1.1,1.1v0.9c0.5-1.2,1.4-2,2.3-2c0.7,0,1.1,0.4,1.1,1
			c0,0.6-0.4,0.9-0.8,1c-1.5,0.3-2.5,1.4-2.5,3.6V72c0,0.6-0.5,1.1-1.1,1.1c-0.6,0-1-0.5-1-1.1V64.7z"/>
		<path class="st0" d="M146.1,69.2c-0.4,0-0.7-0.3-0.8-0.7l-0.2-1.5c-0.1-0.5,0.2-0.8,0.7-0.9c1.6-0.2,2.6-0.8,2.6-1.9v0
			c0-1-0.8-1.7-2-1.7c-0.9,0-1.7,0.3-2.4,1c-0.2,0.1-0.4,0.2-0.6,0.2c-0.5,0-1-0.4-1-1c0-0.3,0.1-0.5,0.4-0.8
			c0.9-0.9,2.1-1.5,3.7-1.5c2.5,0,4.1,1.4,4.1,3.6v0c0,2.2-1.6,3.2-3.5,3.5l-0.1,0.8c-0.1,0.4-0.3,0.7-0.8,0.7H146.1z M146.1,70.5
			c0.7,0,1.2,0.5,1.2,1.2v0.2c0,0.7-0.5,1.2-1.2,1.2s-1.2-0.5-1.2-1.2v-0.2C144.8,71,145.4,70.5,146.1,70.5z"/>
	</g>
</g>
<g id="Layer_3">
	<g>
		<path class="st0" d="M97.6,41.1h-1.4c-0.3,0-0.5-0.2-0.5-0.5s0.2-0.5,0.5-0.5h3.8c0.3,0,0.5,0.2,0.5,0.5s-0.2,0.5-0.5,0.5h-1.4
			v4.3c0,0.3-0.2,0.5-0.5,0.5c-0.3,0-0.5-0.2-0.5-0.5V41.1z"/>
		<path class="st0" d="M101.1,40.6c0-0.3,0.2-0.5,0.5-0.5h0.1c0.2,0,0.4,0.1,0.5,0.3l1.7,2.7l1.7-2.7c0.1-0.2,0.3-0.3,0.5-0.3h0.1
			c0.3,0,0.5,0.2,0.5,0.5v4.8c0,0.3-0.2,0.5-0.5,0.5c-0.3,0-0.5-0.2-0.5-0.5V42l-1.4,2.1c-0.1,0.2-0.2,0.3-0.4,0.3
			c-0.2,0-0.3-0.1-0.4-0.3l-1.4-2.1v3.4c0,0.3-0.2,0.5-0.5,0.5c-0.3,0-0.5-0.2-0.5-0.5V40.6z"/>
	</g>
</g>
</svg>
