<?xml version="1.0" encoding="utf-8"?>
<!-- Generator: Adobe Illustrator 21.1.0, SVG Export Plug-In . SVG Version: 6.00 Build 0)  -->
<svg version="1.1" id="Layer_1" xmlns="http://www.w3.org/2000/svg" xmlns:xlink="http://www.w3.org/1999/xlink" x="0px" y="0px"
	 viewBox="0 0 300 250" style="enable-background:new 0 0 300 250;" xml:space="preserve">
<style type="text/css">
	.st0{fill:#133C7D;}
</style>
<g>
	<path class="st0" d="M19.2,27.4v-6.1c0-0.6,0.5-1.1,1.1-1.1c0.6,0,1.1,0.5,1.1,1.1v6c0,2.3,1.2,3.5,3.1,3.5c1.9,0,3.1-1.1,3.1-3.4
		v-6.1c0-0.6,0.5-1.1,1.1-1.1c0.6,0,1.1,0.5,1.1,1.1v6c0,3.7-2.1,5.5-5.3,5.5C21.2,32.8,19.2,30.9,19.2,27.4z"/>
	<path class="st0" d="M31.1,31.6c-0.2-0.1-0.4-0.4-0.4-0.7c0-0.5,0.4-0.9,0.9-0.9c0.2,0,0.3,0.1,0.5,0.1c0.9,0.6,1.8,0.9,2.7,0.9
		c0.9,0,1.4-0.4,1.4-1v0c0-0.7-1-1-2.1-1.3c-1.4-0.4-2.9-0.9-2.9-2.7v0c0-1.8,1.5-2.8,3.3-2.8c1,0,2,0.3,2.9,0.8
		c0.3,0.2,0.5,0.4,0.5,0.8c0,0.5-0.4,0.9-0.9,0.9c-0.2,0-0.3,0-0.4-0.1c-0.8-0.4-1.5-0.6-2.2-0.6c-0.8,0-1.3,0.4-1.3,0.9v0
		c0,0.7,1,1,2.1,1.3c1.3,0.4,2.9,1,2.9,2.7v0c0,1.9-1.5,2.9-3.4,2.9C33.5,32.7,32.2,32.4,31.1,31.6z"/>
	<path class="st0" d="M43.6,32.8c-2.7,0-4.7-1.9-4.7-4.8v0c0-2.6,1.9-4.8,4.5-4.8c2.9,0,4.4,2.4,4.4,4.6c0,0.6-0.5,1-1,1H41
		c0.2,1.5,1.3,2.3,2.7,2.3c0.9,0,1.6-0.3,2.2-0.8c0.2-0.1,0.3-0.2,0.5-0.2c0.5,0,0.8,0.4,0.8,0.9c0,0.3-0.1,0.5-0.3,0.6
		C46.1,32.3,45.1,32.8,43.6,32.8z M45.7,27.3c-0.1-1.4-0.9-2.4-2.3-2.4c-1.3,0-2.2,1-2.4,2.4H45.7z"/>
	<path class="st0" d="M53.9,30v-4.9h-0.4c-0.5,0-0.9-0.4-0.9-0.9c0-0.5,0.4-0.9,0.9-0.9h0.4v-1.6c0-0.6,0.5-1.1,1.1-1.1
		c0.6,0,1,0.5,1,1.1v1.6h1.7c0.5,0,0.9,0.4,0.9,0.9c0,0.5-0.4,0.9-0.9,0.9H56v4.5c0,0.8,0.4,1.2,1.1,1.2c0.2,0,0.5-0.1,0.5-0.1
		c0.5,0,0.9,0.4,0.9,0.9c0,0.4-0.3,0.7-0.6,0.8c-0.5,0.2-0.9,0.2-1.5,0.2C55,32.7,53.9,32,53.9,30z"/>
	<path class="st0" d="M59.8,20.8c0-0.6,0.5-1,1.1-1c0.6,0,1.1,0.5,1.1,1v4c0.6-0.9,1.5-1.6,2.9-1.6c2.1,0,3.3,1.4,3.3,3.5v4.9
		c0,0.6-0.5,1-1.1,1c-0.6,0-1.1-0.5-1.1-1v-4.3c0-1.4-0.7-2.3-2-2.3c-1.2,0-2.1,0.9-2.1,2.3v4.3c0,0.6-0.5,1-1.1,1
		c-0.6,0-1.1-0.5-1.1-1V20.8z"/>
	<path class="st0" d="M74,32.8c-2.7,0-4.7-1.9-4.7-4.8v0c0-2.6,1.9-4.8,4.5-4.8c2.9,0,4.4,2.4,4.4,4.6c0,0.6-0.5,1-1,1h-5.8
		c0.2,1.5,1.3,2.3,2.7,2.3c0.9,0,1.6-0.3,2.2-0.8c0.2-0.1,0.3-0.2,0.5-0.2c0.5,0,0.8,0.4,0.8,0.9c0,0.3-0.1,0.5-0.3,0.6
		C76.5,32.3,75.4,32.8,74,32.8z M76.1,27.3c-0.1-1.4-0.9-2.4-2.3-2.4c-1.3,0-2.2,1-2.4,2.4H76.1z"/>
	<path class="st0" d="M83.7,24.4c0-0.7,0.6-1.3,1.3-1.3c0.7,0,1.3,0.6,1.3,1.3v0.1c0.6-0.8,1.4-1.5,2.7-1.5c2,0,3.2,1.3,3.2,3.5v4.8
		c0,0.7-0.6,1.3-1.3,1.3c-0.7,0-1.3-0.6-1.3-1.3v-4c0-1.3-0.6-1.9-1.6-1.9s-1.7,0.6-1.7,1.9v4c0,0.7-0.6,1.3-1.3,1.3
		c-0.7,0-1.3-0.6-1.3-1.3V24.4z"/>
	<path class="st0" d="M93.7,21c0-0.7,0.6-1.3,1.3-1.3c0.7,0,1.3,0.6,1.3,1.3v3.5c0.6-0.9,1.5-1.5,2.9-1.5c2.2,0,4.3,1.7,4.3,4.8v0
		c0,3.1-2,4.8-4.3,4.8c-1.4,0-2.3-0.6-2.9-1.4v0c0,0.7-0.6,1.3-1.3,1.3c-0.7,0-1.3-0.6-1.3-1.3V21z M100.9,27.9L100.9,27.9
		c0-1.6-1-2.6-2.3-2.6s-2.3,1-2.3,2.6v0c0,1.6,1,2.6,2.3,2.6S100.9,29.5,100.9,27.9z"/>
	<path class="st0" d="M104.6,24.4c0-0.7,0.6-1.3,1.3-1.3c0.7,0,1.3,0.6,1.3,1.3v0.1c0.6-0.8,1.4-1.5,2.7-1.5c2,0,3.2,1.3,3.2,3.5
		v4.8c0,0.7-0.6,1.3-1.3,1.3c-0.7,0-1.3-0.6-1.3-1.3v-4c0-1.3-0.6-1.9-1.6-1.9s-1.7,0.6-1.7,1.9v4c0,0.7-0.6,1.3-1.3,1.3
		c-0.7,0-1.3-0.6-1.3-1.3V24.4z"/>
	<path class="st0" d="M115.6,21.3h-1.3c-0.2,0-0.5-0.2-0.5-0.5c0-0.3,0.2-0.5,0.5-0.5h3.6c0.2,0,0.5,0.2,0.5,0.5
		c0,0.2-0.2,0.5-0.5,0.5h-1.3v4c0,0.3-0.2,0.5-0.5,0.5c-0.3,0-0.5-0.2-0.5-0.5V21.3z M119.5,20.8c0-0.3,0.2-0.5,0.5-0.5h0.1
		c0.2,0,0.4,0.1,0.5,0.3l1.6,2.6l1.6-2.6c0.1-0.2,0.2-0.3,0.5-0.3h0.1c0.3,0,0.5,0.2,0.5,0.5v4.5c0,0.3-0.2,0.5-0.5,0.5
		c-0.3,0-0.5-0.2-0.5-0.5v-3.2l-1.3,2c-0.1,0.2-0.2,0.3-0.4,0.3c-0.2,0-0.3-0.1-0.4-0.3l-1.3-1.9v3.1c0,0.3-0.2,0.5-0.5,0.5
		c-0.3,0-0.5-0.2-0.5-0.5V20.8z"/>
	<path class="st0" d="M130.4,20.8c0-0.6,0.5-1,1.1-1c0.6,0,1.1,0.5,1.1,1v4.1c0.7-1,1.6-1.7,3.2-1.7c2.2,0,4.3,1.7,4.3,4.8v0
		c0,3.1-2.1,4.8-4.3,4.8c-1.5,0-2.5-0.8-3.2-1.6v0.5c0,0.6-0.5,1-1.1,1c-0.6,0-1.1-0.5-1.1-1V20.8z M137.8,28L137.8,28
		c0-1.8-1.2-3-2.6-3c-1.4,0-2.7,1.2-2.7,3v0c0,1.8,1.3,3,2.7,3C136.6,30.9,137.8,29.8,137.8,28z"/>
	<path class="st0" d="M149.5,31.6c0,0.6-0.5,1-1.1,1c-0.6,0-1.1-0.5-1.1-1v-0.5c-0.6,0.9-1.5,1.6-2.9,1.6c-2.1,0-3.3-1.4-3.3-3.6
		v-4.9c0-0.6,0.5-1.1,1-1.1c0.6,0,1.1,0.5,1.1,1.1v4.3c0,1.4,0.7,2.2,2,2.2c1.2,0,2.1-0.8,2.1-2.3v-4.3c0-0.6,0.5-1.1,1.1-1.1
		c0.6,0,1.1,0.5,1.1,1.1V31.6z"/>
	<path class="st0" d="M150.9,31.6c-0.2-0.1-0.4-0.4-0.4-0.7c0-0.5,0.4-0.9,0.9-0.9c0.2,0,0.3,0.1,0.5,0.1c0.9,0.6,1.8,0.9,2.7,0.9
		c0.9,0,1.4-0.4,1.4-1v0c0-0.7-1-1-2.1-1.3c-1.4-0.4-2.9-0.9-2.9-2.7v0c0-1.8,1.5-2.8,3.3-2.8c1,0,2,0.3,2.9,0.8
		c0.3,0.2,0.5,0.4,0.5,0.8c0,0.5-0.4,0.9-0.9,0.9c-0.2,0-0.3,0-0.4-0.1c-0.8-0.4-1.5-0.6-2.2-0.6c-0.8,0-1.3,0.4-1.3,0.9v0
		c0,0.7,1,1,2.1,1.3c1.3,0.4,2.9,1,2.9,2.7v0c0,1.9-1.5,2.9-3.4,2.9C153.2,32.7,151.9,32.4,150.9,31.6z"/>
	<path class="st0" d="M159.1,20.8c0-0.6,0.5-1,1.2-1s1.2,0.4,1.2,1V21c0,0.6-0.5,1-1.2,1s-1.2-0.4-1.2-1V20.8z M159.2,24.3
		c0-0.6,0.5-1.1,1-1.1c0.6,0,1.1,0.5,1.1,1.1v7.3c0,0.6-0.5,1-1.1,1c-0.6,0-1-0.5-1-1V24.3z"/>
	<path class="st0" d="M163.3,24.3c0-0.6,0.5-1.1,1-1.1c0.6,0,1.1,0.5,1.1,1.1v0.5c0.6-0.9,1.5-1.6,2.9-1.6c2.1,0,3.3,1.4,3.3,3.5
		v4.9c0,0.6-0.5,1-1,1c-0.6,0-1.1-0.5-1.1-1v-4.3c0-1.4-0.7-2.3-2-2.3c-1.2,0-2.1,0.9-2.1,2.3v4.3c0,0.6-0.5,1-1.1,1
		c-0.6,0-1-0.5-1-1V24.3z"/>
	<path class="st0" d="M177.5,32.8c-2.7,0-4.7-1.9-4.7-4.8v0c0-2.6,1.9-4.8,4.5-4.8c2.9,0,4.4,2.4,4.4,4.6c0,0.6-0.5,1-1,1h-5.8
		c0.2,1.5,1.3,2.3,2.7,2.3c0.9,0,1.6-0.3,2.2-0.8c0.2-0.1,0.3-0.2,0.5-0.2c0.5,0,0.8,0.4,0.8,0.9c0,0.3-0.1,0.5-0.3,0.6
		C179.9,32.3,178.9,32.8,177.5,32.8z M179.6,27.3c-0.1-1.4-0.9-2.4-2.3-2.4c-1.3,0-2.2,1-2.4,2.4H179.6z"/>
	<path class="st0" d="M182.6,31.6c-0.2-0.1-0.4-0.4-0.4-0.7c0-0.5,0.4-0.9,0.9-0.9c0.2,0,0.3,0.1,0.5,0.1c0.9,0.6,1.8,0.9,2.7,0.9
		c0.9,0,1.4-0.4,1.4-1v0c0-0.7-1-1-2.1-1.3c-1.4-0.4-2.9-0.9-2.9-2.7v0c0-1.8,1.5-2.8,3.3-2.8c1,0,2,0.3,2.9,0.8
		c0.3,0.2,0.5,0.4,0.5,0.8c0,0.5-0.4,0.9-0.9,0.9c-0.2,0-0.3,0-0.4-0.1c-0.8-0.4-1.5-0.6-2.2-0.6c-0.8,0-1.3,0.4-1.3,0.9v0
		c0,0.7,1,1,2.1,1.3c1.3,0.4,2.9,1,2.9,2.7v0c0,1.9-1.5,2.9-3.4,2.9C184.9,32.7,183.6,32.4,182.6,31.6z"/>
	<path class="st0" d="M190.3,31.6c-0.2-0.1-0.4-0.4-0.4-0.7c0-0.5,0.4-0.9,0.9-0.9c0.2,0,0.3,0.1,0.5,0.1c0.9,0.6,1.8,0.9,2.7,0.9
		c0.9,0,1.4-0.4,1.4-1v0c0-0.7-1-1-2.1-1.3c-1.4-0.4-2.9-0.9-2.9-2.7v0c0-1.8,1.5-2.8,3.3-2.8c1,0,2,0.3,2.9,0.8
		c0.3,0.2,0.5,0.4,0.5,0.8c0,0.5-0.4,0.9-0.9,0.9c-0.2,0-0.3,0-0.4-0.1c-0.8-0.4-1.5-0.6-2.2-0.6c-0.8,0-1.3,0.4-1.3,0.9v0
		c0,0.7,1,1,2.1,1.3c1.3,0.4,2.9,1,2.9,2.7v0c0,1.9-1.5,2.9-3.4,2.9C192.6,32.7,191.4,32.4,190.3,31.6z"/>
	<path class="st0" d="M18.6,48L18.6,48c0-2.7,2-4.9,4.8-4.9c1.5,0,2.5,0.5,3.2,1.2c0.1,0.1,0.3,0.4,0.3,0.7c0,0.5-0.4,1-1,1
		c-0.3,0-0.5-0.1-0.6-0.2c-0.5-0.5-1.1-0.8-2-0.8c-1.5,0-2.7,1.3-2.7,2.9v0c0,1.6,1.1,3,2.8,3c0.8,0,1.5-0.3,2.1-0.8
		c0.1-0.1,0.3-0.2,0.6-0.2c0.5,0,0.9,0.4,0.9,0.9c0,0.3-0.1,0.5-0.3,0.7c-0.8,0.8-1.8,1.3-3.4,1.3C20.6,52.8,18.6,50.6,18.6,48z"/>
	<path class="st0" d="M28.2,40.8c0-0.6,0.5-1,1.1-1c0.6,0,1.1,0.5,1.1,1v4c0.6-0.9,1.5-1.6,2.9-1.6c2.1,0,3.3,1.4,3.3,3.5v4.9
		c0,0.6-0.5,1-1.1,1c-0.6,0-1.1-0.5-1.1-1v-4.3c0-1.4-0.7-2.3-2-2.3c-1.2,0-2.1,0.9-2.1,2.3v4.3c0,0.6-0.5,1-1.1,1
		c-0.6,0-1.1-0.5-1.1-1V40.8z"/>
	<path class="st0" d="M42.5,52.8c-2.7,0-4.7-1.9-4.7-4.8v0c0-2.6,1.9-4.8,4.5-4.8c2.9,0,4.4,2.4,4.4,4.6c0,0.6-0.5,1-1,1h-5.8
		c0.2,1.5,1.3,2.3,2.7,2.3c0.9,0,1.6-0.3,2.2-0.8c0.2-0.1,0.3-0.2,0.5-0.2c0.5,0,0.8,0.4,0.8,0.9c0,0.3-0.1,0.5-0.3,0.6
		C44.9,52.3,43.9,52.8,42.5,52.8z M44.6,47.3c-0.1-1.4-0.9-2.4-2.3-2.4c-1.3,0-2.2,1-2.4,2.4H44.6z"/>
	<path class="st0" d="M47.4,48L47.4,48c0-2.7,2-4.9,4.8-4.9c1.5,0,2.5,0.5,3.2,1.2c0.1,0.1,0.3,0.4,0.3,0.7c0,0.5-0.4,1-1,1
		c-0.3,0-0.5-0.1-0.6-0.2c-0.5-0.5-1.1-0.8-2-0.8c-1.5,0-2.7,1.3-2.7,2.9v0c0,1.6,1.1,3,2.8,3c0.8,0,1.5-0.3,2.1-0.8
		c0.1-0.1,0.3-0.2,0.6-0.2c0.5,0,0.9,0.4,0.9,0.9c0,0.3-0.1,0.5-0.3,0.7c-0.8,0.8-1.8,1.3-3.4,1.3C49.4,52.8,47.4,50.6,47.4,48z"/>
	<path class="st0" d="M57,40.8c0-0.6,0.5-1,1.1-1c0.6,0,1.1,0.5,1.1,1v6.8l4-3.9c0.3-0.3,0.5-0.5,0.9-0.5c0.6,0,0.9,0.5,0.9,1
		c0,0.4-0.2,0.6-0.5,0.9L62,47.3l2.8,3.7c0.2,0.3,0.3,0.5,0.3,0.7c0,0.6-0.5,1-1,1c-0.4,0-0.7-0.1-0.9-0.5l-2.6-3.5L59.1,50v1.6
		c0,0.6-0.5,1-1.1,1c-0.6,0-1.1-0.5-1.1-1V40.8z"/>
	<path class="st0" d="M66.4,40.8c0-0.6,0.5-1,1.1-1c0.6,0,1.1,0.5,1.1,1v10.9c0,0.6-0.5,1-1.1,1c-0.6,0-1.1-0.5-1.1-1V40.8z"/>
	<path class="st0" d="M70.4,40.8c0-0.6,0.5-1,1.2-1s1.2,0.4,1.2,1V41c0,0.6-0.5,1-1.2,1s-1.2-0.4-1.2-1V40.8z M70.6,44.3
		c0-0.6,0.5-1.1,1.1-1.1c0.6,0,1.1,0.5,1.1,1.1v7.3c0,0.6-0.5,1-1.1,1c-0.6,0-1.1-0.5-1.1-1V44.3z"/>
	<path class="st0" d="M74.2,51.6c-0.2-0.1-0.4-0.4-0.4-0.7c0-0.5,0.4-0.9,0.9-0.9c0.2,0,0.3,0.1,0.5,0.1c0.9,0.6,1.8,0.9,2.7,0.9
		c0.9,0,1.4-0.4,1.4-1v0c0-0.7-1-1-2.1-1.3c-1.4-0.4-2.9-0.9-2.9-2.7v0c0-1.8,1.5-2.8,3.3-2.8c1,0,2,0.3,2.9,0.8
		c0.3,0.2,0.5,0.4,0.5,0.8c0,0.5-0.4,0.9-0.9,0.9c-0.2,0-0.3,0-0.4-0.1c-0.8-0.4-1.5-0.6-2.2-0.6c-0.8,0-1.3,0.4-1.3,0.9v0
		c0,0.7,1,1,2.1,1.3c1.3,0.4,2.9,1,2.9,2.7v0c0,1.9-1.5,2.9-3.4,2.9C76.6,52.7,75.3,52.4,74.2,51.6z"/>
	<path class="st0" d="M82.7,50v-4.9h-0.4c-0.5,0-0.9-0.4-0.9-0.9c0-0.5,0.4-0.9,0.9-0.9h0.4v-1.6c0-0.6,0.5-1.1,1.1-1.1
		c0.6,0,1,0.5,1,1.1v1.6h1.7c0.5,0,0.9,0.4,0.9,0.9c0,0.5-0.4,0.9-0.9,0.9h-1.7v4.5c0,0.8,0.4,1.2,1.1,1.2c0.2,0,0.5-0.1,0.5-0.1
		c0.5,0,0.9,0.4,0.9,0.9c0,0.4-0.3,0.7-0.6,0.8c-0.5,0.2-0.9,0.2-1.5,0.2C83.8,52.7,82.7,52,82.7,50z"/>
	<path class="st0" d="M92.4,49.9L92.4,49.9c0-2,1.6-3,3.8-3c1,0,1.8,0.2,2.5,0.4v-0.2c0-1.3-0.8-2-2.3-2c-0.8,0-1.5,0.1-2,0.4
		c-0.1,0-0.2,0.1-0.3,0.1c-0.5,0-0.9-0.4-0.9-0.9c0-0.4,0.3-0.7,0.6-0.8c0.9-0.3,1.8-0.5,3-0.5c1.4,0,2.4,0.4,3.1,1
		c0.7,0.7,1,1.6,1,2.9v4.6c0,0.6-0.5,1-1,1c-0.6,0-1-0.4-1-0.9v-0.4c-0.6,0.8-1.6,1.3-3,1.3C93.9,52.8,92.4,51.8,92.4,49.9z
		 M98.7,49.2v-0.6c-0.5-0.2-1.3-0.4-2.1-0.4c-1.4,0-2.2,0.6-2.2,1.5v0c0,0.9,0.8,1.4,1.8,1.4C97.6,51.2,98.7,50.4,98.7,49.2z"/>
	<path class="st0" d="M102.4,44.3c0-0.6,0.5-1.1,1.1-1.1c0.6,0,1.1,0.5,1.1,1.1v0.5c0.6-0.9,1.5-1.6,2.9-1.6c2.1,0,3.3,1.4,3.3,3.5
		v4.9c0,0.6-0.5,1-1.1,1c-0.6,0-1.1-0.5-1.1-1v-4.3c0-1.4-0.7-2.3-2-2.3c-1.2,0-2.1,0.9-2.1,2.3v4.3c0,0.6-0.5,1-1.1,1
		c-0.6,0-1.1-0.5-1.1-1V44.3z"/>
	<path class="st0" d="M121.4,51.6c0,0.6-0.5,1-1.1,1c-0.6,0-1.1-0.5-1.1-1V51c-0.7,1-1.6,1.7-3.2,1.7c-2.2,0-4.3-1.7-4.3-4.8v0
		c0-3.1,2.1-4.8,4.3-4.8c1.5,0,2.5,0.8,3.2,1.6v-4c0-0.6,0.5-1,1.1-1c0.6,0,1.1,0.5,1.1,1V51.6z M114,47.9L114,47.9
		c0,1.8,1.2,3,2.7,3c1.4,0,2.7-1.2,2.7-3v0c0-1.8-1.3-3-2.7-3C115.2,45,114,46.1,114,47.9z"/>
	<path class="st0" d="M128.1,45.2h-0.4c-0.5,0-0.9-0.4-0.9-0.9s0.4-0.9,0.9-0.9h0.4v-0.7c0-1,0.3-1.8,0.8-2.3
		c0.5-0.5,1.2-0.7,2.1-0.7c0.4,0,0.8,0,1.1,0.1c0.4,0.1,0.7,0.4,0.7,0.9c0,0.5-0.4,0.9-0.9,0.9c-0.1,0-0.3,0-0.4,0
		c-0.8,0-1.2,0.4-1.2,1.4v0.5h1.6c0.5,0,0.9,0.4,0.9,0.9s-0.4,0.9-0.9,0.9h-1.6v6.5c0,0.6-0.5,1-1.1,1c-0.6,0-1.1-0.5-1.1-1V45.2z
		 M134.1,40.8c0-0.6,0.5-1,1.2-1s1.2,0.4,1.2,1V41c0,0.6-0.5,1-1.2,1s-1.2-0.4-1.2-1V40.8z M134.3,44.3c0-0.6,0.5-1.1,1.1-1.1
		s1.1,0.5,1.1,1.1v7.3c0,0.6-0.5,1-1.1,1c-0.6,0-1.1-0.5-1.1-1V44.3z"/>
	<path class="st0" d="M138.3,44.3c0-0.6,0.5-1.1,1-1.1c0.6,0,1.1,0.5,1.1,1.1v0.5c0.6-0.9,1.5-1.6,2.9-1.6c2.1,0,3.3,1.4,3.3,3.5
		v4.9c0,0.6-0.5,1-1,1c-0.6,0-1.1-0.5-1.1-1v-4.3c0-1.4-0.7-2.3-2-2.3c-1.2,0-2.1,0.9-2.1,2.3v4.3c0,0.6-0.5,1-1.1,1
		c-0.6,0-1-0.5-1-1V44.3z"/>
	<path class="st0" d="M157.4,51.6c0,0.6-0.5,1-1.1,1c-0.6,0-1.1-0.5-1.1-1V51c-0.7,1-1.6,1.7-3.2,1.7c-2.2,0-4.3-1.7-4.3-4.8v0
		c0-3.1,2.1-4.8,4.3-4.8c1.5,0,2.5,0.8,3.2,1.6v-4c0-0.6,0.5-1,1-1c0.6,0,1.1,0.5,1.1,1V51.6z M149.9,47.9L149.9,47.9
		c0,1.8,1.2,3,2.7,3c1.4,0,2.7-1.2,2.7-3v0c0-1.8-1.3-3-2.7-3C151.1,45,149.9,46.1,149.9,47.9z"/>
	<path class="st0" d="M163,48L163,48c0-2.7,2.1-4.9,4.9-4.9c2.8,0,4.9,2.2,4.9,4.8v0c0,2.6-2.1,4.8-5,4.8
		C165.1,52.8,163,50.6,163,48z M170.7,48L170.7,48c0-1.7-1.2-3-2.8-3c-1.7,0-2.8,1.3-2.8,2.9v0c0,1.6,1.2,3,2.8,3
		C169.7,50.9,170.7,49.6,170.7,48z"/>
	<path class="st0" d="M182.3,51.6c0,0.6-0.5,1-1.1,1c-0.6,0-1.1-0.5-1.1-1v-0.5c-0.6,0.9-1.5,1.6-2.9,1.6c-2.1,0-3.3-1.4-3.3-3.6
		v-4.9c0-0.6,0.5-1.1,1-1.1c0.6,0,1.1,0.5,1.1,1.1v4.3c0,1.4,0.7,2.2,2,2.2c1.2,0,2.1-0.8,2.1-2.3v-4.3c0-0.6,0.5-1.1,1.1-1.1
		c0.6,0,1.1,0.5,1.1,1.1V51.6z"/>
	<path class="st0" d="M184.6,50v-4.9h-0.3c-0.5,0-0.9-0.4-0.9-0.9c0-0.5,0.4-0.9,0.9-0.9h0.3v-1.6c0-0.6,0.5-1.1,1.1-1.1
		c0.6,0,1.1,0.5,1.1,1.1v1.6h1.7c0.5,0,0.9,0.4,0.9,0.9c0,0.5-0.4,0.9-0.9,0.9h-1.7v4.5c0,0.8,0.4,1.2,1.1,1.2
		c0.2,0,0.5-0.1,0.5-0.1c0.5,0,0.9,0.4,0.9,0.9c0,0.4-0.3,0.7-0.6,0.8c-0.5,0.2-0.9,0.2-1.5,0.2C185.7,52.7,184.6,52,184.6,50z"/>
	<path class="st0" d="M21.1,71.8l-2.5-7c-0.1-0.1-0.1-0.4-0.1-0.5c0-0.5,0.4-1,1-1c0.5,0,0.9,0.4,1,0.8l1.8,5.6l1.8-5.6
		c0.2-0.5,0.5-0.8,1.1-0.8h0.1c0.5,0,0.9,0.4,1.1,0.8l1.8,5.6L30,64c0.1-0.5,0.5-0.8,1-0.8c0.6,0,1,0.5,1,1c0,0.2-0.1,0.4-0.1,0.5
		l-2.5,7.1c-0.2,0.6-0.7,0.9-1.2,0.9h-0.1c-0.5,0-1-0.3-1.2-0.9l-1.8-5.5l-1.8,5.5c-0.2,0.6-0.6,0.9-1.1,0.9h-0.1
		C21.7,72.7,21.3,72.4,21.1,71.8z"/>
	<path class="st0" d="M33.2,60.8c0-0.6,0.5-1,1.1-1c0.6,0,1.1,0.5,1.1,1v4c0.6-0.9,1.5-1.6,2.9-1.6c2.1,0,3.3,1.4,3.3,3.5v4.9
		c0,0.6-0.5,1-1.1,1c-0.6,0-1.1-0.5-1.1-1v-4.3c0-1.4-0.7-2.3-2-2.3c-1.2,0-2.1,0.9-2.1,2.3v4.3c0,0.6-0.5,1-1.1,1
		c-0.6,0-1.1-0.5-1.1-1V60.8z"/>
	<path class="st0" d="M42.5,69.9L42.5,69.9c0-2,1.6-3,3.8-3c1,0,1.8,0.2,2.5,0.4v-0.2c0-1.3-0.8-2-2.3-2c-0.8,0-1.5,0.1-2,0.4
		c-0.1,0-0.2,0.1-0.3,0.1c-0.5,0-0.9-0.4-0.9-0.9c0-0.4,0.3-0.7,0.6-0.8c0.9-0.3,1.8-0.5,3-0.5c1.4,0,2.4,0.4,3.1,1
		c0.7,0.7,1,1.6,1,2.9v4.6c0,0.6-0.5,1-1,1c-0.6,0-1-0.4-1-0.9v-0.4c-0.6,0.8-1.6,1.3-3,1.3C44.1,72.8,42.5,71.8,42.5,69.9z
		 M48.9,69.2v-0.6c-0.5-0.2-1.3-0.4-2.1-0.4c-1.4,0-2.2,0.6-2.2,1.5v0c0,0.9,0.8,1.4,1.8,1.4C47.8,71.2,48.9,70.4,48.9,69.2z"/>
	<path class="st0" d="M52.9,70v-4.9h-0.4c-0.5,0-0.9-0.4-0.9-0.9c0-0.5,0.4-0.9,0.9-0.9h0.4v-1.6c0-0.6,0.5-1.1,1.1-1.1
		c0.6,0,1,0.5,1,1.1v1.6h1.7c0.5,0,0.9,0.4,0.9,0.9c0,0.5-0.4,0.9-0.9,0.9H55v4.5c0,0.8,0.4,1.2,1.1,1.2c0.2,0,0.5-0.1,0.5-0.1
		c0.5,0,0.9,0.4,0.9,0.9c0,0.4-0.3,0.7-0.6,0.8c-0.5,0.2-0.9,0.2-1.5,0.2C54,72.7,52.9,72,52.9,70z"/>
	<path class="st0" d="M63.6,70v-4.9h-0.4c-0.5,0-0.9-0.4-0.9-0.9c0-0.5,0.4-0.9,0.9-0.9h0.4v-1.6c0-0.6,0.5-1.1,1.1-1.1
		c0.6,0,1,0.5,1,1.1v1.6h1.7c0.5,0,0.9,0.4,0.9,0.9c0,0.5-0.4,0.9-0.9,0.9h-1.7v4.5c0,0.8,0.4,1.2,1.1,1.2c0.2,0,0.5-0.1,0.5-0.1
		c0.5,0,0.9,0.4,0.9,0.9c0,0.4-0.3,0.7-0.6,0.8c-0.5,0.2-0.9,0.2-1.5,0.2C64.7,72.7,63.6,72,63.6,70z"/>
	<path class="st0" d="M68.7,68L68.7,68c0-2.7,2.1-4.9,4.9-4.9c2.8,0,4.9,2.2,4.9,4.8v0c0,2.6-2.1,4.8-5,4.8
		C70.8,72.8,68.7,70.6,68.7,68z M76.4,68L76.4,68c0-1.7-1.2-3-2.8-3c-1.7,0-2.8,1.3-2.8,2.9v0c0,1.6,1.2,3,2.8,3
		C75.4,70.9,76.4,69.6,76.4,68z"/>
	<path class="st0" d="M93.3,71.6c0,0.6-0.5,1-1.1,1c-0.6,0-1.1-0.5-1.1-1V71c-0.7,1-1.6,1.7-3.2,1.7c-2.2,0-4.3-1.7-4.3-4.8v0
		c0-3.1,2.1-4.8,4.3-4.8c1.5,0,2.5,0.8,3.2,1.6v-4c0-0.6,0.5-1,1.1-1c0.6,0,1.1,0.5,1.1,1V71.6z M85.9,67.9L85.9,67.9
		c0,1.8,1.2,3,2.7,3c1.4,0,2.7-1.2,2.7-3v0c0-1.8-1.3-3-2.7-3C87.1,65,85.9,66.1,85.9,67.9z"/>
	<path class="st0" d="M94.6,68L94.6,68c0-2.7,2.1-4.9,4.9-4.9c2.8,0,4.9,2.2,4.9,4.8v0c0,2.6-2.1,4.8-5,4.8
		C96.7,72.8,94.6,70.6,94.6,68z M102.3,68L102.3,68c0-1.7-1.2-3-2.8-3c-1.7,0-2.8,1.3-2.8,2.9v0c0,1.6,1.2,3,2.8,3
		C101.2,70.9,102.3,69.6,102.3,68z"/>
	<path class="st0" d="M110.1,64.3c0-0.6,0.5-1.1,1.1-1.1c0.6,0,1.1,0.5,1.1,1.1v0.5c0.6-0.9,1.5-1.6,2.9-1.6c2.1,0,3.3,1.4,3.3,3.5
		v4.9c0,0.6-0.5,1-1.1,1c-0.6,0-1.1-0.5-1.1-1v-4.3c0-1.4-0.7-2.3-2-2.3c-1.2,0-2.1,0.9-2.1,2.3v4.3c0,0.6-0.5,1-1.1,1
		c-0.6,0-1.1-0.5-1.1-1V64.3z"/>
	<path class="st0" d="M124.3,72.8c-2.7,0-4.7-1.9-4.7-4.8v0c0-2.6,1.9-4.8,4.5-4.8c2.9,0,4.4,2.4,4.4,4.6c0,0.6-0.5,1-1,1h-5.8
		c0.2,1.5,1.3,2.3,2.7,2.3c0.9,0,1.6-0.3,2.2-0.8c0.2-0.1,0.3-0.2,0.5-0.2c0.5,0,0.8,0.4,0.8,0.9c0,0.3-0.1,0.5-0.3,0.6
		C126.8,72.3,125.7,72.8,124.3,72.8z M126.4,67.3c-0.1-1.4-0.9-2.4-2.3-2.4c-1.3,0-2.2,1-2.4,2.4H126.4z"/>
	<path class="st0" d="M129.2,71l2.6-3.2l-2.4-2.9c-0.2-0.3-0.4-0.5-0.4-0.8c0-0.6,0.5-1,1-1c0.4,0,0.7,0.2,1,0.5l2.1,2.7l2.1-2.7
		c0.2-0.3,0.5-0.5,0.9-0.5c0.6,0,1,0.4,1,0.9c0,0.3-0.1,0.5-0.3,0.7l-2.5,3l2.6,3.1c0.2,0.3,0.4,0.5,0.4,0.8c0,0.6-0.5,1-1,1
		c-0.4,0-0.7-0.2-1-0.5l-2.2-2.9l-2.2,2.9c-0.2,0.3-0.5,0.5-0.9,0.5c-0.5,0-1-0.4-1-0.9C128.9,71.5,129,71.2,129.2,71z"/>
	<path class="st0" d="M139,70v-4.9h-0.4c-0.5,0-0.9-0.4-0.9-0.9c0-0.5,0.4-0.9,0.9-0.9h0.4v-1.6c0-0.6,0.5-1.1,1.1-1.1
		c0.6,0,1,0.5,1,1.1v1.6h1.7c0.5,0,0.9,0.4,0.9,0.9c0,0.5-0.4,0.9-0.9,0.9h-1.7v4.5c0,0.8,0.4,1.2,1.1,1.2c0.2,0,0.5-0.1,0.5-0.1
		c0.5,0,0.9,0.4,0.9,0.9c0,0.4-0.3,0.7-0.6,0.8c-0.5,0.2-0.9,0.2-1.5,0.2C140.1,72.7,139,72,139,70z"/>
	<path class="st0" d="M145.9,70.1c0.7,0,1.2,0.5,1.2,1.2v0.2c0,0.7-0.5,1.2-1.2,1.2c-0.7,0-1.2-0.5-1.2-1.2v-0.2
		C144.7,70.6,145.2,70.1,145.9,70.1z"/>
</g>
</svg>
