<?xml version="1.0" encoding="utf-8"?>
<!-- Generator: Adobe Illustrator 21.1.0, SVG Export Plug-In . SVG Version: 6.00 Build 0)  -->
<svg version="1.1" id="Layer_1" xmlns="http://www.w3.org/2000/svg" xmlns:xlink="http://www.w3.org/1999/xlink" x="0px" y="0px"
	 viewBox="0 0 300 250" style="enable-background:new 0 0 300 250;" xml:space="preserve">
<style type="text/css">
	.st0{fill:#133C7D;}
</style>
<g>
	<path class="st0" d="M19,32.5c-0.3-0.2-0.5-0.5-0.5-0.9c0-0.6,0.5-1.1,1.1-1.1c0.3,0,0.5,0.1,0.7,0.2c1.1,0.9,2.2,1.4,3.7,1.4
		s2.3-0.7,2.3-1.7v0c0-0.9-0.5-1.4-3-2c-2.8-0.7-4.4-1.5-4.4-3.9v0c0-2.3,1.9-3.8,4.5-3.8c1.7,0,3,0.4,4.2,1.2
		c0.3,0.1,0.5,0.5,0.5,0.9c0,0.6-0.5,1.1-1.1,1.1c-0.2,0-0.4-0.1-0.6-0.2c-1-0.7-2-1-3-1c-1.4,0-2.1,0.7-2.1,1.6v0
		c0,1,0.6,1.5,3.1,2.1c2.8,0.7,4.2,1.7,4.2,3.8v0c0,2.5-1.9,3.9-4.7,3.9C22.2,34.2,20.5,33.6,19,32.5z"/>
	<path class="st0" d="M34.7,34.2c-2.9,0-5.1-2.1-5.1-5.1v0c0-2.8,2-5.2,4.8-5.2c3.2,0,4.7,2.6,4.7,4.9c0,0.6-0.5,1.1-1.1,1.1h-6.2
		c0.2,1.6,1.4,2.5,2.9,2.5c1,0,1.7-0.3,2.3-0.9c0.2-0.1,0.3-0.2,0.6-0.2c0.5,0,0.9,0.4,0.9,0.9c0,0.3-0.1,0.5-0.3,0.7
		C37.4,33.7,36.2,34.2,34.7,34.2z M36.9,28.4c-0.1-1.5-1-2.6-2.5-2.6c-1.4,0-2.4,1.1-2.6,2.6H36.9z"/>
	<path class="st0" d="M41,31.3V26h-0.4c-0.5,0-1-0.4-1-1c0-0.5,0.4-1,1-1H41v-1.7c0-0.6,0.5-1.1,1.1-1.1c0.6,0,1.1,0.5,1.1,1.1v1.7
		h1.8c0.5,0,1,0.4,1,1c0,0.5-0.4,1-1,1h-1.8v4.9c0,0.9,0.5,1.2,1.2,1.2c0.3,0,0.5-0.1,0.6-0.1c0.5,0,1,0.4,1,0.9
		c0,0.4-0.3,0.8-0.6,0.9c-0.5,0.2-1,0.3-1.6,0.3C42.2,34.2,41,33.4,41,31.3z"/>
	<path class="st0" d="M51.3,31.1L51.3,31.1c0-2.2,1.7-3.2,4.1-3.2c1.1,0,1.9,0.2,2.7,0.4v-0.2c0-1.4-0.9-2.2-2.5-2.2
		c-0.9,0-1.6,0.2-2.2,0.4c-0.1,0-0.2,0.1-0.4,0.1c-0.5,0-1-0.4-1-0.9c0-0.4,0.3-0.8,0.6-0.9c0.9-0.4,1.9-0.6,3.2-0.6
		c1.5,0,2.6,0.4,3.3,1.1c0.7,0.7,1.1,1.8,1.1,3.1V33c0,0.6-0.5,1.1-1.1,1.1c-0.7,0-1.1-0.5-1.1-1v-0.4c-0.7,0.8-1.7,1.4-3.2,1.4
		C53,34.2,51.3,33.1,51.3,31.1z M58.1,30.4v-0.7c-0.6-0.2-1.4-0.4-2.3-0.4c-1.5,0-2.3,0.6-2.3,1.6v0c0,1,0.8,1.5,1.9,1.5
		C57,32.6,58.1,31.7,58.1,30.4z"/>
	<path class="st0" d="M66.8,25.1c0-0.6,0.5-1.1,1.1-1.1s1.1,0.5,1.1,1.1v0.5c0.6-0.9,1.6-1.7,3.1-1.7c2.2,0,3.5,1.5,3.5,3.8V33
		c0,0.6-0.5,1.1-1.1,1.1s-1.1-0.5-1.1-1.1v-4.6c0-1.5-0.8-2.4-2.1-2.4c-1.3,0-2.2,0.9-2.2,2.5V33c0,0.6-0.5,1.1-1.1,1.1
		c-0.6,0-1.1-0.5-1.1-1.1V25.1z"/>
	<path class="st0" d="M82,34.2c-2.9,0-5.1-2.1-5.1-5.1v0c0-2.8,2-5.2,4.8-5.2c3.2,0,4.7,2.6,4.7,4.9c0,0.6-0.5,1.1-1.1,1.1h-6.2
		c0.2,1.6,1.4,2.5,2.9,2.5c1,0,1.7-0.3,2.3-0.9c0.2-0.1,0.3-0.2,0.6-0.2c0.5,0,0.9,0.4,0.9,0.9c0,0.3-0.1,0.5-0.3,0.7
		C84.6,33.7,83.5,34.2,82,34.2z M84.2,28.4c-0.1-1.5-1-2.6-2.5-2.6c-1.4,0-2.4,1.1-2.6,2.6H84.2z"/>
	<path class="st0" d="M89.6,33.2l-2.7-7.5c-0.1-0.1-0.1-0.4-0.1-0.6c0-0.5,0.4-1.1,1.1-1.1c0.6,0,0.9,0.4,1.1,0.9l1.9,6l1.9-6
		C93,24.4,93.4,24,94,24h0.1c0.6,0,1,0.4,1.2,0.9l2,6l1.9-6c0.1-0.5,0.5-0.9,1.1-0.9c0.6,0,1.1,0.5,1.1,1.1c0,0.2-0.1,0.4-0.1,0.5
		l-2.7,7.6c-0.2,0.7-0.7,1-1.3,1h-0.1c-0.6,0-1-0.3-1.2-1l-1.9-5.9l-2,5.9c-0.2,0.7-0.7,1-1.2,1h-0.1C90.2,34.2,89.8,33.9,89.6,33.2
		z"/>
	<path class="st0" d="M107.2,25.1c0-0.6,0.5-1.1,1.1-1.1s1.1,0.5,1.1,1.1v0.6c0.7-1,1.8-1.9,3.4-1.9c2.3,0,4.6,1.8,4.6,5.1v0
		c0,3.3-2.3,5.1-4.6,5.1c-1.7,0-2.7-0.8-3.4-1.7V36c0,0.6-0.5,1.1-1.1,1.1c-0.6,0-1.1-0.5-1.1-1.1V25.1z M115.2,29.1L115.2,29.1
		c0-2-1.3-3.2-2.8-3.2c-1.5,0-2.9,1.3-2.9,3.2v0c0,1.9,1.4,3.2,2.9,3.2C113.9,32.2,115.2,31,115.2,29.1z"/>
	<path class="st0" d="M118.2,31.1L118.2,31.1c0-2.2,1.7-3.2,4.1-3.2c1.1,0,1.9,0.2,2.7,0.4v-0.2c0-1.4-0.9-2.2-2.5-2.2
		c-0.9,0-1.6,0.2-2.2,0.4c-0.1,0-0.2,0.1-0.4,0.1c-0.5,0-1-0.4-1-0.9c0-0.4,0.3-0.8,0.6-0.9c0.9-0.4,1.9-0.6,3.2-0.6
		c1.5,0,2.6,0.4,3.3,1.1c0.7,0.7,1.1,1.8,1.1,3.1V33c0,0.6-0.5,1.1-1.1,1.1c-0.7,0-1.1-0.5-1.1-1v-0.4c-0.7,0.8-1.7,1.4-3.2,1.4
		C119.9,34.2,118.2,33.1,118.2,31.1z M125,30.4v-0.7c-0.6-0.2-1.4-0.4-2.3-0.4c-1.5,0-2.3,0.6-2.3,1.6v0c0,1,0.8,1.5,1.9,1.5
		C123.9,32.6,125,31.7,125,30.4z"/>
	<path class="st0" d="M128.4,29.1L128.4,29.1c0-2.9,2.2-5.2,5.2-5.2c1.6,0,2.6,0.5,3.5,1.2c0.1,0.1,0.4,0.4,0.4,0.8
		c0,0.6-0.5,1-1.1,1c-0.3,0-0.5-0.1-0.7-0.2c-0.6-0.5-1.2-0.8-2.1-0.8c-1.6,0-2.9,1.4-2.9,3.2v0c0,1.8,1.2,3.2,3,3.2
		c0.9,0,1.6-0.4,2.2-0.9c0.1-0.1,0.4-0.2,0.6-0.2c0.5,0,1,0.5,1,1c0,0.3-0.1,0.5-0.3,0.7c-0.9,0.8-2,1.4-3.6,1.4
		C130.6,34.2,128.4,31.9,128.4,29.1z"/>
	<path class="st0" d="M143,34.2c-2.9,0-5.1-2.1-5.1-5.1v0c0-2.8,2-5.2,4.8-5.2c3.2,0,4.7,2.6,4.7,4.9c0,0.6-0.5,1.1-1.1,1.1h-6.2
		c0.2,1.6,1.4,2.5,2.9,2.5c1,0,1.7-0.3,2.3-0.9c0.2-0.1,0.3-0.2,0.6-0.2c0.5,0,0.9,0.4,0.9,0.9c0,0.3-0.1,0.5-0.3,0.7
		C145.6,33.7,144.5,34.2,143,34.2z M145.2,28.4c-0.1-1.5-1-2.6-2.5-2.6c-1.4,0-2.4,1.1-2.6,2.6H145.2z"/>
	<path class="st0" d="M19.6,47.3h-0.4c-0.5,0-1-0.4-1-0.9c0-0.5,0.4-1,1-1h0.4v-0.7c0-1.1,0.3-1.9,0.8-2.4c0.5-0.5,1.3-0.8,2.2-0.8
		c0.4,0,0.8,0,1.1,0.1c0.4,0.1,0.8,0.4,0.8,0.9c0,0.5-0.4,1-1,0.9c-0.1,0-0.3,0-0.5,0c-0.9,0-1.3,0.5-1.3,1.5v0.5h1.8
		c0.5,0,1,0.4,1,0.9c0,0.5-0.4,0.9-1,0.9h-1.7v6.9c0,0.6-0.5,1.1-1.1,1.1c-0.6,0-1.1-0.5-1.1-1.1V47.3z"/>
	<path class="st0" d="M24.5,50.4L24.5,50.4c0-2.9,2.3-5.2,5.3-5.2c3,0,5.3,2.3,5.3,5.1v0c0,2.8-2.3,5.2-5.3,5.2
		C26.7,55.5,24.5,53.2,24.5,50.4z M32.8,50.4L32.8,50.4c0-1.8-1.3-3.2-3-3.2c-1.8,0-3,1.4-3,3.2v0c0,1.7,1.3,3.2,3,3.2
		C31.6,53.5,32.8,52.1,32.8,50.4z"/>
	<path class="st0" d="M36.4,46.4c0-0.6,0.5-1.1,1.1-1.1s1.1,0.5,1.1,1.1v1c0.5-1.2,1.5-2.2,2.5-2.2c0.7,0,1.1,0.5,1.1,1.1
		c0,0.6-0.4,1-0.9,1.1c-1.6,0.3-2.7,1.5-2.7,3.9v2.9c0,0.6-0.5,1.1-1.1,1.1c-0.6,0-1.1-0.5-1.1-1.1V46.4z"/>
	<path class="st0" d="M48.1,58c-0.3-0.1-0.7-0.4-0.7-0.9c0-0.6,0.4-0.9,0.9-0.9c0.2,0,0.3,0,0.4,0.1c0.3,0.1,0.5,0.1,0.8,0.1
		c0.7,0,1-0.3,1.4-1.1l0.1-0.2l-3.7-8.2c-0.1-0.2-0.1-0.4-0.1-0.5c0-0.6,0.5-1.1,1.1-1.1c0.6,0,0.9,0.3,1.1,0.9l2.7,6.6l2.5-6.6
		c0.2-0.5,0.5-0.9,1.1-0.9c0.6,0,1.1,0.5,1.1,1.1c0,0.2-0.1,0.4-0.1,0.5L53,55.5c-0.8,2-1.7,2.8-3.3,2.8
		C49.1,58.3,48.6,58.2,48.1,58z"/>
	<path class="st0" d="M57,50.4L57,50.4c0-2.9,2.3-5.2,5.3-5.2c3,0,5.3,2.3,5.3,5.1v0c0,2.8-2.3,5.2-5.3,5.2
		C59.2,55.5,57,53.2,57,50.4z M65.3,50.4L65.3,50.4c0-1.8-1.3-3.2-3-3.2c-1.8,0-3,1.4-3,3.2v0c0,1.7,1.3,3.2,3,3.2
		C64.1,53.5,65.3,52.1,65.3,50.4z"/>
	<path class="st0" d="M77.7,54.2c0,0.6-0.5,1.1-1.1,1.1c-0.6,0-1.1-0.5-1.1-1.1v-0.5c-0.6,0.9-1.6,1.7-3.1,1.7
		c-2.2,0-3.5-1.5-3.5-3.8v-5.3c0-0.6,0.5-1.1,1.1-1.1c0.6,0,1.1,0.5,1.1,1.1V51c0,1.5,0.8,2.4,2.1,2.4c1.3,0,2.2-0.9,2.2-2.4v-4.6
		c0-0.6,0.5-1.1,1.1-1.1c0.6,0,1.1,0.5,1.1,1.1V54.2z"/>
	<path class="st0" d="M79.6,46.4c0-0.6,0.5-1.1,1.1-1.1s1.1,0.5,1.1,1.1v1c0.5-1.2,1.5-2.2,2.5-2.2c0.7,0,1.1,0.5,1.1,1.1
		c0,0.6-0.4,1-0.9,1.1c-1.6,0.3-2.7,1.5-2.7,3.9v2.9c0,0.6-0.5,1.1-1.1,1.1c-0.6,0-1.1-0.5-1.1-1.1V46.4z"/>
	<path class="st0" d="M86,54.3c-0.2-0.1-0.4-0.4-0.4-0.8c0-0.5,0.4-0.9,0.9-0.9c0.2,0,0.4,0.1,0.5,0.1c1,0.6,2,1,2.9,1
		c1,0,1.5-0.4,1.5-1.1v0c0-0.8-1.1-1-2.2-1.4c-1.5-0.4-3.1-1-3.1-2.9v0c0-1.9,1.6-3,3.5-3c1.1,0,2.2,0.3,3.1,0.8
		c0.3,0.2,0.5,0.5,0.5,0.9c0,0.5-0.4,0.9-0.9,0.9c-0.2,0-0.3,0-0.4-0.1c-0.8-0.4-1.6-0.7-2.3-0.7c-0.9,0-1.4,0.4-1.4,1v0
		c0,0.7,1.1,1,2.2,1.4c1.4,0.5,3.1,1.1,3.1,2.9v0c0,2.1-1.6,3.1-3.7,3.1C88.6,55.4,87.2,55,86,54.3z"/>
</g>
</svg>
