<?xml version="1.0" encoding="utf-8"?>
<!-- Generator: Adobe Illustrator 21.1.0, SVG Export Plug-In . SVG Version: 6.00 Build 0)  -->
<svg version="1.1" id="Layer_1" xmlns="http://www.w3.org/2000/svg" xmlns:xlink="http://www.w3.org/1999/xlink" x="0px" y="0px"
	 viewBox="0 0 300 250" style="enable-background:new 0 0 300 250;" xml:space="preserve">
<style type="text/css">
	.st0{fill:#133C7D;}
</style>
<g>
	<path class="st0" d="M18.4,21c0-0.7,0.5-1.2,1.2-1.2h4.7c1.5,0,2.7,0.4,3.4,1.2c0.6,0.6,0.9,1.3,0.9,2.2v0c0,1.6-0.9,2.4-1.9,2.9
		c1.5,0.5,2.6,1.4,2.6,3.2v0c0,2.3-1.9,3.6-4.9,3.6h-4.9c-0.7,0-1.2-0.5-1.2-1.2V21z M23.8,25.4c1.5,0,2.5-0.6,2.5-1.8v0
		c0-1-0.8-1.7-2.3-1.7h-3.3v3.5H23.8z M24.4,31c1.6,0,2.5-0.6,2.5-1.8v0c0-1.1-0.9-1.8-2.7-1.8h-3.7V31H24.4z"/>
	<path class="st0" d="M39.5,32c0,0.6-0.5,1.1-1.1,1.1c-0.6,0-1.1-0.5-1.1-1.1v-0.5c-0.6,0.9-1.6,1.7-3.1,1.7c-2.2,0-3.5-1.5-3.5-3.8
		v-5.3c0-0.6,0.5-1.1,1.1-1.1c0.6,0,1.1,0.5,1.1,1.1v4.6c0,1.5,0.8,2.4,2.1,2.4c1.3,0,2.2-0.9,2.2-2.4v-4.6c0-0.6,0.5-1.1,1.1-1.1
		c0.6,0,1.1,0.5,1.1,1.1V32z"/>
	<path class="st0" d="M41,32c-0.2-0.1-0.4-0.4-0.4-0.8c0-0.5,0.4-0.9,0.9-0.9c0.2,0,0.4,0.1,0.5,0.1c1,0.6,2,1,2.9,1
		c1,0,1.5-0.4,1.5-1.1v0c0-0.8-1.1-1-2.2-1.4c-1.5-0.4-3.1-1-3.1-2.9v0c0-1.9,1.6-3,3.5-3c1.1,0,2.2,0.3,3.1,0.8
		c0.3,0.2,0.5,0.5,0.5,0.9c0,0.5-0.4,0.9-0.9,0.9c-0.2,0-0.3,0-0.5-0.1c-0.8-0.4-1.6-0.7-2.3-0.7c-0.9,0-1.4,0.4-1.4,1v0
		c0,0.7,1.1,1,2.2,1.4c1.4,0.5,3.1,1.1,3.1,2.9v0c0,2.1-1.6,3.1-3.7,3.1C43.5,33.2,42.1,32.8,41,32z"/>
	<path class="st0" d="M49.8,20.4c0-0.7,0.6-1.1,1.3-1.1s1.3,0.4,1.3,1.1v0.1c0,0.7-0.6,1.1-1.3,1.1s-1.3-0.5-1.3-1.1V20.4z M50,24.1
		c0-0.6,0.5-1.1,1.1-1.1s1.1,0.5,1.1,1.1V32c0,0.6-0.5,1.1-1.1,1.1c-0.6,0-1.1-0.5-1.1-1.1V24.1z"/>
	<path class="st0" d="M54.3,24.1c0-0.6,0.5-1.1,1.1-1.1s1.1,0.5,1.1,1.1v0.5c0.6-0.9,1.6-1.7,3.1-1.7c2.2,0,3.5,1.5,3.5,3.8V32
		c0,0.6-0.5,1.1-1.1,1.1s-1.1-0.5-1.1-1.1v-4.6c0-1.5-0.8-2.4-2.1-2.4c-1.3,0-2.2,0.9-2.2,2.5V32c0,0.6-0.5,1.1-1.1,1.1
		c-0.6,0-1.1-0.5-1.1-1.1V24.1z"/>
	<path class="st0" d="M69.5,33.2c-2.9,0-5.1-2.1-5.1-5.1v0c0-2.8,2-5.2,4.8-5.2c3.2,0,4.7,2.6,4.7,4.9c0,0.6-0.5,1.1-1.1,1.1h-6.2
		c0.2,1.6,1.4,2.5,2.9,2.5c1,0,1.7-0.3,2.3-0.9c0.2-0.1,0.3-0.2,0.6-0.2c0.5,0,0.9,0.4,0.9,0.9c0,0.3-0.1,0.5-0.3,0.7
		C72.1,32.7,71,33.2,69.5,33.2z M71.7,27.4c-0.1-1.5-1-2.6-2.5-2.6c-1.4,0-2.4,1.1-2.6,2.6H71.7z"/>
	<path class="st0" d="M75,32c-0.2-0.1-0.4-0.4-0.4-0.8c0-0.5,0.4-0.9,0.9-0.9c0.2,0,0.4,0.1,0.5,0.1c1,0.6,2,1,2.9,1
		c1,0,1.5-0.4,1.5-1.1v0c0-0.8-1.1-1-2.2-1.4c-1.5-0.4-3.1-1-3.1-2.9v0c0-1.9,1.6-3,3.5-3c1.1,0,2.2,0.3,3.1,0.8
		c0.3,0.2,0.5,0.5,0.5,0.9c0,0.5-0.4,0.9-0.9,0.9c-0.2,0-0.3,0-0.4-0.1c-0.8-0.4-1.6-0.7-2.3-0.7c-0.9,0-1.4,0.4-1.4,1v0
		c0,0.7,1.1,1,2.2,1.4c1.4,0.5,3.1,1.1,3.1,2.9v0c0,2.1-1.6,3.1-3.7,3.1C77.5,33.2,76.1,32.8,75,32z"/>
	<path class="st0" d="M83.2,32c-0.2-0.1-0.4-0.4-0.4-0.8c0-0.5,0.4-0.9,0.9-0.9c0.2,0,0.4,0.1,0.5,0.1c1,0.6,2,1,2.9,1
		c1,0,1.5-0.4,1.5-1.1v0c0-0.8-1.1-1-2.2-1.4c-1.5-0.4-3.1-1-3.1-2.9v0c0-1.9,1.6-3,3.5-3c1.1,0,2.2,0.3,3.1,0.8
		c0.3,0.2,0.5,0.5,0.5,0.9c0,0.5-0.4,0.9-0.9,0.9c-0.2,0-0.3,0-0.5-0.1c-0.8-0.4-1.6-0.7-2.3-0.7c-0.9,0-1.4,0.4-1.4,1v0
		c0,0.7,1.1,1,2.2,1.4c1.4,0.5,3.1,1.1,3.1,2.9v0c0,2.1-1.6,3.1-3.7,3.1C85.7,33.2,84.4,32.8,83.2,32z"/>
	<path class="st0" d="M96.1,30.1L96.1,30.1c0-2.2,1.7-3.2,4.1-3.2c1.1,0,1.9,0.2,2.7,0.4v-0.2c0-1.4-0.9-2.2-2.5-2.2
		c-0.9,0-1.6,0.2-2.2,0.4c-0.1,0-0.2,0.1-0.4,0.1c-0.5,0-1-0.4-1-0.9c0-0.4,0.3-0.8,0.6-0.9c0.9-0.4,1.9-0.6,3.2-0.6
		c1.5,0,2.6,0.4,3.3,1.1c0.7,0.7,1.1,1.8,1.1,3.1V32c0,0.6-0.5,1.1-1.1,1.1c-0.7,0-1.1-0.5-1.1-1v-0.4c-0.7,0.8-1.7,1.4-3.2,1.4
		C97.7,33.2,96.1,32.1,96.1,30.1z M102.9,29.4v-0.7c-0.6-0.2-1.4-0.4-2.3-0.4c-1.5,0-2.3,0.6-2.3,1.6v0c0,1,0.8,1.5,1.9,1.5
		C101.7,31.6,102.9,30.7,102.9,29.4z"/>
	<path class="st0" d="M106.4,32c-0.2-0.1-0.4-0.4-0.4-0.8c0-0.5,0.4-0.9,0.9-0.9c0.2,0,0.4,0.1,0.5,0.1c1,0.6,2,1,2.9,1
		c1,0,1.5-0.4,1.5-1.1v0c0-0.8-1.1-1-2.2-1.4c-1.5-0.4-3.1-1-3.1-2.9v0c0-1.9,1.6-3,3.5-3c1.1,0,2.2,0.3,3.1,0.8
		c0.3,0.2,0.5,0.5,0.5,0.9c0,0.5-0.4,0.9-0.9,0.9c-0.2,0-0.3,0-0.5-0.1c-0.8-0.4-1.6-0.7-2.3-0.7c-0.9,0-1.4,0.4-1.4,1v0
		c0,0.7,1.1,1,2.2,1.4c1.4,0.5,3.1,1.1,3.1,2.9v0c0,2.1-1.6,3.1-3.7,3.1C109,33.2,107.6,32.8,106.4,32z"/>
	<path class="st0" d="M128.8,32c0,0.6-0.5,1.1-1.1,1.1c-0.6,0-1.1-0.5-1.1-1.1v-0.5c-0.6,0.9-1.6,1.7-3.1,1.7
		c-2.2,0-3.5-1.5-3.5-3.8v-5.3c0-0.6,0.5-1.1,1.1-1.1c0.6,0,1.1,0.5,1.1,1.1v4.6c0,1.5,0.8,2.4,2.1,2.4c1.3,0,2.2-0.9,2.2-2.4v-4.6
		c0-0.6,0.5-1.1,1.1-1.1c0.6,0,1.1,0.5,1.1,1.1V32z"/>
	<path class="st0" d="M130.3,32c-0.2-0.1-0.4-0.4-0.4-0.8c0-0.5,0.4-0.9,0.9-0.9c0.2,0,0.4,0.1,0.5,0.1c1,0.6,2,1,2.9,1
		c1,0,1.5-0.4,1.5-1.1v0c0-0.8-1.1-1-2.2-1.4c-1.5-0.4-3.1-1-3.1-2.9v0c0-1.9,1.6-3,3.5-3c1.1,0,2.2,0.3,3.1,0.8
		c0.3,0.2,0.5,0.5,0.5,0.9c0,0.5-0.4,0.9-0.9,0.9c-0.2,0-0.3,0-0.4-0.1c-0.8-0.4-1.6-0.7-2.3-0.7c-0.9,0-1.4,0.4-1.4,1v0
		c0,0.7,1.1,1,2.2,1.4c1.4,0.5,3.1,1.1,3.1,2.9v0c0,2.1-1.6,3.1-3.7,3.1C132.8,33.2,131.4,32.8,130.3,32z"/>
	<path class="st0" d="M147.9,32c0,0.6-0.5,1.1-1.1,1.1c-0.6,0-1.1-0.5-1.1-1.1v-0.5c-0.6,0.9-1.6,1.7-3.1,1.7
		c-2.2,0-3.5-1.5-3.5-3.8v-5.3c0-0.6,0.5-1.1,1.1-1.1c0.6,0,1.1,0.5,1.1,1.1v4.6c0,1.5,0.8,2.4,2.1,2.4c1.3,0,2.2-0.9,2.2-2.4v-4.6
		c0-0.6,0.5-1.1,1.1-1.1c0.6,0,1.1,0.5,1.1,1.1V32z"/>
	<path class="st0" d="M149.1,30.1L149.1,30.1c0-2.2,1.7-3.2,4.1-3.2c1.1,0,1.9,0.2,2.7,0.4v-0.2c0-1.4-0.9-2.2-2.5-2.2
		c-0.9,0-1.6,0.2-2.2,0.4c-0.1,0-0.2,0.1-0.4,0.1c-0.5,0-1-0.4-1-0.9c0-0.4,0.3-0.8,0.6-0.9c0.9-0.4,1.9-0.6,3.2-0.6
		c1.5,0,2.6,0.4,3.3,1.1c0.7,0.7,1.1,1.8,1.1,3.1V32c0,0.6-0.5,1.1-1.1,1.1c-0.7,0-1.1-0.5-1.1-1v-0.4c-0.7,0.8-1.7,1.4-3.2,1.4
		C150.8,33.2,149.1,32.1,149.1,30.1z M155.9,29.4v-0.7c-0.6-0.2-1.4-0.4-2.3-0.4c-1.5,0-2.3,0.6-2.3,1.6v0c0,1,0.8,1.5,1.9,1.5
		C154.8,31.6,155.9,30.7,155.9,29.4z"/>
	<path class="st0" d="M160,20.3c0-0.6,0.5-1.1,1.1-1.1s1.1,0.5,1.1,1.1V32c0,0.6-0.5,1.1-1.1,1.1c-0.6,0-1.1-0.5-1.1-1.1V20.3z"/>
	<path class="st0" d="M18.1,41.7c0-0.7,0.6-1.1,1.3-1.1s1.3,0.4,1.3,1.1v0.1c0,0.7-0.6,1.1-1.3,1.1s-1.3-0.5-1.3-1.1V41.7z
		 M18.2,45.4c0-0.6,0.5-1.1,1.1-1.1s1.1,0.5,1.1,1.1v7.8c0,0.6-0.5,1.1-1.1,1.1c-0.6,0-1.1-0.5-1.1-1.1V45.4z"/>
	<path class="st0" d="M22.1,53.3c-0.2-0.1-0.4-0.4-0.4-0.8c0-0.5,0.4-0.9,0.9-0.9c0.2,0,0.4,0.1,0.5,0.1c1,0.6,2,1,2.9,1
		c1,0,1.5-0.4,1.5-1.1v0c0-0.8-1.1-1-2.2-1.4c-1.5-0.4-3.1-1-3.1-2.9v0c0-1.9,1.6-3,3.5-3c1.1,0,2.2,0.3,3.1,0.8
		c0.3,0.2,0.5,0.5,0.5,0.9c0,0.5-0.4,0.9-0.9,0.9c-0.2,0-0.3,0-0.5-0.1c-0.8-0.4-1.6-0.7-2.3-0.7c-0.9,0-1.4,0.4-1.4,1v0
		c0,0.7,1.1,1,2.2,1.4c1.4,0.5,3.1,1.1,3.1,2.9v0c0,2.1-1.6,3.1-3.7,3.1C24.7,54.4,23.3,54,22.1,53.3z"/>
	<path class="st0" d="M35.1,49.4L35.1,49.4c0-2.9,2.2-5.2,5.2-5.2c1.6,0,2.6,0.5,3.5,1.2c0.1,0.1,0.4,0.4,0.4,0.8c0,0.6-0.5,1-1.1,1
		c-0.3,0-0.5-0.1-0.7-0.2c-0.6-0.5-1.2-0.8-2.1-0.8c-1.6,0-2.9,1.4-2.9,3.2v0c0,1.8,1.2,3.2,3,3.2c0.9,0,1.6-0.4,2.2-0.9
		c0.1-0.1,0.4-0.2,0.6-0.2c0.5,0,1,0.5,1,1c0,0.3-0.1,0.5-0.3,0.7c-0.9,0.8-2,1.4-3.6,1.4C37.3,54.5,35.1,52.2,35.1,49.4z"/>
	<path class="st0" d="M45.4,41.6c0-0.6,0.5-1.1,1.1-1.1s1.1,0.5,1.1,1.1v4.3c0.6-0.9,1.6-1.7,3.1-1.7c2.2,0,3.5,1.5,3.5,3.8v5.3
		c0,0.6-0.5,1.1-1.1,1.1S52,53.9,52,53.2v-4.6c0-1.5-0.8-2.4-2.1-2.4c-1.3,0-2.2,0.9-2.2,2.5v4.6c0,0.6-0.5,1.1-1.1,1.1
		c-0.6,0-1.1-0.5-1.1-1.1V41.6z"/>
	<path class="st0" d="M55.5,51.4L55.5,51.4c0-2.2,1.7-3.2,4.1-3.2c1.1,0,1.9,0.2,2.7,0.4v-0.2c0-1.4-0.9-2.2-2.5-2.2
		c-0.9,0-1.6,0.2-2.2,0.4c-0.1,0-0.2,0.1-0.4,0.1c-0.5,0-1-0.4-1-0.9c0-0.4,0.3-0.8,0.6-0.9c0.9-0.4,1.9-0.6,3.2-0.6
		c1.5,0,2.6,0.4,3.3,1.1c0.7,0.7,1.1,1.8,1.1,3.1v4.9c0,0.6-0.5,1.1-1.1,1.1c-0.7,0-1.1-0.5-1.1-1V53c-0.7,0.8-1.7,1.4-3.2,1.4
		C57.1,54.5,55.5,53.4,55.5,51.4z M62.2,50.7V50c-0.6-0.2-1.4-0.4-2.3-0.4c-1.5,0-2.3,0.6-2.3,1.6v0c0,1,0.8,1.5,1.9,1.5
		C61.1,52.8,62.2,51.9,62.2,50.7z"/>
	<path class="st0" d="M66.2,45.4c0-0.6,0.5-1.1,1.1-1.1s1.1,0.5,1.1,1.1v0.5c0.6-0.9,1.6-1.7,3.1-1.7c2.2,0,3.5,1.5,3.5,3.8v5.3
		c0,0.6-0.5,1.1-1.1,1.1s-1.1-0.5-1.1-1.1v-4.6c0-1.5-0.8-2.4-2.1-2.4c-1.3,0-2.2,0.9-2.2,2.5v4.6c0,0.6-0.5,1.1-1.1,1.1
		c-0.6,0-1.1-0.5-1.1-1.1V45.4z"/>
	<path class="st0" d="M77.5,56.4c-0.4-0.2-0.6-0.5-0.6-0.9c0-0.5,0.4-0.9,1-0.9c0.2,0,0.3,0,0.4,0.1c0.9,0.5,1.9,0.8,3,0.8
		c2,0,3.1-1.1,3.1-3v-0.8c-0.8,1.1-1.9,1.8-3.5,1.8c-2.3,0-4.5-1.7-4.5-4.6v0c0-2.9,2.2-4.7,4.5-4.7c1.7,0,2.7,0.8,3.5,1.7v-0.5
		c0-0.6,0.5-1.1,1.1-1.1c0.6,0,1.1,0.5,1.1,1.1v6.8c0,1.7-0.4,2.9-1.3,3.7c-0.9,0.9-2.3,1.3-4.1,1.3C79.9,57.3,78.7,57,77.5,56.4z
		 M84.4,48.8L84.4,48.8c0-1.7-1.3-2.8-2.9-2.8c-1.6,0-2.8,1.1-2.8,2.7v0c0,1.6,1.3,2.7,2.8,2.7C83,51.5,84.4,50.4,84.4,48.8z"/>
	<path class="st0" d="M88.5,41.7c0-0.7,0.6-1.1,1.3-1.1s1.3,0.4,1.3,1.1v0.1c0,0.7-0.6,1.1-1.3,1.1s-1.3-0.5-1.3-1.1V41.7z
		 M88.6,45.4c0-0.6,0.5-1.1,1.1-1.1s1.1,0.5,1.1,1.1v7.8c0,0.6-0.5,1.1-1.1,1.1c-0.6,0-1.1-0.5-1.1-1.1V45.4z"/>
	<path class="st0" d="M92.9,45.4c0-0.6,0.5-1.1,1.1-1.1s1.1,0.5,1.1,1.1v0.5c0.6-0.9,1.6-1.7,3.1-1.7c2.2,0,3.5,1.5,3.5,3.8v5.3
		c0,0.6-0.5,1.1-1.1,1.1s-1.1-0.5-1.1-1.1v-4.6c0-1.5-0.8-2.4-2.1-2.4c-1.3,0-2.2,0.9-2.2,2.5v4.6c0,0.6-0.5,1.1-1.1,1.1
		c-0.6,0-1.1-0.5-1.1-1.1V45.4z"/>
	<path class="st0" d="M104.2,56.4c-0.4-0.2-0.6-0.5-0.6-0.9c0-0.5,0.4-0.9,1-0.9c0.2,0,0.3,0,0.4,0.1c0.9,0.5,1.9,0.8,3,0.8
		c2,0,3.1-1.1,3.1-3v-0.8c-0.8,1.1-1.9,1.8-3.5,1.8c-2.3,0-4.5-1.7-4.5-4.6v0c0-2.9,2.2-4.7,4.5-4.7c1.7,0,2.7,0.8,3.5,1.7v-0.5
		c0-0.6,0.5-1.1,1.1-1.1c0.6,0,1.1,0.5,1.1,1.1v6.8c0,1.7-0.4,2.9-1.3,3.7c-0.9,0.9-2.3,1.3-4.1,1.3C106.6,57.3,105.4,57,104.2,56.4
		z M111.1,48.8L111.1,48.8c0-1.7-1.3-2.8-2.9-2.8c-1.6,0-2.8,1.1-2.8,2.7v0c0,1.6,1.3,2.7,2.8,2.7C109.8,51.5,111.1,50.4,111.1,48.8
		z"/>
</g>
</svg>
