<?xml version="1.0" encoding="utf-8"?>
<!-- Generator: Adobe Illustrator 21.1.0, SVG Export Plug-In . SVG Version: 6.00 Build 0)  -->
<svg version="1.1" id="Layer_1" xmlns="http://www.w3.org/2000/svg" xmlns:xlink="http://www.w3.org/1999/xlink" x="0px" y="0px"
	 viewBox="0 0 320 50" style="enable-background:new 0 0 320 50;" xml:space="preserve">
<style type="text/css">
	.st0{fill:#133C7D;}
</style>
<g>
	<path class="st0" d="M84.8,15L84.8,15c0-3.6,2.7-6.6,6.5-6.6c1.9,0,3.2,0.6,4.3,1.4c0.2,0.2,0.4,0.5,0.4,0.9c0,0.6-0.5,1.1-1.1,1.1
		c-0.3,0-0.5-0.1-0.7-0.2c-0.9-0.7-1.8-1.1-3-1.1c-2.4,0-4.2,2-4.2,4.4v0c0,2.5,1.7,4.5,4.2,4.5c1.3,0,2.2-0.4,3.2-1.2
		c0.2-0.1,0.4-0.3,0.7-0.3c0.6,0,1,0.5,1,1c0,0.3-0.2,0.6-0.4,0.8c-1.2,1-2.5,1.7-4.6,1.7C87.6,21.5,84.8,18.6,84.8,15z"/>
	<path class="st0" d="M97.5,9.1C97.5,8.5,98,8,98.6,8s1.1,0.5,1.1,1.1v4.1c0.6-0.9,1.5-1.7,3-1.7c2.1,0,3.4,1.4,3.4,3.6v5.1
		c0,0.6-0.5,1.1-1.1,1.1c-0.6,0-1.1-0.5-1.1-1.1v-4.4c0-1.5-0.7-2.3-2-2.3c-1.3,0-2.1,0.9-2.1,2.4v4.4c0,0.6-0.5,1.1-1.1,1.1
		c-0.6,0-1.1-0.5-1.1-1.1V9.1z"/>
	<path class="st0" d="M107.3,16.5L107.3,16.5c0-2.8,2.2-5,5.1-5s5.1,2.2,5.1,4.9v0c0,2.7-2.2,5-5.1,5
		C109.4,21.5,107.3,19.2,107.3,16.5z M115.2,16.5L115.2,16.5c0-1.7-1.2-3.1-2.9-3.1c-1.7,0-2.9,1.4-2.9,3v0c0,1.7,1.2,3,2.9,3
		C114.1,19.5,115.2,18.2,115.2,16.5z"/>
	<path class="st0" d="M118.2,16.5L118.2,16.5c0-2.8,2.2-5,5.1-5s5.1,2.2,5.1,4.9v0c0,2.7-2.2,5-5.1,5
		C120.3,21.5,118.2,19.2,118.2,16.5z M126.2,16.5L126.2,16.5c0-1.7-1.2-3.1-2.9-3.1c-1.7,0-2.9,1.4-2.9,3v0c0,1.7,1.2,3,2.9,3
		C125,19.5,126.2,18.2,126.2,16.5z"/>
	<path class="st0" d="M129.3,20.3c-0.2-0.1-0.4-0.4-0.4-0.8c0-0.5,0.4-0.9,0.9-0.9c0.2,0,0.3,0.1,0.5,0.1c0.9,0.6,1.9,0.9,2.7,0.9
		c0.9,0,1.5-0.4,1.5-1v0c0-0.7-1-1-2.1-1.3c-1.4-0.4-3-1-3-2.8v0c0-1.8,1.5-2.9,3.4-2.9c1,0,2.1,0.3,3,0.8c0.3,0.2,0.5,0.5,0.5,0.8
		c0,0.5-0.4,0.9-0.9,0.9c-0.2,0-0.3,0-0.4-0.1c-0.8-0.4-1.6-0.6-2.2-0.6c-0.8,0-1.3,0.4-1.3,0.9v0c0,0.7,1,1,2.1,1.4
		c1.4,0.4,3,1.1,3,2.8v0c0,2-1.5,3-3.5,3C131.7,21.4,130.4,21,129.3,20.3z"/>
	<path class="st0" d="M142.1,21.5c-2.8,0-4.9-2-4.9-4.9v0c0-2.7,1.9-5,4.6-5c3,0,4.5,2.5,4.5,4.7c0,0.6-0.5,1-1,1h-6
		c0.2,1.5,1.3,2.4,2.7,2.4c0.9,0,1.6-0.3,2.3-0.8c0.2-0.1,0.3-0.2,0.6-0.2c0.5,0,0.9,0.4,0.9,0.9c0,0.3-0.1,0.5-0.3,0.7
		C144.7,21,143.6,21.5,142.1,21.5z M144.3,15.8c-0.1-1.4-1-2.5-2.4-2.5c-1.3,0-2.3,1-2.5,2.5H144.3z"/>
	<path class="st0" d="M151.6,18.5L151.6,18.5c0-2.1,1.6-3.1,3.9-3.1c1.1,0,1.8,0.2,2.6,0.4v-0.2c0-1.4-0.8-2.1-2.4-2.1
		c-0.8,0-1.5,0.1-2.1,0.4c-0.1,0-0.2,0.1-0.3,0.1c-0.5,0-0.9-0.4-0.9-0.9c0-0.4,0.3-0.7,0.6-0.9c0.9-0.3,1.8-0.6,3.1-0.6
		c1.4,0,2.5,0.4,3.2,1.1c0.7,0.7,1,1.7,1,2.9v4.7c0,0.6-0.5,1-1.1,1c-0.6,0-1.1-0.4-1.1-0.9V20c-0.6,0.8-1.6,1.4-3.1,1.4
		C153.2,21.4,151.6,20.4,151.6,18.5z M158.1,17.8v-0.6c-0.6-0.2-1.3-0.4-2.2-0.4c-1.4,0-2.2,0.6-2.2,1.6v0c0,0.9,0.8,1.4,1.9,1.4
		C157,19.8,158.1,19,158.1,17.8z"/>
	<path class="st0" d="M166.4,9.1c0-0.6,0.5-1.1,1.1-1.1s1.1,0.5,1.1,1.1v4.2c0.7-1,1.7-1.8,3.2-1.8c2.2,0,4.4,1.8,4.4,4.9v0
		c0,3.2-2.2,4.9-4.4,4.9c-1.6,0-2.6-0.8-3.2-1.7v0.5c0,0.6-0.5,1.1-1.1,1.1c-0.6,0-1.1-0.5-1.1-1.1V9.1z M174,16.5L174,16.5
		c0-1.9-1.2-3.1-2.7-3.1c-1.5,0-2.8,1.2-2.8,3v0c0,1.8,1.3,3,2.8,3C172.8,19.5,174,18.4,174,16.5z"/>
	<path class="st0" d="M186,20.2c0,0.6-0.5,1.1-1.1,1.1c-0.6,0-1.1-0.5-1.1-1.1v-0.5c-0.6,0.9-1.5,1.7-3,1.7c-2.1,0-3.4-1.4-3.4-3.7
		v-5.1c0-0.6,0.5-1.1,1.1-1.1c0.6,0,1.1,0.5,1.1,1.1v4.4c0,1.5,0.7,2.3,2,2.3c1.3,0,2.1-0.9,2.1-2.3v-4.4c0-0.6,0.5-1.1,1.1-1.1
		c0.6,0,1.1,0.5,1.1,1.1V20.2z"/>
	<path class="st0" d="M187.5,20.3c-0.2-0.1-0.4-0.4-0.4-0.8c0-0.5,0.4-0.9,0.9-0.9c0.2,0,0.3,0.1,0.5,0.1c0.9,0.6,1.9,0.9,2.7,0.9
		c0.9,0,1.5-0.4,1.5-1v0c0-0.7-1-1-2.1-1.3c-1.4-0.4-3-1-3-2.8v0c0-1.8,1.5-2.9,3.4-2.9c1,0,2.1,0.3,3,0.8c0.3,0.2,0.5,0.5,0.5,0.8
		c0,0.5-0.4,0.9-0.9,0.9c-0.2,0-0.3,0-0.4-0.1c-0.8-0.4-1.6-0.6-2.2-0.6c-0.8,0-1.3,0.4-1.3,0.9v0c0,0.7,1,1,2.1,1.4
		c1.4,0.4,3,1.1,3,2.8v0c0,2-1.5,3-3.5,3C189.9,21.4,188.6,21,187.5,20.3z"/>
	<path class="st0" d="M195.9,9.2c0-0.6,0.5-1.1,1.2-1.1s1.2,0.4,1.2,1.1v0.1c0,0.6-0.5,1.1-1.2,1.1s-1.2-0.4-1.2-1.1V9.2z
		 M196.1,12.7c0-0.6,0.5-1.1,1.1-1.1s1.1,0.5,1.1,1.1v7.5c0,0.6-0.5,1.1-1.1,1.1c-0.6,0-1.1-0.5-1.1-1.1V12.7z"/>
	<path class="st0" d="M200.2,12.7c0-0.6,0.5-1.1,1.1-1.1s1.1,0.5,1.1,1.1v0.5c0.6-0.9,1.5-1.7,3-1.7c2.1,0,3.4,1.4,3.4,3.6v5.1
		c0,0.6-0.5,1.1-1.1,1.1s-1.1-0.5-1.1-1.1v-4.4c0-1.5-0.7-2.3-2-2.3c-1.3,0-2.1,0.9-2.1,2.4v4.4c0,0.6-0.5,1.1-1.1,1.1
		c-0.6,0-1.1-0.5-1.1-1.1V12.7z"/>
	<path class="st0" d="M214.8,21.5c-2.8,0-4.9-2-4.9-4.9v0c0-2.7,1.9-5,4.6-5c3,0,4.5,2.5,4.5,4.7c0,0.6-0.5,1-1,1h-6
		c0.2,1.5,1.3,2.4,2.7,2.4c0.9,0,1.6-0.3,2.2-0.8c0.2-0.1,0.3-0.2,0.6-0.2c0.5,0,0.9,0.4,0.9,0.9c0,0.3-0.1,0.5-0.3,0.7
		C217.4,21,216.3,21.5,214.8,21.5z M217,15.8c-0.1-1.4-1-2.5-2.4-2.5c-1.3,0-2.3,1-2.5,2.5H217z"/>
	<path class="st0" d="M220.1,20.3c-0.2-0.1-0.4-0.4-0.4-0.8c0-0.5,0.4-0.9,0.9-0.9c0.2,0,0.3,0.1,0.5,0.1c0.9,0.6,1.9,0.9,2.7,0.9
		c0.9,0,1.5-0.4,1.5-1v0c0-0.7-1-1-2.1-1.3c-1.4-0.4-3-1-3-2.8v0c0-1.8,1.5-2.9,3.4-2.9c1,0,2.1,0.3,3,0.8c0.3,0.2,0.5,0.5,0.5,0.8
		c0,0.5-0.4,0.9-0.9,0.9c-0.2,0-0.3,0-0.4-0.1c-0.8-0.4-1.6-0.6-2.2-0.6c-0.8,0-1.3,0.4-1.3,0.9v0c0,0.7,1,1,2.1,1.4
		c1.4,0.4,3,1.1,3,2.8v0c0,2-1.5,3-3.5,3C222.5,21.4,221.2,21,220.1,20.3z"/>
	<path class="st0" d="M228,20.3c-0.2-0.1-0.4-0.4-0.4-0.8c0-0.5,0.4-0.9,0.9-0.9c0.2,0,0.3,0.1,0.5,0.1c0.9,0.6,1.9,0.9,2.7,0.9
		c0.9,0,1.5-0.4,1.5-1v0c0-0.7-1-1-2.1-1.3c-1.4-0.4-3-1-3-2.8v0c0-1.8,1.5-2.9,3.4-2.9c1,0,2.1,0.3,3,0.8c0.3,0.2,0.5,0.5,0.5,0.8
		c0,0.5-0.4,0.9-0.9,0.9c-0.2,0-0.3,0-0.4-0.1c-0.8-0.4-1.6-0.6-2.2-0.6c-0.8,0-1.3,0.4-1.3,0.9v0c0,0.7,1,1,2.1,1.4
		c1.4,0.4,3,1.1,3,2.8v0c0,2-1.5,3-3.5,3C230.4,21.4,229.1,21,228,20.3z"/>
	<path class="st0" d="M108.5,43.3c-0.4-0.1-0.6-0.5-0.6-0.9c0-0.5,0.4-0.9,0.9-0.9c0.2,0,0.3,0,0.4,0.1c0.9,0.5,1.8,0.8,2.9,0.8
		c1.9,0,3-1,3-2.9v-0.7c-0.8,1-1.8,1.7-3.3,1.7c-2.2,0-4.3-1.7-4.3-4.4v0c0-2.8,2.1-4.5,4.3-4.5c1.6,0,2.6,0.7,3.3,1.6v-0.5
		c0-0.6,0.5-1.1,1.1-1.1c0.6,0,1.1,0.5,1.1,1.1v6.6c0,1.6-0.4,2.8-1.2,3.6c-0.9,0.9-2.2,1.3-3.9,1.3
		C110.9,44.2,109.7,43.9,108.5,43.3z M115.2,36L115.2,36c0-1.6-1.3-2.6-2.8-2.6c-1.5,0-2.7,1-2.7,2.6v0c0,1.5,1.2,2.6,2.7,2.6
		C113.9,38.6,115.2,37.6,115.2,36z"/>
	<path class="st0" d="M119.2,32.7c0-0.6,0.5-1.1,1.1-1.1s1.1,0.5,1.1,1.1v1c0.5-1.2,1.4-2.1,2.4-2.1c0.7,0,1.1,0.5,1.1,1.1
		c0,0.6-0.4,1-0.9,1c-1.5,0.3-2.6,1.5-2.6,3.7v2.8c0,0.6-0.5,1.1-1.1,1.1c-0.6,0-1.1-0.5-1.1-1.1V32.7z"/>
	<path class="st0" d="M124.6,38.5L124.6,38.5c0-2.1,1.6-3.1,3.9-3.1c1.1,0,1.8,0.2,2.6,0.4v-0.2c0-1.4-0.8-2.1-2.4-2.1
		c-0.8,0-1.5,0.1-2.1,0.4c-0.1,0-0.2,0.1-0.3,0.1c-0.5,0-0.9-0.4-0.9-0.9c0-0.4,0.3-0.7,0.6-0.9c0.9-0.3,1.8-0.6,3.1-0.6
		c1.4,0,2.5,0.4,3.2,1.1c0.7,0.7,1,1.7,1,2.9v4.7c0,0.6-0.5,1-1.1,1c-0.6,0-1.1-0.4-1.1-0.9V40c-0.6,0.8-1.6,1.4-3.1,1.4
		C126.2,41.4,124.6,40.4,124.6,38.5z M131.1,37.8v-0.6c-0.6-0.2-1.3-0.4-2.2-0.4c-1.4,0-2.2,0.6-2.2,1.6v0c0,0.9,0.8,1.4,1.9,1.4
		C130,39.8,131.1,39,131.1,37.8z"/>
	<path class="st0" d="M144.3,40.2c0,0.6-0.5,1.1-1.1,1.1c-0.6,0-1.1-0.5-1.1-1.1v-0.6c-0.7,1-1.7,1.8-3.2,1.8
		c-2.2,0-4.4-1.8-4.4-4.9v0c0-3.2,2.1-4.9,4.4-4.9c1.6,0,2.6,0.8,3.2,1.7v-4.1c0-0.6,0.5-1.1,1.1-1.1c0.6,0,1.1,0.5,1.1,1.1V40.2z
		 M136.6,36.5L136.6,36.5c0,1.9,1.3,3.1,2.7,3.1c1.5,0,2.8-1.2,2.8-3v0c0-1.8-1.3-3-2.8-3C137.9,33.4,136.6,34.6,136.6,36.5z"/>
	<path class="st0" d="M150.4,41.4c-2.8,0-4.9-2-4.9-4.9v0c0-2.7,1.9-5,4.6-5c3,0,4.5,2.5,4.5,4.7c0,0.6-0.5,1-1,1h-6
		c0.2,1.5,1.3,2.4,2.7,2.4c0.9,0,1.6-0.3,2.3-0.8c0.2-0.1,0.3-0.2,0.6-0.2c0.5,0,0.9,0.4,0.9,0.9c0,0.3-0.1,0.5-0.3,0.7
		C153,41,151.9,41.4,150.4,41.4z M152.6,35.8c-0.1-1.4-1-2.5-2.4-2.5c-1.3,0-2.3,1-2.5,2.5H152.6z"/>
	<path class="st0" d="M160.2,40.3c-0.2-0.1-0.4-0.4-0.4-0.8c0-0.5,0.4-0.9,0.9-0.9c0.2,0,0.3,0.1,0.5,0.1c0.9,0.6,1.9,0.9,2.7,0.9
		c0.9,0,1.5-0.4,1.5-1v0c0-0.7-1-1-2.1-1.3c-1.4-0.4-3-1-3-2.8v0c0-1.8,1.5-2.9,3.4-2.9c1,0,2.1,0.3,3,0.8c0.3,0.2,0.5,0.5,0.5,0.8
		c0,0.5-0.4,0.9-0.9,0.9c-0.2,0-0.3,0-0.4-0.1c-0.8-0.4-1.6-0.6-2.2-0.6c-0.8,0-1.3,0.4-1.3,0.9v0c0,0.7,1,1,2.1,1.4
		c1.4,0.4,3,1.1,3,2.8v0c0,2-1.5,3-3.5,3C162.6,41.4,161.3,41,160.2,40.3z"/>
	<path class="st0" d="M173,41.4c-2.8,0-4.9-2-4.9-4.9v0c0-2.7,1.9-5,4.6-5c3,0,4.5,2.5,4.5,4.7c0,0.6-0.5,1-1,1h-6
		c0.2,1.5,1.3,2.4,2.7,2.4c0.9,0,1.6-0.3,2.3-0.8c0.2-0.1,0.3-0.2,0.6-0.2c0.5,0,0.9,0.4,0.9,0.9c0,0.3-0.1,0.5-0.3,0.7
		C175.6,41,174.5,41.4,173,41.4z M175.2,35.8c-0.1-1.4-1-2.5-2.4-2.5c-1.3,0-2.3,1-2.5,2.5H175.2z"/>
	<path class="st0" d="M178.6,32.7c0-0.6,0.5-1.1,1.1-1.1s1.1,0.5,1.1,1.1v1c0.5-1.2,1.4-2.1,2.4-2.1c0.7,0,1.1,0.5,1.1,1.1
		c0,0.6-0.4,1-0.9,1c-1.5,0.3-2.6,1.5-2.6,3.7v2.8c0,0.6-0.5,1.1-1.1,1.1c-0.6,0-1.1-0.5-1.1-1.1V32.7z"/>
	<path class="st0" d="M189.1,41.4H189c-0.6,0-1-0.4-1.2-1l-3.2-7.3c-0.1-0.2-0.1-0.3-0.1-0.5c0-0.5,0.5-1,1.1-1s0.9,0.3,1.1,0.8
		l2.4,6.3l2.5-6.3c0.2-0.4,0.5-0.8,1-0.8c0.6,0,1.1,0.4,1.1,1c0,0.2-0.1,0.4-0.1,0.5l-3.2,7.3C190.1,41,189.7,41.4,189.1,41.4z"/>
	<path class="st0" d="M194.8,29.2c0-0.6,0.5-1.1,1.2-1.1s1.2,0.4,1.2,1.1v0.1c0,0.6-0.5,1.1-1.2,1.1s-1.2-0.4-1.2-1.1V29.2z
		 M195,32.7c0-0.6,0.5-1.1,1.1-1.1s1.1,0.5,1.1,1.1v7.5c0,0.6-0.5,1.1-1.1,1.1c-0.6,0-1.1-0.5-1.1-1.1V32.7z"/>
	<path class="st0" d="M198.6,36.5L198.6,36.5c0-2.7,2.1-5,5-5c1.5,0,2.5,0.5,3.3,1.2c0.1,0.1,0.3,0.4,0.3,0.8c0,0.6-0.5,1-1,1
		c-0.3,0-0.5-0.1-0.6-0.2c-0.6-0.5-1.2-0.8-2-0.8c-1.6,0-2.8,1.4-2.8,3v0c0,1.7,1.2,3,2.8,3c0.9,0,1.5-0.3,2.1-0.8
		c0.1-0.1,0.3-0.2,0.6-0.2c0.5,0,0.9,0.4,0.9,1c0,0.3-0.1,0.5-0.3,0.7c-0.8,0.8-1.9,1.4-3.5,1.4C200.6,41.4,198.6,39.2,198.6,36.5z"
		/>
	<path class="st0" d="M212.5,41.4c-2.8,0-4.9-2-4.9-4.9v0c0-2.7,1.9-5,4.6-5c3,0,4.5,2.5,4.5,4.7c0,0.6-0.5,1-1,1h-6
		c0.2,1.5,1.3,2.4,2.7,2.4c0.9,0,1.6-0.3,2.3-0.8c0.2-0.1,0.3-0.2,0.6-0.2c0.5,0,0.9,0.4,0.9,0.9c0,0.3-0.1,0.5-0.3,0.7
		C215.1,41,214,41.4,212.5,41.4z M214.7,35.8c-0.1-1.4-1-2.5-2.4-2.5c-1.3,0-2.3,1-2.5,2.5H214.7z"/>
</g>
</svg>
