<?xml version="1.0" encoding="utf-8"?>
<!-- Generator: Adobe Illustrator 21.1.0, SVG Export Plug-In . SVG Version: 6.00 Build 0)  -->
<svg version="1.1" id="Layer_1" xmlns="http://www.w3.org/2000/svg" xmlns:xlink="http://www.w3.org/1999/xlink" x="0px" y="0px"
	 viewBox="0 0 300 600" style="enable-background:new 0 0 300 600;" xml:space="preserve">
<style type="text/css">
	.st0{fill:#133C7D;}
</style>
<g>
	<path class="st0" d="M40.6,81v-6.1h-0.4c-0.6,0-1.1-0.5-1.1-1.1s0.5-1.1,1.1-1.1h0.4v-2c0-0.7,0.6-1.3,1.3-1.3
		c0.7,0,1.3,0.6,1.3,1.3v2h2.1c0.6,0,1.2,0.5,1.2,1.1s-0.5,1.1-1.2,1.1h-2.1v5.7c0,1,0.5,1.5,1.4,1.5c0.3,0,0.6-0.1,0.7-0.1
		c0.6,0,1.1,0.5,1.1,1.1c0,0.5-0.3,0.9-0.7,1c-0.6,0.2-1.1,0.3-1.8,0.3C42,84.4,40.6,83.5,40.6,81z"/>
	<path class="st0" d="M47,78.4L47,78.4c0-3.4,2.6-6.1,6.2-6.1c3.6,0,6.2,2.7,6.2,6v0c0,3.3-2.6,6.1-6.2,6.1
		C49.6,84.4,47,81.7,47,78.4z M56.7,78.4L56.7,78.4c0-2.1-1.5-3.8-3.6-3.8c-2.1,0-3.5,1.7-3.5,3.7v0c0,2,1.5,3.7,3.5,3.7
		C55.4,82.1,56.7,80.4,56.7,78.4z"/>
	<path class="st0" d="M66.5,73.8c0-0.7,0.6-1.3,1.3-1.3c0.7,0,1.3,0.6,1.3,1.3v0.6c0.7-1,1.8-2,3.5-2c1.7,0,2.9,0.8,3.5,2
		c0.9-1.2,2.2-2,3.9-2c2.5,0,4.1,1.6,4.1,4.4V83c0,0.7-0.6,1.3-1.3,1.3s-1.3-0.6-1.3-1.3v-5.4c0-1.8-0.9-2.8-2.4-2.8
		c-1.5,0-2.5,1-2.5,2.9V83c0,0.7-0.6,1.3-1.3,1.3c-0.7,0-1.3-0.6-1.3-1.3v-5.4c0-1.8-0.9-2.8-2.4-2.8c-1.5,0-2.5,1.1-2.5,2.9V83
		c0,0.7-0.6,1.3-1.3,1.3c-0.7,0-1.3-0.6-1.3-1.3V73.8z"/>
	<path class="st0" d="M85.5,80.8L85.5,80.8c0-2.6,2-3.8,4.8-3.8c1.3,0,2.2,0.2,3.1,0.5v-0.3c0-1.6-1-2.5-2.9-2.5
		c-1,0-1.8,0.2-2.6,0.5c-0.2,0-0.3,0.1-0.4,0.1c-0.6,0-1.1-0.5-1.1-1.1c0-0.5,0.3-0.9,0.7-1.1c1.1-0.4,2.2-0.7,3.7-0.7
		c1.7,0,3,0.5,3.9,1.3c0.9,0.8,1.3,2.1,1.3,3.6V83c0,0.7-0.6,1.3-1.3,1.3c-0.8,0-1.3-0.5-1.3-1.1v-0.4c-0.8,0.9-2,1.7-3.8,1.7
		C87.5,84.4,85.5,83.2,85.5,80.8z M93.5,80v-0.8c-0.7-0.3-1.6-0.5-2.6-0.5c-1.7,0-2.7,0.7-2.7,1.9v0c0,1.1,1,1.8,2.3,1.8
		C92.2,82.5,93.5,81.5,93.5,80z"/>
	<path class="st0" d="M98.6,81v-6.1h-0.4c-0.6,0-1.1-0.5-1.1-1.1s0.5-1.1,1.1-1.1h0.4v-2c0-0.7,0.6-1.3,1.3-1.3
		c0.7,0,1.3,0.6,1.3,1.3v2h2.1c0.6,0,1.2,0.5,1.2,1.1s-0.5,1.1-1.2,1.1h-2.1v5.7c0,1,0.5,1.5,1.4,1.5c0.3,0,0.6-0.1,0.7-0.1
		c0.6,0,1.1,0.5,1.1,1.1c0,0.5-0.3,0.9-0.7,1c-0.6,0.2-1.1,0.3-1.8,0.3C99.9,84.4,98.6,83.5,98.6,81z"/>
	<path class="st0" d="M105,78.4L105,78.4c0-3.3,2.6-6.1,6.1-6.1c1.8,0,3.1,0.6,4.1,1.5c0.2,0.2,0.4,0.5,0.4,0.9
		c0,0.7-0.6,1.2-1.2,1.2c-0.3,0-0.6-0.1-0.8-0.3c-0.7-0.6-1.4-1-2.5-1c-1.9,0-3.4,1.7-3.4,3.7v0c0,2.1,1.4,3.7,3.5,3.7
		c1.1,0,1.9-0.4,2.6-1c0.2-0.1,0.4-0.3,0.7-0.3c0.6,0,1.1,0.5,1.1,1.2c0,0.4-0.1,0.6-0.4,0.8c-1,1-2.3,1.7-4.2,1.7
		C107.5,84.4,105,81.7,105,78.4z"/>
	<path class="st0" d="M117.1,69.3c0-0.7,0.6-1.3,1.3-1.3c0.7,0,1.3,0.6,1.3,1.3v5c0.7-1.1,1.8-2,3.6-2c2.6,0,4.1,1.8,4.1,4.4V83
		c0,0.7-0.6,1.3-1.3,1.3s-1.3-0.6-1.3-1.3v-5.4c0-1.8-0.9-2.8-2.5-2.8c-1.5,0-2.6,1.1-2.6,2.9V83c0,0.7-0.6,1.3-1.3,1.3
		c-0.7,0-1.3-0.6-1.3-1.3V69.3z"/>
	<path class="st0" d="M135.4,87.4c-0.4-0.1-0.8-0.5-0.8-1.1c0-0.7,0.5-1.1,1.1-1.1c0.2,0,0.4,0,0.5,0.1c0.3,0.1,0.6,0.2,0.9,0.2
		c0.8,0,1.2-0.3,1.6-1.2l0.1-0.2l-4.3-9.6c-0.1-0.2-0.2-0.5-0.2-0.6c0-0.7,0.6-1.3,1.3-1.3c0.7,0,1.1,0.4,1.3,1l3.1,7.7l2.9-7.7
		c0.2-0.5,0.6-1,1.3-1c0.7,0,1.3,0.5,1.3,1.3c0,0.2-0.1,0.5-0.1,0.6l-4.2,10.2c-1,2.4-2,3.3-3.9,3.3
		C136.5,87.8,135.9,87.6,135.4,87.4z"/>
	<path class="st0" d="M145.8,78.4L145.8,78.4c0-3.4,2.6-6.1,6.2-6.1s6.2,2.7,6.2,6v0c0,3.3-2.6,6.1-6.2,6.1
		C148.4,84.4,145.8,81.7,145.8,78.4z M155.5,78.4L155.5,78.4c0-2.1-1.5-3.8-3.6-3.8c-2.1,0-3.5,1.7-3.5,3.7v0c0,2,1.5,3.7,3.5,3.7
		C154.2,82.1,155.5,80.4,155.5,78.4z"/>
	<path class="st0" d="M170.1,83c0,0.7-0.6,1.3-1.3,1.3c-0.7,0-1.3-0.6-1.3-1.3v-0.6c-0.7,1.1-1.8,2-3.6,2c-2.6,0-4.1-1.8-4.1-4.5
		v-6.2c0-0.7,0.6-1.3,1.3-1.3c0.7,0,1.3,0.6,1.3,1.3v5.4c0,1.8,0.9,2.8,2.5,2.8c1.5,0,2.6-1.1,2.6-2.9v-5.3c0-0.7,0.6-1.3,1.3-1.3
		c0.7,0,1.3,0.6,1.3,1.3V83z"/>
	<path class="st0" d="M172.3,73.8c0-0.7,0.6-1.3,1.3-1.3s1.3,0.6,1.3,1.3V75c0.6-1.5,1.8-2.6,2.9-2.6c0.8,0,1.3,0.5,1.3,1.3
		c0,0.7-0.5,1.2-1.1,1.3c-1.9,0.3-3.2,1.8-3.2,4.5V83c0,0.7-0.6,1.3-1.3,1.3c-0.7,0-1.3-0.6-1.3-1.3V73.8z"/>
	<path class="st0" d="M185.8,73.8c0-0.7,0.6-1.3,1.3-1.3s1.3,0.6,1.3,1.3v0.6c0.7-1.1,1.8-2,3.6-2c2.6,0,4.1,1.8,4.1,4.4V83
		c0,0.7-0.6,1.3-1.3,1.3s-1.3-0.6-1.3-1.3v-5.4c0-1.8-0.9-2.8-2.5-2.8c-1.5,0-2.6,1.1-2.6,2.9V83c0,0.7-0.6,1.3-1.3,1.3
		c-0.7,0-1.3-0.6-1.3-1.3V73.8z"/>
	<path class="st0" d="M203.7,84.4c-3.4,0-6-2.4-6-6v0c0-3.3,2.4-6.1,5.7-6.1c3.7,0,5.5,3,5.5,5.7c0,0.7-0.6,1.3-1.3,1.3h-7.3
		c0.3,1.9,1.6,2.9,3.3,2.9c1.1,0,2-0.4,2.8-1c0.2-0.2,0.4-0.2,0.7-0.2c0.6,0,1.1,0.5,1.1,1.1c0,0.3-0.2,0.6-0.4,0.8
		C206.8,83.8,205.5,84.4,203.7,84.4z M206.3,77.5c-0.2-1.7-1.2-3.1-2.9-3.1c-1.6,0-2.8,1.3-3,3.1H206.3z"/>
	<path class="st0" d="M215.9,84.4c-3.4,0-6-2.4-6-6v0c0-3.3,2.4-6.1,5.7-6.1c3.7,0,5.5,3,5.5,5.7c0,0.7-0.6,1.3-1.3,1.3h-7.3
		c0.3,1.9,1.6,2.9,3.3,2.9c1.1,0,2-0.4,2.8-1c0.2-0.2,0.4-0.2,0.7-0.2c0.6,0,1.1,0.5,1.1,1.1c0,0.3-0.2,0.6-0.4,0.8
		C219,83.8,217.7,84.4,215.9,84.4z M218.5,77.5c-0.2-1.7-1.2-3.1-2.9-3.1c-1.6,0-2.8,1.3-3,3.1H218.5z"/>
	<path class="st0" d="M234.2,83c0,0.7-0.6,1.3-1.3,1.3c-0.7,0-1.3-0.6-1.3-1.3v-0.7c-0.9,1.2-2.1,2.2-4,2.2c-2.7,0-5.4-2.2-5.4-6v0
		c0-3.9,2.6-6,5.4-6c1.9,0,3.1,0.9,4,2v-5c0-0.7,0.6-1.3,1.3-1.3c0.7,0,1.3,0.6,1.3,1.3V83z M224.8,78.3L224.8,78.3
		c0,2.3,1.5,3.8,3.3,3.8c1.8,0,3.4-1.5,3.4-3.7v0c0-2.2-1.6-3.7-3.4-3.7C226.4,74.6,224.8,76,224.8,78.3z"/>
	<path class="st0" d="M236,83c-0.3-0.2-0.5-0.5-0.5-0.9c0-0.6,0.5-1.1,1.1-1.1c0.2,0,0.4,0.1,0.6,0.2c1.1,0.7,2.3,1.1,3.3,1.1
		c1.1,0,1.8-0.5,1.8-1.3v0c0-0.9-1.2-1.2-2.6-1.6c-1.7-0.5-3.6-1.2-3.6-3.4v0c0-2.2,1.8-3.5,4.1-3.5c1.2,0,2.5,0.4,3.7,0.9
		c0.4,0.2,0.6,0.6,0.6,1c0,0.6-0.5,1.1-1.1,1.1c-0.2,0-0.4,0-0.5-0.1c-0.9-0.5-1.9-0.8-2.7-0.8c-1,0-1.6,0.5-1.6,1.1v0
		c0,0.9,1.3,1.2,2.6,1.7c1.7,0.5,3.6,1.3,3.6,3.4v0c0,2.4-1.9,3.7-4.3,3.7C238.9,84.4,237.3,83.9,236,83z"/>
	<path class="st0" d="M247.6,81c0.9,0,1.5,0.7,1.5,1.5v0.2c0,0.9-0.7,1.5-1.5,1.5c-0.9,0-1.6-0.7-1.6-1.5v-0.2
		C246.1,81.7,246.7,81,247.6,81z"/>
</g>
</svg>
