<?xml version="1.0" encoding="utf-8"?>
<!-- Generator: Adobe Illustrator 21.1.0, SVG Export Plug-In . SVG Version: 6.00 Build 0)  -->
<svg version="1.1" id="Layer_1" xmlns="http://www.w3.org/2000/svg" xmlns:xlink="http://www.w3.org/1999/xlink" x="0px" y="0px"
	 viewBox="0 0 300 600" style="enable-background:new 0 0 300 600;" xml:space="preserve">
<style type="text/css">
	.st0{fill:#133C7D;}
</style>
<g>
	<path class="st0" d="M38,76.5L38,76.5c0-4.4,3.3-8,7.9-8c2.4,0,3.9,0.7,5.3,1.7c0.3,0.2,0.5,0.6,0.5,1.1c0,0.7-0.6,1.3-1.3,1.3
		c-0.4,0-0.6-0.1-0.8-0.3c-1.1-0.9-2.2-1.4-3.7-1.4c-2.9,0-5.1,2.4-5.1,5.4l0,0c0,3,2.1,5.5,5.1,5.5c1.6,0,2.7-0.5,3.9-1.5
		c0.2-0.2,0.5-0.3,0.8-0.3c0.7,0,1.3,0.6,1.3,1.3c0,0.4-0.2,0.7-0.4,1c-1.5,1.3-3.1,2.1-5.6,2.1C41.3,84.5,38,81,38,76.5z"/>
	<path class="st0" d="M53.7,69.3c0-0.7,0.6-1.3,1.3-1.3s1.3,0.6,1.3,1.3v13.6c0,0.7-0.6,1.3-1.3,1.3s-1.3-0.6-1.3-1.3V69.3z"/>
	<path class="st0" d="M58.1,78.5L58.1,78.5c0-3.4,2.6-6.1,6.2-6.1c3.6,0,6.2,2.7,6.2,6l0,0c0,3.3-2.6,6.1-6.2,6.1
		C60.7,84.5,58.1,81.8,58.1,78.5z M67.8,78.5L67.8,78.5c0-2.1-1.5-3.8-3.6-3.8c-2.1,0-3.5,1.7-3.5,3.7l0,0c0,2,1.5,3.7,3.5,3.7
		C66.4,82.1,67.8,80.5,67.8,78.5z"/>
	<path class="st0" d="M82.4,83c0,0.7-0.6,1.3-1.3,1.3c-0.7,0-1.3-0.6-1.3-1.3v-0.6c-0.7,1.1-1.8,2-3.6,2c-2.6,0-4.1-1.8-4.1-4.5
		v-6.2c0-0.7,0.6-1.3,1.3-1.3s1.3,0.6,1.3,1.3v5.4c0,1.8,0.9,2.8,2.5,2.8c1.5,0,2.6-1.1,2.6-2.9v-5.3c0-0.7,0.6-1.3,1.3-1.3
		c0.7,0,1.3,0.6,1.3,1.3C82.4,73.7,82.4,83,82.4,83z"/>
	<path class="st0" d="M96,83c0,0.7-0.6,1.3-1.3,1.3c-0.7,0-1.3-0.6-1.3-1.3v-0.7c-0.9,1.2-2.1,2.2-4,2.2c-2.7,0-5.4-2.2-5.4-6l0,0
		c0-3.9,2.6-6,5.4-6c1.9,0,3.1,0.9,4,2v-5c0-0.7,0.6-1.3,1.3-1.3s1.3,0.6,1.3,1.3V83z M86.7,78.4L86.7,78.4c0,2.3,1.5,3.8,3.3,3.8
		s3.4-1.5,3.4-3.7l0,0c0-2.2-1.6-3.7-3.4-3.7C88.2,74.7,86.7,76.1,86.7,78.4z"/>
	<path class="st0" d="M97.7,77.5c0-0.7,0.6-1.3,1.3-1.3h4.1c0.7,0,1.3,0.6,1.3,1.3c0,0.7-0.6,1.3-1.3,1.3H99
		C98.3,78.8,97.7,78.2,97.7,77.5z"/>
	<path class="st0" d="M105.5,78.5L105.5,78.5c0-3.3,2.6-6.1,6.1-6.1c1.8,0,3.1,0.6,4.1,1.5c0.2,0.2,0.4,0.5,0.4,0.9
		c0,0.7-0.6,1.2-1.2,1.2c-0.3,0-0.6-0.1-0.8-0.3c-0.7-0.6-1.4-1-2.5-1c-1.9,0-3.4,1.7-3.4,3.7l0,0c0,2.1,1.4,3.7,3.5,3.7
		c1.1,0,1.9-0.4,2.6-1c0.2-0.1,0.4-0.3,0.7-0.3c0.6,0,1.1,0.5,1.1,1.2c0,0.4-0.1,0.6-0.4,0.8c-1,1-2.3,1.7-4.2,1.7
		C108,84.5,105.5,81.8,105.5,78.5z"/>
	<path class="st0" d="M116.6,78.5L116.6,78.5c0-3.4,2.6-6.1,6.2-6.1c3.6,0,6.2,2.7,6.2,6l0,0c0,3.3-2.6,6.1-6.2,6.1
		S116.6,81.8,116.6,78.5z M126.4,78.5L126.4,78.5c0-2.1-1.5-3.8-3.6-3.8c-2.1,0-3.5,1.7-3.5,3.7l0,0c0,2,1.5,3.7,3.5,3.7
		C125,82.1,126.4,80.5,126.4,78.5z"/>
	<path class="st0" d="M130.6,73.8c0-0.7,0.6-1.3,1.3-1.3s1.3,0.6,1.3,1.3v0.6c0.7-1,1.8-2,3.5-2s2.9,0.8,3.5,2c0.9-1.2,2.2-2,3.9-2
		c2.5,0,4.1,1.6,4.1,4.4V83c0,0.7-0.6,1.3-1.3,1.3s-1.3-0.6-1.3-1.3v-5.4c0-1.8-0.9-2.8-2.4-2.8s-2.5,1-2.5,2.9V83
		c0,0.7-0.6,1.3-1.3,1.3s-1.3-0.6-1.3-1.3v-5.4c0-1.8-0.9-2.8-2.4-2.8s-2.5,1.1-2.5,2.9V83c0,0.7-0.6,1.3-1.3,1.3s-1.3-0.6-1.3-1.3
		V73.8z"/>
	<path class="st0" d="M150.4,73.8c0-0.7,0.6-1.3,1.3-1.3s1.3,0.6,1.3,1.3v0.7c0.9-1.2,2.1-2.2,4-2.2c2.7,0,5.4,2.2,5.4,6l0,0
		c0,3.9-2.6,6-5.4,6c-1.9,0-3.1-1-4-2v4.2c0,0.7-0.6,1.3-1.3,1.3s-1.3-0.6-1.3-1.3V73.8z M159.7,78.4L159.7,78.4
		c0-2.3-1.5-3.8-3.3-3.8s-3.4,1.5-3.4,3.7l0,0c0,2.2,1.6,3.7,3.4,3.7C158.2,82.1,159.7,80.7,159.7,78.4z"/>
	<path class="st0" d="M174.4,83c0,0.7-0.6,1.3-1.3,1.3s-1.3-0.6-1.3-1.3v-0.6c-0.7,1.1-1.8,2-3.6,2c-2.6,0-4.1-1.8-4.1-4.5v-6.2
		c0-0.7,0.6-1.3,1.3-1.3s1.3,0.6,1.3,1.3v5.4c0,1.8,0.9,2.8,2.5,2.8c1.5,0,2.6-1.1,2.6-2.9v-5.3c0-0.7,0.6-1.3,1.3-1.3
		s1.3,0.6,1.3,1.3V83z"/>
	<path class="st0" d="M177.2,81v-6.1h-0.5c-0.6,0-1.1-0.5-1.1-1.1s0.5-1.1,1.1-1.1h0.4v-2c0-0.7,0.6-1.3,1.3-1.3s1.3,0.6,1.3,1.3v2
		h2.1c0.6,0,1.2,0.5,1.2,1.1s-0.5,1.1-1.2,1.1h-2.1v5.7c0,1,0.5,1.5,1.4,1.5c0.3,0,0.6-0.1,0.7-0.1c0.6,0,1.1,0.5,1.1,1.1
		c0,0.5-0.3,0.9-0.7,1c-0.6,0.2-1.1,0.3-1.8,0.3C178.6,84.4,177.2,83.5,177.2,81z"/>
	<path class="st0" d="M184.5,69.5c0-0.8,0.7-1.3,1.5-1.3c0.9,0,1.5,0.5,1.5,1.3v0.1c0,0.8-0.7,1.3-1.5,1.3
		C185.1,70.9,184.5,70.4,184.5,69.5L184.5,69.5z M184.7,73.8c0-0.7,0.6-1.3,1.3-1.3s1.3,0.6,1.3,1.3V83c0,0.7-0.6,1.3-1.3,1.3
		s-1.3-0.6-1.3-1.3V73.8z"/>
	<path class="st0" d="M189.8,73.8c0-0.7,0.6-1.3,1.3-1.3s1.3,0.6,1.3,1.3v0.6c0.7-1.1,1.8-2,3.6-2c2.6,0,4.1,1.8,4.1,4.4V83
		c0,0.7-0.6,1.3-1.3,1.3s-1.3-0.6-1.3-1.3v-5.4c0-1.8-0.9-2.8-2.5-2.8c-1.5,0-2.6,1.1-2.6,2.9V83c0,0.7-0.6,1.3-1.3,1.3
		s-1.3-0.6-1.3-1.3V73.8z"/>
	<path class="st0" d="M203,86.7c-0.5-0.2-0.7-0.5-0.7-1.1s0.5-1.1,1.1-1.1c0.2,0,0.4,0,0.5,0.1c1.1,0.6,2.2,0.9,3.6,0.9
		c2.4,0,3.7-1.2,3.7-3.6V81c-1,1.3-2.2,2.1-4.1,2.1c-2.7,0-5.3-2-5.3-5.4l0,0c0-3.4,2.6-5.5,5.3-5.5c2,0,3.2,0.9,4.1,2v-0.6
		c0-0.7,0.6-1.3,1.3-1.3s1.3,0.6,1.3,1.3v8c0,2-0.5,3.4-1.5,4.4c-1.1,1.1-2.7,1.6-4.8,1.6C205.8,87.8,204.4,87.4,203,86.7z
		 M211.1,77.8L211.1,77.8c0-1.9-1.6-3.2-3.4-3.2c-1.8,0-3.3,1.3-3.3,3.2l0,0c0,1.9,1.5,3.2,3.3,3.2S211.1,79.7,211.1,77.8z"/>
	<path class="st0" d="M220.8,78.5L220.8,78.5c0-3.4,2.6-6.1,6.2-6.1s6.2,2.7,6.2,6l0,0c0,3.3-2.6,6.1-6.2,6.1
		C223.4,84.5,220.8,81.8,220.8,78.5z M230.5,78.5L230.5,78.5c0-2.1-1.5-3.8-3.6-3.8s-3.5,1.7-3.5,3.7l0,0c0,2,1.5,3.7,3.5,3.7
		C229.2,82.1,230.5,80.5,230.5,78.5z"/>
	<path class="st0" d="M234.8,73.8c0-0.7,0.6-1.3,1.3-1.3s1.3,0.6,1.3,1.3V75c0.6-1.5,1.8-2.6,2.9-2.6c0.8,0,1.3,0.5,1.3,1.3
		c0,0.7-0.5,1.2-1.1,1.3c-1.9,0.3-3.2,1.8-3.2,4.5v3.4c0,0.7-0.6,1.3-1.3,1.3s-1.3-0.6-1.3-1.3v-9.1H234.8z"/>
	<path class="st0" d="M38.4,93.3c0-0.7,0.6-1.3,1.3-1.3s1.3,0.6,1.3,1.3v5.2c0.9-1.2,2.1-2.2,4-2.2c2.7,0,5.4,2.2,5.4,6l0,0
		c0,3.9-2.6,6-5.4,6c-1.9,0-3.1-1-4-2v0.6c0,0.7-0.6,1.3-1.3,1.3s-1.3-0.6-1.3-1.3V93.3z M47.7,102.4L47.7,102.4
		c0-2.3-1.5-3.8-3.3-3.8s-3.4,1.5-3.4,3.7l0,0c0,2.2,1.6,3.7,3.4,3.7C46.2,106.1,47.7,104.7,47.7,102.4z"/>
	<path class="st0" d="M51.3,104.9L51.3,104.9c0-2.6,2-3.8,4.8-3.8c1.3,0,2.2,0.2,3.1,0.5v-0.3c0-1.6-1-2.5-2.9-2.5
		c-1,0-1.8,0.2-2.6,0.5c-0.2,0-0.3,0.1-0.4,0.1c-0.6,0-1.1-0.5-1.1-1.1c0-0.5,0.3-0.9,0.7-1.1c1.1-0.4,2.2-0.7,3.7-0.7
		c1.7,0,3,0.5,3.9,1.3s1.3,2.1,1.3,3.6v5.7c0,0.7-0.6,1.3-1.3,1.3c-0.8,0-1.3-0.5-1.3-1.1v-0.4c-0.8,0.9-2,1.7-3.8,1.7
		C53.2,108.4,51.3,107.2,51.3,104.9z M59.2,104v-0.8c-0.7-0.3-1.6-0.5-2.6-0.5c-1.7,0-2.7,0.7-2.7,1.9l0,0c0,1.1,1,1.8,2.3,1.8
		C57.9,106.5,59.2,105.5,59.2,104z"/>
	<path class="st0" d="M63.4,107c-0.3-0.2-0.5-0.5-0.5-0.9c0-0.6,0.5-1.1,1.1-1.1c0.2,0,0.4,0.1,0.6,0.2c1.1,0.7,2.3,1.1,3.3,1.1
		c1.1,0,1.8-0.5,1.8-1.3l0,0c0-0.9-1.2-1.2-2.6-1.6c-1.7-0.5-3.6-1.2-3.6-3.4l0,0c0-2.2,1.8-3.5,4.1-3.5c1.2,0,2.5,0.4,3.7,0.9
		c0.4,0.2,0.6,0.6,0.6,1c0,0.6-0.5,1.1-1.1,1.1c-0.2,0-0.4,0-0.5-0.1c-0.9-0.5-1.9-0.8-2.7-0.8c-1,0-1.6,0.5-1.6,1.1l0,0
		c0,0.9,1.3,1.2,2.6,1.6c1.7,0.5,3.6,1.3,3.6,3.4l0,0c0,2.4-1.9,3.7-4.3,3.7C66.4,108.4,64.7,108,63.4,107z"/>
	<path class="st0" d="M73.7,93.5c0-0.8,0.7-1.3,1.5-1.3s1.5,0.5,1.5,1.3v0.1c0,0.8-0.7,1.3-1.5,1.3S73.7,94.4,73.7,93.5L73.7,93.5z
		 M73.9,97.8c0-0.7,0.6-1.3,1.3-1.3c0.7,0,1.3,0.6,1.3,1.3v9.2c0,0.7-0.6,1.3-1.3,1.3c-0.7,0-1.3-0.6-1.3-1.3V97.8z"/>
	<path class="st0" d="M78.3,102.5L78.3,102.5c0-3.3,2.6-6.1,6.1-6.1c1.8,0,3.1,0.6,4.1,1.5c0.2,0.2,0.4,0.5,0.4,0.9
		c0,0.7-0.6,1.2-1.2,1.2c-0.3,0-0.6-0.1-0.8-0.3c-0.7-0.6-1.4-1-2.5-1c-1.9,0-3.4,1.7-3.4,3.7l0,0c0,2.1,1.4,3.7,3.5,3.7
		c1.1,0,1.9-0.4,2.6-1c0.2-0.1,0.4-0.3,0.7-0.3c0.6,0,1.1,0.5,1.1,1.2c0,0.4-0.1,0.6-0.4,0.8c-1,1-2.3,1.7-4.2,1.7
		C80.9,108.5,78.3,105.8,78.3,102.5z"/>
	<path class="st0" d="M101.2,108.5c-3.4,0-6-2.4-6-6l0,0c0-3.3,2.4-6.1,5.7-6.1c3.7,0,5.5,3,5.5,5.7c0,0.7-0.6,1.3-1.3,1.3h-7.3
		c0.3,1.9,1.6,2.9,3.3,2.9c1.1,0,2-0.4,2.8-1c0.2-0.2,0.4-0.2,0.7-0.2c0.6,0,1.1,0.5,1.1,1.1c0,0.3-0.2,0.6-0.4,0.8
		C104.4,107.9,103.1,108.5,101.2,108.5z M103.9,101.6c-0.2-1.7-1.2-3.1-2.9-3.1c-1.6,0-2.8,1.3-3,3.1H103.9z"/>
	<path class="st0" d="M108.1,97.8c0-0.7,0.6-1.3,1.3-1.3c0.7,0,1.3,0.6,1.3,1.3v0.6c0.7-1,1.8-2,3.5-2s2.9,0.8,3.5,2
		c0.9-1.2,2.2-2,3.9-2c2.5,0,4.1,1.6,4.1,4.4v6.2c0,0.7-0.6,1.3-1.3,1.3c-0.7,0-1.3-0.6-1.3-1.3v-5.4c0-1.8-0.9-2.8-2.4-2.8
		s-2.5,1-2.5,2.9v5.3c0,0.7-0.6,1.3-1.3,1.3c-0.7,0-1.3-0.6-1.3-1.3v-5.4c0-1.8-0.9-2.8-2.4-2.8s-2.5,1.1-2.5,2.9v5.3
		c0,0.7-0.6,1.3-1.3,1.3s-1.3-0.6-1.3-1.3L108.1,97.8L108.1,97.8z"/>
	<path class="st0" d="M127.1,104.9L127.1,104.9c0-2.6,2-3.8,4.8-3.8c1.3,0,2.2,0.2,3.1,0.5v-0.3c0-1.6-1-2.5-2.9-2.5
		c-1,0-1.8,0.2-2.6,0.5c-0.2,0-0.3,0.1-0.4,0.1c-0.6,0-1.1-0.5-1.1-1.1c0-0.5,0.3-0.9,0.7-1.1c1.1-0.4,2.2-0.7,3.7-0.7
		c1.7,0,3,0.5,3.9,1.3s1.3,2.1,1.3,3.6v5.7c0,0.7-0.6,1.3-1.3,1.3c-0.8,0-1.3-0.5-1.3-1.1v-0.4c-0.8,0.9-2,1.7-3.8,1.7
		C129.1,108.4,127.1,107.2,127.1,104.9z M135.1,104v-0.8c-0.7-0.3-1.6-0.5-2.6-0.5c-1.7,0-2.7,0.7-2.7,1.9l0,0c0,1.1,1,1.8,2.3,1.8
		C133.8,106.5,135.1,105.5,135.1,104z"/>
	<path class="st0" d="M139.7,93.5c0-0.8,0.7-1.3,1.5-1.3s1.5,0.5,1.5,1.3v0.1c0,0.8-0.7,1.3-1.5,1.3S139.7,94.4,139.7,93.5
		L139.7,93.5z M139.9,97.8c0-0.7,0.6-1.3,1.3-1.3s1.3,0.6,1.3,1.3v9.2c0,0.7-0.6,1.3-1.3,1.3s-1.3-0.6-1.3-1.3V97.8z"/>
	<path class="st0" d="M145.1,93.3c0-0.7,0.6-1.3,1.3-1.3s1.3,0.6,1.3,1.3v13.6c0,0.7-0.6,1.3-1.3,1.3s-1.3-0.6-1.3-1.3V93.3z"/>
	<path class="st0" d="M150.1,93.5c0-0.8,0.7-1.3,1.5-1.3c0.9,0,1.5,0.5,1.5,1.3v0.1c0,0.8-0.7,1.3-1.5,1.3
		C150.7,94.9,150.1,94.4,150.1,93.5L150.1,93.5z M150.3,97.8c0-0.7,0.6-1.3,1.3-1.3s1.3,0.6,1.3,1.3v9.2c0,0.7-0.6,1.3-1.3,1.3
		s-1.3-0.6-1.3-1.3V97.8z"/>
	<path class="st0" d="M155.3,97.8c0-0.7,0.6-1.3,1.3-1.3s1.3,0.6,1.3,1.3v0.6c0.7-1.1,1.8-2,3.6-2c2.6,0,4.1,1.8,4.1,4.4v6.2
		c0,0.7-0.6,1.3-1.3,1.3s-1.3-0.6-1.3-1.3v-5.4c0-1.8-0.9-2.8-2.5-2.8c-1.5,0-2.6,1.1-2.6,2.9v5.3c0,0.7-0.6,1.3-1.3,1.3
		s-1.3-0.6-1.3-1.3V97.8z"/>
	<path class="st0" d="M168.5,110.7c-0.5-0.2-0.7-0.5-0.7-1.1s0.5-1.1,1.1-1.1c0.2,0,0.4,0,0.5,0.1c1.1,0.6,2.2,0.9,3.6,0.9
		c2.4,0,3.7-1.2,3.7-3.6V105c-1,1.3-2.2,2.1-4.1,2.1c-2.7,0-5.3-2-5.3-5.4l0,0c0-3.4,2.6-5.5,5.3-5.5c2,0,3.2,0.9,4.1,2v-0.6
		c0-0.7,0.6-1.3,1.3-1.3s1.3,0.6,1.3,1.3v8c0,2-0.5,3.4-1.5,4.4c-1.1,1.1-2.7,1.6-4.8,1.6C171.4,111.8,169.9,111.4,168.5,110.7z
		 M176.6,101.8L176.6,101.8c0-1.9-1.6-3.2-3.4-3.2s-3.3,1.3-3.3,3.2l0,0c0,1.9,1.5,3.2,3.3,3.2C175.1,105,176.6,103.7,176.6,101.8z"
		/>
	<path class="st0" d="M185.2,103.4c-0.5,0-0.9-0.4-0.9-0.9l-0.2-1.9c-0.1-0.6,0.3-1,0.9-1.1c2.1-0.2,3.2-1,3.2-2.4l0,0
		c0-1.2-0.9-2.1-2.5-2.1c-1.2,0-2.1,0.4-3,1.2c-0.2,0.2-0.5,0.3-0.8,0.3c-0.7,0-1.2-0.6-1.2-1.2c0-0.3,0.1-0.7,0.4-0.9
		c1.2-1.1,2.6-1.8,4.7-1.8c3.1,0,5.2,1.7,5.2,4.5l0,0c0,2.8-2,4-4.4,4.4l-0.1,1c-0.1,0.5-0.4,0.9-0.9,0.9H185.2z M185.2,105.1
		c0.9,0,1.6,0.7,1.6,1.5v0.2c0,0.9-0.7,1.5-1.6,1.5s-1.6-0.7-1.6-1.5v-0.2C183.7,105.7,184.3,105.1,185.2,105.1z"/>
</g>
</svg>
