<?xml version="1.0" encoding="utf-8"?>
<!-- Generator: Adobe Illustrator 21.1.0, SVG Export Plug-In . SVG Version: 6.00 Build 0)  -->
<svg version="1.1" id="Layer_1" xmlns="http://www.w3.org/2000/svg" xmlns:xlink="http://www.w3.org/1999/xlink" x="0px" y="0px"
	 viewBox="0 0 300 50" style="enable-background:new 0 0 300 50;" xml:space="preserve">
<style type="text/css">
	.st0{fill:#FFFFFF;}
</style>
<g>
	<path class="st0" d="M32.8,18.4c0-0.4,0.3-0.7,0.7-0.7h7.8c0.4,0,0.6,0.3,0.6,0.6s-0.3,0.7-0.6,0.7h-7.1v4.5h6.3
		c0.4,0,0.6,0.3,0.6,0.6c0,0.4-0.3,0.6-0.6,0.6h-6.3v4.9c0,0.4-0.3,0.7-0.7,0.7c-0.4,0-0.7-0.3-0.7-0.7V18.4z"/>
	<path class="st0" d="M43.3,18c0-0.5,0.4-0.7,0.8-0.7c0.5,0,0.8,0.3,0.8,0.7v0.2c0,0.4-0.4,0.7-0.8,0.7c-0.5,0-0.8-0.3-0.8-0.7V18z
		 M43.4,21.5c0-0.4,0.3-0.7,0.7-0.7c0.4,0,0.7,0.3,0.7,0.7v8.1c0,0.4-0.3,0.7-0.7,0.7c-0.4,0-0.7-0.3-0.7-0.7V21.5z"/>
	<path class="st0" d="M47,21.5c0-0.4,0.3-0.7,0.7-0.7c0.4,0,0.7,0.3,0.7,0.7v1c0.6-1,1.6-1.8,3.2-1.8c2.3,0,3.6,1.5,3.6,3.7v5.2
		c0,0.4-0.3,0.7-0.7,0.7c-0.4,0-0.7-0.3-0.7-0.7v-4.8c0-1.7-0.9-2.8-2.6-2.8c-1.6,0-2.8,1.2-2.8,2.9v4.7c0,0.4-0.3,0.7-0.7,0.7
		c-0.4,0-0.7-0.3-0.7-0.7V21.5z"/>
	<path class="st0" d="M65.8,29.6c0,0.4-0.3,0.7-0.7,0.7c-0.4,0-0.7-0.3-0.7-0.7v-1.3c-0.8,1.1-1.9,2.1-3.6,2.1
		c-2.2,0-4.4-1.8-4.4-4.8v0c0-3,2.2-4.8,4.4-4.8c1.7,0,2.8,0.9,3.6,2v-5c0-0.4,0.3-0.7,0.7-0.7c0.4,0,0.7,0.3,0.7,0.7V29.6z
		 M57.8,25.6L57.8,25.6c0,2.2,1.5,3.6,3.3,3.6c1.7,0,3.4-1.5,3.4-3.6v0c0-2.1-1.6-3.6-3.4-3.6C59.3,22,57.8,23.3,57.8,25.6z"/>
	<path class="st0" d="M71.6,25.6L71.6,25.6c0-2.7,2.1-4.9,4.9-4.9c2.8,0,4.8,2.2,4.8,4.8v0c0,2.6-2.1,4.9-4.9,4.9
		C73.6,30.5,71.6,28.3,71.6,25.6z M79.9,25.6L79.9,25.6c0-2-1.5-3.7-3.5-3.7c-2,0-3.4,1.6-3.4,3.6v0c0,2,1.5,3.6,3.4,3.6
		C78.5,29.2,79.9,27.6,79.9,25.6z"/>
	<path class="st0" d="M90.7,29.6c0,0.4-0.3,0.7-0.7,0.7c-0.4,0-0.7-0.3-0.7-0.7v-1c-0.6,1-1.6,1.8-3.2,1.8c-2.3,0-3.6-1.5-3.6-3.7
		v-5.2c0-0.4,0.3-0.7,0.7-0.7c0.4,0,0.7,0.3,0.7,0.7v4.8c0,1.7,0.9,2.8,2.6,2.8c1.6,0,2.8-1.2,2.8-2.9v-4.7c0-0.4,0.3-0.7,0.7-0.7
		c0.4,0,0.7,0.3,0.7,0.7V29.6z"/>
	<path class="st0" d="M93.2,27.8v-5.6h-0.8c-0.3,0-0.6-0.3-0.6-0.6c0-0.3,0.3-0.6,0.6-0.6h0.8v-2.2c0-0.4,0.3-0.7,0.7-0.7
		c0.4,0,0.7,0.3,0.7,0.7v2.2H97c0.3,0,0.6,0.3,0.6,0.6c0,0.3-0.3,0.6-0.6,0.6h-2.4v5.4c0,1.1,0.6,1.5,1.6,1.5c0.5,0,0.7-0.1,0.8-0.1
		c0.3,0,0.6,0.3,0.6,0.6c0,0.3-0.2,0.5-0.4,0.5c-0.4,0.2-0.8,0.3-1.4,0.3C94.3,30.4,93.2,29.7,93.2,27.8z"/>
	<path class="st0" d="M105.5,29.7l-2.8-7.9c0-0.1-0.1-0.3-0.1-0.4c0-0.3,0.3-0.7,0.7-0.7c0.4,0,0.6,0.2,0.7,0.6l2.3,7l2.4-7
		c0.1-0.3,0.3-0.6,0.7-0.6h0.1c0.4,0,0.6,0.2,0.7,0.6l2.3,7l2.4-7c0.1-0.3,0.3-0.5,0.7-0.5c0.4,0,0.7,0.3,0.7,0.6
		c0,0.1-0.1,0.3-0.1,0.4l-2.8,7.9c-0.1,0.4-0.4,0.6-0.8,0.6h-0.1c-0.4,0-0.6-0.2-0.8-0.6l-2.3-6.8l-2.3,6.8
		c-0.1,0.4-0.4,0.6-0.8,0.6h0C105.9,30.4,105.6,30.2,105.5,29.7z"/>
	<path class="st0" d="M117.6,17.7c0-0.4,0.3-0.7,0.7-0.7c0.4,0,0.7,0.3,0.7,0.7v4.8c0.6-1,1.6-1.8,3.2-1.8c2.3,0,3.6,1.5,3.6,3.7
		v5.2c0,0.4-0.3,0.7-0.7,0.7c-0.4,0-0.7-0.3-0.7-0.7v-4.8c0-1.7-0.9-2.8-2.6-2.8c-1.6,0-2.8,1.2-2.8,2.9v4.7c0,0.4-0.3,0.7-0.7,0.7
		c-0.4,0-0.7-0.3-0.7-0.7V17.7z"/>
	<path class="st0" d="M131.7,30.5c-2.6,0-4.6-2-4.6-4.8v0c0-2.7,1.9-4.8,4.5-4.8c2.8,0,4.3,2.3,4.3,4.7c0,0.4-0.3,0.6-0.6,0.6h-6.7
		c0.2,2,1.6,3.2,3.3,3.2c1.2,0,2-0.5,2.7-1.1c0.1-0.1,0.2-0.2,0.4-0.2c0.3,0,0.6,0.3,0.6,0.6c0,0.2-0.1,0.3-0.2,0.5
		C134.3,29.9,133.3,30.5,131.7,30.5z M134.4,25.1c-0.1-1.7-1.1-3.2-3-3.2c-1.6,0-2.8,1.4-3,3.2H134.4z"/>
	<path class="st0" d="M137.2,21.5c0-0.4,0.3-0.7,0.7-0.7c0.4,0,0.7,0.3,0.7,0.7v1c0.6-1,1.6-1.8,3.2-1.8c2.3,0,3.6,1.5,3.6,3.7v5.2
		c0,0.4-0.3,0.7-0.7,0.7c-0.4,0-0.7-0.3-0.7-0.7v-4.8c0-1.7-0.9-2.8-2.6-2.8c-1.6,0-2.8,1.2-2.8,2.9v4.7c0,0.4-0.3,0.7-0.7,0.7
		c-0.4,0-0.7-0.3-0.7-0.7V21.5z"/>
	<path class="st0" d="M151.3,32.9c-0.2-0.1-0.4-0.3-0.4-0.6c0-0.3,0.3-0.6,0.6-0.6c0.1,0,0.2,0,0.3,0.1c0.3,0.1,0.5,0.2,1,0.2
		c0.9,0,1.4-0.5,1.9-1.7l0.1-0.1l-3.9-8.2c-0.1-0.1-0.1-0.3-0.1-0.4c0-0.4,0.3-0.7,0.7-0.7c0.4,0,0.6,0.2,0.7,0.5l3.2,7.3l2.9-7.3
		c0.1-0.3,0.3-0.5,0.7-0.5c0.4,0,0.7,0.3,0.7,0.7c0,0.1,0,0.2-0.1,0.3l-3.6,8.7c-0.8,1.9-1.7,2.6-3.1,2.6
		C152.2,33.2,151.8,33.1,151.3,32.9z"/>
	<path class="st0" d="M159.9,25.6L159.9,25.6c0-2.7,2.1-4.9,4.9-4.9c2.8,0,4.8,2.2,4.8,4.8v0c0,2.6-2.1,4.9-4.9,4.9
		C162,30.5,159.9,28.3,159.9,25.6z M168.2,25.6L168.2,25.6c0-2-1.5-3.7-3.5-3.7c-2,0-3.4,1.6-3.4,3.6v0c0,2,1.5,3.6,3.4,3.6
		C166.8,29.2,168.2,27.6,168.2,25.6z"/>
	<path class="st0" d="M179,29.6c0,0.4-0.3,0.7-0.7,0.7c-0.4,0-0.7-0.3-0.7-0.7v-1c-0.6,1-1.6,1.8-3.2,1.8c-2.3,0-3.6-1.5-3.6-3.7
		v-5.2c0-0.4,0.3-0.7,0.7-0.7c0.4,0,0.7,0.3,0.7,0.7v4.8c0,1.7,0.9,2.8,2.6,2.8c1.6,0,2.8-1.2,2.8-2.9v-4.7c0-0.4,0.3-0.7,0.7-0.7
		c0.4,0,0.7,0.3,0.7,0.7V29.6z"/>
	<path class="st0" d="M184.8,25.6L184.8,25.6c0-2.7,2.1-4.9,4.8-4.9c1.5,0,2.6,0.6,3.4,1.4c0.1,0.1,0.2,0.3,0.2,0.5
		c0,0.4-0.3,0.7-0.7,0.7c-0.2,0-0.3-0.1-0.5-0.2c-0.7-0.6-1.4-1.1-2.5-1.1c-1.9,0-3.3,1.6-3.3,3.6v0c0,2,1.5,3.6,3.4,3.6
		c1.1,0,1.9-0.5,2.6-1.1c0.1-0.1,0.2-0.2,0.4-0.2c0.3,0,0.6,0.3,0.6,0.6c0,0.2-0.1,0.3-0.2,0.4c-0.9,0.9-1.9,1.5-3.5,1.5
		C186.9,30.5,184.8,28.2,184.8,25.6z"/>
	<path class="st0" d="M193.9,27.5L193.9,27.5c0-2,1.6-3,4-3c1.2,0,2,0.2,2.9,0.4v-0.3c0-1.7-1-2.5-2.8-2.5c-0.9,0-1.7,0.2-2.4,0.5
		c-0.1,0-0.2,0.1-0.3,0.1c-0.3,0-0.6-0.3-0.6-0.6c0-0.3,0.2-0.5,0.4-0.6c0.9-0.4,1.9-0.6,3-0.6c1.3,0,2.3,0.3,3,1
		c0.6,0.6,1,1.5,1,2.7v5.1c0,0.4-0.3,0.7-0.7,0.7c-0.4,0-0.7-0.3-0.7-0.6v-0.8c-0.6,0.8-1.7,1.6-3.4,1.6
		C195.6,30.4,193.9,29.4,193.9,27.5z M200.7,26.8v-0.9c-0.7-0.2-1.6-0.4-2.7-0.4c-1.7,0-2.7,0.8-2.7,1.9v0c0,1.2,1.1,1.9,2.3,1.9
		C199.3,29.3,200.7,28.3,200.7,26.8z"/>
	<path class="st0" d="M203.9,21.5c0-0.4,0.3-0.7,0.7-0.7c0.4,0,0.7,0.3,0.7,0.7v1c0.6-1,1.6-1.8,3.2-1.8c2.3,0,3.6,1.5,3.6,3.7v5.2
		c0,0.4-0.3,0.7-0.7,0.7c-0.4,0-0.7-0.3-0.7-0.7v-4.8c0-1.7-0.9-2.8-2.6-2.8c-1.6,0-2.8,1.2-2.8,2.9v4.7c0,0.4-0.3,0.7-0.7,0.7
		c-0.4,0-0.7-0.3-0.7-0.7V21.5z"/>
	<path class="st0" d="M217.7,29.2c-0.1-0.1-0.3-0.3-0.3-0.5c0-0.3,0.3-0.6,0.6-0.6c0.1,0,0.3,0,0.3,0.1c1,0.6,1.9,1,3,1
		c1.1,0,1.9-0.6,1.9-1.5v0c0-0.9-1.1-1.3-2.3-1.6c-1.5-0.4-3.1-0.9-3.1-2.6v0c0-1.6,1.3-2.7,3.2-2.7c1,0,2.1,0.3,3,0.8
		c0.2,0.1,0.3,0.3,0.3,0.6c0,0.3-0.3,0.6-0.6,0.6c-0.1,0-0.2,0-0.3-0.1c-0.8-0.5-1.6-0.7-2.4-0.7c-1.1,0-1.8,0.6-1.8,1.4v0
		c0,0.9,1.2,1.2,2.4,1.6c1.4,0.4,3,1,3,2.7v0c0,1.8-1.5,2.8-3.3,2.8C220.1,30.4,218.7,30,217.7,29.2z"/>
	<path class="st0" d="M228.2,29.7l-2.8-7.9c0-0.1-0.1-0.3-0.1-0.4c0-0.3,0.3-0.7,0.7-0.7c0.4,0,0.6,0.2,0.7,0.6l2.3,7l2.4-7
		c0.1-0.3,0.3-0.6,0.7-0.6h0.1c0.4,0,0.6,0.2,0.7,0.6l2.3,7l2.4-7c0.1-0.3,0.3-0.5,0.7-0.5c0.4,0,0.7,0.3,0.7,0.6
		c0,0.1-0.1,0.3-0.1,0.4l-2.8,7.9c-0.1,0.4-0.4,0.6-0.8,0.6h-0.1c-0.4,0-0.6-0.2-0.8-0.6l-2.3-6.8l-2.3,6.8
		c-0.1,0.4-0.4,0.6-0.8,0.6h0C228.6,30.4,228.3,30.2,228.2,29.7z"/>
	<path class="st0" d="M240.3,18c0-0.5,0.4-0.7,0.8-0.7c0.5,0,0.8,0.3,0.8,0.7v0.2c0,0.4-0.4,0.7-0.8,0.7c-0.5,0-0.8-0.3-0.8-0.7V18z
		 M240.4,21.5c0-0.4,0.3-0.7,0.7-0.7c0.4,0,0.7,0.3,0.7,0.7v8.1c0,0.4-0.3,0.7-0.7,0.7c-0.4,0-0.7-0.3-0.7-0.7V21.5z"/>
	<path class="st0" d="M244.4,27.8v-5.6h-0.8c-0.3,0-0.6-0.3-0.6-0.6c0-0.3,0.3-0.6,0.6-0.6h0.8v-2.2c0-0.4,0.3-0.7,0.7-0.7
		c0.4,0,0.7,0.3,0.7,0.7v2.2h2.4c0.3,0,0.6,0.3,0.6,0.6c0,0.3-0.3,0.6-0.6,0.6h-2.4v5.4c0,1.1,0.6,1.5,1.6,1.5
		c0.5,0,0.7-0.1,0.8-0.1c0.3,0,0.6,0.3,0.6,0.6c0,0.3-0.2,0.5-0.4,0.5c-0.4,0.2-0.8,0.3-1.4,0.3C245.6,30.4,244.4,29.7,244.4,27.8z"
		/>
	<path class="st0" d="M249.3,25.6L249.3,25.6c0-2.7,2.1-4.9,4.8-4.9c1.5,0,2.6,0.6,3.4,1.4c0.1,0.1,0.2,0.3,0.2,0.5
		c0,0.4-0.3,0.7-0.7,0.7c-0.2,0-0.3-0.1-0.5-0.2c-0.7-0.6-1.4-1.1-2.5-1.1c-1.9,0-3.3,1.6-3.3,3.6v0c0,2,1.5,3.6,3.4,3.6
		c1.1,0,1.9-0.5,2.6-1.1c0.1-0.1,0.2-0.2,0.4-0.2c0.3,0,0.6,0.3,0.6,0.6c0,0.2-0.1,0.3-0.2,0.4c-0.9,0.9-1.9,1.5-3.5,1.5
		C251.3,30.5,249.3,28.2,249.3,25.6z"/>
	<path class="st0" d="M259.1,17.7c0-0.4,0.3-0.7,0.7-0.7c0.4,0,0.7,0.3,0.7,0.7v4.8c0.6-1,1.6-1.8,3.2-1.8c2.2,0,3.6,1.5,3.6,3.7
		v5.2c0,0.4-0.3,0.7-0.7,0.7c-0.4,0-0.7-0.3-0.7-0.7v-4.8c0-1.7-0.9-2.8-2.6-2.8c-1.6,0-2.8,1.2-2.8,2.9v4.7c0,0.4-0.3,0.7-0.7,0.7
		c-0.4,0-0.7-0.3-0.7-0.7V17.7z"/>
</g>
</svg>
