<?xml version="1.0" encoding="utf-8"?>
<!-- Generator: Adobe Illustrator 21.1.0, SVG Export Plug-In . SVG Version: 6.00 Build 0)  -->
<svg version="1.1" id="Layer_2" xmlns="http://www.w3.org/2000/svg" xmlns:xlink="http://www.w3.org/1999/xlink" x="0px" y="0px"
	 viewBox="0 0 300 50" style="enable-background:new 0 0 300 50;" xml:space="preserve">
<style type="text/css">
	.st0{fill:#133C7D;}
</style>
<g>
	<path class="st0" d="M76.7,15.4L76.7,15.4c0-3.6,2.7-6.6,6.5-6.6c1.9,0,3.2,0.6,4.3,1.4c0.2,0.2,0.4,0.5,0.4,0.9
		c0,0.6-0.5,1.1-1.1,1.1c-0.3,0-0.5-0.1-0.7-0.2c-0.9-0.7-1.8-1.1-3-1.1c-2.4,0-4.2,2-4.2,4.4v0c0,2.5,1.7,4.5,4.2,4.5
		c1.3,0,2.2-0.4,3.2-1.2c0.2-0.1,0.4-0.3,0.7-0.3c0.6,0,1,0.5,1,1c0,0.3-0.2,0.6-0.4,0.8c-1.2,1-2.5,1.7-4.6,1.7
		C79.5,21.9,76.7,19,76.7,15.4z"/>
	<path class="st0" d="M89.6,9.5c0-0.6,0.5-1.1,1.1-1.1s1.1,0.5,1.1,1.1v11.2c0,0.6-0.5,1.1-1.1,1.1c-0.6,0-1.1-0.5-1.1-1.1V9.5z"/>
	<path class="st0" d="M93.3,17L93.3,17c0-2.8,2.2-5,5.1-5s5.1,2.2,5.1,4.9v0c0,2.7-2.2,5-5.1,5C95.4,21.9,93.3,19.7,93.3,17z
		 M101.2,17L101.2,17c0-1.7-1.2-3.1-2.9-3.1c-1.7,0-2.9,1.4-2.9,3v0c0,1.7,1.2,3,2.9,3C100.1,20,101.2,18.6,101.2,17z"/>
	<path class="st0" d="M113.2,20.7c0,0.6-0.5,1.1-1.1,1.1c-0.6,0-1.1-0.5-1.1-1.1v-0.5c-0.6,0.9-1.5,1.7-3,1.7
		c-2.1,0-3.4-1.4-3.4-3.7v-5.1c0-0.6,0.5-1.1,1.1-1.1c0.6,0,1.1,0.5,1.1,1.1v4.4c0,1.5,0.7,2.3,2,2.3c1.3,0,2.1-0.9,2.1-2.3v-4.4
		c0-0.6,0.5-1.1,1.1-1.1c0.6,0,1.1,0.5,1.1,1.1V20.7z"/>
	<path class="st0" d="M124.4,20.7c0,0.6-0.5,1.1-1.1,1.1c-0.6,0-1.1-0.5-1.1-1.1v-0.6c-0.7,1-1.7,1.8-3.2,1.8
		c-2.2,0-4.4-1.8-4.4-4.9v0c0-3.2,2.1-4.9,4.4-4.9c1.6,0,2.6,0.8,3.2,1.7V9.5c0-0.6,0.5-1.1,1.1-1.1c0.6,0,1.1,0.5,1.1,1.1V20.7z
		 M116.8,16.9L116.8,16.9c0,1.9,1.3,3.1,2.7,3.1c1.5,0,2.8-1.2,2.8-3v0c0-1.8-1.3-3-2.8-3C118,13.9,116.8,15,116.8,16.9z"/>
	<path class="st0" d="M125.9,16.2c0-0.6,0.5-1.1,1.1-1.1h3.4c0.6,0,1.1,0.5,1.1,1.1c0,0.6-0.5,1.1-1.1,1.1h-3.4
		C126.3,17.2,125.9,16.7,125.9,16.2z"/>
	<path class="st0" d="M132.3,17L132.3,17c0-2.7,2.1-5,5-5c1.5,0,2.5,0.5,3.3,1.2c0.1,0.1,0.3,0.4,0.3,0.8c0,0.6-0.5,1-1,1
		c-0.3,0-0.5-0.1-0.6-0.2c-0.6-0.5-1.2-0.8-2-0.8c-1.6,0-2.8,1.4-2.8,3v0c0,1.7,1.2,3,2.8,3c0.9,0,1.5-0.3,2.1-0.8
		c0.1-0.1,0.3-0.2,0.6-0.2c0.5,0,0.9,0.4,0.9,1c0,0.3-0.1,0.5-0.3,0.7c-0.8,0.8-1.9,1.4-3.5,1.4C134.4,21.9,132.3,19.7,132.3,17z"/>
	<path class="st0" d="M141.4,17L141.4,17c0-2.8,2.2-5,5.1-5s5.1,2.2,5.1,4.9v0c0,2.7-2.2,5-5.1,5C143.6,21.9,141.4,19.7,141.4,17z
		 M149.4,17L149.4,17c0-1.7-1.2-3.1-2.9-3.1c-1.7,0-2.9,1.4-2.9,3v0c0,1.7,1.2,3,2.9,3C148.3,20,149.4,18.6,149.4,17z"/>
	<path class="st0" d="M152.9,13.1c0-0.6,0.5-1.1,1.1-1.1s1.1,0.5,1.1,1.1v0.5c0.6-0.8,1.4-1.6,2.9-1.6c1.4,0,2.3,0.7,2.8,1.7
		c0.8-1,1.8-1.7,3.2-1.7c2.1,0,3.3,1.3,3.3,3.6v5.1c0,0.6-0.5,1.1-1.1,1.1s-1.1-0.5-1.1-1.1v-4.4c0-1.5-0.7-2.3-1.9-2.3
		c-1.2,0-2,0.8-2,2.4v4.4c0,0.6-0.5,1.1-1.1,1.1c-0.6,0-1.1-0.5-1.1-1.1v-4.4c0-1.5-0.7-2.3-1.9-2.3s-2,0.9-2,2.4v4.4
		c0,0.6-0.5,1.1-1.1,1.1c-0.6,0-1.1-0.5-1.1-1.1V13.1z"/>
	<path class="st0" d="M169.2,13.1c0-0.6,0.5-1.1,1.1-1.1c0.6,0,1.1,0.5,1.1,1.1v0.6c0.7-1,1.7-1.8,3.2-1.8c2.2,0,4.4,1.8,4.4,4.9v0
		c0,3.2-2.2,4.9-4.4,4.9c-1.6,0-2.6-0.8-3.2-1.7v3.4c0,0.6-0.5,1.1-1.1,1.1c-0.6,0-1.1-0.5-1.1-1.1V13.1z M176.8,16.9L176.8,16.9
		c0-1.9-1.2-3.1-2.7-3.1s-2.8,1.2-2.8,3v0c0,1.8,1.3,3,2.8,3C175.6,20,176.8,18.8,176.8,16.9z"/>
	<path class="st0" d="M188.9,20.7c0,0.6-0.5,1.1-1.1,1.1c-0.6,0-1.1-0.5-1.1-1.1v-0.5c-0.6,0.9-1.5,1.7-3,1.7
		c-2.1,0-3.4-1.4-3.4-3.7v-5.1c0-0.6,0.5-1.1,1.1-1.1c0.6,0,1.1,0.5,1.1,1.1v4.4c0,1.5,0.7,2.3,2,2.3c1.3,0,2.1-0.9,2.1-2.3v-4.4
		c0-0.6,0.5-1.1,1.1-1.1c0.6,0,1.1,0.5,1.1,1.1V20.7z"/>
	<path class="st0" d="M191.2,19v-5h-0.4c-0.5,0-0.9-0.4-0.9-0.9c0-0.5,0.4-0.9,0.9-0.9h0.4v-1.6c0-0.6,0.5-1.1,1.1-1.1
		c0.6,0,1.1,0.5,1.1,1.1v1.6h1.7c0.5,0,1,0.4,1,0.9c0,0.5-0.4,0.9-1,0.9h-1.7v4.7c0,0.8,0.4,1.2,1.2,1.2c0.3,0,0.5-0.1,0.5-0.1
		c0.5,0,0.9,0.4,0.9,0.9c0,0.4-0.3,0.7-0.6,0.8c-0.5,0.2-0.9,0.3-1.5,0.3C192.3,21.8,191.2,21.1,191.2,19z"/>
	<path class="st0" d="M197.3,9.6c0-0.6,0.5-1.1,1.2-1.1c0.7,0,1.2,0.4,1.2,1.1v0.1c0,0.6-0.5,1.1-1.2,1.1c-0.7,0-1.2-0.4-1.2-1.1
		V9.6z M197.4,13.1c0-0.6,0.5-1.1,1.1-1.1c0.6,0,1.1,0.5,1.1,1.1v7.5c0,0.6-0.5,1.1-1.1,1.1c-0.6,0-1.1-0.5-1.1-1.1V13.1z"/>
	<path class="st0" d="M201.6,13.1c0-0.6,0.5-1.1,1.1-1.1c0.6,0,1.1,0.5,1.1,1.1v0.5c0.6-0.9,1.5-1.7,3-1.7c2.1,0,3.4,1.4,3.4,3.6
		v5.1c0,0.6-0.5,1.1-1.1,1.1s-1.1-0.5-1.1-1.1v-4.4c0-1.5-0.7-2.3-2-2.3c-1.3,0-2.1,0.9-2.1,2.4v4.4c0,0.6-0.5,1.1-1.1,1.1
		c-0.6,0-1.1-0.5-1.1-1.1V13.1z"/>
	<path class="st0" d="M212.5,23.7c-0.4-0.1-0.6-0.5-0.6-0.9c0-0.5,0.4-0.9,0.9-0.9c0.2,0,0.3,0,0.4,0.1c0.9,0.5,1.8,0.8,2.9,0.8
		c1.9,0,3-1,3-2.9v-0.7c-0.8,1-1.8,1.7-3.3,1.7c-2.2,0-4.3-1.7-4.3-4.4v0c0-2.8,2.1-4.5,4.3-4.5c1.6,0,2.6,0.7,3.3,1.6v-0.5
		c0-0.6,0.5-1.1,1.1-1.1c0.6,0,1.1,0.5,1.1,1.1v6.6c0,1.6-0.4,2.8-1.2,3.6c-0.9,0.9-2.2,1.3-3.9,1.3
		C214.8,24.6,213.6,24.3,212.5,23.7z M219.1,16.4L219.1,16.4c0-1.6-1.3-2.6-2.8-2.6c-1.5,0-2.7,1-2.7,2.6v0c0,1.5,1.2,2.6,2.7,2.6
		C217.8,19.1,219.1,18,219.1,16.4z"/>
	<path class="st0" d="M76.5,37L76.5,37c0-2.8,2.2-5,5.1-5s5.1,2.2,5.1,4.9v0c0,2.7-2.2,5-5.1,5C78.7,41.9,76.5,39.7,76.5,37z
		 M84.5,37L84.5,37c0-1.7-1.2-3.1-2.9-3.1c-1.7,0-2.9,1.4-2.9,3v0c0,1.7,1.2,3,2.9,3C83.4,40,84.5,38.6,84.5,37z"/>
	<path class="st0" d="M88,33.1c0-0.6,0.5-1.1,1.1-1.1s1.1,0.5,1.1,1.1v1c0.5-1.2,1.4-2.1,2.4-2.1c0.7,0,1.1,0.5,1.1,1.1
		c0,0.6-0.4,1-0.9,1c-1.5,0.3-2.6,1.5-2.6,3.7v2.8c0,0.6-0.5,1.1-1.1,1.1c-0.6,0-1.1-0.5-1.1-1.1V33.1z"/>
	<path class="st0" d="M99.2,29.5c0-0.6,0.5-1.1,1.1-1.1s1.1,0.5,1.1,1.1v4.2c0.7-1,1.7-1.8,3.2-1.8c2.2,0,4.4,1.8,4.4,4.9v0
		c0,3.2-2.2,4.9-4.4,4.9c-1.6,0-2.6-0.8-3.2-1.7v0.5c0,0.6-0.5,1.1-1.1,1.1c-0.6,0-1.1-0.5-1.1-1.1V29.5z M106.8,36.9L106.8,36.9
		c0-1.9-1.2-3.1-2.7-3.1c-1.5,0-2.8,1.2-2.8,3v0c0,1.8,1.3,3,2.8,3C105.5,40,106.8,38.8,106.8,36.9z"/>
	<path class="st0" d="M109.8,38.9L109.8,38.9c0-2.1,1.6-3.1,3.9-3.1c1.1,0,1.8,0.2,2.6,0.4V36c0-1.4-0.8-2.1-2.4-2.1
		c-0.8,0-1.5,0.1-2.1,0.4c-0.1,0-0.2,0.1-0.3,0.1c-0.5,0-0.9-0.4-0.9-0.9c0-0.4,0.3-0.7,0.6-0.9c0.9-0.3,1.8-0.6,3.1-0.6
		c1.4,0,2.5,0.4,3.2,1.1c0.7,0.7,1,1.7,1,2.9v4.7c0,0.6-0.5,1-1.1,1c-0.6,0-1.1-0.4-1.1-0.9v-0.4c-0.6,0.8-1.6,1.4-3.1,1.4
		C111.3,41.9,109.8,40.8,109.8,38.9z M116.3,38.2v-0.6c-0.6-0.2-1.3-0.4-2.2-0.4c-1.4,0-2.2,0.6-2.2,1.6v0c0,0.9,0.8,1.4,1.9,1.4
		C115.2,40.3,116.3,39.5,116.3,38.2z"/>
	<path class="st0" d="M119.7,40.7c-0.2-0.1-0.4-0.4-0.4-0.8c0-0.5,0.4-0.9,0.9-0.9c0.2,0,0.3,0.1,0.5,0.1c0.9,0.6,1.9,0.9,2.7,0.9
		c0.9,0,1.5-0.4,1.5-1v0c0-0.7-1-1-2.1-1.3c-1.4-0.4-3-1-3-2.8v0c0-1.8,1.5-2.9,3.4-2.9c1,0,2.1,0.3,3,0.8c0.3,0.2,0.5,0.5,0.5,0.8
		c0,0.5-0.4,0.9-0.9,0.9c-0.2,0-0.3,0-0.4-0.1c-0.8-0.4-1.6-0.6-2.2-0.6c-0.8,0-1.3,0.4-1.3,0.9v0c0,0.7,1,1,2.1,1.4
		c1.4,0.4,3,1.1,3,2.8v0c0,2-1.5,3-3.5,3C122.2,41.8,120.8,41.5,119.7,40.7z"/>
	<path class="st0" d="M128.2,29.6c0-0.6,0.5-1.1,1.2-1.1s1.2,0.4,1.2,1.1v0.1c0,0.6-0.5,1.1-1.2,1.1s-1.2-0.4-1.2-1.1V29.6z
		 M128.4,33.1c0-0.6,0.5-1.1,1.1-1.1s1.1,0.5,1.1,1.1v7.5c0,0.6-0.5,1.1-1.1,1.1c-0.6,0-1.1-0.5-1.1-1.1V33.1z"/>
	<path class="st0" d="M132.1,37L132.1,37c0-2.7,2.1-5,5-5c1.5,0,2.5,0.5,3.3,1.2c0.1,0.1,0.3,0.4,0.3,0.8c0,0.6-0.5,1-1,1
		c-0.3,0-0.5-0.1-0.6-0.2c-0.6-0.5-1.2-0.8-2-0.8c-1.6,0-2.8,1.4-2.8,3v0c0,1.7,1.2,3,2.8,3c0.9,0,1.5-0.3,2.1-0.8
		c0.1-0.1,0.3-0.2,0.6-0.2c0.5,0,0.9,0.4,0.9,1c0,0.3-0.1,0.5-0.3,0.7c-0.8,0.8-1.9,1.4-3.5,1.4C134.1,41.9,132.1,39.7,132.1,37z"/>
	<path class="st0" d="M150.9,41.9c-2.8,0-4.9-2-4.9-4.9v0c0-2.7,1.9-5,4.6-5c3,0,4.5,2.5,4.5,4.7c0,0.6-0.5,1-1,1h-6
		c0.2,1.5,1.3,2.4,2.7,2.4c0.9,0,1.6-0.3,2.2-0.8c0.2-0.1,0.3-0.2,0.6-0.2c0.5,0,0.9,0.4,0.9,0.9c0,0.3-0.1,0.5-0.3,0.7
		C153.5,41.4,152.4,41.9,150.9,41.9z M153.1,36.2c-0.1-1.4-1-2.5-2.4-2.5c-1.3,0-2.3,1-2.5,2.5H153.1z"/>
	<path class="st0" d="M156.6,33.1c0-0.6,0.5-1.1,1.1-1.1s1.1,0.5,1.1,1.1v0.5c0.6-0.8,1.4-1.6,2.9-1.6c1.4,0,2.3,0.7,2.8,1.7
		c0.8-1,1.8-1.7,3.2-1.7c2.1,0,3.3,1.3,3.3,3.6v5.1c0,0.6-0.5,1.1-1.1,1.1s-1.1-0.5-1.1-1.1v-4.4c0-1.5-0.7-2.3-1.9-2.3
		c-1.2,0-2,0.8-2,2.4v4.4c0,0.6-0.5,1.1-1.1,1.1c-0.6,0-1.1-0.5-1.1-1.1v-4.4c0-1.5-0.7-2.3-1.9-2.3s-2,0.9-2,2.4v4.4
		c0,0.6-0.5,1.1-1.1,1.1c-0.6,0-1.1-0.5-1.1-1.1V33.1z"/>
	<path class="st0" d="M172.2,38.9L172.2,38.9c0-2.1,1.6-3.1,3.9-3.1c1.1,0,1.8,0.2,2.6,0.4V36c0-1.4-0.8-2.1-2.4-2.1
		c-0.8,0-1.5,0.1-2.1,0.4c-0.1,0-0.2,0.1-0.3,0.1c-0.5,0-0.9-0.4-0.9-0.9c0-0.4,0.3-0.7,0.6-0.9c0.9-0.3,1.8-0.6,3.1-0.6
		c1.4,0,2.5,0.4,3.2,1.1c0.7,0.7,1,1.7,1,2.9v4.7c0,0.6-0.5,1-1.1,1c-0.6,0-1.1-0.4-1.1-0.9v-0.4c-0.6,0.8-1.6,1.4-3.1,1.4
		C173.8,41.9,172.2,40.8,172.2,38.9z M178.7,38.2v-0.6c-0.6-0.2-1.3-0.4-2.2-0.4c-1.4,0-2.2,0.6-2.2,1.6v0c0,0.9,0.8,1.4,1.9,1.4
		C177.6,40.3,178.7,39.5,178.7,38.2z"/>
	<path class="st0" d="M182.5,29.6c0-0.6,0.5-1.1,1.2-1.1s1.2,0.4,1.2,1.1v0.1c0,0.6-0.5,1.1-1.2,1.1s-1.2-0.4-1.2-1.1V29.6z
		 M182.7,33.1c0-0.6,0.5-1.1,1.1-1.1c0.6,0,1.1,0.5,1.1,1.1v7.5c0,0.6-0.5,1.1-1.1,1.1c-0.6,0-1.1-0.5-1.1-1.1V33.1z"/>
	<path class="st0" d="M187,29.5c0-0.6,0.5-1.1,1.1-1.1c0.6,0,1.1,0.5,1.1,1.1v11.2c0,0.6-0.5,1.1-1.1,1.1c-0.6,0-1.1-0.5-1.1-1.1
		V29.5z"/>
	<path class="st0" d="M191.1,29.6c0-0.6,0.5-1.1,1.2-1.1s1.2,0.4,1.2,1.1v0.1c0,0.6-0.5,1.1-1.2,1.1s-1.2-0.4-1.2-1.1V29.6z
		 M191.3,33.1c0-0.6,0.5-1.1,1.1-1.1c0.6,0,1.1,0.5,1.1,1.1v7.5c0,0.6-0.5,1.1-1.1,1.1c-0.6,0-1.1-0.5-1.1-1.1V33.1z"/>
	<path class="st0" d="M195.5,33.1c0-0.6,0.5-1.1,1.1-1.1c0.6,0,1.1,0.5,1.1,1.1v0.5c0.6-0.9,1.5-1.7,3-1.7c2.1,0,3.4,1.4,3.4,3.6
		v5.1c0,0.6-0.5,1.1-1.1,1.1s-1.1-0.5-1.1-1.1v-4.4c0-1.5-0.7-2.3-2-2.3c-1.3,0-2.1,0.9-2.1,2.4v4.4c0,0.6-0.5,1.1-1.1,1.1
		c-0.6,0-1.1-0.5-1.1-1.1V33.1z"/>
	<path class="st0" d="M206.3,43.7c-0.4-0.1-0.6-0.5-0.6-0.9c0-0.5,0.4-0.9,0.9-0.9c0.2,0,0.3,0,0.4,0.1c0.9,0.5,1.8,0.8,2.9,0.8
		c1.9,0,3-1,3-2.9v-0.7c-0.8,1-1.8,1.7-3.3,1.7c-2.2,0-4.3-1.7-4.3-4.4v0c0-2.8,2.1-4.5,4.3-4.5c1.6,0,2.6,0.7,3.3,1.6v-0.5
		c0-0.6,0.5-1.1,1.1-1.1c0.6,0,1.1,0.5,1.1,1.1v6.6c0,1.6-0.4,2.8-1.2,3.6c-0.9,0.9-2.2,1.3-3.9,1.3
		C208.7,44.6,207.5,44.3,206.3,43.7z M213,36.4L213,36.4c0-1.6-1.3-2.6-2.8-2.6c-1.5,0-2.7,1-2.7,2.6v0c0,1.5,1.2,2.6,2.7,2.6
		C211.7,39.1,213,38,213,36.4z"/>
	<path class="st0" d="M220.1,37.8c-0.4,0-0.7-0.3-0.8-0.7l-0.2-1.5c-0.1-0.5,0.2-0.8,0.7-0.9c1.7-0.2,2.6-0.8,2.6-1.9v0
		c0-1-0.8-1.7-2.1-1.7c-1,0-1.7,0.3-2.4,1c-0.2,0.1-0.4,0.3-0.7,0.3c-0.6,0-1-0.5-1-1c0-0.3,0.1-0.6,0.4-0.8c1-0.9,2.2-1.5,3.8-1.5
		c2.5,0,4.2,1.4,4.2,3.7v0c0,2.3-1.6,3.3-3.6,3.6l-0.1,0.8c-0.1,0.4-0.4,0.7-0.8,0.7H220.1z M220.1,39.1c0.7,0,1.3,0.5,1.3,1.2v0.2
		c0,0.7-0.5,1.2-1.3,1.2s-1.3-0.5-1.3-1.2v-0.2C218.8,39.6,219.3,39.1,220.1,39.1z"/>
</g>
</svg>
