<?xml version="1.0" encoding="utf-8"?>
<!-- Generator: Adobe Illustrator 21.1.0, SVG Export Plug-In . SVG Version: 6.00 Build 0)  -->
<svg version="1.1" id="Layer_2" xmlns="http://www.w3.org/2000/svg" xmlns:xlink="http://www.w3.org/1999/xlink" x="0px" y="0px"
	 viewBox="0 0 300 50" style="enable-background:new 0 0 300 50;" xml:space="preserve">
<style type="text/css">
	.st0{fill:#133C7D;}
</style>
<g>
	<path class="st0" d="M74,14.7L74,14.7c0-3.6,2.7-6.6,6.5-6.6c1.9,0,3.2,0.6,4.3,1.4c0.2,0.2,0.4,0.5,0.4,0.9c0,0.6-0.5,1.1-1.1,1.1
		c-0.3,0-0.5-0.1-0.7-0.2c-0.9-0.7-1.8-1.1-3-1.1c-2.4,0-4.2,2-4.2,4.4v0c0,2.5,1.7,4.5,4.2,4.5c1.3,0,2.2-0.4,3.2-1.2
		c0.2-0.1,0.4-0.3,0.7-0.3c0.6,0,1,0.5,1,1c0,0.3-0.2,0.6-0.4,0.8c-1.2,1-2.5,1.7-4.6,1.7C76.8,21.2,74,18.4,74,14.7z"/>
	<path class="st0" d="M86.7,8.8c0-0.6,0.5-1.1,1.1-1.1s1.1,0.5,1.1,1.1V13c0.6-0.9,1.5-1.7,3-1.7c2.1,0,3.4,1.4,3.4,3.6V20
		c0,0.6-0.5,1.1-1.1,1.1c-0.6,0-1.1-0.5-1.1-1.1v-4.4c0-1.5-0.7-2.3-2-2.3c-1.3,0-2.1,0.9-2.1,2.4V20c0,0.6-0.5,1.1-1.1,1.1
		c-0.6,0-1.1-0.5-1.1-1.1V8.8z"/>
	<path class="st0" d="M96.5,16.3L96.5,16.3c0-2.8,2.2-5,5.1-5s5.1,2.2,5.1,4.9v0c0,2.7-2.2,5-5.1,5C98.6,21.2,96.5,19,96.5,16.3z
		 M104.4,16.3L104.4,16.3c0-1.7-1.2-3.1-2.9-3.1c-1.7,0-2.9,1.4-2.9,3v0c0,1.7,1.2,3,2.9,3C103.3,19.3,104.4,17.9,104.4,16.3z"/>
	<path class="st0" d="M107.4,16.3L107.4,16.3c0-2.8,2.2-5,5.1-5s5.1,2.2,5.1,4.9v0c0,2.7-2.2,5-5.1,5
		C109.5,21.2,107.4,19,107.4,16.3z M115.3,16.3L115.3,16.3c0-1.7-1.2-3.1-2.9-3.1c-1.7,0-2.9,1.4-2.9,3v0c0,1.7,1.2,3,2.9,3
		C114.2,19.3,115.3,17.9,115.3,16.3z"/>
	<path class="st0" d="M118.5,20c-0.2-0.1-0.4-0.4-0.4-0.8c0-0.5,0.4-0.9,0.9-0.9c0.2,0,0.3,0.1,0.5,0.1c0.9,0.6,1.9,0.9,2.7,0.9
		c0.9,0,1.5-0.4,1.5-1v0c0-0.7-1-1-2.1-1.3c-1.4-0.4-3-1-3-2.8v0c0-1.8,1.5-2.9,3.4-2.9c1,0,2.1,0.3,3,0.8c0.3,0.2,0.5,0.5,0.5,0.8
		c0,0.5-0.4,0.9-0.9,0.9c-0.2,0-0.3,0-0.4-0.1c-0.8-0.4-1.6-0.6-2.2-0.6c-0.8,0-1.3,0.4-1.3,0.9v0c0,0.7,1,1,2.1,1.4
		c1.4,0.4,3,1.1,3,2.8v0c0,2-1.5,3-3.5,3C120.9,21.2,119.6,20.8,118.5,20z"/>
	<path class="st0" d="M131.3,21.2c-2.8,0-4.9-2-4.9-4.9v0c0-2.7,1.9-5,4.6-5c3,0,4.5,2.5,4.5,4.7c0,0.6-0.5,1-1,1h-6
		c0.2,1.5,1.3,2.4,2.7,2.4c0.9,0,1.6-0.3,2.3-0.8c0.2-0.1,0.3-0.2,0.6-0.2c0.5,0,0.9,0.4,0.9,0.9c0,0.3-0.1,0.5-0.3,0.7
		C133.9,20.7,132.8,21.2,131.3,21.2z M133.5,15.6c-0.1-1.4-1-2.5-2.4-2.5c-1.3,0-2.3,1-2.5,2.5H133.5z"/>
	<path class="st0" d="M140.8,18.3L140.8,18.3c0-2.1,1.6-3.1,3.9-3.1c1.1,0,1.8,0.2,2.6,0.4v-0.2c0-1.4-0.8-2.1-2.4-2.1
		c-0.8,0-1.5,0.1-2.1,0.4c-0.1,0-0.2,0.1-0.3,0.1c-0.5,0-0.9-0.4-0.9-0.9c0-0.4,0.3-0.7,0.6-0.9c0.9-0.3,1.8-0.6,3.1-0.6
		c1.4,0,2.5,0.4,3.2,1.1c0.7,0.7,1,1.7,1,2.9V20c0,0.6-0.5,1-1.1,1c-0.6,0-1.1-0.4-1.1-0.9v-0.4c-0.6,0.8-1.6,1.4-3.1,1.4
		C142.4,21.2,140.8,20.2,140.8,18.3z M147.3,17.6v-0.6c-0.6-0.2-1.3-0.4-2.2-0.4c-1.4,0-2.2,0.6-2.2,1.6v0c0,0.9,0.8,1.4,1.9,1.4
		C146.2,19.6,147.3,18.8,147.3,17.6z"/>
	<path class="st0" d="M155.6,8.8c0-0.6,0.5-1.1,1.1-1.1s1.1,0.5,1.1,1.1v4.2c0.7-1,1.7-1.8,3.2-1.8c2.2,0,4.4,1.8,4.4,4.9v0
		c0,3.2-2.2,4.9-4.4,4.9c-1.6,0-2.6-0.8-3.2-1.7V20c0,0.6-0.5,1.1-1.1,1.1c-0.6,0-1.1-0.5-1.1-1.1V8.8z M163.2,16.3L163.2,16.3
		c0-1.9-1.2-3.1-2.7-3.1c-1.5,0-2.8,1.2-2.8,3v0c0,1.8,1.3,3,2.8,3C162,19.3,163.2,18.1,163.2,16.3z"/>
	<path class="st0" d="M175.2,20c0,0.6-0.5,1.1-1.1,1.1c-0.6,0-1.1-0.5-1.1-1.1v-0.5c-0.6,0.9-1.5,1.7-3,1.7c-2.1,0-3.4-1.4-3.4-3.7
		v-5.1c0-0.6,0.5-1.1,1.1-1.1c0.6,0,1.1,0.5,1.1,1.1v4.4c0,1.5,0.7,2.3,2,2.3c1.3,0,2.1-0.9,2.1-2.3v-4.4c0-0.6,0.5-1.1,1.1-1.1
		c0.6,0,1.1,0.5,1.1,1.1V20z"/>
	<path class="st0" d="M176.7,20c-0.2-0.1-0.4-0.4-0.4-0.8c0-0.5,0.4-0.9,0.9-0.9c0.2,0,0.3,0.1,0.5,0.1c0.9,0.6,1.9,0.9,2.7,0.9
		c0.9,0,1.5-0.4,1.5-1v0c0-0.7-1-1-2.1-1.3c-1.4-0.4-3-1-3-2.8v0c0-1.8,1.5-2.9,3.4-2.9c1,0,2.1,0.3,3,0.8c0.3,0.2,0.5,0.5,0.5,0.8
		c0,0.5-0.4,0.9-0.9,0.9c-0.2,0-0.3,0-0.4-0.1c-0.8-0.4-1.6-0.6-2.2-0.6c-0.8,0-1.3,0.4-1.3,0.9v0c0,0.7,1,1,2.1,1.4
		c1.4,0.4,3,1.1,3,2.8v0c0,2-1.5,3-3.5,3C179.1,21.2,177.8,20.8,176.7,20z"/>
	<path class="st0" d="M185.1,8.9c0-0.6,0.5-1.1,1.2-1.1s1.2,0.4,1.2,1.1V9c0,0.6-0.5,1.1-1.2,1.1s-1.2-0.4-1.2-1.1V8.9z M185.3,12.5
		c0-0.6,0.5-1.1,1.1-1.1s1.1,0.5,1.1,1.1V20c0,0.6-0.5,1.1-1.1,1.1c-0.6,0-1.1-0.5-1.1-1.1V12.5z"/>
	<path class="st0" d="M189.4,12.5c0-0.6,0.5-1.1,1.1-1.1s1.1,0.5,1.1,1.1V13c0.6-0.9,1.5-1.7,3-1.7c2.1,0,3.4,1.4,3.4,3.6V20
		c0,0.6-0.5,1.1-1.1,1.1s-1.1-0.5-1.1-1.1v-4.4c0-1.5-0.7-2.3-2-2.3c-1.3,0-2.1,0.9-2.1,2.4V20c0,0.6-0.5,1.1-1.1,1.1
		c-0.6,0-1.1-0.5-1.1-1.1V12.5z"/>
	<path class="st0" d="M204,21.2c-2.8,0-4.9-2-4.9-4.9v0c0-2.7,1.9-5,4.6-5c3,0,4.5,2.5,4.5,4.7c0,0.6-0.5,1-1,1h-6
		c0.2,1.5,1.3,2.4,2.7,2.4c0.9,0,1.6-0.3,2.3-0.8c0.2-0.1,0.3-0.2,0.6-0.2c0.5,0,0.9,0.4,0.9,0.9c0,0.3-0.1,0.5-0.3,0.7
		C206.6,20.7,205.5,21.2,204,21.2z M206.2,15.6c-0.1-1.4-1-2.5-2.4-2.5c-1.3,0-2.3,1-2.5,2.5H206.2z"/>
	<path class="st0" d="M209.3,20c-0.2-0.1-0.4-0.4-0.4-0.8c0-0.5,0.4-0.9,0.9-0.9c0.2,0,0.3,0.1,0.5,0.1c0.9,0.6,1.9,0.9,2.7,0.9
		c0.9,0,1.5-0.4,1.5-1v0c0-0.7-1-1-2.1-1.3c-1.4-0.4-3-1-3-2.8v0c0-1.8,1.5-2.9,3.4-2.9c1,0,2.1,0.3,3,0.8c0.3,0.2,0.5,0.5,0.5,0.8
		c0,0.5-0.4,0.9-0.9,0.9c-0.2,0-0.3,0-0.4-0.1c-0.8-0.4-1.6-0.6-2.2-0.6c-0.8,0-1.3,0.4-1.3,0.9v0c0,0.7,1,1,2.1,1.4
		c1.4,0.4,3,1.1,3,2.8v0c0,2-1.5,3-3.5,3C211.7,21.2,210.4,20.8,209.3,20z"/>
	<path class="st0" d="M217.2,20c-0.2-0.1-0.4-0.4-0.4-0.8c0-0.5,0.4-0.9,0.9-0.9c0.2,0,0.3,0.1,0.5,0.1c0.9,0.6,1.9,0.9,2.7,0.9
		c0.9,0,1.5-0.4,1.5-1v0c0-0.7-1-1-2.1-1.3c-1.4-0.4-3-1-3-2.8v0c0-1.8,1.5-2.9,3.4-2.9c1,0,2.1,0.3,3,0.8c0.3,0.2,0.5,0.5,0.5,0.8
		c0,0.5-0.4,0.9-0.9,0.9c-0.2,0-0.3,0-0.4-0.1c-0.8-0.4-1.6-0.6-2.2-0.6c-0.8,0-1.3,0.4-1.3,0.9v0c0,0.7,1,1,2.1,1.4
		c1.4,0.4,3,1.1,3,2.8v0c0,2-1.5,3-3.5,3C219.6,21.2,218.3,20.8,217.2,20z"/>
	<path class="st0" d="M97.7,43.1c-0.4-0.1-0.6-0.5-0.6-0.9c0-0.5,0.4-0.9,0.9-0.9c0.2,0,0.3,0,0.4,0.1c0.9,0.5,1.8,0.8,2.9,0.8
		c1.9,0,3-1,3-2.9v-0.7c-0.8,1-1.8,1.7-3.3,1.7c-2.2,0-4.3-1.7-4.3-4.4v0c0-2.8,2.1-4.5,4.3-4.5c1.6,0,2.6,0.7,3.3,1.6v-0.5
		c0-0.6,0.5-1.1,1.1-1.1c0.6,0,1.1,0.5,1.1,1.1v6.6c0,1.6-0.4,2.8-1.2,3.6c-0.9,0.9-2.2,1.3-3.9,1.3C100.1,43.9,98.9,43.6,97.7,43.1
		z M104.4,35.8L104.4,35.8c0-1.6-1.3-2.6-2.8-2.6c-1.5,0-2.7,1-2.7,2.6v0c0,1.5,1.2,2.6,2.7,2.6C103.1,38.4,104.4,37.3,104.4,35.8z"
		/>
	<path class="st0" d="M108.3,32.5c0-0.6,0.5-1.1,1.1-1.1s1.1,0.5,1.1,1.1v1c0.5-1.2,1.4-2.1,2.4-2.1c0.7,0,1.1,0.5,1.1,1.1
		c0,0.6-0.4,1-0.9,1c-1.5,0.3-2.6,1.5-2.6,3.7V40c0,0.6-0.5,1.1-1.1,1.1c-0.6,0-1.1-0.5-1.1-1.1V32.5z"/>
	<path class="st0" d="M113.8,38.3L113.8,38.3c0-2.1,1.6-3.1,3.9-3.1c1.1,0,1.8,0.2,2.6,0.4v-0.2c0-1.4-0.8-2.1-2.4-2.1
		c-0.8,0-1.5,0.1-2.1,0.4c-0.1,0-0.2,0.1-0.3,0.1c-0.5,0-0.9-0.4-0.9-0.9c0-0.4,0.3-0.7,0.6-0.9c0.9-0.3,1.8-0.6,3.1-0.6
		c1.4,0,2.5,0.4,3.2,1.1c0.7,0.7,1,1.7,1,2.9V40c0,0.6-0.5,1-1.1,1c-0.6,0-1.1-0.4-1.1-0.9v-0.4c-0.6,0.8-1.6,1.4-3.1,1.4
		C115.4,41.2,113.8,40.2,113.8,38.3z M120.3,37.6v-0.6c-0.6-0.2-1.3-0.4-2.2-0.4c-1.4,0-2.2,0.6-2.2,1.6v0c0,0.9,0.8,1.4,1.9,1.4
		C119.2,39.6,120.3,38.8,120.3,37.6z"/>
	<path class="st0" d="M133.4,40c0,0.6-0.5,1.1-1.1,1.1c-0.6,0-1.1-0.5-1.1-1.1v-0.6c-0.7,1-1.7,1.8-3.2,1.8c-2.2,0-4.4-1.8-4.4-4.9
		v0c0-3.2,2.1-4.9,4.4-4.9c1.6,0,2.6,0.8,3.2,1.7v-4.1c0-0.6,0.5-1.1,1.1-1.1c0.6,0,1.1,0.5,1.1,1.1V40z M125.8,36.2L125.8,36.2
		c0,1.9,1.3,3.1,2.7,3.1c1.5,0,2.8-1.2,2.8-3v0c0-1.8-1.3-3-2.8-3C127,33.2,125.8,34.3,125.8,36.2z"/>
	<path class="st0" d="M139.6,41.2c-2.8,0-4.9-2-4.9-4.9v0c0-2.7,1.9-5,4.6-5c3,0,4.5,2.5,4.5,4.7c0,0.6-0.5,1-1,1h-6
		c0.2,1.5,1.3,2.4,2.7,2.4c0.9,0,1.6-0.3,2.3-0.8c0.2-0.1,0.3-0.2,0.6-0.2c0.5,0,0.9,0.4,0.9,0.9c0,0.3-0.1,0.5-0.3,0.7
		C142.2,40.7,141.1,41.2,139.6,41.2z M141.8,35.6c-0.1-1.4-1-2.5-2.4-2.5c-1.3,0-2.3,1-2.5,2.5H141.8z"/>
	<path class="st0" d="M149.4,40c-0.2-0.1-0.4-0.4-0.4-0.8c0-0.5,0.4-0.9,0.9-0.9c0.2,0,0.3,0.1,0.5,0.1c0.9,0.6,1.9,0.9,2.7,0.9
		c0.9,0,1.5-0.4,1.5-1v0c0-0.7-1-1-2.1-1.3c-1.4-0.4-3-1-3-2.8v0c0-1.8,1.5-2.9,3.4-2.9c1,0,2.1,0.3,3,0.8c0.3,0.2,0.5,0.5,0.5,0.8
		c0,0.5-0.4,0.9-0.9,0.9c-0.2,0-0.3,0-0.4-0.1c-0.8-0.4-1.6-0.6-2.2-0.6c-0.8,0-1.3,0.4-1.3,0.9v0c0,0.7,1,1,2.1,1.4
		c1.4,0.4,3,1.1,3,2.8v0c0,2-1.5,3-3.5,3C151.8,41.2,150.5,40.8,149.4,40z"/>
	<path class="st0" d="M162.2,41.2c-2.8,0-4.9-2-4.9-4.9v0c0-2.7,1.9-5,4.6-5c3,0,4.5,2.5,4.5,4.7c0,0.6-0.5,1-1,1h-6
		c0.2,1.5,1.3,2.4,2.7,2.4c0.9,0,1.6-0.3,2.2-0.8c0.2-0.1,0.3-0.2,0.6-0.2c0.5,0,0.9,0.4,0.9,0.9c0,0.3-0.1,0.5-0.3,0.7
		C164.8,40.7,163.7,41.2,162.2,41.2z M164.4,35.6c-0.1-1.4-1-2.5-2.4-2.5c-1.3,0-2.3,1-2.5,2.5H164.4z"/>
	<path class="st0" d="M167.8,32.5c0-0.6,0.5-1.1,1.1-1.1c0.6,0,1.1,0.5,1.1,1.1v1c0.5-1.2,1.4-2.1,2.4-2.1c0.7,0,1.1,0.5,1.1,1.1
		c0,0.6-0.4,1-0.9,1c-1.5,0.3-2.6,1.5-2.6,3.7V40c0,0.6-0.5,1.1-1.1,1.1c-0.6,0-1.1-0.5-1.1-1.1V32.5z"/>
	<path class="st0" d="M178.3,41.2h-0.1c-0.6,0-1-0.4-1.2-1l-3.2-7.3c-0.1-0.2-0.1-0.3-0.1-0.5c0-0.5,0.5-1,1.1-1s0.9,0.3,1.1,0.8
		l2.4,6.3l2.5-6.3c0.2-0.4,0.5-0.8,1-0.8c0.6,0,1.1,0.5,1.1,1c0,0.2-0.1,0.4-0.1,0.5l-3.2,7.3C179.3,40.8,178.9,41.2,178.3,41.2z"/>
	<path class="st0" d="M184,28.9c0-0.6,0.5-1.1,1.2-1.1s1.2,0.4,1.2,1.1V29c0,0.6-0.5,1.1-1.2,1.1S184,29.7,184,29V28.9z M184.1,32.5
		c0-0.6,0.5-1.1,1.1-1.1s1.1,0.5,1.1,1.1V40c0,0.6-0.5,1.1-1.1,1.1c-0.6,0-1.1-0.5-1.1-1.1V32.5z"/>
	<path class="st0" d="M187.7,36.3L187.7,36.3c0-2.7,2.1-5,5-5c1.5,0,2.5,0.5,3.3,1.2c0.1,0.1,0.3,0.4,0.3,0.8c0,0.6-0.5,1-1,1
		c-0.3,0-0.5-0.1-0.6-0.2c-0.6-0.5-1.2-0.8-2-0.8c-1.6,0-2.8,1.4-2.8,3v0c0,1.7,1.2,3,2.8,3c0.9,0,1.5-0.3,2.1-0.8
		c0.1-0.1,0.3-0.2,0.6-0.2c0.5,0,0.9,0.4,0.9,1c0,0.3-0.1,0.5-0.3,0.7c-0.8,0.8-1.9,1.4-3.5,1.4C189.8,41.2,187.7,39,187.7,36.3z"/>
	<path class="st0" d="M201.7,41.2c-2.8,0-4.9-2-4.9-4.9v0c0-2.7,1.9-5,4.6-5c3,0,4.5,2.5,4.5,4.7c0,0.6-0.5,1-1,1h-6
		c0.2,1.5,1.3,2.4,2.7,2.4c0.9,0,1.6-0.3,2.3-0.8c0.2-0.1,0.3-0.2,0.6-0.2c0.5,0,0.9,0.4,0.9,0.9c0,0.3-0.1,0.5-0.3,0.7
		C204.3,40.7,203.2,41.2,201.7,41.2z M203.9,35.6c-0.1-1.4-1-2.5-2.4-2.5c-1.3,0-2.3,1-2.5,2.5H203.9z"/>
</g>
</svg>
