<?xml version="1.0" encoding="utf-8"?>
<!-- Generator: Adobe Illustrator 21.1.0, SVG Export Plug-In . SVG Version: 6.00 Build 0)  -->
<svg version="1.1" id="Layer_2" xmlns="http://www.w3.org/2000/svg" xmlns:xlink="http://www.w3.org/1999/xlink" x="0px" y="0px"
	 viewBox="0 0 728 90" style="enable-background:new 0 0 728 90;" xml:space="preserve">
<style type="text/css">
	.st0{fill:#133C7D;}
</style>
<g>
	<path class="st0" d="M179.5,26.2c0-0.7,0.5-1.2,1.2-1.2h5c1.8,0,3.1,0.5,4,1.4c0.7,0.8,1.2,1.8,1.2,3v0c0,2.2-1.3,3.6-3.2,4.2
		l2.7,3.4c0.2,0.3,0.4,0.6,0.4,0.9c0,0.7-0.6,1.1-1.2,1.1c-0.6,0-0.9-0.3-1.2-0.6l-3.4-4.3h-3.1v3.8c0,0.7-0.5,1.2-1.2,1.2
		c-0.7,0-1.2-0.5-1.2-1.2V26.2z M185.5,31.9c1.8,0,2.9-0.9,2.9-2.3v0c0-1.5-1.1-2.3-2.9-2.3h-3.6v4.7H185.5z"/>
	<path class="st0" d="M197.3,39.2c-3.1,0-5.4-2.2-5.4-5.5v0c0-3,2.1-5.5,5.2-5.5c3.4,0,5,2.8,5,5.2c0,0.7-0.5,1.2-1.1,1.2h-6.6
		c0.3,1.7,1.5,2.7,3,2.7c1,0,1.8-0.4,2.5-0.9c0.2-0.1,0.3-0.2,0.6-0.2c0.5,0,1,0.4,1,1c0,0.3-0.1,0.6-0.3,0.7
		C200.2,38.7,199,39.2,197.3,39.2z M199.7,33c-0.2-1.6-1.1-2.8-2.7-2.8c-1.5,0-2.5,1.1-2.7,2.8H199.7z"/>
	<path class="st0" d="M203.7,25.5c0-0.7,0.5-1.2,1.2-1.2c0.7,0,1.2,0.5,1.2,1.2v12.4c0,0.7-0.5,1.2-1.2,1.2c-0.7,0-1.2-0.5-1.2-1.2
		V25.5z"/>
	<path class="st0" d="M208.6,42c-0.4-0.1-0.8-0.4-0.8-1c0-0.6,0.5-1,1-1c0.2,0,0.3,0,0.4,0.1c0.3,0.1,0.5,0.1,0.8,0.1
		c0.7,0,1.1-0.3,1.5-1.1l0.1-0.2l-3.9-8.8c-0.1-0.2-0.1-0.4-0.1-0.6c0-0.7,0.5-1.2,1.2-1.2c0.6,0,1,0.4,1.2,0.9l2.8,7l2.6-7
		c0.2-0.5,0.5-0.9,1.2-0.9c0.6,0,1.2,0.5,1.2,1.1c0,0.2-0.1,0.5-0.1,0.6l-3.9,9.3c-0.9,2.2-1.9,3-3.6,3
		C209.6,42.3,209.1,42.2,208.6,42z"/>
	<path class="st0" d="M223.6,33.8L223.6,33.8c0-3.1,2.4-5.6,5.6-5.6c3.2,0,5.6,2.5,5.6,5.5v0c0,3-2.4,5.5-5.7,5.5
		C226,39.2,223.6,36.8,223.6,33.8z M232.4,33.8L232.4,33.8c0-1.9-1.3-3.4-3.2-3.4c-1.9,0-3.2,1.5-3.2,3.4v0c0,1.8,1.3,3.4,3.2,3.4
		C231.2,37.1,232.4,35.6,232.4,33.8z"/>
	<path class="st0" d="M236.4,29.5c0-0.7,0.5-1.2,1.2-1.2c0.7,0,1.2,0.5,1.2,1.2v0.5c0.7-1,1.7-1.8,3.3-1.8c2.4,0,3.8,1.6,3.8,4v5.6
		c0,0.7-0.5,1.2-1.2,1.2c-0.7,0-1.2-0.5-1.2-1.2V33c0-1.6-0.8-2.6-2.3-2.6c-1.4,0-2.4,1-2.4,2.6v4.9c0,0.7-0.5,1.2-1.2,1.2
		c-0.7,0-1.2-0.5-1.2-1.2V29.5z"/>
	<path class="st0" d="M257.7,39.2c-3.1,0-5.4-2.2-5.4-5.5v0c0-3,2.1-5.5,5.2-5.5c3.4,0,5,2.8,5,5.2c0,0.7-0.5,1.2-1.1,1.2h-6.6
		c0.3,1.7,1.5,2.7,3,2.7c1,0,1.8-0.4,2.5-0.9c0.2-0.1,0.3-0.2,0.6-0.2c0.5,0,1,0.4,1,1c0,0.3-0.1,0.6-0.3,0.7
		C260.5,38.7,259.3,39.2,257.7,39.2z M260.1,33c-0.2-1.6-1.1-2.8-2.7-2.8c-1.5,0-2.5,1.1-2.7,2.8H260.1z"/>
	<path class="st0" d="M264.5,30.5h-0.4c-0.6,0-1-0.4-1-1s0.5-1,1-1h0.4v-0.8c0-1.2,0.3-2,0.9-2.6c0.6-0.6,1.3-0.8,2.4-0.8
		c0.5,0,0.9,0,1.2,0.1c0.4,0.1,0.8,0.5,0.8,1c0,0.6-0.5,1-1,1c-0.1,0-0.3,0-0.5,0c-0.9,0-1.4,0.5-1.4,1.6v0.6h1.9c0.6,0,1,0.4,1,1
		s-0.5,1-1,1h-1.8v7.4c0,0.7-0.5,1.2-1.2,1.2c-0.7,0-1.2-0.5-1.2-1.2V30.5z"/>
	<path class="st0" d="M271,36.1v-5.6h-0.4c-0.6,0-1-0.5-1-1s0.5-1,1-1h0.4v-1.8c0-0.7,0.5-1.2,1.2-1.2c0.7,0,1.2,0.5,1.2,1.2v1.8
		h1.9c0.6,0,1.1,0.5,1.1,1s-0.5,1-1.1,1h-1.9v5.2c0,0.9,0.5,1.3,1.3,1.3c0.3,0,0.5-0.1,0.6-0.1c0.5,0,1,0.4,1,1
		c0,0.4-0.3,0.8-0.6,0.9c-0.5,0.2-1,0.3-1.7,0.3C272.3,39.2,271,38.4,271,36.1z"/>
	<path class="st0" d="M277.8,29.5c0-0.7,0.5-1.2,1.2-1.2c0.7,0,1.2,0.5,1.2,1.2v0.7c0.8-1.1,1.9-2,3.6-2c2.5,0,4.9,2,4.9,5.5v0
		c0,3.5-2.4,5.5-4.9,5.5c-1.8,0-2.9-0.9-3.6-1.9v3.7c0,0.7-0.5,1.2-1.2,1.2c-0.7,0-1.2-0.5-1.2-1.2V29.5z M286.2,33.7L286.2,33.7
		c0-2.1-1.4-3.4-3-3.4c-1.6,0-3.1,1.4-3.1,3.4v0c0,2,1.4,3.4,3.1,3.4C284.9,37.1,286.2,35.8,286.2,33.7z"/>
	<path class="st0" d="M289.7,33.8L289.7,33.8c0-3.1,2.4-5.6,5.6-5.6c3.2,0,5.6,2.5,5.6,5.5v0c0,3-2.4,5.5-5.7,5.5
		C292,39.2,289.7,36.8,289.7,33.8z M298.5,33.8L298.5,33.8c0-1.9-1.3-3.4-3.2-3.4c-1.9,0-3.2,1.5-3.2,3.4v0c0,1.8,1.3,3.4,3.2,3.4
		C297.3,37.1,298.5,35.6,298.5,33.8z"/>
	<path class="st0" d="M302,37.9c-0.3-0.1-0.5-0.4-0.5-0.8c0-0.5,0.4-1,1-1c0.2,0,0.4,0.1,0.5,0.1c1,0.7,2.1,1,3,1
		c1,0,1.6-0.4,1.6-1.1v0c0-0.8-1.1-1.1-2.4-1.5c-1.6-0.4-3.3-1.1-3.3-3.1v0c0-2,1.7-3.2,3.8-3.2c1.1,0,2.3,0.3,3.3,0.9
		c0.3,0.2,0.6,0.5,0.6,0.9c0,0.6-0.4,1-1,1c-0.2,0-0.3,0-0.5-0.1c-0.9-0.4-1.7-0.7-2.5-0.7c-0.9,0-1.5,0.4-1.5,1v0
		c0,0.8,1.1,1.1,2.4,1.5c1.5,0.5,3.3,1.2,3.3,3.1v0c0,2.2-1.7,3.3-3.9,3.3C304.7,39.2,303.2,38.8,302,37.9z"/>
	<path class="st0" d="M311,40.8c0.9-0.3,1.4-0.9,1.4-1.8c-0.6-0.2-1.1-0.6-1.1-1.4v-0.2c0-0.8,0.5-1.3,1.4-1.3
		c0.9,0,1.4,0.7,1.4,1.8v0.2c0,1.4-0.4,2.3-1,2.9c-0.5,0.5-1.3,0.9-1.9,0.9c-0.4,0-0.6-0.3-0.6-0.6C310.6,41.1,310.8,40.9,311,40.8z
		"/>
	<path class="st0" d="M321.5,30.5h-0.4c-0.6,0-1-0.4-1-1s0.5-1,1-1h0.4v-0.8c0-1.2,0.3-2,0.9-2.6c0.6-0.6,1.3-0.8,2.4-0.8
		c0.5,0,0.9,0,1.2,0.1c0.4,0.1,0.8,0.5,0.8,1c0,0.6-0.5,1-1,1c-0.1,0-0.3,0-0.5,0c-0.9,0-1.4,0.5-1.4,1.6v0.6h1.9c0.6,0,1,0.4,1,1
		s-0.5,1-1,1h-1.8v7.4c0,0.7-0.5,1.2-1.2,1.2c-0.7,0-1.2-0.5-1.2-1.2V30.5z"/>
	<path class="st0" d="M326.5,36L326.5,36c0-2.3,1.8-3.4,4.4-3.4c1.2,0,2,0.2,2.8,0.4v-0.3c0-1.5-0.9-2.3-2.6-2.3
		c-0.9,0-1.7,0.2-2.3,0.4c-0.1,0-0.3,0.1-0.4,0.1c-0.6,0-1-0.4-1-1c0-0.4,0.3-0.8,0.7-1c1-0.4,2-0.6,3.4-0.6c1.6,0,2.8,0.4,3.5,1.2
		c0.8,0.8,1.1,1.9,1.1,3.3v5.2c0,0.7-0.5,1.2-1.2,1.2c-0.7,0-1.2-0.5-1.2-1v-0.4c-0.7,0.9-1.8,1.5-3.4,1.5
		C328.3,39.2,326.5,38.1,326.5,36z M333.7,35.2v-0.7c-0.6-0.2-1.4-0.4-2.4-0.4c-1.6,0-2.5,0.7-2.5,1.8v0c0,1,0.9,1.6,2.1,1.6
		C332.5,37.5,333.7,36.5,333.7,35.2z"/>
	<path class="st0" d="M337.8,37.2l3-3.6l-2.8-3.3c-0.3-0.3-0.4-0.6-0.4-0.9c0-0.7,0.5-1.1,1.1-1.1c0.5,0,0.8,0.2,1.1,0.6l2.4,3.1
		l2.4-3.1c0.3-0.4,0.6-0.6,1-0.6c0.6,0,1.1,0.5,1.1,1.1c0,0.3-0.1,0.6-0.3,0.8l-2.9,3.4l3,3.5c0.3,0.3,0.4,0.6,0.4,0.9
		c0,0.7-0.5,1.1-1.1,1.1c-0.5,0-0.8-0.2-1.1-0.6l-2.6-3.3l-2.6,3.3c-0.3,0.3-0.6,0.6-1.1,0.6c-0.6,0-1.1-0.5-1.1-1.1
		C337.4,37.7,337.5,37.5,337.8,37.2z"/>
	<path class="st0" d="M352.9,33.8L352.9,33.8c0-3.1,2.4-5.6,5.6-5.6c3.2,0,5.6,2.5,5.6,5.5v0c0,3-2.4,5.5-5.7,5.5
		C355.3,39.2,352.9,36.8,352.9,33.8z M361.8,33.8L361.8,33.8c0-1.9-1.3-3.4-3.2-3.4c-1.9,0-3.2,1.5-3.2,3.4v0c0,1.8,1.3,3.4,3.2,3.4
		C360.5,37.1,361.8,35.6,361.8,33.8z"/>
	<path class="st0" d="M365.7,29.5c0-0.7,0.5-1.2,1.2-1.2c0.7,0,1.2,0.5,1.2,1.2v1.1c0.6-1.3,1.6-2.3,2.7-2.3c0.8,0,1.2,0.5,1.2,1.2
		c0,0.6-0.4,1.1-1,1.2c-1.7,0.3-2.9,1.6-2.9,4.1v3.1c0,0.7-0.5,1.2-1.2,1.2c-0.7,0-1.2-0.5-1.2-1.2V29.5z"/>
	<path class="st0" d="M179.2,52.5c0-0.7,0.5-1.2,1.2-1.2s1.2,0.5,1.2,1.2V53c0.7-0.9,1.6-1.8,3.2-1.8c1.5,0,2.6,0.7,3.2,1.9
		c0.8-1.1,2-1.9,3.6-1.9c2.3,0,3.7,1.5,3.7,4v5.6c0,0.7-0.5,1.2-1.2,1.2s-1.2-0.5-1.2-1.2V56c0-1.7-0.8-2.6-2.1-2.6
		c-1.3,0-2.3,0.9-2.3,2.6v4.9c0,0.7-0.5,1.2-1.2,1.2c-0.7,0-1.2-0.5-1.2-1.2V56c0-1.6-0.8-2.6-2.1-2.6s-2.3,1-2.3,2.6v4.9
		c0,0.7-0.5,1.2-1.2,1.2c-0.7,0-1.2-0.5-1.2-1.2V52.5z"/>
	<path class="st0" d="M196.6,56.8L196.6,56.8c0-3.1,2.4-5.6,5.6-5.6s5.6,2.5,5.6,5.5v0c0,3-2.4,5.5-5.7,5.5
		C199,62.2,196.6,59.8,196.6,56.8z M205.5,56.8L205.5,56.8c0-1.9-1.3-3.4-3.2-3.4c-1.9,0-3.2,1.5-3.2,3.4v0c0,1.8,1.3,3.4,3.2,3.4
		C204.2,60.1,205.5,58.6,205.5,56.8z"/>
	<path class="st0" d="M209.4,52.5c0-0.7,0.5-1.2,1.2-1.2s1.2,0.5,1.2,1.2v0.5c0.7-1,1.7-1.8,3.3-1.8c2.4,0,3.8,1.6,3.8,4v5.6
		c0,0.7-0.5,1.2-1.2,1.2s-1.2-0.5-1.2-1.2V56c0-1.6-0.8-2.6-2.3-2.6c-1.4,0-2.4,1-2.4,2.6v4.9c0,0.7-0.5,1.2-1.2,1.2
		c-0.7,0-1.2-0.5-1.2-1.2V52.5z"/>
	<path class="st0" d="M220.8,48.6c0-0.7,0.6-1.2,1.4-1.2c0.8,0,1.4,0.5,1.4,1.2v0.1c0,0.7-0.6,1.2-1.4,1.2c-0.8,0-1.4-0.5-1.4-1.2
		V48.6z M221,52.5c0-0.7,0.5-1.2,1.2-1.2c0.7,0,1.2,0.5,1.2,1.2v8.4c0,0.7-0.5,1.2-1.2,1.2c-0.7,0-1.2-0.5-1.2-1.2V52.5z"/>
	<path class="st0" d="M226.1,59.1v-5.6h-0.4c-0.6,0-1-0.5-1-1s0.5-1,1-1h0.4v-1.8c0-0.7,0.5-1.2,1.2-1.2c0.7,0,1.2,0.5,1.2,1.2v1.8
		h1.9c0.6,0,1.1,0.5,1.1,1s-0.5,1-1.1,1h-1.9v5.2c0,0.9,0.5,1.3,1.3,1.3c0.3,0,0.5-0.1,0.6-0.1c0.5,0,1,0.4,1,1
		c0,0.4-0.3,0.8-0.6,0.9c-0.5,0.2-1,0.3-1.7,0.3C227.4,62.2,226.1,61.4,226.1,59.1z"/>
	<path class="st0" d="M232,56.8L232,56.8c0-3.1,2.4-5.6,5.6-5.6c3.2,0,5.6,2.5,5.6,5.5v0c0,3-2.4,5.5-5.7,5.5
		C234.4,62.2,232,59.8,232,56.8z M240.8,56.8L240.8,56.8c0-1.9-1.3-3.4-3.2-3.4c-1.9,0-3.2,1.5-3.2,3.4v0c0,1.8,1.3,3.4,3.2,3.4
		C239.6,60.1,240.8,58.6,240.8,56.8z"/>
	<path class="st0" d="M244.7,52.5c0-0.7,0.5-1.2,1.2-1.2c0.7,0,1.2,0.5,1.2,1.2v1.1c0.6-1.3,1.6-2.3,2.7-2.3c0.8,0,1.2,0.5,1.2,1.2
		c0,0.6-0.4,1.1-1,1.2c-1.7,0.3-2.9,1.6-2.9,4.1v3.1c0,0.7-0.5,1.2-1.2,1.2c-0.7,0-1.2-0.5-1.2-1.2V52.5z"/>
	<path class="st0" d="M256.5,62.2c-3.1,0-5.4-2.2-5.4-5.5v0c0-3,2.1-5.5,5.2-5.5c3.4,0,5,2.8,5,5.2c0,0.7-0.5,1.2-1.1,1.2h-6.6
		c0.3,1.7,1.5,2.7,3,2.7c1,0,1.8-0.4,2.5-0.9c0.2-0.1,0.3-0.2,0.6-0.2c0.5,0,1,0.4,1,1c0,0.3-0.1,0.6-0.3,0.7
		C259.4,61.7,258.2,62.2,256.5,62.2z M258.9,56c-0.2-1.6-1.1-2.8-2.7-2.8c-1.5,0-2.5,1.1-2.7,2.8H258.9z"/>
	<path class="st0" d="M273.2,60.9c0,0.7-0.5,1.2-1.2,1.2c-0.7,0-1.2-0.5-1.2-1.2v-0.7c-0.8,1.1-1.9,2-3.6,2c-2.5,0-4.9-2-4.9-5.5v0
		c0-3.5,2.4-5.5,4.9-5.5c1.7,0,2.8,0.9,3.6,1.9v-4.6c0-0.7,0.5-1.2,1.2-1.2c0.7,0,1.2,0.5,1.2,1.2V60.9z M264.7,56.7L264.7,56.7
		c0,2.1,1.4,3.4,3,3.4c1.6,0,3.1-1.4,3.1-3.4v0c0-2-1.4-3.4-3.1-3.4C266.1,53.3,264.7,54.6,264.7,56.7z"/>
	<path class="st0" d="M279.9,60.9c-0.3-0.1-0.5-0.4-0.5-0.8c0-0.5,0.4-1,1-1c0.2,0,0.4,0.1,0.5,0.1c1,0.7,2.1,1,3,1
		c1,0,1.6-0.4,1.6-1.1v0c0-0.8-1.1-1.1-2.4-1.5c-1.6-0.4-3.3-1.1-3.3-3.1v0c0-2,1.7-3.2,3.8-3.2c1.1,0,2.3,0.3,3.3,0.9
		c0.3,0.2,0.6,0.5,0.6,0.9c0,0.6-0.4,1-1,1c-0.2,0-0.3,0-0.5-0.1c-0.9-0.4-1.7-0.7-2.5-0.7c-0.9,0-1.5,0.4-1.5,1v0
		c0,0.8,1.1,1.1,2.4,1.5c1.5,0.5,3.3,1.2,3.3,3.1v0c0,2.2-1.7,3.3-3.9,3.3C282.6,62.2,281.1,61.8,279.9,60.9z"/>
	<path class="st0" d="M294.2,62.2c-3.1,0-5.4-2.2-5.4-5.5v0c0-3,2.1-5.5,5.2-5.5c3.4,0,5,2.8,5,5.2c0,0.7-0.5,1.2-1.1,1.2h-6.6
		c0.3,1.7,1.5,2.7,3,2.7c1,0,1.8-0.4,2.5-0.9c0.2-0.1,0.3-0.2,0.6-0.2c0.5,0,1,0.4,1,1c0,0.3-0.1,0.6-0.3,0.7
		C297,61.7,295.8,62.2,294.2,62.2z M296.6,56c-0.2-1.6-1.1-2.8-2.7-2.8c-1.5,0-2.5,1.1-2.7,2.8H296.6z"/>
	<path class="st0" d="M299.9,56.8L299.9,56.8c0-3,2.3-5.6,5.5-5.6c1.7,0,2.8,0.5,3.7,1.3c0.2,0.1,0.4,0.4,0.4,0.8
		c0,0.6-0.5,1.1-1.1,1.1c-0.3,0-0.6-0.1-0.7-0.2c-0.6-0.5-1.3-0.9-2.3-0.9c-1.8,0-3.1,1.5-3.1,3.4v0c0,1.9,1.3,3.4,3.2,3.4
		c1,0,1.7-0.4,2.4-0.9c0.1-0.1,0.4-0.3,0.7-0.3c0.6,0,1,0.5,1,1.1c0,0.3-0.1,0.6-0.3,0.8c-0.9,0.9-2.1,1.5-3.8,1.5
		C302.2,62.2,299.9,59.8,299.9,56.8z"/>
	<path class="st0" d="M320.3,60.9c0,0.7-0.5,1.2-1.2,1.2c-0.7,0-1.2-0.5-1.2-1.2v-0.5c-0.7,1-1.7,1.9-3.3,1.9
		c-2.4,0-3.8-1.6-3.8-4.1v-5.6c0-0.7,0.5-1.2,1.2-1.2c0.7,0,1.2,0.5,1.2,1.2v4.9c0,1.6,0.8,2.6,2.3,2.6c1.4,0,2.4-1,2.4-2.6v-4.9
		c0-0.7,0.5-1.2,1.2-1.2c0.7,0,1.2,0.5,1.2,1.2V60.9z"/>
	<path class="st0" d="M322.4,52.5c0-0.7,0.5-1.2,1.2-1.2c0.7,0,1.2,0.5,1.2,1.2v1.1c0.6-1.3,1.6-2.3,2.7-2.3c0.8,0,1.2,0.5,1.2,1.2
		c0,0.6-0.4,1.1-1,1.2c-1.7,0.3-2.9,1.6-2.9,4.1v3.1c0,0.7-0.5,1.2-1.2,1.2c-0.7,0-1.2-0.5-1.2-1.2V52.5z"/>
	<path class="st0" d="M329.6,48.6c0-0.7,0.6-1.2,1.4-1.2s1.4,0.5,1.4,1.2v0.1c0,0.7-0.6,1.2-1.4,1.2s-1.4-0.5-1.4-1.2V48.6z
		 M329.8,52.5c0-0.7,0.5-1.2,1.2-1.2c0.7,0,1.2,0.5,1.2,1.2v8.4c0,0.7-0.5,1.2-1.2,1.2c-0.7,0-1.2-0.5-1.2-1.2V52.5z"/>
	<path class="st0" d="M334.9,59.1v-5.6h-0.4c-0.6,0-1-0.5-1-1s0.5-1,1-1h0.4v-1.8c0-0.7,0.5-1.2,1.2-1.2c0.7,0,1.2,0.5,1.2,1.2v1.8
		h1.9c0.6,0,1.1,0.5,1.1,1s-0.5,1-1.1,1h-1.9v5.2c0,0.9,0.5,1.3,1.3,1.3c0.3,0,0.5-0.1,0.6-0.1c0.5,0,1,0.4,1,1
		c0,0.4-0.3,0.8-0.6,0.9c-0.5,0.2-1,0.3-1.7,0.3C336.2,62.2,334.9,61.4,334.9,59.1z"/>
	<path class="st0" d="M341.9,65c-0.4-0.1-0.8-0.4-0.8-1c0-0.6,0.5-1,1-1c0.2,0,0.3,0,0.4,0.1c0.3,0.1,0.5,0.1,0.8,0.1
		c0.7,0,1.1-0.3,1.5-1.1l0.1-0.2l-3.9-8.8c-0.1-0.2-0.1-0.4-0.1-0.6c0-0.7,0.5-1.2,1.2-1.2c0.6,0,1,0.4,1.2,0.9l2.8,7l2.6-7
		c0.2-0.5,0.5-0.9,1.2-0.9c0.6,0,1.2,0.5,1.2,1.1c0,0.2-0.1,0.5-0.1,0.6l-3.9,9.3c-0.9,2.2-1.9,3-3.6,3
		C342.9,65.3,342.4,65.2,341.9,65z"/>
	<path class="st0" d="M356.8,59L356.8,59c0-2.3,1.8-3.4,4.4-3.4c1.2,0,2,0.2,2.8,0.4v-0.3c0-1.5-0.9-2.3-2.6-2.3
		c-0.9,0-1.7,0.2-2.3,0.4c-0.1,0-0.3,0.1-0.4,0.1c-0.6,0-1-0.4-1-1c0-0.4,0.3-0.8,0.7-1c1-0.4,2-0.6,3.4-0.6c1.6,0,2.8,0.4,3.5,1.2
		c0.8,0.8,1.1,1.9,1.1,3.3v5.2c0,0.7-0.5,1.2-1.2,1.2c-0.7,0-1.2-0.5-1.2-1v-0.4c-0.7,0.9-1.8,1.5-3.4,1.5
		C358.6,62.2,356.8,61.1,356.8,59z M364.1,58.2v-0.7c-0.6-0.2-1.4-0.4-2.4-0.4c-1.6,0-2.5,0.7-2.5,1.8v0c0,1,0.9,1.6,2.1,1.6
		C362.8,60.5,364.1,59.5,364.1,58.2z"/>
	<path class="st0" d="M368.4,48.5c0-0.7,0.5-1.2,1.2-1.2c0.7,0,1.2,0.5,1.2,1.2v12.4c0,0.7-0.5,1.2-1.2,1.2c-0.7,0-1.2-0.5-1.2-1.2
		V48.5z"/>
	<path class="st0" d="M372.4,59L372.4,59c0-2.3,1.8-3.4,4.4-3.4c1.2,0,2,0.2,2.8,0.4v-0.3c0-1.5-0.9-2.3-2.6-2.3
		c-0.9,0-1.7,0.2-2.3,0.4c-0.1,0-0.3,0.1-0.4,0.1c-0.6,0-1-0.4-1-1c0-0.4,0.3-0.8,0.7-1c1-0.4,2-0.6,3.4-0.6c1.6,0,2.8,0.4,3.5,1.2
		c0.8,0.8,1.1,1.9,1.1,3.3v5.2c0,0.7-0.5,1.2-1.2,1.2c-0.7,0-1.2-0.5-1.2-1v-0.4c-0.7,0.9-1.8,1.5-3.4,1.5
		C374.1,62.2,372.4,61.1,372.4,59z M379.6,58.2v-0.7c-0.6-0.2-1.4-0.4-2.4-0.4c-1.6,0-2.5,0.7-2.5,1.8v0c0,1,0.9,1.6,2.1,1.6
		C378.4,60.5,379.6,59.5,379.6,58.2z"/>
	<path class="st0" d="M383.8,52.5c0-0.7,0.5-1.2,1.2-1.2c0.7,0,1.2,0.5,1.2,1.2v1.1c0.6-1.3,1.6-2.3,2.7-2.3c0.8,0,1.2,0.5,1.2,1.2
		c0,0.6-0.4,1.1-1,1.2c-1.7,0.3-2.9,1.6-2.9,4.1v3.1c0,0.7-0.5,1.2-1.2,1.2c-0.7,0-1.2-0.5-1.2-1.2V52.5z"/>
	<path class="st0" d="M391.1,52.5c0-0.7,0.5-1.2,1.2-1.2c0.7,0,1.2,0.5,1.2,1.2V53c0.7-0.9,1.6-1.8,3.2-1.8c1.5,0,2.6,0.7,3.2,1.9
		c0.8-1.1,2-1.9,3.6-1.9c2.3,0,3.7,1.5,3.7,4v5.6c0,0.7-0.5,1.2-1.2,1.2c-0.7,0-1.2-0.5-1.2-1.2V56c0-1.7-0.8-2.6-2.1-2.6
		c-1.3,0-2.3,0.9-2.3,2.6v4.9c0,0.7-0.5,1.2-1.2,1.2c-0.7,0-1.2-0.5-1.2-1.2V56c0-1.6-0.8-2.6-2.1-2.6c-1.3,0-2.3,1-2.3,2.6v4.9
		c0,0.7-0.5,1.2-1.2,1.2c-0.7,0-1.2-0.5-1.2-1.2V52.5z"/>
	<path class="st0" d="M408.8,60.9c-0.3-0.1-0.5-0.4-0.5-0.8c0-0.5,0.4-1,1-1c0.2,0,0.4,0.1,0.5,0.1c1,0.7,2.1,1,3,1
		c1,0,1.6-0.4,1.6-1.1v0c0-0.8-1.1-1.1-2.4-1.5c-1.6-0.4-3.3-1.1-3.3-3.1v0c0-2,1.7-3.2,3.8-3.2c1.1,0,2.3,0.3,3.3,0.9
		c0.3,0.2,0.6,0.5,0.6,0.9c0,0.6-0.4,1-1,1c-0.2,0-0.3,0-0.5-0.1c-0.9-0.4-1.7-0.7-2.5-0.7c-0.9,0-1.5,0.4-1.5,1v0
		c0,0.8,1.1,1.1,2.4,1.5c1.5,0.5,3.3,1.2,3.3,3.1v0c0,2.2-1.7,3.3-3.9,3.3C411.5,62.2,410,61.8,408.8,60.9z"/>
	<path class="st0" d="M420.9,57.7c-0.5,0-0.8-0.3-0.9-0.8l-0.2-1.7c-0.1-0.5,0.2-0.9,0.8-1c1.9-0.2,2.9-0.9,2.9-2.2v0
		c0-1.1-0.9-1.9-2.3-1.9c-1.1,0-1.9,0.4-2.7,1.1c-0.2,0.2-0.5,0.3-0.7,0.3c-0.6,0-1.1-0.5-1.1-1.1c0-0.3,0.1-0.6,0.4-0.9
		c1.1-1,2.4-1.7,4.2-1.7c2.8,0,4.7,1.6,4.7,4.1v0c0,2.5-1.8,3.7-4,4l-0.1,0.9c-0.1,0.4-0.4,0.8-0.9,0.8H420.9z M420.9,59.1
		c0.8,0,1.4,0.6,1.4,1.4v0.2c0,0.8-0.6,1.4-1.4,1.4s-1.4-0.6-1.4-1.4v-0.2C419.5,59.7,420.1,59.1,420.9,59.1z"/>
</g>
</svg>
