<?xml version="1.0" encoding="utf-8"?>
<!-- Generator: Adobe Illustrator 21.1.0, SVG Export Plug-In . SVG Version: 6.00 Build 0)  -->
<svg version="1.1" id="Layer_1" xmlns="http://www.w3.org/2000/svg" xmlns:xlink="http://www.w3.org/1999/xlink" x="0px" y="0px"
	 viewBox="0 0 300 600" style="enable-background:new 0 0 300 600;" xml:space="preserve">
<style type="text/css">
	.st0{fill:#133C7D;}
</style>
<g>
	<path class="st0" d="M39.7,60.2v-7.6c0-0.7,0.6-1.3,1.4-1.3c0.7,0,1.3,0.6,1.3,1.3v7.5c0,2.9,1.5,4.4,3.9,4.4
		c2.4,0,3.9-1.4,3.9-4.3v-7.6c0-0.7,0.6-1.3,1.4-1.3c0.7,0,1.3,0.6,1.3,1.3V60c0,4.6-2.6,6.9-6.6,6.9C42.3,66.9,39.7,64.6,39.7,60.2
		z"/>
	<path class="st0" d="M54.8,65.5c-0.3-0.2-0.5-0.5-0.5-0.9c0-0.6,0.5-1.1,1.1-1.1c0.2,0,0.4,0.1,0.6,0.2c1.1,0.7,2.3,1.1,3.3,1.1
		c1.1,0,1.8-0.5,1.8-1.3v0c0-0.9-1.2-1.2-2.6-1.6c-1.7-0.5-3.6-1.2-3.6-3.4v0c0-2.2,1.8-3.5,4.1-3.5c1.2,0,2.5,0.4,3.7,0.9
		c0.4,0.2,0.6,0.6,0.6,1c0,0.6-0.5,1.1-1.1,1.1c-0.2,0-0.4,0-0.5-0.1c-0.9-0.5-1.9-0.8-2.7-0.8c-1,0-1.6,0.5-1.6,1.1v0
		c0,0.9,1.3,1.2,2.6,1.6c1.7,0.5,3.6,1.3,3.6,3.4v0c0,2.4-1.9,3.7-4.3,3.7C57.7,66.9,56.1,66.5,54.8,65.5z"/>
	<path class="st0" d="M70.5,67c-3.4,0-6-2.4-6-6v0c0-3.3,2.4-6.1,5.7-6.1c3.7,0,5.5,3,5.5,5.7c0,0.7-0.6,1.3-1.3,1.3h-7.3
		c0.3,1.9,1.6,2.9,3.3,2.9c1.1,0,2-0.4,2.8-1c0.2-0.2,0.4-0.2,0.7-0.2c0.6,0,1.1,0.5,1.1,1.1c0,0.3-0.2,0.6-0.4,0.8
		C73.6,66.4,72.3,67,70.5,67z M73.1,60.1c-0.2-1.7-1.2-3.1-2.9-3.1c-1.6,0-2.8,1.3-3,3.1H73.1z"/>
	<path class="st0" d="M83.4,63.5v-6.1h-0.4c-0.6,0-1.1-0.5-1.1-1.1s0.5-1.1,1.1-1.1h0.4v-2c0-0.7,0.6-1.3,1.3-1.3
		c0.7,0,1.3,0.6,1.3,1.3v2h2.1c0.6,0,1.2,0.5,1.2,1.1s-0.5,1.1-1.2,1.1H86v5.7c0,1,0.5,1.5,1.4,1.5c0.3,0,0.6-0.1,0.7-0.1
		c0.6,0,1.1,0.5,1.1,1.1c0,0.5-0.3,0.9-0.7,1c-0.6,0.2-1.1,0.3-1.8,0.3C84.8,66.9,83.4,66,83.4,63.5z"/>
	<path class="st0" d="M90.8,51.8c0-0.7,0.6-1.3,1.3-1.3c0.7,0,1.3,0.6,1.3,1.3v5c0.7-1.1,1.8-2,3.6-2c2.6,0,4.1,1.8,4.1,4.4v6.2
		c0,0.7-0.6,1.3-1.3,1.3c-0.7,0-1.3-0.6-1.3-1.3v-5.4c0-1.8-0.9-2.8-2.5-2.8c-1.5,0-2.6,1.1-2.6,2.9v5.3c0,0.7-0.6,1.3-1.3,1.3
		c-0.7,0-1.3-0.6-1.3-1.3V51.8z"/>
	<path class="st0" d="M108.6,67c-3.4,0-6-2.4-6-6v0c0-3.3,2.4-6.1,5.7-6.1c3.7,0,5.5,3,5.5,5.7c0,0.7-0.6,1.3-1.3,1.3h-7.3
		c0.3,1.9,1.6,2.9,3.3,2.9c1.1,0,2-0.4,2.8-1c0.2-0.2,0.4-0.2,0.7-0.2c0.6,0,1.1,0.5,1.1,1.1c0,0.3-0.2,0.6-0.4,0.8
		C111.8,66.4,110.4,67,108.6,67z M111.3,60.1c-0.2-1.7-1.2-3.1-2.9-3.1c-1.6,0-2.8,1.3-3,3.1H111.3z"/>
	<path class="st0" d="M120.8,56.4c0-0.9,0.7-1.7,1.7-1.7c0.9,0,1.7,0.7,1.7,1.7v0.1c0.8-1,1.8-1.9,3.5-1.9c2.5,0,4,1.7,4,4.4v6.1
		c0,0.9-0.7,1.7-1.7,1.7c-0.9,0-1.7-0.7-1.7-1.7v-5c0-1.6-0.7-2.4-2-2.4c-1.3,0-2.1,0.8-2.1,2.4v5c0,0.9-0.7,1.7-1.7,1.7
		c-0.9,0-1.7-0.7-1.7-1.7V56.4z"/>
	<path class="st0" d="M133.4,52.2c0-0.9,0.7-1.7,1.7-1.7c0.9,0,1.7,0.7,1.7,1.7v4.4c0.8-1.1,1.9-1.9,3.7-1.9c2.8,0,5.4,2.2,5.4,6.1
		v0c0,3.9-2.6,6.1-5.4,6.1c-1.8,0-2.9-0.8-3.7-1.8v0c0,0.9-0.7,1.6-1.7,1.6c-0.9,0-1.7-0.7-1.7-1.7V52.2z M142.5,60.8L142.5,60.8
		c0-2-1.3-3.3-2.9-3.3s-2.9,1.3-2.9,3.3v0c0,2,1.3,3.3,2.9,3.3S142.5,62.8,142.5,60.8z"/>
	<path class="st0" d="M147.2,56.4c0-0.9,0.7-1.7,1.7-1.7c0.9,0,1.7,0.7,1.7,1.7v0.1c0.8-1,1.8-1.9,3.5-1.9c2.5,0,4,1.7,4,4.4v6.1
		c0,0.9-0.7,1.7-1.7,1.7c-0.9,0-1.7-0.7-1.7-1.7v-5c0-1.6-0.7-2.4-2-2.4s-2.1,0.8-2.1,2.4v5c0,0.9-0.7,1.7-1.7,1.7
		c-0.9,0-1.7-0.7-1.7-1.7V56.4z"/>
	<path class="st0" d="M161,52.5h-1.6c-0.3,0-0.6-0.3-0.6-0.6c0-0.3,0.3-0.6,0.6-0.6h4.6c0.3,0,0.6,0.3,0.6,0.6
		c0,0.3-0.3,0.6-0.6,0.6h-1.6v5.1c0,0.4-0.3,0.6-0.7,0.6c-0.4,0-0.6-0.3-0.6-0.6V52.5z M165.8,51.9c0-0.4,0.3-0.6,0.6-0.6h0.2
		c0.3,0,0.5,0.2,0.6,0.3l2,3.3l2.1-3.3c0.1-0.2,0.3-0.3,0.6-0.3h0.2c0.3,0,0.6,0.3,0.6,0.6v5.7c0,0.4-0.3,0.6-0.6,0.6
		c-0.3,0-0.6-0.3-0.6-0.6v-4l-1.6,2.5c-0.1,0.2-0.3,0.3-0.6,0.3c-0.2,0-0.4-0.1-0.6-0.3l-1.6-2.4v3.9c0,0.4-0.3,0.6-0.6,0.6
		c-0.4,0-0.6-0.3-0.6-0.6V51.9z"/>
	<path class="st0" d="M179.5,51.8c0-0.7,0.6-1.3,1.3-1.3s1.3,0.6,1.3,1.3V57c0.9-1.2,2.1-2.2,4-2.2c2.7,0,5.4,2.2,5.4,6v0
		c0,3.9-2.6,6-5.4,6c-1.9,0-3.1-1-4-2v0.6c0,0.7-0.6,1.3-1.3,1.3c-0.7,0-1.3-0.6-1.3-1.3V51.8z M188.9,60.9L188.9,60.9
		c0-2.3-1.5-3.8-3.3-3.8s-3.4,1.5-3.4,3.7v0c0,2.2,1.6,3.7,3.4,3.7C187.4,64.6,188.9,63.2,188.9,60.9z"/>
	<path class="st0" d="M203.5,65.5c0,0.7-0.6,1.3-1.3,1.3c-0.7,0-1.3-0.6-1.3-1.3v-0.6c-0.7,1.1-1.8,2-3.6,2c-2.6,0-4.1-1.8-4.1-4.5
		v-6.2c0-0.7,0.6-1.3,1.3-1.3c0.7,0,1.3,0.6,1.3,1.3v5.4c0,1.8,0.9,2.8,2.5,2.8c1.5,0,2.6-1.1,2.6-2.9v-5.3c0-0.7,0.6-1.3,1.3-1.3
		c0.7,0,1.3,0.6,1.3,1.3V65.5z"/>
	<path class="st0" d="M205.3,65.5c-0.3-0.2-0.5-0.5-0.5-0.9c0-0.6,0.5-1.1,1.1-1.1c0.2,0,0.4,0.1,0.6,0.2c1.1,0.7,2.3,1.1,3.3,1.1
		c1.1,0,1.8-0.5,1.8-1.3v0c0-0.9-1.2-1.2-2.6-1.6c-1.7-0.5-3.6-1.2-3.6-3.4v0c0-2.2,1.8-3.5,4.1-3.5c1.2,0,2.5,0.4,3.7,0.9
		c0.4,0.2,0.6,0.6,0.6,1c0,0.6-0.5,1.1-1.1,1.1c-0.2,0-0.4,0-0.5-0.1c-0.9-0.5-1.9-0.8-2.7-0.8c-1,0-1.6,0.5-1.6,1.1v0
		c0,0.9,1.3,1.2,2.6,1.6c1.7,0.5,3.6,1.3,3.6,3.4v0c0,2.4-1.9,3.7-4.3,3.7C208.3,66.9,206.6,66.5,205.3,65.5z"/>
	<path class="st0" d="M215.6,52c0-0.8,0.7-1.3,1.5-1.3c0.9,0,1.5,0.5,1.5,1.3v0.1c0,0.8-0.7,1.3-1.5,1.3c-0.9,0-1.5-0.5-1.5-1.3V52z
		 M215.8,56.3c0-0.7,0.6-1.3,1.3-1.3s1.3,0.6,1.3,1.3v9.2c0,0.7-0.6,1.3-1.3,1.3c-0.7,0-1.3-0.6-1.3-1.3V56.3z"/>
	<path class="st0" d="M220.9,56.3c0-0.7,0.6-1.3,1.3-1.3s1.3,0.6,1.3,1.3v0.6c0.7-1.1,1.8-2,3.6-2c2.6,0,4.1,1.8,4.1,4.4v6.2
		c0,0.7-0.6,1.3-1.3,1.3s-1.3-0.6-1.3-1.3v-5.4c0-1.8-0.9-2.8-2.5-2.8c-1.5,0-2.6,1.1-2.6,2.9v5.3c0,0.7-0.6,1.3-1.3,1.3
		c-0.7,0-1.3-0.6-1.3-1.3V56.3z"/>
	<path class="st0" d="M238.7,67c-3.4,0-6-2.4-6-6v0c0-3.3,2.4-6.1,5.7-6.1c3.7,0,5.5,3,5.5,5.7c0,0.7-0.6,1.3-1.3,1.3h-7.3
		c0.3,1.9,1.6,2.9,3.3,2.9c1.1,0,2-0.4,2.8-1c0.2-0.2,0.4-0.2,0.7-0.2c0.6,0,1.1,0.5,1.1,1.1c0,0.3-0.2,0.6-0.4,0.8
		C241.8,66.4,240.5,67,238.7,67z M241.4,60.1c-0.2-1.7-1.2-3.1-2.9-3.1c-1.6,0-2.8,1.3-3,3.1H241.4z"/>
	<path class="st0" d="M245.1,65.5c-0.3-0.2-0.5-0.5-0.5-0.9c0-0.6,0.5-1.1,1.1-1.1c0.2,0,0.4,0.1,0.6,0.2c1.1,0.7,2.3,1.1,3.3,1.1
		c1.1,0,1.8-0.5,1.8-1.3v0c0-0.9-1.2-1.2-2.6-1.6c-1.7-0.5-3.6-1.2-3.6-3.4v0c0-2.2,1.8-3.5,4.1-3.5c1.2,0,2.5,0.4,3.7,0.9
		c0.4,0.2,0.6,0.6,0.6,1c0,0.6-0.5,1.1-1.1,1.1c-0.2,0-0.4,0-0.5-0.1c-0.9-0.5-1.9-0.8-2.7-0.8c-1,0-1.6,0.5-1.6,1.1v0
		c0,0.9,1.3,1.2,2.6,1.6c1.7,0.5,3.6,1.3,3.6,3.4v0c0,2.4-1.9,3.7-4.3,3.7C248.1,66.9,246.5,66.5,245.1,65.5z"/>
	<path class="st0" d="M254.8,65.5c-0.3-0.2-0.5-0.5-0.5-0.9c0-0.6,0.5-1.1,1.1-1.1c0.2,0,0.4,0.1,0.6,0.2c1.1,0.7,2.3,1.1,3.3,1.1
		c1.1,0,1.8-0.5,1.8-1.3v0c0-0.9-1.2-1.2-2.6-1.6c-1.7-0.5-3.6-1.2-3.6-3.4v0c0-2.2,1.8-3.5,4.1-3.5c1.2,0,2.5,0.4,3.7,0.9
		c0.4,0.2,0.6,0.6,0.6,1c0,0.6-0.5,1.1-1.1,1.1c-0.2,0-0.4,0-0.5-0.1c-0.9-0.5-1.9-0.8-2.7-0.8c-1,0-1.6,0.5-1.6,1.1v0
		c0,0.9,1.3,1.2,2.6,1.6c1.7,0.5,3.6,1.3,3.6,3.4v0c0,2.4-1.9,3.7-4.3,3.7C257.8,66.9,256.2,66.5,254.8,65.5z"/>
	<path class="st0" d="M39,85L39,85c0-3.3,2.6-6.1,6.1-6.1c1.8,0,3.1,0.6,4.1,1.5c0.2,0.2,0.4,0.5,0.4,0.9c0,0.7-0.6,1.2-1.2,1.2
		c-0.3,0-0.6-0.1-0.8-0.3c-0.7-0.6-1.4-1-2.5-1c-1.9,0-3.4,1.7-3.4,3.7v0c0,2.1,1.4,3.7,3.5,3.7c1.1,0,1.9-0.4,2.6-1
		c0.2-0.1,0.4-0.3,0.7-0.3c0.6,0,1.1,0.5,1.1,1.2c0,0.4-0.1,0.6-0.4,0.8c-1,1-2.3,1.7-4.2,1.7C41.6,91,39,88.3,39,85z"/>
	<path class="st0" d="M51.1,75.8c0-0.7,0.6-1.3,1.3-1.3c0.7,0,1.3,0.6,1.3,1.3v5c0.7-1.1,1.8-2,3.6-2c2.6,0,4.1,1.8,4.1,4.4v6.2
		c0,0.7-0.6,1.3-1.3,1.3s-1.3-0.6-1.3-1.3v-5.4c0-1.8-0.9-2.8-2.5-2.8c-1.5,0-2.6,1.1-2.6,2.9v5.3c0,0.7-0.6,1.3-1.3,1.3
		c-0.7,0-1.3-0.6-1.3-1.3V75.8z"/>
	<path class="st0" d="M69,91c-3.4,0-6-2.4-6-6v0c0-3.3,2.4-6.1,5.7-6.1c3.7,0,5.5,3,5.5,5.7c0,0.7-0.6,1.3-1.3,1.3h-7.3
		c0.3,1.9,1.6,2.9,3.3,2.9c1.1,0,2-0.4,2.8-1c0.2-0.2,0.4-0.2,0.7-0.2c0.6,0,1.1,0.5,1.1,1.1c0,0.3-0.2,0.6-0.4,0.8
		C72.1,90.4,70.8,91,69,91z M71.6,84.1c-0.2-1.7-1.2-3.1-2.9-3.1c-1.6,0-2.8,1.3-3,3.1H71.6z"/>
	<path class="st0" d="M75.2,85L75.2,85c0-3.3,2.6-6.1,6.1-6.1c1.8,0,3.1,0.6,4.1,1.5c0.2,0.2,0.4,0.5,0.4,0.9c0,0.7-0.6,1.2-1.2,1.2
		c-0.3,0-0.6-0.1-0.8-0.3c-0.7-0.6-1.4-1-2.5-1c-1.9,0-3.4,1.7-3.4,3.7v0c0,2.1,1.4,3.7,3.5,3.7c1.1,0,1.9-0.4,2.6-1
		c0.2-0.1,0.4-0.3,0.7-0.3c0.6,0,1.1,0.5,1.1,1.2c0,0.4-0.1,0.6-0.4,0.8c-1,1-2.3,1.7-4.2,1.7C77.8,91,75.2,88.3,75.2,85z"/>
	<path class="st0" d="M87.3,75.8c0-0.7,0.6-1.3,1.3-1.3c0.7,0,1.3,0.6,1.3,1.3v8.6l5-4.9c0.4-0.4,0.7-0.6,1.1-0.6
		c0.7,0,1.2,0.6,1.2,1.2c0,0.4-0.2,0.8-0.6,1.1l-3.1,2.8l3.5,4.6c0.2,0.3,0.4,0.6,0.4,0.9c0,0.7-0.6,1.2-1.3,1.2
		c-0.5,0-0.8-0.2-1.2-0.6l-3.3-4.4L90,87.5v2c0,0.7-0.6,1.3-1.3,1.3c-0.7,0-1.3-0.6-1.3-1.3V75.8z"/>
	<path class="st0" d="M99.1,75.8c0-0.7,0.6-1.3,1.3-1.3s1.3,0.6,1.3,1.3v13.6c0,0.7-0.6,1.3-1.3,1.3c-0.7,0-1.3-0.6-1.3-1.3V75.8z"
		/>
	<path class="st0" d="M104.1,76c0-0.8,0.7-1.3,1.5-1.3c0.9,0,1.5,0.5,1.5,1.3v0.1c0,0.8-0.7,1.3-1.5,1.3c-0.9,0-1.5-0.5-1.5-1.3V76z
		 M104.3,80.3c0-0.7,0.6-1.3,1.3-1.3s1.3,0.6,1.3,1.3v9.2c0,0.7-0.6,1.3-1.3,1.3c-0.7,0-1.3-0.6-1.3-1.3V80.3z"/>
	<path class="st0" d="M108.9,89.5c-0.3-0.2-0.5-0.5-0.5-0.9c0-0.6,0.5-1.1,1.1-1.1c0.2,0,0.4,0.1,0.6,0.2c1.1,0.7,2.3,1.1,3.3,1.1
		c1.1,0,1.8-0.5,1.8-1.3v0c0-0.9-1.2-1.2-2.6-1.6c-1.7-0.5-3.6-1.2-3.6-3.4v0c0-2.2,1.8-3.5,4.1-3.5c1.2,0,2.5,0.4,3.7,0.9
		c0.4,0.2,0.6,0.6,0.6,1c0,0.6-0.5,1.1-1.1,1.1c-0.2,0-0.4,0-0.5-0.1c-0.9-0.5-1.9-0.8-2.7-0.8c-1,0-1.6,0.5-1.6,1.1v0
		c0,0.9,1.3,1.2,2.6,1.6c1.7,0.5,3.6,1.3,3.6,3.4v0c0,2.4-1.9,3.7-4.3,3.7C111.9,90.9,110.3,90.5,108.9,89.5z"/>
	<path class="st0" d="M119.6,87.5v-6.1h-0.4c-0.6,0-1.1-0.5-1.1-1.1s0.5-1.1,1.1-1.1h0.4v-2c0-0.7,0.6-1.3,1.3-1.3
		c0.7,0,1.3,0.6,1.3,1.3v2h2.1c0.6,0,1.2,0.5,1.2,1.1s-0.5,1.1-1.2,1.1h-2.1v5.7c0,1,0.5,1.5,1.4,1.5c0.3,0,0.6-0.1,0.7-0.1
		c0.6,0,1.1,0.5,1.1,1.1c0,0.5-0.3,0.9-0.7,1c-0.6,0.2-1.1,0.3-1.8,0.3C121,90.9,119.6,90,119.6,87.5z"/>
	<path class="st0" d="M131.7,87.4L131.7,87.4c0-2.6,2-3.8,4.8-3.8c1.3,0,2.2,0.2,3.1,0.5v-0.3c0-1.6-1-2.5-2.9-2.5
		c-1,0-1.8,0.2-2.6,0.5c-0.2,0-0.3,0.1-0.4,0.1c-0.6,0-1.1-0.5-1.1-1.1c0-0.5,0.3-0.9,0.7-1.1c1.1-0.4,2.2-0.7,3.7-0.7
		c1.7,0,3,0.5,3.9,1.3c0.9,0.8,1.3,2.1,1.3,3.6v5.7c0,0.7-0.6,1.3-1.3,1.3c-0.8,0-1.3-0.5-1.3-1.1v-0.4c-0.8,0.9-2,1.7-3.8,1.7
		C133.7,90.9,131.7,89.7,131.7,87.4z M139.7,86.5v-0.8c-0.7-0.3-1.6-0.5-2.6-0.5c-1.7,0-2.7,0.7-2.7,1.9v0c0,1.1,1,1.8,2.3,1.8
		C138.4,89,139.7,88,139.7,86.5z"/>
	<path class="st0" d="M144.3,80.3c0-0.7,0.6-1.3,1.3-1.3s1.3,0.6,1.3,1.3v0.6c0.7-1.1,1.8-2,3.6-2c2.6,0,4.1,1.8,4.1,4.4v6.2
		c0,0.7-0.6,1.3-1.3,1.3s-1.3-0.6-1.3-1.3v-5.4c0-1.8-0.9-2.8-2.5-2.8c-1.5,0-2.6,1.1-2.6,2.9v5.3c0,0.7-0.6,1.3-1.3,1.3
		c-0.7,0-1.3-0.6-1.3-1.3V80.3z"/>
	<path class="st0" d="M168.3,89.5c0,0.7-0.6,1.3-1.3,1.3c-0.7,0-1.3-0.6-1.3-1.3v-0.7c-0.9,1.2-2.1,2.2-4,2.2c-2.7,0-5.4-2.2-5.4-6
		v0c0-3.9,2.6-6,5.4-6c1.9,0,3.1,0.9,4,2v-5c0-0.7,0.6-1.3,1.3-1.3c0.7,0,1.3,0.6,1.3,1.3V89.5z M159,84.9L159,84.9
		c0,2.3,1.5,3.8,3.3,3.8c1.8,0,3.4-1.5,3.4-3.7v0c0-2.2-1.6-3.7-3.4-3.7C160.5,81.2,159,82.6,159,84.9z"/>
	<path class="st0" d="M176.6,81.4h-0.5c-0.6,0-1.1-0.5-1.1-1.1c0-0.6,0.5-1.1,1.1-1.1h0.5v-0.9c0-1.3,0.3-2.2,0.9-2.9
		c0.6-0.6,1.5-0.9,2.6-0.9c0.5,0,1,0,1.3,0.1c0.5,0.1,0.9,0.5,0.9,1.1c0,0.6-0.5,1.1-1.1,1.1c-0.2,0-0.4,0-0.5,0
		c-1,0-1.5,0.6-1.5,1.8v0.6h2.1c0.6,0,1.1,0.5,1.1,1.1c0,0.6-0.5,1.1-1.1,1.1h-2v8.1c0,0.7-0.6,1.3-1.3,1.3c-0.7,0-1.3-0.6-1.3-1.3
		V81.4z M184.3,76c0-0.8,0.7-1.3,1.5-1.3s1.5,0.5,1.5,1.3v0.1c0,0.8-0.7,1.3-1.5,1.3s-1.5-0.5-1.5-1.3V76z M184.5,80.3
		c0-0.7,0.6-1.3,1.3-1.3s1.3,0.6,1.3,1.3v9.2c0,0.7-0.6,1.3-1.3,1.3c-0.7,0-1.3-0.6-1.3-1.3V80.3z"/>
	<path class="st0" d="M189.5,80.3c0-0.7,0.6-1.3,1.3-1.3s1.3,0.6,1.3,1.3v0.6c0.7-1.1,1.8-2,3.6-2c2.6,0,4.1,1.8,4.1,4.4v6.2
		c0,0.7-0.6,1.3-1.3,1.3s-1.3-0.6-1.3-1.3v-5.4c0-1.8-0.9-2.8-2.5-2.8c-1.5,0-2.6,1.1-2.6,2.9v5.3c0,0.7-0.6,1.3-1.3,1.3
		c-0.7,0-1.3-0.6-1.3-1.3V80.3z"/>
	<path class="st0" d="M213.4,89.5c0,0.7-0.6,1.3-1.3,1.3c-0.7,0-1.3-0.6-1.3-1.3v-0.7c-0.9,1.2-2.1,2.2-4,2.2c-2.7,0-5.4-2.2-5.4-6
		v0c0-3.9,2.6-6,5.4-6c1.9,0,3.1,0.9,4,2v-5c0-0.7,0.6-1.3,1.3-1.3c0.7,0,1.3,0.6,1.3,1.3V89.5z M204.1,84.9L204.1,84.9
		c0,2.3,1.5,3.8,3.3,3.8c1.8,0,3.4-1.5,3.4-3.7v0c0-2.2-1.6-3.7-3.4-3.7C205.6,81.2,204.1,82.6,204.1,84.9z"/>
	<path class="st0" d="M220.6,85L220.6,85c0-3.4,2.6-6.1,6.2-6.1s6.2,2.7,6.2,6v0c0,3.3-2.6,6.1-6.2,6.1
		C223.2,91,220.6,88.3,220.6,85z M230.3,85L230.3,85c0-2.1-1.5-3.8-3.6-3.8c-2.1,0-3.5,1.7-3.5,3.7v0c0,2,1.5,3.7,3.5,3.7
		C228.9,88.6,230.3,87,230.3,85z"/>
	<path class="st0" d="M244.9,89.5c0,0.7-0.6,1.3-1.3,1.3c-0.7,0-1.3-0.6-1.3-1.3v-0.6c-0.7,1.1-1.8,2-3.6,2c-2.6,0-4.1-1.8-4.1-4.5
		v-6.2c0-0.7,0.6-1.3,1.3-1.3c0.7,0,1.3,0.6,1.3,1.3v5.4c0,1.8,0.9,2.8,2.5,2.8c1.5,0,2.6-1.1,2.6-2.9v-5.3c0-0.7,0.6-1.3,1.3-1.3
		c0.7,0,1.3,0.6,1.3,1.3V89.5z"/>
	<path class="st0" d="M247.6,87.5v-6.1h-0.4c-0.6,0-1.1-0.5-1.1-1.1s0.5-1.1,1.1-1.1h0.4v-2c0-0.7,0.6-1.3,1.3-1.3
		c0.7,0,1.3,0.6,1.3,1.3v2h2.1c0.6,0,1.2,0.5,1.2,1.1s-0.5,1.1-1.2,1.1h-2.1v5.7c0,1,0.5,1.5,1.4,1.5c0.3,0,0.6-0.1,0.7-0.1
		c0.6,0,1.1,0.5,1.1,1.1c0,0.5-0.3,0.9-0.7,1c-0.6,0.2-1.1,0.3-1.8,0.3C249,90.9,247.6,90,247.6,87.5z"/>
	<path class="st0" d="M42.1,113.7l-3.1-8.8c-0.1-0.2-0.1-0.5-0.1-0.7c0-0.6,0.5-1.2,1.3-1.2c0.7,0,1.1,0.4,1.3,1.1l2.2,7l2.3-7
		c0.2-0.6,0.7-1.1,1.4-1.1h0.2c0.7,0,1.2,0.4,1.4,1.1l2.3,7l2.3-7.1c0.2-0.6,0.6-1,1.3-1c0.7,0,1.3,0.6,1.3,1.2
		c0,0.2-0.1,0.5-0.1,0.6l-3.2,8.9c-0.3,0.8-0.8,1.2-1.5,1.2h-0.1c-0.7,0-1.2-0.4-1.5-1.1l-2.3-6.9l-2.3,6.9
		c-0.2,0.8-0.8,1.1-1.4,1.1h-0.1C42.9,114.9,42.4,114.5,42.1,113.7z"/>
	<path class="st0" d="M57.3,99.8c0-0.7,0.6-1.3,1.3-1.3c0.7,0,1.3,0.6,1.3,1.3v5c0.7-1.1,1.8-2,3.6-2c2.6,0,4.1,1.8,4.1,4.4v6.2
		c0,0.7-0.6,1.3-1.3,1.3s-1.3-0.6-1.3-1.3v-5.4c0-1.8-0.9-2.8-2.5-2.8c-1.5,0-2.6,1.1-2.6,2.9v5.3c0,0.7-0.6,1.3-1.3,1.3
		c-0.7,0-1.3-0.6-1.3-1.3V99.8z"/>
	<path class="st0" d="M69.1,111.4L69.1,111.4c0-2.6,2-3.8,4.8-3.8c1.3,0,2.2,0.2,3.1,0.5v-0.3c0-1.6-1-2.5-2.9-2.5
		c-1,0-1.8,0.2-2.6,0.5c-0.2,0-0.3,0.1-0.4,0.1c-0.6,0-1.1-0.5-1.1-1.1c0-0.5,0.3-0.9,0.7-1.1c1.1-0.4,2.2-0.7,3.7-0.7
		c1.7,0,3,0.5,3.9,1.3c0.9,0.8,1.3,2.1,1.3,3.6v5.7c0,0.7-0.6,1.3-1.3,1.3c-0.8,0-1.3-0.5-1.3-1.1v-0.4c-0.8,0.9-2,1.7-3.8,1.7
		C71,114.9,69.1,113.7,69.1,111.4z M77.1,110.5v-0.8c-0.7-0.3-1.6-0.5-2.6-0.5c-1.7,0-2.7,0.7-2.7,1.9v0c0,1.1,1,1.8,2.3,1.8
		C75.7,113,77.1,112,77.1,110.5z"/>
	<path class="st0" d="M82.1,111.5v-6.1h-0.4c-0.6,0-1.1-0.5-1.1-1.1s0.5-1.1,1.1-1.1h0.4v-2c0-0.7,0.6-1.3,1.3-1.3
		c0.7,0,1.3,0.6,1.3,1.3v2h2.1c0.6,0,1.2,0.5,1.2,1.1s-0.5,1.1-1.2,1.1h-2.1v5.7c0,1,0.5,1.5,1.4,1.5c0.3,0,0.6-0.1,0.7-0.1
		c0.6,0,1.1,0.5,1.1,1.1c0,0.5-0.3,0.9-0.7,1c-0.6,0.2-1.1,0.3-1.8,0.3C83.5,114.9,82.1,114,82.1,111.5z"/>
	<path class="st0" d="M95.6,111.5v-6.1h-0.4c-0.6,0-1.1-0.5-1.1-1.1s0.5-1.1,1.1-1.1h0.4v-2c0-0.7,0.6-1.3,1.3-1.3
		c0.7,0,1.3,0.6,1.3,1.3v2h2.1c0.6,0,1.2,0.5,1.2,1.1s-0.5,1.1-1.2,1.1h-2.1v5.7c0,1,0.5,1.5,1.4,1.5c0.3,0,0.6-0.1,0.7-0.1
		c0.6,0,1.1,0.5,1.1,1.1c0,0.5-0.3,0.9-0.7,1c-0.6,0.2-1.1,0.3-1.8,0.3C97,114.9,95.6,114,95.6,111.5z"/>
	<path class="st0" d="M102,109L102,109c0-3.4,2.6-6.1,6.2-6.1c3.6,0,6.2,2.7,6.2,6v0c0,3.3-2.6,6.1-6.2,6.1
		C104.6,115,102,112.3,102,109z M111.7,109L111.7,109c0-2.1-1.5-3.8-3.6-3.8c-2.1,0-3.5,1.7-3.5,3.7v0c0,2,1.5,3.7,3.5,3.7
		C110.4,112.6,111.7,111,111.7,109z"/>
	<path class="st0" d="M132.9,113.5c0,0.7-0.6,1.3-1.3,1.3c-0.7,0-1.3-0.6-1.3-1.3v-0.7c-0.9,1.2-2.1,2.2-4,2.2c-2.7,0-5.4-2.2-5.4-6
		v0c0-3.9,2.6-6,5.4-6c1.9,0,3.1,0.9,4,2v-5c0-0.7,0.6-1.3,1.3-1.3c0.7,0,1.3,0.6,1.3,1.3V113.5z M123.6,108.9L123.6,108.9
		c0,2.3,1.5,3.8,3.3,3.8c1.8,0,3.4-1.5,3.4-3.7v0c0-2.2-1.6-3.7-3.4-3.7C125.1,105.2,123.6,106.6,123.6,108.9z"/>
	<path class="st0" d="M134.5,109L134.5,109c0-3.4,2.6-6.1,6.2-6.1s6.2,2.7,6.2,6v0c0,3.3-2.6,6.1-6.2,6.1
		C137.1,115,134.5,112.3,134.5,109z M144.2,109L144.2,109c0-2.1-1.5-3.8-3.6-3.8c-2.1,0-3.5,1.7-3.5,3.7v0c0,2,1.5,3.7,3.5,3.7
		C142.9,112.6,144.2,111,144.2,109z"/>
	<path class="st0" d="M154,104.3c0-0.7,0.6-1.3,1.3-1.3s1.3,0.6,1.3,1.3v0.6c0.7-1.1,1.8-2,3.6-2c2.6,0,4.1,1.8,4.1,4.4v6.2
		c0,0.7-0.6,1.3-1.3,1.3s-1.3-0.6-1.3-1.3v-5.4c0-1.8-0.9-2.8-2.5-2.8c-1.5,0-2.6,1.1-2.6,2.9v5.3c0,0.7-0.6,1.3-1.3,1.3
		c-0.7,0-1.3-0.6-1.3-1.3V104.3z"/>
	<path class="st0" d="M171.9,115c-3.4,0-6-2.4-6-6v0c0-3.3,2.4-6.1,5.7-6.1c3.7,0,5.5,3,5.5,5.7c0,0.7-0.6,1.3-1.3,1.3h-7.3
		c0.3,1.9,1.6,2.9,3.3,2.9c1.1,0,2-0.4,2.8-1c0.2-0.2,0.4-0.2,0.7-0.2c0.6,0,1.1,0.5,1.1,1.1c0,0.3-0.2,0.6-0.4,0.8
		C175,114.4,173.7,115,171.9,115z M174.5,108.1c-0.2-1.7-1.2-3.1-2.9-3.1c-1.6,0-2.8,1.3-3,3.1H174.5z"/>
	<path class="st0" d="M178.1,112.8l3.3-4l-3.1-3.6c-0.3-0.4-0.4-0.7-0.4-1c0-0.7,0.6-1.2,1.2-1.2c0.5,0,0.9,0.2,1.2,0.7l2.6,3.4
		l2.7-3.4c0.3-0.4,0.7-0.7,1.1-0.7c0.7,0,1.3,0.5,1.3,1.2c0,0.4-0.2,0.6-0.4,0.9l-3.1,3.8l3.3,3.9c0.3,0.4,0.4,0.7,0.4,1
		c0,0.7-0.6,1.2-1.2,1.2c-0.5,0-0.9-0.2-1.2-0.7l-2.8-3.6l-2.8,3.6c-0.3,0.4-0.7,0.7-1.2,0.7c-0.7,0-1.2-0.5-1.2-1.2
		C177.7,113.3,177.8,113,178.1,112.8z"/>
	<path class="st0" d="M190.3,111.5v-6.1h-0.4c-0.6,0-1.1-0.5-1.1-1.1s0.5-1.1,1.1-1.1h0.4v-2c0-0.7,0.6-1.3,1.3-1.3
		c0.7,0,1.3,0.6,1.3,1.3v2h2.1c0.6,0,1.2,0.5,1.2,1.1s-0.5,1.1-1.2,1.1H193v5.7c0,1,0.5,1.5,1.4,1.5c0.3,0,0.6-0.1,0.7-0.1
		c0.6,0,1.1,0.5,1.1,1.1c0,0.5-0.3,0.9-0.7,1c-0.6,0.2-1.1,0.3-1.8,0.3C191.7,114.9,190.3,114,190.3,111.5z"/>
	<path class="st0" d="M199,111.6c0.9,0,1.5,0.7,1.5,1.5v0.2c0,0.9-0.7,1.5-1.5,1.5c-0.9,0-1.6-0.7-1.6-1.5v-0.2
		C197.5,112.2,198.1,111.6,199,111.6z"/>
</g>
</svg>
