<?xml version="1.0" encoding="utf-8"?>
<!-- Generator: Adobe Illustrator 21.1.0, SVG Export Plug-In . SVG Version: 6.00 Build 0)  -->
<svg version="1.1" id="Layer_1" xmlns="http://www.w3.org/2000/svg" xmlns:xlink="http://www.w3.org/1999/xlink" x="0px" y="0px"
	 viewBox="0 0 300 600" style="enable-background:new 0 0 300 600;" xml:space="preserve">
<style type="text/css">
	.st0{fill:#133C7D;}
</style>
<g>
	<path class="st0" d="M40.1,52.5c0-0.7,0.6-1.3,1.4-1.3c0.7,0,1.3,0.6,1.3,1.3v12.9c0,0.7-0.6,1.3-1.3,1.3c-0.8,0-1.4-0.6-1.4-1.3
		V52.5z"/>
	<path class="st0" d="M45.1,65.5c-0.3-0.2-0.5-0.5-0.5-0.9c0-0.6,0.5-1.1,1.1-1.1c0.2,0,0.4,0.1,0.6,0.2c1.1,0.7,2.3,1.1,3.3,1.1
		c1.1,0,1.8-0.5,1.8-1.3v0c0-0.9-1.2-1.2-2.6-1.6c-1.7-0.5-3.6-1.2-3.6-3.4v0c0-2.2,1.8-3.5,4.1-3.5c1.2,0,2.5,0.4,3.7,0.9
		c0.4,0.2,0.6,0.6,0.6,1c0,0.6-0.5,1.1-1.1,1.1c-0.2,0-0.4,0-0.5-0.1C51,57.3,50.1,57,49.2,57c-1,0-1.6,0.5-1.6,1.1v0
		c0,0.9,1.3,1.2,2.6,1.6c1.7,0.5,3.6,1.3,3.6,3.4v0c0,2.4-1.9,3.7-4.3,3.7C48.1,66.9,46.4,66.5,45.1,65.5z"/>
	<path class="st0" d="M61.2,70c-0.4-0.1-0.8-0.5-0.8-1.1c0-0.7,0.5-1.1,1.1-1.1c0.2,0,0.4,0,0.5,0.1c0.3,0.1,0.5,0.2,0.9,0.2
		c0.8,0,1.2-0.3,1.7-1.2l0.1-0.2l-4.3-9.6c-0.1-0.2-0.2-0.5-0.2-0.6c0-0.7,0.6-1.3,1.3-1.3c0.7,0,1.1,0.4,1.3,1l3.1,7.7l2.9-7.7
		c0.2-0.6,0.6-1,1.3-1c0.7,0,1.3,0.5,1.3,1.3c0,0.2-0.1,0.5-0.1,0.6L67,67c-1,2.4-2,3.3-3.9,3.3C62.3,70.3,61.8,70.2,61.2,70z"/>
	<path class="st0" d="M71.7,61L71.7,61c0-3.4,2.6-6.1,6.2-6.1c3.6,0,6.2,2.7,6.2,6v0c0,3.3-2.6,6.1-6.2,6.1
		C74.3,67,71.7,64.3,71.7,61z M81.4,61L81.4,61c0-2.1-1.5-3.8-3.6-3.8c-2.1,0-3.5,1.7-3.5,3.7v0c0,2,1.5,3.7,3.5,3.7
		C80,64.6,81.4,63,81.4,61z"/>
	<path class="st0" d="M96,65.5c0,0.7-0.6,1.3-1.3,1.3c-0.7,0-1.3-0.6-1.3-1.3v-0.6c-0.7,1.1-1.8,2-3.6,2c-2.6,0-4.1-1.8-4.1-4.5
		v-6.2c0-0.7,0.6-1.3,1.3-1.3c0.7,0,1.3,0.6,1.3,1.3v5.4c0,1.8,0.9,2.8,2.5,2.8c1.5,0,2.6-1.1,2.6-2.9v-5.3c0-0.7,0.6-1.3,1.3-1.3
		c0.7,0,1.3,0.6,1.3,1.3V65.5z"/>
	<path class="st0" d="M98.2,56.3c0-0.7,0.6-1.3,1.3-1.3c0.7,0,1.3,0.6,1.3,1.3v1.2c0.6-1.5,1.8-2.6,2.9-2.6c0.8,0,1.3,0.5,1.3,1.3
		c0,0.7-0.5,1.2-1.1,1.3c-1.9,0.3-3.2,1.8-3.2,4.5v3.4c0,0.7-0.6,1.3-1.3,1.3c-0.7,0-1.3-0.6-1.3-1.3V56.3z"/>
	<path class="st0" d="M111.7,51.8c0-0.7,0.6-1.3,1.3-1.3s1.3,0.6,1.3,1.3V57c0.9-1.2,2.1-2.2,4-2.2c2.7,0,5.4,2.2,5.4,6v0
		c0,3.9-2.6,6-5.4,6c-1.9,0-3.1-1-4-2v0.6c0,0.7-0.6,1.3-1.3,1.3c-0.7,0-1.3-0.6-1.3-1.3V51.8z M121,60.9L121,60.9
		c0-2.3-1.5-3.8-3.3-3.8c-1.8,0-3.4,1.5-3.4,3.7v0c0,2.2,1.6,3.7,3.4,3.7C119.5,64.6,121,63.2,121,60.9z"/>
	<path class="st0" d="M135.7,65.5c0,0.7-0.6,1.3-1.3,1.3c-0.7,0-1.3-0.6-1.3-1.3v-0.6c-0.7,1.1-1.8,2-3.6,2c-2.6,0-4.1-1.8-4.1-4.5
		v-6.2c0-0.7,0.6-1.3,1.3-1.3c0.7,0,1.3,0.6,1.3,1.3v5.4c0,1.8,0.9,2.8,2.5,2.8c1.5,0,2.6-1.1,2.6-2.9v-5.3c0-0.7,0.6-1.3,1.3-1.3
		c0.7,0,1.3,0.6,1.3,1.3V65.5z"/>
	<path class="st0" d="M137.4,65.5c-0.3-0.2-0.5-0.5-0.5-0.9c0-0.6,0.5-1.1,1.1-1.1c0.2,0,0.4,0.1,0.6,0.2c1.1,0.7,2.3,1.1,3.3,1.1
		c1.1,0,1.8-0.5,1.8-1.3v0c0-0.9-1.2-1.2-2.6-1.6c-1.7-0.5-3.6-1.2-3.6-3.4v0c0-2.2,1.8-3.5,4.1-3.5c1.2,0,2.5,0.4,3.7,0.9
		c0.4,0.2,0.6,0.6,0.6,1c0,0.6-0.5,1.1-1.1,1.1c-0.2,0-0.4,0-0.5-0.1c-0.9-0.5-1.9-0.8-2.7-0.8c-1,0-1.6,0.5-1.6,1.1v0
		c0,0.9,1.3,1.2,2.6,1.6c1.7,0.5,3.6,1.3,3.6,3.4v0c0,2.4-1.9,3.7-4.3,3.7C140.4,66.9,138.8,66.5,137.4,65.5z"/>
	<path class="st0" d="M147.8,52c0-0.8,0.7-1.3,1.5-1.3s1.5,0.5,1.5,1.3v0.1c0,0.8-0.7,1.3-1.5,1.3s-1.5-0.5-1.5-1.3V52z M148,56.3
		c0-0.7,0.6-1.3,1.3-1.3s1.3,0.6,1.3,1.3v9.2c0,0.7-0.6,1.3-1.3,1.3c-0.7,0-1.3-0.6-1.3-1.3V56.3z"/>
	<path class="st0" d="M153,56.3c0-0.7,0.6-1.3,1.3-1.3s1.3,0.6,1.3,1.3v0.6c0.7-1.1,1.8-2,3.6-2c2.6,0,4.1,1.8,4.1,4.4v6.2
		c0,0.7-0.6,1.3-1.3,1.3s-1.3-0.6-1.3-1.3v-5.4c0-1.8-0.9-2.8-2.5-2.8c-1.5,0-2.6,1.1-2.6,2.9v5.3c0,0.7-0.6,1.3-1.3,1.3
		c-0.7,0-1.3-0.6-1.3-1.3V56.3z"/>
	<path class="st0" d="M170.9,67c-3.4,0-6-2.4-6-6v0c0-3.3,2.4-6.1,5.7-6.1c3.7,0,5.5,3,5.5,5.7c0,0.7-0.6,1.3-1.3,1.3h-7.3
		c0.3,1.9,1.6,2.9,3.3,2.9c1.1,0,2-0.4,2.8-1c0.2-0.2,0.4-0.2,0.7-0.2c0.6,0,1.1,0.5,1.1,1.1c0,0.3-0.2,0.6-0.4,0.8
		C174,66.4,172.7,67,170.9,67z M173.5,60.1c-0.2-1.7-1.2-3.1-2.9-3.1c-1.6,0-2.8,1.3-3,3.1H173.5z"/>
	<path class="st0" d="M177.3,65.5c-0.3-0.2-0.5-0.5-0.5-0.9c0-0.6,0.5-1.1,1.1-1.1c0.2,0,0.4,0.1,0.6,0.2c1.1,0.7,2.3,1.1,3.3,1.1
		c1.1,0,1.8-0.5,1.8-1.3v0c0-0.9-1.2-1.2-2.6-1.6c-1.7-0.5-3.6-1.2-3.6-3.4v0c0-2.2,1.8-3.5,4.1-3.5c1.2,0,2.5,0.4,3.7,0.9
		c0.4,0.2,0.6,0.6,0.6,1c0,0.6-0.5,1.1-1.1,1.1c-0.2,0-0.4,0-0.5-0.1c-0.9-0.5-1.9-0.8-2.7-0.8c-1,0-1.6,0.5-1.6,1.1v0
		c0,0.9,1.3,1.2,2.6,1.6c1.7,0.5,3.6,1.3,3.6,3.4v0c0,2.4-1.9,3.7-4.3,3.7C180.2,66.9,178.6,66.5,177.3,65.5z"/>
	<path class="st0" d="M187,65.5c-0.3-0.2-0.5-0.5-0.5-0.9c0-0.6,0.5-1.1,1.1-1.1c0.2,0,0.4,0.1,0.6,0.2c1.1,0.7,2.3,1.1,3.3,1.1
		c1.1,0,1.8-0.5,1.8-1.3v0c0-0.9-1.2-1.2-2.6-1.6c-1.7-0.5-3.6-1.2-3.6-3.4v0c0-2.2,1.8-3.5,4.1-3.5c1.2,0,2.5,0.4,3.7,0.9
		c0.4,0.2,0.6,0.6,0.6,1c0,0.6-0.5,1.1-1.1,1.1c-0.2,0-0.4,0-0.5-0.1c-0.9-0.5-1.9-0.8-2.7-0.8c-1,0-1.6,0.5-1.6,1.1v0
		c0,0.9,1.3,1.2,2.6,1.6c1.7,0.5,3.6,1.3,3.6,3.4v0c0,2.4-1.9,3.7-4.3,3.7C189.9,66.9,188.3,66.5,187,65.5z"/>
	<path class="st0" d="M202.8,56.3c0-0.7,0.6-1.3,1.3-1.3s1.3,0.6,1.3,1.3v1.2c0.6-1.5,1.8-2.6,2.9-2.6c0.8,0,1.3,0.5,1.3,1.3
		c0,0.7-0.5,1.2-1.1,1.3c-1.9,0.3-3.2,1.8-3.2,4.5v3.4c0,0.7-0.6,1.3-1.3,1.3c-0.7,0-1.3-0.6-1.3-1.3V56.3z"/>
	<path class="st0" d="M215.8,67c-3.4,0-6-2.4-6-6v0c0-3.3,2.4-6.1,5.7-6.1c3.7,0,5.5,3,5.5,5.7c0,0.7-0.6,1.3-1.3,1.3h-7.3
		c0.3,1.9,1.6,2.9,3.3,2.9c1.1,0,2-0.4,2.8-1c0.2-0.2,0.4-0.2,0.7-0.2c0.6,0,1.1,0.5,1.1,1.1c0,0.3-0.2,0.6-0.4,0.8
		C218.9,66.4,217.6,67,215.8,67z M218.4,60.1c-0.2-1.7-1.2-3.1-2.9-3.1c-1.6,0-2.8,1.3-3,3.1H218.4z"/>
	<path class="st0" d="M221.9,63.4L221.9,63.4c0-2.6,2-3.8,4.8-3.8c1.3,0,2.2,0.2,3.1,0.5v-0.3c0-1.6-1-2.5-2.9-2.5
		c-1,0-1.8,0.2-2.6,0.5c-0.2,0-0.3,0.1-0.4,0.1c-0.6,0-1.1-0.5-1.1-1.1c0-0.5,0.3-0.9,0.7-1.1c1.1-0.4,2.2-0.7,3.7-0.7
		c1.7,0,3,0.5,3.8,1.3c0.9,0.8,1.3,2.1,1.3,3.6v5.7c0,0.7-0.6,1.3-1.3,1.3c-0.8,0-1.3-0.5-1.3-1.1v-0.4c-0.8,0.9-2,1.7-3.8,1.7
		C223.8,66.9,221.9,65.7,221.9,63.4z M229.8,62.5v-0.8c-0.7-0.3-1.6-0.5-2.6-0.5c-1.7,0-2.7,0.7-2.7,1.9v0c0,1.1,1,1.8,2.3,1.8
		C228.5,65,229.8,64,229.8,62.5z"/>
	<path class="st0" d="M245.9,65.5c0,0.7-0.6,1.3-1.3,1.3c-0.7,0-1.3-0.6-1.3-1.3v-0.7c-0.9,1.2-2.1,2.2-4,2.2c-2.7,0-5.4-2.2-5.4-6
		v0c0-3.9,2.6-6,5.4-6c1.9,0,3.1,0.9,4,2v-5c0-0.7,0.6-1.3,1.3-1.3c0.7,0,1.3,0.6,1.3,1.3V65.5z M236.5,60.9L236.5,60.9
		c0,2.3,1.5,3.8,3.3,3.8c1.8,0,3.4-1.5,3.4-3.7v0c0-2.2-1.6-3.7-3.4-3.7C238,57.2,236.5,58.6,236.5,60.9z"/>
	<path class="st0" d="M248.4,70c-0.4-0.1-0.8-0.5-0.8-1.1c0-0.7,0.5-1.1,1.1-1.1c0.2,0,0.4,0,0.5,0.1c0.3,0.1,0.6,0.2,0.9,0.2
		c0.8,0,1.2-0.3,1.6-1.2l0.1-0.2l-4.3-9.6c-0.1-0.2-0.2-0.5-0.2-0.6c0-0.7,0.6-1.3,1.3-1.3c0.7,0,1.1,0.4,1.3,1l3.1,7.7l2.9-7.7
		c0.2-0.6,0.6-1,1.3-1c0.7,0,1.3,0.5,1.3,1.3c0,0.2-0.1,0.5-0.1,0.6L254.1,67c-1,2.4-2,3.3-3.9,3.3C249.5,70.3,248.9,70.2,248.4,70z
		"/>
	<path class="st0" d="M40.2,87.5v-6.1h-0.4c-0.6,0-1.1-0.5-1.1-1.1s0.5-1.1,1.1-1.1h0.4v-2c0-0.7,0.6-1.3,1.3-1.3
		c0.7,0,1.3,0.6,1.3,1.3v2H45c0.6,0,1.2,0.5,1.2,1.1s-0.5,1.1-1.2,1.1h-2.1v5.7c0,1,0.5,1.5,1.4,1.5c0.3,0,0.6-0.1,0.7-0.1
		c0.6,0,1.1,0.5,1.1,1.1c0,0.5-0.3,0.9-0.7,1c-0.6,0.2-1.1,0.3-1.8,0.3C41.6,90.9,40.2,90,40.2,87.5z"/>
	<path class="st0" d="M46.6,85L46.6,85c0-3.4,2.6-6.1,6.2-6.1c3.6,0,6.2,2.7,6.2,6v0c0,3.3-2.6,6.1-6.2,6.1
		C49.3,91,46.6,88.3,46.6,85z M56.4,85L56.4,85c0-2.1-1.5-3.8-3.6-3.8c-2.1,0-3.5,1.7-3.5,3.7v0c0,2,1.5,3.7,3.5,3.7
		C55,88.6,56.4,87,56.4,85z"/>
	<path class="st0" d="M65.7,89.5c-0.3-0.2-0.5-0.5-0.5-0.9c0-0.6,0.5-1.1,1.1-1.1c0.2,0,0.4,0.1,0.6,0.2c1.1,0.7,2.3,1.1,3.3,1.1
		c1.1,0,1.8-0.5,1.8-1.3v0c0-0.9-1.2-1.2-2.6-1.6c-1.7-0.5-3.6-1.2-3.6-3.4v0c0-2.2,1.8-3.5,4.1-3.5c1.2,0,2.5,0.4,3.7,0.9
		c0.4,0.2,0.6,0.6,0.6,1c0,0.6-0.5,1.1-1.1,1.1c-0.2,0-0.4,0-0.5-0.1c-0.9-0.5-1.9-0.8-2.7-0.8c-1,0-1.6,0.5-1.6,1.1v0
		c0,0.9,1.3,1.2,2.6,1.6c1.7,0.5,3.6,1.3,3.6,3.4v0c0,2.4-1.9,3.7-4.3,3.7C68.6,90.9,67,90.5,65.7,89.5z"/>
	<path class="st0" d="M78.3,89.7l-3.1-8.8c-0.1-0.2-0.1-0.5-0.1-0.7c0-0.6,0.5-1.2,1.3-1.2c0.7,0,1.1,0.4,1.3,1.1l2.2,7l2.3-7
		c0.2-0.6,0.7-1.1,1.4-1.1h0.2c0.7,0,1.2,0.4,1.4,1.1l2.3,7l2.3-7.1c0.2-0.6,0.6-1,1.3-1c0.7,0,1.3,0.6,1.3,1.2
		c0,0.2-0.1,0.5-0.1,0.6l-3.2,8.9c-0.3,0.8-0.8,1.2-1.5,1.2h-0.1c-0.7,0-1.2-0.4-1.5-1.1l-2.3-6.9l-2.3,6.9
		c-0.2,0.8-0.8,1.1-1.4,1.1h-0.1C79.1,90.9,78.6,90.5,78.3,89.7z"/>
	<path class="st0" d="M93.5,76c0-0.8,0.7-1.3,1.5-1.3c0.9,0,1.5,0.5,1.5,1.3v0.1c0,0.8-0.7,1.3-1.5,1.3c-0.9,0-1.5-0.5-1.5-1.3V76z
		 M93.7,80.3c0-0.7,0.6-1.3,1.3-1.3s1.3,0.6,1.3,1.3v9.2c0,0.7-0.6,1.3-1.3,1.3c-0.7,0-1.3-0.6-1.3-1.3V80.3z"/>
	<path class="st0" d="M99.3,87.5v-6.1h-0.4c-0.6,0-1.1-0.5-1.1-1.1s0.5-1.1,1.1-1.1h0.4v-2c0-0.7,0.6-1.3,1.3-1.3
		c0.7,0,1.3,0.6,1.3,1.3v2h2.1c0.6,0,1.2,0.5,1.2,1.1s-0.5,1.1-1.2,1.1H102v5.7c0,1,0.5,1.5,1.4,1.5c0.3,0,0.6-0.1,0.7-0.1
		c0.6,0,1.1,0.5,1.1,1.1c0,0.5-0.3,0.9-0.7,1c-0.6,0.2-1.1,0.3-1.8,0.3C100.7,90.9,99.3,90,99.3,87.5z"/>
	<path class="st0" d="M105.7,85L105.7,85c0-3.3,2.6-6.1,6.1-6.1c1.8,0,3.1,0.6,4.1,1.5c0.2,0.2,0.4,0.5,0.4,0.9
		c0,0.7-0.5,1.2-1.2,1.2c-0.3,0-0.6-0.1-0.8-0.3c-0.7-0.6-1.4-1-2.5-1c-1.9,0-3.4,1.7-3.4,3.7v0c0,2.1,1.4,3.7,3.5,3.7
		c1.1,0,1.9-0.4,2.6-1c0.2-0.1,0.4-0.3,0.7-0.3c0.6,0,1.1,0.5,1.1,1.2c0,0.4-0.1,0.6-0.4,0.8c-1,1-2.3,1.7-4.2,1.7
		C108.3,91,105.7,88.3,105.7,85z"/>
	<path class="st0" d="M117.8,75.8c0-0.7,0.6-1.3,1.3-1.3s1.3,0.6,1.3,1.3v5c0.7-1.1,1.8-2,3.6-2c2.6,0,4.1,1.8,4.1,4.4v6.2
		c0,0.7-0.6,1.3-1.3,1.3s-1.3-0.6-1.3-1.3v-5.4c0-1.8-0.9-2.8-2.5-2.8c-1.5,0-2.6,1.1-2.6,2.9v5.3c0,0.7-0.6,1.3-1.3,1.3
		c-0.7,0-1.3-0.6-1.3-1.3V75.8z"/>
	<path class="st0" d="M136.4,87.5v-6.1H136c-0.6,0-1.1-0.5-1.1-1.1s0.5-1.1,1.1-1.1h0.4v-2c0-0.7,0.6-1.3,1.3-1.3
		c0.7,0,1.3,0.6,1.3,1.3v2h2.1c0.6,0,1.2,0.5,1.2,1.1s-0.5,1.1-1.2,1.1h-2.1v5.7c0,1,0.5,1.5,1.4,1.5c0.3,0,0.6-0.1,0.7-0.1
		c0.6,0,1.1,0.5,1.1,1.1c0,0.5-0.3,0.9-0.7,1c-0.6,0.2-1.1,0.3-1.8,0.3C137.8,90.9,136.4,90,136.4,87.5z"/>
	<path class="st0" d="M142.8,85L142.8,85c0-3.4,2.6-6.1,6.2-6.1c3.6,0,6.2,2.7,6.2,6v0c0,3.3-2.6,6.1-6.2,6.1
		C145.4,91,142.8,88.3,142.8,85z M152.6,85L152.6,85c0-2.1-1.5-3.8-3.6-3.8c-2.1,0-3.5,1.7-3.5,3.7v0c0,2,1.5,3.7,3.5,3.7
		C151.2,88.6,152.6,87,152.6,85z"/>
	<path class="st0" d="M161.6,87.4L161.6,87.4c0-2.6,2-3.8,4.8-3.8c1.3,0,2.2,0.2,3.1,0.5v-0.3c0-1.6-1-2.5-2.9-2.5
		c-1,0-1.8,0.2-2.6,0.5c-0.2,0-0.3,0.1-0.4,0.1c-0.6,0-1.1-0.5-1.1-1.1c0-0.5,0.3-0.9,0.7-1.1c1.1-0.4,2.2-0.7,3.7-0.7
		c1.7,0,3,0.5,3.9,1.3c0.9,0.8,1.3,2.1,1.3,3.6v5.7c0,0.7-0.6,1.3-1.3,1.3c-0.8,0-1.3-0.5-1.3-1.1v-0.4c-0.8,0.9-2,1.7-3.8,1.7
		C163.5,90.9,161.6,89.7,161.6,87.4z M169.5,86.5v-0.8c-0.7-0.3-1.6-0.5-2.6-0.5c-1.7,0-2.7,0.7-2.7,1.9v0c0,1.1,1,1.8,2.3,1.8
		C168.2,89,169.5,88,169.5,86.5z"/>
	<path class="st0" d="M174.1,80.3c0-0.7,0.6-1.3,1.3-1.3s1.3,0.6,1.3,1.3v0.6c0.7-1.1,1.8-2,3.6-2c2.6,0,4.1,1.8,4.1,4.4v6.2
		c0,0.7-0.6,1.3-1.3,1.3s-1.3-0.6-1.3-1.3v-5.4c0-1.8-0.9-2.8-2.5-2.8c-1.5,0-2.6,1.1-2.6,2.9v5.3c0,0.7-0.6,1.3-1.3,1.3
		c-0.7,0-1.3-0.6-1.3-1.3V80.3z"/>
	<path class="st0" d="M192,80.4c0-0.9,0.7-1.7,1.7-1.7s1.7,0.7,1.7,1.7v0.1c0.8-1,1.8-1.9,3.5-1.9c2.5,0,4,1.7,4,4.4v6.1
		c0,0.9-0.7,1.7-1.7,1.7s-1.7-0.7-1.7-1.7v-5c0-1.6-0.7-2.4-2-2.4c-1.3,0-2.1,0.8-2.1,2.4v5c0,0.9-0.7,1.7-1.7,1.7s-1.7-0.7-1.7-1.7
		V80.4z"/>
	<path class="st0" d="M204.6,76.2c0-0.9,0.7-1.7,1.7-1.7c0.9,0,1.7,0.7,1.7,1.7v4.4c0.8-1.1,1.9-1.9,3.7-1.9c2.8,0,5.4,2.2,5.4,6.1
		v0c0,3.9-2.6,6.1-5.4,6.1c-1.8,0-2.9-0.8-3.7-1.8v0c0,0.9-0.7,1.6-1.7,1.6c-0.9,0-1.7-0.7-1.7-1.7V76.2z M213.6,84.8L213.6,84.8
		c0-2-1.3-3.3-2.9-3.3s-2.9,1.3-2.9,3.3v0c0,2,1.3,3.3,2.9,3.3S213.6,86.8,213.6,84.8z"/>
	<path class="st0" d="M218.4,80.4c0-0.9,0.7-1.7,1.7-1.7s1.7,0.7,1.7,1.7v0.1c0.8-1,1.8-1.9,3.5-1.9c2.5,0,4,1.7,4,4.4v6.1
		c0,0.9-0.7,1.7-1.7,1.7s-1.7-0.7-1.7-1.7v-5c0-1.6-0.7-2.4-2-2.4c-1.3,0-2.1,0.8-2.1,2.4v5c0,0.9-0.7,1.7-1.7,1.7s-1.7-0.7-1.7-1.7
		V80.4z"/>
	<path class="st0" d="M232.1,76.5h-1.6c-0.3,0-0.6-0.3-0.6-0.6c0-0.3,0.3-0.6,0.6-0.6h4.6c0.3,0,0.6,0.3,0.6,0.6
		c0,0.3-0.3,0.6-0.6,0.6h-1.6v5.1c0,0.4-0.3,0.6-0.7,0.6c-0.4,0-0.6-0.3-0.6-0.6V76.5z M237,75.9c0-0.4,0.3-0.6,0.6-0.6h0.2
		c0.3,0,0.5,0.2,0.6,0.3l2,3.3l2.1-3.3c0.1-0.2,0.3-0.3,0.6-0.3h0.2c0.3,0,0.6,0.3,0.6,0.6v5.7c0,0.4-0.3,0.6-0.6,0.6
		c-0.3,0-0.6-0.3-0.6-0.6v-4l-1.6,2.5c-0.1,0.2-0.3,0.3-0.6,0.3c-0.2,0-0.4-0.1-0.6-0.3l-1.6-2.4v3.9c0,0.4-0.3,0.6-0.6,0.6
		c-0.4,0-0.6-0.3-0.6-0.6V75.9z"/>
	<path class="st0" d="M39.7,104.3c0-0.7,0.6-1.3,1.3-1.3c0.7,0,1.3,0.6,1.3,1.3v0.7c0.9-1.2,2.1-2.2,4-2.2c2.7,0,5.4,2.2,5.4,6v0
		c0,3.9-2.6,6-5.4,6c-1.9,0-3.1-1-4-2v4.1c0,0.7-0.6,1.3-1.3,1.3c-0.7,0-1.3-0.6-1.3-1.3V104.3z M49,108.9L49,108.9
		c0-2.3-1.5-3.8-3.3-3.8s-3.4,1.5-3.4,3.7v0c0,2.2,1.6,3.7,3.4,3.7C47.5,112.6,49,111.2,49,108.9z"/>
	<path class="st0" d="M52.7,109L52.7,109c0-3.4,2.6-6.1,6.2-6.1c3.6,0,6.2,2.7,6.2,6v0c0,3.3-2.6,6.1-6.2,6.1
		C55.3,115,52.7,112.3,52.7,109z M62.4,109L62.4,109c0-2.1-1.5-3.8-3.6-3.8c-2.1,0-3.5,1.7-3.5,3.7v0c0,2,1.5,3.7,3.5,3.7
		C61.1,112.6,62.4,111,62.4,109z"/>
	<path class="st0" d="M68.7,113.7l-3.1-8.8c-0.1-0.2-0.1-0.5-0.1-0.7c0-0.6,0.5-1.2,1.3-1.2c0.7,0,1.1,0.4,1.3,1.1l2.2,7l2.3-7
		c0.2-0.6,0.7-1.1,1.4-1.1h0.2c0.7,0,1.2,0.4,1.4,1.1l2.3,7L80,104c0.2-0.6,0.6-1,1.3-1c0.7,0,1.3,0.6,1.3,1.2
		c0,0.2-0.1,0.5-0.1,0.6l-3.2,8.9c-0.3,0.8-0.8,1.2-1.5,1.2h-0.1c-0.7,0-1.2-0.4-1.5-1.1l-2.3-6.9l-2.3,6.9
		c-0.2,0.8-0.8,1.1-1.4,1.1h-0.1C69.5,114.9,69,114.5,68.7,113.7z"/>
	<path class="st0" d="M88.9,115c-3.4,0-6-2.4-6-6v0c0-3.3,2.4-6.1,5.7-6.1c3.7,0,5.5,3,5.5,5.7c0,0.7-0.6,1.3-1.3,1.3h-7.3
		c0.3,1.9,1.6,2.9,3.3,2.9c1.1,0,2-0.4,2.8-1c0.2-0.2,0.4-0.2,0.7-0.2c0.6,0,1.1,0.5,1.1,1.1c0,0.3-0.2,0.6-0.4,0.8
		C92.1,114.4,90.7,115,88.9,115z M91.6,108.1c-0.2-1.7-1.2-3.1-2.9-3.1c-1.6,0-2.8,1.3-3,3.1H91.6z"/>
	<path class="st0" d="M95.8,104.3c0-0.7,0.6-1.3,1.3-1.3c0.7,0,1.3,0.6,1.3,1.3v1.2c0.6-1.5,1.8-2.6,2.9-2.6c0.8,0,1.3,0.5,1.3,1.3
		c0,0.7-0.5,1.2-1.1,1.3c-1.9,0.3-3.2,1.8-3.2,4.5v3.4c0,0.7-0.6,1.3-1.3,1.3c-0.7,0-1.3-0.6-1.3-1.3V104.3z"/>
	<path class="st0" d="M108.7,115c-3.4,0-6-2.4-6-6v0c0-3.3,2.4-6.1,5.7-6.1c3.7,0,5.5,3,5.5,5.7c0,0.7-0.6,1.3-1.3,1.3h-7.3
		c0.3,1.9,1.6,2.9,3.3,2.9c1.1,0,2-0.4,2.8-1c0.2-0.2,0.4-0.2,0.7-0.2c0.6,0,1.1,0.5,1.1,1.1c0,0.3-0.2,0.6-0.4,0.8
		C111.8,114.4,110.5,115,108.7,115z M111.3,108.1c-0.2-1.7-1.2-3.1-2.9-3.1c-1.6,0-2.8,1.3-3,3.1H111.3z"/>
	<path class="st0" d="M127,113.5c0,0.7-0.6,1.3-1.3,1.3c-0.7,0-1.3-0.6-1.3-1.3v-0.7c-0.9,1.2-2.1,2.2-4,2.2c-2.7,0-5.4-2.2-5.4-6v0
		c0-3.9,2.6-6,5.4-6c1.9,0,3.1,0.9,4,2v-5c0-0.7,0.6-1.3,1.3-1.3c0.7,0,1.3,0.6,1.3,1.3V113.5z M117.7,108.9L117.7,108.9
		c0,2.3,1.5,3.8,3.3,3.8c1.8,0,3.4-1.5,3.4-3.7v0c0-2.2-1.6-3.7-3.4-3.7C119.2,105.2,117.7,106.6,117.7,108.9z"/>
	<path class="st0" d="M134.7,104.3c0-0.7,0.6-1.3,1.3-1.3s1.3,0.6,1.3,1.3v0.7c0.9-1.2,2.1-2.2,4-2.2c2.7,0,5.4,2.2,5.4,6v0
		c0,3.9-2.6,6-5.4,6c-1.9,0-3.1-1-4-2v4.1c0,0.7-0.6,1.3-1.3,1.3c-0.7,0-1.3-0.6-1.3-1.3V104.3z M144,108.9L144,108.9
		c0-2.3-1.5-3.8-3.3-3.8c-1.8,0-3.4,1.5-3.4,3.7v0c0,2.2,1.6,3.7,3.4,3.7C142.5,112.6,144,111.2,144,108.9z"/>
	<path class="st0" d="M148.5,99.8c0-0.7,0.6-1.3,1.3-1.3s1.3,0.6,1.3,1.3v13.6c0,0.7-0.6,1.3-1.3,1.3c-0.7,0-1.3-0.6-1.3-1.3V99.8z"
		/>
	<path class="st0" d="M152.8,111.4L152.8,111.4c0-2.6,2-3.8,4.8-3.8c1.3,0,2.2,0.2,3.1,0.5v-0.3c0-1.6-1-2.5-2.9-2.5
		c-1,0-1.8,0.2-2.6,0.5c-0.2,0-0.3,0.1-0.4,0.1c-0.6,0-1.1-0.5-1.1-1.1c0-0.5,0.3-0.9,0.7-1.1c1.1-0.4,2.2-0.7,3.7-0.7
		c1.7,0,3,0.5,3.9,1.3c0.9,0.8,1.3,2.1,1.3,3.6v5.7c0,0.7-0.6,1.3-1.3,1.3c-0.8,0-1.3-0.5-1.3-1.1v-0.4c-0.8,0.9-2,1.7-3.8,1.7
		C154.8,114.9,152.8,113.7,152.8,111.4z M160.8,110.5v-0.8c-0.7-0.3-1.6-0.5-2.6-0.5c-1.7,0-2.7,0.7-2.7,1.9v0c0,1.1,1,1.8,2.3,1.8
		C159.4,113,160.8,112,160.8,110.5z"/>
	<path class="st0" d="M165.4,104.3c0-0.7,0.6-1.3,1.3-1.3s1.3,0.6,1.3,1.3v0.6c0.7-1.1,1.8-2,3.6-2c2.6,0,4.1,1.8,4.1,4.4v6.2
		c0,0.7-0.6,1.3-1.3,1.3s-1.3-0.6-1.3-1.3v-5.4c0-1.8-0.9-2.8-2.5-2.8c-1.5,0-2.6,1.1-2.6,2.9v5.3c0,0.7-0.6,1.3-1.3,1.3
		c-0.7,0-1.3-0.6-1.3-1.3V104.3z"/>
	<path class="st0" d="M184,105.4h-0.5c-0.6,0-1.1-0.5-1.1-1.1c0-0.6,0.5-1.1,1.1-1.1h0.5v-0.9c0-1.3,0.3-2.2,0.9-2.9
		c0.6-0.6,1.5-0.9,2.6-0.9c0.5,0,1,0,1.3,0.1c0.5,0.1,0.9,0.5,0.9,1.1c0,0.6-0.5,1.1-1.1,1.1c-0.2,0-0.4,0-0.5,0
		c-1,0-1.5,0.6-1.5,1.8v0.6h2.1c0.6,0,1.1,0.5,1.1,1.1c0,0.6-0.5,1.1-1.1,1.1h-2v8.1c0,0.7-0.6,1.3-1.3,1.3c-0.7,0-1.3-0.6-1.3-1.3
		V105.4z"/>
	<path class="st0" d="M190.6,104.3c0-0.7,0.6-1.3,1.3-1.3s1.3,0.6,1.3,1.3v1.2c0.6-1.5,1.8-2.6,2.9-2.6c0.8,0,1.3,0.5,1.3,1.3
		c0,0.7-0.5,1.2-1.1,1.3c-1.9,0.3-3.2,1.8-3.2,4.5v3.4c0,0.7-0.6,1.3-1.3,1.3c-0.7,0-1.3-0.6-1.3-1.3V104.3z"/>
	<path class="st0" d="M197.6,109L197.6,109c0-3.4,2.6-6.1,6.2-6.1s6.2,2.7,6.2,6v0c0,3.3-2.6,6.1-6.2,6.1
		C200.2,115,197.6,112.3,197.6,109z M207.3,109L207.3,109c0-2.1-1.5-3.8-3.6-3.8c-2.1,0-3.5,1.7-3.5,3.7v0c0,2,1.5,3.7,3.5,3.7
		C205.9,112.6,207.3,111,207.3,109z"/>
	<path class="st0" d="M211.6,104.3c0-0.7,0.6-1.3,1.3-1.3s1.3,0.6,1.3,1.3v0.6c0.7-1,1.8-2,3.5-2c1.7,0,2.9,0.8,3.5,2
		c0.9-1.2,2.2-2,3.9-2c2.5,0,4.1,1.6,4.1,4.4v6.2c0,0.7-0.6,1.3-1.3,1.3s-1.3-0.6-1.3-1.3v-5.4c0-1.8-0.9-2.8-2.4-2.8
		c-1.5,0-2.5,1-2.5,2.9v5.3c0,0.7-0.6,1.3-1.3,1.3c-0.7,0-1.3-0.6-1.3-1.3v-5.4c0-1.8-0.9-2.8-2.4-2.8s-2.5,1.1-2.5,2.9v5.3
		c0,0.7-0.6,1.3-1.3,1.3c-0.7,0-1.3-0.6-1.3-1.3V104.3z"/>
	<path class="st0" d="M38.9,135.4L38.9,135.4c0-2.6,2-3.8,4.8-3.8c1.3,0,2.2,0.2,3.1,0.5v-0.3c0-1.6-1-2.5-2.9-2.5
		c-1,0-1.8,0.2-2.6,0.5c-0.2,0-0.3,0.1-0.4,0.1c-0.6,0-1.1-0.5-1.1-1.1c0-0.5,0.3-0.9,0.7-1.1c1.1-0.4,2.2-0.7,3.7-0.7
		c1.7,0,3,0.5,3.9,1.3c0.9,0.8,1.3,2.1,1.3,3.6v5.7c0,0.7-0.6,1.3-1.3,1.3c-0.8,0-1.3-0.5-1.3-1.1v-0.4c-0.8,0.9-2,1.7-3.8,1.7
		C40.8,138.9,38.9,137.7,38.9,135.4z M46.9,134.5v-0.8c-0.7-0.3-1.6-0.5-2.6-0.5c-1.7,0-2.7,0.7-2.7,1.9v0c0,1.1,1,1.8,2.3,1.8
		C45.5,137,46.9,136,46.9,134.5z"/>
	<path class="st0" d="M57,128.3c0-0.7,0.6-1.3,1.3-1.3c0.7,0,1.3,0.6,1.3,1.3v0.7c0.9-1.2,2.1-2.2,4-2.2c2.7,0,5.4,2.2,5.4,6v0
		c0,3.9-2.6,6-5.4,6c-1.9,0-3.1-1-4-2v4.1c0,0.7-0.6,1.3-1.3,1.3c-0.7,0-1.3-0.6-1.3-1.3V128.3z M66.3,132.9L66.3,132.9
		c0-2.3-1.5-3.8-3.3-3.8s-3.4,1.5-3.4,3.7v0c0,2.2,1.6,3.7,3.4,3.7C64.8,136.6,66.3,135.2,66.3,132.9z"/>
	<path class="st0" d="M70.6,128.3c0-0.7,0.6-1.3,1.3-1.3c0.7,0,1.3,0.6,1.3,1.3v1.2c0.6-1.5,1.8-2.6,2.9-2.6c0.8,0,1.3,0.5,1.3,1.3
		c0,0.7-0.5,1.2-1.1,1.3c-1.9,0.3-3.2,1.8-3.2,4.5v3.4c0,0.7-0.6,1.3-1.3,1.3c-0.7,0-1.3-0.6-1.3-1.3V128.3z"/>
	<path class="st0" d="M77.6,133L77.6,133c0-3.4,2.6-6.1,6.2-6.1c3.6,0,6.2,2.7,6.2,6v0c0,3.3-2.6,6.1-6.2,6.1
		C80.2,139,77.6,136.3,77.6,133z M87.3,133L87.3,133c0-2.1-1.5-3.8-3.6-3.8c-2.1,0-3.5,1.7-3.5,3.7v0c0,2,1.5,3.7,3.5,3.7
		C86,136.6,87.3,135,87.3,133z"/>
	<path class="st0" d="M95.9,138.9h-0.1c-0.7,0-1.2-0.5-1.5-1.2l-3.9-8.9c-0.1-0.2-0.2-0.4-0.2-0.7c0-0.7,0.6-1.3,1.3-1.3
		s1.1,0.4,1.3,1l3,7.7l3-7.7c0.2-0.5,0.6-0.9,1.3-0.9c0.7,0,1.3,0.5,1.3,1.3c0,0.2-0.1,0.5-0.2,0.6l-3.9,8.9
		C97.2,138.4,96.7,138.9,95.9,138.9z"/>
	<path class="st0" d="M102.9,124c0-0.8,0.7-1.3,1.5-1.3s1.5,0.5,1.5,1.3v0.1c0,0.8-0.7,1.3-1.5,1.3s-1.5-0.5-1.5-1.3V124z
		 M103.1,128.3c0-0.7,0.6-1.3,1.3-1.3s1.3,0.6,1.3,1.3v9.2c0,0.7-0.6,1.3-1.3,1.3c-0.7,0-1.3-0.6-1.3-1.3V128.3z"/>
	<path class="st0" d="M119.5,137.5c0,0.7-0.6,1.3-1.3,1.3c-0.7,0-1.3-0.6-1.3-1.3v-0.7c-0.9,1.2-2.1,2.2-4,2.2c-2.7,0-5.4-2.2-5.4-6
		v0c0-3.9,2.6-6,5.4-6c1.9,0,3.1,0.9,4,2v-5c0-0.7,0.6-1.3,1.3-1.3c0.7,0,1.3,0.6,1.3,1.3V137.5z M110.2,132.9L110.2,132.9
		c0,2.3,1.5,3.8,3.3,3.8c1.8,0,3.4-1.5,3.4-3.7v0c0-2.2-1.6-3.7-3.4-3.7C111.7,129.2,110.2,130.6,110.2,132.9z"/>
	<path class="st0" d="M127.1,139c-3.4,0-6-2.4-6-6v0c0-3.3,2.4-6.1,5.7-6.1c3.7,0,5.5,3,5.5,5.7c0,0.7-0.6,1.3-1.3,1.3h-7.3
		c0.3,1.9,1.6,2.9,3.3,2.9c1.1,0,2-0.4,2.8-1c0.2-0.2,0.4-0.2,0.7-0.2c0.6,0,1.1,0.5,1.1,1.1c0,0.3-0.2,0.6-0.4,0.8
		C130.2,138.4,128.9,139,127.1,139z M129.7,132.1c-0.2-1.7-1.2-3.1-2.9-3.1c-1.6,0-2.8,1.3-3,3.1H129.7z"/>
	<path class="st0" d="M133.9,128.3c0-0.7,0.6-1.3,1.3-1.3s1.3,0.6,1.3,1.3v1.2c0.6-1.5,1.8-2.6,2.9-2.6c0.8,0,1.3,0.5,1.3,1.3
		c0,0.7-0.5,1.2-1.1,1.3c-1.9,0.3-3.2,1.8-3.2,4.5v3.4c0,0.7-0.6,1.3-1.3,1.3c-0.7,0-1.3-0.6-1.3-1.3V128.3z"/>
	<path class="st0" d="M145.6,133.9c-0.5,0-0.9-0.4-0.9-0.9l-0.2-1.9c-0.1-0.6,0.3-1,0.9-1.1c2.1-0.2,3.2-1,3.2-2.4v0
		c0-1.2-0.9-2.1-2.5-2.1c-1.2,0-2.1,0.4-3,1.2c-0.2,0.2-0.5,0.3-0.8,0.3c-0.7,0-1.2-0.6-1.2-1.2c0-0.3,0.1-0.7,0.4-0.9
		c1.2-1.1,2.6-1.8,4.7-1.8c3.1,0,5.2,1.7,5.2,4.5v0c0,2.8-2,4-4.4,4.4l-0.1,1c-0.1,0.5-0.4,0.9-0.9,0.9H145.6z M145.6,135.6
		c0.9,0,1.6,0.7,1.6,1.5v0.2c0,0.9-0.7,1.5-1.6,1.5s-1.6-0.7-1.6-1.5v-0.2C144.1,136.2,144.7,135.6,145.6,135.6z"/>
</g>
</svg>
