<?xml version="1.0" encoding="utf-8"?>
<!-- Generator: Adobe Illustrator 21.1.0, SVG Export Plug-In . SVG Version: 6.00 Build 0)  -->
<svg version="1.1" id="Layer_2" xmlns="http://www.w3.org/2000/svg" xmlns:xlink="http://www.w3.org/1999/xlink" x="0px" y="0px"
	 viewBox="0 0 300 250" style="enable-background:new 0 0 300 250;" xml:space="preserve">
<style type="text/css">
	.st0{fill:#133C7D;}
</style>
<g>
	<path class="st0" d="M21.6,20.8c0-0.6,0.5-1.1,1.1-1.1H27c1.5,0,2.7,0.5,3.5,1.2c0.6,0.7,1,1.6,1,2.6v0c0,2-1.1,3.1-2.8,3.7l2.3,3
		c0.2,0.3,0.4,0.5,0.4,0.8c0,0.6-0.5,1-1,1c-0.5,0-0.8-0.2-1.1-0.6l-3-3.8h-2.7V31c0,0.6-0.5,1.1-1.1,1.1c-0.6,0-1.1-0.5-1.1-1.1
		V20.8z M26.9,25.8c1.5,0,2.5-0.8,2.5-2v0c0-1.3-0.9-2-2.5-2h-3.1v4.1H26.9z"/>
	<path class="st0" d="M37.1,32.2c-2.7,0-4.7-1.9-4.7-4.8v0c0-2.6,1.9-4.8,4.5-4.8c2.9,0,4.4,2.4,4.4,4.6c0,0.6-0.5,1-1,1h-5.8
		c0.2,1.5,1.3,2.3,2.7,2.3c0.9,0,1.6-0.3,2.2-0.8c0.2-0.1,0.3-0.2,0.5-0.2c0.5,0,0.8,0.4,0.8,0.9c0,0.3-0.1,0.5-0.3,0.6
		C39.6,31.7,38.6,32.2,37.1,32.2z M39.2,26.7c-0.1-1.4-0.9-2.4-2.3-2.4c-1.3,0-2.2,1-2.4,2.4H39.2z"/>
	<path class="st0" d="M42.7,20.2c0-0.6,0.5-1,1.1-1c0.6,0,1.1,0.5,1.1,1V31c0,0.6-0.5,1-1.1,1c-0.6,0-1.1-0.5-1.1-1V20.2z"/>
	<path class="st0" d="M46.9,34.6c-0.3-0.1-0.7-0.4-0.7-0.9c0-0.5,0.4-0.9,0.9-0.9c0.2,0,0.3,0,0.4,0.1c0.2,0.1,0.4,0.1,0.7,0.1
		c0.6,0,1-0.3,1.3-1l0.1-0.2l-3.4-7.7C46.1,24,46,23.8,46,23.7c0-0.6,0.5-1,1.1-1c0.5,0,0.8,0.3,1,0.8l2.5,6.1l2.3-6.1
		c0.2-0.4,0.5-0.8,1-0.8c0.6,0,1,0.4,1,1c0,0.2-0.1,0.4-0.1,0.5l-3.4,8.1c-0.8,1.9-1.6,2.6-3.1,2.6C47.7,34.9,47.3,34.8,46.9,34.6z"
		/>
	<path class="st0" d="M59.8,27.4L59.8,27.4c0-2.7,2.1-4.9,4.9-4.9c2.8,0,4.9,2.2,4.9,4.8v0c0,2.6-2.1,4.8-5,4.8
		C61.9,32.2,59.8,30.1,59.8,27.4z M67.6,27.4L67.6,27.4c0-1.7-1.2-3-2.8-3c-1.7,0-2.8,1.3-2.8,2.9v0c0,1.6,1.2,3,2.8,3
		C66.5,30.4,67.6,29,67.6,27.4z"/>
	<path class="st0" d="M70.9,23.7c0-0.6,0.5-1.1,1.1-1.1c0.6,0,1.1,0.5,1.1,1.1v0.5c0.6-0.9,1.5-1.6,2.9-1.6c2.1,0,3.3,1.4,3.3,3.5
		V31c0,0.6-0.5,1-1.1,1c-0.6,0-1.1-0.5-1.1-1v-4.3c0-1.4-0.7-2.3-2-2.3c-1.2,0-2.1,0.9-2.1,2.3V31c0,0.6-0.5,1-1.1,1
		c-0.6,0-1.1-0.5-1.1-1V23.7z"/>
	<path class="st0" d="M89.5,32.2c-2.7,0-4.7-1.9-4.7-4.8v0c0-2.6,1.9-4.8,4.5-4.8c2.9,0,4.4,2.4,4.4,4.6c0,0.6-0.5,1-1,1h-5.8
		c0.2,1.5,1.3,2.3,2.7,2.3c0.9,0,1.6-0.3,2.2-0.8c0.2-0.1,0.3-0.2,0.5-0.2c0.5,0,0.8,0.4,0.8,0.9c0,0.3-0.1,0.5-0.3,0.6
		C91.9,31.7,90.9,32.2,89.5,32.2z M91.6,26.7c-0.1-1.4-0.9-2.4-2.3-2.4c-1.3,0-2.2,1-2.4,2.4H91.6z"/>
	<path class="st0" d="M95.4,24.6H95c-0.5,0-0.9-0.4-0.9-0.9s0.4-0.9,0.9-0.9h0.4v-0.7c0-1,0.3-1.8,0.8-2.3c0.5-0.5,1.2-0.7,2.1-0.7
		c0.4,0,0.8,0,1.1,0.1c0.4,0.1,0.7,0.4,0.7,0.9c0,0.5-0.4,0.9-0.9,0.9c-0.1,0-0.3,0-0.4,0c-0.8,0-1.2,0.4-1.2,1.4v0.5h1.6
		c0.5,0,0.9,0.4,0.9,0.9s-0.4,0.9-0.9,0.9h-1.6V31c0,0.6-0.5,1-1.1,1c-0.6,0-1.1-0.5-1.1-1V24.6z"/>
	<path class="st0" d="M101,29.4v-4.9h-0.4c-0.5,0-0.9-0.4-0.9-0.9c0-0.5,0.4-0.9,0.9-0.9h0.4v-1.6c0-0.6,0.5-1.1,1.1-1.1
		c0.6,0,1,0.5,1,1.1v1.6h1.7c0.5,0,0.9,0.4,0.9,0.9c0,0.5-0.4,0.9-0.9,0.9h-1.7v4.5c0,0.8,0.4,1.2,1.1,1.2c0.2,0,0.5-0.1,0.5-0.1
		c0.5,0,0.9,0.4,0.9,0.9c0,0.4-0.3,0.7-0.6,0.8c-0.5,0.2-0.9,0.2-1.5,0.2C102.1,32.2,101,31.5,101,29.4z"/>
	<path class="st0" d="M106.8,23.7c0-0.6,0.5-1.1,1.1-1.1c0.6,0,1.1,0.5,1.1,1.1v0.6c0.7-1,1.6-1.7,3.2-1.7c2.2,0,4.3,1.7,4.3,4.8v0
		c0,3.1-2.1,4.8-4.3,4.8c-1.5,0-2.5-0.8-3.2-1.6v3.3c0,0.6-0.5,1-1.1,1c-0.6,0-1.1-0.5-1.1-1V23.7z M114.2,27.4L114.2,27.4
		c0-1.8-1.2-3-2.6-3c-1.4,0-2.7,1.2-2.7,3v0c0,1.8,1.3,3,2.7,3C113,30.4,114.2,29.2,114.2,27.4z"/>
	<path class="st0" d="M117.2,27.4L117.2,27.4c0-2.7,2.1-4.9,4.9-4.9c2.8,0,4.9,2.2,4.9,4.8v0c0,2.6-2.1,4.8-5,4.8
		C119.2,32.2,117.2,30.1,117.2,27.4z M124.9,27.4L124.9,27.4c0-1.7-1.2-3-2.8-3c-1.7,0-2.8,1.3-2.8,2.9v0c0,1.6,1.2,3,2.8,3
		C123.8,30.4,124.9,29,124.9,27.4z"/>
	<path class="st0" d="M127.9,31.1c-0.2-0.1-0.4-0.4-0.4-0.7c0-0.5,0.4-0.9,0.9-0.9c0.2,0,0.3,0.1,0.5,0.1c0.9,0.6,1.8,0.9,2.7,0.9
		c0.9,0,1.4-0.4,1.4-1v0c0-0.7-1-1-2.1-1.3c-1.4-0.4-2.9-0.9-2.9-2.7v0c0-1.8,1.5-2.8,3.3-2.8c1,0,2,0.3,2.9,0.8
		c0.3,0.2,0.5,0.4,0.5,0.8c0,0.5-0.4,0.9-0.9,0.9c-0.2,0-0.3,0-0.4-0.1c-0.8-0.4-1.5-0.6-2.2-0.6c-0.8,0-1.3,0.4-1.3,0.9v0
		c0,0.7,1,1,2.1,1.3c1.3,0.4,2.9,1,2.9,2.7v0c0,1.9-1.5,2.9-3.4,2.9C130.2,32.2,129,31.8,127.9,31.1z"/>
	<path class="st0" d="M135.7,33.6c0.8-0.3,1.2-0.8,1.2-1.6c-0.5-0.1-1-0.6-1-1.2v-0.1c0-0.7,0.5-1.2,1.2-1.2c0.8,0,1.3,0.6,1.3,1.5
		v0.2c0,1.2-0.3,2-0.9,2.6c-0.5,0.5-1.2,0.8-1.6,0.8c-0.4,0-0.5-0.2-0.5-0.5C135.3,33.8,135.5,33.6,135.7,33.6z"/>
	<path class="st0" d="M144.7,24.6h-0.4c-0.5,0-0.9-0.4-0.9-0.9s0.4-0.9,0.9-0.9h0.4v-0.7c0-1,0.3-1.8,0.8-2.3
		c0.5-0.5,1.2-0.7,2.1-0.7c0.4,0,0.8,0,1.1,0.1c0.4,0.1,0.7,0.4,0.7,0.9c0,0.5-0.4,0.9-0.9,0.9c-0.1,0-0.3,0-0.4,0
		c-0.8,0-1.2,0.4-1.2,1.4v0.5h1.6c0.5,0,0.9,0.4,0.9,0.9s-0.4,0.9-0.9,0.9h-1.6V31c0,0.6-0.5,1-1.1,1c-0.6,0-1-0.5-1-1V24.6z"/>
	<path class="st0" d="M149,29.3L149,29.3c0-2,1.6-3,3.8-3c1,0,1.8,0.2,2.5,0.4v-0.2c0-1.3-0.8-2-2.3-2c-0.8,0-1.5,0.1-2,0.4
		c-0.1,0-0.2,0.1-0.3,0.1c-0.5,0-0.9-0.4-0.9-0.9c0-0.4,0.3-0.7,0.6-0.8c0.9-0.3,1.8-0.5,3-0.5c1.4,0,2.4,0.4,3.1,1
		c0.7,0.7,1,1.6,1,2.9v4.6c0,0.6-0.5,1-1,1c-0.6,0-1-0.4-1-0.9v-0.4c-0.6,0.8-1.6,1.3-3,1.3C150.6,32.2,149,31.2,149,29.3z
		 M155.4,28.7V28c-0.5-0.2-1.3-0.4-2.1-0.4c-1.4,0-2.2,0.6-2.2,1.5v0c0,0.9,0.8,1.4,1.8,1.4C154.3,30.7,155.4,29.8,155.4,28.7z"/>
	<path class="st0" d="M158.8,30.5l2.6-3.2l-2.4-2.9c-0.2-0.3-0.3-0.5-0.3-0.8c0-0.6,0.5-1,1-1c0.4,0,0.7,0.2,1,0.5l2.1,2.7l2.1-2.7
		c0.2-0.3,0.5-0.5,0.9-0.5c0.6,0,1,0.4,1,0.9c0,0.3-0.1,0.5-0.3,0.7l-2.5,3l2.6,3.1c0.2,0.3,0.3,0.5,0.3,0.8c0,0.6-0.5,1-1,1
		c-0.4,0-0.7-0.2-1-0.5l-2.2-2.9l-2.2,2.9c-0.2,0.3-0.5,0.5-0.9,0.5c-0.5,0-1-0.4-1-0.9C158.5,30.9,158.6,30.7,158.8,30.5z"/>
	<path class="st0" d="M20.8,48.4L20.8,48.4c0-2.7,2.1-4.9,4.9-4.9c2.8,0,4.9,2.2,4.9,4.8v0c0,2.6-2.1,4.8-5,4.8
		C22.9,53.2,20.8,51.1,20.8,48.4z M28.6,48.4L28.6,48.4c0-1.7-1.2-3-2.8-3c-1.7,0-2.8,1.3-2.8,2.9v0c0,1.6,1.2,3,2.8,3
		C27.5,51.4,28.6,50,28.6,48.4z"/>
	<path class="st0" d="M31.9,44.7c0-0.6,0.5-1.1,1.1-1.1c0.6,0,1.1,0.5,1.1,1.1v0.9c0.5-1.2,1.4-2,2.3-2c0.7,0,1.1,0.4,1.1,1
		c0,0.6-0.4,0.9-0.8,1C35.1,46,34,47.1,34,49.3V52c0,0.6-0.5,1-1.1,1c-0.6,0-1.1-0.5-1.1-1V44.7z"/>
	<path class="st0" d="M42.6,44.7c0-0.6,0.5-1.1,1.1-1.1c0.6,0,1.1,0.5,1.1,1.1v0.4c0.6-0.8,1.4-1.6,2.8-1.6c1.3,0,2.3,0.6,2.8,1.6
		c0.7-1,1.7-1.6,3.1-1.6c2,0,3.2,1.3,3.2,3.5V52c0,0.6-0.5,1-1.1,1s-1.1-0.5-1.1-1v-4.3c0-1.5-0.7-2.3-1.9-2.3c-1.2,0-2,0.8-2,2.3
		V52c0,0.6-0.5,1-1.1,1c-0.6,0-1.1-0.5-1.1-1v-4.3c0-1.4-0.7-2.2-1.9-2.2c-1.2,0-2,0.9-2,2.3V52c0,0.6-0.5,1-1.1,1
		c-0.6,0-1.1-0.5-1.1-1V44.7z"/>
	<path class="st0" d="M57.8,48.4L57.8,48.4c0-2.7,2.1-4.9,4.9-4.9c2.8,0,4.9,2.2,4.9,4.8v0c0,2.6-2.1,4.8-5,4.8
		C59.9,53.2,57.8,51.1,57.8,48.4z M65.5,48.4L65.5,48.4c0-1.7-1.2-3-2.8-3c-1.7,0-2.8,1.3-2.8,2.9v0c0,1.6,1.2,3,2.8,3
		C64.4,51.4,65.5,50,65.5,48.4z"/>
	<path class="st0" d="M68.9,44.7c0-0.6,0.5-1.1,1.1-1.1c0.6,0,1.1,0.5,1.1,1.1v0.5c0.6-0.9,1.5-1.6,2.9-1.6c2.1,0,3.3,1.4,3.3,3.5
		V52c0,0.6-0.5,1-1.1,1c-0.6,0-1.1-0.5-1.1-1v-4.3c0-1.4-0.7-2.3-2-2.3c-1.2,0-2.1,0.9-2.1,2.3V52c0,0.6-0.5,1-1.1,1
		c-0.6,0-1.1-0.5-1.1-1V44.7z"/>
	<path class="st0" d="M78.8,41.3c0-0.6,0.5-1,1.2-1s1.2,0.4,1.2,1v0.1c0,0.6-0.5,1-1.2,1s-1.2-0.4-1.2-1V41.3z M78.9,44.7
		c0-0.6,0.5-1.1,1.1-1.1c0.6,0,1.1,0.5,1.1,1.1V52c0,0.6-0.5,1-1.1,1c-0.6,0-1.1-0.5-1.1-1V44.7z"/>
	<path class="st0" d="M83.3,50.4v-4.9H83c-0.5,0-0.9-0.4-0.9-0.9c0-0.5,0.4-0.9,0.9-0.9h0.4v-1.6c0-0.6,0.5-1.1,1.1-1.1
		c0.6,0,1,0.5,1,1.1v1.6h1.7c0.5,0,0.9,0.4,0.9,0.9c0,0.5-0.4,0.9-0.9,0.9h-1.7v4.5c0,0.8,0.4,1.2,1.1,1.2c0.2,0,0.5-0.1,0.5-0.1
		c0.5,0,0.9,0.4,0.9,0.9c0,0.4-0.3,0.7-0.6,0.8c-0.5,0.2-0.9,0.2-1.5,0.2C84.5,53.2,83.3,52.5,83.3,50.4z"/>
	<path class="st0" d="M88.4,48.4L88.4,48.4c0-2.7,2.1-4.9,4.9-4.9c2.8,0,4.9,2.2,4.9,4.8v0c0,2.6-2.1,4.8-5,4.8
		C90.5,53.2,88.4,51.1,88.4,48.4z M96.2,48.4L96.2,48.4c0-1.7-1.2-3-2.8-3c-1.7,0-2.8,1.3-2.8,2.9v0c0,1.6,1.2,3,2.8,3
		C95.1,51.4,96.2,50,96.2,48.4z"/>
	<path class="st0" d="M99.5,44.7c0-0.6,0.5-1.1,1.1-1.1c0.6,0,1.1,0.5,1.1,1.1v0.9c0.5-1.2,1.4-2,2.3-2c0.7,0,1.1,0.4,1.1,1
		c0,0.6-0.4,0.9-0.8,1c-1.5,0.3-2.5,1.4-2.5,3.6V52c0,0.6-0.5,1-1.1,1c-0.6,0-1.1-0.5-1.1-1V44.7z"/>
	<path class="st0" d="M109.8,53.2c-2.7,0-4.7-1.9-4.7-4.8v0c0-2.6,1.9-4.8,4.5-4.8c2.9,0,4.4,2.4,4.4,4.6c0,0.6-0.5,1-1,1h-5.8
		c0.2,1.5,1.3,2.3,2.7,2.3c0.9,0,1.6-0.3,2.2-0.8c0.2-0.1,0.3-0.2,0.5-0.2c0.5,0,0.8,0.4,0.8,0.9c0,0.3-0.1,0.5-0.3,0.6
		C112.2,52.7,111.2,53.2,109.8,53.2z M111.9,47.7c-0.1-1.4-0.9-2.4-2.3-2.4c-1.3,0-2.2,1-2.4,2.4H111.9z"/>
	<path class="st0" d="M124.3,52c0,0.6-0.5,1-1.1,1c-0.6,0-1.1-0.5-1.1-1v-0.6c-0.7,1-1.6,1.7-3.2,1.7c-2.2,0-4.3-1.7-4.3-4.8v0
		c0-3.1,2.1-4.8,4.3-4.8c1.5,0,2.5,0.8,3.2,1.6v-4c0-0.6,0.5-1,1-1c0.6,0,1.1,0.5,1.1,1V52z M116.8,48.4L116.8,48.4
		c0,1.8,1.2,3,2.7,3c1.4,0,2.7-1.2,2.7-3v0c0-1.8-1.3-3-2.7-3C118.1,45.4,116.8,46.5,116.8,48.4z"/>
	<path class="st0" d="M130,52.1c-0.2-0.1-0.4-0.4-0.4-0.7c0-0.5,0.4-0.9,0.9-0.9c0.2,0,0.3,0.1,0.5,0.1c0.9,0.6,1.8,0.9,2.7,0.9
		c0.9,0,1.4-0.4,1.4-1v0c0-0.7-1-1-2.1-1.3c-1.4-0.4-2.9-0.9-2.9-2.7v0c0-1.8,1.5-2.8,3.3-2.8c1,0,2,0.3,2.9,0.8
		c0.3,0.2,0.5,0.4,0.5,0.8c0,0.5-0.4,0.9-0.9,0.9c-0.2,0-0.3,0-0.4-0.1c-0.8-0.4-1.5-0.6-2.2-0.6c-0.8,0-1.3,0.4-1.3,0.9v0
		c0,0.7,1,1,2.1,1.3c1.3,0.4,2.9,1,2.9,2.7v0c0,1.9-1.5,2.9-3.4,2.9C132.3,53.2,131.1,52.8,130,52.1z"/>
	<path class="st0" d="M142.4,53.2c-2.7,0-4.7-1.9-4.7-4.8v0c0-2.6,1.9-4.8,4.5-4.8c2.9,0,4.4,2.4,4.4,4.6c0,0.6-0.5,1-1,1h-5.8
		c0.2,1.5,1.3,2.3,2.7,2.3c0.9,0,1.6-0.3,2.2-0.8c0.2-0.1,0.3-0.2,0.5-0.2c0.5,0,0.8,0.4,0.8,0.9c0,0.3-0.1,0.5-0.3,0.6
		C144.9,52.7,143.9,53.2,142.4,53.2z M144.5,47.7c-0.1-1.4-0.9-2.4-2.3-2.4c-1.3,0-2.2,1-2.4,2.4H144.5z"/>
	<path class="st0" d="M147.4,48.4L147.4,48.4c0-2.7,2-4.9,4.8-4.9c1.5,0,2.5,0.5,3.2,1.2c0.1,0.1,0.3,0.4,0.3,0.7c0,0.5-0.4,1-1,1
		c-0.3,0-0.5-0.1-0.6-0.2c-0.5-0.5-1.1-0.8-2-0.8c-1.5,0-2.7,1.3-2.7,2.9v0c0,1.6,1.1,3,2.8,3c0.8,0,1.5-0.3,2.1-0.8
		c0.1-0.1,0.3-0.2,0.6-0.2c0.5,0,0.9,0.4,0.9,0.9c0,0.3-0.1,0.5-0.3,0.7c-0.8,0.8-1.8,1.3-3.4,1.3C149.4,53.2,147.4,51.1,147.4,48.4
		z"/>
	<path class="st0" d="M165.2,52c0,0.6-0.5,1-1.1,1c-0.6,0-1.1-0.5-1.1-1v-0.5c-0.6,0.9-1.5,1.6-2.9,1.6c-2.1,0-3.3-1.4-3.3-3.6v-4.9
		c0-0.6,0.5-1.1,1-1.1c0.6,0,1.1,0.5,1.1,1.1V49c0,1.4,0.7,2.2,2,2.2c1.2,0,2.1-0.8,2.1-2.3v-4.3c0-0.6,0.5-1.1,1.1-1.1
		c0.6,0,1.1,0.5,1.1,1.1V52z"/>
	<path class="st0" d="M166.9,44.7c0-0.6,0.5-1.1,1-1.1c0.6,0,1.1,0.5,1.1,1.1v0.9c0.5-1.2,1.4-2,2.3-2c0.7,0,1.1,0.4,1.1,1
		c0,0.6-0.4,0.9-0.8,1c-1.5,0.3-2.5,1.4-2.5,3.6V52c0,0.6-0.5,1-1.1,1c-0.6,0-1-0.5-1-1V44.7z"/>
	<path class="st0" d="M173.2,41.3c0-0.6,0.5-1,1.2-1s1.2,0.4,1.2,1v0.1c0,0.6-0.5,1-1.2,1s-1.2-0.4-1.2-1V41.3z M173.3,44.7
		c0-0.6,0.5-1.1,1-1.1c0.6,0,1.1,0.5,1.1,1.1V52c0,0.6-0.5,1-1.1,1c-0.6,0-1-0.5-1-1V44.7z"/>
	<path class="st0" d="M177.7,50.4v-4.9h-0.3c-0.5,0-0.9-0.4-0.9-0.9c0-0.5,0.4-0.9,0.9-0.9h0.3v-1.6c0-0.6,0.5-1.1,1.1-1.1
		c0.6,0,1.1,0.5,1.1,1.1v1.6h1.7c0.5,0,0.9,0.4,0.9,0.9c0,0.5-0.4,0.9-0.9,0.9h-1.7v4.5c0,0.8,0.4,1.2,1.1,1.2
		c0.2,0,0.5-0.1,0.5-0.1c0.5,0,0.9,0.4,0.9,0.9c0,0.4-0.3,0.7-0.6,0.8c-0.5,0.2-0.9,0.2-1.5,0.2C178.8,53.2,177.7,52.5,177.7,50.4z"
		/>
	<path class="st0" d="M183.8,55.6c-0.3-0.1-0.7-0.4-0.7-0.9c0-0.5,0.4-0.9,0.9-0.9c0.2,0,0.3,0,0.4,0.1c0.2,0.1,0.4,0.1,0.7,0.1
		c0.6,0,1-0.3,1.3-1l0.1-0.2l-3.4-7.7c-0.1-0.2-0.1-0.4-0.1-0.5c0-0.6,0.5-1,1-1c0.5,0,0.8,0.3,1,0.8l2.5,6.1l2.3-6.1
		c0.2-0.4,0.5-0.8,1-0.8c0.6,0,1,0.4,1,1c0,0.2-0.1,0.4-0.1,0.5l-3.4,8.1c-0.8,1.9-1.6,2.6-3.1,2.6
		C184.7,55.9,184.2,55.8,183.8,55.6z"/>
	<path class="st0" d="M196.7,50.3L196.7,50.3c0-2,1.6-3,3.8-3c1,0,1.8,0.2,2.5,0.4v-0.2c0-1.3-0.8-2-2.3-2c-0.8,0-1.5,0.1-2,0.4
		c-0.1,0-0.2,0.1-0.3,0.1c-0.5,0-0.9-0.4-0.9-0.9c0-0.4,0.3-0.7,0.6-0.8c0.9-0.3,1.8-0.5,3-0.5c1.4,0,2.4,0.4,3.1,1
		c0.7,0.7,1,1.6,1,2.9v4.6c0,0.6-0.5,1-1,1c-0.6,0-1-0.4-1-0.9v-0.4c-0.6,0.8-1.6,1.3-3,1.3C198.2,53.2,196.7,52.2,196.7,50.3z
		 M203,49.7V49c-0.5-0.2-1.3-0.4-2.1-0.4c-1.4,0-2.2,0.6-2.2,1.5v0c0,0.9,0.8,1.4,1.8,1.4C201.9,51.7,203,50.8,203,49.7z"/>
	<path class="st0" d="M206.8,41.2c0-0.6,0.5-1,1-1c0.6,0,1.1,0.5,1.1,1V52c0,0.6-0.5,1-1.1,1c-0.6,0-1-0.5-1-1V41.2z"/>
	<path class="st0" d="M210.1,50.3L210.1,50.3c0-2,1.6-3,3.8-3c1,0,1.8,0.2,2.5,0.4v-0.2c0-1.3-0.8-2-2.3-2c-0.8,0-1.5,0.1-2,0.4
		c-0.1,0-0.2,0.1-0.3,0.1c-0.5,0-0.9-0.4-0.9-0.9c0-0.4,0.3-0.7,0.6-0.8c0.9-0.3,1.8-0.5,3-0.5c1.4,0,2.4,0.4,3.1,1
		c0.7,0.7,1,1.6,1,2.9v4.6c0,0.6-0.5,1-1,1c-0.6,0-1-0.4-1-0.9v-0.4c-0.6,0.8-1.6,1.3-3,1.3C211.7,53.2,210.1,52.2,210.1,50.3z
		 M216.5,49.7V49c-0.5-0.2-1.3-0.4-2.1-0.4c-1.4,0-2.2,0.6-2.2,1.5v0c0,0.9,0.8,1.4,1.8,1.4C215.4,51.7,216.5,50.8,216.5,49.7z"/>
	<path class="st0" d="M220.1,44.7c0-0.6,0.5-1.1,1-1.1c0.6,0,1.1,0.5,1.1,1.1v0.9c0.5-1.2,1.4-2,2.3-2c0.7,0,1.1,0.4,1.1,1
		c0,0.6-0.4,0.9-0.8,1c-1.5,0.3-2.5,1.4-2.5,3.6V52c0,0.6-0.5,1-1.1,1c-0.6,0-1-0.5-1-1V44.7z"/>
	<path class="st0" d="M226.4,44.7c0-0.6,0.5-1.1,1-1.1c0.6,0,1.1,0.5,1.1,1.1v0.4c0.6-0.8,1.4-1.6,2.8-1.6c1.3,0,2.3,0.6,2.8,1.6
		c0.7-1,1.7-1.6,3.1-1.6c2,0,3.2,1.3,3.2,3.5V52c0,0.6-0.5,1-1,1s-1.1-0.5-1.1-1v-4.3c0-1.5-0.7-2.3-1.9-2.3c-1.2,0-2,0.8-2,2.3V52
		c0,0.6-0.5,1-1,1c-0.6,0-1.1-0.5-1.1-1v-4.3c0-1.4-0.7-2.2-1.9-2.2s-2,0.9-2,2.3V52c0,0.6-0.5,1-1.1,1c-0.6,0-1-0.5-1-1V44.7z"/>
	<path class="st0" d="M241.8,52.1c-0.2-0.1-0.4-0.4-0.4-0.7c0-0.5,0.4-0.9,0.9-0.9c0.2,0,0.3,0.1,0.5,0.1c0.9,0.6,1.8,0.9,2.7,0.9
		c0.9,0,1.4-0.4,1.4-1v0c0-0.7-1-1-2.1-1.3c-1.4-0.4-2.9-0.9-2.9-2.7v0c0-1.8,1.5-2.8,3.3-2.8c1,0,2,0.3,2.9,0.8
		c0.3,0.2,0.5,0.4,0.5,0.8c0,0.5-0.4,0.9-0.9,0.9c-0.2,0-0.3,0-0.4-0.1c-0.8-0.4-1.5-0.6-2.2-0.6c-0.8,0-1.3,0.4-1.3,0.9v0
		c0,0.7,1,1,2.1,1.3c1.3,0.4,2.9,1,2.9,2.7v0c0,1.9-1.5,2.9-3.4,2.9C244.1,53.2,242.9,52.8,241.8,52.1z"/>
	<path class="st0" d="M252.3,49.2c-0.4,0-0.7-0.3-0.8-0.7l-0.2-1.5c-0.1-0.5,0.2-0.8,0.7-0.9c1.6-0.2,2.6-0.8,2.6-1.9v0
		c0-1-0.8-1.7-2-1.7c-0.9,0-1.7,0.3-2.4,1c-0.2,0.1-0.4,0.2-0.6,0.2c-0.5,0-1-0.4-1-1c0-0.3,0.1-0.5,0.4-0.8
		c0.9-0.9,2.1-1.5,3.7-1.5c2.5,0,4.1,1.4,4.1,3.6v0c0,2.2-1.6,3.2-3.5,3.5l-0.1,0.8c-0.1,0.4-0.3,0.7-0.8,0.7H252.3z M252.3,50.5
		c0.7,0,1.2,0.5,1.2,1.2v0.2c0,0.7-0.5,1.2-1.2,1.2s-1.2-0.5-1.2-1.2v-0.2C251.1,51,251.6,50.5,252.3,50.5z"/>
</g>
</svg>
