<?xml version="1.0" encoding="utf-8"?>
<!-- Generator: Adobe Illustrator 21.1.0, SVG Export Plug-In . SVG Version: 6.00 Build 0)  -->
<svg version="1.1" id="Layer_3" xmlns="http://www.w3.org/2000/svg" xmlns:xlink="http://www.w3.org/1999/xlink" x="0px" y="0px"
	 viewBox="0 0 300 50" style="enable-background:new 0 0 300 50;" xml:space="preserve">
<style type="text/css">
	.st0{fill:#133C7D;}
</style>
<g>
	<path class="st0" d="M49.3,28.1c-0.3-0.2-0.4-0.5-0.4-0.8c0-0.6,0.5-1,1-1c0.3,0,0.5,0.1,0.6,0.2c1,0.8,2.2,1.3,3.5,1.3
		c1.4,0,2.2-0.6,2.2-1.6v0c0-0.9-0.5-1.4-2.8-1.9c-2.7-0.6-4.2-1.4-4.2-3.8v0c0-2.2,1.8-3.7,4.3-3.7c1.6,0,2.9,0.4,4,1.2
		c0.3,0.1,0.5,0.5,0.5,0.9c0,0.6-0.5,1-1,1c-0.2,0-0.4-0.1-0.6-0.2c-1-0.6-1.9-1-2.9-1c-1.3,0-2.1,0.7-2.1,1.5v0c0,1,0.6,1.4,3,2
		c2.7,0.6,4,1.6,4,3.7v0c0,2.4-1.9,3.8-4.5,3.8C52.3,29.7,50.7,29.1,49.3,28.1z"/>
	<path class="st0" d="M64.4,29.7c-2.8,0-4.9-2-4.9-4.9v0c0-2.7,1.9-5,4.6-5c3,0,4.5,2.5,4.5,4.7c0,0.6-0.5,1-1,1h-6
		c0.2,1.5,1.3,2.4,2.7,2.4c0.9,0,1.6-0.3,2.3-0.8c0.2-0.1,0.3-0.2,0.6-0.2c0.5,0,0.9,0.4,0.9,0.9c0,0.3-0.1,0.5-0.3,0.7
		C66.9,29.2,65.8,29.7,64.4,29.7z M66.5,24.1c-0.1-1.4-1-2.5-2.4-2.5c-1.3,0-2.3,1-2.5,2.5H66.5z"/>
	<path class="st0" d="M70.4,26.9v-5h-0.4c-0.5,0-0.9-0.4-0.9-0.9c0-0.5,0.4-0.9,0.9-0.9h0.4v-1.6c0-0.6,0.5-1.1,1.1-1.1
		c0.6,0,1.1,0.5,1.1,1.1V20h1.7c0.5,0,1,0.4,1,0.9c0,0.5-0.4,0.9-1,0.9h-1.7v4.7c0,0.8,0.4,1.2,1.2,1.2c0.3,0,0.5-0.1,0.5-0.1
		c0.5,0,0.9,0.4,0.9,0.9c0,0.4-0.3,0.7-0.6,0.8c-0.5,0.2-0.9,0.3-1.5,0.3C71.6,29.7,70.4,29,70.4,26.9z"/>
	<path class="st0" d="M80.4,26.8L80.4,26.8c0-2.1,1.6-3.1,3.9-3.1c1.1,0,1.8,0.2,2.6,0.4v-0.2c0-1.4-0.8-2.1-2.4-2.1
		c-0.8,0-1.5,0.1-2.1,0.4c-0.1,0-0.2,0.1-0.3,0.1c-0.5,0-0.9-0.4-0.9-0.9c0-0.4,0.3-0.7,0.6-0.9c0.9-0.3,1.8-0.6,3.1-0.6
		c1.4,0,2.5,0.4,3.2,1.1c0.7,0.7,1,1.7,1,2.9v4.7c0,0.6-0.5,1-1.1,1c-0.6,0-1.1-0.4-1.1-0.9v-0.4c-0.6,0.8-1.6,1.4-3.1,1.4
		C82,29.7,80.4,28.7,80.4,26.8z M86.9,26.1v-0.6c-0.6-0.2-1.3-0.4-2.2-0.4c-1.4,0-2.2,0.6-2.2,1.6v0c0,0.9,0.8,1.4,1.9,1.4
		C85.8,28.1,86.9,27.3,86.9,26.1z"/>
	<path class="st0" d="M95.2,21c0-0.6,0.5-1.1,1.1-1.1s1.1,0.5,1.1,1.1v0.5c0.6-0.9,1.5-1.7,3-1.7c2.1,0,3.4,1.4,3.4,3.6v5.1
		c0,0.6-0.5,1.1-1.1,1.1c-0.6,0-1.1-0.5-1.1-1.1v-4.4c0-1.5-0.7-2.3-2-2.3c-1.3,0-2.1,0.9-2.1,2.4v4.4c0,0.6-0.5,1.1-1.1,1.1
		c-0.6,0-1.1-0.5-1.1-1.1V21z"/>
	<path class="st0" d="M109.9,29.7c-2.8,0-4.9-2-4.9-4.9v0c0-2.7,1.9-5,4.6-5c3,0,4.5,2.5,4.5,4.7c0,0.6-0.5,1-1,1h-6
		c0.2,1.5,1.3,2.4,2.7,2.4c0.9,0,1.6-0.3,2.3-0.8c0.2-0.1,0.3-0.2,0.6-0.2c0.5,0,0.9,0.4,0.9,0.9c0,0.3-0.1,0.5-0.3,0.7
		C112.4,29.2,111.3,29.7,109.9,29.7z M112,24.1c-0.1-1.4-1-2.5-2.4-2.5c-1.3,0-2.3,1-2.5,2.5H112z"/>
	<path class="st0" d="M117.2,28.7l-2.6-7.2c-0.1-0.1-0.1-0.4-0.1-0.6c0-0.5,0.4-1,1.1-1c0.5,0,0.9,0.4,1.1,0.9l1.8,5.8l1.9-5.8
		c0.2-0.5,0.6-0.9,1.1-0.9h0.1c0.6,0,1,0.4,1.1,0.9l1.9,5.8l1.9-5.8c0.1-0.5,0.5-0.8,1.1-0.8c0.6,0,1,0.5,1,1c0,0.2-0.1,0.4-0.1,0.5
		l-2.6,7.3c-0.2,0.7-0.7,1-1.2,1h-0.1c-0.5,0-1-0.3-1.2-0.9l-1.9-5.7l-1.9,5.7c-0.2,0.6-0.6,0.9-1.2,0.9h-0.1
		C117.8,29.7,117.4,29.4,117.2,28.7z"/>
	<path class="st0" d="M134.2,21c0-0.6,0.5-1.1,1.1-1.1c0.6,0,1.1,0.5,1.1,1.1v0.6c0.7-1,1.7-1.8,3.2-1.8c2.2,0,4.4,1.8,4.4,4.9v0
		c0,3.2-2.2,4.9-4.4,4.9c-1.6,0-2.6-0.8-3.2-1.7v3.4c0,0.6-0.5,1.1-1.1,1.1c-0.6,0-1.1-0.5-1.1-1.1V21z M141.8,24.8L141.8,24.8
		c0-1.9-1.2-3.1-2.7-3.1s-2.8,1.2-2.8,3v0c0,1.8,1.3,3,2.8,3C140.6,27.8,141.8,26.6,141.8,24.8z"/>
	<path class="st0" d="M144.7,26.8L144.7,26.8c0-2.1,1.6-3.1,3.9-3.1c1.1,0,1.8,0.2,2.6,0.4v-0.2c0-1.4-0.8-2.1-2.4-2.1
		c-0.8,0-1.5,0.1-2.1,0.4c-0.1,0-0.2,0.1-0.3,0.1c-0.5,0-0.9-0.4-0.9-0.9c0-0.4,0.3-0.7,0.6-0.9c0.9-0.3,1.8-0.6,3.1-0.6
		c1.4,0,2.5,0.4,3.2,1.1c0.7,0.7,1,1.7,1,2.9v4.7c0,0.6-0.5,1-1.1,1c-0.6,0-1.1-0.4-1.1-0.9v-0.4c-0.6,0.8-1.6,1.4-3.1,1.4
		C146.3,29.7,144.7,28.7,144.7,26.8z M151.2,26.1v-0.6c-0.6-0.2-1.3-0.4-2.2-0.4c-1.4,0-2.2,0.6-2.2,1.6v0c0,0.9,0.8,1.4,1.9,1.4
		C150.2,28.1,151.2,27.3,151.2,26.1z"/>
	<path class="st0" d="M154.5,24.8L154.5,24.8c0-2.7,2.1-5,5-5c1.5,0,2.5,0.5,3.3,1.2c0.1,0.1,0.3,0.4,0.3,0.8c0,0.6-0.5,1-1,1
		c-0.3,0-0.5-0.1-0.6-0.2c-0.6-0.5-1.2-0.8-2-0.8c-1.6,0-2.8,1.4-2.8,3v0c0,1.7,1.2,3,2.8,3c0.9,0,1.5-0.3,2.1-0.8
		c0.1-0.1,0.3-0.2,0.6-0.2c0.5,0,0.9,0.4,0.9,1c0,0.3-0.1,0.5-0.3,0.7c-0.8,0.8-1.9,1.4-3.5,1.4C156.6,29.7,154.5,27.5,154.5,24.8z"
		/>
	<path class="st0" d="M168.5,29.7c-2.8,0-4.9-2-4.9-4.9v0c0-2.7,1.9-5,4.6-5c3,0,4.5,2.5,4.5,4.7c0,0.6-0.5,1-1,1h-6
		c0.2,1.5,1.3,2.4,2.7,2.4c0.9,0,1.6-0.3,2.3-0.8c0.2-0.1,0.3-0.2,0.6-0.2c0.5,0,0.9,0.4,0.9,0.9c0,0.3-0.1,0.5-0.3,0.7
		C171.1,29.2,170,29.7,168.5,29.7z M170.7,24.1c-0.1-1.4-1-2.5-2.4-2.5c-1.3,0-2.3,1-2.5,2.5H170.7z"/>
	<path class="st0" d="M179.2,21.9h-0.4c-0.5,0-0.9-0.4-0.9-0.9c0-0.5,0.4-0.9,0.9-0.9h0.4v-0.7c0-1,0.3-1.8,0.8-2.3
		c0.5-0.5,1.2-0.8,2.1-0.8c0.4,0,0.8,0,1.1,0.1c0.4,0.1,0.8,0.4,0.8,0.9c0,0.5-0.4,0.9-0.9,0.9c-0.1,0-0.3,0-0.5,0
		c-0.8,0-1.3,0.5-1.3,1.4v0.5h1.7c0.5,0,0.9,0.4,0.9,0.9c0,0.5-0.4,0.9-0.9,0.9h-1.7v6.6c0,0.6-0.5,1.1-1.1,1.1
		c-0.6,0-1.1-0.5-1.1-1.1V21.9z"/>
	<path class="st0" d="M183.9,24.8L183.9,24.8c0-2.8,2.2-5,5.1-5s5.1,2.2,5.1,4.9v0c0,2.7-2.2,5-5.1,5
		C186,29.7,183.9,27.5,183.9,24.8z M191.8,24.8L191.8,24.8c0-1.7-1.2-3.1-2.9-3.1c-1.7,0-2.9,1.4-2.9,3v0c0,1.7,1.2,3,2.9,3
		C190.7,27.8,191.8,26.4,191.8,24.8z"/>
	<path class="st0" d="M195.3,21c0-0.6,0.5-1.1,1.1-1.1c0.6,0,1.1,0.5,1.1,1.1v1c0.5-1.2,1.4-2.1,2.4-2.1c0.7,0,1.1,0.5,1.1,1.1
		c0,0.6-0.4,1-0.9,1c-1.5,0.3-2.6,1.5-2.6,3.7v2.8c0,0.6-0.5,1.1-1.1,1.1c-0.6,0-1.1-0.5-1.1-1.1V21z"/>
	<path class="st0" d="M206.6,32.2c-0.3-0.1-0.7-0.4-0.7-0.9c0-0.5,0.4-0.9,0.9-0.9c0.2,0,0.3,0,0.4,0.1c0.3,0.1,0.5,0.1,0.8,0.1
		c0.6,0,1-0.3,1.4-1l0.1-0.2l-3.5-7.9c-0.1-0.2-0.1-0.4-0.1-0.5c0-0.6,0.5-1.1,1.1-1.1c0.6,0,0.9,0.3,1.1,0.8l2.6,6.3l2.4-6.3
		c0.2-0.5,0.5-0.8,1-0.8c0.6,0,1,0.5,1,1c0,0.2-0.1,0.4-0.1,0.5l-3.5,8.3c-0.8,1.9-1.7,2.7-3.2,2.7
		C207.5,32.4,207.1,32.3,206.6,32.2z"/>
	<path class="st0" d="M215.2,24.8L215.2,24.8c0-2.8,2.2-5,5.1-5s5.1,2.2,5.1,4.9v0c0,2.7-2.2,5-5.1,5
		C217.3,29.7,215.2,27.5,215.2,24.8z M223.1,24.8L223.1,24.8c0-1.7-1.2-3.1-2.9-3.1c-1.7,0-2.9,1.4-2.9,3v0c0,1.7,1.2,3,2.9,3
		C222,27.8,223.1,26.4,223.1,24.8z"/>
	<path class="st0" d="M235.1,28.5c0,0.6-0.5,1.1-1.1,1.1c-0.6,0-1.1-0.5-1.1-1.1V28c-0.6,0.9-1.5,1.7-3,1.7c-2.1,0-3.4-1.4-3.4-3.7
		V21c0-0.6,0.5-1.1,1.1-1.1c0.6,0,1.1,0.5,1.1,1.1v4.4c0,1.5,0.7,2.3,2,2.3c1.3,0,2.1-0.9,2.1-2.3V21c0-0.6,0.5-1.1,1.1-1.1
		c0.6,0,1.1,0.5,1.1,1.1V28.5z"/>
	<path class="st0" d="M236.9,21c0-0.6,0.5-1.1,1.1-1.1c0.6,0,1.1,0.5,1.1,1.1v1c0.5-1.2,1.4-2.1,2.4-2.1c0.7,0,1.1,0.5,1.1,1.1
		c0,0.6-0.4,1-0.9,1c-1.5,0.3-2.6,1.5-2.6,3.7v2.8c0,0.6-0.5,1.1-1.1,1.1c-0.6,0-1.1-0.5-1.1-1.1V21z"/>
	<path class="st0" d="M243.1,28.5c-0.2-0.1-0.4-0.4-0.4-0.8c0-0.5,0.4-0.9,0.9-0.9c0.2,0,0.3,0.1,0.5,0.1c0.9,0.6,1.9,0.9,2.7,0.9
		c0.9,0,1.5-0.4,1.5-1v0c0-0.7-1-1-2.1-1.3c-1.4-0.4-3-1-3-2.8v0c0-1.8,1.5-2.9,3.4-2.9c1,0,2.1,0.3,3,0.8c0.3,0.2,0.5,0.5,0.5,0.8
		c0,0.5-0.4,0.9-0.9,0.9c-0.2,0-0.3,0-0.4-0.1c-0.8-0.4-1.6-0.6-2.2-0.6c-0.8,0-1.3,0.4-1.3,0.9v0c0,0.7,1,1,2.1,1.4
		c1.4,0.4,3,1.1,3,2.8v0c0,2-1.5,3-3.5,3C245.5,29.7,244.2,29.3,243.1,28.5z"/>
</g>
</svg>
