<?xml version="1.0" encoding="utf-8"?>
<!-- Generator: Adobe Illustrator 21.1.0, SVG Export Plug-In . SVG Version: 6.00 Build 0)  -->
<svg version="1.1" id="Layer_2" xmlns="http://www.w3.org/2000/svg" xmlns:xlink="http://www.w3.org/1999/xlink" x="0px" y="0px"
	 viewBox="0 0 728 90" style="enable-background:new 0 0 728 90;" xml:space="preserve">
<style type="text/css">
	.st0{fill:#133C7D;}
</style>
<g>
	<path class="st0" d="M178.2,44.7L178.2,44.7c0-4,3-7.3,7.2-7.3c2.2,0,3.6,0.6,4.8,1.6c0.3,0.2,0.5,0.5,0.5,1c0,0.7-0.5,1.2-1.2,1.2
		c-0.3,0-0.6-0.1-0.7-0.2c-1-0.8-2-1.3-3.3-1.3c-2.7,0-4.6,2.2-4.6,4.9v0c0,2.7,1.9,5,4.6,5c1.5,0,2.5-0.5,3.5-1.3
		c0.2-0.2,0.4-0.3,0.7-0.3c0.6,0,1.2,0.5,1.2,1.1c0,0.4-0.2,0.7-0.4,0.9c-1.3,1.2-2.8,1.9-5.1,1.9C181.2,51.9,178.2,48.7,178.2,44.7
		z"/>
	<path class="st0" d="M192.4,38.2c0-0.7,0.5-1.2,1.2-1.2c0.7,0,1.2,0.5,1.2,1.2v12.4c0,0.7-0.5,1.2-1.2,1.2c-0.7,0-1.2-0.5-1.2-1.2
		V38.2z"/>
	<path class="st0" d="M196.5,46.4L196.5,46.4c0-3.1,2.4-5.6,5.6-5.6s5.6,2.5,5.6,5.5v0c0,3-2.4,5.5-5.7,5.5
		C198.8,51.9,196.5,49.4,196.5,46.4z M205.3,46.4L205.3,46.4c0-1.9-1.3-3.4-3.2-3.4c-1.9,0-3.2,1.5-3.2,3.4v0c0,1.8,1.3,3.4,3.2,3.4
		C204.1,49.8,205.3,48.3,205.3,46.4z"/>
	<path class="st0" d="M218.6,50.6c0,0.7-0.5,1.2-1.2,1.2c-0.7,0-1.2-0.5-1.2-1.2V50c-0.7,1-1.7,1.9-3.3,1.9c-2.4,0-3.8-1.6-3.8-4.1
		v-5.6c0-0.7,0.5-1.2,1.2-1.2c0.7,0,1.2,0.5,1.2,1.2v4.9c0,1.6,0.8,2.6,2.3,2.6c1.4,0,2.4-1,2.4-2.6v-4.9c0-0.7,0.5-1.2,1.2-1.2
		c0.7,0,1.2,0.5,1.2,1.2V50.6z"/>
	<path class="st0" d="M231,50.6c0,0.7-0.5,1.2-1.2,1.2c-0.7,0-1.2-0.5-1.2-1.2v-0.7c-0.8,1.1-1.9,2-3.6,2c-2.5,0-4.9-2-4.9-5.5v0
		c0-3.5,2.4-5.5,4.9-5.5c1.7,0,2.8,0.9,3.6,1.9v-4.6c0-0.7,0.5-1.2,1.2-1.2c0.7,0,1.2,0.5,1.2,1.2V50.6z M222.5,46.4L222.5,46.4
		c0,2.1,1.4,3.4,3,3.4c1.6,0,3.1-1.4,3.1-3.4v0c0-2-1.4-3.4-3.1-3.4C223.9,43,222.5,44.3,222.5,46.4z"/>
	<path class="st0" d="M232.6,45.5c0-0.7,0.5-1.2,1.2-1.2h3.8c0.6,0,1.2,0.5,1.2,1.2c0,0.6-0.5,1.2-1.2,1.2h-3.8
		C233.1,46.7,232.6,46.2,232.6,45.5z"/>
	<path class="st0" d="M239.7,46.4L239.7,46.4c0-3,2.3-5.6,5.5-5.6c1.7,0,2.8,0.5,3.7,1.3c0.2,0.1,0.4,0.4,0.4,0.8
		c0,0.6-0.5,1.1-1.1,1.1c-0.3,0-0.6-0.1-0.7-0.2c-0.6-0.5-1.3-0.9-2.3-0.9c-1.8,0-3.1,1.5-3.1,3.4v0c0,1.9,1.3,3.4,3.2,3.4
		c1,0,1.7-0.4,2.4-0.9c0.1-0.1,0.4-0.3,0.7-0.3c0.6,0,1,0.5,1,1.1c0,0.3-0.1,0.6-0.3,0.8c-0.9,0.9-2.1,1.5-3.8,1.5
		C242,51.9,239.7,49.4,239.7,46.4z"/>
	<path class="st0" d="M249.8,46.4L249.8,46.4c0-3.1,2.4-5.6,5.6-5.6s5.6,2.5,5.6,5.5v0c0,3-2.4,5.5-5.7,5.5
		C252.2,51.9,249.8,49.4,249.8,46.4z M258.6,46.4L258.6,46.4c0-1.9-1.3-3.4-3.2-3.4c-1.9,0-3.2,1.5-3.2,3.4v0c0,1.8,1.3,3.4,3.2,3.4
		C257.4,49.8,258.6,48.3,258.6,46.4z"/>
	<path class="st0" d="M262.5,42.2c0-0.7,0.5-1.2,1.2-1.2s1.2,0.5,1.2,1.2v0.5c0.7-0.9,1.6-1.8,3.2-1.8c1.5,0,2.6,0.7,3.2,1.9
		c0.8-1.1,2-1.9,3.6-1.9c2.3,0,3.7,1.5,3.7,4v5.6c0,0.7-0.5,1.2-1.2,1.2s-1.2-0.5-1.2-1.2v-4.9c0-1.7-0.8-2.6-2.1-2.6
		c-1.3,0-2.3,0.9-2.3,2.6v4.9c0,0.7-0.5,1.2-1.2,1.2c-0.7,0-1.2-0.5-1.2-1.2v-4.9c0-1.6-0.8-2.6-2.1-2.6s-2.3,1-2.3,2.6v4.9
		c0,0.7-0.5,1.2-1.2,1.2c-0.7,0-1.2-0.5-1.2-1.2V42.2z"/>
	<path class="st0" d="M280.6,42.2c0-0.7,0.5-1.2,1.2-1.2s1.2,0.5,1.2,1.2v0.7c0.8-1.1,1.9-2,3.6-2c2.5,0,4.9,2,4.9,5.5v0
		c0,3.5-2.4,5.5-4.9,5.5c-1.8,0-2.9-0.9-3.6-1.9v3.7c0,0.7-0.5,1.2-1.2,1.2c-0.7,0-1.2-0.5-1.2-1.2V42.2z M289,46.4L289,46.4
		c0-2.1-1.4-3.4-3-3.4c-1.6,0-3.1,1.4-3.1,3.4v0c0,2,1.4,3.4,3.1,3.4C287.7,49.8,289,48.5,289,46.4z"/>
	<path class="st0" d="M302.4,50.6c0,0.7-0.5,1.2-1.2,1.2c-0.7,0-1.2-0.5-1.2-1.2V50c-0.7,1-1.7,1.9-3.3,1.9c-2.4,0-3.8-1.6-3.8-4.1
		v-5.6c0-0.7,0.5-1.2,1.2-1.2c0.7,0,1.2,0.5,1.2,1.2v4.9c0,1.6,0.8,2.6,2.3,2.6c1.4,0,2.4-1,2.4-2.6v-4.9c0-0.7,0.5-1.2,1.2-1.2
		c0.7,0,1.2,0.5,1.2,1.2V50.6z"/>
	<path class="st0" d="M304.9,48.7v-5.6h-0.4c-0.6,0-1-0.5-1-1s0.5-1,1-1h0.4v-1.8c0-0.7,0.5-1.2,1.2-1.2c0.7,0,1.2,0.5,1.2,1.2v1.8
		h1.9c0.6,0,1.1,0.5,1.1,1s-0.5,1-1.1,1h-1.9v5.2c0,0.9,0.5,1.3,1.3,1.3c0.3,0,0.5-0.1,0.6-0.1c0.5,0,1,0.4,1,1
		c0,0.4-0.3,0.8-0.6,0.9c-0.5,0.2-1,0.3-1.7,0.3C306.2,51.8,304.9,51.1,304.9,48.7z"/>
	<path class="st0" d="M311.6,38.3c0-0.7,0.6-1.2,1.4-1.2c0.8,0,1.4,0.5,1.4,1.2v0.1c0,0.7-0.6,1.2-1.4,1.2c-0.8,0-1.4-0.5-1.4-1.2
		V38.3z M311.8,42.2c0-0.7,0.5-1.2,1.2-1.2c0.7,0,1.2,0.5,1.2,1.2v8.4c0,0.7-0.5,1.2-1.2,1.2c-0.7,0-1.2-0.5-1.2-1.2V42.2z"/>
	<path class="st0" d="M316.4,42.2c0-0.7,0.5-1.2,1.2-1.2s1.2,0.5,1.2,1.2v0.5c0.7-1,1.7-1.8,3.3-1.8c2.4,0,3.8,1.6,3.8,4v5.6
		c0,0.7-0.5,1.2-1.2,1.2s-1.2-0.5-1.2-1.2v-4.9c0-1.6-0.8-2.6-2.3-2.6c-1.4,0-2.4,1-2.4,2.6v4.9c0,0.7-0.5,1.2-1.2,1.2
		c-0.7,0-1.2-0.5-1.2-1.2V42.2z"/>
	<path class="st0" d="M328.4,54c-0.4-0.2-0.7-0.5-0.7-1c0-0.5,0.5-1,1-1c0.2,0,0.3,0,0.4,0.1c1,0.5,2,0.8,3.2,0.8
		c2.2,0,3.3-1.1,3.3-3.2v-0.8c-0.9,1.1-2,1.9-3.7,1.9c-2.5,0-4.8-1.8-4.8-4.9v0c0-3.1,2.3-5,4.8-5c1.8,0,2.9,0.8,3.7,1.8v-0.5
		c0-0.7,0.5-1.2,1.2-1.2c0.7,0,1.2,0.5,1.2,1.2v7.3c0,1.8-0.5,3.1-1.3,4c-1,1-2.4,1.4-4.3,1.4C331,54.9,329.7,54.6,328.4,54z
		 M335.8,45.9L335.8,45.9c0-1.8-1.4-2.9-3.1-2.9s-3,1.2-3,2.9v0c0,1.7,1.3,2.9,3,2.9C334.4,48.8,335.8,47.6,335.8,45.9z"/>
	<path class="st0" d="M344.7,46.4L344.7,46.4c0-3.1,2.4-5.6,5.6-5.6s5.6,2.5,5.6,5.5v0c0,3-2.4,5.5-5.7,5.5
		C347.1,51.9,344.7,49.4,344.7,46.4z M353.5,46.4L353.5,46.4c0-1.9-1.3-3.4-3.2-3.4c-1.9,0-3.2,1.5-3.2,3.4v0c0,1.8,1.3,3.4,3.2,3.4
		C352.3,49.8,353.5,48.3,353.5,46.4z"/>
	<path class="st0" d="M357.4,42.2c0-0.7,0.5-1.2,1.2-1.2s1.2,0.5,1.2,1.2v1.1c0.6-1.3,1.6-2.3,2.7-2.3c0.8,0,1.2,0.5,1.2,1.2
		c0,0.6-0.4,1.1-1,1.2c-1.7,0.3-2.9,1.6-2.9,4.1v3.1c0,0.7-0.5,1.2-1.2,1.2c-0.7,0-1.2-0.5-1.2-1.2V42.2z"/>
	<path class="st0" d="M369.7,38.2c0-0.7,0.5-1.2,1.2-1.2c0.7,0,1.2,0.5,1.2,1.2v4.7c0.8-1.1,1.9-2,3.6-2c2.5,0,4.9,2,4.9,5.5v0
		c0,3.5-2.4,5.5-4.9,5.5c-1.8,0-2.9-0.9-3.6-1.9v0.5c0,0.7-0.5,1.2-1.2,1.2c-0.7,0-1.2-0.5-1.2-1.2V38.2z M378.2,46.4L378.2,46.4
		c0-2.1-1.4-3.4-3-3.4c-1.6,0-3.1,1.4-3.1,3.4v0c0,2,1.4,3.4,3.1,3.4C376.8,49.8,378.2,48.5,378.2,46.4z"/>
	<path class="st0" d="M381.5,48.6L381.5,48.6c0-2.3,1.8-3.4,4.4-3.4c1.2,0,2,0.2,2.8,0.4v-0.3c0-1.5-0.9-2.3-2.6-2.3
		c-0.9,0-1.7,0.2-2.3,0.4c-0.1,0-0.3,0.1-0.4,0.1c-0.6,0-1-0.4-1-1c0-0.4,0.3-0.8,0.7-1c1-0.4,2-0.6,3.4-0.6c1.6,0,2.8,0.4,3.5,1.2
		c0.8,0.8,1.1,1.9,1.1,3.3v5.2c0,0.7-0.5,1.2-1.2,1.2c-0.7,0-1.2-0.5-1.2-1v-0.4c-0.7,0.9-1.8,1.5-3.4,1.5
		C383.2,51.9,381.5,50.7,381.5,48.6z M388.7,47.9v-0.7c-0.6-0.2-1.4-0.4-2.4-0.4c-1.6,0-2.5,0.7-2.5,1.8v0c0,1,0.9,1.6,2.1,1.6
		C387.5,50.1,388.7,49.2,388.7,47.9z"/>
	<path class="st0" d="M392.5,50.6c-0.3-0.1-0.5-0.4-0.5-0.8c0-0.5,0.4-1,1-1c0.2,0,0.4,0.1,0.5,0.1c1,0.7,2.1,1,3,1
		c1,0,1.6-0.4,1.6-1.1v0c0-0.8-1.1-1.1-2.4-1.5c-1.6-0.4-3.3-1.1-3.3-3.1v0c0-2,1.7-3.2,3.8-3.2c1.1,0,2.3,0.3,3.3,0.9
		c0.3,0.2,0.6,0.5,0.6,0.9c0,0.6-0.4,1-1,1c-0.2,0-0.3,0-0.5-0.1c-0.9-0.4-1.7-0.7-2.5-0.7c-0.9,0-1.5,0.4-1.5,1v0
		c0,0.8,1.1,1.1,2.4,1.5c1.5,0.5,3.3,1.2,3.3,3.1v0c0,2.2-1.7,3.3-3.9,3.3C395.2,51.9,393.8,51.4,392.5,50.6z"/>
	<path class="st0" d="M401.9,38.3c0-0.7,0.6-1.2,1.4-1.2s1.4,0.5,1.4,1.2v0.1c0,0.7-0.6,1.2-1.4,1.2s-1.4-0.5-1.4-1.2V38.3z
		 M402.1,42.2c0-0.7,0.5-1.2,1.2-1.2c0.7,0,1.2,0.5,1.2,1.2v8.4c0,0.7-0.5,1.2-1.2,1.2c-0.7,0-1.2-0.5-1.2-1.2V42.2z"/>
	<path class="st0" d="M406.1,46.4L406.1,46.4c0-3,2.3-5.6,5.5-5.6c1.7,0,2.8,0.5,3.7,1.3c0.2,0.1,0.4,0.4,0.4,0.8
		c0,0.6-0.5,1.1-1.1,1.1c-0.3,0-0.6-0.1-0.7-0.2c-0.6-0.5-1.3-0.9-2.3-0.9c-1.8,0-3.1,1.5-3.1,3.4v0c0,1.9,1.3,3.4,3.2,3.4
		c1,0,1.7-0.4,2.4-0.9c0.1-0.1,0.4-0.3,0.7-0.3c0.6,0,1,0.5,1,1.1c0,0.3-0.1,0.6-0.3,0.8c-0.9,0.9-2.1,1.5-3.8,1.5
		C408.5,51.9,406.1,49.4,406.1,46.4z"/>
	<path class="st0" d="M427,51.9c-3.1,0-5.4-2.2-5.4-5.5v0c0-3,2.1-5.5,5.2-5.5c3.4,0,5,2.8,5,5.2c0,0.7-0.5,1.2-1.1,1.2H424
		c0.3,1.7,1.5,2.7,3,2.7c1,0,1.8-0.4,2.5-0.9c0.2-0.1,0.3-0.2,0.6-0.2c0.5,0,1,0.4,1,1c0,0.3-0.1,0.6-0.3,0.7
		C429.9,51.4,428.7,51.9,427,51.9z M429.4,45.6c-0.2-1.6-1.1-2.8-2.7-2.8c-1.5,0-2.5,1.1-2.7,2.8H429.4z"/>
	<path class="st0" d="M433.3,42.2c0-0.7,0.5-1.2,1.2-1.2c0.7,0,1.2,0.5,1.2,1.2v0.5c0.7-0.9,1.6-1.8,3.2-1.8c1.5,0,2.6,0.7,3.2,1.9
		c0.8-1.1,2-1.9,3.6-1.9c2.3,0,3.7,1.5,3.7,4v5.6c0,0.7-0.5,1.2-1.2,1.2c-0.7,0-1.2-0.5-1.2-1.2v-4.9c0-1.7-0.8-2.6-2.1-2.6
		c-1.3,0-2.3,0.9-2.3,2.6v4.9c0,0.7-0.5,1.2-1.2,1.2c-0.7,0-1.2-0.5-1.2-1.2v-4.9c0-1.6-0.8-2.6-2.1-2.6c-1.3,0-2.3,1-2.3,2.6v4.9
		c0,0.7-0.5,1.2-1.2,1.2c-0.7,0-1.2-0.5-1.2-1.2V42.2z"/>
	<path class="st0" d="M450.6,48.6L450.6,48.6c0-2.3,1.8-3.4,4.4-3.4c1.2,0,2,0.2,2.8,0.4v-0.3c0-1.5-0.9-2.3-2.6-2.3
		c-0.9,0-1.7,0.2-2.3,0.4c-0.1,0-0.3,0.1-0.4,0.1c-0.6,0-1-0.4-1-1c0-0.4,0.3-0.8,0.7-1c1-0.4,2-0.6,3.4-0.6c1.6,0,2.8,0.4,3.5,1.2
		c0.8,0.8,1.1,1.9,1.1,3.3v5.2c0,0.7-0.5,1.2-1.2,1.2c-0.7,0-1.2-0.5-1.2-1v-0.4c-0.7,0.9-1.8,1.5-3.4,1.5
		C452.4,51.9,450.6,50.7,450.6,48.6z M457.8,47.9v-0.7c-0.6-0.2-1.4-0.4-2.4-0.4c-1.6,0-2.5,0.7-2.5,1.8v0c0,1,0.9,1.6,2.1,1.6
		C456.6,50.1,457.8,49.2,457.8,47.9z"/>
	<path class="st0" d="M462,38.3c0-0.7,0.6-1.2,1.4-1.2s1.4,0.5,1.4,1.2v0.1c0,0.7-0.6,1.2-1.4,1.2s-1.4-0.5-1.4-1.2V38.3z
		 M462.2,42.2c0-0.7,0.5-1.2,1.2-1.2c0.7,0,1.2,0.5,1.2,1.2v8.4c0,0.7-0.5,1.2-1.2,1.2c-0.7,0-1.2-0.5-1.2-1.2V42.2z"/>
	<path class="st0" d="M466.9,38.2c0-0.7,0.5-1.2,1.2-1.2c0.7,0,1.2,0.5,1.2,1.2v12.4c0,0.7-0.5,1.2-1.2,1.2c-0.7,0-1.2-0.5-1.2-1.2
		V38.2z"/>
	<path class="st0" d="M471.5,38.3c0-0.7,0.6-1.2,1.4-1.2s1.4,0.5,1.4,1.2v0.1c0,0.7-0.6,1.2-1.4,1.2s-1.4-0.5-1.4-1.2V38.3z
		 M471.7,42.2c0-0.7,0.5-1.2,1.2-1.2c0.7,0,1.2,0.5,1.2,1.2v8.4c0,0.7-0.5,1.2-1.2,1.2c-0.7,0-1.2-0.5-1.2-1.2V42.2z"/>
	<path class="st0" d="M476.3,42.2c0-0.7,0.5-1.2,1.2-1.2c0.7,0,1.2,0.5,1.2,1.2v0.5c0.7-1,1.7-1.8,3.3-1.8c2.4,0,3.8,1.6,3.8,4v5.6
		c0,0.7-0.5,1.2-1.2,1.2c-0.7,0-1.2-0.5-1.2-1.2v-4.9c0-1.6-0.8-2.6-2.3-2.6c-1.4,0-2.4,1-2.4,2.6v4.9c0,0.7-0.5,1.2-1.2,1.2
		c-0.7,0-1.2-0.5-1.2-1.2V42.2z"/>
	<path class="st0" d="M488.3,54c-0.4-0.2-0.7-0.5-0.7-1c0-0.5,0.5-1,1-1c0.2,0,0.3,0,0.4,0.1c1,0.5,2,0.8,3.2,0.8
		c2.2,0,3.3-1.1,3.3-3.2v-0.8c-0.9,1.1-2,1.9-3.7,1.9c-2.5,0-4.8-1.8-4.8-4.9v0c0-3.1,2.3-5,4.8-5c1.8,0,2.9,0.8,3.7,1.8v-0.5
		c0-0.7,0.5-1.2,1.2-1.2c0.7,0,1.2,0.5,1.2,1.2v7.3c0,1.8-0.5,3.1-1.3,4c-1,1-2.4,1.4-4.3,1.4C490.9,54.9,489.6,54.6,488.3,54z
		 M495.7,45.9L495.7,45.9c0-1.8-1.4-2.9-3.1-2.9c-1.7,0-3,1.2-3,2.9v0c0,1.7,1.3,2.9,3,2.9C494.3,48.8,495.7,47.6,495.7,45.9z"/>
	<path class="st0" d="M503.5,47.3c-0.5,0-0.8-0.3-0.9-0.8l-0.2-1.7c-0.1-0.5,0.2-0.9,0.8-1c1.9-0.2,2.9-0.9,2.9-2.2v0
		c0-1.1-0.9-1.9-2.3-1.9c-1.1,0-1.9,0.4-2.7,1.1c-0.2,0.2-0.5,0.3-0.7,0.3c-0.6,0-1.1-0.5-1.1-1.1c0-0.3,0.1-0.6,0.4-0.9
		c1.1-1,2.4-1.7,4.2-1.7c2.8,0,4.7,1.6,4.7,4.1v0c0,2.5-1.8,3.7-4,4l-0.1,0.9c-0.1,0.4-0.4,0.8-0.9,0.8H503.5z M503.5,48.8
		c0.8,0,1.4,0.6,1.4,1.4v0.2c0,0.8-0.6,1.4-1.4,1.4s-1.4-0.6-1.4-1.4v-0.2C502.1,49.4,502.7,48.8,503.5,48.8z"/>
</g>
</svg>
