<?xml version="1.0" encoding="utf-8"?>
<!-- Generator: Adobe Illustrator 21.1.0, SVG Export Plug-In . SVG Version: 6.00 Build 0)  -->
<svg version="1.1" id="Layer_3" xmlns="http://www.w3.org/2000/svg" xmlns:xlink="http://www.w3.org/1999/xlink" x="0px" y="0px"
	 viewBox="0 0 728 90" style="enable-background:new 0 0 728 90;" xml:space="preserve">
<style type="text/css">
	.st0{fill:#133C7D;}
</style>
<g>
	<path class="st0" d="M179.6,44.4L179.6,44.4c0-4,3-7.3,7.2-7.3c2.2,0,3.6,0.6,4.8,1.6c0.3,0.2,0.5,0.5,0.5,1c0,0.7-0.5,1.2-1.2,1.2
		c-0.3,0-0.6-0.1-0.7-0.2c-1-0.8-2-1.3-3.3-1.3c-2.7,0-4.6,2.2-4.6,4.9v0c0,2.7,1.9,5,4.6,5c1.5,0,2.5-0.5,3.5-1.3
		c0.2-0.2,0.4-0.3,0.7-0.3c0.6,0,1.2,0.5,1.2,1.1c0,0.4-0.2,0.7-0.4,0.9c-1.3,1.2-2.8,1.9-5.1,1.9C182.6,51.6,179.6,48.4,179.6,44.4
		z"/>
	<path class="st0" d="M193.7,37.8c0-0.7,0.5-1.2,1.2-1.2s1.2,0.5,1.2,1.2v4.6c0.7-1,1.7-1.8,3.3-1.8c2.4,0,3.8,1.6,3.8,4v5.6
		c0,0.7-0.5,1.2-1.2,1.2s-1.2-0.5-1.2-1.2v-4.9c0-1.6-0.8-2.6-2.3-2.6c-1.4,0-2.4,1-2.4,2.6v4.9c0,0.7-0.5,1.2-1.2,1.2
		c-0.7,0-1.2-0.5-1.2-1.2V37.8z"/>
	<path class="st0" d="M204.5,46.1L204.5,46.1c0-3.1,2.4-5.6,5.6-5.6s5.6,2.5,5.6,5.5v0c0,3-2.4,5.5-5.7,5.5
		C206.9,51.6,204.5,49.1,204.5,46.1z M213.3,46.1L213.3,46.1c0-1.9-1.3-3.4-3.2-3.4c-1.9,0-3.2,1.5-3.2,3.4v0c0,1.8,1.3,3.4,3.2,3.4
		C212.1,49.5,213.3,47.9,213.3,46.1z"/>
	<path class="st0" d="M216.6,46.1L216.6,46.1c0-3.1,2.4-5.6,5.6-5.6s5.6,2.5,5.6,5.5v0c0,3-2.4,5.5-5.7,5.5
		C219,51.6,216.6,49.1,216.6,46.1z M225.5,46.1L225.5,46.1c0-1.9-1.3-3.4-3.2-3.4c-1.9,0-3.2,1.5-3.2,3.4v0c0,1.8,1.3,3.4,3.2,3.4
		C224.2,49.5,225.5,47.9,225.5,46.1z"/>
	<path class="st0" d="M228.9,50.3c-0.3-0.1-0.5-0.4-0.5-0.8c0-0.5,0.4-1,1-1c0.2,0,0.4,0.1,0.5,0.1c1,0.7,2.1,1,3,1
		c1,0,1.6-0.4,1.6-1.1v0c0-0.8-1.1-1.1-2.4-1.5c-1.6-0.4-3.3-1.1-3.3-3.1v0c0-2,1.7-3.2,3.8-3.2c1.1,0,2.3,0.3,3.3,0.9
		c0.3,0.2,0.6,0.5,0.6,0.9c0,0.6-0.4,1-1,1c-0.2,0-0.3,0-0.5-0.1c-0.9-0.4-1.7-0.7-2.5-0.7c-0.9,0-1.5,0.4-1.5,1v0
		c0,0.8,1.1,1.1,2.4,1.5c1.5,0.5,3.3,1.2,3.3,3.1v0c0,2.2-1.7,3.3-3.9,3.3C231.6,51.5,230.2,51.1,228.9,50.3z"/>
	<path class="st0" d="M243.2,51.6c-3.1,0-5.4-2.2-5.4-5.5v0c0-3,2.1-5.5,5.2-5.5c3.4,0,5,2.8,5,5.2c0,0.7-0.5,1.2-1.1,1.2h-6.6
		c0.3,1.7,1.5,2.7,3,2.7c1,0,1.8-0.4,2.5-0.9c0.2-0.1,0.3-0.2,0.6-0.2c0.5,0,1,0.4,1,1c0,0.3-0.1,0.6-0.3,0.7
		C246,51,244.8,51.6,243.2,51.6z M245.6,45.3c-0.2-1.6-1.1-2.8-2.7-2.8c-1.5,0-2.5,1.1-2.7,2.8H245.6z"/>
	<path class="st0" d="M253.7,48.3L253.7,48.3c0-2.3,1.8-3.4,4.4-3.4c1.2,0,2,0.2,2.8,0.4V45c0-1.5-0.9-2.3-2.6-2.3
		c-0.9,0-1.7,0.2-2.3,0.4c-0.1,0-0.3,0.1-0.4,0.1c-0.6,0-1-0.4-1-1c0-0.4,0.3-0.8,0.7-1c1-0.4,2-0.6,3.4-0.6c1.6,0,2.8,0.4,3.5,1.2
		c0.8,0.8,1.1,1.9,1.1,3.3v5.2c0,0.7-0.5,1.2-1.2,1.2c-0.7,0-1.2-0.5-1.2-1V50c-0.7,0.9-1.8,1.5-3.4,1.5
		C255.5,51.6,253.7,50.4,253.7,48.3z M261,47.5v-0.7c-0.6-0.2-1.4-0.4-2.4-0.4c-1.6,0-2.5,0.7-2.5,1.8v0c0,1,0.9,1.6,2.1,1.6
		C259.8,49.8,261,48.9,261,47.5z"/>
	<path class="st0" d="M270.2,37.8c0-0.7,0.5-1.2,1.2-1.2s1.2,0.5,1.2,1.2v4.7c0.8-1.1,1.9-2,3.6-2c2.5,0,4.9,2,4.9,5.5v0
		c0,3.5-2.4,5.5-4.9,5.5c-1.8,0-2.9-0.9-3.6-1.9v0.5c0,0.7-0.5,1.2-1.2,1.2c-0.7,0-1.2-0.5-1.2-1.2V37.8z M278.6,46.1L278.6,46.1
		c0-2.1-1.4-3.4-3-3.4c-1.6,0-3.1,1.4-3.1,3.4v0c0,2,1.4,3.4,3.1,3.4C277.3,49.5,278.6,48.2,278.6,46.1z"/>
	<path class="st0" d="M292,50.2c0,0.7-0.5,1.2-1.2,1.2c-0.7,0-1.2-0.5-1.2-1.2v-0.5c-0.7,1-1.7,1.9-3.3,1.9c-2.4,0-3.8-1.6-3.8-4.1
		v-5.6c0-0.7,0.5-1.2,1.2-1.2c0.7,0,1.2,0.5,1.2,1.2v4.9c0,1.6,0.8,2.6,2.3,2.6c1.4,0,2.4-1,2.4-2.6v-4.9c0-0.7,0.5-1.2,1.2-1.2
		c0.7,0,1.2,0.5,1.2,1.2V50.2z"/>
	<path class="st0" d="M293.6,50.3c-0.3-0.1-0.5-0.4-0.5-0.8c0-0.5,0.4-1,1-1c0.2,0,0.4,0.1,0.5,0.1c1,0.7,2.1,1,3,1
		c1,0,1.6-0.4,1.6-1.1v0c0-0.8-1.1-1.1-2.4-1.5c-1.6-0.4-3.3-1.1-3.3-3.1v0c0-2,1.7-3.2,3.8-3.2c1.1,0,2.3,0.3,3.3,0.9
		c0.3,0.2,0.6,0.5,0.6,0.9c0,0.6-0.4,1-1,1c-0.2,0-0.3,0-0.5-0.1c-0.9-0.4-1.7-0.7-2.5-0.7c-0.9,0-1.5,0.4-1.5,1v0
		c0,0.8,1.1,1.1,2.4,1.5c1.5,0.5,3.3,1.2,3.3,3.1v0c0,2.2-1.7,3.3-3.9,3.3C296.3,51.5,294.8,51.1,293.6,50.3z"/>
	<path class="st0" d="M303,37.9c0-0.7,0.6-1.2,1.4-1.2c0.8,0,1.4,0.5,1.4,1.2v0.1c0,0.7-0.6,1.2-1.4,1.2c-0.8,0-1.4-0.5-1.4-1.2
		V37.9z M303.2,41.9c0-0.7,0.5-1.2,1.2-1.2c0.7,0,1.2,0.5,1.2,1.2v8.4c0,0.7-0.5,1.2-1.2,1.2c-0.7,0-1.2-0.5-1.2-1.2V41.9z"/>
	<path class="st0" d="M307.7,41.9c0-0.7,0.5-1.2,1.2-1.2s1.2,0.5,1.2,1.2v0.5c0.7-1,1.7-1.8,3.3-1.8c2.4,0,3.8,1.6,3.8,4v5.6
		c0,0.7-0.5,1.2-1.2,1.2s-1.2-0.5-1.2-1.2v-4.9c0-1.6-0.8-2.6-2.3-2.6c-1.4,0-2.4,1-2.4,2.6v4.9c0,0.7-0.5,1.2-1.2,1.2
		c-0.7,0-1.2-0.5-1.2-1.2V41.9z"/>
	<path class="st0" d="M324,51.6c-3.1,0-5.4-2.2-5.4-5.5v0c0-3,2.1-5.5,5.2-5.5c3.4,0,5,2.8,5,5.2c0,0.7-0.5,1.2-1.1,1.2H321
		c0.3,1.7,1.5,2.7,3,2.7c1,0,1.8-0.4,2.5-0.9c0.2-0.1,0.3-0.2,0.6-0.2c0.5,0,1,0.4,1,1c0,0.3-0.1,0.6-0.3,0.7
		C326.8,51,325.6,51.6,324,51.6z M326.4,45.3c-0.2-1.6-1.1-2.8-2.7-2.8c-1.5,0-2.5,1.1-2.7,2.8H326.4z"/>
	<path class="st0" d="M329.8,50.3c-0.3-0.1-0.5-0.4-0.5-0.8c0-0.5,0.4-1,1-1c0.2,0,0.4,0.1,0.5,0.1c1,0.7,2.1,1,3,1
		c1,0,1.6-0.4,1.6-1.1v0c0-0.8-1.1-1.1-2.4-1.5c-1.6-0.4-3.3-1.1-3.3-3.1v0c0-2,1.7-3.2,3.8-3.2c1.1,0,2.3,0.3,3.3,0.9
		c0.3,0.2,0.6,0.5,0.6,0.9c0,0.6-0.4,1-1,1c-0.2,0-0.3,0-0.5-0.1c-0.9-0.4-1.7-0.7-2.5-0.7c-0.9,0-1.5,0.4-1.5,1v0
		c0,0.8,1.1,1.1,2.4,1.5c1.5,0.5,3.3,1.2,3.3,3.1v0c0,2.2-1.7,3.3-3.9,3.3C332.5,51.5,331,51.1,329.8,50.3z"/>
	<path class="st0" d="M338.6,50.3c-0.3-0.1-0.5-0.4-0.5-0.8c0-0.5,0.4-1,1-1c0.2,0,0.4,0.1,0.5,0.1c1,0.7,2.1,1,3,1
		c1,0,1.6-0.4,1.6-1.1v0c0-0.8-1.1-1.1-2.4-1.5c-1.6-0.4-3.3-1.1-3.3-3.1v0c0-2,1.7-3.2,3.8-3.2c1.1,0,2.3,0.3,3.3,0.9
		c0.3,0.2,0.6,0.5,0.6,0.9c0,0.6-0.4,1-1,1c-0.2,0-0.3,0-0.5-0.1c-0.9-0.4-1.7-0.7-2.5-0.7c-0.9,0-1.5,0.4-1.5,1v0
		c0,0.8,1.1,1.1,2.4,1.5c1.5,0.5,3.3,1.2,3.3,3.1v0c0,2.2-1.7,3.3-3.9,3.3C341.3,51.5,339.9,51.1,338.6,50.3z"/>
	<path class="st0" d="M353.7,53.6c-0.4-0.2-0.7-0.5-0.7-1c0-0.5,0.5-1,1-1c0.2,0,0.3,0,0.4,0.1c1,0.5,2,0.8,3.2,0.8
		c2.2,0,3.3-1.1,3.3-3.2v-0.8c-0.9,1.1-2,1.9-3.7,1.9c-2.5,0-4.8-1.8-4.8-4.9v0c0-3.1,2.3-5,4.8-5c1.8,0,2.9,0.8,3.7,1.8v-0.5
		c0-0.7,0.5-1.2,1.2-1.2c0.7,0,1.2,0.5,1.2,1.2v7.3c0,1.8-0.5,3.1-1.3,4c-1,1-2.4,1.4-4.3,1.4C356.3,54.6,355,54.3,353.7,53.6z
		 M361.1,45.5L361.1,45.5c0-1.8-1.4-2.9-3.1-2.9s-3,1.2-3,2.9v0c0,1.7,1.3,2.9,3,2.9C359.6,48.4,361.1,47.3,361.1,45.5z"/>
	<path class="st0" d="M365.5,41.9c0-0.7,0.5-1.2,1.2-1.2s1.2,0.5,1.2,1.2V43c0.6-1.3,1.6-2.3,2.7-2.3c0.8,0,1.2,0.5,1.2,1.2
		c0,0.6-0.4,1.1-1,1.2c-1.7,0.3-2.9,1.6-2.9,4.1v3.1c0,0.7-0.5,1.2-1.2,1.2c-0.7,0-1.2-0.5-1.2-1.2V41.9z"/>
	<path class="st0" d="M371.5,48.3L371.5,48.3c0-2.3,1.8-3.4,4.4-3.4c1.2,0,2,0.2,2.8,0.4V45c0-1.5-0.9-2.3-2.6-2.3
		c-0.9,0-1.7,0.2-2.3,0.4c-0.1,0-0.3,0.1-0.4,0.1c-0.6,0-1-0.4-1-1c0-0.4,0.3-0.8,0.7-1c1-0.4,2-0.6,3.4-0.6c1.6,0,2.8,0.4,3.5,1.2
		c0.8,0.8,1.1,1.9,1.1,3.3v5.2c0,0.7-0.5,1.2-1.2,1.2c-0.7,0-1.2-0.5-1.2-1V50c-0.7,0.9-1.8,1.5-3.4,1.5
		C373.3,51.6,371.5,50.4,371.5,48.3z M378.8,47.5v-0.7c-0.6-0.2-1.4-0.4-2.4-0.4c-1.6,0-2.5,0.7-2.5,1.8v0c0,1,0.9,1.6,2.1,1.6
		C377.6,49.8,378.8,48.9,378.8,47.5z"/>
	<path class="st0" d="M393.4,50.2c0,0.7-0.5,1.2-1.2,1.2c-0.7,0-1.2-0.5-1.2-1.2v-0.7c-0.8,1.1-1.9,2-3.6,2c-2.5,0-4.9-2-4.9-5.5v0
		c0-3.5,2.4-5.5,4.9-5.5c1.7,0,2.8,0.9,3.6,1.9v-4.6c0-0.7,0.5-1.2,1.2-1.2c0.7,0,1.2,0.5,1.2,1.2V50.2z M384.9,46L384.9,46
		c0,2.1,1.4,3.4,3,3.4c1.6,0,3.1-1.4,3.1-3.4v0c0-2-1.4-3.4-3.1-3.4C386.3,42.7,384.9,43.9,384.9,46z"/>
	<path class="st0" d="M400.2,51.6c-3.1,0-5.4-2.2-5.4-5.5v0c0-3,2.1-5.5,5.2-5.5c3.4,0,5,2.8,5,5.2c0,0.7-0.5,1.2-1.1,1.2h-6.6
		c0.3,1.7,1.5,2.7,3,2.7c1,0,1.8-0.4,2.5-0.9c0.2-0.1,0.3-0.2,0.6-0.2c0.5,0,1,0.4,1,1c0,0.3-0.1,0.6-0.3,0.7
		C403.1,51,401.9,51.6,400.2,51.6z M402.6,45.3c-0.2-1.6-1.1-2.8-2.7-2.8c-1.5,0-2.5,1.1-2.7,2.8H402.6z"/>
	<path class="st0" d="M411.1,50.3c-0.3-0.1-0.5-0.4-0.5-0.8c0-0.5,0.4-1,1-1c0.2,0,0.4,0.1,0.5,0.1c1,0.7,2.1,1,3,1
		c1,0,1.6-0.4,1.6-1.1v0c0-0.8-1.1-1.1-2.4-1.5c-1.6-0.4-3.3-1.1-3.3-3.1v0c0-2,1.7-3.2,3.8-3.2c1.1,0,2.3,0.3,3.3,0.9
		c0.3,0.2,0.6,0.5,0.6,0.9c0,0.6-0.4,1-1,1c-0.2,0-0.3,0-0.5-0.1c-0.9-0.4-1.7-0.7-2.5-0.7c-0.9,0-1.5,0.4-1.5,1v0
		c0,0.8,1.1,1.1,2.4,1.5c1.5,0.5,3.3,1.2,3.3,3.1v0c0,2.2-1.7,3.3-3.9,3.3C413.8,51.5,412.3,51.1,411.1,50.3z"/>
	<path class="st0" d="M425.3,51.6c-3.1,0-5.4-2.2-5.4-5.5v0c0-3,2.1-5.5,5.2-5.5c3.4,0,5,2.8,5,5.2c0,0.7-0.5,1.2-1.1,1.2h-6.6
		c0.3,1.7,1.5,2.7,3,2.7c1,0,1.8-0.4,2.5-0.9c0.2-0.1,0.3-0.2,0.6-0.2c0.5,0,1,0.4,1,1c0,0.3-0.1,0.6-0.3,0.7
		C428.2,51,427,51.6,425.3,51.6z M427.7,45.3c-0.2-1.6-1.1-2.8-2.7-2.8c-1.5,0-2.5,1.1-2.7,2.8H427.7z"/>
	<path class="st0" d="M431.6,41.9c0-0.7,0.5-1.2,1.2-1.2s1.2,0.5,1.2,1.2V43c0.6-1.3,1.6-2.3,2.7-2.3c0.8,0,1.2,0.5,1.2,1.2
		c0,0.6-0.4,1.1-1,1.2c-1.7,0.3-2.9,1.6-2.9,4.1v3.1c0,0.7-0.5,1.2-1.2,1.2c-0.7,0-1.2-0.5-1.2-1.2V41.9z"/>
	<path class="st0" d="M443.2,51.5h-0.1c-0.7,0-1.1-0.4-1.4-1.1l-3.5-8.1c-0.1-0.2-0.1-0.4-0.1-0.6c0-0.6,0.5-1.2,1.2-1.2
		s1,0.4,1.2,0.9l2.7,7l2.8-7c0.2-0.4,0.5-0.8,1.1-0.8c0.7,0,1.2,0.5,1.2,1.2c0,0.2-0.1,0.5-0.1,0.6l-3.5,8.1
		C444.3,51.1,443.9,51.5,443.2,51.5z"/>
	<path class="st0" d="M449.5,37.9c0-0.7,0.6-1.2,1.4-1.2s1.4,0.5,1.4,1.2v0.1c0,0.7-0.6,1.2-1.4,1.2s-1.4-0.5-1.4-1.2V37.9z
		 M449.7,41.9c0-0.7,0.5-1.2,1.2-1.2c0.7,0,1.2,0.5,1.2,1.2v8.4c0,0.7-0.5,1.2-1.2,1.2c-0.7,0-1.2-0.5-1.2-1.2V41.9z"/>
	<path class="st0" d="M453.7,46.1L453.7,46.1c0-3,2.3-5.6,5.5-5.6c1.7,0,2.8,0.5,3.7,1.3c0.2,0.1,0.4,0.4,0.4,0.8
		c0,0.6-0.5,1.1-1.1,1.1c-0.3,0-0.6-0.1-0.7-0.2c-0.6-0.5-1.3-0.9-2.3-0.9c-1.8,0-3.1,1.5-3.1,3.4v0c0,1.9,1.3,3.4,3.2,3.4
		c1,0,1.7-0.4,2.4-0.9c0.1-0.1,0.4-0.3,0.7-0.3c0.6,0,1,0.5,1,1.1c0,0.3-0.1,0.6-0.3,0.8c-0.9,0.9-2.1,1.5-3.8,1.5
		C456,51.6,453.7,49.1,453.7,46.1z"/>
	<path class="st0" d="M469.2,51.6c-3.1,0-5.4-2.2-5.4-5.5v0c0-3,2.1-5.5,5.2-5.5c3.4,0,5,2.8,5,5.2c0,0.7-0.5,1.2-1.1,1.2h-6.6
		c0.3,1.7,1.5,2.7,3,2.7c1,0,1.8-0.4,2.5-0.9c0.2-0.1,0.3-0.2,0.6-0.2c0.5,0,1,0.4,1,1c0,0.3-0.1,0.6-0.3,0.7
		C472.1,51,470.9,51.6,469.2,51.6z M471.6,45.3c-0.2-1.6-1.1-2.8-2.7-2.8c-1.5,0-2.5,1.1-2.7,2.8H471.6z"/>
</g>
</svg>
