<?xml version="1.0" encoding="utf-8"?>
<!-- Generator: Adobe Illustrator 21.1.0, SVG Export Plug-In . SVG Version: 6.00 Build 0)  -->
<svg version="1.1" xmlns="http://www.w3.org/2000/svg" xmlns:xlink="http://www.w3.org/1999/xlink" x="0px" y="0px"
	 viewBox="0 0 728 90" style="enable-background:new 0 0 728 90;" xml:space="preserve">
<style type="text/css">
	.st0{fill:#133C7D;}
</style>
<g id="Layer_2">
</g>
<g id="Layer_3">
	<g>
		<path class="st0" d="M181.4,50.1v-5.6H181c-0.6,0-1-0.5-1-1s0.5-1,1-1h0.4v-1.8c0-0.7,0.5-1.2,1.2-1.2c0.7,0,1.2,0.5,1.2,1.2v1.8
			h1.9c0.6,0,1.1,0.5,1.1,1s-0.5,1-1.1,1h-1.9v5.2c0,0.9,0.5,1.3,1.3,1.3c0.3,0,0.5-0.1,0.6-0.1c0.5,0,1,0.4,1,1
			c0,0.4-0.3,0.8-0.6,0.9c-0.5,0.2-1,0.3-1.7,0.3C182.6,53.2,181.4,52.4,181.4,50.1z"/>
		<path class="st0" d="M187.2,47.8L187.2,47.8c0-3.1,2.4-5.6,5.6-5.6s5.6,2.5,5.6,5.5v0c0,3-2.4,5.5-5.7,5.5
			C189.6,53.2,187.2,50.8,187.2,47.8z M196,47.8L196,47.8c0-1.9-1.3-3.4-3.2-3.4c-1.9,0-3.2,1.5-3.2,3.4v0c0,1.8,1.3,3.4,3.2,3.4
			C194.8,51.1,196,49.6,196,47.8z"/>
		<path class="st0" d="M204.9,43.5c0-0.7,0.5-1.2,1.2-1.2s1.2,0.5,1.2,1.2V44c0.7-0.9,1.6-1.8,3.2-1.8c1.5,0,2.6,0.7,3.2,1.9
			c0.8-1.1,2-1.9,3.6-1.9c2.3,0,3.7,1.5,3.7,4v5.6c0,0.7-0.5,1.2-1.2,1.2s-1.2-0.5-1.2-1.2V47c0-1.7-0.8-2.6-2.1-2.6
			c-1.3,0-2.3,0.9-2.3,2.6v4.9c0,0.7-0.5,1.2-1.2,1.2c-0.7,0-1.2-0.5-1.2-1.2V47c0-1.6-0.8-2.6-2.1-2.6s-2.3,1-2.3,2.6v4.9
			c0,0.7-0.5,1.2-1.2,1.2c-0.7,0-1.2-0.5-1.2-1.2V43.5z"/>
		<path class="st0" d="M222.2,50L222.2,50c0-2.3,1.8-3.4,4.4-3.4c1.2,0,2,0.2,2.8,0.4v-0.3c0-1.5-0.9-2.3-2.6-2.3
			c-0.9,0-1.7,0.2-2.3,0.4c-0.1,0-0.3,0.1-0.4,0.1c-0.6,0-1-0.4-1-1c0-0.4,0.3-0.8,0.7-1c1-0.4,2-0.6,3.4-0.6c1.6,0,2.8,0.4,3.5,1.2
			c0.8,0.8,1.1,1.9,1.1,3.3v5.2c0,0.7-0.5,1.2-1.2,1.2c-0.7,0-1.2-0.5-1.2-1v-0.4c-0.7,0.9-1.8,1.5-3.4,1.5
			C224,53.2,222.2,52.1,222.2,50z M229.5,49.2v-0.7c-0.6-0.2-1.4-0.4-2.4-0.4c-1.6,0-2.5,0.7-2.5,1.8v0c0,1,0.9,1.6,2.1,1.6
			C228.2,51.5,229.5,50.5,229.5,49.2z"/>
		<path class="st0" d="M234.1,50.1v-5.6h-0.4c-0.6,0-1-0.5-1-1s0.5-1,1-1h0.4v-1.8c0-0.7,0.5-1.2,1.2-1.2c0.7,0,1.2,0.5,1.2,1.2v1.8
			h1.9c0.6,0,1.1,0.5,1.1,1s-0.5,1-1.1,1h-1.9v5.2c0,0.9,0.5,1.3,1.3,1.3c0.3,0,0.5-0.1,0.6-0.1c0.5,0,1,0.4,1,1
			c0,0.4-0.3,0.8-0.6,0.9c-0.5,0.2-1,0.3-1.7,0.3C235.3,53.2,234.1,52.4,234.1,50.1z"/>
		<path class="st0" d="M239.9,47.8L239.9,47.8c0-3,2.3-5.6,5.5-5.6c1.7,0,2.8,0.5,3.7,1.3c0.2,0.1,0.4,0.4,0.4,0.8
			c0,0.6-0.5,1.1-1.1,1.1c-0.3,0-0.6-0.1-0.7-0.2c-0.6-0.5-1.3-0.9-2.3-0.9c-1.8,0-3.1,1.5-3.1,3.4v0c0,1.9,1.3,3.4,3.2,3.4
			c1,0,1.7-0.4,2.4-0.9c0.1-0.1,0.4-0.3,0.7-0.3c0.6,0,1,0.5,1,1.1c0,0.3-0.1,0.6-0.3,0.8c-0.9,0.9-2.1,1.5-3.8,1.5
			C242.2,53.2,239.9,50.8,239.9,47.8z"/>
		<path class="st0" d="M250.9,39.5c0-0.7,0.5-1.2,1.2-1.2c0.7,0,1.2,0.5,1.2,1.2v4.6c0.7-1,1.7-1.8,3.3-1.8c2.4,0,3.8,1.6,3.8,4v5.6
			c0,0.7-0.5,1.2-1.2,1.2c-0.7,0-1.2-0.5-1.2-1.2V47c0-1.6-0.8-2.6-2.3-2.6c-1.4,0-2.4,1-2.4,2.6v4.9c0,0.7-0.5,1.2-1.2,1.2
			c-0.7,0-1.2-0.5-1.2-1.2V39.5z"/>
		<path class="st0" d="M267.5,56c-0.4-0.1-0.8-0.4-0.8-1c0-0.6,0.5-1,1-1c0.2,0,0.3,0,0.4,0.1c0.3,0.1,0.5,0.1,0.8,0.1
			c0.7,0,1.1-0.3,1.5-1.1l0.1-0.2l-3.9-8.8c-0.1-0.2-0.1-0.4-0.1-0.6c0-0.7,0.5-1.2,1.2-1.2c0.6,0,1,0.4,1.2,0.9l2.8,7l2.6-7
			c0.2-0.5,0.5-0.9,1.2-0.9c0.6,0,1.2,0.5,1.2,1.1c0,0.2-0.1,0.5-0.1,0.6l-3.9,9.3c-0.9,2.2-1.9,3-3.6,3
			C268.5,56.3,268,56.2,267.5,56z"/>
		<path class="st0" d="M277,47.8L277,47.8c0-3.1,2.4-5.6,5.6-5.6c3.2,0,5.6,2.5,5.6,5.5v0c0,3-2.4,5.5-5.7,5.5
			C279.4,53.2,277,50.8,277,47.8z M285.9,47.8L285.9,47.8c0-1.9-1.3-3.4-3.2-3.4c-1.9,0-3.2,1.5-3.2,3.4v0c0,1.8,1.3,3.4,3.2,3.4
			C284.6,51.1,285.9,49.6,285.9,47.8z"/>
		<path class="st0" d="M299.1,51.9c0,0.7-0.5,1.2-1.2,1.2c-0.7,0-1.2-0.5-1.2-1.2v-0.5c-0.7,1-1.7,1.9-3.3,1.9
			c-2.4,0-3.8-1.6-3.8-4.1v-5.6c0-0.7,0.5-1.2,1.2-1.2c0.7,0,1.2,0.5,1.2,1.2v4.9c0,1.6,0.8,2.6,2.3,2.6c1.4,0,2.4-1,2.4-2.6v-4.9
			c0-0.7,0.5-1.2,1.2-1.2c0.7,0,1.2,0.5,1.2,1.2V51.9z"/>
		<path class="st0" d="M301.1,43.5c0-0.7,0.5-1.2,1.2-1.2c0.7,0,1.2,0.5,1.2,1.2v1.1c0.6-1.3,1.6-2.3,2.7-2.3c0.8,0,1.2,0.5,1.2,1.2
			c0,0.6-0.4,1.1-1,1.2c-1.7,0.3-2.9,1.6-2.9,4.1v3.1c0,0.7-0.5,1.2-1.2,1.2c-0.7,0-1.2-0.5-1.2-1.2V43.5z"/>
		<path class="st0" d="M313.4,43.5c0-0.7,0.5-1.2,1.2-1.2c0.7,0,1.2,0.5,1.2,1.2v0.5c0.7-1,1.7-1.8,3.3-1.8c2.4,0,3.8,1.6,3.8,4v5.6
			c0,0.7-0.5,1.2-1.2,1.2c-0.7,0-1.2-0.5-1.2-1.2V47c0-1.6-0.8-2.6-2.3-2.6c-1.4,0-2.4,1-2.4,2.6v4.9c0,0.7-0.5,1.2-1.2,1.2
			c-0.7,0-1.2-0.5-1.2-1.2V43.5z"/>
		<path class="st0" d="M329.6,53.2c-3.1,0-5.4-2.2-5.4-5.5v0c0-3,2.1-5.5,5.2-5.5c3.4,0,5,2.8,5,5.2c0,0.7-0.5,1.2-1.1,1.2h-6.6
			c0.3,1.7,1.5,2.7,3,2.7c1,0,1.8-0.4,2.5-0.9c0.2-0.1,0.3-0.2,0.6-0.2c0.5,0,1,0.4,1,1c0,0.3-0.1,0.6-0.3,0.7
			C332.5,52.7,331.3,53.2,329.6,53.2z M332,47c-0.2-1.6-1.1-2.8-2.7-2.8c-1.5,0-2.5,1.1-2.7,2.8H332z"/>
		<path class="st0" d="M340.7,53.2c-3.1,0-5.4-2.2-5.4-5.5v0c0-3,2.1-5.5,5.2-5.5c3.4,0,5,2.8,5,5.2c0,0.7-0.5,1.2-1.1,1.2h-6.6
			c0.3,1.7,1.5,2.7,3,2.7c1,0,1.8-0.4,2.5-0.9c0.2-0.1,0.3-0.2,0.6-0.2c0.5,0,1,0.4,1,1c0,0.3-0.1,0.6-0.3,0.7
			C343.6,52.7,342.4,53.2,340.7,53.2z M343.1,47c-0.2-1.6-1.1-2.8-2.7-2.8c-1.5,0-2.5,1.1-2.7,2.8H343.1z"/>
		<path class="st0" d="M357.3,51.9c0,0.7-0.5,1.2-1.2,1.2c-0.7,0-1.2-0.5-1.2-1.2v-0.7c-0.8,1.1-1.9,2-3.6,2c-2.5,0-4.9-2-4.9-5.5v0
			c0-3.5,2.4-5.5,4.9-5.5c1.7,0,2.8,0.9,3.6,1.9v-4.6c0-0.7,0.5-1.2,1.2-1.2c0.7,0,1.2,0.5,1.2,1.2V51.9z M348.9,47.7L348.9,47.7
			c0,2.1,1.4,3.4,3,3.4c1.6,0,3.1-1.4,3.1-3.4v0c0-2-1.4-3.4-3.1-3.4C350.2,44.3,348.9,45.6,348.9,47.7z"/>
		<path class="st0" d="M359,51.9c-0.3-0.1-0.5-0.4-0.5-0.8c0-0.5,0.4-1,1-1c0.2,0,0.4,0.1,0.5,0.1c1,0.7,2.1,1,3,1
			c1,0,1.6-0.4,1.6-1.1v0c0-0.8-1.1-1.1-2.4-1.5c-1.6-0.4-3.3-1.1-3.3-3.1v0c0-2,1.7-3.2,3.8-3.2c1.1,0,2.3,0.3,3.3,0.9
			c0.3,0.2,0.6,0.5,0.6,0.9c0,0.6-0.4,1-1,1c-0.2,0-0.3,0-0.5-0.1c-0.9-0.4-1.7-0.7-2.5-0.7c-0.9,0-1.5,0.4-1.5,1v0
			c0,0.8,1.1,1.1,2.4,1.5c1.5,0.5,3.3,1.2,3.3,3.1v0c0,2.2-1.7,3.3-3.9,3.3C361.7,53.2,360.2,52.8,359,51.9z"/>
		<path class="st0" d="M369.6,50.1c0.8,0,1.4,0.6,1.4,1.4v0.2c0,0.8-0.6,1.4-1.4,1.4c-0.8,0-1.4-0.6-1.4-1.4v-0.2
			C368.2,50.7,368.8,50.1,369.6,50.1z"/>
	</g>
</g>
</svg>
