<?xml version="1.0" encoding="utf-8"?>
<!-- Generator: Adobe Illustrator 21.1.0, SVG Export Plug-In . SVG Version: 6.00 Build 0)  -->
<svg version="1.1" id="Layer_1" xmlns="http://www.w3.org/2000/svg" xmlns:xlink="http://www.w3.org/1999/xlink" x="0px" y="0px"
	 viewBox="0 0 300 250" style="enable-background:new 0 0 300 250;" xml:space="preserve">
<style type="text/css">
	.st0{fill:#133C7D;}
</style>
<g>
	<path class="st0" d="M21.9,30.8v-5.2h-0.4c-0.5,0-1-0.4-1-1c0-0.5,0.4-1,1-1h0.4v-1.7c0-0.6,0.5-1.1,1.1-1.1c0.6,0,1.1,0.5,1.1,1.1
		v1.7h1.8c0.5,0,1,0.4,1,1c0,0.5-0.4,1-1,1h-1.8v4.9c0,0.9,0.5,1.2,1.2,1.2c0.3,0,0.5-0.1,0.6-0.1c0.5,0,1,0.4,1,0.9
		c0,0.4-0.3,0.8-0.6,0.9c-0.5,0.2-1,0.3-1.6,0.3C23.1,33.7,21.9,32.9,21.9,30.8z"/>
	<path class="st0" d="M27.4,28.6L27.4,28.6c0-2.9,2.3-5.2,5.3-5.2c3,0,5.3,2.3,5.3,5.1v0c0,2.8-2.3,5.2-5.3,5.2
		C29.6,33.7,27.4,31.4,27.4,28.6z M35.7,28.6L35.7,28.6c0-1.8-1.3-3.2-3-3.2c-1.8,0-3,1.4-3,3.2v0c0,1.7,1.3,3.2,3,3.2
		C34.5,31.7,35.7,30.3,35.7,28.6z"/>
	<path class="st0" d="M44,24.6c0-0.6,0.5-1.1,1.1-1.1s1.1,0.5,1.1,1.1v0.5c0.6-0.9,1.5-1.7,3-1.7c1.4,0,2.4,0.7,3,1.7
		c0.8-1.1,1.8-1.7,3.3-1.7c2.2,0,3.5,1.4,3.5,3.8v5.3c0,0.6-0.5,1.1-1.1,1.1s-1.1-0.5-1.1-1.1v-4.6c0-1.6-0.7-2.4-2-2.4
		c-1.2,0-2.1,0.9-2.1,2.5v4.6c0,0.6-0.5,1.1-1.1,1.1c-0.6,0-1.1-0.5-1.1-1.1v-4.6c0-1.5-0.8-2.4-2-2.4s-2.1,0.9-2.1,2.5v4.6
		c0,0.6-0.5,1.1-1.1,1.1c-0.6,0-1.1-0.5-1.1-1.1V24.6z"/>
	<path class="st0" d="M60.2,30.6L60.2,30.6c0-2.2,1.7-3.2,4.1-3.2c1.1,0,1.9,0.2,2.7,0.4v-0.2c0-1.4-0.9-2.2-2.5-2.2
		c-0.9,0-1.6,0.2-2.2,0.4c-0.1,0-0.2,0.1-0.4,0.1c-0.5,0-1-0.4-1-0.9c0-0.4,0.3-0.8,0.6-0.9c0.9-0.4,1.9-0.6,3.2-0.6
		c1.5,0,2.6,0.4,3.3,1.1c0.7,0.7,1.1,1.8,1.1,3.1v4.9c0,0.6-0.5,1.1-1.1,1.1c-0.7,0-1.1-0.5-1.1-1v-0.4c-0.7,0.8-1.7,1.4-3.2,1.4
		C61.8,33.7,60.2,32.6,60.2,30.6z M67,29.9v-0.7c-0.6-0.2-1.4-0.4-2.3-0.4c-1.5,0-2.3,0.6-2.3,1.6v0c0,1,0.8,1.5,1.9,1.5
		C65.8,32.1,67,31.2,67,29.9z"/>
	<path class="st0" d="M71.3,30.8v-5.2h-0.4c-0.5,0-1-0.4-1-1c0-0.5,0.4-1,1-1h0.4v-1.7c0-0.6,0.5-1.1,1.1-1.1c0.6,0,1.1,0.5,1.1,1.1
		v1.7h1.8c0.5,0,1,0.4,1,1c0,0.5-0.4,1-1,1h-1.8v4.9c0,0.9,0.5,1.2,1.2,1.2c0.3,0,0.5-0.1,0.6-0.1c0.5,0,1,0.4,1,0.9
		c0,0.4-0.3,0.8-0.6,0.9c-0.5,0.2-1,0.3-1.6,0.3C72.5,33.7,71.3,32.9,71.3,30.8z"/>
	<path class="st0" d="M76.8,28.6L76.8,28.6c0-2.9,2.2-5.2,5.2-5.2c1.6,0,2.6,0.5,3.5,1.2c0.1,0.1,0.4,0.4,0.4,0.8c0,0.6-0.5,1-1.1,1
		c-0.3,0-0.5-0.1-0.7-0.2c-0.6-0.5-1.2-0.8-2.1-0.8c-1.6,0-2.9,1.4-2.9,3.2v0c0,1.8,1.2,3.2,3,3.2c0.9,0,1.6-0.4,2.2-0.9
		c0.1-0.1,0.4-0.2,0.6-0.2c0.5,0,1,0.5,1,1c0,0.3-0.1,0.5-0.3,0.7c-0.9,0.8-2,1.4-3.6,1.4C78.9,33.7,76.8,31.4,76.8,28.6z"/>
	<path class="st0" d="M87.1,20.8c0-0.6,0.5-1.1,1.1-1.1s1.1,0.5,1.1,1.1v4.3c0.6-0.9,1.6-1.7,3.1-1.7c2.2,0,3.5,1.5,3.5,3.8v5.3
		c0,0.6-0.5,1.1-1.1,1.1s-1.1-0.5-1.1-1.1v-4.6c0-1.5-0.8-2.4-2.1-2.4c-1.3,0-2.2,0.9-2.2,2.5v4.6c0,0.6-0.5,1.1-1.1,1.1
		c-0.6,0-1.1-0.5-1.1-1.1V20.8z"/>
	<path class="st0" d="M102.7,36.3c-0.3-0.1-0.7-0.4-0.7-0.9c0-0.6,0.4-0.9,0.9-0.9c0.2,0,0.3,0,0.4,0.1c0.3,0.1,0.5,0.1,0.8,0.1
		c0.7,0,1-0.3,1.4-1.1l0.1-0.2l-3.7-8.2c-0.1-0.2-0.1-0.4-0.1-0.5c0-0.6,0.5-1.1,1.1-1.1c0.6,0,0.9,0.3,1.1,0.9l2.7,6.6l2.5-6.6
		c0.2-0.5,0.5-0.9,1.1-0.9c0.6,0,1.1,0.5,1.1,1.1c0,0.2-0.1,0.4-0.1,0.5l-3.6,8.7c-0.8,2-1.7,2.8-3.3,2.8
		C103.6,36.6,103.2,36.5,102.7,36.3z"/>
	<path class="st0" d="M111.6,28.6L111.6,28.6c0-2.9,2.3-5.2,5.3-5.2c3,0,5.3,2.3,5.3,5.1v0c0,2.8-2.3,5.2-5.3,5.2
		C113.8,33.7,111.6,31.4,111.6,28.6z M119.9,28.6L119.9,28.6c0-1.8-1.3-3.2-3-3.2c-1.8,0-3,1.4-3,3.2v0c0,1.7,1.3,3.2,3,3.2
		C118.7,31.7,119.9,30.3,119.9,28.6z"/>
	<path class="st0" d="M132.3,32.5c0,0.6-0.5,1.1-1.1,1.1c-0.6,0-1.1-0.5-1.1-1.1V32c-0.6,0.9-1.6,1.7-3.1,1.7
		c-2.2,0-3.5-1.5-3.5-3.8v-5.3c0-0.6,0.5-1.1,1.1-1.1c0.6,0,1.1,0.5,1.1,1.1v4.6c0,1.5,0.8,2.4,2.1,2.4c1.3,0,2.2-0.9,2.2-2.4v-4.6
		c0-0.6,0.5-1.1,1.1-1.1c0.6,0,1.1,0.5,1.1,1.1V32.5z"/>
	<path class="st0" d="M134.2,24.6c0-0.6,0.5-1.1,1.1-1.1s1.1,0.5,1.1,1.1v1c0.5-1.2,1.5-2.2,2.5-2.2c0.7,0,1.1,0.5,1.1,1.1
		c0,0.6-0.4,1-0.9,1.1c-1.6,0.3-2.7,1.5-2.7,3.9v2.9c0,0.6-0.5,1.1-1.1,1.1c-0.6,0-1.1-0.5-1.1-1.1V24.6z"/>
	<path class="st0" d="M145.7,24.6c0-0.6,0.5-1.1,1.1-1.1s1.1,0.5,1.1,1.1v0.5c0.6-0.9,1.6-1.7,3.1-1.7c2.2,0,3.5,1.5,3.5,3.8v5.3
		c0,0.6-0.5,1.1-1.1,1.1c-0.6,0-1.1-0.5-1.1-1.1v-4.6c0-1.5-0.8-2.4-2.1-2.4c-1.3,0-2.2,0.9-2.2,2.5v4.6c0,0.6-0.5,1.1-1.1,1.1
		c-0.6,0-1.1-0.5-1.1-1.1V24.6z"/>
	<path class="st0" d="M160.9,33.7c-2.9,0-5.1-2.1-5.1-5.1v0c0-2.8,2-5.2,4.8-5.2c3.2,0,4.7,2.6,4.7,4.9c0,0.6-0.5,1.1-1.1,1.1h-6.2
		c0.2,1.6,1.4,2.5,2.9,2.5c1,0,1.7-0.3,2.3-0.9c0.2-0.1,0.3-0.2,0.6-0.2c0.5,0,0.9,0.4,0.9,0.9c0,0.3-0.1,0.5-0.3,0.7
		C163.6,33.2,162.4,33.7,160.9,33.7z M163.2,27.9c-0.2-1.5-1-2.6-2.5-2.6c-1.4,0-2.4,1.1-2.6,2.6H163.2z"/>
	<path class="st0" d="M171.3,33.7c-2.9,0-5.1-2.1-5.1-5.1v0c0-2.8,2-5.2,4.8-5.2c3.2,0,4.7,2.6,4.7,4.9c0,0.6-0.5,1.1-1.1,1.1h-6.2
		c0.2,1.6,1.4,2.5,2.9,2.5c1,0,1.7-0.3,2.3-0.9c0.2-0.1,0.3-0.2,0.6-0.2c0.5,0,0.9,0.4,0.9,0.9c0,0.3-0.1,0.5-0.3,0.7
		C174,33.2,172.8,33.7,171.3,33.7z M173.5,27.9c-0.2-1.5-1-2.6-2.5-2.6c-1.4,0-2.4,1.1-2.6,2.6H173.5z"/>
	<path class="st0" d="M186.9,32.5c0,0.6-0.5,1.1-1.1,1.1c-0.6,0-1.1-0.5-1.1-1.1v-0.6c-0.7,1-1.8,1.9-3.4,1.9
		c-2.3,0-4.6-1.9-4.6-5.1v0c0-3.3,2.2-5.1,4.6-5.1c1.6,0,2.7,0.8,3.4,1.7v-4.3c0-0.6,0.5-1.1,1.1-1.1c0.6,0,1.1,0.5,1.1,1.1V32.5z
		 M178.9,28.5L178.9,28.5c0,2,1.3,3.2,2.9,3.2c1.5,0,2.9-1.3,2.9-3.2v0c0-1.9-1.4-3.2-2.9-3.2C180.2,25.4,178.9,26.6,178.9,28.5z"/>
	<path class="st0" d="M188.4,32.5c-0.2-0.1-0.4-0.4-0.4-0.8c0-0.5,0.4-0.9,0.9-0.9c0.2,0,0.4,0.1,0.5,0.1c1,0.6,2,1,2.9,1
		c1,0,1.5-0.4,1.5-1.1v0c0-0.8-1-1-2.2-1.4c-1.5-0.4-3.1-1-3.1-2.9v0c0-1.9,1.6-3,3.5-3c1.1,0,2.2,0.3,3.1,0.8
		c0.3,0.2,0.5,0.5,0.5,0.9c0,0.5-0.4,0.9-0.9,0.9c-0.2,0-0.3,0-0.5-0.1c-0.8-0.4-1.6-0.7-2.3-0.7c-0.9,0-1.4,0.4-1.4,1v0
		c0,0.7,1.1,1,2.2,1.4c1.4,0.5,3.1,1.1,3.1,2.9v0c0,2.1-1.6,3.1-3.7,3.1C190.9,33.7,189.6,33.3,188.4,32.5z"/>
	<path class="st0" d="M198.3,30.8c0.8,0,1.3,0.6,1.3,1.3v0.2c0,0.7-0.6,1.3-1.3,1.3c-0.8,0-1.3-0.6-1.3-1.3v-0.2
		C197,31.4,197.6,30.8,198.3,30.8z"/>
</g>
</svg>
