<?xml version="1.0" encoding="utf-8"?>
<!-- Generator: Adobe Illustrator 21.1.0, SVG Export Plug-In . SVG Version: 6.00 Build 0)  -->
<svg version="1.1" id="Layer_1" xmlns="http://www.w3.org/2000/svg" xmlns:xlink="http://www.w3.org/1999/xlink" x="0px" y="0px"
	 viewBox="0 0 300 250" style="enable-background:new 0 0 300 250;" xml:space="preserve">
<style type="text/css">
	.st0{fill:#133C7D;}
</style>
<g>
	<path class="st0" d="M21.1,27L21.1,27c0-3.8,2.8-6.8,6.8-6.8c2,0,3.4,0.6,4.5,1.5c0.2,0.2,0.5,0.5,0.5,0.9c0,0.6-0.5,1.1-1.1,1.1
		c-0.3,0-0.5-0.1-0.7-0.2c-0.9-0.7-1.9-1.2-3.1-1.2c-2.5,0-4.3,2.1-4.3,4.6v0c0,2.6,1.8,4.7,4.3,4.7c1.4,0,2.3-0.5,3.3-1.3
		c0.2-0.1,0.4-0.3,0.7-0.3c0.6,0,1.1,0.5,1.1,1.1c0,0.4-0.2,0.6-0.4,0.8c-1.2,1.1-2.6,1.8-4.8,1.8C24,33.7,21.1,30.7,21.1,27z"/>
	<path class="st0" d="M34.5,20.8c0-0.6,0.5-1.1,1.1-1.1s1.1,0.5,1.1,1.1v11.6c0,0.6-0.5,1.1-1.1,1.1c-0.6,0-1.1-0.5-1.1-1.1V20.8z"
		/>
	<path class="st0" d="M38.2,28.6L38.2,28.6c0-2.9,2.3-5.2,5.3-5.2c3,0,5.3,2.3,5.3,5.1v0c0,2.8-2.3,5.2-5.3,5.2
		C40.4,33.7,38.2,31.4,38.2,28.6z M46.5,28.6L46.5,28.6c0-1.8-1.3-3.2-3-3.2c-1.8,0-3,1.4-3,3.2v0c0,1.7,1.3,3.2,3,3.2
		C45.3,31.7,46.5,30.3,46.5,28.6z"/>
	<path class="st0" d="M58.9,32.5c0,0.6-0.5,1.1-1.1,1.1c-0.6,0-1.1-0.5-1.1-1.1V32c-0.6,0.9-1.6,1.7-3.1,1.7c-2.2,0-3.5-1.5-3.5-3.8
		v-5.3c0-0.6,0.5-1.1,1.1-1.1c0.6,0,1.1,0.5,1.1,1.1v4.6c0,1.5,0.8,2.4,2.1,2.4c1.3,0,2.2-0.9,2.2-2.4v-4.6c0-0.6,0.5-1.1,1.1-1.1
		c0.6,0,1.1,0.5,1.1,1.1V32.5z"/>
	<path class="st0" d="M70.6,32.5c0,0.6-0.5,1.1-1.1,1.1c-0.6,0-1.1-0.5-1.1-1.1v-0.6c-0.7,1-1.8,1.9-3.4,1.9c-2.3,0-4.6-1.9-4.6-5.1
		v0c0-3.3,2.2-5.1,4.6-5.1c1.6,0,2.7,0.8,3.4,1.7v-4.3c0-0.6,0.5-1.1,1.1-1.1c0.6,0,1.1,0.5,1.1,1.1V32.5z M62.6,28.5L62.6,28.5
		c0,2,1.3,3.2,2.9,3.2c1.5,0,2.9-1.3,2.9-3.2v0c0-1.9-1.4-3.2-2.9-3.2C63.9,25.4,62.6,26.6,62.6,28.5z"/>
	<path class="st0" d="M72,27.8c0-0.6,0.5-1.1,1.1-1.1h3.5c0.6,0,1.1,0.5,1.1,1.1c0,0.6-0.5,1.1-1.1,1.1h-3.5
		C72.5,28.9,72,28.4,72,27.8z"/>
	<path class="st0" d="M78.6,28.6L78.6,28.6c0-2.9,2.2-5.2,5.2-5.2c1.6,0,2.6,0.5,3.5,1.2c0.1,0.1,0.4,0.4,0.4,0.8c0,0.6-0.5,1-1.1,1
		c-0.3,0-0.5-0.1-0.7-0.2c-0.6-0.5-1.2-0.8-2.1-0.8c-1.6,0-2.9,1.4-2.9,3.2v0c0,1.8,1.2,3.2,3,3.2c0.9,0,1.6-0.4,2.2-0.9
		c0.1-0.1,0.4-0.2,0.6-0.2c0.5,0,1,0.5,1,1c0,0.3-0.1,0.5-0.3,0.7c-0.9,0.8-2,1.4-3.6,1.4C80.8,33.7,78.6,31.4,78.6,28.6z"/>
	<path class="st0" d="M88.1,28.6L88.1,28.6c0-2.9,2.3-5.2,5.3-5.2c3,0,5.3,2.3,5.3,5.1v0c0,2.8-2.3,5.2-5.3,5.2
		C90.3,33.7,88.1,31.4,88.1,28.6z M96.4,28.6L96.4,28.6c0-1.8-1.3-3.2-3-3.2c-1.8,0-3,1.4-3,3.2v0c0,1.7,1.3,3.2,3,3.2
		C95.2,31.7,96.4,30.3,96.4,28.6z"/>
	<path class="st0" d="M100,24.6c0-0.6,0.5-1.1,1.1-1.1s1.1,0.5,1.1,1.1v0.5c0.6-0.9,1.5-1.7,3-1.7c1.4,0,2.4,0.7,3,1.7
		c0.8-1.1,1.8-1.7,3.3-1.7c2.2,0,3.5,1.4,3.5,3.8v5.3c0,0.6-0.5,1.1-1.1,1.1s-1.1-0.5-1.1-1.1v-4.6c0-1.6-0.7-2.4-2-2.4
		c-1.2,0-2.1,0.9-2.1,2.5v4.6c0,0.6-0.5,1.1-1.1,1.1c-0.6,0-1.1-0.5-1.1-1.1v-4.6c0-1.5-0.8-2.4-2-2.4s-2.1,0.9-2.1,2.5v4.6
		c0,0.6-0.5,1.1-1.1,1.1c-0.6,0-1.1-0.5-1.1-1.1V24.6z"/>
	<path class="st0" d="M116.9,24.6c0-0.6,0.5-1.1,1.1-1.1s1.1,0.5,1.1,1.1v0.6c0.7-1,1.8-1.9,3.4-1.9c2.3,0,4.6,1.8,4.6,5.1v0
		c0,3.3-2.3,5.1-4.6,5.1c-1.7,0-2.7-0.8-3.4-1.7v3.5c0,0.6-0.5,1.1-1.1,1.1c-0.6,0-1.1-0.5-1.1-1.1V24.6z M124.9,28.6L124.9,28.6
		c0-2-1.3-3.2-2.8-3.2c-1.5,0-2.9,1.3-2.9,3.2v0c0,1.9,1.4,3.2,2.9,3.2C123.6,31.7,124.9,30.5,124.9,28.6z"/>
	<path class="st0" d="M137.4,32.5c0,0.6-0.5,1.1-1.1,1.1c-0.6,0-1.1-0.5-1.1-1.1V32c-0.6,0.9-1.6,1.7-3.1,1.7
		c-2.2,0-3.5-1.5-3.5-3.8v-5.3c0-0.6,0.5-1.1,1.1-1.1c0.6,0,1.1,0.5,1.1,1.1v4.6c0,1.5,0.8,2.4,2.1,2.4c1.3,0,2.2-0.9,2.2-2.4v-4.6
		c0-0.6,0.5-1.1,1.1-1.1c0.6,0,1.1,0.5,1.1,1.1V32.5z"/>
	<path class="st0" d="M139.7,30.8v-5.2h-0.4c-0.5,0-1-0.4-1-1c0-0.5,0.4-1,1-1h0.4v-1.7c0-0.6,0.5-1.1,1.1-1.1
		c0.6,0,1.1,0.5,1.1,1.1v1.7h1.8c0.5,0,1,0.4,1,1c0,0.5-0.5,1-1,1H142v4.9c0,0.9,0.5,1.2,1.2,1.2c0.3,0,0.5-0.1,0.6-0.1
		c0.5,0,1,0.4,1,0.9c0,0.4-0.3,0.8-0.6,0.9c-0.5,0.2-1,0.3-1.6,0.3C140.9,33.7,139.7,32.9,139.7,30.8z"/>
	<path class="st0" d="M146,20.9c0-0.7,0.6-1.1,1.3-1.1s1.3,0.4,1.3,1.1V21c0,0.7-0.6,1.1-1.3,1.1S146,21.7,146,21V20.9z M146.1,24.6
		c0-0.6,0.5-1.1,1.1-1.1s1.1,0.5,1.1,1.1v7.8c0,0.6-0.5,1.1-1.1,1.1c-0.6,0-1.1-0.5-1.1-1.1V24.6z"/>
	<path class="st0" d="M150.4,24.6c0-0.6,0.5-1.1,1.1-1.1s1.1,0.5,1.1,1.1v0.5c0.6-0.9,1.6-1.7,3.1-1.7c2.2,0,3.5,1.5,3.5,3.8v5.3
		c0,0.6-0.5,1.1-1.1,1.1c-0.6,0-1.1-0.5-1.1-1.1v-4.6c0-1.5-0.8-2.4-2.1-2.4c-1.3,0-2.2,0.9-2.2,2.5v4.6c0,0.6-0.5,1.1-1.1,1.1
		c-0.6,0-1.1-0.5-1.1-1.1V24.6z"/>
	<path class="st0" d="M161.7,35.7c-0.4-0.2-0.6-0.5-0.6-0.9c0-0.5,0.4-0.9,1-0.9c0.2,0,0.3,0,0.4,0.1c0.9,0.5,1.9,0.8,3,0.8
		c2,0,3.1-1.1,3.1-3v-0.8c-0.8,1.1-1.9,1.8-3.5,1.8c-2.3,0-4.5-1.7-4.5-4.6v0c0-2.9,2.2-4.7,4.5-4.7c1.7,0,2.7,0.8,3.5,1.7v-0.5
		c0-0.6,0.5-1.1,1.1-1.1c0.6,0,1.1,0.5,1.1,1.1v6.8c0,1.7-0.4,2.9-1.3,3.7c-0.9,0.9-2.3,1.3-4.1,1.3
		C164.1,36.5,162.9,36.2,161.7,35.7z M168.6,28.1L168.6,28.1c0-1.7-1.3-2.8-2.9-2.8s-2.8,1.1-2.8,2.7v0c0,1.6,1.3,2.7,2.8,2.7
		C167.3,30.8,168.6,29.7,168.6,28.1z"/>
	<path class="st0" d="M20.9,48.6L20.9,48.6c0-2.9,2.3-5.2,5.3-5.2c3,0,5.3,2.3,5.3,5.1v0c0,2.8-2.3,5.2-5.3,5.2
		C23.1,53.7,20.9,51.4,20.9,48.6z M29.2,48.6L29.2,48.6c0-1.8-1.3-3.2-3-3.2c-1.8,0-3,1.4-3,3.2v0c0,1.7,1.3,3.2,3,3.2
		C28,51.7,29.2,50.3,29.2,48.6z"/>
	<path class="st0" d="M32.8,44.6c0-0.6,0.5-1.1,1.1-1.1s1.1,0.5,1.1,1.1v1c0.5-1.2,1.5-2.2,2.5-2.2c0.7,0,1.1,0.5,1.1,1.1
		c0,0.6-0.4,1-0.9,1.1c-1.6,0.3-2.7,1.5-2.7,3.9v2.9c0,0.6-0.5,1.1-1.1,1.1c-0.6,0-1.1-0.5-1.1-1.1V44.6z"/>
	<path class="st0" d="M44.3,40.8c0-0.6,0.5-1.1,1.1-1.1s1.1,0.5,1.1,1.1v4.4c0.7-1,1.8-1.9,3.4-1.9c2.3,0,4.6,1.8,4.6,5.1v0
		c0,3.3-2.3,5.1-4.6,5.1c-1.7,0-2.7-0.8-3.4-1.7v0.5c0,0.6-0.5,1.1-1.1,1.1c-0.6,0-1.1-0.5-1.1-1.1V40.8z M52.2,48.6L52.2,48.6
		c0-2-1.3-3.2-2.8-3.2c-1.5,0-2.9,1.3-2.9,3.2v0c0,1.9,1.4,3.2,2.9,3.2C51,51.7,52.2,50.5,52.2,48.6z"/>
	<path class="st0" d="M55.3,50.6L55.3,50.6c0-2.2,1.7-3.2,4.1-3.2c1.1,0,1.9,0.2,2.7,0.4v-0.2c0-1.4-0.9-2.2-2.5-2.2
		c-0.9,0-1.6,0.2-2.2,0.4c-0.1,0-0.2,0.1-0.4,0.1c-0.5,0-1-0.4-1-0.9c0-0.4,0.3-0.8,0.6-0.9c0.9-0.4,1.9-0.6,3.2-0.6
		c1.5,0,2.6,0.4,3.3,1.1c0.7,0.7,1.1,1.8,1.1,3.1v4.9c0,0.6-0.5,1.1-1.1,1.1c-0.7,0-1.1-0.5-1.1-1v-0.4c-0.7,0.8-1.7,1.4-3.2,1.4
		C56.9,53.7,55.3,52.6,55.3,50.6z M62.1,49.9v-0.7c-0.6-0.2-1.4-0.4-2.3-0.4c-1.5,0-2.3,0.6-2.3,1.6v0c0,1,0.8,1.5,1.9,1.5
		C60.9,52.1,62.1,51.2,62.1,49.9z"/>
	<path class="st0" d="M65.6,52.5c-0.2-0.1-0.4-0.4-0.4-0.8c0-0.5,0.4-0.9,0.9-0.9c0.2,0,0.4,0.1,0.5,0.1c1,0.6,2,1,2.9,1
		c1,0,1.5-0.4,1.5-1.1v0c0-0.8-1.1-1-2.2-1.4c-1.5-0.4-3.1-1-3.1-2.9v0c0-1.9,1.6-3,3.5-3c1.1,0,2.2,0.3,3.1,0.8
		c0.3,0.2,0.5,0.5,0.5,0.9c0,0.5-0.4,0.9-0.9,0.9c-0.2,0-0.3,0-0.4-0.1c-0.8-0.4-1.6-0.7-2.3-0.7c-0.9,0-1.4,0.4-1.4,1v0
		c0,0.7,1.1,1,2.2,1.4c1.4,0.5,3.1,1.1,3.1,2.9v0c0,2.1-1.6,3.1-3.7,3.1C68.1,53.7,66.8,53.3,65.6,52.5z"/>
	<path class="st0" d="M74.4,40.9c0-0.7,0.6-1.1,1.3-1.1s1.3,0.4,1.3,1.1V41c0,0.7-0.6,1.1-1.3,1.1s-1.3-0.5-1.3-1.1V40.9z
		 M74.6,44.6c0-0.6,0.5-1.1,1.1-1.1s1.1,0.5,1.1,1.1v7.8c0,0.6-0.5,1.1-1.1,1.1c-0.6,0-1.1-0.5-1.1-1.1V44.6z"/>
	<path class="st0" d="M78.3,48.6L78.3,48.6c0-2.9,2.2-5.2,5.2-5.2c1.6,0,2.6,0.5,3.5,1.2c0.1,0.1,0.4,0.4,0.4,0.8c0,0.6-0.5,1-1.1,1
		c-0.3,0-0.5-0.1-0.7-0.2c-0.6-0.5-1.2-0.8-2.1-0.8c-1.6,0-2.9,1.4-2.9,3.2v0c0,1.8,1.2,3.2,3,3.2c0.9,0,1.6-0.4,2.2-0.9
		c0.1-0.1,0.4-0.2,0.6-0.2c0.5,0,1,0.5,1,1c0,0.3-0.1,0.5-0.3,0.7c-0.9,0.8-2,1.4-3.6,1.4C80.5,53.7,78.3,51.4,78.3,48.6z"/>
	<path class="st0" d="M97.9,53.7c-2.9,0-5.1-2.1-5.1-5.1v0c0-2.8,2-5.2,4.8-5.2c3.2,0,4.7,2.6,4.7,4.9c0,0.6-0.5,1.1-1.1,1.1h-6.2
		c0.2,1.6,1.4,2.5,2.9,2.5c1,0,1.7-0.3,2.3-0.9c0.2-0.1,0.3-0.2,0.6-0.2c0.5,0,0.9,0.4,0.9,0.9c0,0.3-0.1,0.5-0.3,0.7
		C100.6,53.2,99.4,53.7,97.9,53.7z M100.1,47.9c-0.1-1.5-1-2.6-2.5-2.6c-1.4,0-2.4,1.1-2.6,2.6H100.1z"/>
	<path class="st0" d="M103.7,44.6c0-0.6,0.5-1.1,1.1-1.1s1.1,0.5,1.1,1.1v0.5c0.6-0.9,1.5-1.7,3-1.7c1.4,0,2.4,0.7,3,1.7
		c0.8-1.1,1.8-1.7,3.3-1.7c2.2,0,3.5,1.4,3.5,3.8v5.3c0,0.6-0.5,1.1-1.1,1.1s-1.1-0.5-1.1-1.1v-4.6c0-1.6-0.7-2.4-2-2.4
		c-1.2,0-2.1,0.9-2.1,2.5v4.6c0,0.6-0.5,1.1-1.1,1.1c-0.6,0-1.1-0.5-1.1-1.1v-4.6c0-1.5-0.8-2.4-2-2.4s-2.1,0.9-2.1,2.5v4.6
		c0,0.6-0.5,1.1-1.1,1.1c-0.6,0-1.1-0.5-1.1-1.1V44.6z"/>
	<path class="st0" d="M120,50.6L120,50.6c0-2.2,1.7-3.2,4.1-3.2c1.1,0,1.9,0.2,2.7,0.4v-0.2c0-1.4-0.9-2.2-2.5-2.2
		c-0.9,0-1.6,0.2-2.2,0.4c-0.1,0-0.2,0.1-0.4,0.1c-0.5,0-1-0.4-1-0.9c0-0.4,0.3-0.8,0.6-0.9c0.9-0.4,1.9-0.6,3.2-0.6
		c1.5,0,2.6,0.4,3.3,1.1c0.7,0.7,1.1,1.8,1.1,3.1v4.9c0,0.6-0.5,1.1-1.1,1.1c-0.7,0-1.1-0.5-1.1-1v-0.4c-0.7,0.8-1.7,1.4-3.2,1.4
		C121.6,53.7,120,52.6,120,50.6z M126.7,49.9v-0.7c-0.6-0.2-1.3-0.4-2.2-0.4c-1.5,0-2.3,0.6-2.3,1.6v0c0,1,0.8,1.5,1.9,1.5
		C125.6,52.1,126.7,51.2,126.7,49.9z"/>
	<path class="st0" d="M130.6,40.9c0-0.7,0.6-1.1,1.3-1.1s1.3,0.4,1.3,1.1V41c0,0.7-0.6,1.1-1.3,1.1s-1.3-0.5-1.3-1.1V40.9z
		 M130.8,44.6c0-0.6,0.5-1.1,1.1-1.1s1.1,0.5,1.1,1.1v7.8c0,0.6-0.5,1.1-1.1,1.1c-0.6,0-1.1-0.5-1.1-1.1V44.6z"/>
	<path class="st0" d="M135.2,40.8c0-0.6,0.5-1.1,1.1-1.1s1.1,0.5,1.1,1.1v11.6c0,0.6-0.5,1.1-1.1,1.1c-0.6,0-1.1-0.5-1.1-1.1V40.8z"
		/>
	<path class="st0" d="M139.5,40.9c0-0.7,0.6-1.1,1.3-1.1s1.3,0.4,1.3,1.1V41c0,0.7-0.6,1.1-1.3,1.1s-1.3-0.5-1.3-1.1V40.9z
		 M139.7,44.6c0-0.6,0.5-1.1,1.1-1.1s1.1,0.5,1.1,1.1v7.8c0,0.6-0.5,1.1-1.1,1.1c-0.6,0-1.1-0.5-1.1-1.1V44.6z"/>
	<path class="st0" d="M144,44.6c0-0.6,0.5-1.1,1.1-1.1s1.1,0.5,1.1,1.1v0.5c0.6-0.9,1.6-1.7,3.1-1.7c2.2,0,3.5,1.5,3.5,3.8v5.3
		c0,0.6-0.5,1.1-1.1,1.1c-0.6,0-1.1-0.5-1.1-1.1v-4.6c0-1.5-0.8-2.4-2.1-2.4c-1.3,0-2.2,0.9-2.2,2.5v4.6c0,0.6-0.5,1.1-1.1,1.1
		c-0.6,0-1.1-0.5-1.1-1.1V44.6z"/>
	<path class="st0" d="M155.2,55.7c-0.4-0.2-0.6-0.5-0.6-0.9c0-0.5,0.4-0.9,1-0.9c0.2,0,0.3,0,0.4,0.1c0.9,0.5,1.9,0.8,3,0.8
		c2,0,3.1-1.1,3.1-3v-0.8c-0.8,1.1-1.9,1.8-3.5,1.8c-2.3,0-4.5-1.7-4.5-4.6v0c0-2.9,2.2-4.7,4.5-4.7c1.7,0,2.7,0.8,3.5,1.7v-0.5
		c0-0.6,0.5-1.1,1.1-1.1c0.6,0,1.1,0.5,1.1,1.1v6.8c0,1.7-0.4,2.9-1.3,3.7c-0.9,0.9-2.3,1.3-4.1,1.3
		C157.7,56.5,156.4,56.2,155.2,55.7z M162.1,48.1L162.1,48.1c0-1.7-1.3-2.8-2.9-2.8s-2.8,1.1-2.8,2.7v0c0,1.6,1.3,2.7,2.8,2.7
		C160.8,50.8,162.1,49.7,162.1,48.1z"/>
	<path class="st0" d="M169.5,49.4c-0.4,0-0.8-0.3-0.8-0.8l-0.2-1.6c-0.1-0.5,0.2-0.9,0.7-0.9c1.8-0.2,2.7-0.8,2.7-2v0
		c0-1.1-0.8-1.8-2.2-1.8c-1,0-1.8,0.4-2.5,1c-0.2,0.1-0.4,0.3-0.7,0.3c-0.6,0-1-0.5-1-1c0-0.3,0.1-0.6,0.4-0.8c1-0.9,2.2-1.6,4-1.6
		c2.6,0,4.4,1.5,4.4,3.8v0c0,2.4-1.7,3.4-3.8,3.8l-0.1,0.9c-0.1,0.4-0.4,0.8-0.8,0.8H169.5z M169.5,50.8c0.8,0,1.3,0.6,1.3,1.3v0.2
		c0,0.7-0.6,1.3-1.3,1.3c-0.8,0-1.3-0.6-1.3-1.3v-0.2C168.1,51.4,168.7,50.8,169.5,50.8z"/>
</g>
</svg>
