<?xml version="1.0" encoding="utf-8"?>
<!-- Generator: Adobe Illustrator 21.1.0, SVG Export Plug-In . SVG Version: 6.00 Build 0)  -->
<svg version="1.1" id="Layer_1" xmlns="http://www.w3.org/2000/svg" xmlns:xlink="http://www.w3.org/1999/xlink" x="0px" y="0px"
	 viewBox="0 0 300 250" style="enable-background:new 0 0 300 250;" xml:space="preserve">
<style type="text/css">
	.st0{fill:#133C7D;}
</style>
<g>
	<path class="st0" d="M21.1,27L21.1,27c0-3.8,2.8-6.8,6.8-6.8c2,0,3.4,0.6,4.5,1.5c0.2,0.2,0.5,0.5,0.5,0.9c0,0.6-0.5,1.1-1.1,1.1
		c-0.3,0-0.5-0.1-0.7-0.2c-0.9-0.7-1.9-1.2-3.1-1.2c-2.5,0-4.3,2.1-4.3,4.6v0c0,2.6,1.8,4.7,4.3,4.7c1.4,0,2.3-0.5,3.3-1.3
		c0.2-0.1,0.4-0.3,0.7-0.3c0.6,0,1.1,0.5,1.1,1.1c0,0.4-0.2,0.6-0.4,0.8c-1.2,1.1-2.6,1.8-4.8,1.8C24,33.7,21.1,30.7,21.1,27z"/>
	<path class="st0" d="M34.3,20.8c0-0.6,0.5-1.1,1.1-1.1s1.1,0.5,1.1,1.1v4.3c0.6-0.9,1.6-1.7,3.1-1.7c2.2,0,3.5,1.5,3.5,3.8v5.3
		c0,0.6-0.5,1.1-1.1,1.1s-1.1-0.5-1.1-1.1v-4.6c0-1.5-0.8-2.4-2.1-2.4c-1.3,0-2.2,0.9-2.2,2.5v4.6c0,0.6-0.5,1.1-1.1,1.1
		c-0.6,0-1.1-0.5-1.1-1.1V20.8z"/>
	<path class="st0" d="M44.5,28.6L44.5,28.6c0-2.9,2.3-5.2,5.3-5.2c3,0,5.3,2.3,5.3,5.1v0c0,2.8-2.3,5.2-5.3,5.2
		C46.7,33.7,44.5,31.4,44.5,28.6z M52.8,28.6L52.8,28.6c0-1.8-1.3-3.2-3-3.2c-1.8,0-3,1.4-3,3.2v0c0,1.7,1.3,3.2,3,3.2
		C51.6,31.7,52.8,30.3,52.8,28.6z"/>
	<path class="st0" d="M55.8,28.6L55.8,28.6c0-2.9,2.3-5.2,5.3-5.2c3,0,5.3,2.3,5.3,5.1v0c0,2.8-2.3,5.2-5.3,5.2
		C58.1,33.7,55.8,31.4,55.8,28.6z M64.1,28.6L64.1,28.6c0-1.8-1.3-3.2-3-3.2c-1.8,0-3,1.4-3,3.2v0c0,1.7,1.3,3.2,3,3.2
		C63,31.7,64.1,30.3,64.1,28.6z"/>
	<path class="st0" d="M67.4,32.5c-0.2-0.1-0.4-0.4-0.4-0.8c0-0.5,0.4-0.9,0.9-0.9c0.2,0,0.4,0.1,0.5,0.1c1,0.6,2,1,2.9,1
		c1,0,1.5-0.4,1.5-1.1v0c0-0.8-1.1-1-2.2-1.4c-1.5-0.4-3.1-1-3.1-2.9v0c0-1.9,1.6-3,3.5-3c1.1,0,2.2,0.3,3.1,0.8
		c0.3,0.2,0.5,0.5,0.5,0.9c0,0.5-0.4,0.9-0.9,0.9c-0.2,0-0.3,0-0.4-0.1c-0.8-0.4-1.6-0.7-2.3-0.7c-0.9,0-1.4,0.4-1.4,1v0
		c0,0.7,1.1,1,2.2,1.4c1.4,0.5,3.1,1.1,3.1,2.9v0c0,2.1-1.6,3.1-3.7,3.1C69.9,33.7,68.5,33.3,67.4,32.5z"/>
	<path class="st0" d="M80.8,33.7c-2.9,0-5.1-2.1-5.1-5.1v0c0-2.8,2-5.2,4.8-5.2c3.2,0,4.7,2.6,4.7,4.9c0,0.6-0.5,1.1-1.1,1.1H78
		c0.2,1.6,1.4,2.5,2.9,2.5c1,0,1.7-0.3,2.3-0.9c0.2-0.1,0.3-0.2,0.6-0.2c0.5,0,0.9,0.4,0.9,0.9c0,0.3-0.1,0.5-0.3,0.7
		C83.4,33.2,82.3,33.7,80.8,33.7z M83,27.9c-0.1-1.5-1-2.6-2.5-2.6c-1.4,0-2.4,1.1-2.6,2.6H83z"/>
	<path class="st0" d="M90.6,30.6L90.6,30.6c0-2.2,1.7-3.2,4.1-3.2c1.1,0,1.9,0.2,2.7,0.4v-0.2c0-1.4-0.9-2.2-2.5-2.2
		c-0.9,0-1.6,0.2-2.2,0.4c-0.1,0-0.2,0.1-0.4,0.1c-0.5,0-1-0.4-1-0.9c0-0.4,0.3-0.8,0.6-0.9c0.9-0.4,1.9-0.6,3.2-0.6
		c1.5,0,2.6,0.4,3.3,1.1c0.7,0.7,1.1,1.8,1.1,3.1v4.9c0,0.6-0.5,1.1-1.1,1.1c-0.7,0-1.1-0.5-1.1-1v-0.4c-0.7,0.8-1.7,1.4-3.2,1.4
		C92.3,33.7,90.6,32.6,90.6,30.6z M97.4,29.9v-0.7c-0.6-0.2-1.4-0.4-2.3-0.4c-1.5,0-2.3,0.6-2.3,1.6v0c0,1,0.8,1.5,1.9,1.5
		C96.3,32.1,97.4,31.2,97.4,29.9z"/>
	<path class="st0" d="M106.1,20.8c0-0.6,0.5-1.1,1.1-1.1s1.1,0.5,1.1,1.1v4.4c0.7-1,1.8-1.9,3.4-1.9c2.3,0,4.6,1.8,4.6,5.1v0
		c0,3.3-2.3,5.1-4.6,5.1c-1.7,0-2.7-0.8-3.4-1.7v0.5c0,0.6-0.5,1.1-1.1,1.1c-0.6,0-1.1-0.5-1.1-1.1V20.8z M114,28.6L114,28.6
		c0-2-1.3-3.2-2.8-3.2c-1.5,0-2.9,1.3-2.9,3.2v0c0,1.9,1.4,3.2,2.9,3.2C112.7,31.7,114,30.5,114,28.6z"/>
	<path class="st0" d="M126.5,32.5c0,0.6-0.5,1.1-1.1,1.1c-0.6,0-1.1-0.5-1.1-1.1V32c-0.6,0.9-1.6,1.7-3.1,1.7
		c-2.2,0-3.5-1.5-3.5-3.8v-5.3c0-0.6,0.5-1.1,1.1-1.1c0.6,0,1.1,0.5,1.1,1.1v4.6c0,1.5,0.8,2.4,2.1,2.4c1.3,0,2.2-0.9,2.2-2.4v-4.6
		c0-0.6,0.5-1.1,1.1-1.1c0.6,0,1.1,0.5,1.1,1.1V32.5z"/>
	<path class="st0" d="M128,32.5c-0.2-0.1-0.4-0.4-0.4-0.8c0-0.5,0.4-0.9,0.9-0.9c0.2,0,0.4,0.1,0.5,0.1c1,0.6,2,1,2.9,1
		c1,0,1.5-0.4,1.5-1.1v0c0-0.8-1-1-2.2-1.4c-1.5-0.4-3.1-1-3.1-2.9v0c0-1.9,1.6-3,3.5-3c1.1,0,2.2,0.3,3.1,0.8
		c0.3,0.2,0.5,0.5,0.5,0.9c0,0.5-0.4,0.9-0.9,0.9c-0.2,0-0.3,0-0.5-0.1c-0.8-0.4-1.6-0.7-2.3-0.7c-0.9,0-1.4,0.4-1.4,1v0
		c0,0.7,1.1,1,2.2,1.4c1.4,0.5,3.1,1.1,3.1,2.9v0c0,2.1-1.6,3.1-3.7,3.1C130.5,33.7,129.2,33.3,128,32.5z"/>
	<path class="st0" d="M136.8,20.9c0-0.7,0.6-1.1,1.3-1.1s1.3,0.4,1.3,1.1V21c0,0.7-0.6,1.1-1.3,1.1s-1.3-0.5-1.3-1.1V20.9z
		 M137,24.6c0-0.6,0.5-1.1,1.1-1.1s1.1,0.5,1.1,1.1v7.8c0,0.6-0.5,1.1-1.1,1.1c-0.6,0-1.1-0.5-1.1-1.1V24.6z"/>
	<path class="st0" d="M141.3,24.6c0-0.6,0.5-1.1,1.1-1.1s1.1,0.5,1.1,1.1v0.5c0.6-0.9,1.6-1.7,3.1-1.7c2.2,0,3.5,1.5,3.5,3.8v5.3
		c0,0.6-0.5,1.1-1.1,1.1c-0.6,0-1.1-0.5-1.1-1.1v-4.6c0-1.5-0.8-2.4-2.1-2.4c-1.3,0-2.2,0.9-2.2,2.5v4.6c0,0.6-0.5,1.1-1.1,1.1
		c-0.6,0-1.1-0.5-1.1-1.1V24.6z"/>
	<path class="st0" d="M156.5,33.7c-2.9,0-5.1-2.1-5.1-5.1v0c0-2.8,2-5.2,4.8-5.2c3.2,0,4.7,2.6,4.7,4.9c0,0.6-0.5,1.1-1.1,1.1h-6.2
		c0.2,1.6,1.4,2.5,2.9,2.5c1,0,1.7-0.3,2.3-0.9c0.2-0.1,0.3-0.2,0.6-0.2c0.5,0,0.9,0.4,0.9,0.9c0,0.3-0.1,0.5-0.3,0.7
		C159.2,33.2,158,33.7,156.5,33.7z M158.7,27.9c-0.2-1.5-1-2.6-2.5-2.6c-1.4,0-2.4,1.1-2.6,2.6H158.7z"/>
	<path class="st0" d="M162,32.5c-0.2-0.1-0.4-0.4-0.4-0.8c0-0.5,0.4-0.9,0.9-0.9c0.2,0,0.4,0.1,0.5,0.1c1,0.6,2,1,2.9,1
		c1,0,1.5-0.4,1.5-1.1v0c0-0.8-1-1-2.2-1.4c-1.5-0.4-3.1-1-3.1-2.9v0c0-1.9,1.6-3,3.5-3c1.1,0,2.2,0.3,3.1,0.8
		c0.3,0.2,0.5,0.5,0.5,0.9c0,0.5-0.4,0.9-0.9,0.9c-0.2,0-0.3,0-0.5-0.1c-0.8-0.4-1.6-0.7-2.3-0.7c-0.9,0-1.4,0.4-1.4,1v0
		c0,0.7,1.1,1,2.2,1.4c1.4,0.5,3.1,1.1,3.1,2.9v0c0,2.1-1.6,3.1-3.7,3.1C164.5,33.7,163.1,33.3,162,32.5z"/>
	<path class="st0" d="M170.2,32.5c-0.2-0.1-0.4-0.4-0.4-0.8c0-0.5,0.4-0.9,0.9-0.9c0.2,0,0.4,0.1,0.5,0.1c1,0.6,2,1,2.9,1
		c1,0,1.5-0.4,1.5-1.1v0c0-0.8-1-1-2.2-1.4c-1.5-0.4-3.1-1-3.1-2.9v0c0-1.9,1.6-3,3.5-3c1.1,0,2.2,0.3,3.1,0.8
		c0.3,0.2,0.5,0.5,0.5,0.9c0,0.5-0.4,0.9-0.9,0.9c-0.2,0-0.3,0-0.5-0.1c-0.8-0.4-1.6-0.7-2.3-0.7c-0.9,0-1.4,0.4-1.4,1v0
		c0,0.7,1.1,1,2.2,1.4c1.4,0.5,3.1,1.1,3.1,2.9v0c0,2.1-1.6,3.1-3.7,3.1C172.8,33.7,171.4,33.3,170.2,32.5z"/>
	<path class="st0" d="M22,55.7c-0.4-0.2-0.6-0.5-0.6-0.9c0-0.5,0.4-0.9,1-0.9c0.2,0,0.3,0,0.4,0.1c0.9,0.5,1.9,0.8,3,0.8
		c2,0,3.1-1.1,3.1-3v-0.8c-0.8,1.1-1.9,1.8-3.5,1.8c-2.3,0-4.5-1.7-4.5-4.6v0c0-2.9,2.2-4.7,4.5-4.7c1.7,0,2.7,0.8,3.5,1.7v-0.5
		c0-0.6,0.5-1.1,1.1-1.1c0.6,0,1.1,0.5,1.1,1.1v6.8c0,1.7-0.4,2.9-1.3,3.7c-0.9,0.9-2.3,1.3-4.1,1.3C24.4,56.5,23.2,56.2,22,55.7z
		 M28.9,48.1L28.9,48.1c0-1.7-1.3-2.8-2.9-2.8c-1.6,0-2.8,1.1-2.8,2.7v0c0,1.6,1.3,2.7,2.8,2.7C27.6,50.8,28.9,49.7,28.9,48.1z"/>
	<path class="st0" d="M33.1,44.6c0-0.6,0.5-1.1,1.1-1.1s1.1,0.5,1.1,1.1v1c0.5-1.2,1.5-2.2,2.5-2.2c0.7,0,1.1,0.5,1.1,1.1
		c0,0.6-0.4,1-0.9,1.1c-1.6,0.3-2.7,1.5-2.7,3.9v2.9c0,0.6-0.5,1.1-1.1,1.1c-0.6,0-1.1-0.5-1.1-1.1V44.6z"/>
	<path class="st0" d="M38.8,50.6L38.8,50.6c0-2.2,1.7-3.2,4.1-3.2c1.1,0,1.9,0.2,2.7,0.4v-0.2c0-1.4-0.9-2.2-2.5-2.2
		c-0.9,0-1.6,0.2-2.2,0.4c-0.1,0-0.2,0.1-0.4,0.1c-0.5,0-1-0.4-1-0.9c0-0.4,0.3-0.8,0.6-0.9c0.9-0.4,1.9-0.6,3.2-0.6
		c1.5,0,2.6,0.4,3.3,1.1c0.7,0.7,1.1,1.8,1.1,3.1v4.9c0,0.6-0.5,1.1-1.1,1.1c-0.7,0-1.1-0.5-1.1-1v-0.4c-0.7,0.8-1.7,1.4-3.2,1.4
		C40.4,53.7,38.8,52.6,38.8,50.6z M45.5,49.9v-0.7c-0.6-0.2-1.4-0.4-2.3-0.4c-1.5,0-2.3,0.6-2.3,1.6v0c0,1,0.8,1.5,1.9,1.5
		C44.4,52.1,45.5,51.2,45.5,49.9z"/>
	<path class="st0" d="M59.2,52.5c0,0.6-0.5,1.1-1.1,1.1c-0.6,0-1.1-0.5-1.1-1.1v-0.6c-0.7,1-1.8,1.9-3.4,1.9c-2.3,0-4.6-1.9-4.6-5.1
		v0c0-3.3,2.2-5.1,4.6-5.1c1.6,0,2.7,0.8,3.4,1.7v-4.3c0-0.6,0.5-1.1,1.1-1.1c0.6,0,1.1,0.5,1.1,1.1V52.5z M51.3,48.5L51.3,48.5
		c0,2,1.3,3.2,2.9,3.2c1.5,0,2.9-1.3,2.9-3.2v0c0-1.9-1.4-3.2-2.9-3.2C52.6,45.4,51.3,46.6,51.3,48.5z"/>
	<path class="st0" d="M65.7,53.7c-2.9,0-5.1-2.1-5.1-5.1v0c0-2.8,2-5.2,4.8-5.2c3.2,0,4.7,2.6,4.7,4.9c0,0.6-0.5,1.1-1.1,1.1h-6.2
		c0.2,1.6,1.4,2.5,2.9,2.5c1,0,1.7-0.3,2.3-0.9c0.2-0.1,0.3-0.2,0.6-0.2c0.5,0,0.9,0.4,0.9,0.9c0,0.3-0.1,0.5-0.3,0.7
		C68.3,53.2,67.2,53.7,65.7,53.7z M67.9,47.9c-0.1-1.5-1-2.6-2.5-2.6c-1.4,0-2.4,1.1-2.6,2.6H67.9z"/>
	<path class="st0" d="M75.8,52.5c-0.2-0.1-0.4-0.4-0.4-0.8c0-0.5,0.4-0.9,0.9-0.9c0.2,0,0.4,0.1,0.5,0.1c1,0.6,2,1,2.9,1
		c1,0,1.5-0.4,1.5-1.1v0c0-0.8-1.1-1-2.2-1.4c-1.5-0.4-3.1-1-3.1-2.9v0c0-1.9,1.6-3,3.5-3c1.1,0,2.2,0.3,3.1,0.8
		c0.3,0.2,0.5,0.5,0.5,0.9c0,0.5-0.4,0.9-0.9,0.9c-0.2,0-0.3,0-0.4-0.1c-0.8-0.4-1.6-0.7-2.3-0.7c-0.9,0-1.4,0.4-1.4,1v0
		c0,0.7,1.1,1,2.2,1.4c1.4,0.5,3.1,1.1,3.1,2.9v0c0,2.1-1.6,3.1-3.7,3.1C78.3,53.7,77,53.3,75.8,52.5z"/>
	<path class="st0" d="M89.2,53.7c-2.9,0-5.1-2.1-5.1-5.1v0c0-2.8,2-5.2,4.8-5.2c3.2,0,4.7,2.6,4.7,4.9c0,0.6-0.5,1.1-1.1,1.1h-6.2
		c0.2,1.6,1.4,2.5,2.9,2.5c1,0,1.7-0.3,2.3-0.9c0.2-0.1,0.3-0.2,0.6-0.2c0.5,0,0.9,0.4,0.9,0.9c0,0.3-0.1,0.5-0.3,0.7
		C91.9,53.2,90.7,53.7,89.2,53.7z M91.4,47.9c-0.1-1.5-1-2.6-2.5-2.6c-1.4,0-2.4,1.1-2.6,2.6H91.4z"/>
	<path class="st0" d="M95,44.6c0-0.6,0.5-1.1,1.1-1.1s1.1,0.5,1.1,1.1v1c0.5-1.2,1.5-2.2,2.5-2.2c0.7,0,1.1,0.5,1.1,1.1
		c0,0.6-0.4,1-0.9,1.1c-1.6,0.3-2.7,1.5-2.7,3.9v2.9c0,0.6-0.5,1.1-1.1,1.1c-0.6,0-1.1-0.5-1.1-1.1V44.6z"/>
	<path class="st0" d="M106,53.7h-0.1c-0.6,0-1-0.4-1.3-1l-3.3-7.6c-0.1-0.2-0.1-0.4-0.1-0.6c0-0.6,0.5-1.1,1.1-1.1
		c0.6,0,0.9,0.4,1.1,0.8l2.6,6.6l2.6-6.6c0.2-0.4,0.5-0.8,1.1-0.8c0.6,0,1.1,0.5,1.1,1.1c0,0.2-0.1,0.4-0.1,0.5l-3.3,7.6
		C107,53.3,106.6,53.7,106,53.7z"/>
	<path class="st0" d="M111.9,40.9c0-0.7,0.6-1.1,1.3-1.1s1.3,0.4,1.3,1.1V41c0,0.7-0.6,1.1-1.3,1.1s-1.3-0.5-1.3-1.1V40.9z
		 M112,44.6c0-0.6,0.5-1.1,1.1-1.1s1.1,0.5,1.1,1.1v7.8c0,0.6-0.5,1.1-1.1,1.1c-0.6,0-1.1-0.5-1.1-1.1V44.6z"/>
	<path class="st0" d="M115.8,48.6L115.8,48.6c0-2.9,2.2-5.2,5.2-5.2c1.6,0,2.6,0.5,3.5,1.2c0.1,0.1,0.4,0.4,0.4,0.8
		c0,0.6-0.5,1-1.1,1c-0.3,0-0.5-0.1-0.7-0.2c-0.6-0.5-1.2-0.8-2.1-0.8c-1.6,0-2.9,1.4-2.9,3.2v0c0,1.8,1.2,3.2,3,3.2
		c0.9,0,1.6-0.4,2.2-0.9c0.1-0.1,0.4-0.2,0.6-0.2c0.5,0,1,0.5,1,1c0,0.3-0.1,0.5-0.3,0.7c-0.9,0.8-2,1.4-3.6,1.4
		C117.9,53.7,115.8,51.4,115.8,48.6z"/>
	<path class="st0" d="M130.3,53.7c-2.9,0-5.1-2.1-5.1-5.1v0c0-2.8,2-5.2,4.8-5.2c3.2,0,4.7,2.6,4.7,4.9c0,0.6-0.5,1.1-1.1,1.1h-6.2
		c0.2,1.6,1.4,2.5,2.9,2.5c1,0,1.7-0.3,2.3-0.9c0.2-0.1,0.3-0.2,0.6-0.2c0.5,0,0.9,0.4,0.9,0.9c0,0.3-0.1,0.5-0.3,0.7
		C133,53.2,131.9,53.7,130.3,53.7z M132.6,47.9c-0.1-1.5-1-2.6-2.5-2.6c-1.4,0-2.4,1.1-2.6,2.6H132.6z"/>
</g>
</svg>
