<?xml version="1.0" encoding="utf-8"?>
<!-- Generator: Adobe Illustrator 21.1.0, SVG Export Plug-In . SVG Version: 6.00 Build 0)  -->
<svg version="1.1" id="Layer_1" xmlns="http://www.w3.org/2000/svg" xmlns:xlink="http://www.w3.org/1999/xlink" x="0px" y="0px"
	 viewBox="0 0 160 600" style="enable-background:new 0 0 160 600;" xml:space="preserve">
<style type="text/css">
	.st0{fill:#133C7D;}
</style>
<g>
	<path class="st0" d="M15.6,38.8c0-0.6,0.5-1.1,1.1-1.1h4.5c1.6,0,2.8,0.5,3.6,1.3c0.7,0.7,1,1.6,1,2.7v0c0,2-1.2,3.2-2.9,3.8l2.4,3
		c0.2,0.3,0.4,0.5,0.4,0.8c0,0.6-0.5,1-1.1,1c-0.5,0-0.8-0.2-1.1-0.6l-3.1-3.9h-2.8v3.4c0,0.6-0.5,1.1-1.1,1.1
		c-0.6,0-1.1-0.5-1.1-1.1V38.8z M21.1,43.9c1.6,0,2.6-0.8,2.6-2.1v0c0-1.4-1-2.1-2.6-2.1h-3.2v4.2H21.1z"/>
	<path class="st0" d="M31.7,50.5c-2.8,0-4.9-2-4.9-4.9v0c0-2.7,1.9-5,4.6-5c3,0,4.5,2.5,4.5,4.7c0,0.6-0.5,1-1,1h-6
		c0.2,1.5,1.3,2.4,2.7,2.4c0.9,0,1.6-0.3,2.3-0.8c0.2-0.1,0.3-0.2,0.6-0.2c0.5,0,0.9,0.4,0.9,0.9c0,0.3-0.1,0.5-0.3,0.7
		C34.2,50,33.1,50.5,31.7,50.5z M33.8,44.9c-0.1-1.4-1-2.5-2.4-2.5c-1.3,0-2.3,1-2.5,2.5H33.8z"/>
	<path class="st0" d="M37.4,38.1c0-0.6,0.5-1.1,1.1-1.1s1.1,0.5,1.1,1.1v11.2c0,0.6-0.5,1.1-1.1,1.1c-0.6,0-1.1-0.5-1.1-1.1V38.1z"
		/>
	<path class="st0" d="M41.7,53c-0.3-0.1-0.7-0.4-0.7-0.9c0-0.5,0.4-0.9,0.9-0.9c0.2,0,0.3,0,0.4,0.1c0.3,0.1,0.5,0.1,0.8,0.1
		c0.6,0,1-0.3,1.4-1l0.1-0.2L41,42.3c-0.1-0.2-0.1-0.4-0.1-0.5c0-0.6,0.5-1.1,1.1-1.1c0.6,0,0.9,0.3,1.1,0.8l2.6,6.3l2.4-6.3
		c0.2-0.5,0.5-0.8,1-0.8c0.6,0,1,0.5,1,1c0,0.2-0.1,0.4-0.1,0.5l-3.5,8.3c-0.8,1.9-1.7,2.7-3.2,2.7C42.6,53.2,42.2,53.1,41.7,53z"/>
	<path class="st0" d="M55.2,45.6L55.2,45.6c0-2.8,2.2-5,5.1-5s5.1,2.2,5.1,4.9v0c0,2.7-2.2,5-5.1,5C57.3,50.5,55.2,48.3,55.2,45.6z
		 M63.1,45.6L63.1,45.6c0-1.7-1.2-3.1-2.9-3.1c-1.7,0-2.9,1.4-2.9,3v0c0,1.7,1.2,3,2.9,3C62,48.6,63.1,47.2,63.1,45.6z"/>
	<path class="st0" d="M66.6,41.8c0-0.6,0.5-1.1,1.1-1.1s1.1,0.5,1.1,1.1v0.5c0.6-0.9,1.5-1.7,3-1.7c2.1,0,3.4,1.4,3.4,3.6v5.1
		c0,0.6-0.5,1.1-1.1,1.1c-0.6,0-1.1-0.5-1.1-1.1v-4.4c0-1.5-0.7-2.3-2-2.3c-1.3,0-2.1,0.9-2.1,2.4v4.4c0,0.6-0.5,1.1-1.1,1.1
		c-0.6,0-1.1-0.5-1.1-1.1V41.8z"/>
	<path class="st0" d="M19.7,70.5c-2.8,0-4.9-2-4.9-4.9v0c0-2.7,1.9-5,4.6-5c3,0,4.5,2.5,4.5,4.7c0,0.6-0.5,1-1,1h-6
		c0.2,1.5,1.3,2.4,2.7,2.4c0.9,0,1.6-0.3,2.3-0.8c0.2-0.1,0.3-0.2,0.6-0.2c0.5,0,0.9,0.4,0.9,0.9c0,0.3-0.1,0.5-0.3,0.7
		C22.3,70,21.2,70.5,19.7,70.5z M21.9,64.9c-0.1-1.4-1-2.5-2.4-2.5c-1.3,0-2.3,1-2.5,2.5H21.9z"/>
	<path class="st0" d="M25.8,62.7h-0.4c-0.5,0-0.9-0.4-0.9-0.9c0-0.5,0.4-0.9,0.9-0.9h0.4v-0.7c0-1,0.3-1.8,0.8-2.3
		c0.5-0.5,1.2-0.8,2.1-0.8c0.4,0,0.8,0,1.1,0.1c0.4,0.1,0.8,0.4,0.8,0.9c0,0.5-0.4,0.9-0.9,0.9c-0.1,0-0.3,0-0.4,0
		c-0.8,0-1.3,0.5-1.3,1.4v0.5h1.7c0.5,0,0.9,0.4,0.9,0.9c0,0.5-0.4,0.9-0.9,0.9H28v6.6c0,0.6-0.5,1.1-1.1,1.1
		c-0.6,0-1.1-0.5-1.1-1.1V62.7z"/>
	<path class="st0" d="M31.7,67.7v-5h-0.4c-0.5,0-0.9-0.4-0.9-0.9c0-0.5,0.4-0.9,0.9-0.9h0.4v-1.6c0-0.6,0.5-1.1,1.1-1.1
		c0.6,0,1.1,0.5,1.1,1.1v1.6h1.7c0.5,0,1,0.4,1,0.9c0,0.5-0.4,0.9-1,0.9h-1.7v4.7c0,0.8,0.4,1.2,1.2,1.2c0.3,0,0.5-0.1,0.5-0.1
		c0.5,0,0.9,0.4,0.9,0.9c0,0.4-0.3,0.7-0.6,0.8c-0.5,0.2-0.9,0.3-1.5,0.3C32.8,70.5,31.7,69.8,31.7,67.7z"/>
	<path class="st0" d="M37.7,61.8c0-0.6,0.5-1.1,1.1-1.1s1.1,0.5,1.1,1.1v0.6c0.7-1,1.7-1.8,3.2-1.8c2.2,0,4.4,1.8,4.4,4.9v0
		c0,3.2-2.2,4.9-4.4,4.9c-1.6,0-2.6-0.8-3.2-1.7v3.4c0,0.6-0.5,1.1-1.1,1.1c-0.6,0-1.1-0.5-1.1-1.1V61.8z M45.3,65.6L45.3,65.6
		c0-1.9-1.2-3.1-2.7-3.1c-1.5,0-2.8,1.2-2.8,3v0c0,1.8,1.3,3,2.8,3C44.1,68.6,45.3,67.4,45.3,65.6z"/>
	<path class="st0" d="M48.4,65.6L48.4,65.6c0-2.8,2.2-5,5.1-5s5.1,2.2,5.1,4.9v0c0,2.7-2.2,5-5.1,5C50.5,70.5,48.4,68.3,48.4,65.6z
		 M56.3,65.6L56.3,65.6c0-1.7-1.2-3.1-2.9-3.1c-1.7,0-2.9,1.4-2.9,3v0c0,1.7,1.2,3,2.9,3C55.2,68.6,56.3,67.2,56.3,65.6z"/>
	<path class="st0" d="M59.4,69.3c-0.2-0.1-0.4-0.4-0.4-0.8c0-0.5,0.4-0.9,0.9-0.9c0.2,0,0.3,0.1,0.5,0.1c0.9,0.6,1.9,0.9,2.7,0.9
		c0.9,0,1.5-0.4,1.5-1v0c0-0.7-1-1-2.1-1.3c-1.4-0.4-3-1-3-2.8v0c0-1.8,1.5-2.9,3.4-2.9c1,0,2.1,0.3,3,0.8c0.3,0.2,0.5,0.5,0.5,0.8
		c0,0.5-0.4,0.9-0.9,0.9c-0.2,0-0.3,0-0.4-0.1c-0.8-0.4-1.6-0.6-2.2-0.6c-0.8,0-1.3,0.4-1.3,0.9v0c0,0.7,1,1,2.1,1.4
		c1.4,0.4,3,1.1,3,2.8v0c0,2-1.5,3-3.5,3C61.9,70.5,60.5,70.1,59.4,69.3z"/>
	<path class="st0" d="M67.5,71.9c0.8-0.3,1.3-0.8,1.2-1.6c-0.5-0.1-1-0.6-1-1.2v-0.1c0-0.7,0.5-1.2,1.2-1.2c0.8,0,1.3,0.6,1.3,1.6
		v0.2c0,1.2-0.3,2.1-0.9,2.6c-0.5,0.5-1.2,0.8-1.7,0.8c-0.4,0-0.6-0.2-0.6-0.5C67.1,72.2,67.3,72,67.5,71.9z"/>
	<path class="st0" d="M76.9,62.7h-0.4c-0.5,0-0.9-0.4-0.9-0.9c0-0.5,0.4-0.9,0.9-0.9h0.4v-0.7c0-1,0.3-1.8,0.8-2.3
		c0.5-0.5,1.2-0.8,2.1-0.8c0.4,0,0.8,0,1.1,0.1c0.4,0.1,0.8,0.4,0.8,0.9c0,0.5-0.4,0.9-0.9,0.9c-0.1,0-0.3,0-0.5,0
		c-0.8,0-1.3,0.5-1.3,1.4v0.5h1.7c0.5,0,0.9,0.4,0.9,0.9c0,0.5-0.4,0.9-0.9,0.9H79v6.6c0,0.6-0.5,1.1-1.1,1.1
		c-0.6,0-1.1-0.5-1.1-1.1V62.7z"/>
	<path class="st0" d="M81.3,67.6L81.3,67.6c0-2.1,1.6-3.1,3.9-3.1c1.1,0,1.8,0.2,2.6,0.4v-0.2c0-1.4-0.8-2.1-2.4-2.1
		c-0.8,0-1.5,0.1-2.1,0.4C83.2,63,83.1,63,83,63c-0.5,0-0.9-0.4-0.9-0.9c0-0.4,0.3-0.7,0.6-0.9c0.9-0.3,1.8-0.6,3.1-0.6
		c1.4,0,2.5,0.4,3.2,1.1c0.7,0.7,1,1.7,1,2.9v4.7c0,0.6-0.5,1-1.1,1c-0.6,0-1.1-0.4-1.1-0.9v-0.4c-0.6,0.8-1.6,1.4-3.1,1.4
		C82.9,70.5,81.3,69.5,81.3,67.6z M87.9,66.9v-0.6c-0.6-0.2-1.3-0.4-2.2-0.4c-1.4,0-2.2,0.6-2.2,1.6v0c0,0.9,0.8,1.4,1.9,1.4
		C86.8,68.9,87.9,68.1,87.9,66.9z"/>
	<path class="st0" d="M91.4,68.7l2.7-3.2l-2.5-3c-0.2-0.3-0.4-0.5-0.4-0.8c0-0.6,0.5-1,1-1c0.4,0,0.7,0.2,1,0.5l2.1,2.8l2.2-2.8
		c0.3-0.3,0.6-0.6,0.9-0.6c0.6,0,1,0.4,1,1c0,0.3-0.1,0.5-0.3,0.7l-2.6,3.1l2.7,3.2c0.2,0.3,0.4,0.5,0.4,0.8c0,0.6-0.5,1-1,1
		c-0.4,0-0.7-0.2-1-0.6l-2.3-3l-2.3,3c-0.3,0.3-0.6,0.6-1,0.6c-0.6,0-1-0.4-1-1C91.1,69.2,91.2,68.9,91.4,68.7z"/>
	<path class="st0" d="M14.8,85.6L14.8,85.6c0-2.8,2.2-5,5.1-5s5.1,2.2,5.1,4.9v0c0,2.7-2.2,5-5.1,5C17,90.5,14.8,88.3,14.8,85.6z
		 M22.8,85.6L22.8,85.6c0-1.7-1.2-3.1-2.9-3.1c-1.7,0-2.9,1.4-2.9,3v0c0,1.7,1.2,3,2.9,3C21.7,88.6,22.8,87.2,22.8,85.6z"/>
	<path class="st0" d="M26.3,81.8c0-0.6,0.5-1.1,1.1-1.1s1.1,0.5,1.1,1.1v1c0.5-1.2,1.4-2.1,2.4-2.1c0.7,0,1.1,0.5,1.1,1.1
		c0,0.6-0.4,1-0.9,1c-1.5,0.3-2.6,1.5-2.6,3.7v2.8c0,0.6-0.5,1.1-1.1,1.1c-0.6,0-1.1-0.5-1.1-1.1V81.8z"/>
	<path class="st0" d="M37.3,81.8c0-0.6,0.5-1.1,1.1-1.1s1.1,0.5,1.1,1.1v0.5c0.6-0.8,1.4-1.6,2.9-1.6c1.4,0,2.3,0.7,2.8,1.7
		c0.8-1,1.8-1.7,3.2-1.7c2.1,0,3.3,1.3,3.3,3.6v5.1c0,0.6-0.5,1.1-1.1,1.1c-0.6,0-1.1-0.5-1.1-1.1v-4.4c0-1.5-0.7-2.3-1.9-2.3
		c-1.2,0-2,0.8-2,2.4v4.4c0,0.6-0.5,1.1-1.1,1.1c-0.6,0-1.1-0.5-1.1-1.1v-4.4c0-1.5-0.7-2.3-1.9-2.3c-1.2,0-2,0.9-2,2.4v4.4
		c0,0.6-0.5,1.1-1.1,1.1c-0.6,0-1.1-0.5-1.1-1.1V81.8z"/>
	<path class="st0" d="M53,85.6L53,85.6c0-2.8,2.2-5,5.1-5s5.1,2.2,5.1,4.9v0c0,2.7-2.2,5-5.1,5C55.1,90.5,53,88.3,53,85.6z M61,85.6
		L61,85.6c0-1.7-1.2-3.1-2.9-3.1c-1.7,0-2.9,1.4-2.9,3v0c0,1.7,1.2,3,2.9,3C59.8,88.6,61,87.2,61,85.6z"/>
	<path class="st0" d="M64.5,81.8c0-0.6,0.5-1.1,1.1-1.1s1.1,0.5,1.1,1.1v0.5c0.6-0.9,1.5-1.7,3-1.7c2.1,0,3.4,1.4,3.4,3.6v5.1
		c0,0.6-0.5,1.1-1.1,1.1s-1.1-0.5-1.1-1.1v-4.4c0-1.5-0.7-2.3-2-2.3c-1.3,0-2.1,0.9-2.1,2.4v4.4c0,0.6-0.5,1.1-1.1,1.1
		c-0.6,0-1.1-0.5-1.1-1.1V81.8z"/>
	<path class="st0" d="M74.7,78.2c0-0.6,0.5-1.1,1.2-1.1c0.7,0,1.2,0.4,1.2,1.1v0.1c0,0.6-0.5,1.1-1.2,1.1c-0.7,0-1.2-0.4-1.2-1.1
		V78.2z M74.8,81.8c0-0.6,0.5-1.1,1.1-1.1c0.6,0,1.1,0.5,1.1,1.1v7.5c0,0.6-0.5,1.1-1.1,1.1c-0.6,0-1.1-0.5-1.1-1.1V81.8z"/>
	<path class="st0" d="M79.4,87.7v-5h-0.4c-0.5,0-0.9-0.4-0.9-0.9c0-0.5,0.4-0.9,0.9-0.9h0.4v-1.6c0-0.6,0.5-1.1,1.1-1.1
		c0.6,0,1.1,0.5,1.1,1.1v1.6h1.7c0.5,0,1,0.4,1,0.9c0,0.5-0.4,0.9-1,0.9h-1.7v4.7c0,0.8,0.4,1.2,1.2,1.2c0.3,0,0.5-0.1,0.5-0.1
		c0.5,0,0.9,0.4,0.9,0.9c0,0.4-0.3,0.7-0.6,0.8c-0.5,0.2-0.9,0.3-1.5,0.3C80.5,90.5,79.4,89.8,79.4,87.7z"/>
	<path class="st0" d="M84.7,85.6L84.7,85.6c0-2.8,2.2-5,5.1-5s5.1,2.2,5.1,4.9v0c0,2.7-2.2,5-5.1,5C86.8,90.5,84.7,88.3,84.7,85.6z
		 M92.6,85.6L92.6,85.6c0-1.7-1.2-3.1-2.9-3.1c-1.7,0-2.9,1.4-2.9,3v0c0,1.7,1.2,3,2.9,3C91.5,88.6,92.6,87.2,92.6,85.6z"/>
	<path class="st0" d="M96.1,81.8c0-0.6,0.5-1.1,1.1-1.1c0.6,0,1.1,0.5,1.1,1.1v1c0.5-1.2,1.4-2.1,2.4-2.1c0.7,0,1.1,0.5,1.1,1.1
		c0,0.6-0.4,1-0.9,1c-1.5,0.3-2.6,1.5-2.6,3.7v2.8c0,0.6-0.5,1.1-1.1,1.1c-0.6,0-1.1-0.5-1.1-1.1V81.8z"/>
	<path class="st0" d="M106.7,90.5c-2.8,0-4.9-2-4.9-4.9v0c0-2.7,1.9-5,4.6-5c3,0,4.5,2.5,4.5,4.7c0,0.6-0.5,1-1,1h-6
		c0.2,1.5,1.3,2.4,2.7,2.4c0.9,0,1.6-0.3,2.3-0.8c0.2-0.1,0.3-0.2,0.6-0.2c0.5,0,0.9,0.4,0.9,0.9c0,0.3-0.1,0.5-0.3,0.7
		C109.2,90,108.2,90.5,106.7,90.5z M108.8,84.9c-0.1-1.4-1-2.5-2.4-2.5c-1.3,0-2.3,1-2.5,2.5H108.8z"/>
	<path class="st0" d="M121.6,89.3c0,0.6-0.5,1.1-1.1,1.1c-0.6,0-1.1-0.5-1.1-1.1v-0.6c-0.7,1-1.7,1.8-3.2,1.8
		c-2.2,0-4.4-1.8-4.4-4.9v0c0-3.2,2.1-4.9,4.4-4.9c1.6,0,2.6,0.8,3.2,1.7v-4.1c0-0.6,0.5-1.1,1.1-1.1c0.6,0,1.1,0.5,1.1,1.1V89.3z
		 M114,85.5L114,85.5c0,1.9,1.3,3.1,2.7,3.1c1.5,0,2.8-1.2,2.8-3v0c0-1.8-1.3-3-2.8-3C115.2,82.5,114,83.6,114,85.5z"/>
	<path class="st0" d="M15,109.3c-0.2-0.1-0.4-0.4-0.4-0.8c0-0.5,0.4-0.9,0.9-0.9c0.2,0,0.3,0.1,0.5,0.1c0.9,0.6,1.9,0.9,2.7,0.9
		c0.9,0,1.5-0.4,1.5-1v0c0-0.7-1-1-2.1-1.3c-1.4-0.4-3-1-3-2.8v0c0-1.8,1.5-2.9,3.4-2.9c1,0,2.1,0.3,3,0.8c0.3,0.2,0.5,0.5,0.5,0.8
		c0,0.5-0.4,0.9-0.9,0.9c-0.2,0-0.3,0-0.4-0.1c-0.8-0.4-1.6-0.6-2.2-0.6c-0.8,0-1.3,0.4-1.3,0.9v0c0,0.7,1,1,2.1,1.4
		c1.4,0.4,3,1.1,3,2.8v0c0,2-1.5,3-3.5,3C17.4,110.5,16.1,110.1,15,109.3z"/>
	<path class="st0" d="M27.8,110.5c-2.8,0-4.9-2-4.9-4.9v0c0-2.7,1.9-5,4.6-5c3,0,4.5,2.5,4.5,4.7c0,0.6-0.5,1-1,1h-6
		c0.2,1.5,1.3,2.4,2.7,2.4c0.9,0,1.6-0.3,2.3-0.8c0.2-0.1,0.3-0.2,0.6-0.2c0.5,0,0.9,0.4,0.9,0.9c0,0.3-0.1,0.5-0.3,0.7
		C30.4,110,29.3,110.5,27.8,110.5z M30,104.9c-0.1-1.4-1-2.5-2.4-2.5c-1.3,0-2.3,1-2.5,2.5H30z"/>
	<path class="st0" d="M32.9,105.6L32.9,105.6c0-2.7,2.1-5,5-5c1.5,0,2.5,0.5,3.3,1.2c0.1,0.1,0.3,0.4,0.3,0.8c0,0.6-0.5,1-1,1
		c-0.3,0-0.5-0.1-0.6-0.2c-0.6-0.5-1.2-0.8-2-0.8c-1.6,0-2.8,1.4-2.8,3v0c0,1.7,1.2,3,2.8,3c0.9,0,1.5-0.3,2.1-0.8
		c0.1-0.1,0.3-0.2,0.6-0.2c0.5,0,0.9,0.4,0.9,1c0,0.3-0.1,0.5-0.3,0.7c-0.8,0.8-1.9,1.4-3.5,1.4C35,110.5,32.9,108.3,32.9,105.6z"/>
	<path class="st0" d="M51.3,109.3c0,0.6-0.5,1.1-1.1,1.1c-0.6,0-1.1-0.5-1.1-1.1v-0.5c-0.6,0.9-1.5,1.7-3,1.7
		c-2.1,0-3.4-1.4-3.4-3.7v-5.1c0-0.6,0.5-1.1,1.1-1.1c0.6,0,1.1,0.5,1.1,1.1v4.4c0,1.5,0.7,2.3,2,2.3c1.3,0,2.1-0.9,2.1-2.3v-4.4
		c0-0.6,0.5-1.1,1.1-1.1c0.6,0,1.1,0.5,1.1,1.1V109.3z"/>
	<path class="st0" d="M53.1,101.8c0-0.6,0.5-1.1,1.1-1.1s1.1,0.5,1.1,1.1v1c0.5-1.2,1.4-2.1,2.4-2.1c0.7,0,1.1,0.5,1.1,1.1
		c0,0.6-0.4,1-0.9,1c-1.5,0.3-2.6,1.5-2.6,3.7v2.8c0,0.6-0.5,1.1-1.1,1.1c-0.6,0-1.1-0.5-1.1-1.1V101.8z"/>
	<path class="st0" d="M59.6,98.2c0-0.6,0.5-1.1,1.2-1.1s1.2,0.4,1.2,1.1v0.1c0,0.6-0.5,1.1-1.2,1.1s-1.2-0.4-1.2-1.1V98.2z
		 M59.8,101.8c0-0.6,0.5-1.1,1.1-1.1s1.1,0.5,1.1,1.1v7.5c0,0.6-0.5,1.1-1.1,1.1c-0.6,0-1.1-0.5-1.1-1.1V101.8z"/>
	<path class="st0" d="M64.3,107.7v-5H64c-0.5,0-0.9-0.4-0.9-0.9c0-0.5,0.4-0.9,0.9-0.9h0.4v-1.6c0-0.6,0.5-1.1,1.1-1.1
		c0.6,0,1.1,0.5,1.1,1.1v1.6h1.7c0.5,0,1,0.4,1,0.9c0,0.5-0.4,0.9-1,0.9h-1.7v4.7c0,0.8,0.4,1.2,1.2,1.2c0.3,0,0.5-0.1,0.5-0.1
		c0.5,0,0.9,0.4,0.9,0.9c0,0.4-0.3,0.7-0.6,0.8c-0.5,0.2-0.9,0.3-1.5,0.3C65.5,110.5,64.3,109.8,64.3,107.7z"/>
	<path class="st0" d="M70.6,113c-0.3-0.1-0.7-0.4-0.7-0.9c0-0.5,0.4-0.9,0.9-0.9c0.2,0,0.3,0,0.4,0.1c0.3,0.1,0.4,0.1,0.8,0.1
		c0.6,0,1-0.3,1.4-1l0.1-0.2l-3.5-7.9c-0.1-0.2-0.1-0.4-0.1-0.5c0-0.6,0.5-1.1,1.1-1.1c0.6,0,0.9,0.3,1.1,0.8l2.6,6.3l2.4-6.3
		c0.2-0.5,0.5-0.8,1-0.8c0.6,0,1,0.5,1,1c0,0.2-0.1,0.4-0.1,0.5l-3.5,8.3c-0.8,1.9-1.7,2.7-3.2,2.7C71.5,113.2,71,113.1,70.6,113z"
		/>
	<path class="st0" d="M83.9,107.6L83.9,107.6c0-2.1,1.6-3.1,3.9-3.1c1.1,0,1.8,0.2,2.6,0.4v-0.2c0-1.4-0.8-2.1-2.4-2.1
		c-0.8,0-1.5,0.1-2.1,0.4c-0.1,0-0.2,0.1-0.3,0.1c-0.5,0-0.9-0.4-0.9-0.9c0-0.4,0.3-0.7,0.6-0.9c0.9-0.3,1.8-0.6,3.1-0.6
		c1.4,0,2.5,0.4,3.2,1.1c0.7,0.7,1,1.7,1,2.9v4.7c0,0.6-0.5,1-1.1,1c-0.6,0-1.1-0.4-1.1-0.9v-0.4c-0.6,0.8-1.6,1.4-3.1,1.4
		C85.5,110.5,83.9,109.5,83.9,107.6z M90.4,106.9v-0.6c-0.6-0.2-1.3-0.4-2.2-0.4c-1.4,0-2.2,0.6-2.2,1.6v0c0,0.9,0.8,1.4,1.9,1.4
		C89.3,108.9,90.4,108.1,90.4,106.9z"/>
	<path class="st0" d="M94.3,98.1c0-0.6,0.5-1.1,1.1-1.1c0.6,0,1.1,0.5,1.1,1.1v11.2c0,0.6-0.5,1.1-1.1,1.1c-0.6,0-1.1-0.5-1.1-1.1
		V98.1z"/>
	<path class="st0" d="M97.8,107.6L97.8,107.6c0-2.1,1.6-3.1,3.9-3.1c1.1,0,1.8,0.2,2.6,0.4v-0.2c0-1.4-0.8-2.1-2.4-2.1
		c-0.8,0-1.5,0.1-2.1,0.4c-0.1,0-0.2,0.1-0.3,0.1c-0.5,0-0.9-0.4-0.9-0.9c0-0.4,0.3-0.7,0.6-0.9c0.9-0.3,1.8-0.6,3.1-0.6
		c1.4,0,2.5,0.4,3.2,1.1c0.7,0.7,1,1.7,1,2.9v4.7c0,0.6-0.5,1-1.1,1c-0.6,0-1.1-0.4-1.1-0.9v-0.4c-0.6,0.8-1.6,1.4-3.1,1.4
		C99.4,110.5,97.8,109.5,97.8,107.6z M104.3,106.9v-0.6c-0.6-0.2-1.3-0.4-2.2-0.4c-1.4,0-2.2,0.6-2.2,1.6v0c0,0.9,0.8,1.4,1.9,1.4
		C103.2,108.9,104.3,108.1,104.3,106.9z"/>
	<path class="st0" d="M108.1,101.8c0-0.6,0.5-1.1,1.1-1.1c0.6,0,1.1,0.5,1.1,1.1v1c0.5-1.2,1.4-2.1,2.4-2.1c0.7,0,1.1,0.5,1.1,1.1
		c0,0.6-0.4,1-0.9,1c-1.5,0.3-2.6,1.5-2.6,3.7v2.8c0,0.6-0.5,1.1-1.1,1.1c-0.6,0-1.1-0.5-1.1-1.1V101.8z"/>
	<path class="st0" d="M114.7,101.8c0-0.6,0.5-1.1,1.1-1.1c0.6,0,1.1,0.5,1.1,1.1v0.5c0.6-0.8,1.4-1.6,2.9-1.6c1.4,0,2.3,0.7,2.8,1.7
		c0.8-1,1.8-1.7,3.2-1.7c2.1,0,3.3,1.3,3.3,3.6v5.1c0,0.6-0.5,1.1-1.1,1.1s-1.1-0.5-1.1-1.1v-4.4c0-1.5-0.7-2.3-1.9-2.3
		c-1.2,0-2,0.8-2,2.4v4.4c0,0.6-0.5,1.1-1.1,1.1c-0.6,0-1.1-0.5-1.1-1.1v-4.4c0-1.5-0.7-2.3-1.9-2.3c-1.2,0-2,0.9-2,2.4v4.4
		c0,0.6-0.5,1.1-1.1,1.1c-0.6,0-1.1-0.5-1.1-1.1V101.8z"/>
	<path class="st0" d="M130.5,109.3c-0.2-0.1-0.4-0.4-0.4-0.8c0-0.5,0.4-0.9,0.9-0.9c0.2,0,0.3,0.1,0.5,0.1c0.9,0.6,1.9,0.9,2.7,0.9
		c0.9,0,1.5-0.4,1.5-1v0c0-0.7-1-1-2.1-1.3c-1.4-0.4-3-1-3-2.8v0c0-1.8,1.5-2.9,3.4-2.9c1,0,2.1,0.3,3,0.8c0.3,0.2,0.5,0.5,0.5,0.8
		c0,0.5-0.4,0.9-0.9,0.9c-0.2,0-0.3,0-0.4-0.1c-0.8-0.4-1.6-0.6-2.2-0.6c-0.8,0-1.3,0.4-1.3,0.9v0c0,0.7,1,1,2.1,1.4
		c1.4,0.4,3,1.1,3,2.8v0c0,2-1.5,3-3.5,3C132.9,110.5,131.6,110.1,130.5,109.3z"/>
	<path class="st0" d="M141.4,106.4c-0.4,0-0.7-0.3-0.8-0.7l-0.2-1.5c-0.1-0.5,0.2-0.8,0.7-0.9c1.7-0.2,2.6-0.8,2.6-1.9v0
		c0-1-0.8-1.7-2.1-1.7c-1,0-1.7,0.3-2.4,1c-0.2,0.1-0.4,0.3-0.7,0.3c-0.6,0-1-0.5-1-1c0-0.3,0.1-0.6,0.4-0.8c1-0.9,2.2-1.5,3.8-1.5
		c2.5,0,4.2,1.4,4.2,3.7v0c0,2.3-1.6,3.3-3.6,3.6l-0.1,0.8c-0.1,0.4-0.4,0.7-0.8,0.7H141.4z M141.4,107.7c0.7,0,1.3,0.5,1.3,1.2v0.2
		c0,0.7-0.5,1.2-1.3,1.2s-1.3-0.5-1.3-1.2V109C140.1,108.3,140.6,107.7,141.4,107.7z"/>
</g>
</svg>
