<?xml version="1.0" encoding="utf-8"?>
<!-- Generator: Adobe Illustrator 21.1.0, SVG Export Plug-In . SVG Version: 6.00 Build 0)  -->
<svg version="1.1" id="Layer_3" xmlns="http://www.w3.org/2000/svg" xmlns:xlink="http://www.w3.org/1999/xlink" x="0px" y="0px"
	 viewBox="0 0 300 600" style="enable-background:new 0 0 300 600;" xml:space="preserve">
<style type="text/css">
	.st0{fill:#133C7D;}
</style>
<g>
	<path class="st0" d="M40.6,64.3c-0.3-0.2-0.5-0.6-0.5-1c0-0.7,0.6-1.3,1.3-1.3c0.4,0,0.6,0.1,0.8,0.2c1.3,1,2.6,1.6,4.3,1.6
		s2.7-0.8,2.7-1.9v0c0-1.1-0.6-1.7-3.5-2.4c-3.3-0.8-5.1-1.8-5.1-4.6v0c0-2.6,2.2-4.5,5.3-4.5c1.9,0,3.5,0.5,4.9,1.4
		c0.3,0.2,0.6,0.5,0.6,1.1c0,0.7-0.6,1.3-1.3,1.3c-0.3,0-0.5-0.1-0.7-0.2c-1.2-0.8-2.3-1.2-3.5-1.2c-1.6,0-2.5,0.8-2.5,1.8v0
		c0,1.2,0.7,1.7,3.7,2.4c3.3,0.8,4.9,2,4.9,4.5v0c0,2.9-2.3,4.6-5.5,4.6C44.3,66.2,42.3,65.6,40.6,64.3z"/>
	<path class="st0" d="M59,66.3c-3.4,0-6-2.4-6-6v0c0-3.3,2.4-6.1,5.7-6.1c3.7,0,5.5,3,5.5,5.7c0,0.7-0.6,1.3-1.3,1.3h-7.3
		c0.3,1.9,1.6,2.9,3.3,2.9c1.1,0,2-0.4,2.8-1c0.2-0.2,0.4-0.2,0.7-0.2c0.6,0,1.1,0.5,1.1,1.1c0,0.3-0.2,0.6-0.4,0.8
		C62.1,65.7,60.8,66.3,59,66.3z M61.6,59.4c-0.2-1.7-1.2-3.1-2.9-3.1c-1.6,0-2.8,1.3-3,3.1H61.6z"/>
	<path class="st0" d="M66.4,62.8v-6.1H66c-0.6,0-1.1-0.5-1.1-1.1s0.5-1.1,1.1-1.1h0.4v-2c0-0.7,0.6-1.3,1.3-1.3
		c0.7,0,1.3,0.6,1.3,1.3v2h2.1c0.6,0,1.2,0.5,1.2,1.1s-0.5,1.1-1.2,1.1h-2.1v5.7c0,1,0.5,1.5,1.4,1.5c0.3,0,0.6-0.1,0.7-0.1
		c0.6,0,1.1,0.5,1.1,1.1c0,0.5-0.3,0.9-0.7,1c-0.6,0.2-1.1,0.3-1.8,0.3C67.8,66.2,66.4,65.3,66.4,62.8z"/>
	<path class="st0" d="M78.5,62.7L78.5,62.7c0-2.6,2-3.8,4.8-3.8c1.3,0,2.2,0.2,3.1,0.5v-0.3c0-1.6-1-2.5-2.9-2.5
		c-1,0-1.8,0.2-2.6,0.5c-0.2,0-0.3,0.1-0.4,0.1c-0.6,0-1.1-0.5-1.1-1.1c0-0.5,0.3-0.9,0.7-1.1c1.1-0.4,2.2-0.7,3.7-0.7
		c1.7,0,3,0.5,3.9,1.3c0.9,0.8,1.3,2.1,1.3,3.6v5.7c0,0.7-0.6,1.3-1.3,1.3c-0.8,0-1.3-0.5-1.3-1.1v-0.4c-0.8,0.9-2,1.7-3.8,1.7
		C80.4,66.2,78.5,65,78.5,62.7z M86.5,61.8V61c-0.7-0.3-1.6-0.5-2.6-0.5c-1.7,0-2.7,0.7-2.7,1.9v0c0,1.1,1,1.8,2.3,1.8
		C85.1,64.3,86.5,63.3,86.5,61.8z"/>
	<path class="st0" d="M96.6,55.6c0-0.7,0.6-1.3,1.3-1.3c0.7,0,1.3,0.6,1.3,1.3v0.6c0.7-1.1,1.8-2,3.6-2c2.6,0,4.1,1.8,4.1,4.4v6.2
		c0,0.7-0.6,1.3-1.3,1.3c-0.7,0-1.3-0.6-1.3-1.3v-5.4c0-1.8-0.9-2.8-2.5-2.8c-1.5,0-2.6,1.1-2.6,2.9v5.3c0,0.7-0.6,1.3-1.3,1.3
		c-0.7,0-1.3-0.6-1.3-1.3V55.6z"/>
	<path class="st0" d="M114.5,66.3c-3.4,0-6-2.4-6-6v0c0-3.3,2.4-6.1,5.7-6.1c3.7,0,5.5,3,5.5,5.7c0,0.7-0.6,1.3-1.3,1.3h-7.3
		c0.3,1.9,1.6,2.9,3.3,2.9c1.1,0,2-0.4,2.8-1c0.2-0.2,0.4-0.2,0.7-0.2c0.6,0,1.1,0.5,1.1,1.1c0,0.3-0.2,0.6-0.4,0.8
		C117.6,65.7,116.3,66.3,114.5,66.3z M117.1,59.4c-0.2-1.7-1.2-3.1-2.9-3.1c-1.6,0-2.8,1.3-3,3.1H117.1z"/>
	<path class="st0" d="M123.3,65l-3.1-8.8c-0.1-0.2-0.1-0.5-0.1-0.7c0-0.6,0.5-1.2,1.3-1.2c0.7,0,1.1,0.4,1.3,1.1l2.2,7l2.3-7
		c0.2-0.6,0.7-1.1,1.4-1.1h0.2c0.7,0,1.2,0.4,1.4,1.1l2.3,7l2.3-7.1c0.2-0.6,0.6-1,1.3-1c0.7,0,1.3,0.6,1.3,1.2
		c0,0.2-0.1,0.5-0.1,0.6l-3.2,8.9c-0.3,0.8-0.8,1.2-1.5,1.2h-0.1c-0.7,0-1.2-0.4-1.5-1.1l-2.3-6.9l-2.3,6.9
		c-0.2,0.8-0.8,1.1-1.4,1.1h-0.1C124.2,66.2,123.6,65.8,123.3,65z"/>
	<path class="st0" d="M144.1,55.6c0-0.7,0.6-1.3,1.3-1.3s1.3,0.6,1.3,1.3v0.7c0.9-1.2,2.1-2.2,4-2.2c2.7,0,5.4,2.2,5.4,6v0
		c0,3.9-2.6,6-5.4,6c-1.9,0-3.1-1-4-2v4.1c0,0.7-0.6,1.3-1.3,1.3c-0.7,0-1.3-0.6-1.3-1.3V55.6z M153.4,60.2L153.4,60.2
		c0-2.3-1.5-3.8-3.3-3.8c-1.8,0-3.4,1.5-3.4,3.7v0c0,2.2,1.6,3.7,3.4,3.7C151.9,63.9,153.4,62.5,153.4,60.2z"/>
	<path class="st0" d="M157,62.7L157,62.7c0-2.6,2-3.8,4.8-3.8c1.3,0,2.2,0.2,3.1,0.5v-0.3c0-1.6-1-2.5-2.9-2.5c-1,0-1.8,0.2-2.6,0.5
		c-0.2,0-0.3,0.1-0.4,0.1c-0.6,0-1.1-0.5-1.1-1.1c0-0.5,0.3-0.9,0.7-1.1c1.1-0.4,2.2-0.7,3.7-0.7c1.7,0,3,0.5,3.9,1.3
		c0.9,0.8,1.3,2.1,1.3,3.6v5.7c0,0.7-0.6,1.3-1.3,1.3c-0.8,0-1.3-0.5-1.3-1.1v-0.4c-0.8,0.9-2,1.7-3.8,1.7
		C158.9,66.2,157,65,157,62.7z M164.9,61.8V61c-0.7-0.3-1.6-0.5-2.6-0.5c-1.7,0-2.7,0.7-2.7,1.9v0c0,1.1,1,1.8,2.3,1.8
		C163.6,64.3,164.9,63.3,164.9,61.8z"/>
	<path class="st0" d="M168.9,60.3L168.9,60.3c0-3.3,2.6-6.1,6.1-6.1c1.8,0,3.1,0.6,4.1,1.5c0.2,0.2,0.4,0.5,0.4,0.9
		c0,0.7-0.5,1.2-1.2,1.2c-0.3,0-0.6-0.1-0.8-0.3c-0.7-0.6-1.4-1-2.5-1c-1.9,0-3.4,1.7-3.4,3.7v0c0,2.1,1.4,3.7,3.5,3.7
		c1.1,0,1.9-0.4,2.6-1c0.2-0.1,0.4-0.3,0.7-0.3c0.6,0,1.1,0.5,1.1,1.2c0,0.4-0.1,0.6-0.4,0.8c-1,1-2.3,1.7-4.2,1.7
		C171.5,66.3,168.9,63.6,168.9,60.3z"/>
	<path class="st0" d="M186,66.3c-3.4,0-6-2.4-6-6v0c0-3.3,2.4-6.1,5.7-6.1c3.7,0,5.5,3,5.5,5.7c0,0.7-0.6,1.3-1.3,1.3h-7.3
		c0.3,1.9,1.6,2.9,3.3,2.9c1.1,0,2-0.4,2.8-1c0.2-0.2,0.4-0.2,0.7-0.2c0.6,0,1.1,0.5,1.1,1.1c0,0.3-0.2,0.6-0.4,0.8
		C189.1,65.7,187.8,66.3,186,66.3z M188.7,59.4c-0.2-1.7-1.2-3.1-2.9-3.1c-1.6,0-2.8,1.3-3,3.1H188.7z"/>
	<path class="st0" d="M41.3,80.7h-0.5c-0.6,0-1.1-0.5-1.1-1.1c0-0.6,0.5-1.1,1.1-1.1h0.5v-0.9c0-1.3,0.3-2.2,0.9-2.9
		c0.6-0.6,1.5-0.9,2.6-0.9c0.5,0,1,0,1.3,0.1c0.5,0.1,0.9,0.5,0.9,1.1c0,0.6-0.5,1.1-1.1,1.1c-0.2,0-0.4,0-0.6,0
		c-1,0-1.5,0.6-1.5,1.8v0.6H46c0.6,0,1.1,0.5,1.1,1.1c0,0.6-0.5,1.1-1.1,1.1h-2v8.1c0,0.7-0.6,1.3-1.3,1.3c-0.7,0-1.3-0.6-1.3-1.3
		V80.7z"/>
	<path class="st0" d="M47,84.3L47,84.3c0-3.4,2.6-6.1,6.2-6.1c3.6,0,6.2,2.7,6.2,6v0c0,3.3-2.6,6.1-6.2,6.1
		C49.6,90.3,47,87.6,47,84.3z M56.7,84.3L56.7,84.3c0-2.1-1.5-3.8-3.6-3.8c-2.1,0-3.5,1.7-3.5,3.7v0c0,2,1.5,3.7,3.5,3.7
		C55.3,87.9,56.7,86.3,56.7,84.3z"/>
	<path class="st0" d="M61,79.6c0-0.7,0.6-1.3,1.3-1.3c0.7,0,1.3,0.6,1.3,1.3v1.2c0.6-1.5,1.8-2.6,2.9-2.6c0.8,0,1.3,0.5,1.3,1.3
		c0,0.7-0.5,1.2-1.1,1.3c-1.9,0.3-3.2,1.8-3.2,4.5v3.4c0,0.7-0.6,1.3-1.3,1.3c-0.7,0-1.3-0.6-1.3-1.3V79.6z"/>
	<path class="st0" d="M74.7,93.3c-0.4-0.1-0.8-0.5-0.8-1.1c0-0.7,0.5-1.1,1.1-1.1c0.2,0,0.4,0,0.5,0.1c0.3,0.1,0.5,0.2,0.9,0.2
		c0.8,0,1.2-0.3,1.7-1.2l0.1-0.2l-4.3-9.6c-0.1-0.2-0.2-0.5-0.2-0.6c0-0.7,0.6-1.3,1.3-1.3c0.7,0,1.1,0.4,1.3,1l3.1,7.7l2.9-7.7
		c0.2-0.6,0.6-1,1.3-1c0.7,0,1.3,0.5,1.3,1.3c0,0.2-0.1,0.5-0.1,0.6l-4.2,10.2c-1,2.4-2,3.3-3.9,3.3C75.8,93.6,75.3,93.5,74.7,93.3z
		"/>
	<path class="st0" d="M85.2,84.3L85.2,84.3c0-3.4,2.6-6.1,6.2-6.1c3.6,0,6.2,2.7,6.2,6v0c0,3.3-2.6,6.1-6.2,6.1
		C87.8,90.3,85.2,87.6,85.2,84.3z M94.9,84.3L94.9,84.3c0-2.1-1.5-3.8-3.6-3.8c-2.1,0-3.5,1.7-3.5,3.7v0c0,2,1.5,3.7,3.5,3.7
		C93.5,87.9,94.9,86.3,94.9,84.3z"/>
	<path class="st0" d="M109.5,88.8c0,0.7-0.6,1.3-1.3,1.3c-0.7,0-1.3-0.6-1.3-1.3v-0.6c-0.7,1.1-1.8,2-3.6,2c-2.6,0-4.1-1.8-4.1-4.5
		v-6.2c0-0.7,0.6-1.3,1.3-1.3c0.7,0,1.3,0.6,1.3,1.3V85c0,1.8,0.9,2.8,2.5,2.8c1.5,0,2.6-1.1,2.6-2.9v-5.3c0-0.7,0.6-1.3,1.3-1.3
		c0.7,0,1.3,0.6,1.3,1.3V88.8z"/>
	<path class="st0" d="M111.7,79.6c0-0.7,0.6-1.3,1.3-1.3s1.3,0.6,1.3,1.3v1.2c0.6-1.5,1.8-2.6,2.9-2.6c0.8,0,1.3,0.5,1.3,1.3
		c0,0.7-0.5,1.2-1.1,1.3c-1.9,0.3-3.2,1.8-3.2,4.5v3.4c0,0.7-0.6,1.3-1.3,1.3c-0.7,0-1.3-0.6-1.3-1.3V79.6z"/>
	<path class="st0" d="M119.2,88.8c-0.3-0.2-0.5-0.5-0.5-0.9c0-0.6,0.5-1.1,1.1-1.1c0.2,0,0.4,0.1,0.6,0.2c1.1,0.7,2.3,1.1,3.3,1.1
		c1.1,0,1.8-0.5,1.8-1.3v0c0-0.9-1.2-1.2-2.6-1.6c-1.7-0.5-3.6-1.2-3.6-3.4v0c0-2.2,1.8-3.5,4.1-3.5c1.2,0,2.5,0.4,3.7,0.9
		c0.4,0.2,0.6,0.6,0.6,1c0,0.6-0.5,1.1-1.1,1.1c-0.2,0-0.4,0-0.5-0.1c-0.9-0.5-1.9-0.8-2.7-0.8c-1,0-1.6,0.5-1.6,1.1v0
		c0,0.9,1.3,1.2,2.6,1.6c1.7,0.5,3.6,1.3,3.6,3.4v0c0,2.4-1.9,3.7-4.3,3.7C122.2,90.2,120.6,89.8,119.2,88.8z"/>
</g>
</svg>
