<?xml version="1.0" encoding="utf-8"?>
<!-- Generator: Adobe Illustrator 21.1.0, SVG Export Plug-In . SVG Version: 6.00 Build 0)  -->
<svg version="1.1" id="Layer_3" xmlns="http://www.w3.org/2000/svg" xmlns:xlink="http://www.w3.org/1999/xlink" x="0px" y="0px"
	 viewBox="0 0 728 90" style="enable-background:new 0 0 728 90;" xml:space="preserve">
<style type="text/css">
	.st0{fill:#133C7D;}
</style>
<g>
	<path class="st0" d="M181.8,16.9c0-0.6,0.5-1.1,1.2-1.1c0.6,0,1.1,0.5,1.1,1.1v11c0,0.6-0.5,1.1-1.1,1.1c-0.7,0-1.2-0.5-1.2-1.1
		V16.9z"/>
	<path class="st0" d="M186.1,28c-0.2-0.1-0.4-0.4-0.4-0.8c0-0.5,0.4-0.9,0.9-0.9c0.2,0,0.4,0.1,0.5,0.1c1,0.6,2,1,2.9,1
		c1,0,1.5-0.4,1.5-1.1v0c0-0.8-1.1-1-2.2-1.4c-1.5-0.4-3.1-1-3.1-2.9v0c0-1.9,1.6-3,3.5-3c1.1,0,2.2,0.3,3.1,0.8
		c0.3,0.2,0.5,0.5,0.5,0.9c0,0.5-0.4,0.9-0.9,0.9c-0.2,0-0.3,0-0.4-0.1c-0.8-0.4-1.6-0.7-2.3-0.7c-0.9,0-1.4,0.4-1.4,1v0
		c0,0.7,1.1,1,2.2,1.4c1.4,0.5,3.1,1.1,3.1,2.9v0c0,2.1-1.6,3.1-3.7,3.1C188.6,29.2,187.2,28.8,186.1,28z"/>
	<path class="st0" d="M199.8,31.8c-0.3-0.1-0.7-0.4-0.7-0.9c0-0.6,0.4-0.9,0.9-0.9c0.2,0,0.3,0,0.4,0.1c0.3,0.1,0.5,0.1,0.8,0.1
		c0.7,0,1-0.3,1.4-1.1l0.1-0.2l-3.7-8.2c-0.1-0.2-0.1-0.4-0.1-0.5c0-0.6,0.5-1.1,1.1-1.1c0.6,0,0.9,0.3,1.1,0.9l2.7,6.6l2.5-6.6
		c0.2-0.5,0.5-0.9,1.1-0.9c0.6,0,1.1,0.5,1.1,1.1c0,0.2-0.1,0.4-0.1,0.5l-3.6,8.7c-0.8,2-1.7,2.8-3.3,2.8
		C200.7,32.1,200.3,32,199.8,31.8z"/>
	<path class="st0" d="M208.7,24.1L208.7,24.1c0-2.9,2.3-5.2,5.3-5.2c3,0,5.3,2.3,5.3,5.1v0c0,2.8-2.3,5.2-5.3,5.2
		C210.9,29.2,208.7,26.9,208.7,24.1z M217,24.1L217,24.1c0-1.8-1.3-3.2-3-3.2c-1.8,0-3,1.4-3,3.2v0c0,1.7,1.3,3.2,3,3.2
		C215.8,27.2,217,25.8,217,24.1z"/>
	<path class="st0" d="M229.4,28c0,0.6-0.5,1.1-1.1,1.1c-0.6,0-1.1-0.5-1.1-1.1v-0.5c-0.6,0.9-1.6,1.7-3.1,1.7
		c-2.2,0-3.5-1.5-3.5-3.8v-5.3c0-0.6,0.5-1.1,1.1-1.1c0.6,0,1.1,0.5,1.1,1.1v4.6c0,1.5,0.8,2.4,2.1,2.4c1.3,0,2.2-0.9,2.2-2.4v-4.6
		c0-0.6,0.5-1.1,1.1-1.1c0.6,0,1.1,0.5,1.1,1.1V28z"/>
	<path class="st0" d="M231.3,20.1c0-0.6,0.5-1.1,1.1-1.1s1.1,0.5,1.1,1.1v1c0.5-1.2,1.5-2.2,2.5-2.2c0.7,0,1.1,0.5,1.1,1.1
		c0,0.6-0.4,1-0.9,1.1c-1.6,0.3-2.7,1.5-2.7,3.9V28c0,0.6-0.5,1.1-1.1,1.1c-0.6,0-1.1-0.5-1.1-1.1V20.1z"/>
	<path class="st0" d="M242.8,16.3c0-0.6,0.5-1.1,1.1-1.1s1.1,0.5,1.1,1.1v4.4c0.7-1,1.8-1.9,3.4-1.9c2.3,0,4.6,1.8,4.6,5.1v0
		c0,3.3-2.3,5.1-4.6,5.1c-1.7,0-2.7-0.8-3.4-1.7V28c0,0.6-0.5,1.1-1.1,1.1c-0.6,0-1.1-0.5-1.1-1.1V16.3z M250.7,24.1L250.7,24.1
		c0-2-1.3-3.2-2.8-3.2c-1.5,0-2.9,1.3-2.9,3.2v0c0,1.9,1.4,3.2,2.9,3.2C249.5,27.2,250.7,26,250.7,24.1z"/>
	<path class="st0" d="M263.2,28c0,0.6-0.5,1.1-1.1,1.1c-0.6,0-1.1-0.5-1.1-1.1v-0.5c-0.6,0.9-1.6,1.7-3.1,1.7
		c-2.2,0-3.5-1.5-3.5-3.8v-5.3c0-0.6,0.5-1.1,1.1-1.1c0.6,0,1.1,0.5,1.1,1.1v4.6c0,1.5,0.8,2.4,2.1,2.4c1.3,0,2.2-0.9,2.2-2.4v-4.6
		c0-0.6,0.5-1.1,1.1-1.1c0.6,0,1.1,0.5,1.1,1.1V28z"/>
	<path class="st0" d="M264.7,28c-0.2-0.1-0.4-0.4-0.4-0.8c0-0.5,0.4-0.9,0.9-0.9c0.2,0,0.4,0.1,0.5,0.1c1,0.6,2,1,2.9,1
		c1,0,1.5-0.4,1.5-1.1v0c0-0.8-1.1-1-2.2-1.4c-1.5-0.4-3.1-1-3.1-2.9v0c0-1.9,1.6-3,3.5-3c1.1,0,2.2,0.3,3.1,0.8
		c0.3,0.2,0.5,0.5,0.5,0.9c0,0.5-0.4,0.9-0.9,0.9c-0.2,0-0.3,0-0.5-0.1c-0.8-0.4-1.6-0.7-2.3-0.7c-0.9,0-1.4,0.4-1.4,1v0
		c0,0.7,1.1,1,2.2,1.4c1.4,0.5,3.1,1.1,3.1,2.9v0c0,2.1-1.6,3.1-3.7,3.1C267.3,29.2,265.9,28.8,264.7,28z"/>
	<path class="st0" d="M273.5,16.4c0-0.7,0.6-1.1,1.3-1.1s1.3,0.4,1.3,1.1v0.1c0,0.7-0.6,1.1-1.3,1.1s-1.3-0.5-1.3-1.1V16.4z
		 M273.7,20.1c0-0.6,0.5-1.1,1.1-1.1s1.1,0.5,1.1,1.1V28c0,0.6-0.5,1.1-1.1,1.1c-0.6,0-1.1-0.5-1.1-1.1V20.1z"/>
	<path class="st0" d="M278,20.1c0-0.6,0.5-1.1,1.1-1.1s1.1,0.5,1.1,1.1v0.5c0.6-0.9,1.6-1.7,3.1-1.7c2.2,0,3.5,1.5,3.5,3.8V28
		c0,0.6-0.5,1.1-1.1,1.1s-1.1-0.5-1.1-1.1v-4.6c0-1.5-0.8-2.4-2.1-2.4c-1.3,0-2.2,0.9-2.2,2.5V28c0,0.6-0.5,1.1-1.1,1.1
		c-0.6,0-1.1-0.5-1.1-1.1V20.1z"/>
	<path class="st0" d="M293.2,29.2c-2.9,0-5.1-2.1-5.1-5.1v0c0-2.8,2-5.2,4.8-5.2c3.2,0,4.7,2.6,4.7,4.9c0,0.6-0.5,1.1-1.1,1.1h-6.2
		c0.2,1.6,1.4,2.5,2.9,2.5c1,0,1.7-0.3,2.3-0.9c0.2-0.1,0.3-0.2,0.6-0.2c0.5,0,0.9,0.4,0.9,0.9c0,0.3-0.1,0.5-0.3,0.7
		C295.9,28.7,294.8,29.2,293.2,29.2z M295.5,23.4c-0.1-1.5-1-2.6-2.5-2.6c-1.4,0-2.4,1.1-2.6,2.6H295.5z"/>
	<path class="st0" d="M298.7,28c-0.2-0.1-0.4-0.4-0.4-0.8c0-0.5,0.4-0.9,0.9-0.9c0.2,0,0.4,0.1,0.5,0.1c1,0.6,2,1,2.9,1
		c1,0,1.5-0.4,1.5-1.1v0c0-0.8-1.1-1-2.2-1.4c-1.5-0.4-3.1-1-3.1-2.9v0c0-1.9,1.6-3,3.5-3c1.1,0,2.2,0.3,3.1,0.8
		c0.3,0.2,0.5,0.5,0.5,0.9c0,0.5-0.4,0.9-0.9,0.9c-0.2,0-0.3,0-0.4-0.1c-0.8-0.4-1.6-0.7-2.3-0.7c-0.9,0-1.4,0.4-1.4,1v0
		c0,0.7,1.1,1,2.2,1.4c1.4,0.5,3.1,1.1,3.1,2.9v0c0,2.1-1.6,3.1-3.7,3.1C301.2,29.2,299.8,28.8,298.7,28z"/>
	<path class="st0" d="M307,28c-0.2-0.1-0.4-0.4-0.4-0.8c0-0.5,0.4-0.9,0.9-0.9c0.2,0,0.4,0.1,0.5,0.1c1,0.6,2,1,2.9,1
		c1,0,1.5-0.4,1.5-1.1v0c0-0.8-1.1-1-2.2-1.4c-1.5-0.4-3.1-1-3.1-2.9v0c0-1.9,1.6-3,3.5-3c1.1,0,2.2,0.3,3.1,0.8
		c0.3,0.2,0.5,0.5,0.5,0.9c0,0.5-0.4,0.9-0.9,0.9c-0.2,0-0.3,0-0.4-0.1c-0.8-0.4-1.6-0.7-2.3-0.7c-0.9,0-1.4,0.4-1.4,1v0
		c0,0.7,1.1,1,2.2,1.4c1.4,0.5,3.1,1.1,3.1,2.9v0c0,2.1-1.6,3.1-3.7,3.1C309.5,29.2,308.1,28.8,307,28z"/>
	<path class="st0" d="M320.5,20.1c0-0.6,0.5-1.1,1.1-1.1s1.1,0.5,1.1,1.1v1c0.5-1.2,1.5-2.2,2.5-2.2c0.7,0,1.1,0.5,1.1,1.1
		c0,0.6-0.4,1-0.9,1.1c-1.6,0.3-2.7,1.5-2.7,3.9V28c0,0.6-0.5,1.1-1.1,1.1c-0.6,0-1.1-0.5-1.1-1.1V20.1z"/>
	<path class="st0" d="M331.5,29.2c-2.9,0-5.1-2.1-5.1-5.1v0c0-2.8,2-5.2,4.8-5.2c3.2,0,4.7,2.6,4.7,4.9c0,0.6-0.5,1.1-1.1,1.1h-6.2
		c0.2,1.6,1.4,2.5,2.9,2.5c1,0,1.7-0.3,2.3-0.9c0.2-0.1,0.3-0.2,0.6-0.2c0.5,0,0.9,0.4,0.9,0.9c0,0.3-0.1,0.5-0.3,0.7
		C334.2,28.7,333,29.2,331.5,29.2z M333.7,23.4c-0.1-1.5-1-2.6-2.5-2.6c-1.4,0-2.4,1.1-2.6,2.6H333.7z"/>
	<path class="st0" d="M336.7,26.1L336.7,26.1c0-2.2,1.7-3.2,4.1-3.2c1.1,0,1.9,0.2,2.7,0.4v-0.2c0-1.4-0.9-2.2-2.5-2.2
		c-0.9,0-1.6,0.2-2.2,0.4c-0.1,0-0.2,0.1-0.4,0.1c-0.5,0-1-0.4-1-0.9c0-0.4,0.3-0.8,0.6-0.9c0.9-0.4,1.9-0.6,3.2-0.6
		c1.5,0,2.6,0.4,3.3,1.1c0.7,0.7,1.1,1.8,1.1,3.1V28c0,0.6-0.5,1.1-1.1,1.1c-0.7,0-1.1-0.5-1.1-1v-0.4c-0.7,0.8-1.7,1.4-3.2,1.4
		C338.3,29.2,336.7,28.1,336.7,26.1z M343.5,25.4v-0.7c-0.6-0.2-1.4-0.4-2.3-0.4c-1.5,0-2.3,0.6-2.3,1.6v0c0,1,0.8,1.5,1.9,1.5
		C342.3,27.6,343.5,26.7,343.5,25.4z"/>
	<path class="st0" d="M357.1,28c0,0.6-0.5,1.1-1.1,1.1c-0.6,0-1.1-0.5-1.1-1.1v-0.6c-0.7,1-1.8,1.9-3.4,1.9c-2.3,0-4.6-1.9-4.6-5.1
		v0c0-3.3,2.2-5.1,4.6-5.1c1.6,0,2.7,0.8,3.4,1.7v-4.3c0-0.6,0.5-1.1,1.1-1.1c0.6,0,1.1,0.5,1.1,1.1V28z M349.2,24L349.2,24
		c0,2,1.3,3.2,2.9,3.2c1.5,0,2.9-1.3,2.9-3.2v0c0-1.9-1.4-3.2-2.9-3.2C350.5,20.9,349.2,22.1,349.2,24z"/>
	<path class="st0" d="M359.3,31.8c-0.3-0.1-0.7-0.4-0.7-0.9c0-0.6,0.4-0.9,0.9-0.9c0.2,0,0.3,0,0.4,0.1c0.3,0.1,0.5,0.1,0.8,0.1
		c0.7,0,1-0.3,1.4-1.1l0.1-0.2l-3.7-8.2c-0.1-0.2-0.1-0.4-0.1-0.5c0-0.6,0.5-1.1,1.1-1.1c0.6,0,0.9,0.3,1.1,0.9l2.7,6.6l2.5-6.6
		c0.2-0.5,0.5-0.9,1.1-0.9c0.6,0,1.1,0.5,1.1,1.1c0,0.2-0.1,0.4-0.1,0.5l-3.6,8.7c-0.8,2-1.7,2.8-3.3,2.8
		C360.2,32.1,359.8,32,359.3,31.8z"/>
	<path class="st0" d="M374.3,26.3V21h-0.4c-0.5,0-1-0.4-1-1c0-0.5,0.4-1,1-1h0.4v-1.7c0-0.6,0.5-1.1,1.1-1.1c0.6,0,1.1,0.5,1.1,1.1
		v1.7h1.8c0.5,0,1,0.4,1,1c0,0.5-0.5,1-1,1h-1.8v4.9c0,0.9,0.5,1.2,1.2,1.2c0.3,0,0.5-0.1,0.6-0.1c0.5,0,1,0.4,1,0.9
		c0,0.4-0.3,0.8-0.6,0.9c-0.5,0.2-1,0.3-1.6,0.3C375.5,29.2,374.3,28.4,374.3,26.3z"/>
	<path class="st0" d="M379.8,24.1L379.8,24.1c0-2.9,2.2-5.2,5.3-5.2s5.3,2.3,5.3,5.1v0c0,2.8-2.3,5.2-5.3,5.2
		C382,29.2,379.8,26.9,379.8,24.1z M388,24.1L388,24.1c0-1.8-1.3-3.2-3-3.2c-1.8,0-3,1.4-3,3.2v0c0,1.7,1.3,3.2,3,3.2
		C386.9,27.2,388,25.8,388,24.1z"/>
	<path class="st0" d="M181.1,50c-0.2-0.1-0.4-0.4-0.4-0.8c0-0.5,0.4-0.9,0.9-0.9c0.2,0,0.4,0.1,0.5,0.1c1,0.6,2,1,2.9,1
		c1,0,1.5-0.4,1.5-1.1v0c0-0.8-1.1-1-2.2-1.4c-1.5-0.4-3.1-1-3.1-2.9v0c0-1.9,1.6-3,3.5-3c1.1,0,2.2,0.3,3.1,0.8
		c0.3,0.2,0.5,0.5,0.5,0.9c0,0.5-0.4,0.9-0.9,0.9c-0.2,0-0.3,0-0.4-0.1c-0.8-0.4-1.6-0.7-2.3-0.7c-0.9,0-1.4,0.4-1.4,1v0
		c0,0.7,1.1,1,2.2,1.4c1.4,0.5,3.1,1.1,3.1,2.9v0c0,2.1-1.6,3.1-3.7,3.1C183.6,51.2,182.2,50.8,181.1,50z"/>
	<path class="st0" d="M191.8,50.2l-2.7-7.5c-0.1-0.1-0.1-0.4-0.1-0.6c0-0.5,0.4-1.1,1.1-1.1c0.6,0,0.9,0.4,1.1,0.9l1.9,6l1.9-6
		c0.2-0.5,0.6-0.9,1.2-0.9h0.1c0.6,0,1,0.4,1.2,0.9l2,6l1.9-6c0.1-0.5,0.5-0.9,1.1-0.9c0.6,0,1.1,0.5,1.1,1.1c0,0.2-0.1,0.4-0.1,0.5
		l-2.7,7.6c-0.2,0.7-0.7,1-1.3,1h-0.1c-0.6,0-1-0.3-1.2-1l-1.9-5.9l-2,5.9c-0.2,0.7-0.7,1-1.2,1h-0.1
		C192.5,51.2,192,50.8,191.8,50.2z"/>
	<path class="st0" d="M204.8,38.4c0-0.7,0.6-1.1,1.3-1.1s1.3,0.4,1.3,1.1v0.1c0,0.7-0.6,1.1-1.3,1.1s-1.3-0.5-1.3-1.1V38.4z
		 M204.9,42.1c0-0.6,0.5-1.1,1.1-1.1s1.1,0.5,1.1,1.1V50c0,0.6-0.5,1.1-1.1,1.1c-0.6,0-1.1-0.5-1.1-1.1V42.1z"/>
	<path class="st0" d="M209.7,48.3V43h-0.4c-0.5,0-1-0.4-1-1c0-0.5,0.4-1,1-1h0.4v-1.7c0-0.6,0.5-1.1,1.1-1.1c0.6,0,1.1,0.5,1.1,1.1
		v1.7h1.8c0.5,0,1,0.4,1,1c0,0.5-0.4,1-1,1H212v4.9c0,0.9,0.5,1.2,1.2,1.2c0.3,0,0.5-0.1,0.6-0.1c0.5,0,1,0.4,1,0.9
		c0,0.4-0.3,0.8-0.6,0.9c-0.5,0.2-1,0.3-1.6,0.3C210.9,51.2,209.7,50.4,209.7,48.3z"/>
	<path class="st0" d="M215.2,46.1L215.2,46.1c0-2.9,2.2-5.2,5.2-5.2c1.6,0,2.6,0.5,3.5,1.2c0.1,0.1,0.4,0.4,0.4,0.8
		c0,0.6-0.5,1-1.1,1c-0.3,0-0.5-0.1-0.7-0.2c-0.6-0.5-1.2-0.8-2.1-0.8c-1.6,0-2.9,1.4-2.9,3.2v0c0,1.8,1.2,3.2,3,3.2
		c0.9,0,1.6-0.4,2.2-0.9c0.1-0.1,0.4-0.2,0.6-0.2c0.5,0,1,0.5,1,1c0,0.3-0.1,0.5-0.3,0.7c-0.9,0.8-2,1.4-3.6,1.4
		C217.3,51.2,215.2,48.9,215.2,46.1z"/>
	<path class="st0" d="M225.5,38.3c0-0.6,0.5-1.1,1.1-1.1s1.1,0.5,1.1,1.1v4.3c0.6-0.9,1.6-1.7,3.1-1.7c2.2,0,3.5,1.5,3.5,3.8V50
		c0,0.6-0.5,1.1-1.1,1.1s-1.1-0.5-1.1-1.1v-4.6c0-1.5-0.8-2.4-2.1-2.4c-1.3,0-2.2,0.9-2.2,2.5V50c0,0.6-0.5,1.1-1.1,1.1
		c-0.6,0-1.1-0.5-1.1-1.1V38.3z"/>
	<path class="st0" d="M241.3,48.3V43h-0.4c-0.5,0-1-0.4-1-1c0-0.5,0.4-1,1-1h0.4v-1.7c0-0.6,0.5-1.1,1.1-1.1c0.6,0,1.1,0.5,1.1,1.1
		v1.7h1.8c0.5,0,1,0.4,1,1c0,0.5-0.4,1-1,1h-1.8v4.9c0,0.9,0.5,1.2,1.2,1.2c0.3,0,0.5-0.1,0.6-0.1c0.5,0,1,0.4,1,0.9
		c0,0.4-0.3,0.8-0.6,0.9c-0.5,0.2-1,0.3-1.6,0.3C242.5,51.2,241.3,50.4,241.3,48.3z"/>
	<path class="st0" d="M246.8,46.1L246.8,46.1c0-2.9,2.3-5.2,5.3-5.2c3,0,5.3,2.3,5.3,5.1v0c0,2.8-2.3,5.2-5.3,5.2
		C249,51.2,246.8,48.9,246.8,46.1z M255.1,46.1L255.1,46.1c0-1.8-1.3-3.2-3-3.2c-1.8,0-3,1.4-3,3.2v0c0,1.7,1.3,3.2,3,3.2
		C253.9,49.2,255.1,47.8,255.1,46.1z"/>
	<path class="st0" d="M262.7,48.1L262.7,48.1c0-2.2,1.7-3.2,4.1-3.2c1.1,0,1.9,0.2,2.7,0.4v-0.2c0-1.4-0.9-2.2-2.5-2.2
		c-0.9,0-1.6,0.2-2.2,0.4c-0.1,0-0.2,0.1-0.4,0.1c-0.5,0-1-0.4-1-0.9c0-0.4,0.3-0.8,0.6-0.9c0.9-0.4,1.9-0.6,3.2-0.6
		c1.5,0,2.6,0.4,3.3,1.1c0.7,0.7,1.1,1.8,1.1,3.1V50c0,0.6-0.5,1.1-1.1,1.1c-0.7,0-1.1-0.5-1.1-1v-0.4c-0.7,0.8-1.7,1.4-3.2,1.4
		C264.4,51.2,262.7,50.1,262.7,48.1z M269.5,47.4v-0.7c-0.6-0.2-1.4-0.4-2.3-0.4c-1.5,0-2.3,0.6-2.3,1.7v0c0,1,0.8,1.5,1.9,1.5
		C268.4,49.6,269.5,48.7,269.5,47.4z"/>
	<path class="st0" d="M273.5,42.1c0-0.6,0.5-1.1,1.1-1.1s1.1,0.5,1.1,1.1v0.5c0.6-0.9,1.6-1.7,3.1-1.7c2.2,0,3.5,1.5,3.5,3.8V50
		c0,0.6-0.5,1.1-1.1,1.1s-1.1-0.5-1.1-1.1v-4.6c0-1.5-0.8-2.4-2.1-2.4c-1.3,0-2.2,0.9-2.2,2.5V50c0,0.6-0.5,1.1-1.1,1.1
		c-0.6,0-1.1-0.5-1.1-1.1V42.1z"/>
	<path class="st0" d="M288.7,42.3c0-0.8,0.6-1.4,1.4-1.4c0.8,0,1.4,0.6,1.4,1.4v0.1c0.7-0.8,1.5-1.6,2.9-1.6c2.2,0,3.4,1.4,3.4,3.7
		v5.2c0,0.8-0.6,1.4-1.4,1.4s-1.4-0.6-1.4-1.4v-4.3c0-1.4-0.6-2-1.7-2s-1.8,0.7-1.8,2v4.3c0,0.8-0.6,1.4-1.4,1.4
		c-0.8,0-1.4-0.6-1.4-1.4V42.3z"/>
	<path class="st0" d="M299.4,38.6c0-0.8,0.6-1.4,1.4-1.4c0.8,0,1.4,0.6,1.4,1.4v3.8c0.7-0.9,1.7-1.6,3.1-1.6c2.3,0,4.6,1.8,4.6,5.2
		v0c0,3.4-2.2,5.2-4.6,5.2c-1.5,0-2.5-0.7-3.1-1.5v0c0,0.8-0.6,1.4-1.4,1.4c-0.8,0-1.4-0.6-1.4-1.4V38.6z M307.1,46L307.1,46
		c0-1.7-1.1-2.8-2.5-2.8c-1.3,0-2.4,1.1-2.4,2.8v0c0,1.7,1.1,2.8,2.4,2.8C306,48.8,307.1,47.7,307.1,46z"/>
	<path class="st0" d="M311.2,42.3c0-0.8,0.6-1.4,1.4-1.4c0.8,0,1.4,0.6,1.4,1.4v0.1c0.7-0.8,1.5-1.6,2.9-1.6c2.2,0,3.4,1.4,3.4,3.7
		v5.2c0,0.8-0.6,1.4-1.4,1.4s-1.4-0.6-1.4-1.4v-4.3c0-1.4-0.6-2-1.7-2s-1.8,0.7-1.8,2v4.3c0,0.8-0.6,1.4-1.4,1.4
		c-0.8,0-1.4-0.6-1.4-1.4V42.3z"/>
	<path class="st0" d="M323.5,38.4h-1.9c-0.3,0-0.6-0.3-0.6-0.6s0.3-0.6,0.6-0.6h5.1c0.3,0,0.6,0.3,0.6,0.6s-0.3,0.6-0.6,0.6h-1.9
		v5.8c0,0.4-0.3,0.7-0.7,0.7c-0.4,0-0.7-0.3-0.7-0.7V38.4z"/>
	<path class="st0" d="M328.1,37.7c0-0.4,0.3-0.7,0.7-0.7h0.1c0.3,0,0.5,0.2,0.6,0.4l2.3,3.6l2.3-3.6c0.1-0.2,0.3-0.3,0.6-0.3h0.1
		c0.4,0,0.7,0.3,0.7,0.7v6.4c0,0.4-0.3,0.7-0.7,0.7c-0.4,0-0.7-0.3-0.7-0.7v-4.6l-1.9,2.8c-0.1,0.2-0.3,0.3-0.6,0.3
		c-0.2,0-0.4-0.1-0.6-0.3l-1.9-2.8v4.6c0,0.4-0.3,0.7-0.7,0.7s-0.7-0.3-0.7-0.7V37.7z"/>
	<path class="st0" d="M340.3,42.1c0-0.6,0.5-1.1,1.1-1.1s1.1,0.5,1.1,1.1v0.6c0.7-1,1.8-1.9,3.4-1.9c2.3,0,4.6,1.8,4.6,5.1v0
		c0,3.3-2.3,5.1-4.6,5.1c-1.7,0-2.7-0.8-3.4-1.7V53c0,0.6-0.5,1.1-1.1,1.1c-0.6,0-1.1-0.5-1.1-1.1V42.1z M348.2,46.1L348.2,46.1
		c0-2-1.3-3.2-2.8-3.2c-1.5,0-2.9,1.3-2.9,3.2v0c0,1.9,1.4,3.2,2.9,3.2C346.9,49.2,348.2,48,348.2,46.1z"/>
	<path class="st0" d="M351.4,46.1L351.4,46.1c0-2.9,2.3-5.2,5.3-5.2c3,0,5.3,2.3,5.3,5.1v0c0,2.8-2.3,5.2-5.3,5.2
		C353.6,51.2,351.4,48.9,351.4,46.1z M359.6,46.1L359.6,46.1c0-1.8-1.3-3.2-3-3.2c-1.8,0-3,1.4-3,3.2v0c0,1.7,1.3,3.2,3,3.2
		C358.5,49.2,359.6,47.8,359.6,46.1z"/>
	<path class="st0" d="M365,50.2l-2.7-7.5c-0.1-0.1-0.1-0.4-0.1-0.6c0-0.5,0.4-1.1,1.1-1.1c0.6,0,0.9,0.4,1.1,0.9l1.9,6l1.9-6
		c0.2-0.5,0.6-0.9,1.2-0.9h0.1c0.6,0,1,0.4,1.2,0.9l2,6l1.9-6c0.2-0.5,0.5-0.9,1.1-0.9c0.6,0,1.1,0.5,1.1,1.1c0,0.2-0.1,0.4-0.1,0.5
		l-2.7,7.6c-0.2,0.7-0.7,1-1.3,1h-0.1c-0.6,0-1-0.3-1.2-1l-1.9-5.9l-2,5.9c-0.2,0.7-0.7,1-1.2,1h-0.1
		C365.7,51.2,365.3,50.8,365,50.2z"/>
	<path class="st0" d="M382.2,51.2c-2.9,0-5.1-2.1-5.1-5.1v0c0-2.8,2-5.2,4.8-5.2c3.2,0,4.7,2.6,4.7,4.9c0,0.6-0.5,1.1-1.1,1.1h-6.2
		c0.2,1.6,1.4,2.5,2.9,2.5c1,0,1.7-0.3,2.3-0.9c0.2-0.1,0.3-0.2,0.6-0.2c0.5,0,0.9,0.4,0.9,0.9c0,0.3-0.1,0.5-0.3,0.7
		C384.9,50.7,383.8,51.2,382.2,51.2z M384.5,45.4c-0.1-1.5-1-2.6-2.5-2.6c-1.4,0-2.4,1.1-2.6,2.6H384.5z"/>
	<path class="st0" d="M388.1,42.1c0-0.6,0.5-1.1,1.1-1.1s1.1,0.5,1.1,1.1v1c0.5-1.2,1.5-2.2,2.5-2.2c0.7,0,1.1,0.5,1.1,1.1
		c0,0.6-0.4,1-0.9,1.1c-1.6,0.3-2.7,1.5-2.7,3.9V50c0,0.6-0.5,1.1-1.1,1.1c-0.6,0-1.1-0.5-1.1-1.1V42.1z"/>
	<path class="st0" d="M399.1,51.2c-2.9,0-5.1-2.1-5.1-5.1v0c0-2.8,2-5.2,4.8-5.2c3.2,0,4.7,2.6,4.7,4.9c0,0.6-0.5,1.1-1.1,1.1h-6.2
		c0.2,1.6,1.4,2.5,2.9,2.5c1,0,1.7-0.3,2.3-0.9c0.2-0.1,0.3-0.2,0.6-0.2c0.5,0,0.9,0.4,0.9,0.9c0,0.3-0.1,0.5-0.3,0.7
		C401.8,50.7,400.6,51.2,399.1,51.2z M401.3,45.4c-0.2-1.5-1-2.6-2.5-2.6c-1.4,0-2.4,1.1-2.6,2.6H401.3z"/>
	<path class="st0" d="M414.7,50c0,0.6-0.5,1.1-1.1,1.1c-0.6,0-1.1-0.5-1.1-1.1v-0.6c-0.7,1-1.8,1.9-3.4,1.9c-2.3,0-4.6-1.9-4.6-5.1
		v0c0-3.3,2.2-5.1,4.6-5.1c1.6,0,2.7,0.8,3.4,1.7v-4.3c0-0.6,0.5-1.1,1.1-1.1c0.6,0,1.1,0.5,1.1,1.1V50z M406.7,46L406.7,46
		c0,2,1.3,3.2,2.9,3.2c1.5,0,2.9-1.3,2.9-3.2v0c0-1.9-1.3-3.2-2.9-3.2C408,42.9,406.7,44.1,406.7,46z"/>
	<path class="st0" d="M181.4,64.1c0-0.6,0.5-1.1,1.1-1.1s1.1,0.5,1.1,1.1v0.6c0.7-1,1.8-1.9,3.4-1.9c2.3,0,4.6,1.8,4.6,5.1v0
		c0,3.3-2.3,5.1-4.6,5.1c-1.7,0-2.7-0.8-3.4-1.7V75c0,0.6-0.5,1.1-1.1,1.1c-0.6,0-1.1-0.5-1.1-1.1V64.1z M189.4,68.1L189.4,68.1
		c0-2-1.3-3.2-2.8-3.2c-1.5,0-2.9,1.3-2.9,3.2v0c0,1.9,1.4,3.2,2.9,3.2C188.1,71.2,189.4,70,189.4,68.1z"/>
	<path class="st0" d="M193.2,60.3c0-0.6,0.5-1.1,1.1-1.1s1.1,0.5,1.1,1.1V72c0,0.6-0.5,1.1-1.1,1.1c-0.6,0-1.1-0.5-1.1-1.1V60.3z"/>
	<path class="st0" d="M196.8,70.1L196.8,70.1c0-2.2,1.7-3.2,4.1-3.2c1.1,0,1.9,0.2,2.7,0.4v-0.2c0-1.4-0.9-2.2-2.5-2.2
		c-0.9,0-1.6,0.1-2.2,0.4c-0.1,0-0.2,0.1-0.4,0.1c-0.5,0-1-0.4-1-0.9c0-0.4,0.3-0.8,0.6-0.9c0.9-0.4,1.9-0.6,3.2-0.6
		c1.5,0,2.6,0.4,3.3,1.1c0.7,0.7,1.1,1.8,1.1,3.1V72c0,0.6-0.5,1.1-1.1,1.1c-0.7,0-1.1-0.5-1.1-1v-0.4c-0.7,0.8-1.7,1.4-3.2,1.4
		C198.5,73.2,196.8,72.1,196.8,70.1z M203.6,69.4v-0.7c-0.6-0.2-1.4-0.4-2.3-0.4c-1.5,0-2.3,0.6-2.3,1.7v0c0,1,0.8,1.5,1.9,1.5
		C202.5,71.6,203.6,70.7,203.6,69.4z"/>
	<path class="st0" d="M207.6,64.1c0-0.6,0.5-1.1,1.1-1.1s1.1,0.5,1.1,1.1v0.5c0.6-0.9,1.6-1.7,3.1-1.7c2.2,0,3.5,1.5,3.5,3.8V72
		c0,0.6-0.5,1.1-1.1,1.1s-1.1-0.5-1.1-1.1v-4.6c0-1.5-0.8-2.4-2.1-2.4c-1.3,0-2.2,0.9-2.2,2.5V72c0,0.6-0.5,1.1-1.1,1.1
		c-0.6,0-1.1-0.5-1.1-1.1V64.1z"/>
	<path class="st0" d="M223.4,65H223c-0.5,0-1-0.4-1-0.9c0-0.5,0.4-1,1-1h0.4v-0.7c0-1.1,0.3-1.9,0.8-2.4c0.5-0.5,1.3-0.8,2.2-0.8
		c0.4,0,0.8,0,1.1,0.1c0.4,0.1,0.8,0.4,0.8,0.9c0,0.5-0.4,1-1,0.9c-0.1,0-0.3,0-0.5,0c-0.9,0-1.3,0.5-1.3,1.5v0.5h1.8
		c0.5,0,1,0.4,1,0.9c0,0.5-0.4,0.9-1,0.9h-1.7V72c0,0.6-0.5,1.1-1.1,1.1c-0.6,0-1.1-0.5-1.1-1.1V65z"/>
	<path class="st0" d="M229,64.1c0-0.6,0.5-1.1,1.1-1.1s1.1,0.5,1.1,1.1v1c0.5-1.2,1.5-2.2,2.5-2.2c0.7,0,1.1,0.5,1.1,1.1
		c0,0.6-0.4,1-0.9,1.1c-1.6,0.3-2.7,1.5-2.7,3.9V72c0,0.6-0.5,1.1-1.1,1.1c-0.6,0-1.1-0.5-1.1-1.1V64.1z"/>
	<path class="st0" d="M235,68.1L235,68.1c0-2.9,2.3-5.2,5.3-5.2c3,0,5.3,2.3,5.3,5.1v0c0,2.8-2.3,5.2-5.3,5.2
		C237.2,73.2,235,70.9,235,68.1z M243.3,68.1L243.3,68.1c0-1.8-1.3-3.2-3-3.2c-1.8,0-3,1.4-3,3.2v0c0,1.7,1.3,3.2,3,3.2
		C242.1,71.2,243.3,69.8,243.3,68.1z"/>
	<path class="st0" d="M246.9,64.1c0-0.6,0.5-1.1,1.1-1.1s1.1,0.5,1.1,1.1v0.5c0.6-0.9,1.5-1.7,3-1.7c1.4,0,2.4,0.7,3,1.7
		c0.8-1,1.8-1.7,3.3-1.7c2.2,0,3.5,1.4,3.5,3.8V72c0,0.6-0.5,1.1-1.1,1.1s-1.1-0.5-1.1-1.1v-4.6c0-1.6-0.7-2.4-2-2.4
		c-1.2,0-2.1,0.9-2.1,2.5V72c0,0.6-0.5,1.1-1.1,1.1c-0.6,0-1.1-0.5-1.1-1.1v-4.6c0-1.5-0.8-2.4-2-2.4s-2.1,0.9-2.1,2.5V72
		c0,0.6-0.5,1.1-1.1,1.1c-0.6,0-1.1-0.5-1.1-1.1V64.1z"/>
	<path class="st0" d="M267.8,70.1L267.8,70.1c0-2.2,1.7-3.2,4.1-3.2c1.1,0,1.9,0.2,2.7,0.4v-0.2c0-1.4-0.9-2.2-2.5-2.2
		c-0.9,0-1.6,0.1-2.2,0.4c-0.1,0-0.2,0.1-0.4,0.1c-0.5,0-1-0.4-1-0.9c0-0.4,0.3-0.8,0.6-0.9c0.9-0.4,1.9-0.6,3.2-0.6
		c1.5,0,2.6,0.4,3.3,1.1c0.7,0.7,1.1,1.8,1.1,3.1V72c0,0.6-0.5,1.1-1.1,1.1c-0.7,0-1.1-0.5-1.1-1v-0.4c-0.7,0.8-1.7,1.4-3.2,1.4
		C269.5,73.2,267.8,72.1,267.8,70.1z M274.6,69.4v-0.7c-0.6-0.2-1.4-0.4-2.3-0.4c-1.5,0-2.3,0.6-2.3,1.7v0c0,1,0.8,1.5,1.9,1.5
		C273.4,71.6,274.6,70.7,274.6,69.4z"/>
	<path class="st0" d="M283.2,64.1c0-0.6,0.5-1.1,1.1-1.1s1.1,0.5,1.1,1.1v0.6c0.7-1,1.8-1.9,3.4-1.9c2.3,0,4.6,1.8,4.6,5.1v0
		c0,3.3-2.3,5.1-4.6,5.1c-1.7,0-2.7-0.8-3.4-1.7V75c0,0.6-0.5,1.1-1.1,1.1c-0.6,0-1.1-0.5-1.1-1.1V64.1z M291.1,68.1L291.1,68.1
		c0-2-1.3-3.2-2.8-3.2c-1.5,0-2.9,1.3-2.9,3.2v0c0,1.9,1.4,3.2,2.9,3.2C289.9,71.2,291.1,70,291.1,68.1z"/>
	<path class="st0" d="M294.9,64.1c0-0.6,0.5-1.1,1.1-1.1s1.1,0.5,1.1,1.1v1c0.5-1.2,1.5-2.2,2.5-2.2c0.7,0,1.1,0.5,1.1,1.1
		c0,0.6-0.4,1-0.9,1.1c-1.6,0.3-2.7,1.5-2.7,3.9V72c0,0.6-0.5,1.1-1.1,1.1c-0.6,0-1.1-0.5-1.1-1.1V64.1z"/>
	<path class="st0" d="M300.8,68.1L300.8,68.1c0-2.9,2.3-5.2,5.3-5.2c3,0,5.3,2.3,5.3,5.1v0c0,2.8-2.3,5.2-5.3,5.2
		C303,73.2,300.8,70.9,300.8,68.1z M309.1,68.1L309.1,68.1c0-1.8-1.3-3.2-3-3.2c-1.8,0-3,1.4-3,3.2v0c0,1.7,1.3,3.2,3,3.2
		C307.9,71.2,309.1,69.8,309.1,68.1z"/>
	<path class="st0" d="M316.4,73.2h-0.1c-0.6,0-1-0.4-1.3-1l-3.3-7.6c-0.1-0.2-0.1-0.4-0.1-0.6c0-0.6,0.5-1.1,1.1-1.1
		c0.6,0,0.9,0.4,1.1,0.8l2.6,6.6l2.6-6.6c0.2-0.4,0.5-0.8,1.1-0.8c0.6,0,1.1,0.5,1.1,1.1c0,0.2-0.1,0.4-0.1,0.5l-3.3,7.6
		C317.5,72.8,317,73.2,316.4,73.2z"/>
	<path class="st0" d="M322.3,60.4c0-0.7,0.6-1.1,1.3-1.1s1.3,0.4,1.3,1.1v0.1c0,0.7-0.6,1.1-1.3,1.1s-1.3-0.5-1.3-1.1V60.4z
		 M322.5,64.1c0-0.6,0.5-1.1,1.1-1.1s1.1,0.5,1.1,1.1V72c0,0.6-0.5,1.1-1.1,1.1c-0.6,0-1.1-0.5-1.1-1.1V64.1z"/>
	<path class="st0" d="M336.5,72c0,0.6-0.5,1.1-1.1,1.1c-0.6,0-1.1-0.5-1.1-1.1v-0.6c-0.7,1-1.8,1.9-3.4,1.9c-2.3,0-4.6-1.9-4.6-5.1
		v0c0-3.3,2.2-5.1,4.6-5.1c1.6,0,2.7,0.8,3.4,1.7v-4.3c0-0.6,0.5-1.1,1.1-1.1c0.6,0,1.1,0.5,1.1,1.1V72z M328.6,68L328.6,68
		c0,2,1.3,3.2,2.9,3.2c1.5,0,2.9-1.3,2.9-3.2v0c0-1.9-1.4-3.2-2.9-3.2C329.8,64.9,328.6,66.1,328.6,68z"/>
	<path class="st0" d="M343,73.2c-2.9,0-5.1-2.1-5.1-5.1v0c0-2.8,2-5.2,4.8-5.2c3.2,0,4.7,2.6,4.7,4.9c0,0.6-0.5,1.1-1.1,1.1h-6.2
		c0.2,1.6,1.4,2.5,2.9,2.5c1,0,1.7-0.3,2.3-0.9c0.2-0.1,0.3-0.2,0.6-0.2c0.5,0,0.9,0.4,0.9,0.9c0,0.3-0.1,0.5-0.3,0.7
		C345.6,72.7,344.5,73.2,343,73.2z M345.2,67.4c-0.1-1.5-1-2.6-2.5-2.6c-1.4,0-2.4,1.1-2.6,2.6H345.2z"/>
	<path class="st0" d="M348.8,64.1c0-0.6,0.5-1.1,1.1-1.1s1.1,0.5,1.1,1.1v1c0.5-1.2,1.5-2.2,2.5-2.2c0.7,0,1.1,0.5,1.1,1.1
		c0,0.6-0.4,1-0.9,1.1c-1.6,0.3-2.7,1.5-2.7,3.9V72c0,0.6-0.5,1.1-1.1,1.1c-0.6,0-1.1-0.5-1.1-1.1V64.1z"/>
	<path class="st0" d="M358.8,68.9c-0.4,0-0.8-0.3-0.8-0.8l-0.2-1.6c-0.1-0.5,0.2-0.9,0.7-0.9c1.8-0.2,2.7-0.8,2.7-2v0
		c0-1-0.8-1.8-2.2-1.8c-1,0-1.8,0.4-2.6,1c-0.2,0.2-0.4,0.3-0.7,0.3c-0.6,0-1.1-0.5-1.1-1c0-0.3,0.1-0.6,0.4-0.8
		c1-0.9,2.2-1.6,4-1.6c2.6,0,4.4,1.5,4.4,3.8v0c0,2.4-1.7,3.4-3.8,3.8l-0.1,0.9c-0.1,0.4-0.4,0.8-0.8,0.8H358.8z M358.8,70.3
		c0.8,0,1.3,0.6,1.3,1.3v0.2c0,0.7-0.6,1.3-1.3,1.3c-0.8,0-1.3-0.6-1.3-1.3v-0.2C357.4,70.9,358,70.3,358.8,70.3z"/>
</g>
</svg>
