<?xml version="1.0" encoding="utf-8"?>
<!-- Generator: Adobe Illustrator 21.1.0, SVG Export Plug-In . SVG Version: 6.00 Build 0)  -->
<svg version="1.1" id="Layer_1" xmlns="http://www.w3.org/2000/svg" xmlns:xlink="http://www.w3.org/1999/xlink" x="0px" y="0px"
	 viewBox="0 0 300 600" style="enable-background:new 0 0 300 600;" xml:space="preserve">
<style type="text/css">
	.st0{fill:#133C7D;}
</style>
<g>
	<path class="st0" d="M40,52.7c0-0.8,0.6-1.4,1.4-1.4h5.5c1.9,0,3.5,0.6,4.4,1.5c0.8,0.8,1.3,2,1.3,3.3v0c0,2.5-1.4,4-3.5,4.6
		l2.9,3.7c0.3,0.3,0.4,0.6,0.4,1c0,0.7-0.6,1.3-1.3,1.3c-0.6,0-1-0.3-1.3-0.7l-3.7-4.8h-3.4v4.1c0,0.7-0.6,1.3-1.3,1.3
		c-0.8,0-1.4-0.6-1.4-1.3V52.7z M46.6,58.9c1.9,0,3.2-1,3.2-2.6v0c0-1.6-1.2-2.6-3.2-2.6h-3.9v5.2H46.6z"/>
	<path class="st0" d="M59.6,67c-3.4,0-6-2.4-6-6v0c0-3.3,2.4-6.1,5.7-6.1c3.7,0,5.5,3,5.5,5.7c0,0.7-0.6,1.3-1.3,1.3h-7.3
		c0.3,1.9,1.6,2.9,3.3,2.9c1.1,0,2-0.4,2.8-1c0.2-0.2,0.4-0.2,0.7-0.2c0.6,0,1.1,0.5,1.1,1.1c0,0.3-0.2,0.6-0.4,0.8
		C62.7,66.4,61.4,67,59.6,67z M62.2,60.1C62,58.4,61,57,59.3,57c-1.6,0-2.8,1.3-3,3.1H62.2z"/>
	<path class="st0" d="M66.6,51.8c0-0.7,0.6-1.3,1.3-1.3s1.3,0.6,1.3,1.3v13.6c0,0.7-0.6,1.3-1.3,1.3c-0.7,0-1.3-0.6-1.3-1.3V51.8z"
		/>
	<path class="st0" d="M71.9,70c-0.4-0.1-0.8-0.5-0.8-1.1c0-0.7,0.5-1.1,1.1-1.1c0.2,0,0.4,0,0.5,0.1c0.3,0.1,0.6,0.2,0.9,0.2
		c0.8,0,1.2-0.3,1.6-1.2l0.1-0.2L71,56.9c-0.1-0.2-0.2-0.5-0.2-0.6c0-0.7,0.6-1.3,1.3-1.3c0.7,0,1.1,0.4,1.3,1l3.1,7.7l2.9-7.7
		c0.2-0.6,0.6-1,1.3-1c0.7,0,1.3,0.5,1.3,1.3c0,0.2-0.1,0.5-0.1,0.6L77.7,67c-1,2.4-2,3.3-3.9,3.3C73,70.3,72.5,70.2,71.9,70z"/>
	<path class="st0" d="M88.3,61L88.3,61c0-3.4,2.6-6.1,6.2-6.1s6.2,2.7,6.2,6v0c0,3.3-2.6,6.1-6.2,6.1C90.9,67,88.3,64.3,88.3,61z
		 M98,61L98,61c0-2.1-1.5-3.8-3.6-3.8c-2.1,0-3.5,1.7-3.5,3.7v0c0,2,1.5,3.7,3.5,3.7C96.7,64.6,98,63,98,61z"/>
	<path class="st0" d="M102.3,56.3c0-0.7,0.6-1.3,1.3-1.3s1.3,0.6,1.3,1.3v0.6c0.7-1.1,1.8-2,3.6-2c2.6,0,4.1,1.8,4.1,4.4v6.2
		c0,0.7-0.6,1.3-1.3,1.3s-1.3-0.6-1.3-1.3v-5.4c0-1.8-0.9-2.8-2.5-2.8c-1.5,0-2.6,1.1-2.6,2.9v5.3c0,0.7-0.6,1.3-1.3,1.3
		c-0.7,0-1.3-0.6-1.3-1.3V56.3z"/>
	<path class="st0" d="M125.7,67c-3.4,0-6-2.4-6-6v0c0-3.3,2.4-6.1,5.7-6.1c3.7,0,5.5,3,5.5,5.7c0,0.7-0.6,1.3-1.3,1.3h-7.3
		c0.3,1.9,1.6,2.9,3.3,2.9c1.1,0,2-0.4,2.8-1c0.2-0.2,0.4-0.2,0.7-0.2c0.6,0,1.1,0.5,1.1,1.1c0,0.3-0.2,0.6-0.4,0.8
		C128.8,66.4,127.5,67,125.7,67z M128.3,60.1c-0.2-1.7-1.2-3.1-2.9-3.1c-1.6,0-2.8,1.3-3,3.1H128.3z"/>
	<path class="st0" d="M133.1,57.4h-0.5c-0.6,0-1.1-0.5-1.1-1.1c0-0.6,0.5-1.1,1.1-1.1h0.5v-0.9c0-1.3,0.3-2.2,0.9-2.9
		c0.6-0.6,1.5-0.9,2.6-0.9c0.5,0,1,0,1.3,0.1c0.5,0.1,0.9,0.5,0.9,1.1c0,0.6-0.5,1.1-1.1,1.1c-0.2,0-0.4,0-0.5,0
		c-1,0-1.5,0.6-1.5,1.8v0.6h2.1c0.6,0,1.1,0.5,1.1,1.1c0,0.6-0.5,1.1-1.1,1.1h-2v8.1c0,0.7-0.6,1.3-1.3,1.3c-0.7,0-1.3-0.6-1.3-1.3
		V57.4z"/>
	<path class="st0" d="M140.3,63.5v-6.1h-0.4c-0.6,0-1.1-0.5-1.1-1.1s0.5-1.1,1.1-1.1h0.4v-2c0-0.7,0.6-1.3,1.3-1.3
		c0.7,0,1.3,0.6,1.3,1.3v2h2.1c0.6,0,1.2,0.5,1.2,1.1s-0.5,1.1-1.2,1.1h-2.1v5.7c0,1,0.5,1.5,1.4,1.5c0.3,0,0.6-0.1,0.7-0.1
		c0.6,0,1.1,0.5,1.1,1.1c0,0.5-0.3,0.9-0.7,1c-0.6,0.2-1.1,0.3-1.8,0.3C141.6,66.9,140.3,66,140.3,63.5z"/>
	<path class="st0" d="M147.6,56.3c0-0.7,0.6-1.3,1.3-1.3s1.3,0.6,1.3,1.3V57c0.9-1.2,2.1-2.2,4-2.2c2.7,0,5.4,2.2,5.4,6v0
		c0,3.9-2.6,6-5.4,6c-1.9,0-3.1-1-4-2V69c0,0.7-0.6,1.3-1.3,1.3c-0.7,0-1.3-0.6-1.3-1.3V56.3z M157,60.9L157,60.9
		c0-2.3-1.5-3.8-3.3-3.8c-1.8,0-3.4,1.5-3.4,3.7v0c0,2.2,1.6,3.7,3.4,3.7C155.5,64.6,157,63.2,157,60.9z"/>
	<path class="st0" d="M160.7,61L160.7,61c0-3.4,2.6-6.1,6.2-6.1s6.2,2.7,6.2,6v0c0,3.3-2.6,6.1-6.2,6.1
		C163.3,67,160.7,64.3,160.7,61z M170.4,61L170.4,61c0-2.1-1.5-3.8-3.6-3.8c-2.1,0-3.5,1.7-3.5,3.7v0c0,2,1.5,3.7,3.5,3.7
		C169,64.6,170.4,63,170.4,61z"/>
	<path class="st0" d="M174.2,65.5c-0.3-0.2-0.5-0.5-0.5-0.9c0-0.6,0.5-1.1,1.1-1.1c0.2,0,0.4,0.1,0.6,0.2c1.1,0.7,2.3,1.1,3.3,1.1
		c1.1,0,1.8-0.5,1.8-1.3v0c0-0.9-1.2-1.2-2.6-1.6c-1.7-0.5-3.6-1.2-3.6-3.4v0c0-2.2,1.8-3.5,4.1-3.5c1.2,0,2.5,0.4,3.7,0.9
		c0.4,0.2,0.6,0.6,0.6,1c0,0.6-0.5,1.1-1.1,1.1c-0.2,0-0.4,0-0.5-0.1c-0.9-0.5-1.9-0.8-2.7-0.8c-1,0-1.6,0.5-1.6,1.1v0
		c0,0.9,1.3,1.2,2.6,1.6c1.7,0.5,3.6,1.3,3.6,3.4v0c0,2.4-1.9,3.7-4.3,3.7C177.2,66.9,175.6,66.5,174.2,65.5z"/>
	<path class="st0" d="M184.1,68.7c1-0.3,1.5-1,1.5-2c-0.6-0.2-1.3-0.7-1.3-1.5V65c0-0.8,0.6-1.5,1.5-1.5c1,0,1.6,0.7,1.6,1.9v0.2
		c0,1.5-0.4,2.5-1.1,3.2c-0.6,0.6-1.5,0.9-2.1,0.9c-0.5,0-0.7-0.3-0.7-0.6C183.6,69,183.8,68.7,184.1,68.7z"/>
	<path class="st0" d="M40.3,81.4h-0.5c-0.6,0-1.1-0.5-1.1-1.1s0.5-1.1,1.1-1.1h0.5v-0.9c0-1.3,0.3-2.2,0.9-2.9
		c0.6-0.6,1.5-0.9,2.6-0.9c0.5,0,1,0,1.3,0.1c0.5,0.1,0.9,0.5,0.9,1.1c0,0.6-0.5,1.1-1.1,1.1c-0.2,0-0.4,0-0.5,0
		c-1,0-1.5,0.5-1.5,1.8v0.6H45c0.6,0,1.1,0.5,1.1,1.1s-0.5,1.1-1.1,1.1h-2v8.1c0,0.7-0.6,1.3-1.3,1.3c-0.7,0-1.3-0.6-1.3-1.3V81.4z"
		/>
	<path class="st0" d="M45.7,87.4L45.7,87.4c0-2.6,2-3.8,4.8-3.8c1.3,0,2.2,0.2,3.1,0.5v-0.3c0-1.7-1-2.5-2.9-2.5
		c-1,0-1.8,0.2-2.6,0.5c-0.2,0-0.3,0.1-0.4,0.1c-0.6,0-1.1-0.5-1.1-1.1c0-0.5,0.3-0.9,0.7-1.1c1.1-0.4,2.2-0.7,3.7-0.7
		c1.7,0,3,0.5,3.9,1.3c0.9,0.8,1.3,2.1,1.3,3.6v5.7c0,0.7-0.6,1.3-1.3,1.3c-0.8,0-1.3-0.5-1.3-1.1v-0.4c-0.8,0.9-2,1.7-3.8,1.7
		C47.7,90.9,45.7,89.7,45.7,87.4z M53.7,86.5v-0.8c-0.7-0.3-1.6-0.5-2.6-0.5c-1.7,0-2.7,0.7-2.7,1.9v0c0,1.1,1,1.8,2.3,1.8
		C52.4,89,53.7,88,53.7,86.5z"/>
	<path class="st0" d="M58.1,88.8l3.3-4l-3.1-3.6c-0.3-0.4-0.4-0.7-0.4-1c0-0.7,0.6-1.2,1.2-1.2c0.5,0,0.9,0.2,1.2,0.7L63,83l2.7-3.4
		c0.3-0.4,0.7-0.7,1.1-0.7c0.7,0,1.3,0.5,1.3,1.2c0,0.4-0.2,0.6-0.4,0.9l-3.1,3.8l3.3,3.9c0.3,0.4,0.4,0.7,0.4,1
		c0,0.7-0.6,1.2-1.2,1.2c-0.5,0-0.9-0.2-1.2-0.7l-2.8-3.6l-2.8,3.6c-0.3,0.4-0.7,0.7-1.2,0.7c-0.7,0-1.2-0.5-1.2-1.2
		C57.7,89.3,57.8,89,58.1,88.8z"/>
	<path class="st0" d="M74.7,85L74.7,85c0-3.4,2.6-6.1,6.2-6.1s6.2,2.7,6.2,6v0c0,3.3-2.6,6.1-6.2,6.1C77.3,91,74.7,88.3,74.7,85z
		 M84.4,85L84.4,85c0-2.1-1.5-3.8-3.6-3.8c-2.1,0-3.5,1.7-3.5,3.7v0c0,2,1.5,3.7,3.5,3.7C83.1,88.6,84.4,87,84.4,85z"/>
	<path class="st0" d="M88.7,80.3c0-0.7,0.6-1.3,1.3-1.3s1.3,0.6,1.3,1.3v1.2c0.6-1.5,1.8-2.6,2.9-2.6c0.8,0,1.3,0.5,1.3,1.3
		c0,0.7-0.5,1.2-1.1,1.3c-1.9,0.3-3.2,1.8-3.2,4.5v3.4c0,0.7-0.6,1.3-1.3,1.3c-0.7,0-1.3-0.6-1.3-1.3V80.3z"/>
	<path class="st0" d="M102.2,80.3c0-0.7,0.6-1.3,1.3-1.3s1.3,0.6,1.3,1.3v0.5c0.7-1,1.8-2,3.5-2c1.7,0,2.9,0.8,3.5,2
		c0.9-1.2,2.2-2,3.9-2c2.5,0,4.1,1.6,4.1,4.4v6.2c0,0.7-0.6,1.3-1.3,1.3s-1.3-0.6-1.3-1.3v-5.4c0-1.8-0.9-2.8-2.4-2.8
		c-1.5,0-2.5,1-2.5,2.9v5.3c0,0.7-0.6,1.3-1.3,1.3c-0.7,0-1.3-0.6-1.3-1.3v-5.4c0-1.8-0.9-2.8-2.4-2.8c-1.5,0-2.5,1.1-2.5,2.9v5.3
		c0,0.7-0.6,1.3-1.3,1.3c-0.7,0-1.3-0.6-1.3-1.3V80.3z"/>
	<path class="st0" d="M121.3,85L121.3,85c0-3.4,2.6-6.1,6.2-6.1s6.2,2.7,6.2,6v0c0,3.3-2.6,6.1-6.2,6.1C124,91,121.3,88.3,121.3,85z
		 M131.1,85L131.1,85c0-2.1-1.5-3.8-3.6-3.8c-2.1,0-3.5,1.7-3.5,3.7v0c0,2,1.5,3.7,3.5,3.7C129.7,88.6,131.1,87,131.1,85z"/>
	<path class="st0" d="M135.3,80.3c0-0.7,0.6-1.3,1.3-1.3s1.3,0.6,1.3,1.3v0.6c0.7-1.1,1.8-2,3.6-2c2.6,0,4.1,1.8,4.1,4.4v6.2
		c0,0.7-0.6,1.3-1.3,1.3s-1.3-0.6-1.3-1.3v-5.4c0-1.8-0.9-2.8-2.5-2.8c-1.5,0-2.6,1.1-2.6,2.9v5.3c0,0.7-0.6,1.3-1.3,1.3
		c-0.7,0-1.3-0.6-1.3-1.3V80.3z"/>
	<path class="st0" d="M147.8,76c0-0.8,0.7-1.3,1.5-1.3s1.5,0.5,1.5,1.3v0.1c0,0.8-0.7,1.3-1.5,1.3s-1.5-0.5-1.5-1.3V76z M148,80.3
		c0-0.7,0.6-1.3,1.3-1.3s1.3,0.6,1.3,1.3v9.2c0,0.7-0.6,1.3-1.3,1.3c-0.7,0-1.3-0.6-1.3-1.3V80.3z"/>
	<path class="st0" d="M153.6,87.5v-6.1h-0.4c-0.6,0-1.1-0.5-1.1-1.1c0-0.6,0.5-1.1,1.1-1.1h0.4v-2c0-0.7,0.6-1.3,1.3-1.3
		c0.7,0,1.3,0.6,1.3,1.3v2h2.1c0.6,0,1.2,0.5,1.2,1.1c0,0.6-0.5,1.1-1.2,1.1h-2.1v5.7c0,1,0.5,1.5,1.4,1.5c0.3,0,0.6-0.1,0.7-0.1
		c0.6,0,1.1,0.5,1.1,1.1c0,0.5-0.3,0.9-0.7,1c-0.6,0.2-1.1,0.3-1.8,0.3C155,90.9,153.6,90,153.6,87.5z"/>
	<path class="st0" d="M160,85L160,85c0-3.4,2.6-6.1,6.2-6.1s6.2,2.7,6.2,6v0c0,3.3-2.6,6.1-6.2,6.1C162.7,91,160,88.3,160,85z
		 M169.8,85L169.8,85c0-2.1-1.5-3.8-3.6-3.8c-2.1,0-3.5,1.7-3.5,3.7v0c0,2,1.5,3.7,3.5,3.7C168.4,88.6,169.8,87,169.8,85z"/>
	<path class="st0" d="M174,80.3c0-0.7,0.6-1.3,1.3-1.3s1.3,0.6,1.3,1.3v1.2c0.6-1.5,1.8-2.6,2.9-2.6c0.8,0,1.3,0.5,1.3,1.3
		c0,0.7-0.5,1.2-1.1,1.3c-1.9,0.3-3.2,1.8-3.2,4.5v3.4c0,0.7-0.6,1.3-1.3,1.3c-0.7,0-1.3-0.6-1.3-1.3V80.3z"/>
	<path class="st0" d="M186.9,91c-3.4,0-6-2.4-6-6v0c0-3.3,2.4-6.1,5.7-6.1c3.7,0,5.5,3,5.5,5.7c0,0.7-0.6,1.3-1.3,1.3h-7.3
		c0.3,1.9,1.6,2.9,3.3,2.9c1.1,0,2-0.4,2.8-1c0.2-0.2,0.4-0.2,0.7-0.2c0.6,0,1.1,0.5,1.1,1.1c0,0.3-0.2,0.6-0.4,0.8
		C190.1,90.4,188.7,91,186.9,91z M189.6,84.1c-0.2-1.7-1.2-3.1-2.9-3.1c-1.6,0-2.8,1.3-3,3.1H189.6z"/>
	<path class="st0" d="M205.2,89.5c0,0.7-0.6,1.3-1.3,1.3c-0.7,0-1.3-0.6-1.3-1.3v-0.7c-0.9,1.2-2.1,2.2-4,2.2c-2.7,0-5.4-2.2-5.4-6
		v0c0-3.9,2.6-6,5.4-6c1.9,0,3.1,0.9,4,2v-5c0-0.7,0.6-1.3,1.3-1.3c0.7,0,1.3,0.6,1.3,1.3V89.5z M195.9,84.9L195.9,84.9
		c0,2.3,1.5,3.8,3.3,3.8c1.8,0,3.4-1.5,3.4-3.7v0c0-2.2-1.6-3.7-3.4-3.7C197.4,81.1,195.9,82.6,195.9,84.9z"/>
	<path class="st0" d="M39.2,113.5c-0.3-0.2-0.5-0.5-0.5-0.9c0-0.6,0.5-1.1,1.1-1.1c0.2,0,0.4,0.1,0.6,0.2c1.1,0.7,2.3,1.1,3.3,1.1
		c1.1,0,1.8-0.5,1.8-1.3v0c0-0.9-1.2-1.2-2.6-1.6c-1.7-0.5-3.6-1.2-3.6-3.4v0c0-2.2,1.8-3.5,4.1-3.5c1.2,0,2.5,0.4,3.7,0.9
		c0.4,0.2,0.6,0.5,0.6,1c0,0.6-0.5,1.1-1.1,1.1c-0.2,0-0.4,0-0.5-0.1c-0.9-0.5-1.9-0.8-2.7-0.8c-1,0-1.6,0.5-1.6,1.1v0
		c0,0.9,1.3,1.2,2.6,1.7c1.7,0.5,3.6,1.3,3.6,3.4v0c0,2.4-1.9,3.7-4.3,3.7C42.2,114.9,40.6,114.5,39.2,113.5z"/>
	<path class="st0" d="M54.9,115c-3.4,0-6-2.4-6-6v0c0-3.3,2.4-6.1,5.7-6.1c3.7,0,5.5,3,5.5,5.7c0,0.7-0.6,1.3-1.3,1.3h-7.3
		c0.3,1.9,1.6,2.9,3.3,2.9c1.1,0,2-0.4,2.8-1c0.2-0.2,0.4-0.2,0.7-0.2c0.6,0,1.1,0.5,1.1,1.1c0,0.3-0.2,0.6-0.4,0.8
		C58,114.4,56.7,115,54.9,115z M57.6,108.1c-0.2-1.7-1.2-3.1-2.9-3.1c-1.6,0-2.8,1.3-3,3.1H57.6z"/>
	<path class="st0" d="M61.1,109L61.1,109c0-3.3,2.6-6.1,6.1-6.1c1.8,0,3.1,0.6,4.1,1.5c0.2,0.2,0.4,0.5,0.4,0.9
		c0,0.7-0.5,1.2-1.2,1.2c-0.3,0-0.6-0.1-0.8-0.3c-0.7-0.6-1.4-1-2.5-1c-1.9,0-3.4,1.7-3.4,3.7v0c0,2.1,1.4,3.7,3.5,3.7
		c1.1,0,1.9-0.4,2.6-1c0.2-0.1,0.4-0.3,0.7-0.3c0.6,0,1.1,0.5,1.1,1.2c0,0.4-0.1,0.6-0.4,0.8c-1,1-2.3,1.6-4.2,1.6
		C63.7,115,61.1,112.3,61.1,109z"/>
	<path class="st0" d="M83.6,113.5c0,0.7-0.6,1.3-1.3,1.3c-0.7,0-1.3-0.6-1.3-1.3v-0.6c-0.7,1.1-1.8,2-3.6,2c-2.6,0-4.1-1.8-4.1-4.5
		v-6.2c0-0.7,0.6-1.3,1.3-1.3c0.7,0,1.3,0.6,1.3,1.3v5.4c0,1.8,0.9,2.8,2.5,2.8c1.5,0,2.6-1.1,2.6-2.9v-5.3c0-0.7,0.6-1.3,1.3-1.3
		c0.7,0,1.3,0.6,1.3,1.3V113.5z"/>
	<path class="st0" d="M85.8,104.3c0-0.7,0.6-1.3,1.3-1.3s1.3,0.6,1.3,1.3v1.2c0.6-1.5,1.8-2.6,2.9-2.6c0.8,0,1.3,0.5,1.3,1.3
		c0,0.7-0.5,1.2-1.1,1.3c-1.9,0.3-3.2,1.8-3.2,4.5v3.4c0,0.7-0.6,1.3-1.3,1.3c-0.7,0-1.3-0.6-1.3-1.3V104.3z"/>
	<path class="st0" d="M93.7,100c0-0.8,0.7-1.3,1.5-1.3s1.5,0.5,1.5,1.3v0.1c0,0.8-0.7,1.3-1.5,1.3s-1.5-0.5-1.5-1.3V100z
		 M93.9,104.3c0-0.7,0.6-1.3,1.3-1.3s1.3,0.6,1.3,1.3v9.2c0,0.7-0.6,1.3-1.3,1.3c-0.7,0-1.3-0.6-1.3-1.3V104.3z"/>
	<path class="st0" d="M99.5,111.5v-6.1h-0.4c-0.6,0-1.1-0.5-1.1-1.1c0-0.6,0.5-1.1,1.1-1.1h0.4v-2c0-0.7,0.6-1.3,1.3-1.3
		c0.7,0,1.3,0.6,1.3,1.3v2h2.1c0.6,0,1.2,0.5,1.2,1.1c0,0.6-0.5,1.1-1.2,1.1h-2.1v5.7c0,1,0.5,1.5,1.4,1.5c0.3,0,0.6-0.1,0.7-0.1
		c0.6,0,1.1,0.5,1.1,1.1c0,0.5-0.3,0.9-0.7,1c-0.6,0.2-1.1,0.3-1.8,0.3C100.9,114.9,99.5,114,99.5,111.5z"/>
	<path class="st0" d="M107.2,118c-0.4-0.1-0.8-0.5-0.8-1.1c0-0.7,0.5-1.1,1.1-1.1c0.2,0,0.4,0,0.5,0.1c0.3,0.1,0.6,0.2,0.9,0.2
		c0.8,0,1.2-0.3,1.6-1.2l0.1-0.2l-4.3-9.6c-0.1-0.2-0.2-0.5-0.2-0.6c0-0.7,0.6-1.3,1.3-1.3c0.7,0,1.1,0.4,1.3,1l3.1,7.7l2.9-7.7
		c0.2-0.6,0.6-1,1.3-1c0.7,0,1.3,0.6,1.3,1.3c0,0.2-0.1,0.5-0.1,0.6l-4.2,10.2c-1,2.4-2,3.3-3.9,3.3
		C108.3,118.3,107.7,118.2,107.2,118z"/>
	<path class="st0" d="M123.4,111.4L123.4,111.4c0-2.6,2-3.8,4.8-3.8c1.3,0,2.2,0.2,3.1,0.5v-0.3c0-1.7-1-2.5-2.9-2.5
		c-1,0-1.8,0.2-2.6,0.5c-0.2,0-0.3,0.1-0.4,0.1c-0.6,0-1.1-0.5-1.1-1.1c0-0.5,0.3-0.9,0.7-1.1c1.1-0.4,2.2-0.7,3.7-0.7
		c1.7,0,3,0.5,3.9,1.3c0.9,0.8,1.3,2.1,1.3,3.6v5.7c0,0.7-0.6,1.3-1.3,1.3c-0.8,0-1.3-0.5-1.3-1.1v-0.4c-0.8,0.9-2,1.7-3.8,1.7
		C125.4,114.9,123.4,113.7,123.4,111.4z M131.4,110.5v-0.8c-0.7-0.3-1.6-0.5-2.6-0.5c-1.7,0-2.7,0.7-2.7,1.9v0c0,1.1,1,1.8,2.3,1.8
		C130.1,113,131.4,112,131.4,110.5z"/>
	<path class="st0" d="M136.2,99.8c0-0.7,0.6-1.3,1.3-1.3s1.3,0.6,1.3,1.3v13.6c0,0.7-0.6,1.3-1.3,1.3c-0.7,0-1.3-0.6-1.3-1.3V99.8z"
		/>
	<path class="st0" d="M140.5,111.4L140.5,111.4c0-2.6,2-3.8,4.8-3.8c1.3,0,2.2,0.2,3.1,0.5v-0.3c0-1.7-1-2.5-2.9-2.5
		c-1,0-1.8,0.2-2.6,0.5c-0.2,0-0.3,0.1-0.4,0.1c-0.6,0-1.1-0.5-1.1-1.1c0-0.5,0.3-0.9,0.7-1.1c1.1-0.4,2.2-0.7,3.7-0.7
		c1.7,0,3,0.5,3.9,1.3c0.9,0.8,1.3,2.1,1.3,3.6v5.7c0,0.7-0.6,1.3-1.3,1.3c-0.8,0-1.3-0.5-1.3-1.1v-0.4c-0.8,0.9-2,1.7-3.8,1.7
		C142.4,114.9,140.5,113.7,140.5,111.4z M148.4,110.5v-0.8c-0.7-0.3-1.6-0.5-2.6-0.5c-1.7,0-2.7,0.7-2.7,1.9v0c0,1.1,1,1.8,2.3,1.8
		C147.1,113,148.4,112,148.4,110.5z"/>
	<path class="st0" d="M153,104.3c0-0.7,0.6-1.3,1.3-1.3s1.3,0.6,1.3,1.3v1.2c0.6-1.5,1.8-2.6,2.9-2.6c0.8,0,1.3,0.5,1.3,1.3
		c0,0.7-0.5,1.2-1.1,1.3c-1.9,0.3-3.2,1.8-3.2,4.5v3.4c0,0.7-0.6,1.3-1.3,1.3c-0.7,0-1.3-0.6-1.3-1.3V104.3z"/>
	<path class="st0" d="M161,104.3c0-0.7,0.6-1.3,1.3-1.3s1.3,0.6,1.3,1.3v0.5c0.7-1,1.8-2,3.5-2c1.7,0,2.9,0.8,3.5,2
		c0.9-1.2,2.2-2,3.9-2c2.5,0,4.1,1.6,4.1,4.4v6.2c0,0.7-0.6,1.3-1.3,1.3s-1.3-0.6-1.3-1.3v-5.4c0-1.8-0.9-2.8-2.4-2.8
		c-1.5,0-2.5,1-2.5,2.9v5.3c0,0.7-0.6,1.3-1.3,1.3c-0.7,0-1.3-0.6-1.3-1.3v-5.4c0-1.8-0.9-2.8-2.4-2.8c-1.5,0-2.5,1.1-2.5,2.9v5.3
		c0,0.7-0.6,1.3-1.3,1.3c-0.7,0-1.3-0.6-1.3-1.3V104.3z"/>
	<path class="st0" d="M180.4,113.5c-0.3-0.2-0.5-0.5-0.5-0.9c0-0.6,0.5-1.1,1.1-1.1c0.2,0,0.4,0.1,0.6,0.2c1.1,0.7,2.3,1.1,3.3,1.1
		c1.1,0,1.8-0.5,1.8-1.3v0c0-0.9-1.2-1.2-2.6-1.6c-1.7-0.5-3.6-1.2-3.6-3.4v0c0-2.2,1.8-3.5,4.1-3.5c1.2,0,2.5,0.4,3.7,0.9
		c0.4,0.2,0.6,0.5,0.6,1c0,0.6-0.5,1.1-1.1,1.1c-0.2,0-0.4,0-0.5-0.1c-0.9-0.5-1.9-0.8-2.7-0.8c-1,0-1.6,0.5-1.6,1.1v0
		c0,0.9,1.3,1.2,2.6,1.7c1.7,0.5,3.6,1.3,3.6,3.4v0c0,2.4-1.9,3.7-4.3,3.7C183.3,114.9,181.7,114.5,180.4,113.5z"/>
	<path class="st0" d="M193.7,109.9c-0.5,0-0.9-0.4-0.9-0.9l-0.2-1.9c-0.1-0.6,0.3-1,0.9-1.1c2.1-0.2,3.2-1,3.2-2.4v0
		c0-1.2-0.9-2.1-2.5-2.1c-1.2,0-2.1,0.4-3,1.2c-0.2,0.2-0.5,0.3-0.8,0.3c-0.7,0-1.2-0.6-1.2-1.2c0-0.3,0.1-0.7,0.4-0.9
		c1.2-1.1,2.6-1.8,4.7-1.8c3.1,0,5.2,1.7,5.2,4.5v0c0,2.8-2,4-4.4,4.4l-0.1,1c-0.1,0.5-0.4,0.9-0.9,0.9H193.7z M193.7,111.6
		c0.9,0,1.6,0.7,1.6,1.5v0.2c0,0.9-0.7,1.5-1.6,1.5s-1.6-0.7-1.6-1.5v-0.2C192.1,112.2,192.8,111.6,193.7,111.6z"/>
</g>
</svg>
