<?xml version="1.0" encoding="utf-8"?>
<!-- Generator: Adobe Illustrator 21.1.0, SVG Export Plug-In . SVG Version: 6.00 Build 0)  -->
<svg version="1.1" id="Layer_1" xmlns="http://www.w3.org/2000/svg" xmlns:xlink="http://www.w3.org/1999/xlink" x="0px" y="0px"
	 viewBox="0 0 320 50" style="enable-background:new 0 0 320 50;" xml:space="preserve">
<style type="text/css">
	.st0{fill:#133C7D;}
</style>
<g>
	<path class="st0" d="M60.4,27.8c-0.3-0.2-0.4-0.5-0.4-0.8c0-0.6,0.5-1,1-1c0.3,0,0.5,0.1,0.6,0.2c1,0.8,2.2,1.3,3.5,1.3
		c1.4,0,2.2-0.6,2.2-1.6v0c0-0.9-0.5-1.4-2.8-1.9c-2.7-0.6-4.2-1.4-4.2-3.8v0c0-2.2,1.8-3.7,4.3-3.7c1.6,0,2.9,0.4,4,1.2
		c0.3,0.1,0.5,0.5,0.5,0.9c0,0.6-0.5,1-1,1c-0.2,0-0.4-0.1-0.6-0.2c-1-0.6-1.9-1-2.9-1c-1.3,0-2.1,0.7-2.1,1.5v0c0,1,0.6,1.4,3,2
		c2.7,0.6,4,1.6,4,3.7v0c0,2.4-1.9,3.8-4.5,3.8C63.4,29.4,61.8,28.9,60.4,27.8z"/>
	<path class="st0" d="M75.4,29.5c-2.8,0-4.9-2-4.9-4.9v0c0-2.7,1.9-5,4.6-5c3,0,4.5,2.5,4.5,4.7c0,0.6-0.5,1-1,1h-6
		c0.2,1.5,1.3,2.4,2.7,2.4c0.9,0,1.6-0.3,2.3-0.8c0.2-0.1,0.3-0.2,0.6-0.2c0.5,0,0.9,0.4,0.9,0.9c0,0.3-0.1,0.5-0.3,0.7
		C78,29,76.9,29.5,75.4,29.5z M77.6,23.8c-0.1-1.4-1-2.5-2.4-2.5c-1.3,0-2.3,1-2.5,2.5H77.6z"/>
	<path class="st0" d="M81.5,26.6v-5h-0.4c-0.5,0-0.9-0.4-0.9-0.9s0.4-0.9,0.9-0.9h0.4v-1.6c0-0.6,0.5-1.1,1.1-1.1
		c0.6,0,1.1,0.5,1.1,1.1v1.6h1.7c0.5,0,1,0.4,1,0.9s-0.4,0.9-1,0.9h-1.7v4.7c0,0.8,0.4,1.2,1.2,1.2c0.3,0,0.5-0.1,0.5-0.1
		c0.5,0,0.9,0.4,0.9,0.9c0,0.4-0.3,0.7-0.6,0.8c-0.5,0.2-0.9,0.3-1.5,0.3C82.6,29.4,81.5,28.7,81.5,26.6z"/>
	<path class="st0" d="M91.4,26.5L91.4,26.5c0-2.1,1.6-3.1,3.9-3.1c1.1,0,1.8,0.2,2.6,0.4v-0.2c0-1.3-0.8-2.1-2.4-2.1
		c-0.8,0-1.5,0.1-2.1,0.4c-0.1,0-0.2,0.1-0.3,0.1c-0.5,0-0.9-0.4-0.9-0.9c0-0.4,0.3-0.7,0.6-0.9c0.9-0.3,1.8-0.6,3.1-0.6
		c1.4,0,2.5,0.4,3.2,1.1c0.7,0.7,1,1.7,1,2.9v4.7c0,0.6-0.5,1-1.1,1c-0.6,0-1.1-0.4-1.1-0.9v-0.4c-0.6,0.8-1.6,1.4-3.1,1.4
		C93,29.5,91.4,28.4,91.4,26.5z M97.9,25.8v-0.6c-0.6-0.2-1.3-0.4-2.2-0.4c-1.4,0-2.2,0.6-2.2,1.6v0c0,0.9,0.8,1.4,1.9,1.4
		C96.8,27.9,97.9,27,97.9,25.8z"/>
	<path class="st0" d="M106.2,20.7c0-0.6,0.5-1.1,1.1-1.1s1.1,0.5,1.1,1.1v0.5c0.6-0.9,1.5-1.7,3-1.7c2.1,0,3.4,1.4,3.4,3.6v5.1
		c0,0.6-0.5,1.1-1.1,1.1c-0.6,0-1.1-0.5-1.1-1.1v-4.4c0-1.5-0.7-2.3-2-2.3c-1.3,0-2.1,0.9-2.1,2.4v4.4c0,0.6-0.5,1.1-1.1,1.1
		c-0.6,0-1.1-0.5-1.1-1.1V20.7z"/>
	<path class="st0" d="M120.8,29.5c-2.8,0-4.9-2-4.9-4.9v0c0-2.7,1.9-5,4.6-5c3,0,4.5,2.5,4.5,4.7c0,0.6-0.5,1-1,1h-6
		c0.2,1.5,1.3,2.4,2.7,2.4c0.9,0,1.6-0.3,2.3-0.8c0.2-0.1,0.3-0.2,0.6-0.2c0.5,0,0.9,0.4,0.9,0.9c0,0.3-0.1,0.5-0.3,0.7
		C123.4,29,122.3,29.5,120.8,29.5z M123,23.8c-0.1-1.4-1-2.5-2.4-2.5c-1.3,0-2.3,1-2.5,2.5H123z"/>
	<path class="st0" d="M128.1,28.4l-2.6-7.2c-0.1-0.1-0.1-0.4-0.1-0.6c0-0.5,0.4-1,1.1-1c0.5,0,0.9,0.4,1.1,0.9l1.8,5.8l1.9-5.8
		c0.2-0.5,0.6-0.9,1.1-0.9h0.1c0.6,0,1,0.4,1.1,0.9l1.9,5.8l1.9-5.8c0.1-0.5,0.5-0.8,1.1-0.8c0.6,0,1,0.5,1,1c0,0.2-0.1,0.4-0.1,0.5
		l-2.6,7.3c-0.2,0.7-0.7,1-1.2,1h-0.1c-0.5,0-1-0.3-1.2-0.9l-1.9-5.7l-1.9,5.7c-0.2,0.6-0.6,0.9-1.2,0.9h-0.1
		C128.8,29.4,128.3,29.1,128.1,28.4z"/>
	<path class="st0" d="M145.1,20.7c0-0.6,0.5-1.1,1.1-1.1s1.1,0.5,1.1,1.1v0.6c0.7-1,1.7-1.8,3.2-1.8c2.2,0,4.4,1.8,4.4,4.9v0
		c0,3.2-2.2,4.9-4.4,4.9c-1.6,0-2.6-0.8-3.2-1.7v3.4c0,0.6-0.5,1.1-1.1,1.1c-0.6,0-1.1-0.5-1.1-1.1V20.7z M152.7,24.5L152.7,24.5
		c0-1.9-1.2-3.1-2.7-3.1c-1.5,0-2.8,1.2-2.8,3v0c0,1.8,1.3,3,2.8,3C151.5,27.6,152.7,26.4,152.7,24.5z"/>
	<path class="st0" d="M155.6,26.5L155.6,26.5c0-2.1,1.6-3.1,3.9-3.1c1.1,0,1.8,0.2,2.6,0.4v-0.2c0-1.3-0.8-2.1-2.4-2.1
		c-0.8,0-1.5,0.1-2.1,0.4c-0.1,0-0.2,0.1-0.3,0.1c-0.5,0-0.9-0.4-0.9-0.9c0-0.4,0.3-0.7,0.6-0.9c0.9-0.3,1.8-0.6,3.1-0.6
		c1.4,0,2.5,0.4,3.2,1.1c0.7,0.7,1,1.7,1,2.9v4.7c0,0.6-0.5,1-1.1,1c-0.6,0-1.1-0.4-1.1-0.9v-0.4c-0.6,0.8-1.6,1.4-3.1,1.4
		C157.2,29.5,155.6,28.4,155.6,26.5z M162.1,25.8v-0.6c-0.6-0.2-1.3-0.4-2.2-0.4c-1.4,0-2.2,0.6-2.2,1.6v0c0,0.9,0.8,1.4,1.9,1.4
		C161,27.9,162.1,27,162.1,25.8z"/>
	<path class="st0" d="M165.4,24.6L165.4,24.6c0-2.7,2.1-5,5-5c1.5,0,2.5,0.5,3.3,1.2c0.1,0.1,0.3,0.4,0.3,0.8c0,0.6-0.5,1-1,1
		c-0.3,0-0.5-0.1-0.6-0.2c-0.6-0.5-1.2-0.8-2-0.8c-1.6,0-2.8,1.4-2.8,3v0c0,1.7,1.2,3,2.8,3c0.9,0,1.5-0.3,2.1-0.8
		c0.1-0.1,0.3-0.2,0.6-0.2c0.5,0,0.9,0.4,0.9,1c0,0.3-0.1,0.5-0.3,0.7c-0.8,0.8-1.9,1.3-3.5,1.3C167.5,29.5,165.4,27.3,165.4,24.6z"
		/>
	<path class="st0" d="M179.4,29.5c-2.8,0-4.9-2-4.9-4.9v0c0-2.7,1.9-5,4.6-5c3,0,4.5,2.5,4.5,4.7c0,0.6-0.5,1-1,1h-6
		c0.2,1.5,1.3,2.4,2.7,2.4c0.9,0,1.6-0.3,2.3-0.8c0.2-0.1,0.3-0.2,0.6-0.2c0.5,0,0.9,0.4,0.9,0.9c0,0.3-0.1,0.5-0.3,0.7
		C181.9,29,180.9,29.5,179.4,29.5z M181.5,23.8c-0.1-1.4-1-2.5-2.4-2.5c-1.3,0-2.3,1-2.5,2.5H181.5z"/>
	<path class="st0" d="M190,21.6h-0.4c-0.5,0-0.9-0.4-0.9-0.9s0.4-0.9,0.9-0.9h0.4v-0.7c0-1,0.3-1.8,0.8-2.3c0.5-0.5,1.2-0.8,2.1-0.8
		c0.4,0,0.8,0,1.1,0.1c0.4,0.1,0.8,0.4,0.8,0.9c0,0.5-0.4,0.9-0.9,0.9c-0.1,0-0.3,0-0.4,0c-0.8,0-1.3,0.5-1.3,1.4v0.5h1.7
		c0.5,0,0.9,0.4,0.9,0.9s-0.4,0.9-0.9,0.9h-1.7v6.6c0,0.6-0.5,1.1-1.1,1.1c-0.6,0-1.1-0.5-1.1-1.1V21.6z"/>
	<path class="st0" d="M194.7,24.6L194.7,24.6c0-2.8,2.2-5,5.1-5s5.1,2.2,5.1,4.9v0c0,2.7-2.2,5-5.1,5
		C196.8,29.5,194.7,27.3,194.7,24.6z M202.6,24.6L202.6,24.6c0-1.7-1.2-3.1-2.9-3.1c-1.7,0-2.9,1.4-2.9,3v0c0,1.7,1.2,3,2.9,3
		C201.5,27.6,202.6,26.2,202.6,24.6z"/>
	<path class="st0" d="M206.1,20.7c0-0.6,0.5-1.1,1.1-1.1c0.6,0,1.1,0.5,1.1,1.1v1c0.5-1.2,1.4-2.1,2.4-2.1c0.7,0,1.1,0.5,1.1,1.1
		c0,0.6-0.4,1-0.9,1c-1.5,0.3-2.6,1.5-2.6,3.7v2.8c0,0.6-0.5,1.1-1.1,1.1c-0.6,0-1.1-0.5-1.1-1.1V20.7z"/>
	<path class="st0" d="M217.4,31.9c-0.3-0.1-0.7-0.4-0.7-0.9c0-0.5,0.4-0.9,0.9-0.9c0.2,0,0.3,0,0.4,0.1c0.3,0.1,0.4,0.1,0.8,0.1
		c0.6,0,1-0.3,1.3-1l0.1-0.2l-3.5-7.9c-0.1-0.2-0.1-0.4-0.1-0.5c0-0.6,0.5-1.1,1.1-1.1c0.6,0,0.9,0.3,1.1,0.8l2.6,6.3l2.4-6.3
		c0.2-0.5,0.5-0.8,1-0.8c0.6,0,1,0.5,1,1c0,0.2-0.1,0.4-0.1,0.5l-3.5,8.3c-0.8,1.9-1.7,2.7-3.2,2.7
		C218.3,32.2,217.8,32.1,217.4,31.9z"/>
	<path class="st0" d="M225.9,24.6L225.9,24.6c0-2.8,2.2-5,5.1-5s5.1,2.2,5.1,4.9v0c0,2.7-2.2,5-5.1,5
		C228,29.5,225.9,27.3,225.9,24.6z M233.8,24.6L233.8,24.6c0-1.7-1.2-3.1-2.9-3.1c-1.7,0-2.9,1.4-2.9,3v0c0,1.7,1.2,3,2.9,3
		C232.7,27.6,233.8,26.2,233.8,24.6z"/>
	<path class="st0" d="M245.8,28.3c0,0.6-0.5,1.1-1.1,1.1c-0.6,0-1.1-0.5-1.1-1.1v-0.5c-0.6,0.9-1.5,1.7-3,1.7
		c-2.1,0-3.4-1.4-3.4-3.7v-5.1c0-0.6,0.5-1.1,1.1-1.1c0.6,0,1.1,0.5,1.1,1.1v4.4c0,1.5,0.7,2.3,2,2.3c1.3,0,2.1-0.9,2.1-2.3v-4.4
		c0-0.6,0.5-1.1,1.1-1.1c0.6,0,1.1,0.5,1.1,1.1V28.3z"/>
	<path class="st0" d="M247.6,20.7c0-0.6,0.5-1.1,1.1-1.1c0.6,0,1.1,0.5,1.1,1.1v1c0.5-1.2,1.4-2.1,2.4-2.1c0.7,0,1.1,0.5,1.1,1.1
		c0,0.6-0.4,1-0.9,1c-1.5,0.3-2.6,1.5-2.6,3.7v2.8c0,0.6-0.5,1.1-1.1,1.1c-0.6,0-1.1-0.5-1.1-1.1V20.7z"/>
	<path class="st0" d="M253.8,28.3c-0.2-0.1-0.4-0.4-0.4-0.8c0-0.5,0.4-0.9,0.9-0.9c0.2,0,0.3,0.1,0.5,0.1c0.9,0.6,1.9,0.9,2.7,0.9
		c0.9,0,1.5-0.4,1.5-1v0c0-0.7-1-1-2.1-1.3c-1.4-0.4-3-1-3-2.8v0c0-1.8,1.5-2.9,3.4-2.9c1,0,2.1,0.3,3,0.8c0.3,0.2,0.5,0.5,0.5,0.8
		c0,0.5-0.4,0.9-0.9,0.9c-0.2,0-0.3,0-0.4-0.1c-0.8-0.4-1.6-0.6-2.2-0.6c-0.8,0-1.3,0.4-1.3,0.9v0c0,0.7,1,1,2.1,1.4
		c1.4,0.4,3,1.1,3,2.8v0c0,2-1.5,3-3.5,3C256.2,29.4,254.9,29.1,253.8,28.3z"/>
</g>
</svg>
