<?xml version="1.0" encoding="utf-8"?>
<!-- Generator: Adobe Illustrator 21.1.0, SVG Export Plug-In . SVG Version: 6.00 Build 0)  -->
<svg version="1.1" xmlns="http://www.w3.org/2000/svg" xmlns:xlink="http://www.w3.org/1999/xlink" x="0px" y="0px"
	 viewBox="0 0 320 50" style="enable-background:new 0 0 320 50;" xml:space="preserve">
<style type="text/css">
	.st0{fill:#133C7D;}
	.st1{fill:#FFFFFF;}
</style>
<g id="Layer_1">
	<g>
		<rect class="st0" width="320" height="50"/>
	</g>
</g>
<g id="Layer_2">
	<g>
		<path class="st1" d="M42.8,17.4c0-0.4,0.3-0.7,0.7-0.7h7.8c0.4,0,0.6,0.3,0.6,0.6s-0.3,0.7-0.6,0.7h-7.1v4.5h6.3
			c0.4,0,0.6,0.3,0.6,0.6c0,0.4-0.3,0.6-0.6,0.6h-6.3v4.9c0,0.4-0.3,0.7-0.7,0.7c-0.4,0-0.7-0.3-0.7-0.7V17.4z"/>
		<path class="st1" d="M53.3,17c0-0.5,0.4-0.7,0.8-0.7c0.5,0,0.8,0.3,0.8,0.7v0.2c0,0.4-0.4,0.7-0.8,0.7c-0.5,0-0.8-0.3-0.8-0.7V17z
			 M53.4,20.5c0-0.4,0.3-0.7,0.7-0.7c0.4,0,0.7,0.3,0.7,0.7v8.1c0,0.4-0.3,0.7-0.7,0.7c-0.4,0-0.7-0.3-0.7-0.7V20.5z"/>
		<path class="st1" d="M57,20.5c0-0.4,0.3-0.7,0.7-0.7c0.4,0,0.7,0.3,0.7,0.7v1c0.6-1,1.6-1.8,3.2-1.8c2.3,0,3.6,1.5,3.6,3.7v5.2
			c0,0.4-0.3,0.7-0.7,0.7c-0.4,0-0.7-0.3-0.7-0.7v-4.8c0-1.7-0.9-2.8-2.6-2.8c-1.6,0-2.8,1.2-2.8,2.9v4.7c0,0.4-0.3,0.7-0.7,0.7
			c-0.4,0-0.7-0.3-0.7-0.7V20.5z"/>
		<path class="st1" d="M75.8,28.6c0,0.4-0.3,0.7-0.7,0.7c-0.4,0-0.7-0.3-0.7-0.7v-1.3c-0.8,1.1-1.9,2.1-3.6,2.1
			c-2.2,0-4.4-1.8-4.4-4.8v0c0-3,2.2-4.8,4.4-4.8c1.7,0,2.8,0.9,3.6,2v-5c0-0.4,0.3-0.7,0.7-0.7c0.4,0,0.7,0.3,0.7,0.7V28.6z
			 M67.8,24.6L67.8,24.6c0,2.2,1.5,3.6,3.3,3.6c1.7,0,3.4-1.5,3.4-3.6v0c0-2.1-1.6-3.6-3.4-3.6C69.3,21,67.8,22.3,67.8,24.6z"/>
		<path class="st1" d="M81.6,24.6L81.6,24.6c0-2.7,2.1-4.9,4.9-4.9c2.8,0,4.8,2.2,4.8,4.8v0c0,2.6-2.1,4.9-4.9,4.9
			C83.6,29.5,81.6,27.3,81.6,24.6z M89.9,24.6L89.9,24.6c0-2-1.5-3.7-3.5-3.7c-2,0-3.4,1.6-3.4,3.6v0c0,2,1.5,3.6,3.4,3.6
			C88.5,28.2,89.9,26.6,89.9,24.6z"/>
		<path class="st1" d="M100.7,28.6c0,0.4-0.3,0.7-0.7,0.7c-0.4,0-0.7-0.3-0.7-0.7v-1c-0.6,1-1.6,1.8-3.2,1.8c-2.3,0-3.6-1.5-3.6-3.7
			v-5.2c0-0.4,0.3-0.7,0.7-0.7c0.4,0,0.7,0.3,0.7,0.7v4.8c0,1.7,0.9,2.8,2.6,2.8c1.6,0,2.8-1.2,2.8-2.9v-4.7c0-0.4,0.3-0.7,0.7-0.7
			c0.4,0,0.7,0.3,0.7,0.7V28.6z"/>
		<path class="st1" d="M103.2,26.8v-5.6h-0.8c-0.3,0-0.6-0.3-0.6-0.6c0-0.3,0.3-0.6,0.6-0.6h0.8v-2.2c0-0.4,0.3-0.7,0.7-0.7
			c0.4,0,0.7,0.3,0.7,0.7v2.2h2.4c0.3,0,0.6,0.3,0.6,0.6c0,0.3-0.3,0.6-0.6,0.6h-2.4v5.4c0,1.1,0.6,1.5,1.6,1.5
			c0.5,0,0.7-0.1,0.8-0.1c0.3,0,0.6,0.3,0.6,0.6c0,0.3-0.2,0.5-0.4,0.5c-0.4,0.2-0.8,0.3-1.4,0.3C104.3,29.4,103.2,28.7,103.2,26.8z
			"/>
		<path class="st1" d="M115.5,28.7l-2.8-7.9c0-0.1-0.1-0.3-0.1-0.4c0-0.3,0.3-0.7,0.7-0.7c0.4,0,0.6,0.2,0.7,0.6l2.3,7l2.4-7
			c0.1-0.3,0.3-0.6,0.7-0.6h0.1c0.4,0,0.6,0.2,0.7,0.6l2.3,7l2.4-7c0.1-0.3,0.3-0.5,0.7-0.5c0.4,0,0.7,0.3,0.7,0.6
			c0,0.1-0.1,0.3-0.1,0.4l-2.8,7.9c-0.1,0.4-0.4,0.6-0.8,0.6h-0.1c-0.4,0-0.6-0.2-0.8-0.6l-2.3-6.8l-2.3,6.8
			c-0.1,0.4-0.4,0.6-0.8,0.6h0C115.9,29.4,115.6,29.2,115.5,28.7z"/>
		<path class="st1" d="M127.6,16.7c0-0.4,0.3-0.7,0.7-0.7c0.4,0,0.7,0.3,0.7,0.7v4.8c0.6-1,1.6-1.8,3.2-1.8c2.3,0,3.6,1.5,3.6,3.7
			v5.2c0,0.4-0.3,0.7-0.7,0.7c-0.4,0-0.7-0.3-0.7-0.7v-4.8c0-1.7-0.9-2.8-2.6-2.8c-1.6,0-2.8,1.2-2.8,2.9v4.7c0,0.4-0.3,0.7-0.7,0.7
			c-0.4,0-0.7-0.3-0.7-0.7V16.7z"/>
		<path class="st1" d="M141.7,29.5c-2.6,0-4.6-2-4.6-4.8v0c0-2.7,1.9-4.8,4.5-4.8c2.8,0,4.3,2.3,4.3,4.7c0,0.4-0.3,0.6-0.6,0.6h-6.7
			c0.2,2,1.6,3.2,3.3,3.2c1.2,0,2-0.5,2.7-1.1c0.1-0.1,0.2-0.2,0.4-0.2c0.3,0,0.6,0.3,0.6,0.6c0,0.2-0.1,0.3-0.2,0.5
			C144.3,28.9,143.3,29.5,141.7,29.5z M144.4,24.1c-0.1-1.7-1.1-3.2-3-3.2c-1.6,0-2.8,1.4-3,3.2H144.4z"/>
		<path class="st1" d="M147.2,20.5c0-0.4,0.3-0.7,0.7-0.7c0.4,0,0.7,0.3,0.7,0.7v1c0.6-1,1.6-1.8,3.2-1.8c2.3,0,3.6,1.5,3.6,3.7v5.2
			c0,0.4-0.3,0.7-0.7,0.7c-0.4,0-0.7-0.3-0.7-0.7v-4.8c0-1.7-0.9-2.8-2.6-2.8c-1.6,0-2.8,1.2-2.8,2.9v4.7c0,0.4-0.3,0.7-0.7,0.7
			c-0.4,0-0.7-0.3-0.7-0.7V20.5z"/>
		<path class="st1" d="M161.3,31.9c-0.2-0.1-0.4-0.3-0.4-0.6c0-0.3,0.3-0.6,0.6-0.6c0.1,0,0.2,0,0.3,0.1c0.3,0.1,0.5,0.2,1,0.2
			c0.9,0,1.4-0.5,1.9-1.7l0.1-0.1l-3.9-8.2c-0.1-0.1-0.1-0.3-0.1-0.4c0-0.4,0.3-0.7,0.7-0.7c0.4,0,0.6,0.2,0.7,0.5l3.2,7.3l2.9-7.3
			c0.1-0.3,0.3-0.5,0.7-0.5c0.4,0,0.7,0.3,0.7,0.7c0,0.1,0,0.2-0.1,0.3l-3.6,8.7c-0.8,1.9-1.7,2.6-3.1,2.6
			C162.2,32.2,161.8,32.1,161.3,31.9z"/>
		<path class="st1" d="M169.9,24.6L169.9,24.6c0-2.7,2.1-4.9,4.9-4.9c2.8,0,4.8,2.2,4.8,4.8v0c0,2.6-2.1,4.9-4.9,4.9
			C172,29.5,169.9,27.3,169.9,24.6z M178.2,24.6L178.2,24.6c0-2-1.5-3.7-3.5-3.7c-2,0-3.4,1.6-3.4,3.6v0c0,2,1.5,3.6,3.4,3.6
			C176.8,28.2,178.2,26.6,178.2,24.6z"/>
		<path class="st1" d="M189,28.6c0,0.4-0.3,0.7-0.7,0.7c-0.4,0-0.7-0.3-0.7-0.7v-1c-0.6,1-1.6,1.8-3.2,1.8c-2.3,0-3.6-1.5-3.6-3.7
			v-5.2c0-0.4,0.3-0.7,0.7-0.7c0.4,0,0.7,0.3,0.7,0.7v4.8c0,1.7,0.9,2.8,2.6,2.8c1.6,0,2.8-1.2,2.8-2.9v-4.7c0-0.4,0.3-0.7,0.7-0.7
			c0.4,0,0.7,0.3,0.7,0.7V28.6z"/>
		<path class="st1" d="M194.8,24.6L194.8,24.6c0-2.7,2.1-4.9,4.8-4.9c1.5,0,2.6,0.6,3.4,1.4c0.1,0.1,0.2,0.3,0.2,0.5
			c0,0.4-0.3,0.7-0.7,0.7c-0.2,0-0.3-0.1-0.5-0.2c-0.7-0.6-1.4-1.1-2.5-1.1c-1.9,0-3.3,1.6-3.3,3.6v0c0,2,1.5,3.6,3.4,3.6
			c1.1,0,1.9-0.5,2.6-1.1c0.1-0.1,0.2-0.2,0.4-0.2c0.3,0,0.6,0.3,0.6,0.6c0,0.2-0.1,0.3-0.2,0.4c-0.9,0.9-1.9,1.5-3.5,1.5
			C196.9,29.5,194.8,27.2,194.8,24.6z"/>
		<path class="st1" d="M203.9,26.5L203.9,26.5c0-2,1.6-3,4-3c1.2,0,2,0.2,2.9,0.4v-0.3c0-1.7-1-2.5-2.8-2.5c-0.9,0-1.7,0.2-2.4,0.5
			c-0.1,0-0.2,0.1-0.3,0.1c-0.3,0-0.6-0.3-0.6-0.6c0-0.3,0.2-0.5,0.4-0.6c0.9-0.4,1.9-0.6,3-0.6c1.3,0,2.3,0.3,3,1
			c0.6,0.6,1,1.5,1,2.7v5.1c0,0.4-0.3,0.7-0.7,0.7c-0.4,0-0.7-0.3-0.7-0.6v-0.8c-0.6,0.8-1.7,1.6-3.4,1.6
			C205.6,29.4,203.9,28.4,203.9,26.5z M210.7,25.8v-0.9c-0.7-0.2-1.6-0.4-2.7-0.4c-1.7,0-2.7,0.8-2.7,1.9v0c0,1.2,1.1,1.9,2.3,1.9
			C209.3,28.3,210.7,27.3,210.7,25.8z"/>
		<path class="st1" d="M213.9,20.5c0-0.4,0.3-0.7,0.7-0.7c0.4,0,0.7,0.3,0.7,0.7v1c0.6-1,1.6-1.8,3.2-1.8c2.2,0,3.6,1.5,3.6,3.7v5.2
			c0,0.4-0.3,0.7-0.7,0.7c-0.4,0-0.7-0.3-0.7-0.7v-4.8c0-1.7-0.9-2.8-2.6-2.8c-1.6,0-2.8,1.2-2.8,2.9v4.7c0,0.4-0.3,0.7-0.7,0.7
			c-0.4,0-0.7-0.3-0.7-0.7V20.5z"/>
		<path class="st1" d="M227.7,28.2c-0.1-0.1-0.3-0.3-0.3-0.5c0-0.3,0.3-0.6,0.6-0.6c0.1,0,0.3,0,0.3,0.1c1,0.6,1.9,1,3,1
			c1.1,0,1.9-0.6,1.9-1.5v0c0-0.9-1.1-1.3-2.3-1.6c-1.5-0.4-3.1-0.9-3.1-2.6v0c0-1.6,1.3-2.7,3.2-2.7c1,0,2.1,0.3,3,0.8
			c0.2,0.1,0.3,0.3,0.3,0.6c0,0.3-0.3,0.6-0.6,0.6c-0.1,0-0.2,0-0.3-0.1c-0.8-0.5-1.6-0.7-2.4-0.7c-1.1,0-1.8,0.6-1.8,1.4v0
			c0,0.9,1.2,1.2,2.4,1.6c1.4,0.4,3,1,3,2.7v0c0,1.8-1.5,2.8-3.3,2.8C230.1,29.4,228.7,29,227.7,28.2z"/>
		<path class="st1" d="M238.2,28.7l-2.8-7.9c0-0.1-0.1-0.3-0.1-0.4c0-0.3,0.3-0.7,0.7-0.7c0.4,0,0.6,0.2,0.7,0.6l2.3,7l2.4-7
			c0.1-0.3,0.3-0.6,0.7-0.6h0.1c0.4,0,0.6,0.2,0.7,0.6l2.3,7l2.4-7c0.1-0.3,0.3-0.5,0.7-0.5c0.4,0,0.7,0.3,0.7,0.6
			c0,0.1-0.1,0.3-0.1,0.4l-2.8,7.9c-0.1,0.4-0.4,0.6-0.8,0.6h-0.1c-0.4,0-0.6-0.2-0.8-0.6l-2.3-6.8l-2.3,6.8
			c-0.1,0.4-0.4,0.6-0.8,0.6h0C238.6,29.4,238.3,29.2,238.2,28.7z"/>
		<path class="st1" d="M250.3,17c0-0.5,0.4-0.7,0.8-0.7c0.5,0,0.8,0.3,0.8,0.7v0.2c0,0.4-0.4,0.7-0.8,0.7c-0.5,0-0.8-0.3-0.8-0.7V17
			z M250.4,20.5c0-0.4,0.3-0.7,0.7-0.7c0.4,0,0.7,0.3,0.7,0.7v8.1c0,0.4-0.3,0.7-0.7,0.7c-0.4,0-0.7-0.3-0.7-0.7V20.5z"/>
		<path class="st1" d="M254.4,26.8v-5.6h-0.8c-0.3,0-0.6-0.3-0.6-0.6c0-0.3,0.3-0.6,0.6-0.6h0.8v-2.2c0-0.4,0.3-0.7,0.7-0.7
			c0.4,0,0.7,0.3,0.7,0.7v2.2h2.4c0.3,0,0.6,0.3,0.6,0.6c0,0.3-0.3,0.6-0.6,0.6h-2.4v5.4c0,1.1,0.6,1.5,1.6,1.5
			c0.5,0,0.7-0.1,0.8-0.1c0.3,0,0.6,0.3,0.6,0.6c0,0.3-0.2,0.5-0.4,0.5c-0.4,0.2-0.8,0.3-1.4,0.3C255.6,29.4,254.4,28.7,254.4,26.8z
			"/>
		<path class="st1" d="M259.3,24.6L259.3,24.6c0-2.7,2.1-4.9,4.8-4.9c1.5,0,2.6,0.6,3.4,1.4c0.1,0.1,0.2,0.3,0.2,0.5
			c0,0.4-0.3,0.7-0.7,0.7c-0.2,0-0.3-0.1-0.5-0.2c-0.7-0.6-1.4-1.1-2.5-1.1c-1.9,0-3.3,1.6-3.3,3.6v0c0,2,1.5,3.6,3.4,3.6
			c1.1,0,1.9-0.5,2.6-1.1c0.1-0.1,0.2-0.2,0.4-0.2c0.3,0,0.6,0.3,0.6,0.6c0,0.2-0.1,0.3-0.2,0.4c-0.9,0.9-1.9,1.5-3.5,1.5
			C261.3,29.5,259.3,27.2,259.3,24.6z"/>
		<path class="st1" d="M269.1,16.7c0-0.4,0.3-0.7,0.7-0.7c0.4,0,0.7,0.3,0.7,0.7v4.8c0.6-1,1.6-1.8,3.2-1.8c2.2,0,3.6,1.5,3.6,3.7
			v5.2c0,0.4-0.3,0.7-0.7,0.7c-0.4,0-0.7-0.3-0.7-0.7v-4.8c0-1.7-0.9-2.8-2.6-2.8c-1.6,0-2.8,1.2-2.8,2.9v4.7c0,0.4-0.3,0.7-0.7,0.7
			c-0.4,0-0.7-0.3-0.7-0.7V16.7z"/>
	</g>
</g>
</svg>
