<?xml version="1.0" encoding="utf-8"?>
<!-- Generator: Adobe Illustrator 21.1.0, SVG Export Plug-In . SVG Version: 6.00 Build 0)  -->
<svg version="1.1" id="Layer_3" xmlns="http://www.w3.org/2000/svg" xmlns:xlink="http://www.w3.org/1999/xlink" x="0px" y="0px"
	 viewBox="0 0 728 90" style="enable-background:new 0 0 728 90;" xml:space="preserve">
<style type="text/css">
	.st0{fill:#133C7D;}
</style>
<g>
	<path class="st0" d="M180.8,48.4c-0.3-0.2-0.5-0.5-0.5-0.9c0-0.6,0.5-1.1,1.2-1.1c0.3,0,0.6,0.1,0.7,0.2c1.2,0.9,2.4,1.4,3.9,1.4
		c1.5,0,2.5-0.7,2.5-1.8v0c0-1-0.6-1.5-3.2-2.1c-3-0.7-4.7-1.6-4.7-4.2v0c0-2.4,2-4.1,4.8-4.1c1.8,0,3.2,0.5,4.4,1.3
		c0.3,0.2,0.5,0.5,0.5,1c0,0.6-0.5,1.1-1.2,1.1c-0.2,0-0.4-0.1-0.6-0.2c-1.1-0.7-2.1-1.1-3.2-1.1c-1.4,0-2.3,0.7-2.3,1.7v0
		c0,1.1,0.6,1.6,3.3,2.2c3,0.7,4.5,1.8,4.5,4.1v0c0,2.6-2.1,4.2-5,4.2C184.2,50.2,182.4,49.6,180.8,48.4z"/>
	<path class="st0" d="M197.6,50.2c-3.1,0-5.4-2.2-5.4-5.5v0c0-3,2.1-5.5,5.2-5.5c3.4,0,5,2.8,5,5.2c0,0.7-0.5,1.2-1.1,1.2h-6.6
		c0.3,1.7,1.5,2.7,3,2.7c1,0,1.8-0.4,2.5-0.9c0.2-0.1,0.3-0.2,0.6-0.2c0.5,0,1,0.4,1,1c0,0.3-0.1,0.6-0.3,0.7
		C200.4,49.7,199.2,50.2,197.6,50.2z M200,44c-0.2-1.6-1.1-2.8-2.7-2.8c-1.5,0-2.5,1.1-2.7,2.8H200z"/>
	<path class="st0" d="M204.3,47.1v-5.6h-0.4c-0.6,0-1-0.5-1-1s0.5-1,1-1h0.4v-1.8c0-0.7,0.5-1.2,1.2-1.2c0.7,0,1.2,0.5,1.2,1.2v1.8
		h1.9c0.6,0,1.1,0.5,1.1,1s-0.5,1-1.1,1h-1.9v5.2c0,0.9,0.5,1.3,1.3,1.3c0.3,0,0.5-0.1,0.6-0.1c0.5,0,1,0.4,1,1
		c0,0.4-0.3,0.8-0.6,0.9c-0.5,0.2-1,0.3-1.7,0.3C205.6,50.2,204.3,49.4,204.3,47.1z"/>
	<path class="st0" d="M215.3,47L215.3,47c0-2.3,1.8-3.4,4.4-3.4c1.2,0,2,0.2,2.8,0.4v-0.3c0-1.5-0.9-2.3-2.6-2.3
		c-0.9,0-1.7,0.2-2.3,0.4c-0.1,0-0.3,0.1-0.4,0.1c-0.6,0-1-0.4-1-1c0-0.4,0.3-0.8,0.7-1c1-0.4,2-0.6,3.4-0.6c1.6,0,2.8,0.4,3.5,1.2
		c0.8,0.8,1.1,1.9,1.1,3.3v5.2c0,0.7-0.5,1.2-1.2,1.2c-0.7,0-1.2-0.5-1.2-1v-0.4c-0.7,0.9-1.8,1.5-3.4,1.5
		C217.1,50.2,215.3,49.1,215.3,47z M222.6,46.2v-0.7c-0.6-0.2-1.4-0.4-2.4-0.4c-1.6,0-2.5,0.7-2.5,1.8v0c0,1,0.9,1.6,2.1,1.6
		C221.3,48.5,222.6,47.5,222.6,46.2z"/>
	<path class="st0" d="M231.8,40.5c0-0.7,0.5-1.2,1.2-1.2s1.2,0.5,1.2,1.2v0.5c0.7-1,1.7-1.8,3.3-1.8c2.4,0,3.8,1.6,3.8,4v5.6
		c0,0.7-0.5,1.2-1.2,1.2s-1.2-0.5-1.2-1.2V44c0-1.6-0.8-2.6-2.3-2.6c-1.4,0-2.4,1-2.4,2.6v4.9c0,0.7-0.5,1.2-1.2,1.2
		c-0.7,0-1.2-0.5-1.2-1.2V40.5z"/>
	<path class="st0" d="M248,50.2c-3.1,0-5.4-2.2-5.4-5.5v0c0-3,2.1-5.5,5.2-5.5c3.4,0,5,2.8,5,5.2c0,0.7-0.5,1.2-1.1,1.2H245
		c0.3,1.7,1.5,2.7,3,2.7c1,0,1.8-0.4,2.5-0.9c0.2-0.1,0.3-0.2,0.6-0.2c0.5,0,1,0.4,1,1c0,0.3-0.1,0.6-0.3,0.7
		C250.8,49.7,249.6,50.2,248,50.2z M250.4,44c-0.2-1.6-1.1-2.8-2.7-2.8c-1.5,0-2.5,1.1-2.7,2.8H250.4z"/>
	<path class="st0" d="M256.1,49.1l-2.8-8c-0.1-0.2-0.1-0.4-0.1-0.6c0-0.6,0.5-1.1,1.2-1.1c0.6,0,1,0.4,1.2,1l2,6.4l2.1-6.4
		c0.2-0.6,0.6-1,1.2-1h0.1c0.6,0,1.1,0.4,1.2,1l2.1,6.4l2.1-6.4c0.2-0.5,0.5-0.9,1.2-0.9c0.7,0,1.1,0.5,1.1,1.1
		c0,0.2-0.1,0.4-0.1,0.5l-2.9,8.1c-0.3,0.7-0.8,1.1-1.3,1.1h-0.1c-0.6,0-1.1-0.3-1.3-1l-2.1-6.3l-2.1,6.3c-0.2,0.7-0.7,1-1.3,1h-0.1
		C256.8,50.2,256.3,49.8,256.1,49.1z"/>
	<path class="st0" d="M274.9,40.5c0-0.7,0.5-1.2,1.2-1.2s1.2,0.5,1.2,1.2v0.7c0.8-1.1,1.9-2,3.6-2c2.5,0,4.9,2,4.9,5.5v0
		c0,3.5-2.4,5.5-4.9,5.5c-1.8,0-2.9-0.9-3.6-1.9v3.7c0,0.7-0.5,1.2-1.2,1.2c-0.7,0-1.2-0.5-1.2-1.2V40.5z M283.4,44.7L283.4,44.7
		c0-2.1-1.4-3.4-3-3.4c-1.6,0-3.1,1.4-3.1,3.4v0c0,2,1.4,3.4,3.1,3.4C282,48.1,283.4,46.8,283.4,44.7z"/>
	<path class="st0" d="M286.7,47L286.7,47c0-2.3,1.8-3.4,4.4-3.4c1.2,0,2,0.2,2.8,0.4v-0.3c0-1.5-0.9-2.3-2.6-2.3
		c-0.9,0-1.7,0.2-2.3,0.4c-0.1,0-0.3,0.1-0.4,0.1c-0.6,0-1-0.4-1-1c0-0.4,0.3-0.8,0.7-1c1-0.4,2-0.6,3.4-0.6c1.6,0,2.8,0.4,3.5,1.2
		c0.8,0.8,1.1,1.9,1.1,3.3v5.2c0,0.7-0.5,1.2-1.2,1.2c-0.7,0-1.2-0.5-1.2-1v-0.4c-0.7,0.9-1.8,1.5-3.4,1.5
		C288.4,50.2,286.7,49.1,286.7,47z M293.9,46.2v-0.7c-0.6-0.2-1.4-0.4-2.4-0.4c-1.6,0-2.5,0.7-2.5,1.8v0c0,1,0.9,1.6,2.1,1.6
		C292.7,48.5,293.9,47.5,293.9,46.2z"/>
	<path class="st0" d="M297.5,44.8L297.5,44.8c0-3,2.3-5.6,5.5-5.6c1.7,0,2.8,0.5,3.7,1.3c0.2,0.1,0.4,0.4,0.4,0.8
		c0,0.6-0.5,1.1-1.1,1.1c-0.3,0-0.6-0.1-0.7-0.2c-0.6-0.5-1.3-0.9-2.3-0.9c-1.8,0-3.1,1.5-3.1,3.4v0c0,1.9,1.3,3.4,3.2,3.4
		c1,0,1.7-0.4,2.4-0.9c0.1-0.1,0.4-0.3,0.7-0.3c0.6,0,1,0.5,1,1.1c0,0.3-0.1,0.6-0.3,0.8c-0.9,0.9-2.1,1.5-3.8,1.5
		C299.8,50.2,297.5,47.8,297.5,44.8z"/>
	<path class="st0" d="M313.1,50.2c-3.1,0-5.4-2.2-5.4-5.5v0c0-3,2.1-5.5,5.2-5.5c3.4,0,5,2.8,5,5.2c0,0.7-0.5,1.2-1.1,1.2h-6.6
		c0.3,1.7,1.5,2.7,3,2.7c1,0,1.8-0.4,2.5-0.9c0.2-0.1,0.3-0.2,0.6-0.2c0.5,0,1,0.4,1,1c0,0.3-0.1,0.6-0.3,0.7
		C315.9,49.7,314.7,50.2,313.1,50.2z M315.5,44c-0.2-1.6-1.1-2.8-2.7-2.8c-1.5,0-2.5,1.1-2.7,2.8H315.5z"/>
	<path class="st0" d="M324.8,41.5h-0.4c-0.6,0-1-0.4-1-1s0.5-1,1-1h0.4v-0.8c0-1.2,0.3-2,0.9-2.6c0.6-0.6,1.3-0.8,2.4-0.8
		c0.5,0,0.9,0,1.2,0.1c0.4,0.1,0.8,0.5,0.8,1c0,0.6-0.5,1-1,1c-0.1,0-0.3,0-0.5,0c-0.9,0-1.4,0.5-1.4,1.6v0.6h1.9c0.6,0,1,0.4,1,1
		s-0.5,1-1,1h-1.8v7.4c0,0.7-0.5,1.2-1.2,1.2c-0.7,0-1.2-0.5-1.2-1.2V41.5z"/>
	<path class="st0" d="M330,44.8L330,44.8c0-3.1,2.4-5.6,5.6-5.6s5.6,2.5,5.6,5.5v0c0,3-2.4,5.5-5.7,5.5
		C332.4,50.2,330,47.8,330,44.8z M338.9,44.8L338.9,44.8c0-1.9-1.3-3.4-3.2-3.4c-1.9,0-3.2,1.5-3.2,3.4v0c0,1.8,1.3,3.4,3.2,3.4
		C337.6,48.1,338.9,46.6,338.9,44.8z"/>
	<path class="st0" d="M342.7,40.5c0-0.7,0.5-1.2,1.2-1.2s1.2,0.5,1.2,1.2v1.1c0.6-1.3,1.6-2.3,2.7-2.3c0.8,0,1.2,0.5,1.2,1.2
		c0,0.6-0.4,1.1-1,1.2c-1.7,0.3-2.9,1.6-2.9,4.1v3.1c0,0.7-0.5,1.2-1.2,1.2c-0.7,0-1.2-0.5-1.2-1.2V40.5z"/>
	<path class="st0" d="M355.2,53c-0.4-0.1-0.8-0.4-0.8-1c0-0.6,0.5-1,1-1c0.2,0,0.3,0,0.4,0.1c0.3,0.1,0.5,0.1,0.8,0.1
		c0.7,0,1.1-0.3,1.5-1.1l0.1-0.2l-3.9-8.8c-0.1-0.2-0.1-0.4-0.1-0.6c0-0.7,0.5-1.2,1.2-1.2c0.6,0,1,0.4,1.2,0.9l2.8,7l2.6-7
		c0.2-0.5,0.5-0.9,1.2-0.9c0.6,0,1.2,0.5,1.2,1.1c0,0.2-0.1,0.5-0.1,0.6l-3.9,9.3c-0.9,2.2-1.9,3-3.6,3
		C356.2,53.3,355.7,53.2,355.2,53z"/>
	<path class="st0" d="M364.7,44.8L364.7,44.8c0-3.1,2.4-5.6,5.6-5.6c3.2,0,5.6,2.5,5.6,5.5v0c0,3-2.4,5.5-5.7,5.5
		C367.1,50.2,364.7,47.8,364.7,44.8z M373.6,44.8L373.6,44.8c0-1.9-1.3-3.4-3.2-3.4c-1.9,0-3.2,1.5-3.2,3.4v0c0,1.8,1.3,3.4,3.2,3.4
		C372.3,48.1,373.6,46.6,373.6,44.8z"/>
	<path class="st0" d="M386.8,48.9c0,0.7-0.5,1.2-1.2,1.2c-0.7,0-1.2-0.5-1.2-1.2v-0.5c-0.7,1-1.7,1.9-3.3,1.9
		c-2.4,0-3.8-1.6-3.8-4.1v-5.6c0-0.7,0.5-1.2,1.2-1.2c0.7,0,1.2,0.5,1.2,1.2v4.9c0,1.6,0.8,2.6,2.3,2.6c1.4,0,2.4-1,2.4-2.6v-4.9
		c0-0.7,0.5-1.2,1.2-1.2c0.7,0,1.2,0.5,1.2,1.2V48.9z"/>
	<path class="st0" d="M388.8,40.5c0-0.7,0.5-1.2,1.2-1.2c0.7,0,1.2,0.5,1.2,1.2v1.1c0.6-1.3,1.6-2.3,2.7-2.3c0.8,0,1.2,0.5,1.2,1.2
		c0,0.6-0.4,1.1-1,1.2c-1.7,0.3-2.9,1.6-2.9,4.1v3.1c0,0.7-0.5,1.2-1.2,1.2c-0.7,0-1.2-0.5-1.2-1.2V40.5z"/>
	<path class="st0" d="M395.7,48.9c-0.3-0.1-0.5-0.4-0.5-0.8c0-0.5,0.4-1,1-1c0.2,0,0.4,0.1,0.5,0.1c1,0.7,2.1,1,3,1
		c1,0,1.6-0.4,1.6-1.1v0c0-0.8-1.1-1.1-2.4-1.5c-1.6-0.4-3.3-1.1-3.3-3.1v0c0-2,1.7-3.2,3.8-3.2c1.1,0,2.3,0.3,3.3,0.9
		c0.3,0.2,0.6,0.5,0.6,0.9c0,0.6-0.4,1-1,1c-0.2,0-0.3,0-0.5-0.1c-0.9-0.4-1.7-0.7-2.5-0.7c-0.9,0-1.5,0.4-1.5,1v0
		c0,0.8,1.1,1.1,2.4,1.5c1.5,0.5,3.3,1.2,3.3,3.1v0c0,2.2-1.7,3.3-3.9,3.3C398.4,50.2,396.9,49.8,395.7,48.9z"/>
</g>
</svg>
