<?xml version="1.0" encoding="utf-8"?>
<!-- Generator: Adobe Illustrator 21.1.0, SVG Export Plug-In . SVG Version: 6.00 Build 0)  -->
<svg version="1.1" id="Layer_2" xmlns="http://www.w3.org/2000/svg" xmlns:xlink="http://www.w3.org/1999/xlink" x="0px" y="0px"
	 viewBox="0 0 728 90" style="enable-background:new 0 0 728 90;" xml:space="preserve">
<style type="text/css">
	.st0{fill:#133C7D;}
</style>
<g>
	<path class="st0" d="M180.5,38.2c0-0.7,0.5-1.2,1.2-1.2h5c1.6,0,2.9,0.4,3.7,1.2c0.6,0.6,0.9,1.4,0.9,2.3v0c0,1.7-1,2.6-2,3.1
		c1.6,0.6,2.8,1.5,2.8,3.4v0c0,2.5-2.1,3.8-5.2,3.8h-5.2c-0.7,0-1.2-0.5-1.2-1.2V38.2z M186.2,42.9c1.6,0,2.6-0.6,2.6-1.9v0
		c0-1.1-0.9-1.8-2.5-1.8h-3.5v3.7H186.2z M187,48.8c1.7,0,2.7-0.7,2.7-1.9v0c0-1.2-0.9-1.9-2.9-1.9h-3.9v3.8H187z"/>
	<path class="st0" d="M203,49.9c0,0.7-0.5,1.2-1.2,1.2c-0.7,0-1.2-0.5-1.2-1.2v-0.5c-0.7,1-1.7,1.9-3.3,1.9c-2.4,0-3.8-1.6-3.8-4.1
		v-5.6c0-0.7,0.5-1.2,1.2-1.2c0.7,0,1.2,0.5,1.2,1.2v4.9c0,1.6,0.8,2.6,2.3,2.6c1.4,0,2.4-1,2.4-2.6v-4.9c0-0.7,0.5-1.2,1.2-1.2
		c0.7,0,1.2,0.5,1.2,1.2V49.9z"/>
	<path class="st0" d="M204.6,49.9c-0.3-0.1-0.5-0.4-0.5-0.8c0-0.5,0.4-1,1-1c0.2,0,0.4,0.1,0.5,0.1c1,0.7,2.1,1,3,1
		c1,0,1.6-0.4,1.6-1.1v0c0-0.8-1.1-1.1-2.4-1.5c-1.6-0.4-3.3-1.1-3.3-3.1v0c0-2,1.7-3.2,3.8-3.2c1.1,0,2.3,0.3,3.3,0.9
		c0.3,0.2,0.6,0.5,0.6,0.9c0,0.6-0.4,1-1,1c-0.2,0-0.3,0-0.5-0.1c-0.9-0.4-1.7-0.7-2.5-0.7c-0.9,0-1.5,0.4-1.5,1v0
		c0,0.8,1.1,1.1,2.4,1.5c1.5,0.5,3.3,1.2,3.3,3.1v0c0,2.2-1.7,3.3-3.9,3.3C207.3,51.2,205.8,50.8,204.6,49.9z"/>
	<path class="st0" d="M213.9,37.6c0-0.7,0.6-1.2,1.4-1.2c0.8,0,1.4,0.5,1.4,1.2v0.1c0,0.7-0.6,1.2-1.4,1.2c-0.8,0-1.4-0.5-1.4-1.2
		V37.6z M214.1,41.5c0-0.7,0.5-1.2,1.2-1.2c0.7,0,1.2,0.5,1.2,1.2v8.4c0,0.7-0.5,1.2-1.2,1.2c-0.7,0-1.2-0.5-1.2-1.2V41.5z"/>
	<path class="st0" d="M218.7,41.5c0-0.7,0.5-1.2,1.2-1.2s1.2,0.5,1.2,1.2v0.5c0.7-1,1.7-1.8,3.3-1.8c2.4,0,3.8,1.6,3.8,4v5.6
		c0,0.7-0.5,1.2-1.2,1.2s-1.2-0.5-1.2-1.2V45c0-1.6-0.8-2.6-2.3-2.6c-1.4,0-2.4,1-2.4,2.6v4.9c0,0.7-0.5,1.2-1.2,1.2
		c-0.7,0-1.2-0.5-1.2-1.2V41.5z"/>
	<path class="st0" d="M234.9,51.2c-3.1,0-5.4-2.2-5.4-5.5v0c0-3,2.1-5.5,5.2-5.5c3.4,0,5,2.8,5,5.2c0,0.7-0.5,1.2-1.1,1.2h-6.6
		c0.3,1.7,1.5,2.7,3,2.7c1,0,1.8-0.4,2.5-0.9c0.2-0.1,0.3-0.2,0.6-0.2c0.5,0,1,0.4,1,1c0,0.3-0.1,0.6-0.3,0.7
		C237.7,50.7,236.5,51.2,234.9,51.2z M237.3,45c-0.2-1.6-1.1-2.8-2.7-2.8c-1.5,0-2.5,1.1-2.7,2.8H237.3z"/>
	<path class="st0" d="M240.7,49.9c-0.3-0.1-0.5-0.4-0.5-0.8c0-0.5,0.4-1,1-1c0.2,0,0.4,0.1,0.5,0.1c1,0.7,2.1,1,3,1
		c1,0,1.6-0.4,1.6-1.1v0c0-0.8-1.1-1.1-2.4-1.5c-1.6-0.4-3.3-1.1-3.3-3.1v0c0-2,1.7-3.2,3.8-3.2c1.1,0,2.3,0.3,3.3,0.9
		c0.3,0.2,0.6,0.5,0.6,0.9c0,0.6-0.4,1-1,1c-0.2,0-0.3,0-0.5-0.1c-0.9-0.4-1.7-0.7-2.5-0.7c-0.9,0-1.5,0.4-1.5,1v0
		c0,0.8,1.1,1.1,2.4,1.5c1.5,0.5,3.3,1.2,3.3,3.1v0c0,2.2-1.7,3.3-3.9,3.3C243.4,51.2,241.9,50.8,240.7,49.9z"/>
	<path class="st0" d="M249.5,49.9c-0.3-0.1-0.5-0.4-0.5-0.8c0-0.5,0.4-1,1-1c0.2,0,0.4,0.1,0.5,0.1c1,0.7,2.1,1,3,1
		c1,0,1.6-0.4,1.6-1.1v0c0-0.8-1.1-1.1-2.4-1.5c-1.6-0.4-3.3-1.1-3.3-3.1v0c0-2,1.7-3.2,3.8-3.2c1.1,0,2.3,0.3,3.3,0.9
		c0.3,0.2,0.6,0.5,0.6,0.9c0,0.6-0.4,1-1,1c-0.2,0-0.3,0-0.5-0.1c-0.9-0.4-1.7-0.7-2.5-0.7c-0.9,0-1.5,0.4-1.5,1v0
		c0,0.8,1.1,1.1,2.4,1.5c1.5,0.5,3.3,1.2,3.3,3.1v0c0,2.2-1.7,3.3-3.9,3.3C252.2,51.2,250.7,50.8,249.5,49.9z"/>
	<path class="st0" d="M263.2,48L263.2,48c0-2.3,1.8-3.4,4.4-3.4c1.2,0,2,0.2,2.8,0.4v-0.3c0-1.5-0.9-2.3-2.6-2.3
		c-0.9,0-1.7,0.2-2.3,0.4c-0.1,0-0.3,0.1-0.4,0.1c-0.6,0-1-0.4-1-1c0-0.4,0.3-0.8,0.7-1c1-0.4,2-0.6,3.4-0.6c1.6,0,2.8,0.4,3.5,1.2
		c0.8,0.8,1.1,1.9,1.1,3.3v5.2c0,0.7-0.5,1.2-1.2,1.2c-0.7,0-1.2-0.5-1.2-1v-0.4c-0.7,0.9-1.8,1.5-3.4,1.5
		C265,51.2,263.2,50.1,263.2,48z M270.4,47.2v-0.7c-0.6-0.2-1.4-0.4-2.4-0.4c-1.6,0-2.5,0.7-2.5,1.8v0c0,1,0.9,1.6,2.1,1.6
		C269.2,49.5,270.4,48.5,270.4,47.2z"/>
	<path class="st0" d="M274.2,49.9c-0.3-0.1-0.5-0.4-0.5-0.8c0-0.5,0.4-1,1-1c0.2,0,0.4,0.1,0.5,0.1c1,0.7,2.1,1,3,1
		c1,0,1.6-0.4,1.6-1.1v0c0-0.8-1.1-1.1-2.4-1.5c-1.6-0.4-3.3-1.1-3.3-3.1v0c0-2,1.7-3.2,3.8-3.2c1.1,0,2.3,0.3,3.3,0.9
		c0.3,0.2,0.6,0.5,0.6,0.9c0,0.6-0.4,1-1,1c-0.2,0-0.3,0-0.5-0.1c-0.9-0.4-1.7-0.7-2.5-0.7c-0.9,0-1.5,0.4-1.5,1v0
		c0,0.8,1.1,1.1,2.4,1.5c1.5,0.5,3.3,1.2,3.3,3.1v0c0,2.2-1.7,3.3-3.9,3.3C276.9,51.2,275.4,50.8,274.2,49.9z"/>
	<path class="st0" d="M298,49.9c0,0.7-0.5,1.2-1.2,1.2c-0.7,0-1.2-0.5-1.2-1.2v-0.5c-0.7,1-1.7,1.9-3.3,1.9c-2.4,0-3.8-1.6-3.8-4.1
		v-5.6c0-0.7,0.5-1.2,1.2-1.2c0.7,0,1.2,0.5,1.2,1.2v4.9c0,1.6,0.8,2.6,2.3,2.6c1.4,0,2.4-1,2.4-2.6v-4.9c0-0.7,0.5-1.2,1.2-1.2
		c0.7,0,1.2,0.5,1.2,1.2V49.9z"/>
	<path class="st0" d="M299.6,49.9c-0.3-0.1-0.5-0.4-0.5-0.8c0-0.5,0.4-1,1-1c0.2,0,0.4,0.1,0.5,0.1c1,0.7,2.1,1,3,1
		c1,0,1.6-0.4,1.6-1.1v0c0-0.8-1.1-1.1-2.4-1.5c-1.6-0.4-3.3-1.1-3.3-3.1v0c0-2,1.7-3.2,3.8-3.2c1.1,0,2.3,0.3,3.3,0.9
		c0.3,0.2,0.6,0.5,0.6,0.9c0,0.6-0.4,1-1,1c-0.2,0-0.3,0-0.5-0.1c-0.9-0.4-1.7-0.7-2.5-0.7c-0.9,0-1.5,0.4-1.5,1v0
		c0,0.8,1.1,1.1,2.4,1.5c1.5,0.5,3.3,1.2,3.3,3.1v0c0,2.2-1.7,3.3-3.9,3.3C302.3,51.2,300.8,50.8,299.6,49.9z"/>
	<path class="st0" d="M318.4,49.9c0,0.7-0.5,1.2-1.2,1.2c-0.7,0-1.2-0.5-1.2-1.2v-0.5c-0.7,1-1.7,1.9-3.3,1.9
		c-2.4,0-3.8-1.6-3.8-4.1v-5.6c0-0.7,0.5-1.2,1.2-1.2c0.7,0,1.2,0.5,1.2,1.2v4.9c0,1.6,0.8,2.6,2.3,2.6c1.4,0,2.4-1,2.4-2.6v-4.9
		c0-0.7,0.5-1.2,1.2-1.2c0.7,0,1.2,0.5,1.2,1.2V49.9z"/>
	<path class="st0" d="M319.7,48L319.7,48c0-2.3,1.8-3.4,4.4-3.4c1.2,0,2,0.2,2.8,0.4v-0.3c0-1.5-0.9-2.3-2.6-2.3
		c-0.9,0-1.7,0.2-2.3,0.4c-0.1,0-0.3,0.1-0.4,0.1c-0.6,0-1-0.4-1-1c0-0.4,0.3-0.8,0.7-1c1-0.4,2-0.6,3.4-0.6c1.6,0,2.8,0.4,3.5,1.2
		c0.8,0.8,1.1,1.9,1.1,3.3v5.2c0,0.7-0.5,1.2-1.2,1.2c-0.7,0-1.2-0.5-1.2-1v-0.4c-0.7,0.9-1.8,1.5-3.4,1.5
		C321.4,51.2,319.7,50.1,319.7,48z M326.9,47.2v-0.7c-0.6-0.2-1.4-0.4-2.4-0.4c-1.6,0-2.5,0.7-2.5,1.8v0c0,1,0.9,1.6,2.1,1.6
		C325.7,49.5,326.9,48.5,326.9,47.2z"/>
	<path class="st0" d="M331.2,37.5c0-0.7,0.5-1.2,1.2-1.2c0.7,0,1.2,0.5,1.2,1.2v12.4c0,0.7-0.5,1.2-1.2,1.2c-0.7,0-1.2-0.5-1.2-1.2
		V37.5z"/>
	<path class="st0" d="M340.7,37.6c0-0.7,0.6-1.2,1.4-1.2s1.4,0.5,1.4,1.2v0.1c0,0.7-0.6,1.2-1.4,1.2s-1.4-0.5-1.4-1.2V37.6z
		 M340.9,41.5c0-0.7,0.5-1.2,1.2-1.2c0.7,0,1.2,0.5,1.2,1.2v8.4c0,0.7-0.5,1.2-1.2,1.2c-0.7,0-1.2-0.5-1.2-1.2V41.5z"/>
	<path class="st0" d="M345.1,49.9c-0.3-0.1-0.5-0.4-0.5-0.8c0-0.5,0.4-1,1-1c0.2,0,0.4,0.1,0.5,0.1c1,0.7,2.1,1,3,1
		c1,0,1.6-0.4,1.6-1.1v0c0-0.8-1.1-1.1-2.4-1.5c-1.6-0.4-3.3-1.1-3.3-3.1v0c0-2,1.7-3.2,3.8-3.2c1.1,0,2.3,0.3,3.3,0.9
		c0.3,0.2,0.6,0.5,0.6,0.9c0,0.6-0.4,1-1,1c-0.2,0-0.3,0-0.5-0.1c-0.9-0.4-1.7-0.7-2.5-0.7c-0.9,0-1.5,0.4-1.5,1v0
		c0,0.8,1.1,1.1,2.4,1.5c1.5,0.5,3.3,1.2,3.3,3.1v0c0,2.2-1.7,3.3-3.9,3.3C347.7,51.2,346.3,50.8,345.1,49.9z"/>
	<path class="st0" d="M358.9,45.8L358.9,45.8c0-3,2.3-5.6,5.5-5.6c1.7,0,2.8,0.5,3.7,1.3c0.2,0.1,0.4,0.4,0.4,0.8
		c0,0.6-0.5,1.1-1.1,1.1c-0.3,0-0.6-0.1-0.7-0.2c-0.6-0.5-1.3-0.9-2.3-0.9c-1.8,0-3.1,1.5-3.1,3.4v0c0,1.9,1.3,3.4,3.2,3.4
		c1,0,1.7-0.4,2.4-0.9c0.1-0.1,0.4-0.3,0.7-0.3c0.6,0,1,0.5,1,1.1c0,0.3-0.1,0.6-0.3,0.8c-0.9,0.9-2.1,1.5-3.8,1.5
		C361.2,51.2,358.9,48.8,358.9,45.8z"/>
	<path class="st0" d="M369.8,37.5c0-0.7,0.5-1.2,1.2-1.2c0.7,0,1.2,0.5,1.2,1.2v4.6c0.7-1,1.7-1.8,3.3-1.8c2.4,0,3.8,1.6,3.8,4v5.6
		c0,0.7-0.5,1.2-1.2,1.2c-0.7,0-1.2-0.5-1.2-1.2V45c0-1.6-0.8-2.6-2.3-2.6c-1.4,0-2.4,1-2.4,2.6v4.9c0,0.7-0.5,1.2-1.2,1.2
		c-0.7,0-1.2-0.5-1.2-1.2V37.5z"/>
	<path class="st0" d="M380.5,48L380.5,48c0-2.3,1.8-3.4,4.4-3.4c1.2,0,2,0.2,2.8,0.4v-0.3c0-1.5-0.9-2.3-2.6-2.3
		c-0.9,0-1.7,0.2-2.3,0.4c-0.1,0-0.3,0.1-0.4,0.1c-0.6,0-1-0.4-1-1c0-0.4,0.3-0.8,0.7-1c1-0.4,2-0.6,3.4-0.6c1.6,0,2.8,0.4,3.5,1.2
		c0.8,0.8,1.1,1.9,1.1,3.3v5.2c0,0.7-0.5,1.2-1.2,1.2c-0.7,0-1.2-0.5-1.2-1v-0.4c-0.7,0.9-1.8,1.5-3.4,1.5
		C382.3,51.2,380.5,50.1,380.5,48z M387.8,47.2v-0.7c-0.6-0.2-1.4-0.4-2.4-0.4c-1.6,0-2.5,0.7-2.5,1.8v0c0,1,0.9,1.6,2.1,1.6
		C386.5,49.5,387.8,48.5,387.8,47.2z"/>
	<path class="st0" d="M391.9,41.5c0-0.7,0.5-1.2,1.2-1.2c0.7,0,1.2,0.5,1.2,1.2v0.5c0.7-1,1.7-1.8,3.3-1.8c2.4,0,3.8,1.6,3.8,4v5.6
		c0,0.7-0.5,1.2-1.2,1.2c-0.7,0-1.2-0.5-1.2-1.2V45c0-1.6-0.8-2.6-2.3-2.6c-1.4,0-2.4,1-2.4,2.6v4.9c0,0.7-0.5,1.2-1.2,1.2
		c-0.7,0-1.2-0.5-1.2-1.2V41.5z"/>
	<path class="st0" d="M403.9,53.3c-0.4-0.2-0.7-0.5-0.7-1c0-0.5,0.5-1,1-1c0.2,0,0.3,0,0.4,0.1c1,0.5,2,0.8,3.2,0.8
		c2.2,0,3.3-1.1,3.3-3.2v-0.8c-0.9,1.1-2,1.9-3.7,1.9c-2.5,0-4.8-1.8-4.8-4.9v0c0-3.1,2.3-5,4.8-5c1.8,0,2.9,0.8,3.7,1.8v-0.5
		c0-0.7,0.5-1.2,1.2-1.2c0.7,0,1.2,0.5,1.2,1.2v7.3c0,1.8-0.5,3.1-1.3,4c-1,1-2.4,1.4-4.3,1.4C406.5,54.2,405.2,53.9,403.9,53.3z
		 M411.3,45.2L411.3,45.2c0-1.8-1.4-2.9-3.1-2.9c-1.7,0-3,1.2-3,2.9v0c0,1.7,1.3,2.9,3,2.9C409.9,48.1,411.3,46.9,411.3,45.2z"/>
	<path class="st0" d="M415.7,37.6c0-0.7,0.6-1.2,1.4-1.2s1.4,0.5,1.4,1.2v0.1c0,0.7-0.6,1.2-1.4,1.2s-1.4-0.5-1.4-1.2V37.6z
		 M415.9,41.5c0-0.7,0.5-1.2,1.2-1.2c0.7,0,1.2,0.5,1.2,1.2v8.4c0,0.7-0.5,1.2-1.2,1.2c-0.7,0-1.2-0.5-1.2-1.2V41.5z"/>
	<path class="st0" d="M420.4,41.5c0-0.7,0.5-1.2,1.2-1.2c0.7,0,1.2,0.5,1.2,1.2v0.5c0.7-1,1.7-1.8,3.3-1.8c2.4,0,3.8,1.6,3.8,4v5.6
		c0,0.7-0.5,1.2-1.2,1.2c-0.7,0-1.2-0.5-1.2-1.2V45c0-1.6-0.8-2.6-2.3-2.6c-1.4,0-2.4,1-2.4,2.6v4.9c0,0.7-0.5,1.2-1.2,1.2
		c-0.7,0-1.2-0.5-1.2-1.2V41.5z"/>
	<path class="st0" d="M432.4,53.3c-0.4-0.2-0.7-0.5-0.7-1c0-0.5,0.5-1,1-1c0.2,0,0.3,0,0.4,0.1c1,0.5,2,0.8,3.2,0.8
		c2.2,0,3.3-1.1,3.3-3.2v-0.8c-0.9,1.1-2,1.9-3.7,1.9c-2.5,0-4.8-1.8-4.8-4.9v0c0-3.1,2.3-5,4.8-5c1.8,0,2.9,0.8,3.7,1.8v-0.5
		c0-0.7,0.5-1.2,1.2-1.2c0.7,0,1.2,0.5,1.2,1.2v7.3c0,1.8-0.5,3.1-1.3,4c-1,1-2.4,1.4-4.3,1.4C435,54.2,433.7,53.9,432.4,53.3z
		 M439.8,45.2L439.8,45.2c0-1.8-1.4-2.9-3.1-2.9c-1.7,0-3,1.2-3,2.9v0c0,1.7,1.3,2.9,3,2.9C438.4,48.1,439.8,46.9,439.8,45.2z"/>
</g>
</svg>
