<?xml version="1.0" encoding="utf-8"?>
<!-- Generator: Adobe Illustrator 21.1.0, SVG Export Plug-In . SVG Version: 6.00 Build 0)  -->
<svg version="1.1" id="Layer_1" xmlns="http://www.w3.org/2000/svg" xmlns:xlink="http://www.w3.org/1999/xlink" x="0px" y="0px"
	 viewBox="0 0 320 50" style="enable-background:new 0 0 320 50;" xml:space="preserve">
<style type="text/css">
	.st0{fill:#133C7D;}
</style>
<g>
	<path class="st0" d="M56,18.6v-5h-0.4c-0.5,0-0.9-0.4-0.9-0.9s0.4-0.9,0.9-0.9H56v-1.6C56,9.5,56.5,9,57.1,9c0.6,0,1.1,0.5,1.1,1.1
		v1.6h1.7c0.5,0,1,0.4,1,0.9s-0.4,0.9-1,0.9h-1.7v4.7c0,0.8,0.4,1.2,1.2,1.2c0.3,0,0.5-0.1,0.5-0.1c0.5,0,0.9,0.4,0.9,0.9
		c0,0.4-0.3,0.7-0.6,0.8c-0.5,0.2-0.9,0.3-1.5,0.3C57.2,21.4,56,20.7,56,18.6z"/>
	<path class="st0" d="M61.3,16.6L61.3,16.6c0-2.8,2.2-5,5.1-5s5.1,2.2,5.1,4.9v0c0,2.7-2.2,5-5.1,5C63.4,21.5,61.3,19.3,61.3,16.6z
		 M69.2,16.6L69.2,16.6c0-1.7-1.2-3.1-2.9-3.1c-1.7,0-2.9,1.4-2.9,3v0c0,1.7,1.2,3,2.9,3C68.1,19.6,69.2,18.2,69.2,16.6z"/>
	<path class="st0" d="M76.6,18.5L76.6,18.5c0-2.1,1.6-3.1,3.9-3.1c1.1,0,1.8,0.2,2.6,0.4v-0.2c0-1.3-0.8-2.1-2.4-2.1
		c-0.8,0-1.5,0.1-2.1,0.4c-0.1,0-0.2,0.1-0.3,0.1c-0.5,0-0.9-0.4-0.9-0.9c0-0.4,0.3-0.7,0.6-0.9c0.9-0.3,1.8-0.6,3.1-0.6
		c1.4,0,2.5,0.4,3.2,1.1c0.7,0.7,1,1.7,1,2.9v4.7c0,0.6-0.5,1-1.1,1c-0.6,0-1.1-0.4-1.1-0.9v-0.4c-0.6,0.8-1.6,1.4-3.1,1.4
		C78.2,21.5,76.6,20.4,76.6,18.5z M83.1,17.8v-0.6c-0.6-0.2-1.3-0.4-2.2-0.4c-1.4,0-2.2,0.6-2.2,1.6v0c0,0.9,0.8,1.4,1.9,1.4
		C82,19.9,83.1,19,83.1,17.8z"/>
	<path class="st0" d="M86.9,12.7c0-0.6,0.5-1.1,1.1-1.1s1.1,0.5,1.1,1.1v0.5c0.6-0.9,1.5-1.7,3-1.7c2.1,0,3.4,1.4,3.4,3.6v5.1
		c0,0.6-0.5,1.1-1.1,1.1s-1.1-0.5-1.1-1.1v-4.4c0-1.5-0.7-2.3-2-2.3c-1.3,0-2.1,0.9-2.1,2.4v4.4c0,0.6-0.5,1.1-1.1,1.1
		c-0.6,0-1.1-0.5-1.1-1.1V12.7z"/>
	<path class="st0" d="M101.5,12.9c0-0.8,0.6-1.4,1.4-1.4s1.4,0.6,1.4,1.4V13c0.6-0.8,1.4-1.5,2.8-1.5c2.1,0,3.3,1.4,3.3,3.6v5
		c0,0.8-0.6,1.4-1.4,1.4c-0.8,0-1.4-0.6-1.4-1.4v-4.1c0-1.3-0.6-2-1.7-2c-1,0-1.7,0.7-1.7,2V20c0,0.8-0.6,1.4-1.4,1.4
		s-1.4-0.6-1.4-1.4V12.9z"/>
	<path class="st0" d="M111.8,9.4c0-0.8,0.6-1.4,1.4-1.4s1.4,0.6,1.4,1.4V13c0.7-0.9,1.6-1.6,3-1.6c2.3,0,4.4,1.8,4.4,5v0
		c0,3.2-2.1,5-4.4,5c-1.5,0-2.4-0.7-3-1.4v0c0,0.7-0.6,1.4-1.4,1.4s-1.4-0.6-1.4-1.4V9.4z M119.2,16.4L119.2,16.4
		c0-1.6-1.1-2.7-2.4-2.7c-1.3,0-2.3,1.1-2.3,2.7v0c0,1.6,1.1,2.7,2.3,2.7C118.1,19.1,119.2,18.1,119.2,16.4z"/>
	<path class="st0" d="M123.1,12.9c0-0.8,0.6-1.4,1.4-1.4s1.4,0.6,1.4,1.4V13c0.6-0.8,1.4-1.5,2.8-1.5c2.1,0,3.3,1.4,3.3,3.6v5
		c0,0.8-0.6,1.4-1.4,1.4c-0.8,0-1.4-0.6-1.4-1.4v-4.1c0-1.3-0.6-2-1.7-2c-1,0-1.7,0.7-1.7,2V20c0,0.8-0.6,1.4-1.4,1.4
		s-1.4-0.6-1.4-1.4V12.9z"/>
	<path class="st0" d="M134.3,9.6H133c-0.3,0-0.5-0.2-0.5-0.5c0-0.3,0.2-0.5,0.5-0.5h3.7c0.3,0,0.5,0.2,0.5,0.5
		c0,0.3-0.2,0.5-0.5,0.5h-1.3v4.1c0,0.3-0.2,0.5-0.5,0.5c-0.3,0-0.5-0.2-0.5-0.5V9.6z M138.3,9.1c0-0.3,0.2-0.5,0.5-0.5h0.1
		c0.2,0,0.4,0.1,0.5,0.3l1.7,2.7l1.7-2.7c0.1-0.2,0.3-0.3,0.5-0.3h0.1c0.3,0,0.5,0.2,0.5,0.5v4.7c0,0.3-0.2,0.5-0.5,0.5
		c-0.3,0-0.5-0.2-0.5-0.5v-3.2l-1.3,2c-0.1,0.2-0.2,0.3-0.5,0.3c-0.2,0-0.3-0.1-0.5-0.3l-1.3-2v3.2c0,0.3-0.2,0.5-0.5,0.5
		c-0.3,0-0.5-0.2-0.5-0.5V9.1z"/>
	<path class="st0" d="M149.5,12.7c0-0.6,0.5-1.1,1.1-1.1s1.1,0.5,1.1,1.1v0.6c0.7-1,1.7-1.8,3.2-1.8c2.2,0,4.4,1.8,4.4,4.9v0
		c0,3.2-2.2,4.9-4.4,4.9c-1.6,0-2.6-0.8-3.2-1.7v3.4c0,0.6-0.5,1.1-1.1,1.1c-0.6,0-1.1-0.5-1.1-1.1V12.7z M157.2,16.5L157.2,16.5
		c0-1.9-1.2-3.1-2.7-3.1c-1.5,0-2.8,1.2-2.8,3v0c0,1.8,1.3,3,2.8,3C155.9,19.6,157.2,18.4,157.2,16.5z"/>
	<path class="st0" d="M160.2,16.6L160.2,16.6c0-2.8,2.2-5,5.1-5s5.1,2.2,5.1,4.9v0c0,2.7-2.2,5-5.1,5
		C162.3,21.5,160.2,19.3,160.2,16.6z M168.2,16.6L168.2,16.6c0-1.7-1.2-3.1-2.9-3.1c-1.7,0-2.9,1.4-2.9,3v0c0,1.7,1.2,3,2.9,3
		C167,19.6,168.2,18.2,168.2,16.6z"/>
	<path class="st0" d="M173.3,20.4l-2.6-7.2c-0.1-0.1-0.1-0.4-0.1-0.6c0-0.5,0.4-1,1.1-1c0.5,0,0.9,0.4,1.1,0.9l1.8,5.8l1.9-5.8
		c0.2-0.5,0.6-0.9,1.1-0.9h0.1c0.6,0,1,0.4,1.1,0.9l1.9,5.8l1.9-5.8c0.1-0.5,0.5-0.8,1.1-0.8c0.6,0,1,0.5,1,1c0,0.2-0.1,0.4-0.1,0.5
		l-2.6,7.3c-0.2,0.7-0.7,1-1.2,1h-0.1c-0.5,0-1-0.3-1.2-0.9l-1.9-5.7l-1.9,5.7c-0.2,0.6-0.6,0.9-1.2,0.9h-0.1
		C174,21.4,173.5,21.1,173.3,20.4z"/>
	<path class="st0" d="M189.8,21.5c-2.8,0-4.9-2-4.9-4.9v0c0-2.7,1.9-5,4.6-5c3,0,4.5,2.5,4.5,4.7c0,0.6-0.5,1-1,1h-6
		c0.2,1.5,1.3,2.4,2.7,2.4c0.9,0,1.6-0.3,2.3-0.8c0.2-0.1,0.3-0.2,0.6-0.2c0.5,0,0.9,0.4,0.9,0.9c0,0.3-0.1,0.5-0.3,0.7
		C192.4,21,191.3,21.5,189.8,21.5z M192,15.8c-0.1-1.4-1-2.5-2.4-2.5c-1.3,0-2.3,1-2.5,2.5H192z"/>
	<path class="st0" d="M195.5,12.7c0-0.6,0.5-1.1,1.1-1.1s1.1,0.5,1.1,1.1v1c0.5-1.2,1.4-2.1,2.4-2.1c0.7,0,1.1,0.5,1.1,1.1
		c0,0.6-0.4,1-0.9,1c-1.5,0.3-2.6,1.5-2.6,3.7v2.8c0,0.6-0.5,1.1-1.1,1.1c-0.6,0-1.1-0.5-1.1-1.1V12.7z"/>
	<path class="st0" d="M206,21.5c-2.8,0-4.9-2-4.9-4.9v0c0-2.7,1.9-5,4.6-5c3,0,4.5,2.5,4.5,4.7c0,0.6-0.5,1-1,1h-6
		c0.2,1.5,1.3,2.4,2.7,2.4c0.9,0,1.6-0.3,2.3-0.8c0.2-0.1,0.3-0.2,0.6-0.2c0.5,0,0.9,0.4,0.9,0.9c0,0.3-0.1,0.5-0.3,0.7
		C208.6,21,207.5,21.5,206,21.5z M208.2,15.8c-0.1-1.4-1-2.5-2.4-2.5c-1.3,0-2.3,1-2.5,2.5H208.2z"/>
	<path class="st0" d="M221,20.3c0,0.6-0.5,1.1-1.1,1.1c-0.6,0-1.1-0.5-1.1-1.1v-0.6c-0.7,1-1.7,1.8-3.2,1.8c-2.2,0-4.4-1.8-4.4-4.9
		v0c0-3.2,2.1-4.9,4.4-4.9c1.6,0,2.6,0.8,3.2,1.7V9.1c0-0.6,0.5-1.1,1.1-1.1c0.6,0,1.1,0.5,1.1,1.1V20.3z M213.4,16.5L213.4,16.5
		c0,1.9,1.3,3.1,2.7,3.1c1.5,0,2.8-1.2,2.8-3v0c0-1.8-1.3-3-2.8-3C214.6,13.4,213.4,14.6,213.4,16.5z"/>
	<path class="st0" d="M227.3,12.7c0-0.6,0.5-1.1,1.1-1.1s1.1,0.5,1.1,1.1v0.6c0.7-1,1.7-1.8,3.2-1.8c2.2,0,4.4,1.8,4.4,4.9v0
		c0,3.2-2.2,4.9-4.4,4.9c-1.6,0-2.6-0.8-3.2-1.7v3.4c0,0.6-0.5,1.1-1.1,1.1c-0.6,0-1.1-0.5-1.1-1.1V12.7z M234.9,16.5L234.9,16.5
		c0-1.9-1.2-3.1-2.7-3.1s-2.8,1.2-2.8,3v0c0,1.8,1.3,3,2.8,3C233.7,19.6,234.9,18.4,234.9,16.5z"/>
	<path class="st0" d="M238.6,9.1c0-0.6,0.5-1.1,1.1-1.1s1.1,0.5,1.1,1.1v11.2c0,0.6-0.5,1.1-1.1,1.1c-0.6,0-1.1-0.5-1.1-1.1V9.1z"/>
	<path class="st0" d="M242.1,18.5L242.1,18.5c0-2.1,1.6-3.1,3.9-3.1c1.1,0,1.8,0.2,2.6,0.4v-0.2c0-1.3-0.8-2.1-2.4-2.1
		c-0.8,0-1.5,0.1-2.1,0.4c-0.1,0-0.2,0.1-0.3,0.1c-0.5,0-0.9-0.4-0.9-0.9c0-0.4,0.3-0.7,0.6-0.9c0.9-0.3,1.8-0.6,3.1-0.6
		c1.4,0,2.5,0.4,3.2,1.1c0.7,0.7,1,1.7,1,2.9v4.7c0,0.6-0.5,1-1.1,1c-0.6,0-1.1-0.4-1.1-0.9v-0.4c-0.6,0.8-1.6,1.4-3.1,1.4
		C243.7,21.5,242.1,20.4,242.1,18.5z M248.6,17.8v-0.6c-0.6-0.2-1.3-0.4-2.2-0.4c-1.4,0-2.2,0.6-2.2,1.6v0c0,0.9,0.8,1.4,1.9,1.4
		C247.5,19.9,248.6,19,248.6,17.8z"/>
	<path class="st0" d="M252.4,12.7c0-0.6,0.5-1.1,1.1-1.1s1.1,0.5,1.1,1.1v0.5c0.6-0.9,1.5-1.7,3-1.7c2.1,0,3.4,1.4,3.4,3.6v5.1
		c0,0.6-0.5,1.1-1.1,1.1s-1.1-0.5-1.1-1.1v-4.4c0-1.5-0.7-2.3-2-2.3c-1.3,0-2.1,0.9-2.1,2.4v4.4c0,0.6-0.5,1.1-1.1,1.1
		c-0.6,0-1.1-0.5-1.1-1.1V12.7z"/>
	<path class="st0" d="M93.8,33.6h-0.4c-0.5,0-0.9-0.4-0.9-0.9c0-0.5,0.4-0.9,0.9-0.9h0.4v-0.7c0-1,0.3-1.8,0.8-2.3
		c0.5-0.5,1.2-0.8,2.1-0.8c0.4,0,0.8,0,1.1,0.1c0.4,0.1,0.8,0.4,0.8,0.9c0,0.5-0.4,0.9-0.9,0.9c-0.1,0-0.3,0-0.4,0
		c-0.8,0-1.3,0.5-1.3,1.4v0.5h1.7c0.5,0,0.9,0.4,0.9,0.9c0,0.5-0.4,0.9-0.9,0.9h-1.7v6.6c0,0.6-0.5,1.1-1.1,1.1
		c-0.6,0-1.1-0.5-1.1-1.1V33.6z"/>
	<path class="st0" d="M99.1,32.7c0-0.6,0.5-1.1,1.1-1.1s1.1,0.5,1.1,1.1v1c0.5-1.2,1.4-2.1,2.4-2.1c0.7,0,1.1,0.5,1.1,1.1
		c0,0.6-0.4,1-0.9,1c-1.5,0.3-2.6,1.5-2.6,3.7v2.8c0,0.6-0.5,1.1-1.1,1.1c-0.6,0-1.1-0.5-1.1-1.1V32.7z"/>
	<path class="st0" d="M104.8,36.6L104.8,36.6c0-2.8,2.2-5,5.1-5s5.1,2.2,5.1,4.9v0c0,2.7-2.2,5-5.1,5
		C107,41.5,104.8,39.3,104.8,36.6z M112.8,36.6L112.8,36.6c0-1.7-1.2-3.1-2.9-3.1c-1.7,0-2.9,1.4-2.9,3v0c0,1.7,1.2,3,2.9,3
		C111.7,39.6,112.8,38.2,112.8,36.6z"/>
	<path class="st0" d="M116.3,32.7c0-0.6,0.5-1.1,1.1-1.1s1.1,0.5,1.1,1.1v0.5c0.6-0.8,1.4-1.6,2.9-1.6c1.4,0,2.3,0.7,2.8,1.7
		c0.8-1,1.8-1.7,3.2-1.7c2.1,0,3.3,1.3,3.3,3.6v5.1c0,0.6-0.5,1.1-1.1,1.1c-0.6,0-1.1-0.5-1.1-1.1v-4.4c0-1.5-0.7-2.3-1.9-2.3
		c-1.2,0-2,0.8-2,2.4v4.4c0,0.6-0.5,1.1-1.1,1.1c-0.6,0-1.1-0.5-1.1-1.1v-4.4c0-1.5-0.7-2.3-1.9-2.3c-1.2,0-2,0.9-2,2.4v4.4
		c0,0.6-0.5,1.1-1.1,1.1c-0.6,0-1.1-0.5-1.1-1.1V32.7z"/>
	<path class="st0" d="M136.3,38.5L136.3,38.5c0-2.1,1.6-3.1,3.9-3.1c1.1,0,1.8,0.2,2.6,0.4v-0.2c0-1.4-0.8-2.1-2.4-2.1
		c-0.8,0-1.5,0.1-2.1,0.4c-0.1,0-0.2,0.1-0.3,0.1c-0.5,0-0.9-0.4-0.9-0.9c0-0.4,0.3-0.7,0.6-0.9c0.9-0.3,1.8-0.6,3.1-0.6
		c1.4,0,2.5,0.4,3.2,1.1c0.7,0.7,1,1.7,1,2.9v4.7c0,0.6-0.5,1-1.1,1c-0.6,0-1.1-0.4-1.1-0.9v-0.4c-0.6,0.8-1.6,1.4-3.1,1.4
		C137.9,41.5,136.3,40.4,136.3,38.5z M142.9,37.8v-0.6c-0.6-0.2-1.3-0.4-2.2-0.4c-1.4,0-2.2,0.6-2.2,1.6v0c0,0.9,0.8,1.4,1.9,1.4
		C141.8,39.9,142.9,39,142.9,37.8z"/>
	<path class="st0" d="M151.1,32.7c0-0.6,0.5-1.1,1.1-1.1s1.1,0.5,1.1,1.1v0.6c0.7-1,1.7-1.8,3.2-1.8c2.2,0,4.4,1.8,4.4,4.9v0
		c0,3.2-2.2,4.9-4.4,4.9c-1.6,0-2.6-0.8-3.2-1.7v3.4c0,0.6-0.5,1.1-1.1,1.1c-0.6,0-1.1-0.5-1.1-1.1V32.7z M158.8,36.5L158.8,36.5
		c0-1.9-1.2-3.1-2.7-3.1c-1.5,0-2.8,1.2-2.8,3v0c0,1.8,1.3,3,2.8,3C157.5,39.6,158.8,38.4,158.8,36.5z"/>
	<path class="st0" d="M162.3,32.7c0-0.6,0.5-1.1,1.1-1.1c0.6,0,1.1,0.5,1.1,1.1v1c0.5-1.2,1.4-2.1,2.4-2.1c0.7,0,1.1,0.5,1.1,1.1
		c0,0.6-0.4,1-0.9,1c-1.5,0.3-2.6,1.5-2.6,3.7v2.8c0,0.6-0.5,1.1-1.1,1.1c-0.6,0-1.1-0.5-1.1-1.1V32.7z"/>
	<path class="st0" d="M168,36.6L168,36.6c0-2.8,2.2-5,5.1-5c2.9,0,5.1,2.2,5.1,4.9v0c0,2.7-2.2,5-5.1,5
		C170.1,41.5,168,39.3,168,36.6z M176,36.6L176,36.6c0-1.7-1.2-3.1-2.9-3.1c-1.7,0-2.9,1.4-2.9,3v0c0,1.7,1.2,3,2.9,3
		C174.8,39.6,176,38.2,176,36.6z"/>
	<path class="st0" d="M183,41.4h-0.1c-0.6,0-1-0.4-1.2-1l-3.2-7.3c-0.1-0.2-0.1-0.3-0.1-0.5c0-0.5,0.5-1,1.1-1s0.9,0.3,1.1,0.8
		l2.4,6.3l2.5-6.3c0.2-0.4,0.5-0.8,1-0.8c0.6,0,1.1,0.5,1.1,1c0,0.2-0.1,0.4-0.1,0.5l-3.2,7.3C184,41,183.6,41.4,183,41.4z"/>
	<path class="st0" d="M188.7,29.2c0-0.6,0.5-1.1,1.2-1.1s1.2,0.4,1.2,1.1v0.1c0,0.6-0.5,1.1-1.2,1.1s-1.2-0.4-1.2-1.1V29.2z
		 M188.8,32.7c0-0.6,0.5-1.1,1.1-1.1s1.1,0.5,1.1,1.1v7.5c0,0.6-0.5,1.1-1.1,1.1c-0.6,0-1.1-0.5-1.1-1.1V32.7z"/>
	<path class="st0" d="M202.3,40.3c0,0.6-0.5,1.1-1.1,1.1c-0.6,0-1.1-0.5-1.1-1.1v-0.6c-0.7,1-1.7,1.8-3.2,1.8
		c-2.2,0-4.4-1.8-4.4-4.9v0c0-3.2,2.1-4.9,4.4-4.9c1.6,0,2.6,0.8,3.2,1.7v-4.1c0-0.6,0.5-1.1,1.1-1.1c0.6,0,1.1,0.5,1.1,1.1V40.3z
		 M194.7,36.5L194.7,36.5c0,1.9,1.3,3.1,2.7,3.1c1.5,0,2.8-1.2,2.8-3v0c0-1.8-1.3-3-2.8-3C195.9,33.4,194.7,34.6,194.7,36.5z"/>
	<path class="st0" d="M208.5,41.5c-2.8,0-4.9-2-4.9-4.9v0c0-2.7,1.9-5,4.6-5c3,0,4.5,2.5,4.5,4.7c0,0.6-0.5,1-1,1h-6
		c0.2,1.5,1.3,2.4,2.7,2.4c0.9,0,1.6-0.3,2.3-0.8c0.2-0.1,0.3-0.2,0.6-0.2c0.5,0,0.9,0.4,0.9,0.9c0,0.3-0.1,0.5-0.3,0.7
		C211,41,210,41.5,208.5,41.5z M210.6,35.8c-0.1-1.4-1-2.5-2.4-2.5c-1.3,0-2.3,1-2.5,2.5H210.6z"/>
	<path class="st0" d="M214.1,32.7c0-0.6,0.5-1.1,1.1-1.1c0.6,0,1.1,0.5,1.1,1.1v1c0.5-1.2,1.4-2.1,2.4-2.1c0.7,0,1.1,0.5,1.1,1.1
		c0,0.6-0.4,1-0.9,1c-1.5,0.3-2.6,1.5-2.6,3.7v2.8c0,0.6-0.5,1.1-1.1,1.1c-0.6,0-1.1-0.5-1.1-1.1V32.7z"/>
	<path class="st0" d="M223.7,37.4c-0.4,0-0.7-0.3-0.8-0.7l-0.2-1.5c-0.1-0.5,0.2-0.8,0.7-0.9c1.7-0.2,2.6-0.8,2.6-1.9v0
		c0-1-0.8-1.7-2.1-1.7c-1,0-1.7,0.3-2.4,1c-0.2,0.1-0.4,0.3-0.7,0.3c-0.6,0-1-0.5-1-1c0-0.3,0.1-0.6,0.4-0.8c1-0.9,2.2-1.5,3.8-1.5
		c2.5,0,4.2,1.4,4.2,3.7v0c0,2.3-1.6,3.3-3.6,3.6l-0.1,0.8c-0.1,0.4-0.4,0.7-0.8,0.7H223.7z M223.7,38.7c0.7,0,1.3,0.5,1.3,1.2v0.2
		c0,0.7-0.5,1.2-1.3,1.2s-1.3-0.5-1.3-1.2v-0.2C222.4,39.2,222.9,38.7,223.7,38.7z"/>
</g>
</svg>
