<?xml version="1.0" encoding="utf-8"?>
<!-- Generator: Adobe Illustrator 21.1.0, SVG Export Plug-In . SVG Version: 6.00 Build 0)  -->
<svg version="1.1" xmlns="http://www.w3.org/2000/svg" xmlns:xlink="http://www.w3.org/1999/xlink" x="0px" y="0px"
	 viewBox="0 0 320 50" style="enable-background:new 0 0 320 50;" xml:space="preserve">
<style type="text/css">
	.st0{fill:#133C7D;}
	.st1{fill:#FFFFFF;}
</style>
<g id="Layer_1">
	<g>
		<rect class="st0" width="320" height="50"/>
	</g>
</g>
<g id="Layer_2">
	<g>
		<path class="st1" d="M102.6,23L102.6,23c0-3.5,2.5-6.6,6.3-6.6c1.9,0,3.2,0.5,4.3,1.4c0.2,0.1,0.3,0.3,0.3,0.6
			c0,0.4-0.3,0.7-0.7,0.7c-0.2,0-0.3-0.1-0.5-0.2c-0.9-0.7-1.9-1.2-3.5-1.2c-2.8,0-4.8,2.4-4.8,5.2v0c0,3,1.9,5.2,5,5.2
			c1.4,0,2.8-0.6,3.6-1.3v-3.1h-3.4c-0.3,0-0.6-0.3-0.6-0.6c0-0.4,0.3-0.6,0.6-0.6h4.1c0.4,0,0.7,0.3,0.7,0.7v3.8
			c0,0.3-0.2,0.6-0.5,0.9c-1.2,0.8-2.7,1.5-4.6,1.5C105,29.4,102.6,26.6,102.6,23z"/>
		<path class="st1" d="M115.4,24.6L115.4,24.6c0-2.7,2.1-4.9,4.9-4.9c2.8,0,4.8,2.2,4.8,4.8v0c0,2.6-2.1,4.9-4.9,4.9
			C117.4,29.4,115.4,27.3,115.4,24.6z M123.6,24.6L123.6,24.6c0-2-1.5-3.7-3.5-3.7c-2,0-3.4,1.6-3.4,3.6v0c0,2,1.5,3.6,3.4,3.6
			C122.2,28.2,123.6,26.6,123.6,24.6z"/>
		<path class="st1" d="M131.3,26.8v-5.6h-0.8c-0.3,0-0.6-0.3-0.6-0.6c0-0.3,0.3-0.6,0.6-0.6h0.8v-2.2c0-0.4,0.3-0.7,0.7-0.7
			c0.4,0,0.7,0.3,0.7,0.7v2.2h2.4c0.3,0,0.6,0.3,0.6,0.6c0,0.3-0.3,0.6-0.6,0.6h-2.4v5.4c0,1.1,0.6,1.5,1.6,1.5
			c0.5,0,0.7-0.1,0.8-0.1c0.3,0,0.6,0.3,0.6,0.6c0,0.3-0.2,0.5-0.4,0.5c-0.4,0.2-0.8,0.3-1.4,0.3C132.4,29.4,131.3,28.7,131.3,26.8z
			"/>
		<path class="st1" d="M136.2,24.6L136.2,24.6c0-2.7,2.1-4.9,4.9-4.9c2.8,0,4.8,2.2,4.8,4.8v0c0,2.6-2.1,4.9-4.9,4.9
			C138.2,29.4,136.2,27.3,136.2,24.6z M144.4,24.6L144.4,24.6c0-2-1.5-3.7-3.5-3.7c-2,0-3.4,1.6-3.4,3.6v0c0,2,1.5,3.6,3.4,3.6
			C143,28.2,144.4,26.6,144.4,24.6z"/>
		<path class="st1" d="M151,24.6L151,24.6c0-2.7,2.1-4.9,4.8-4.9c1.5,0,2.6,0.6,3.4,1.4c0.1,0.1,0.2,0.3,0.2,0.5
			c0,0.4-0.3,0.7-0.7,0.7c-0.2,0-0.3-0.1-0.5-0.2c-0.7-0.6-1.4-1.1-2.5-1.1c-1.9,0-3.3,1.6-3.3,3.6v0c0,2,1.5,3.6,3.4,3.6
			c1.1,0,1.9-0.5,2.6-1.1c0.1-0.1,0.2-0.2,0.4-0.2c0.3,0,0.6,0.3,0.6,0.6c0,0.2-0.1,0.3-0.2,0.4c-0.9,0.9-1.9,1.5-3.5,1.5
			C153.1,29.4,151,27.2,151,24.6z"/>
		<path class="st1" d="M160.8,16.7c0-0.4,0.3-0.7,0.7-0.7c0.4,0,0.7,0.3,0.7,0.7v4.8c0.6-1,1.6-1.8,3.2-1.8c2.3,0,3.6,1.5,3.6,3.7
			v5.2c0,0.4-0.3,0.7-0.7,0.7c-0.4,0-0.7-0.3-0.7-0.7v-4.8c0-1.7-0.9-2.8-2.6-2.8c-1.6,0-2.8,1.2-2.8,2.9v4.7c0,0.4-0.3,0.7-0.7,0.7
			c-0.4,0-0.7-0.3-0.7-0.7V16.7z"/>
		<path class="st1" d="M174.9,29.4c-2.6,0-4.6-2-4.6-4.8v0c0-2.7,1.9-4.8,4.5-4.8c2.8,0,4.3,2.3,4.3,4.7c0,0.4-0.3,0.6-0.6,0.6h-6.7
			c0.2,2,1.6,3.2,3.3,3.2c1.2,0,2-0.5,2.7-1.1c0.1-0.1,0.2-0.2,0.4-0.2c0.3,0,0.6,0.3,0.6,0.6c0,0.2-0.1,0.3-0.2,0.5
			C177.5,28.9,176.5,29.4,174.9,29.4z M177.6,24.1c-0.1-1.7-1.1-3.2-3-3.2c-1.6,0-2.8,1.4-3,3.2H177.6z"/>
		<path class="st1" d="M179.8,24.6L179.8,24.6c0-2.7,2.1-4.9,4.8-4.9c1.5,0,2.6,0.6,3.4,1.4c0.1,0.1,0.2,0.3,0.2,0.5
			c0,0.4-0.3,0.7-0.7,0.7c-0.2,0-0.3-0.1-0.5-0.2c-0.7-0.6-1.4-1.1-2.5-1.1c-1.9,0-3.3,1.6-3.3,3.6v0c0,2,1.5,3.6,3.4,3.6
			c1.1,0,1.9-0.5,2.6-1.1c0.1-0.1,0.2-0.2,0.4-0.2c0.3,0,0.6,0.3,0.6,0.6c0,0.2-0.1,0.3-0.2,0.4c-0.9,0.9-1.9,1.5-3.5,1.5
			C181.9,29.4,179.8,27.2,179.8,24.6z"/>
		<path class="st1" d="M189.6,16.7c0-0.4,0.3-0.7,0.7-0.7c0.4,0,0.7,0.3,0.7,0.7v8.5l5-5.1c0.2-0.2,0.3-0.3,0.5-0.3
			c0.4,0,0.6,0.3,0.6,0.6c0,0.2-0.1,0.4-0.3,0.5l-3,3l3.3,4.2c0.1,0.2,0.2,0.3,0.2,0.5c0,0.4-0.3,0.6-0.7,0.6
			c-0.3,0-0.4-0.1-0.6-0.3l-3.2-4.1l-1.9,1.9v1.8c0,0.4-0.3,0.7-0.7,0.7c-0.4,0-0.7-0.3-0.7-0.7V16.7z"/>
		<path class="st1" d="M198.8,16.7c0-0.4,0.3-0.7,0.7-0.7c0.4,0,0.7,0.3,0.7,0.7v11.9c0,0.4-0.3,0.7-0.7,0.7c-0.4,0-0.7-0.3-0.7-0.7
			V16.7z"/>
		<path class="st1" d="M202.4,17c0-0.5,0.4-0.7,0.8-0.7c0.5,0,0.8,0.3,0.8,0.7v0.2c0,0.4-0.4,0.7-0.8,0.7c-0.4,0-0.8-0.3-0.8-0.7V17
			z M202.5,20.5c0-0.4,0.3-0.7,0.7-0.7c0.4,0,0.7,0.3,0.7,0.7v8.1c0,0.4-0.3,0.7-0.7,0.7c-0.4,0-0.7-0.3-0.7-0.7V20.5z"/>
		<path class="st1" d="M205.5,28.2c-0.1-0.1-0.3-0.3-0.3-0.5c0-0.3,0.3-0.6,0.6-0.6c0.1,0,0.3,0,0.3,0.1c1,0.6,1.9,1,3,1
			c1.1,0,1.9-0.6,1.9-1.5v0c0-0.9-1.1-1.3-2.3-1.6c-1.5-0.4-3.1-0.9-3.1-2.6v0c0-1.6,1.3-2.7,3.2-2.7c1,0,2.1,0.3,3,0.8
			c0.2,0.1,0.3,0.3,0.3,0.6c0,0.3-0.3,0.6-0.6,0.6c-0.1,0-0.2,0-0.3-0.1c-0.8-0.5-1.6-0.7-2.4-0.7c-1.1,0-1.8,0.6-1.8,1.4v0
			c0,0.9,1.2,1.2,2.4,1.6c1.4,0.4,3,1,3,2.7v0c0,1.8-1.5,2.8-3.3,2.8C207.9,29.4,206.5,29,205.5,28.2z"/>
		<path class="st1" d="M214.2,26.8v-5.6h-0.8c-0.3,0-0.6-0.3-0.6-0.6c0-0.3,0.3-0.6,0.6-0.6h0.8v-2.2c0-0.4,0.3-0.7,0.7-0.7
			c0.4,0,0.7,0.3,0.7,0.7v2.2h2.4c0.3,0,0.6,0.3,0.6,0.6c0,0.3-0.3,0.6-0.6,0.6h-2.4v5.4c0,1.1,0.6,1.5,1.6,1.5
			c0.5,0,0.7-0.1,0.8-0.1c0.3,0,0.6,0.3,0.6,0.6c0,0.3-0.2,0.5-0.4,0.5c-0.4,0.2-0.8,0.3-1.4,0.3C215.3,29.4,214.2,28.7,214.2,26.8z
			"/>
	</g>
</g>
</svg>
