<?xml version="1.0" encoding="utf-8"?>
<!-- Generator: Adobe Illustrator 21.1.0, SVG Export Plug-In . SVG Version: 6.00 Build 0)  -->
<svg version="1.1" id="Layer_1" xmlns="http://www.w3.org/2000/svg" xmlns:xlink="http://www.w3.org/1999/xlink" x="0px" y="0px"
	 viewBox="0 0 300 250" style="enable-background:new 0 0 300 250;" xml:space="preserve">
<style type="text/css">
	.st0{fill:#21327E;}
</style>
<g>
	<path class="st0" d="M21,24.2c0-0.7,0.6-1.3,1.3-1.3s1.3,0.6,1.3,1.3v0.1c0.6-0.8,1.4-1.5,2.7-1.5c2,0,3.2,1.3,3.2,3.5v4.8
		c0,0.7-0.6,1.3-1.3,1.3c-0.7,0-1.3-0.6-1.3-1.3v-4c0-1.3-0.6-1.9-1.6-1.9c-1,0-1.7,0.6-1.7,1.9v4c0,0.7-0.6,1.3-1.3,1.3
		S21,31.8,21,31.1V24.2z"/>
	<path class="st0" d="M31.4,20.8c0-0.7,0.6-1.3,1.3-1.3s1.3,0.6,1.3,1.3v3.5c0.6-0.9,1.5-1.5,2.9-1.5c2.2,0,4.3,1.7,4.3,4.8v0
		c0,3.1-2,4.8-4.3,4.8c-1.4,0-2.3-0.6-2.9-1.4v0c0,0.7-0.6,1.3-1.3,1.3s-1.3-0.6-1.3-1.3V20.8z M38.6,27.7L38.6,27.7
		c0-1.6-1-2.6-2.3-2.6c-1.2,0-2.3,1-2.3,2.6v0c0,1.6,1,2.6,2.3,2.6C37.5,30.3,38.6,29.2,38.6,27.7z"/>
	<path class="st0" d="M42.7,24.2c0-0.7,0.6-1.3,1.3-1.3c0.7,0,1.3,0.6,1.3,1.3v0.1c0.6-0.8,1.4-1.5,2.7-1.5c2,0,3.2,1.3,3.2,3.5v4.8
		c0,0.7-0.6,1.3-1.3,1.3s-1.3-0.6-1.3-1.3v-4c0-1.3-0.6-1.9-1.6-1.9c-1,0-1.7,0.6-1.7,1.9v4c0,0.7-0.6,1.3-1.3,1.3
		c-0.7,0-1.3-0.6-1.3-1.3V24.2z"/>
	<path class="st0" d="M57.9,20.6c0-0.6,0.5-1,1.2-1s1.2,0.4,1.2,1v0.1c0,0.6-0.5,1-1.2,1s-1.2-0.4-1.2-1V20.6z M58,24.1
		c0-0.6,0.5-1.1,1-1.1s1.1,0.5,1.1,1.1v7.3c0,0.6-0.5,1-1.1,1c-0.6,0-1-0.5-1-1V24.1z"/>
	<path class="st0" d="M62.1,31.4c-0.2-0.1-0.4-0.4-0.4-0.7c0-0.5,0.4-0.9,0.9-0.9c0.2,0,0.3,0.1,0.5,0.1c0.9,0.6,1.8,0.9,2.7,0.9
		c0.9,0,1.4-0.4,1.4-1v0c0-0.7-1-1-2.1-1.3c-1.4-0.4-2.9-0.9-2.9-2.7v0c0-1.8,1.5-2.8,3.3-2.8c1,0,2,0.3,2.9,0.8
		c0.3,0.2,0.5,0.4,0.5,0.8c0,0.5-0.4,0.9-0.9,0.9c-0.2,0-0.3,0-0.4-0.1c-0.8-0.4-1.5-0.6-2.2-0.6c-0.8,0-1.3,0.4-1.3,0.9v0
		c0,0.7,1,1,2.1,1.3c1.3,0.4,2.9,1,2.9,2.7v0c0,1.9-1.5,2.9-3.4,2.9C64.4,32.5,63.1,32.1,62.1,31.4z"/>
	<path class="st0" d="M75.8,24.9h-0.4c-0.5,0-0.9-0.4-0.9-0.9s0.4-0.9,0.9-0.9h0.4v-0.7c0-1,0.3-1.8,0.8-2.3
		c0.5-0.5,1.2-0.7,2.1-0.7c0.4,0,0.8,0,1.1,0.1c0.4,0.1,0.7,0.4,0.7,0.9c0,0.5-0.4,0.9-0.9,0.9c-0.1,0-0.3,0-0.4,0
		c-0.8,0-1.2,0.4-1.2,1.4v0.5h1.6c0.5,0,0.9,0.4,0.9,0.9s-0.4,0.9-0.9,0.9H78v6.5c0,0.6-0.5,1-1.1,1c-0.6,0-1-0.5-1-1V24.9z"/>
	<path class="st0" d="M80.7,27.8L80.7,27.8c0-2.7,2.1-4.9,4.9-4.9c2.8,0,4.9,2.2,4.9,4.8v0c0,2.6-2.1,4.8-5,4.8
		C82.8,32.5,80.7,30.4,80.7,27.8z M88.5,27.8L88.5,27.8c0-1.7-1.2-3-2.8-3c-1.7,0-2.8,1.3-2.8,2.9v0c0,1.6,1.2,3,2.8,3
		C87.4,30.7,88.5,29.4,88.5,27.8z"/>
	<path class="st0" d="M92.2,24.1c0-0.6,0.5-1.1,1-1.1s1.1,0.5,1.1,1.1V25c0.5-1.2,1.4-2,2.3-2c0.7,0,1,0.4,1,1c0,0.6-0.4,0.9-0.8,1
		c-1.5,0.3-2.5,1.4-2.5,3.6v2.7c0,0.6-0.5,1-1.1,1c-0.6,0-1-0.5-1-1V24.1z"/>
	<path class="st0" d="M103.7,20.5c0-0.6,0.5-1,1-1s1.1,0.5,1.1,1v4.1c0.7-1,1.6-1.7,3.2-1.7c2.2,0,4.3,1.7,4.3,4.8v0
		c0,3.1-2.1,4.8-4.3,4.8c-1.5,0-2.5-0.8-3.2-1.6v0.5c0,0.6-0.5,1-1.1,1c-0.6,0-1-0.5-1-1V20.5z M111.1,27.7L111.1,27.7
		c0-1.8-1.2-3-2.6-3c-1.4,0-2.7,1.2-2.7,3v0c0,1.8,1.3,3,2.7,3C109.9,30.7,111.1,29.6,111.1,27.7z"/>
	<path class="st0" d="M123.1,31.4c0,0.6-0.5,1-1.1,1c-0.6,0-1.1-0.5-1.1-1v-0.5c-0.6,0.9-1.5,1.6-2.9,1.6c-2.1,0-3.3-1.4-3.3-3.6
		v-4.9c0-0.6,0.5-1.1,1-1.1c0.6,0,1.1,0.5,1.1,1.1v4.3c0,1.4,0.7,2.2,2,2.2c1.2,0,2.1-0.8,2.1-2.3v-4.3c0-0.6,0.5-1.1,1.1-1.1
		c0.6,0,1.1,0.5,1.1,1.1V31.4z"/>
	<path class="st0" d="M124.8,31.4c-0.2-0.1-0.4-0.4-0.4-0.7c0-0.5,0.4-0.9,0.9-0.9c0.2,0,0.3,0.1,0.5,0.1c0.9,0.6,1.8,0.9,2.7,0.9
		c0.9,0,1.4-0.4,1.4-1v0c0-0.7-1-1-2.1-1.3c-1.4-0.4-2.9-0.9-2.9-2.7v0c0-1.8,1.5-2.8,3.3-2.8c1,0,2,0.3,2.9,0.8
		c0.3,0.2,0.5,0.4,0.5,0.8c0,0.5-0.4,0.9-0.9,0.9c-0.2,0-0.3,0-0.4-0.1c-0.8-0.4-1.5-0.6-2.2-0.6c-0.8,0-1.3,0.4-1.3,0.9v0
		c0,0.7,1,1,2.1,1.3c1.3,0.4,2.9,1,2.9,2.7v0c0,1.9-1.5,2.9-3.4,2.9C127.2,32.5,125.9,32.1,124.8,31.4z"/>
	<path class="st0" d="M133.4,20.6c0-0.6,0.5-1,1.2-1s1.2,0.4,1.2,1v0.1c0,0.6-0.5,1-1.2,1s-1.2-0.4-1.2-1V20.6z M133.6,24.1
		c0-0.6,0.5-1.1,1-1.1c0.6,0,1.1,0.5,1.1,1.1v7.3c0,0.6-0.5,1-1.1,1c-0.6,0-1-0.5-1-1V24.1z"/>
	<path class="st0" d="M137.9,24.1c0-0.6,0.5-1.1,1-1.1c0.6,0,1.1,0.5,1.1,1.1v0.5c0.6-0.9,1.5-1.6,2.9-1.6c2.1,0,3.3,1.4,3.3,3.5
		v4.9c0,0.6-0.5,1-1,1c-0.6,0-1.1-0.5-1.1-1v-4.3c0-1.4-0.7-2.3-2-2.3c-1.2,0-2.1,0.9-2.1,2.3v4.3c0,0.6-0.5,1-1.1,1
		c-0.6,0-1-0.5-1-1V24.1z"/>
	<path class="st0" d="M152.5,32.5c-2.7,0-4.7-1.9-4.7-4.8v0c0-2.6,1.9-4.8,4.5-4.8c2.9,0,4.4,2.4,4.4,4.6c0,0.6-0.5,1-1,1h-5.8
		c0.2,1.5,1.3,2.3,2.7,2.3c0.9,0,1.6-0.3,2.2-0.8c0.2-0.1,0.3-0.2,0.5-0.2c0.5,0,0.8,0.4,0.8,0.9c0,0.3-0.1,0.5-0.3,0.6
		C155,32.1,153.9,32.5,152.5,32.5z M154.6,27.1c-0.1-1.4-0.9-2.4-2.3-2.4c-1.3,0-2.2,1-2.4,2.4H154.6z"/>
	<path class="st0" d="M157.9,31.4c-0.2-0.1-0.4-0.4-0.4-0.7c0-0.5,0.4-0.9,0.9-0.9c0.2,0,0.3,0.1,0.5,0.1c0.9,0.6,1.8,0.9,2.7,0.9
		c0.9,0,1.4-0.4,1.4-1v0c0-0.7-1-1-2.1-1.3c-1.4-0.4-2.9-0.9-2.9-2.7v0c0-1.8,1.5-2.8,3.3-2.8c1,0,2,0.3,2.9,0.8
		c0.3,0.2,0.5,0.4,0.5,0.8c0,0.5-0.4,0.9-0.9,0.9c-0.2,0-0.3,0-0.4-0.1c-0.8-0.4-1.5-0.6-2.2-0.6c-0.8,0-1.3,0.4-1.3,0.9v0
		c0,0.7,1,1,2.1,1.3c1.3,0.4,2.9,1,2.9,2.7v0c0,1.9-1.5,2.9-3.4,2.9C160.3,32.5,159,32.1,157.9,31.4z"/>
	<path class="st0" d="M166,31.4c-0.2-0.1-0.4-0.4-0.4-0.7c0-0.5,0.4-0.9,0.9-0.9c0.2,0,0.3,0.1,0.5,0.1c0.9,0.6,1.8,0.9,2.7,0.9
		c0.9,0,1.4-0.4,1.4-1v0c0-0.7-1-1-2.1-1.3c-1.4-0.4-2.9-0.9-2.9-2.7v0c0-1.8,1.5-2.8,3.3-2.8c1,0,2,0.3,2.9,0.8
		c0.3,0.2,0.5,0.4,0.5,0.8c0,0.5-0.4,0.9-0.9,0.9c-0.2,0-0.3,0-0.4-0.1c-0.8-0.4-1.5-0.6-2.2-0.6c-0.8,0-1.3,0.4-1.3,0.9v0
		c0,0.7,1,1,2.1,1.3c1.3,0.4,2.9,1,2.9,2.7v0c0,1.9-1.5,2.9-3.4,2.9C168.4,32.5,167.1,32.1,166,31.4z"/>
	<path class="st0" d="M179.8,29.8v-4.9h-0.3c-0.5,0-0.9-0.4-0.9-0.9c0-0.5,0.4-0.9,0.9-0.9h0.3v-1.6c0-0.6,0.5-1.1,1.1-1.1
		c0.6,0,1.1,0.5,1.1,1.1v1.6h1.7c0.5,0,0.9,0.4,0.9,0.9c0,0.5-0.4,0.9-0.9,0.9h-1.7v4.5c0,0.8,0.4,1.2,1.1,1.2
		c0.2,0,0.5-0.1,0.5-0.1c0.5,0,0.9,0.4,0.9,0.9c0,0.4-0.3,0.7-0.6,0.8c-0.5,0.2-0.9,0.2-1.5,0.2C180.9,32.5,179.8,31.8,179.8,29.8z"
		/>
	<path class="st0" d="M185.2,27.8L185.2,27.8c0-2.7,2.1-4.9,4.9-4.9c2.8,0,4.9,2.2,4.9,4.8v0c0,2.6-2.1,4.8-5,4.8
		C187.3,32.5,185.2,30.4,185.2,27.8z M193,27.8L193,27.8c0-1.7-1.2-3-2.8-3c-1.7,0-2.8,1.3-2.8,2.9v0c0,1.6,1.2,3,2.8,3
		C191.9,30.7,193,29.4,193,27.8z"/>
	<path class="st0" d="M196.2,27.8L196.2,27.8c0-2.7,2.1-4.9,4.9-4.9c2.8,0,4.9,2.2,4.9,4.8v0c0,2.6-2.1,4.8-5,4.8
		C198.3,32.5,196.2,30.4,196.2,27.8z M203.9,27.8L203.9,27.8c0-1.7-1.2-3-2.8-3c-1.7,0-2.8,1.3-2.8,2.9v0c0,1.6,1.2,3,2.8,3
		C202.8,30.7,203.9,29.4,203.9,27.8z"/>
	<path class="st0" d="M208.4,29.8c0.7,0,1.2,0.5,1.2,1.2v0.2c0,0.7-0.5,1.2-1.2,1.2c-0.7,0-1.2-0.5-1.2-1.2V31
		C207.1,30.4,207.6,29.8,208.4,29.8z"/>
</g>
</svg>
