<?xml version="1.0" encoding="utf-8"?>
<!-- Generator: Adobe Illustrator 21.1.0, SVG Export Plug-In . SVG Version: 6.00 Build 0)  -->
<svg version="1.1" xmlns="http://www.w3.org/2000/svg" xmlns:xlink="http://www.w3.org/1999/xlink" x="0px" y="0px"
	 viewBox="0 0 300 250" style="enable-background:new 0 0 300 250;" xml:space="preserve">
<style type="text/css">
	.st0{fill:#21327E;}
</style>
<g id="Layer_3">
	<g id="_x39_9KYVr.tif">
	</g>
</g>
<g id="Layer_2">
	<g>
		<path class="st0" d="M21.4,29.8v-4.9h-0.4c-0.5,0-0.9-0.4-0.9-0.9c0-0.5,0.4-0.9,0.9-0.9h0.4v-1.6c0-0.6,0.5-1.1,1.1-1.1
			c0.6,0,1,0.5,1,1.1v1.6h1.7c0.5,0,0.9,0.4,0.9,0.9c0,0.5-0.4,0.9-0.9,0.9h-1.7v4.5c0,0.8,0.4,1.2,1.1,1.2c0.2,0,0.5-0.1,0.5-0.1
			c0.5,0,0.9,0.4,0.9,0.9c0,0.4-0.3,0.7-0.6,0.8c-0.5,0.2-0.9,0.2-1.5,0.2C22.5,32.5,21.4,31.8,21.4,29.8z"/>
		<path class="st0" d="M26.9,27.8L26.9,27.8c0-2.7,2.1-4.9,4.9-4.9c2.8,0,4.9,2.2,4.9,4.8v0c0,2.6-2.1,4.8-5,4.8
			C29,32.5,26.9,30.4,26.9,27.8z M34.6,27.8L34.6,27.8c0-1.7-1.2-3-2.8-3c-1.7,0-2.8,1.3-2.8,2.9v0c0,1.6,1.2,3,2.8,3
			C33.5,30.7,34.6,29.4,34.6,27.8z"/>
		<path class="st0" d="M43.6,24.9h-0.4c-0.5,0-0.9-0.4-0.9-0.9s0.4-0.9,0.9-0.9h0.4v-0.7c0-1,0.3-1.8,0.8-2.3
			c0.5-0.5,1.2-0.7,2.1-0.7c0.4,0,0.8,0,1.1,0.1c0.4,0.1,0.7,0.4,0.7,0.9c0,0.5-0.4,0.9-0.9,0.9c-0.1,0-0.3,0-0.4,0
			c-0.8,0-1.2,0.4-1.2,1.4v0.5h1.6c0.5,0,0.9,0.4,0.9,0.9s-0.4,0.9-0.9,0.9h-1.6v6.5c0,0.6-0.5,1-1.1,1c-0.6,0-1.1-0.5-1.1-1V24.9z
			 M49.6,20.6c0-0.6,0.5-1,1.2-1s1.2,0.4,1.2,1v0.1c0,0.6-0.5,1-1.2,1s-1.2-0.4-1.2-1V20.6z M49.8,24.1c0-0.6,0.5-1.1,1.1-1.1
			c0.6,0,1.1,0.5,1.1,1.1v7.3c0,0.6-0.5,1-1.1,1c-0.6,0-1.1-0.5-1.1-1V24.1z"/>
		<path class="st0" d="M54.2,24.1c0-0.6,0.5-1.1,1-1.1c0.6,0,1.1,0.5,1.1,1.1v0.5c0.6-0.9,1.5-1.6,2.9-1.6c2.1,0,3.3,1.4,3.3,3.5
			v4.9c0,0.6-0.5,1-1,1c-0.6,0-1.1-0.5-1.1-1v-4.3c0-1.4-0.7-2.3-2-2.3c-1.2,0-2.1,0.9-2.1,2.3v4.3c0,0.6-0.5,1-1.1,1
			c-0.6,0-1-0.5-1-1V24.1z"/>
		<path class="st0" d="M73.6,31.4c0,0.6-0.5,1-1.1,1c-0.6,0-1.1-0.5-1.1-1v-0.6c-0.7,1-1.6,1.7-3.2,1.7c-2.2,0-4.3-1.7-4.3-4.8v0
			c0-3.1,2.1-4.8,4.3-4.8c1.5,0,2.5,0.8,3.2,1.6v-4c0-0.6,0.5-1,1-1c0.6,0,1.1,0.5,1.1,1V31.4z M66.1,27.7L66.1,27.7
			c0,1.8,1.2,3,2.7,3c1.4,0,2.7-1.2,2.7-3v0c0-1.8-1.3-3-2.7-3C67.4,24.7,66.1,25.9,66.1,27.7z"/>
		<path class="st0" d="M79.9,27.8L79.9,27.8c0-2.7,2.1-4.9,4.9-4.9c2.8,0,4.9,2.2,4.9,4.8v0c0,2.6-2.1,4.8-5,4.8
			C82,32.5,79.9,30.4,79.9,27.8z M87.7,27.8L87.7,27.8c0-1.7-1.2-3-2.8-3c-1.7,0-2.8,1.3-2.8,2.9v0c0,1.6,1.2,3,2.8,3
			C86.6,30.7,87.7,29.4,87.7,27.8z"/>
		<path class="st0" d="M99.6,31.4c0,0.6-0.5,1-1.1,1c-0.6,0-1.1-0.5-1.1-1v-0.5c-0.6,0.9-1.5,1.6-2.9,1.6c-2.1,0-3.3-1.4-3.3-3.6
			v-4.9c0-0.6,0.5-1.1,1-1.1c0.6,0,1.1,0.5,1.1,1.1v4.3c0,1.4,0.7,2.2,2,2.2c1.2,0,2.1-0.8,2.1-2.3v-4.3c0-0.6,0.5-1.1,1.1-1.1
			c0.6,0,1.1,0.5,1.1,1.1V31.4z"/>
		<path class="st0" d="M102.2,29.8v-4.9h-0.3c-0.5,0-0.9-0.4-0.9-0.9c0-0.5,0.4-0.9,0.9-0.9h0.3v-1.6c0-0.6,0.5-1.1,1.1-1.1
			c0.6,0,1.1,0.5,1.1,1.1v1.6h1.7c0.5,0,0.9,0.4,0.9,0.9c0,0.5-0.4,0.9-0.9,0.9h-1.7v4.5c0,0.8,0.4,1.2,1.1,1.2
			c0.2,0,0.5-0.1,0.5-0.1c0.5,0,0.9,0.4,0.9,0.9c0,0.4-0.3,0.7-0.6,0.8c-0.5,0.2-0.9,0.2-1.5,0.2C103.3,32.5,102.2,31.8,102.2,29.8z
			"/>
		<path class="st0" d="M115,31.5l-2.5-7c-0.1-0.1-0.1-0.4-0.1-0.5c0-0.5,0.4-1,1-1c0.5,0,0.9,0.4,1,0.8l1.8,5.6l1.8-5.6
			c0.2-0.5,0.5-0.8,1.1-0.8h0.1c0.5,0,0.9,0.4,1.1,0.8l1.8,5.6l1.8-5.6c0.1-0.5,0.5-0.8,1-0.8c0.6,0,1,0.5,1,1
			c0,0.2-0.1,0.4-0.1,0.5l-2.5,7.1c-0.2,0.6-0.7,0.9-1.2,0.9h-0.1c-0.5,0-1-0.3-1.2-0.9l-1.8-5.5l-1.8,5.5c-0.2,0.6-0.6,0.9-1.1,0.9
			h-0.1C115.7,32.5,115.3,32.2,115,31.5z"/>
		<path class="st0" d="M127.5,20.5c0-0.6,0.5-1,1-1c0.6,0,1.1,0.5,1.1,1v4c0.6-0.9,1.5-1.6,2.9-1.6c2.1,0,3.3,1.4,3.3,3.5v4.9
			c0,0.6-0.5,1-1,1c-0.6,0-1.1-0.5-1.1-1v-4.3c0-1.4-0.7-2.3-2-2.3c-1.2,0-2.1,0.9-2.1,2.3v4.3c0,0.6-0.5,1-1.1,1c-0.6,0-1-0.5-1-1
			V20.5z"/>
		<path class="st0" d="M137.2,29.7L137.2,29.7c0-2,1.6-3,3.8-3c1,0,1.8,0.2,2.5,0.4v-0.2c0-1.3-0.8-2-2.3-2c-0.8,0-1.5,0.1-2,0.4
			c-0.1,0-0.2,0.1-0.3,0.1c-0.5,0-0.9-0.4-0.9-0.9c0-0.4,0.3-0.7,0.6-0.8c0.9-0.3,1.8-0.5,3-0.5c1.4,0,2.4,0.4,3.1,1
			c0.7,0.7,1,1.6,1,2.9v4.6c0,0.6-0.5,1-1,1c-0.6,0-1-0.4-1-0.9v-0.4c-0.6,0.8-1.6,1.3-3,1.3C138.8,32.5,137.2,31.5,137.2,29.7z
			 M143.6,29v-0.6c-0.5-0.2-1.3-0.4-2.1-0.4c-1.4,0-2.2,0.6-2.2,1.5v0c0,0.9,0.8,1.4,1.8,1.4C142.5,31,143.6,30.2,143.6,29z"/>
		<path class="st0" d="M147.9,29.8v-4.9h-0.3c-0.5,0-0.9-0.4-0.9-0.9c0-0.5,0.4-0.9,0.9-0.9h0.3v-1.6c0-0.6,0.5-1.1,1.1-1.1
			c0.6,0,1.1,0.5,1.1,1.1v1.6h1.7c0.5,0,0.9,0.4,0.9,0.9c0,0.5-0.4,0.9-0.9,0.9h-1.7v4.5c0,0.8,0.4,1.2,1.1,1.2
			c0.2,0,0.5-0.1,0.5-0.1c0.5,0,0.9,0.4,0.9,0.9c0,0.4-0.3,0.7-0.6,0.8c-0.5,0.2-0.9,0.2-1.5,0.2C149,32.5,147.9,31.8,147.9,29.8z"
			/>
		<path class="st0" d="M159.3,29.8v-4.9H159c-0.5,0-0.9-0.4-0.9-0.9c0-0.5,0.4-0.9,0.9-0.9h0.3v-1.6c0-0.6,0.5-1.1,1.1-1.1
			c0.6,0,1.1,0.5,1.1,1.1v1.6h1.7c0.5,0,0.9,0.4,0.9,0.9c0,0.5-0.4,0.9-0.9,0.9h-1.7v4.5c0,0.8,0.4,1.2,1.1,1.2
			c0.2,0,0.5-0.1,0.5-0.1c0.5,0,0.9,0.4,0.9,0.9c0,0.4-0.3,0.7-0.6,0.8c-0.5,0.2-0.9,0.2-1.5,0.2C160.4,32.5,159.3,31.8,159.3,29.8z
			"/>
		<path class="st0" d="M165.6,20.5c0-0.6,0.5-1,1-1c0.6,0,1.1,0.5,1.1,1v4c0.6-0.9,1.5-1.6,2.9-1.6c2.1,0,3.3,1.4,3.3,3.5v4.9
			c0,0.6-0.5,1-1,1c-0.6,0-1.1-0.5-1.1-1v-4.3c0-1.4-0.7-2.3-2-2.3c-1.2,0-2.1,0.9-2.1,2.3v4.3c0,0.6-0.5,1-1.1,1c-0.6,0-1-0.5-1-1
			V20.5z"/>
		<path class="st0" d="M175.9,20.6c0-0.6,0.5-1,1.2-1s1.2,0.4,1.2,1v0.1c0,0.6-0.5,1-1.2,1s-1.2-0.4-1.2-1V20.6z M176,24.1
			c0-0.6,0.5-1.1,1-1.1c0.6,0,1.1,0.5,1.1,1.1v7.3c0,0.6-0.5,1-1.1,1c-0.6,0-1-0.5-1-1V24.1z"/>
		<path class="st0" d="M180,31.4c-0.2-0.1-0.4-0.4-0.4-0.7c0-0.5,0.4-0.9,0.9-0.9c0.2,0,0.3,0.1,0.5,0.1c0.9,0.6,1.8,0.9,2.7,0.9
			c0.9,0,1.4-0.4,1.4-1v0c0-0.7-1-1-2.1-1.3c-1.4-0.4-2.9-0.9-2.9-2.7v0c0-1.8,1.5-2.8,3.3-2.8c1,0,2,0.3,2.9,0.8
			c0.3,0.2,0.5,0.4,0.5,0.8c0,0.5-0.4,0.9-0.9,0.9c-0.2,0-0.3,0-0.4-0.1c-0.8-0.4-1.5-0.6-2.2-0.6c-0.8,0-1.3,0.4-1.3,0.9v0
			c0,0.7,1,1,2.1,1.3c1.3,0.4,2.9,1,2.9,2.7v0c0,1.9-1.5,2.9-3.4,2.9C182.4,32.5,181.1,32.1,180,31.4z"/>
		<path class="st0" d="M193.3,24.1c0-0.6,0.5-1.1,1-1.1c0.6,0,1.1,0.5,1.1,1.1v0.4c0.6-0.8,1.4-1.6,2.8-1.6c1.3,0,2.3,0.6,2.8,1.6
			c0.7-1,1.7-1.6,3.1-1.6c2,0,3.2,1.3,3.2,3.5v4.9c0,0.6-0.5,1-1,1s-1.1-0.5-1.1-1v-4.3c0-1.5-0.7-2.3-1.9-2.3c-1.2,0-2,0.8-2,2.3
			v4.3c0,0.6-0.5,1-1,1c-0.6,0-1.1-0.5-1.1-1v-4.3c0-1.4-0.7-2.2-1.9-2.2s-2,0.9-2,2.3v4.3c0,0.6-0.5,1-1.1,1c-0.6,0-1-0.5-1-1V24.1
			z"/>
		<path class="st0" d="M213.7,32.5c-2.7,0-4.7-1.9-4.7-4.8v0c0-2.6,1.9-4.8,4.5-4.8c2.9,0,4.4,2.4,4.4,4.6c0,0.6-0.5,1-1,1h-5.8
			c0.2,1.5,1.3,2.3,2.7,2.3c0.9,0,1.6-0.3,2.2-0.8c0.2-0.1,0.3-0.2,0.5-0.2c0.5,0,0.8,0.4,0.8,0.9c0,0.3-0.1,0.5-0.3,0.6
			C216.2,32.1,215.1,32.5,213.7,32.5z M215.8,27.1c-0.1-1.4-0.9-2.4-2.3-2.4c-1.3,0-2.2,1-2.4,2.4H215.8z"/>
		<path class="st0" d="M218.9,29.7L218.9,29.7c0-2,1.6-3,3.8-3c1,0,1.8,0.2,2.5,0.4v-0.2c0-1.3-0.8-2-2.3-2c-0.8,0-1.5,0.1-2,0.4
			c-0.1,0-0.2,0.1-0.3,0.1c-0.5,0-0.9-0.4-0.9-0.9c0-0.4,0.3-0.7,0.6-0.8c0.9-0.3,1.8-0.5,3-0.5c1.4,0,2.4,0.4,3.1,1
			c0.7,0.7,1,1.6,1,2.9v4.6c0,0.6-0.5,1-1,1c-0.6,0-1-0.4-1-0.9v-0.4c-0.6,0.8-1.6,1.3-3,1.3C220.4,32.5,218.9,31.5,218.9,29.7z
			 M225.2,29v-0.6c-0.5-0.2-1.3-0.4-2.1-0.4c-1.4,0-2.2,0.6-2.2,1.5v0c0,0.9,0.8,1.4,1.8,1.4C224.1,31,225.2,30.2,225.2,29z"/>
		<path class="st0" d="M229.2,24.1c0-0.6,0.5-1.1,1-1.1c0.6,0,1.1,0.5,1.1,1.1v0.5c0.6-0.9,1.5-1.6,2.9-1.6c2.1,0,3.3,1.4,3.3,3.5
			v4.9c0,0.6-0.5,1-1,1c-0.6,0-1.1-0.5-1.1-1v-4.3c0-1.4-0.7-2.3-2-2.3c-1.2,0-2.1,0.9-2.1,2.3v4.3c0,0.6-0.5,1-1.1,1
			c-0.6,0-1-0.5-1-1V24.1z"/>
		<path class="st0" d="M239.2,31.4c-0.2-0.1-0.4-0.4-0.4-0.7c0-0.5,0.4-0.9,0.9-0.9c0.2,0,0.3,0.1,0.5,0.1c0.9,0.6,1.8,0.9,2.7,0.9
			c0.9,0,1.4-0.4,1.4-1v0c0-0.7-1-1-2.1-1.3c-1.4-0.4-2.9-0.9-2.9-2.7v0c0-1.8,1.5-2.8,3.3-2.8c1,0,2,0.3,2.9,0.8
			c0.3,0.2,0.5,0.4,0.5,0.8c0,0.5-0.4,0.9-0.9,0.9c-0.2,0-0.3,0-0.4-0.1c-0.8-0.4-1.5-0.6-2.2-0.6c-0.8,0-1.3,0.4-1.3,0.9v0
			c0,0.7,1,1,2.1,1.3c1.3,0.4,2.9,1,2.9,2.7v0c0,1.9-1.5,2.9-3.4,2.9C241.6,32.5,240.3,32.1,239.2,31.4z"/>
		<path class="st0" d="M21.5,45.9h-0.4c-0.5,0-0.9-0.4-0.9-0.9s0.4-0.9,0.9-0.9h0.4v-0.7c0-1,0.3-1.8,0.8-2.3
			c0.5-0.5,1.2-0.7,2.1-0.7c0.4,0,0.8,0,1.1,0.1c0.4,0.1,0.7,0.4,0.7,0.9c0,0.5-0.4,0.9-0.9,0.9c-0.1,0-0.3,0-0.4,0
			c-0.8,0-1.2,0.4-1.2,1.4v0.5h1.6c0.5,0,0.9,0.4,0.9,0.9s-0.4,0.9-0.9,0.9h-1.6v6.5c0,0.6-0.5,1-1.1,1c-0.6,0-1.1-0.5-1.1-1V45.9z"
			/>
		<path class="st0" d="M26.4,48.8L26.4,48.8c0-2.7,2.1-4.9,4.9-4.9c2.8,0,4.9,2.2,4.9,4.8v0c0,2.6-2.1,4.8-5,4.8
			C28.5,53.5,26.4,51.4,26.4,48.8z M34.1,48.8L34.1,48.8c0-1.7-1.2-3-2.8-3c-1.7,0-2.8,1.3-2.8,2.9v0c0,1.6,1.2,3,2.8,3
			C33,51.7,34.1,50.4,34.1,48.8z"/>
		<path class="st0" d="M37.9,45.1c0-0.6,0.5-1.1,1.1-1.1c0.6,0,1.1,0.5,1.1,1.1V46c0.5-1.2,1.4-2,2.3-2c0.7,0,1.1,0.4,1.1,1
			c0,0.6-0.4,0.9-0.8,1C41,46.3,40,47.5,40,49.6v2.7c0,0.6-0.5,1-1.1,1c-0.6,0-1.1-0.5-1.1-1V45.1z"/>
		<path class="st0" d="M49.5,55.9c-0.3-0.1-0.7-0.4-0.7-0.9c0-0.5,0.4-0.9,0.9-0.9c0.2,0,0.3,0,0.4,0.1c0.2,0.1,0.4,0.1,0.7,0.1
			c0.6,0,1-0.3,1.3-1l0.1-0.2l-3.4-7.7c-0.1-0.2-0.1-0.4-0.1-0.5c0-0.6,0.5-1,1.1-1c0.5,0,0.8,0.3,1,0.8l2.5,6.1l2.3-6.1
			c0.2-0.4,0.5-0.8,1-0.8c0.6,0,1,0.4,1,1c0,0.2-0.1,0.4-0.1,0.5l-3.4,8.1c-0.8,1.9-1.6,2.6-3.1,2.6C50.4,56.2,49.9,56.1,49.5,55.9z
			"/>
		<path class="st0" d="M58.1,48.8L58.1,48.8c0-2.7,2.1-4.9,4.9-4.9c2.8,0,4.9,2.2,4.9,4.8v0c0,2.6-2.1,4.8-5,4.8
			C60.2,53.5,58.1,51.4,58.1,48.8z M65.9,48.8L65.9,48.8c0-1.7-1.2-3-2.8-3c-1.7,0-2.8,1.3-2.8,2.9v0c0,1.6,1.2,3,2.8,3
			C64.8,51.7,65.9,50.4,65.9,48.8z"/>
		<path class="st0" d="M77.8,52.4c0,0.6-0.5,1-1.1,1c-0.6,0-1.1-0.5-1.1-1v-0.5c-0.6,0.9-1.5,1.6-2.9,1.6c-2.1,0-3.3-1.4-3.3-3.6
			v-4.9c0-0.6,0.5-1.1,1-1.1c0.6,0,1.1,0.5,1.1,1.1v4.3c0,1.4,0.7,2.2,2,2.2c1.2,0,2.1-0.8,2.1-2.3v-4.3c0-0.6,0.5-1.1,1.1-1.1
			c0.6,0,1.1,0.5,1.1,1.1V52.4z"/>
		<path class="st0" d="M79.9,45.1c0-0.6,0.5-1.1,1-1.1c0.6,0,1.1,0.5,1.1,1.1V46c0.5-1.2,1.4-2,2.3-2c0.7,0,1.1,0.4,1.1,1
			c0,0.6-0.4,0.9-0.8,1c-1.5,0.3-2.5,1.4-2.5,3.6v2.7c0,0.6-0.5,1-1.1,1c-0.6,0-1-0.5-1-1V45.1z"/>
		<path class="st0" d="M91.4,41.5c0-0.6,0.5-1,1-1c0.6,0,1.1,0.5,1.1,1v4.1c0.7-1,1.6-1.7,3.2-1.7c2.2,0,4.3,1.7,4.3,4.8v0
			c0,3.1-2.1,4.8-4.3,4.8c-1.5,0-2.5-0.8-3.2-1.6v0.5c0,0.6-0.5,1-1.1,1c-0.6,0-1-0.5-1-1V41.5z M98.8,48.7L98.8,48.7
			c0-1.8-1.2-3-2.6-3c-1.4,0-2.7,1.2-2.7,3v0c0,1.8,1.3,3,2.7,3C97.6,51.7,98.8,50.6,98.8,48.7z"/>
		<path class="st0" d="M110.8,52.4c0,0.6-0.5,1-1.1,1c-0.6,0-1.1-0.5-1.1-1v-0.5c-0.6,0.9-1.5,1.6-2.9,1.6c-2.1,0-3.3-1.4-3.3-3.6
			v-4.9c0-0.6,0.5-1.1,1-1.1c0.6,0,1.1,0.5,1.1,1.1v4.3c0,1.4,0.7,2.2,2,2.2c1.2,0,2.1-0.8,2.1-2.3v-4.3c0-0.6,0.5-1.1,1.1-1.1
			c0.6,0,1.1,0.5,1.1,1.1V52.4z"/>
		<path class="st0" d="M112.6,52.4c-0.2-0.1-0.4-0.4-0.4-0.7c0-0.5,0.4-0.9,0.9-0.9c0.2,0,0.3,0.1,0.5,0.1c0.9,0.6,1.8,0.9,2.7,0.9
			c0.9,0,1.4-0.4,1.4-1v0c0-0.7-1-1-2.1-1.3c-1.4-0.4-2.9-0.9-2.9-2.7v0c0-1.8,1.5-2.8,3.3-2.8c1,0,2,0.3,2.9,0.8
			c0.3,0.2,0.5,0.4,0.5,0.8c0,0.5-0.4,0.9-0.9,0.9c-0.2,0-0.3,0-0.4-0.1c-0.8-0.4-1.5-0.6-2.2-0.6c-0.8,0-1.3,0.4-1.3,0.9v0
			c0,0.7,1,1,2.1,1.3c1.3,0.4,2.9,1,2.9,2.7v0c0,1.9-1.5,2.9-3.4,2.9C114.9,53.5,113.6,53.1,112.6,52.4z"/>
		<path class="st0" d="M121.1,41.6c0-0.6,0.5-1,1.2-1s1.2,0.4,1.2,1v0.1c0,0.6-0.5,1-1.2,1s-1.2-0.4-1.2-1V41.6z M121.3,45.1
			c0-0.6,0.5-1.1,1-1.1c0.6,0,1.1,0.5,1.1,1.1v7.3c0,0.6-0.5,1-1.1,1c-0.6,0-1-0.5-1-1V45.1z"/>
		<path class="st0" d="M125.6,45.1c0-0.6,0.5-1.1,1-1.1c0.6,0,1.1,0.5,1.1,1.1v0.5c0.6-0.9,1.5-1.6,2.9-1.6c2.1,0,3.3,1.4,3.3,3.5
			v4.9c0,0.6-0.5,1-1,1c-0.6,0-1.1-0.5-1.1-1v-4.3c0-1.4-0.7-2.3-2-2.3c-1.2,0-2.1,0.9-2.1,2.3v4.3c0,0.6-0.5,1-1.1,1
			c-0.6,0-1-0.5-1-1V45.1z"/>
		<path class="st0" d="M140.2,53.5c-2.7,0-4.7-1.9-4.7-4.8v0c0-2.6,1.9-4.8,4.5-4.8c2.9,0,4.4,2.4,4.4,4.6c0,0.6-0.5,1-1,1h-5.8
			c0.2,1.5,1.3,2.3,2.7,2.3c0.9,0,1.6-0.3,2.2-0.8c0.2-0.1,0.3-0.2,0.5-0.2c0.5,0,0.8,0.4,0.8,0.9c0,0.3-0.1,0.5-0.3,0.6
			C142.7,53.1,141.6,53.5,140.2,53.5z M142.3,48.1c-0.1-1.4-0.9-2.4-2.3-2.4c-1.3,0-2.2,1-2.4,2.4H142.3z"/>
		<path class="st0" d="M145.7,52.4c-0.2-0.1-0.4-0.4-0.4-0.7c0-0.5,0.4-0.9,0.9-0.9c0.2,0,0.3,0.1,0.5,0.1c0.9,0.6,1.8,0.9,2.7,0.9
			c0.9,0,1.4-0.4,1.4-1v0c0-0.7-1-1-2.1-1.3c-1.4-0.4-2.9-0.9-2.9-2.7v0c0-1.8,1.5-2.8,3.3-2.8c1,0,2,0.3,2.9,0.8
			c0.3,0.2,0.5,0.4,0.5,0.8c0,0.5-0.4,0.9-0.9,0.9c-0.2,0-0.3,0-0.4-0.1c-0.8-0.4-1.5-0.6-2.2-0.6c-0.8,0-1.3,0.4-1.3,0.9v0
			c0,0.7,1,1,2.1,1.3c1.3,0.4,2.9,1,2.9,2.7v0c0,1.9-1.5,2.9-3.4,2.9C148,53.5,146.7,53.1,145.7,52.4z"/>
		<path class="st0" d="M153.7,52.4c-0.2-0.1-0.4-0.4-0.4-0.7c0-0.5,0.4-0.9,0.9-0.9c0.2,0,0.3,0.1,0.5,0.1c0.9,0.6,1.8,0.9,2.7,0.9
			c0.9,0,1.4-0.4,1.4-1v0c0-0.7-1-1-2.1-1.3c-1.4-0.4-2.9-0.9-2.9-2.7v0c0-1.8,1.5-2.8,3.3-2.8c1,0,2,0.3,2.9,0.8
			c0.3,0.2,0.5,0.4,0.5,0.8c0,0.5-0.4,0.9-0.9,0.9c-0.2,0-0.3,0-0.4-0.1c-0.8-0.4-1.5-0.6-2.2-0.6c-0.8,0-1.3,0.4-1.3,0.9v0
			c0,0.7,1,1,2.1,1.3c1.3,0.4,2.9,1,2.9,2.7v0c0,1.9-1.5,2.9-3.4,2.9C156.1,53.5,154.8,53.1,153.7,52.4z"/>
		<path class="st0" d="M163.3,50.8c0.7,0,1.2,0.5,1.2,1.2v0.2c0,0.7-0.5,1.2-1.2,1.2c-0.7,0-1.2-0.5-1.2-1.2V52
			C162.1,51.4,162.6,50.8,163.3,50.8z"/>
	</g>
</g>
</svg>
