<?xml version="1.0" encoding="utf-8"?>
<!-- Generator: Adobe Illustrator 21.1.0, SVG Export Plug-In . SVG Version: 6.00 Build 0)  -->
<svg version="1.1" id="Layer_2" xmlns="http://www.w3.org/2000/svg" xmlns:xlink="http://www.w3.org/1999/xlink" x="0px" y="0px"
	 viewBox="0 0 300 50" style="enable-background:new 0 0 300 50;" xml:space="preserve">
<style type="text/css">
	.st0{fill:#FFFFFF;}
</style>
<g>
	<path class="st0" d="M62,14.4L62,14.4c0-3.6,2.7-6.6,6.4-6.6c2,0,3.3,0.7,4.5,1.6c0.1,0.1,0.3,0.3,0.3,0.6c0,0.4-0.3,0.7-0.7,0.7
		c-0.2,0-0.4-0.1-0.5-0.2c-1-0.9-2.1-1.4-3.6-1.4c-2.8,0-4.9,2.3-4.9,5.2v0c0,2.9,2.1,5.2,4.9,5.2c1.6,0,2.7-0.5,3.7-1.5
		c0.1-0.1,0.3-0.2,0.5-0.2c0.4,0,0.7,0.3,0.7,0.7c0,0.2-0.1,0.4-0.2,0.5c-1.2,1.1-2.6,1.9-4.7,1.9C64.7,20.9,62,18,62,14.4z"/>
	<path class="st0" d="M74.6,8.1c0-0.4,0.3-0.7,0.7-0.7c0.4,0,0.7,0.3,0.7,0.7V13c0.6-1,1.6-1.8,3.2-1.8c2.3,0,3.6,1.5,3.6,3.7v5.2
		c0,0.4-0.3,0.7-0.7,0.7c-0.4,0-0.7-0.3-0.7-0.7v-4.8c0-1.7-0.9-2.8-2.6-2.8c-1.6,0-2.8,1.2-2.8,2.9v4.7c0,0.4-0.3,0.7-0.7,0.7
		c-0.4,0-0.7-0.3-0.7-0.7V8.1z"/>
	<path class="st0" d="M88.7,20.9c-2.6,0-4.6-2-4.6-4.8v0c0-2.7,1.9-4.8,4.5-4.8c2.8,0,4.3,2.3,4.3,4.7c0,0.4-0.3,0.6-0.6,0.6h-6.7
		c0.2,2,1.6,3.2,3.3,3.2c1.2,0,2-0.5,2.7-1.1c0.1-0.1,0.2-0.2,0.4-0.2c0.3,0,0.6,0.3,0.6,0.6c0,0.2-0.1,0.3-0.2,0.5
		C91.3,20.3,90.2,20.9,88.7,20.9z M91.4,15.5c-0.1-1.7-1.1-3.2-3-3.2c-1.6,0-2.8,1.4-3,3.2H91.4z"/>
	<path class="st0" d="M93.6,16.1L93.6,16.1c0-2.7,2.1-4.9,4.8-4.9c1.5,0,2.6,0.6,3.4,1.4c0.1,0.1,0.2,0.3,0.2,0.5
		c0,0.4-0.3,0.7-0.7,0.7c-0.2,0-0.3-0.1-0.4-0.2c-0.7-0.6-1.4-1.1-2.5-1.1C96.4,12.4,95,14,95,16v0c0,2,1.5,3.6,3.4,3.6
		c1.1,0,1.9-0.5,2.6-1.1c0.1-0.1,0.2-0.2,0.4-0.2c0.3,0,0.6,0.3,0.6,0.6c0,0.2-0.1,0.3-0.2,0.4c-0.9,0.9-1.9,1.5-3.5,1.5
		C95.6,20.9,93.6,18.7,93.6,16.1z"/>
	<path class="st0" d="M103.4,8.1c0-0.4,0.3-0.7,0.7-0.7c0.4,0,0.7,0.3,0.7,0.7v8.5l5-5.1c0.2-0.2,0.3-0.3,0.5-0.3
		c0.4,0,0.6,0.3,0.6,0.6c0,0.2-0.1,0.4-0.3,0.5l-3,3l3.3,4.2c0.1,0.2,0.2,0.3,0.2,0.5c0,0.4-0.3,0.6-0.7,0.6c-0.3,0-0.4-0.1-0.6-0.3
		l-3.2-4.1l-1.9,1.9v1.8c0,0.4-0.3,0.7-0.7,0.7c-0.4,0-0.7-0.3-0.7-0.7V8.1z"/>
	<path class="st0" d="M116.8,8.4c0-0.5,0.4-0.7,0.8-0.7c0.5,0,0.8,0.3,0.8,0.7v0.2c0,0.4-0.4,0.7-0.8,0.7c-0.5,0-0.8-0.3-0.8-0.7
		V8.4z M116.9,12c0-0.4,0.3-0.7,0.7-0.7c0.4,0,0.7,0.3,0.7,0.7v8.1c0,0.4-0.3,0.7-0.7,0.7c-0.4,0-0.7-0.3-0.7-0.7V12z"/>
	<path class="st0" d="M121,12.6h-0.8c-0.3,0-0.6-0.3-0.6-0.6c0-0.3,0.3-0.6,0.6-0.6h0.8v-0.8c0-1.1,0.3-1.9,0.8-2.4
		c0.5-0.5,1.2-0.7,2-0.7c0.5,0,0.8,0,1.1,0.1c0.3,0.1,0.5,0.3,0.5,0.6c0,0.4-0.3,0.6-0.7,0.6c-0.2,0-0.5-0.1-0.8-0.1
		c-1.1,0-1.6,0.6-1.6,2v0.8h2.4c0.3,0,0.6,0.3,0.6,0.6c0,0.3-0.3,0.6-0.6,0.6h-2.4v7.5c0,0.4-0.3,0.7-0.7,0.7
		c-0.4,0-0.7-0.3-0.7-0.7V12.6z"/>
	<path class="st0" d="M130.1,23.3c-0.2-0.1-0.4-0.3-0.4-0.6c0-0.3,0.3-0.6,0.6-0.6c0.1,0,0.2,0,0.3,0.1c0.3,0.1,0.5,0.2,1,0.2
		c0.9,0,1.4-0.5,1.9-1.7l0.1-0.1l-3.9-8.2c-0.1-0.1-0.1-0.3-0.1-0.4c0-0.4,0.3-0.7,0.7-0.7c0.4,0,0.6,0.2,0.7,0.5l3.2,7.3l2.9-7.3
		c0.1-0.3,0.3-0.5,0.7-0.5c0.4,0,0.7,0.3,0.7,0.7c0,0.1,0,0.2-0.1,0.3l-3.6,8.7c-0.8,1.9-1.7,2.6-3.1,2.6
		C131.1,23.6,130.6,23.5,130.1,23.3z"/>
	<path class="st0" d="M138.7,16.1L138.7,16.1c0-2.7,2.1-4.9,4.9-4.9c2.8,0,4.8,2.2,4.8,4.8v0c0,2.6-2.1,4.9-4.9,4.9
		C140.8,20.9,138.7,18.7,138.7,16.1z M147,16.1L147,16.1c0-2-1.5-3.7-3.5-3.7c-2,0-3.4,1.6-3.4,3.6v0c0,2,1.5,3.6,3.4,3.6
		C145.6,19.6,147,18,147,16.1z"/>
	<path class="st0" d="M157.8,20.1c0,0.4-0.3,0.7-0.7,0.7c-0.4,0-0.7-0.3-0.7-0.7v-1c-0.6,1-1.6,1.8-3.2,1.8c-2.3,0-3.6-1.5-3.6-3.7
		V12c0-0.4,0.3-0.7,0.7-0.7c0.4,0,0.7,0.3,0.7,0.7v4.8c0,1.7,0.9,2.8,2.6,2.8c1.6,0,2.8-1.2,2.8-2.9V12c0-0.4,0.3-0.7,0.7-0.7
		c0.4,0,0.7,0.3,0.7,0.7V20.1z"/>
	<path class="st0" d="M159.9,12c0-0.4,0.3-0.7,0.7-0.7c0.4,0,0.7,0.3,0.7,0.7v1.7c0.7-1.5,2-2.5,3.2-2.5c0.4,0,0.7,0.3,0.7,0.7
		c0,0.4-0.3,0.6-0.6,0.7c-1.8,0.2-3.3,1.6-3.3,4.2v3.2c0,0.4-0.3,0.7-0.7,0.7c-0.4,0-0.7-0.3-0.7-0.7V12z"/>
	<path class="st0" d="M170.4,8.1c0-0.4,0.3-0.7,0.7-0.7c0.4,0,0.7,0.3,0.7,0.7v5.1c0.8-1.1,1.9-2.1,3.6-2.1c2.2,0,4.4,1.8,4.4,4.8v0
		c0,3-2.2,4.8-4.4,4.8c-1.7,0-2.8-0.9-3.6-2v1.2c0,0.4-0.3,0.7-0.7,0.7s-0.7-0.3-0.7-0.7V8.1z M178.4,16L178.4,16
		c0-2.2-1.5-3.6-3.3-3.6c-1.7,0-3.4,1.5-3.4,3.6v0c0,2.2,1.6,3.6,3.4,3.6C176.9,19.6,178.4,18.3,178.4,16z"/>
	<path class="st0" d="M189.3,20.1c0,0.4-0.3,0.7-0.7,0.7c-0.4,0-0.7-0.3-0.7-0.7v-1c-0.6,1-1.6,1.8-3.2,1.8c-2.3,0-3.6-1.5-3.6-3.7
		V12c0-0.4,0.3-0.7,0.7-0.7c0.4,0,0.7,0.3,0.7,0.7v4.8c0,1.7,0.9,2.8,2.6,2.8c1.6,0,2.8-1.2,2.8-2.9V12c0-0.4,0.3-0.7,0.7-0.7
		c0.4,0,0.7,0.3,0.7,0.7V20.1z"/>
	<path class="st0" d="M190.8,19.7c-0.1-0.1-0.3-0.3-0.3-0.5c0-0.3,0.3-0.6,0.6-0.6c0.1,0,0.3,0,0.3,0.1c1,0.6,1.9,1,3,1
		c1.1,0,1.9-0.6,1.9-1.5v0c0-0.9-1.1-1.3-2.3-1.6c-1.5-0.4-3.1-0.9-3.1-2.6v0c0-1.6,1.3-2.7,3.2-2.7c1,0,2.1,0.3,3,0.8
		c0.2,0.1,0.3,0.3,0.3,0.6c0,0.3-0.3,0.6-0.6,0.6c-0.1,0-0.2,0-0.3-0.1c-0.8-0.5-1.6-0.7-2.4-0.7c-1.1,0-1.8,0.6-1.8,1.4v0
		c0,0.9,1.2,1.2,2.4,1.6c1.4,0.4,3,1,3,2.7v0c0,1.8-1.5,2.8-3.3,2.8C193.1,20.8,191.8,20.4,190.8,19.7z"/>
	<path class="st0" d="M199.2,8.4c0-0.5,0.4-0.7,0.8-0.7c0.5,0,0.8,0.3,0.8,0.7v0.2c0,0.4-0.4,0.7-0.8,0.7c-0.4,0-0.8-0.3-0.8-0.7
		V8.4z M199.3,12c0-0.4,0.3-0.7,0.7-0.7c0.4,0,0.7,0.3,0.7,0.7v8.1c0,0.4-0.3,0.7-0.7,0.7c-0.4,0-0.7-0.3-0.7-0.7V12z"/>
	<path class="st0" d="M202.8,12c0-0.4,0.3-0.7,0.7-0.7c0.4,0,0.7,0.3,0.7,0.7v1c0.6-1,1.6-1.8,3.2-1.8c2.3,0,3.6,1.5,3.6,3.7v5.2
		c0,0.4-0.3,0.7-0.7,0.7c-0.4,0-0.7-0.3-0.7-0.7v-4.8c0-1.7-0.9-2.8-2.6-2.8c-1.6,0-2.8,1.2-2.8,2.9v4.7c0,0.4-0.3,0.7-0.7,0.7
		c-0.4,0-0.7-0.3-0.7-0.7V12z"/>
	<path class="st0" d="M216.9,20.9c-2.6,0-4.6-2-4.6-4.8v0c0-2.7,1.9-4.8,4.5-4.8c2.8,0,4.3,2.3,4.3,4.7c0,0.4-0.3,0.6-0.6,0.6h-6.7
		c0.2,2,1.6,3.2,3.3,3.2c1.2,0,2-0.5,2.7-1.1c0.1-0.1,0.2-0.2,0.4-0.2c0.3,0,0.6,0.3,0.6,0.6c0,0.2-0.1,0.3-0.2,0.5
		C219.5,20.3,218.5,20.9,216.9,20.9z M219.7,15.5c-0.1-1.7-1.1-3.2-3-3.2c-1.6,0-2.8,1.4-3,3.2H219.7z"/>
	<path class="st0" d="M221.9,19.7c-0.1-0.1-0.3-0.3-0.3-0.5c0-0.3,0.3-0.6,0.6-0.6c0.1,0,0.3,0,0.3,0.1c1,0.6,1.9,1,3,1
		c1.1,0,1.9-0.6,1.9-1.5v0c0-0.9-1.1-1.3-2.3-1.6c-1.5-0.4-3.1-0.9-3.1-2.6v0c0-1.6,1.3-2.7,3.2-2.7c1,0,2.1,0.3,3,0.8
		c0.2,0.1,0.3,0.3,0.3,0.6c0,0.3-0.3,0.6-0.6,0.6c-0.1,0-0.2,0-0.3-0.1c-0.8-0.5-1.6-0.7-2.4-0.7c-1.1,0-1.8,0.6-1.8,1.4v0
		c0,0.9,1.2,1.2,2.4,1.6c1.4,0.4,3,1,3,2.7v0c0,1.8-1.5,2.8-3.3,2.8C224.3,20.8,222.9,20.4,221.9,19.7z"/>
	<path class="st0" d="M229.6,19.7c-0.1-0.1-0.3-0.3-0.3-0.5c0-0.3,0.3-0.6,0.6-0.6c0.1,0,0.3,0,0.3,0.1c1,0.6,1.9,1,3,1
		c1.1,0,1.9-0.6,1.9-1.5v0c0-0.9-1.1-1.3-2.3-1.6c-1.5-0.4-3.1-0.9-3.1-2.6v0c0-1.6,1.3-2.7,3.2-2.7c1,0,2.1,0.3,3,0.8
		c0.2,0.1,0.3,0.3,0.3,0.6c0,0.3-0.3,0.6-0.6,0.6c-0.1,0-0.2,0-0.3-0.1c-0.8-0.5-1.6-0.7-2.4-0.7c-1.1,0-1.8,0.6-1.8,1.4v0
		c0,0.9,1.2,1.2,2.4,1.6c1.4,0.4,3,1,3,2.7v0c0,1.8-1.5,2.8-3.3,2.8C232,20.8,230.6,20.4,229.6,19.7z"/>
	<path class="st0" d="M67.8,40.1c0,0.4-0.3,0.7-0.7,0.7c-0.4,0-0.7-0.3-0.7-0.7v-1.3c-0.8,1.1-1.9,2.1-3.6,2.1
		c-2.2,0-4.4-1.8-4.4-4.8v0c0-3,2.2-4.8,4.4-4.8c1.7,0,2.8,0.9,3.6,2v-5c0-0.4,0.3-0.7,0.7-0.7c0.4,0,0.7,0.3,0.7,0.7V40.1z
		 M59.8,36L59.8,36c0,2.2,1.5,3.6,3.3,3.6c1.7,0,3.4-1.5,3.4-3.6v0c0-2.1-1.6-3.6-3.4-3.6C61.3,32.4,59.8,33.7,59.8,36z"/>
	<path class="st0" d="M73.9,40.9c-2.6,0-4.6-2-4.6-4.8v0c0-2.7,1.9-4.8,4.5-4.8c2.8,0,4.3,2.3,4.3,4.7c0,0.4-0.3,0.6-0.6,0.6h-6.7
		c0.2,2,1.6,3.2,3.3,3.2c1.2,0,2-0.5,2.7-1.1c0.1-0.1,0.2-0.2,0.4-0.2c0.3,0,0.6,0.3,0.6,0.6c0,0.2-0.1,0.3-0.2,0.5
		C76.5,40.3,75.5,40.9,73.9,40.9z M76.7,35.5c-0.1-1.7-1.1-3.2-3-3.2c-1.6,0-2.8,1.4-3,3.2H76.7z"/>
	<path class="st0" d="M82.7,40.8L82.7,40.8c-0.5,0-0.7-0.2-0.9-0.6l-3.5-7.9c0-0.1-0.1-0.3-0.1-0.4c0-0.4,0.3-0.7,0.7-0.7
		c0.4,0,0.6,0.2,0.7,0.5l3,7.3l3.1-7.3c0.1-0.3,0.3-0.5,0.6-0.5c0.4,0,0.7,0.3,0.7,0.7c0,0.1,0,0.3-0.1,0.3l-3.5,7.9
		C83.3,40.6,83.1,40.8,82.7,40.8z"/>
	<path class="st0" d="M88.4,28.4c0-0.5,0.4-0.7,0.8-0.7c0.5,0,0.8,0.3,0.8,0.7v0.2c0,0.4-0.4,0.7-0.8,0.7c-0.5,0-0.8-0.3-0.8-0.7
		V28.4z M88.5,32c0-0.4,0.3-0.7,0.7-0.7c0.4,0,0.7,0.3,0.7,0.7v8.1c0,0.4-0.3,0.7-0.7,0.7c-0.4,0-0.7-0.3-0.7-0.7V32z"/>
	<path class="st0" d="M91.5,36.1L91.5,36.1c0-2.7,2.1-4.9,4.8-4.9c1.5,0,2.6,0.6,3.4,1.4c0.1,0.1,0.2,0.3,0.2,0.5
		c0,0.4-0.3,0.7-0.7,0.7c-0.2,0-0.3-0.1-0.5-0.2c-0.7-0.6-1.4-1.1-2.5-1.1c-1.9,0-3.3,1.6-3.3,3.6v0c0,2,1.5,3.6,3.4,3.6
		c1.1,0,1.9-0.5,2.6-1.1c0.1-0.1,0.2-0.2,0.4-0.2c0.3,0,0.6,0.3,0.6,0.6c0,0.2-0.1,0.3-0.2,0.4c-0.9,0.9-1.9,1.5-3.5,1.5
		C93.5,40.9,91.5,38.7,91.5,36.1z"/>
	<path class="st0" d="M105.1,40.9c-2.6,0-4.6-2-4.6-4.8v0c0-2.7,1.9-4.8,4.5-4.8c2.8,0,4.3,2.3,4.3,4.7c0,0.4-0.3,0.6-0.6,0.6h-6.7
		c0.2,2,1.6,3.2,3.3,3.2c1.2,0,2-0.5,2.7-1.1c0.1-0.1,0.2-0.2,0.4-0.2c0.3,0,0.6,0.3,0.6,0.6c0,0.2-0.1,0.3-0.2,0.5
		C107.7,40.3,106.6,40.9,105.1,40.9z M107.8,35.5c-0.1-1.7-1.1-3.2-3-3.2c-1.6,0-2.8,1.4-3,3.2H107.8z"/>
	<path class="st0" d="M110.1,39.7c-0.1-0.1-0.3-0.3-0.3-0.5c0-0.3,0.3-0.6,0.6-0.6c0.1,0,0.3,0,0.3,0.1c1,0.6,1.9,1,3,1
		c1.1,0,1.9-0.6,1.9-1.5v0c0-0.9-1.1-1.3-2.3-1.6c-1.5-0.4-3.1-0.9-3.1-2.6v0c0-1.6,1.3-2.7,3.2-2.7c1,0,2.1,0.3,3,0.8
		c0.2,0.1,0.3,0.3,0.3,0.6c0,0.3-0.3,0.6-0.6,0.6c-0.1,0-0.2,0-0.3-0.1c-0.8-0.5-1.6-0.7-2.4-0.7c-1.1,0-1.8,0.6-1.8,1.4v0
		c0,0.9,1.2,1.2,2.4,1.6c1.4,0.4,3,1,3,2.7v0c0,1.8-1.5,2.8-3.3,2.8C112.4,40.8,111.1,40.4,110.1,39.7z"/>
	<path class="st0" d="M122.1,38L122.1,38c0-2,1.6-3,4-3c1.2,0,2,0.2,2.9,0.4V35c0-1.7-1-2.5-2.8-2.5c-0.9,0-1.7,0.2-2.4,0.5
		c-0.1,0-0.2,0.1-0.3,0.1c-0.3,0-0.6-0.3-0.6-0.6c0-0.3,0.2-0.5,0.4-0.6c0.9-0.4,1.9-0.6,3-0.6c1.3,0,2.3,0.3,3,1
		c0.6,0.6,1,1.5,1,2.7v5.1c0,0.4-0.3,0.7-0.7,0.7c-0.4,0-0.7-0.3-0.7-0.6v-0.8c-0.6,0.8-1.7,1.6-3.4,1.6
		C123.8,40.9,122.1,39.9,122.1,38z M128.9,37.2v-0.9c-0.7-0.2-1.6-0.4-2.7-0.4c-1.7,0-2.7,0.8-2.7,1.9v0c0,1.2,1.1,1.9,2.3,1.9
		C127.5,39.8,128.9,38.7,128.9,37.2z"/>
	<path class="st0" d="M132.1,32c0-0.4,0.3-0.7,0.7-0.7c0.4,0,0.7,0.3,0.7,0.7v1.7c0.7-1.5,2-2.5,3.2-2.5c0.4,0,0.7,0.3,0.7,0.7
		c0,0.4-0.3,0.6-0.6,0.7c-1.8,0.2-3.3,1.6-3.3,4.2v3.2c0,0.4-0.3,0.7-0.7,0.7c-0.4,0-0.7-0.3-0.7-0.7V32z"/>
	<path class="st0" d="M142,40.9c-2.6,0-4.6-2-4.6-4.8v0c0-2.7,1.9-4.8,4.5-4.8c2.8,0,4.3,2.3,4.3,4.7c0,0.4-0.3,0.6-0.6,0.6h-6.7
		c0.2,2,1.6,3.2,3.3,3.2c1.2,0,2-0.5,2.7-1.1c0.1-0.1,0.2-0.2,0.4-0.2c0.3,0,0.6,0.3,0.6,0.6c0,0.2-0.1,0.3-0.2,0.5
		C144.6,40.3,143.6,40.9,142,40.9z M144.7,35.5c-0.1-1.7-1.1-3.2-3-3.2c-1.6,0-2.8,1.4-3,3.2H144.7z"/>
	<path class="st0" d="M151.2,36.1L151.2,36.1c0-2.7,2.1-4.9,4.8-4.9c1.5,0,2.6,0.6,3.4,1.4c0.1,0.1,0.2,0.3,0.2,0.5
		c0,0.4-0.3,0.7-0.7,0.7c-0.2,0-0.3-0.1-0.4-0.2c-0.7-0.6-1.4-1.1-2.5-1.1c-1.9,0-3.3,1.6-3.3,3.6v0c0,2,1.5,3.6,3.4,3.6
		c1.1,0,1.9-0.5,2.6-1.1c0.1-0.1,0.2-0.2,0.4-0.2c0.3,0,0.6,0.3,0.6,0.6c0,0.2-0.1,0.3-0.2,0.4c-0.9,0.9-1.9,1.5-3.5,1.5
		C153.3,40.9,151.2,38.7,151.2,36.1z"/>
	<path class="st0" d="M160.2,36.1L160.2,36.1c0-2.7,2.1-4.9,4.9-4.9c2.8,0,4.8,2.2,4.8,4.8v0c0,2.6-2.1,4.9-4.9,4.9
		C162.2,40.9,160.2,38.7,160.2,36.1z M168.5,36.1L168.5,36.1c0-2-1.5-3.7-3.5-3.7c-2,0-3.4,1.6-3.4,3.6v0c0,2,1.5,3.6,3.4,3.6
		C167.1,39.6,168.5,38,168.5,36.1z"/>
	<path class="st0" d="M171.3,32c0-0.4,0.3-0.7,0.7-0.7c0.4,0,0.7,0.3,0.7,0.7v1c0.6-0.9,1.4-1.8,3-1.8c1.5,0,2.5,0.8,3,1.9
		c0.7-1,1.7-1.9,3.3-1.9c2.1,0,3.5,1.4,3.5,3.7v5.1c0,0.4-0.3,0.7-0.7,0.7c-0.4,0-0.7-0.3-0.7-0.7v-4.8c0-1.8-0.9-2.8-2.4-2.8
		c-1.4,0-2.6,1-2.6,2.9v4.8c0,0.4-0.3,0.7-0.7,0.7c-0.4,0-0.7-0.3-0.7-0.7v-4.9c0-1.7-0.9-2.8-2.4-2.8s-2.6,1.2-2.6,2.9v4.7
		c0,0.4-0.3,0.7-0.7,0.7c-0.4,0-0.7-0.3-0.7-0.7V32z"/>
	<path class="st0" d="M187.3,32c0-0.4,0.3-0.7,0.7-0.7c0.4,0,0.7,0.3,0.7,0.7v1.3c0.8-1.1,1.9-2.1,3.6-2.1c2.2,0,4.4,1.8,4.4,4.8v0
		c0,3-2.2,4.8-4.4,4.8c-1.7,0-2.8-0.9-3.6-2v4.1c0,0.4-0.3,0.7-0.7,0.7c-0.4,0-0.7-0.3-0.7-0.7V32z M195.3,36L195.3,36
		c0-2.2-1.5-3.6-3.3-3.6c-1.7,0-3.4,1.5-3.4,3.6v0c0,2.2,1.6,3.6,3.4,3.6C193.8,39.6,195.3,38.3,195.3,36z"/>
	<path class="st0" d="M197.5,38L197.5,38c0-2,1.6-3,4-3c1.2,0,2,0.2,2.9,0.4V35c0-1.7-1-2.5-2.8-2.5c-0.9,0-1.7,0.2-2.4,0.5
		c-0.1,0-0.2,0.1-0.3,0.1c-0.3,0-0.6-0.3-0.6-0.6c0-0.3,0.2-0.5,0.4-0.6c0.9-0.4,1.9-0.6,3-0.6c1.3,0,2.3,0.3,3,1
		c0.6,0.6,1,1.5,1,2.7v5.1c0,0.4-0.3,0.7-0.7,0.7c-0.4,0-0.7-0.3-0.7-0.6v-0.8c-0.6,0.8-1.7,1.6-3.4,1.6
		C199.2,40.9,197.5,39.9,197.5,38z M204.4,37.2v-0.9c-0.7-0.2-1.6-0.4-2.7-0.4c-1.7,0-2.7,0.8-2.7,1.9v0c0,1.2,1.1,1.9,2.3,1.9
		C203,39.8,204.4,38.7,204.4,37.2z"/>
	<path class="st0" d="M207.9,38.2v-5.6h-0.8c-0.3,0-0.6-0.3-0.6-0.6c0-0.3,0.3-0.6,0.6-0.6h0.8v-2.2c0-0.4,0.3-0.7,0.7-0.7
		c0.4,0,0.7,0.3,0.7,0.7v2.2h2.4c0.3,0,0.6,0.3,0.6,0.6c0,0.3-0.3,0.6-0.6,0.6h-2.4V38c0,1.1,0.6,1.5,1.6,1.5c0.5,0,0.7-0.1,0.8-0.1
		c0.3,0,0.6,0.3,0.6,0.6c0,0.3-0.2,0.5-0.4,0.5c-0.4,0.2-0.8,0.3-1.4,0.3C209.1,40.8,207.9,40.1,207.9,38.2z"/>
	<path class="st0" d="M213.7,28.4c0-0.5,0.4-0.7,0.8-0.7c0.5,0,0.8,0.3,0.8,0.7v0.2c0,0.4-0.4,0.7-0.8,0.7c-0.5,0-0.8-0.3-0.8-0.7
		V28.4z M213.8,32c0-0.4,0.3-0.7,0.7-0.7c0.4,0,0.7,0.3,0.7,0.7v8.1c0,0.4-0.3,0.7-0.7,0.7s-0.7-0.3-0.7-0.7V32z"/>
	<path class="st0" d="M217.3,28.1c0-0.4,0.3-0.7,0.7-0.7c0.4,0,0.7,0.3,0.7,0.7v5.1c0.8-1.1,1.9-2.1,3.6-2.1c2.2,0,4.4,1.8,4.4,4.8
		v0c0,3-2.2,4.8-4.4,4.8c-1.7,0-2.8-0.9-3.6-2v1.2c0,0.4-0.3,0.7-0.7,0.7s-0.7-0.3-0.7-0.7V28.1z M225.3,36L225.3,36
		c0-2.2-1.5-3.6-3.3-3.6c-1.7,0-3.4,1.5-3.4,3.6v0c0,2.2,1.6,3.6,3.4,3.6C223.8,39.6,225.3,38.3,225.3,36z"/>
	<path class="st0" d="M228.3,28.1c0-0.4,0.3-0.7,0.7-0.7c0.4,0,0.7,0.3,0.7,0.7v11.9c0,0.4-0.3,0.7-0.7,0.7s-0.7-0.3-0.7-0.7V28.1z"
		/>
	<path class="st0" d="M235.9,40.9c-2.6,0-4.6-2-4.6-4.8v0c0-2.7,1.9-4.8,4.5-4.8c2.8,0,4.3,2.3,4.3,4.7c0,0.4-0.3,0.6-0.6,0.6h-6.7
		c0.2,2,1.6,3.2,3.3,3.2c1.2,0,2-0.5,2.7-1.1c0.1-0.1,0.2-0.2,0.4-0.2c0.3,0,0.6,0.3,0.6,0.6c0,0.2-0.1,0.3-0.2,0.5
		C238.5,40.3,237.5,40.9,235.9,40.9z M238.7,35.5c-0.1-1.7-1.1-3.2-3-3.2c-1.6,0-2.8,1.4-3,3.2H238.7z"/>
</g>
</svg>
