<?xml version="1.0" encoding="utf-8"?>
<!-- Generator: Adobe Illustrator 21.1.0, SVG Export Plug-In . SVG Version: 6.00 Build 0)  -->
<svg version="1.1" id="Layer_2" xmlns="http://www.w3.org/2000/svg" xmlns:xlink="http://www.w3.org/1999/xlink" x="0px" y="0px"
	 viewBox="0 0 300 50" style="enable-background:new 0 0 300 50;" xml:space="preserve">
<style type="text/css">
	.st0{fill:#133C7D;}
</style>
<g>
	<path class="st0" d="M64.3,10.5c0-0.6,0.5-1.1,1.1-1.1H70c1.6,0,2.8,0.5,3.6,1.3c0.7,0.7,1,1.6,1,2.7v0c0,2-1.2,3.2-2.9,3.8l2.4,3
		c0.2,0.3,0.4,0.5,0.4,0.8c0,0.6-0.5,1-1.1,1c-0.5,0-0.8-0.2-1.1-0.6l-3.1-3.9h-2.8V21c0,0.6-0.5,1.1-1.1,1.1
		c-0.6,0-1.1-0.5-1.1-1.1V10.5z M69.8,15.6c1.6,0,2.6-0.8,2.6-2.1v0c0-1.4-1-2.1-2.6-2.1h-3.2v4.2H69.8z"/>
	<path class="st0" d="M80.4,22.2c-2.8,0-4.9-2-4.9-4.9v0c0-2.7,1.9-5,4.6-5c3,0,4.5,2.5,4.5,4.7c0,0.6-0.5,1-1,1h-6
		c0.2,1.5,1.3,2.4,2.7,2.4c0.9,0,1.6-0.3,2.3-0.8c0.2-0.1,0.3-0.2,0.6-0.2c0.5,0,0.9,0.4,0.9,0.9c0,0.3-0.1,0.5-0.3,0.7
		C82.9,21.7,81.9,22.2,80.4,22.2z M82.5,16.6c-0.1-1.4-1-2.5-2.4-2.5c-1.3,0-2.3,1-2.5,2.5H82.5z"/>
	<path class="st0" d="M86.1,9.8c0-0.6,0.5-1.1,1.1-1.1s1.1,0.5,1.1,1.1V21c0,0.6-0.5,1.1-1.1,1.1c-0.6,0-1.1-0.5-1.1-1.1V9.8z"/>
	<path class="st0" d="M90.5,24.7c-0.3-0.1-0.7-0.4-0.7-0.9c0-0.5,0.4-0.9,0.9-0.9c0.2,0,0.3,0,0.4,0.1c0.3,0.1,0.5,0.1,0.8,0.1
		c0.6,0,1-0.3,1.4-1l0.1-0.2L89.7,14c-0.1-0.2-0.1-0.4-0.1-0.5c0-0.6,0.5-1.1,1.1-1.1c0.6,0,0.9,0.3,1.1,0.8l2.6,6.3l2.4-6.3
		c0.2-0.5,0.5-0.8,1-0.8c0.6,0,1,0.5,1,1c0,0.2-0.1,0.4-0.1,0.5l-3.5,8.3c-0.8,1.9-1.7,2.7-3.2,2.7C91.4,24.9,90.9,24.8,90.5,24.7z"
		/>
	<path class="st0" d="M103.9,17.3L103.9,17.3c0-2.8,2.2-5,5.1-5s5.1,2.2,5.1,4.9v0c0,2.7-2.2,5-5.1,5C106,22.2,103.9,20,103.9,17.3z
		 M111.9,17.3L111.9,17.3c0-1.7-1.2-3.1-2.9-3.1c-1.7,0-2.9,1.4-2.9,3v0c0,1.7,1.2,3,2.9,3C110.7,20.3,111.9,18.9,111.9,17.3z"/>
	<path class="st0" d="M115.3,13.5c0-0.6,0.5-1.1,1.1-1.1s1.1,0.5,1.1,1.1V14c0.6-0.9,1.5-1.7,3-1.7c2.1,0,3.4,1.4,3.4,3.6V21
		c0,0.6-0.5,1.1-1.1,1.1c-0.6,0-1.1-0.5-1.1-1.1v-4.4c0-1.5-0.7-2.3-2-2.3c-1.3,0-2.1,0.9-2.1,2.4V21c0,0.6-0.5,1.1-1.1,1.1
		c-0.6,0-1.1-0.5-1.1-1.1V13.5z"/>
	<path class="st0" d="M134.5,22.2c-2.8,0-4.9-2-4.9-4.9v0c0-2.7,1.9-5,4.6-5c3,0,4.5,2.5,4.5,4.7c0,0.6-0.5,1-1,1h-6
		c0.2,1.5,1.3,2.4,2.7,2.4c0.9,0,1.6-0.3,2.3-0.8c0.2-0.1,0.3-0.2,0.6-0.2c0.5,0,0.9,0.4,0.9,0.9c0,0.3-0.1,0.5-0.3,0.7
		C137,21.7,135.9,22.2,134.5,22.2z M136.6,16.6c-0.1-1.4-1-2.5-2.4-2.5c-1.3,0-2.3,1-2.5,2.5H136.6z"/>
	<path class="st0" d="M140.6,14.4h-0.4c-0.5,0-0.9-0.4-0.9-0.9c0-0.5,0.4-0.9,0.9-0.9h0.4v-0.7c0-1,0.3-1.8,0.8-2.3
		c0.5-0.5,1.2-0.8,2.1-0.8c0.4,0,0.8,0,1.1,0.1c0.4,0.1,0.8,0.4,0.8,0.9c0,0.5-0.4,0.9-0.9,0.9c-0.1,0-0.3,0-0.4,0
		c-0.8,0-1.3,0.5-1.3,1.4v0.5h1.7c0.5,0,0.9,0.4,0.9,0.9c0,0.5-0.4,0.9-0.9,0.9h-1.7V21c0,0.6-0.5,1.1-1.1,1.1
		c-0.6,0-1.1-0.5-1.1-1.1V14.4z"/>
	<path class="st0" d="M146.4,19.4v-5H146c-0.5,0-0.9-0.4-0.9-0.9c0-0.5,0.4-0.9,0.9-0.9h0.4v-1.6c0-0.6,0.5-1.1,1.1-1.1
		c0.6,0,1.1,0.5,1.1,1.1v1.6h1.7c0.5,0,1,0.4,1,0.9c0,0.5-0.4,0.9-1,0.9h-1.7V19c0,0.8,0.4,1.2,1.2,1.2c0.3,0,0.5-0.1,0.5-0.1
		c0.5,0,0.9,0.4,0.9,0.9c0,0.4-0.3,0.7-0.6,0.8c-0.5,0.2-0.9,0.3-1.5,0.3C147.5,22.2,146.4,21.5,146.4,19.4z"/>
	<path class="st0" d="M152.4,13.5c0-0.6,0.5-1.1,1.1-1.1s1.1,0.5,1.1,1.1v0.6c0.7-1,1.7-1.8,3.2-1.8c2.2,0,4.4,1.8,4.4,4.9v0
		c0,3.2-2.2,4.9-4.4,4.9c-1.6,0-2.6-0.8-3.2-1.7v3.4c0,0.6-0.5,1.1-1.1,1.1c-0.6,0-1.1-0.5-1.1-1.1V13.5z M160.1,17.3L160.1,17.3
		c0-1.9-1.2-3.1-2.7-3.1c-1.5,0-2.8,1.2-2.8,3v0c0,1.8,1.3,3,2.8,3C158.8,20.3,160.1,19.1,160.1,17.3z"/>
	<path class="st0" d="M163.1,17.3L163.1,17.3c0-2.8,2.2-5,5.1-5s5.1,2.2,5.1,4.9v0c0,2.7-2.2,5-5.1,5
		C165.2,22.2,163.1,20,163.1,17.3z M171.1,17.3L171.1,17.3c0-1.7-1.2-3.1-2.9-3.1c-1.7,0-2.9,1.4-2.9,3v0c0,1.7,1.2,3,2.9,3
		C169.9,20.3,171.1,18.9,171.1,17.3z"/>
	<path class="st0" d="M174.2,21c-0.2-0.1-0.4-0.4-0.4-0.8c0-0.5,0.4-0.9,0.9-0.9c0.2,0,0.3,0.1,0.5,0.1c0.9,0.6,1.9,0.9,2.7,0.9
		c0.9,0,1.5-0.4,1.5-1v0c0-0.7-1-1-2.1-1.3c-1.4-0.4-3-1-3-2.8v0c0-1.8,1.5-2.9,3.4-2.9c1,0,2.1,0.3,3,0.8c0.3,0.2,0.5,0.5,0.5,0.8
		c0,0.5-0.4,0.9-0.9,0.9c-0.2,0-0.3,0-0.4-0.1c-0.8-0.4-1.6-0.6-2.2-0.6c-0.8,0-1.3,0.4-1.3,0.9v0c0,0.7,1,1,2.1,1.4
		c1.4,0.4,3,1.1,3,2.8v0c0,2-1.5,3-3.5,3C176.6,22.2,175.3,21.8,174.2,21z"/>
	<path class="st0" d="M182.2,23.6c0.8-0.3,1.3-0.8,1.2-1.6c-0.5-0.1-1-0.6-1-1.2v-0.1c0-0.7,0.5-1.2,1.2-1.2c0.8,0,1.3,0.6,1.3,1.6
		v0.2c0,1.2-0.3,2.1-0.9,2.6c-0.5,0.5-1.2,0.8-1.7,0.8c-0.4,0-0.6-0.2-0.6-0.5C181.8,23.9,182,23.7,182.2,23.6z"/>
	<path class="st0" d="M191.6,14.4h-0.4c-0.5,0-0.9-0.4-0.9-0.9c0-0.5,0.4-0.9,0.9-0.9h0.4v-0.7c0-1,0.3-1.8,0.8-2.3
		c0.5-0.5,1.2-0.8,2.1-0.8c0.4,0,0.8,0,1.1,0.1c0.4,0.1,0.8,0.4,0.8,0.9c0,0.5-0.4,0.9-0.9,0.9c-0.1,0-0.3,0-0.4,0
		c-0.8,0-1.3,0.5-1.3,1.4v0.5h1.7c0.5,0,0.9,0.4,0.9,0.9c0,0.5-0.4,0.9-0.9,0.9h-1.7V21c0,0.6-0.5,1.1-1.1,1.1
		c-0.6,0-1.1-0.5-1.1-1.1V14.4z"/>
	<path class="st0" d="M196.1,19.3L196.1,19.3c0-2.1,1.6-3.1,3.9-3.1c1.1,0,1.8,0.2,2.6,0.4v-0.2c0-1.4-0.8-2.1-2.4-2.1
		c-0.8,0-1.5,0.1-2.1,0.4c-0.1,0-0.2,0.1-0.3,0.1c-0.5,0-0.9-0.4-0.9-0.9c0-0.4,0.3-0.7,0.6-0.9c0.9-0.3,1.8-0.6,3.1-0.6
		c1.4,0,2.5,0.4,3.2,1.1c0.7,0.7,1,1.7,1,2.9V21c0,0.6-0.5,1-1.1,1c-0.6,0-1.1-0.4-1.1-0.9v-0.4c-0.6,0.8-1.6,1.4-3.1,1.4
		C197.7,22.2,196.1,21.2,196.1,19.3z M202.6,18.6v-0.6c-0.6-0.2-1.3-0.4-2.2-0.4c-1.4,0-2.2,0.6-2.2,1.6v0c0,0.9,0.8,1.4,1.9,1.4
		C201.5,20.6,202.6,19.8,202.6,18.6z"/>
	<path class="st0" d="M206.2,20.4l2.7-3.2l-2.5-3c-0.2-0.3-0.4-0.5-0.4-0.8c0-0.6,0.5-1,1-1c0.4,0,0.7,0.2,1,0.5l2.1,2.8l2.2-2.8
		c0.3-0.3,0.6-0.6,0.9-0.6c0.6,0,1,0.4,1,1c0,0.3-0.1,0.5-0.3,0.7l-2.6,3.1l2.7,3.2c0.2,0.3,0.4,0.5,0.4,0.8c0,0.6-0.5,1-1,1
		c-0.4,0-0.7-0.2-1-0.6l-2.3-3l-2.3,3c-0.3,0.3-0.6,0.6-1,0.6c-0.6,0-1-0.4-1-1C205.9,20.9,206,20.6,206.2,20.4z"/>
	<path class="st0" d="M219.8,17.3L219.8,17.3c0-2.8,2.2-5,5.1-5c2.9,0,5.1,2.2,5.1,4.9v0c0,2.7-2.2,5-5.1,5
		C221.9,22.2,219.8,20,219.8,17.3z M227.7,17.3L227.7,17.3c0-1.7-1.2-3.1-2.9-3.1c-1.7,0-2.9,1.4-2.9,3v0c0,1.7,1.2,3,2.9,3
		C226.6,20.3,227.7,18.9,227.7,17.3z"/>
	<path class="st0" d="M231.2,13.5c0-0.6,0.5-1.1,1.1-1.1c0.6,0,1.1,0.5,1.1,1.1v1c0.5-1.2,1.4-2.1,2.4-2.1c0.7,0,1.1,0.5,1.1,1.1
		c0,0.6-0.4,1-0.9,1c-1.5,0.3-2.6,1.5-2.6,3.7V21c0,0.6-0.5,1.1-1.1,1.1c-0.6,0-1.1-0.5-1.1-1.1V13.5z"/>
	<path class="st0" d="M39.7,33.5c0-0.6,0.5-1.1,1.1-1.1s1.1,0.5,1.1,1.1v0.5c0.6-0.8,1.4-1.6,2.9-1.6c1.4,0,2.3,0.7,2.8,1.7
		c0.8-1,1.8-1.7,3.2-1.7c2.1,0,3.3,1.3,3.3,3.6V41c0,0.6-0.5,1.1-1.1,1.1c-0.6,0-1.1-0.5-1.1-1.1v-4.4c0-1.5-0.7-2.3-1.9-2.3
		c-1.2,0-2,0.8-2,2.4V41c0,0.6-0.5,1.1-1.1,1.1c-0.6,0-1.1-0.5-1.1-1.1v-4.4c0-1.5-0.7-2.3-1.9-2.3c-1.2,0-2,0.9-2,2.4V41
		c0,0.6-0.5,1.1-1.1,1.1c-0.6,0-1.1-0.5-1.1-1.1V33.5z"/>
	<path class="st0" d="M55.4,37.3L55.4,37.3c0-2.8,2.2-5,5.1-5s5.1,2.2,5.1,4.9v0c0,2.7-2.2,5-5.1,5C57.5,42.2,55.4,40,55.4,37.3z
		 M63.3,37.3L63.3,37.3c0-1.7-1.2-3.1-2.9-3.1c-1.7,0-2.9,1.4-2.9,3v0c0,1.7,1.2,3,2.9,3C62.2,40.3,63.3,38.9,63.3,37.3z"/>
	<path class="st0" d="M66.8,33.5c0-0.6,0.5-1.1,1.1-1.1s1.1,0.5,1.1,1.1V34c0.6-0.9,1.5-1.7,3-1.7c2.1,0,3.4,1.4,3.4,3.6V41
		c0,0.6-0.5,1.1-1.1,1.1c-0.6,0-1.1-0.5-1.1-1.1v-4.4c0-1.5-0.7-2.3-2-2.3c-1.3,0-2.1,0.9-2.1,2.4V41c0,0.6-0.5,1.1-1.1,1.1
		c-0.6,0-1.1-0.5-1.1-1.1V33.5z"/>
	<path class="st0" d="M77,29.9c0-0.6,0.5-1.1,1.2-1.1s1.2,0.4,1.2,1.1V30c0,0.6-0.5,1.1-1.2,1.1S77,30.7,77,30V29.9z M77.2,33.5
		c0-0.6,0.5-1.1,1.1-1.1s1.1,0.5,1.1,1.1V41c0,0.6-0.5,1.1-1.1,1.1c-0.6,0-1.1-0.5-1.1-1.1V33.5z"/>
	<path class="st0" d="M81.8,39.4v-5h-0.4c-0.5,0-0.9-0.4-0.9-0.9c0-0.5,0.4-0.9,0.9-0.9h0.4v-1.6c0-0.6,0.5-1.1,1.1-1.1
		c0.6,0,1.1,0.5,1.1,1.1v1.6h1.7c0.5,0,1,0.4,1,0.9c0,0.5-0.4,0.9-1,0.9H84V39c0,0.8,0.4,1.2,1.2,1.2c0.3,0,0.5-0.1,0.5-0.1
		c0.5,0,0.9,0.4,0.9,0.9c0,0.4-0.3,0.7-0.6,0.8c-0.5,0.2-0.9,0.3-1.5,0.3C82.9,42.2,81.8,41.5,81.8,39.4z"/>
	<path class="st0" d="M87,37.3L87,37.3c0-2.8,2.2-5,5.1-5s5.1,2.2,5.1,4.9v0c0,2.7-2.2,5-5.1,5C89.2,42.2,87,40,87,37.3z M95,37.3
		L95,37.3c0-1.7-1.2-3.1-2.9-3.1c-1.7,0-2.9,1.4-2.9,3v0c0,1.7,1.2,3,2.9,3C93.9,40.3,95,38.9,95,37.3z"/>
	<path class="st0" d="M98.5,33.5c0-0.6,0.5-1.1,1.1-1.1s1.1,0.5,1.1,1.1v1c0.5-1.2,1.4-2.1,2.4-2.1c0.7,0,1.1,0.5,1.1,1.1
		c0,0.6-0.4,1-0.9,1c-1.5,0.3-2.6,1.5-2.6,3.7V41c0,0.6-0.5,1.1-1.1,1.1c-0.6,0-1.1-0.5-1.1-1.1V33.5z"/>
	<path class="st0" d="M109,42.2c-2.8,0-4.9-2-4.9-4.9v0c0-2.7,1.9-5,4.6-5c3,0,4.5,2.5,4.5,4.7c0,0.6-0.5,1-1,1h-6
		c0.2,1.5,1.3,2.4,2.7,2.4c0.9,0,1.6-0.3,2.3-0.8c0.2-0.1,0.3-0.2,0.6-0.2c0.5,0,0.9,0.4,0.9,0.9c0,0.3-0.1,0.5-0.3,0.7
		C111.6,41.7,110.5,42.2,109,42.2z M111.2,36.6c-0.1-1.4-1-2.5-2.4-2.5c-1.3,0-2.3,1-2.5,2.5H111.2z"/>
	<path class="st0" d="M124,41c0,0.6-0.5,1.1-1.1,1.1c-0.6,0-1.1-0.5-1.1-1.1v-0.6c-0.7,1-1.7,1.8-3.2,1.8c-2.2,0-4.4-1.8-4.4-4.9v0
		c0-3.2,2.1-4.9,4.4-4.9c1.6,0,2.6,0.8,3.2,1.7v-4.1c0-0.6,0.5-1.1,1.1-1.1c0.6,0,1.1,0.5,1.1,1.1V41z M116.4,37.2L116.4,37.2
		c0,1.9,1.3,3.1,2.7,3.1c1.5,0,2.8-1.2,2.8-3v0c0-1.8-1.3-3-2.8-3C117.6,34.2,116.4,35.3,116.4,37.2z"/>
	<path class="st0" d="M130,41c-0.2-0.1-0.4-0.4-0.4-0.8c0-0.5,0.4-0.9,0.9-0.9c0.2,0,0.3,0.1,0.5,0.1c0.9,0.6,1.9,0.9,2.7,0.9
		c0.9,0,1.5-0.4,1.5-1v0c0-0.7-1-1-2.1-1.3c-1.4-0.4-3-1-3-2.8v0c0-1.8,1.5-2.9,3.4-2.9c1,0,2.1,0.3,3,0.8c0.3,0.2,0.5,0.5,0.5,0.8
		c0,0.5-0.4,0.9-0.9,0.9c-0.2,0-0.3,0-0.4-0.1c-0.8-0.4-1.6-0.6-2.2-0.6c-0.8,0-1.3,0.4-1.3,0.9v0c0,0.7,1,1,2.1,1.4
		c1.4,0.4,3,1.1,3,2.8v0c0,2-1.5,3-3.5,3C132.4,42.2,131.1,41.8,130,41z"/>
	<path class="st0" d="M142.8,42.2c-2.8,0-4.9-2-4.9-4.9v0c0-2.7,1.9-5,4.6-5c3,0,4.5,2.5,4.5,4.7c0,0.6-0.5,1-1,1h-6
		c0.2,1.5,1.3,2.4,2.7,2.4c0.9,0,1.6-0.3,2.3-0.8c0.2-0.1,0.3-0.2,0.6-0.2c0.5,0,0.9,0.4,0.9,0.9c0,0.3-0.1,0.5-0.3,0.7
		C145.4,41.7,144.3,42.2,142.8,42.2z M145,36.6c-0.1-1.4-1-2.5-2.4-2.5c-1.3,0-2.3,1-2.5,2.5H145z"/>
	<path class="st0" d="M147.9,37.3L147.9,37.3c0-2.7,2.1-5,5-5c1.5,0,2.5,0.5,3.3,1.2c0.1,0.1,0.3,0.4,0.3,0.8c0,0.6-0.4,1-1,1
		c-0.3,0-0.5-0.1-0.6-0.2c-0.6-0.5-1.2-0.8-2-0.8c-1.6,0-2.8,1.4-2.8,3v0c0,1.7,1.2,3,2.8,3c0.9,0,1.5-0.3,2.1-0.8
		c0.1-0.1,0.3-0.2,0.6-0.2c0.5,0,0.9,0.4,0.9,1c0,0.3-0.1,0.5-0.3,0.7c-0.8,0.8-1.9,1.4-3.5,1.4C150,42.2,147.9,40,147.9,37.3z"/>
	<path class="st0" d="M166.2,41c0,0.6-0.5,1.1-1.1,1.1c-0.6,0-1.1-0.5-1.1-1.1v-0.5c-0.6,0.9-1.5,1.7-3,1.7c-2.1,0-3.4-1.4-3.4-3.7
		v-5.1c0-0.6,0.5-1.1,1.1-1.1c0.6,0,1.1,0.5,1.1,1.1v4.4c0,1.5,0.7,2.3,2,2.3c1.3,0,2.1-0.9,2.1-2.3v-4.4c0-0.6,0.5-1.1,1.1-1.1
		c0.6,0,1.1,0.5,1.1,1.1V41z"/>
	<path class="st0" d="M168.1,33.5c0-0.6,0.5-1.1,1.1-1.1s1.1,0.5,1.1,1.1v1c0.5-1.2,1.4-2.1,2.4-2.1c0.7,0,1.1,0.5,1.1,1.1
		c0,0.6-0.4,1-0.9,1c-1.5,0.3-2.6,1.5-2.6,3.7V41c0,0.6-0.5,1.1-1.1,1.1c-0.6,0-1.1-0.5-1.1-1.1V33.5z"/>
	<path class="st0" d="M174.6,29.9c0-0.6,0.5-1.1,1.2-1.1s1.2,0.4,1.2,1.1V30c0,0.6-0.5,1.1-1.2,1.1s-1.2-0.4-1.2-1.1V29.9z
		 M174.7,33.5c0-0.6,0.5-1.1,1.1-1.1s1.1,0.5,1.1,1.1V41c0,0.6-0.5,1.1-1.1,1.1c-0.6,0-1.1-0.5-1.1-1.1V33.5z"/>
	<path class="st0" d="M179.3,39.4v-5h-0.4c-0.5,0-0.9-0.4-0.9-0.9c0-0.5,0.4-0.9,0.9-0.9h0.4v-1.6c0-0.6,0.5-1.1,1.1-1.1
		c0.6,0,1.1,0.5,1.1,1.1v1.6h1.7c0.5,0,1,0.4,1,0.9c0,0.5-0.4,0.9-1,0.9h-1.7V39c0,0.8,0.4,1.2,1.2,1.2c0.3,0,0.5-0.1,0.5-0.1
		c0.5,0,0.9,0.4,0.9,0.9c0,0.4-0.3,0.7-0.6,0.8c-0.5,0.2-0.9,0.3-1.5,0.3C180.4,42.2,179.3,41.5,179.3,39.4z"/>
	<path class="st0" d="M185.6,44.7c-0.3-0.1-0.7-0.4-0.7-0.9c0-0.5,0.4-0.9,0.9-0.9c0.2,0,0.3,0,0.4,0.1c0.3,0.1,0.5,0.1,0.8,0.1
		c0.6,0,1-0.3,1.3-1l0.1-0.2l-3.5-7.9c-0.1-0.2-0.1-0.4-0.1-0.5c0-0.6,0.5-1.1,1.1-1.1c0.6,0,0.9,0.3,1.1,0.8l2.6,6.3l2.4-6.3
		c0.2-0.4,0.5-0.8,1-0.8c0.6,0,1,0.5,1,1c0,0.2-0.1,0.4-0.1,0.5l-3.5,8.3c-0.8,1.9-1.7,2.7-3.2,2.7C186.5,44.9,186,44.8,185.6,44.7z
		"/>
	<path class="st0" d="M198.9,39.3L198.9,39.3c0-2.1,1.6-3.1,3.9-3.1c1.1,0,1.8,0.2,2.6,0.4v-0.2c0-1.3-0.8-2.1-2.4-2.1
		c-0.8,0-1.5,0.1-2.1,0.4c-0.1,0-0.2,0.1-0.3,0.1c-0.5,0-0.9-0.4-0.9-0.9c0-0.4,0.3-0.7,0.6-0.9c0.9-0.3,1.8-0.6,3.1-0.6
		c1.4,0,2.5,0.4,3.2,1.1c0.7,0.7,1,1.7,1,2.9V41c0,0.6-0.5,1-1.1,1c-0.6,0-1.1-0.4-1.1-0.9v-0.4c-0.6,0.8-1.6,1.4-3.1,1.4
		C200.5,42.2,198.9,41.2,198.9,39.3z M205.4,38.6v-0.6c-0.6-0.2-1.3-0.4-2.2-0.4c-1.4,0-2.2,0.6-2.2,1.6v0c0,0.9,0.8,1.4,1.9,1.4
		C204.3,40.6,205.4,39.8,205.4,38.6z"/>
	<path class="st0" d="M209.3,29.8c0-0.6,0.5-1.1,1.1-1.1s1.1,0.5,1.1,1.1V41c0,0.6-0.5,1.1-1.1,1.1c-0.6,0-1.1-0.5-1.1-1.1V29.8z"/>
	<path class="st0" d="M212.8,39.3L212.8,39.3c0-2.1,1.6-3.1,3.9-3.1c1.1,0,1.8,0.2,2.6,0.4v-0.2c0-1.3-0.8-2.1-2.4-2.1
		c-0.8,0-1.5,0.1-2.1,0.4c-0.1,0-0.2,0.1-0.3,0.1c-0.5,0-0.9-0.4-0.9-0.9c0-0.4,0.3-0.7,0.6-0.9c0.9-0.3,1.8-0.6,3.1-0.6
		c1.4,0,2.5,0.4,3.2,1.1c0.7,0.7,1,1.7,1,2.9V41c0,0.6-0.5,1-1.1,1c-0.6,0-1.1-0.4-1.1-0.9v-0.4c-0.6,0.8-1.6,1.4-3.1,1.4
		C214.4,42.2,212.8,41.2,212.8,39.3z M219.3,38.6v-0.6c-0.6-0.2-1.3-0.4-2.2-0.4c-1.4,0-2.2,0.6-2.2,1.6v0c0,0.9,0.8,1.4,1.9,1.4
		C218.2,40.6,219.3,39.8,219.3,38.6z"/>
	<path class="st0" d="M223.1,33.5c0-0.6,0.5-1.1,1.1-1.1c0.6,0,1.1,0.5,1.1,1.1v1c0.5-1.2,1.4-2.1,2.4-2.1c0.7,0,1.1,0.5,1.1,1.1
		c0,0.6-0.4,1-0.9,1c-1.5,0.3-2.6,1.5-2.6,3.7V41c0,0.6-0.5,1.1-1.1,1.1c-0.6,0-1.1-0.5-1.1-1.1V33.5z"/>
	<path class="st0" d="M229.6,33.5c0-0.6,0.5-1.1,1.1-1.1c0.6,0,1.1,0.5,1.1,1.1v0.5c0.6-0.8,1.4-1.6,2.9-1.6c1.4,0,2.3,0.7,2.8,1.7
		c0.8-1,1.8-1.7,3.2-1.7c2.1,0,3.3,1.3,3.3,3.6V41c0,0.6-0.5,1.1-1.1,1.1c-0.6,0-1.1-0.5-1.1-1.1v-4.4c0-1.5-0.7-2.3-1.9-2.3
		c-1.2,0-2,0.8-2,2.4V41c0,0.6-0.5,1.1-1.1,1.1c-0.6,0-1.1-0.5-1.1-1.1v-4.4c0-1.5-0.7-2.3-1.9-2.3c-1.2,0-2,0.9-2,2.4V41
		c0,0.6-0.5,1.1-1.1,1.1c-0.6,0-1.1-0.5-1.1-1.1V33.5z"/>
	<path class="st0" d="M245.5,41c-0.2-0.1-0.4-0.4-0.4-0.8c0-0.5,0.4-0.9,0.9-0.9c0.2,0,0.3,0.1,0.5,0.1c0.9,0.6,1.9,0.9,2.7,0.9
		c0.9,0,1.5-0.4,1.5-1v0c0-0.7-1-1-2.1-1.3c-1.4-0.4-3-1-3-2.8v0c0-1.8,1.5-2.9,3.4-2.9c1,0,2.1,0.3,3,0.8c0.3,0.2,0.5,0.5,0.5,0.8
		c0,0.5-0.4,0.9-0.9,0.9c-0.2,0-0.3,0-0.4-0.1c-0.8-0.4-1.6-0.6-2.2-0.6c-0.8,0-1.3,0.4-1.3,0.9v0c0,0.7,1,1,2.1,1.4
		c1.4,0.4,3,1.1,3,2.8v0c0,2-1.5,3-3.5,3C247.9,42.2,246.6,41.8,245.5,41z"/>
	<path class="st0" d="M256.4,38.1c-0.4,0-0.7-0.3-0.8-0.7l-0.2-1.5c-0.1-0.5,0.2-0.8,0.7-0.9c1.7-0.2,2.6-0.8,2.6-1.9v0
		c0-1-0.8-1.7-2.1-1.7c-1,0-1.7,0.3-2.4,1c-0.2,0.1-0.4,0.3-0.7,0.3c-0.6,0-1-0.5-1-1c0-0.3,0.1-0.6,0.4-0.8c1-0.9,2.2-1.5,3.8-1.5
		c2.5,0,4.2,1.4,4.2,3.7v0c0,2.3-1.6,3.3-3.6,3.6l-0.1,0.8c-0.1,0.4-0.4,0.7-0.8,0.7H256.4z M256.4,39.4c0.7,0,1.3,0.5,1.3,1.2v0.2
		c0,0.7-0.5,1.2-1.3,1.2s-1.3-0.5-1.3-1.2v-0.2C255.1,40,255.6,39.4,256.4,39.4z"/>
</g>
</svg>
