<?xml version="1.0" encoding="utf-8"?>
<!-- Generator: Adobe Illustrator 21.1.0, SVG Export Plug-In . SVG Version: 6.00 Build 0)  -->
<svg version="1.1" id="Layer_2" xmlns="http://www.w3.org/2000/svg" xmlns:xlink="http://www.w3.org/1999/xlink" x="0px" y="0px"
	 viewBox="0 0 300 50" style="enable-background:new 0 0 300 50;" xml:space="preserve">
<style type="text/css">
	.st0{fill:#FFFFFF;}
</style>
<g>
	<path class="st0" d="M33.1,31.2l-2.8-7.9c0-0.1-0.1-0.3-0.1-0.4c0-0.3,0.3-0.7,0.7-0.7c0.4,0,0.6,0.2,0.7,0.6l2.3,7l2.4-7
		c0.1-0.3,0.3-0.6,0.7-0.6H37c0.4,0,0.6,0.2,0.7,0.6l2.3,7l2.4-7c0.1-0.3,0.3-0.5,0.7-0.5c0.4,0,0.7,0.3,0.7,0.6
		c0,0.1-0.1,0.3-0.1,0.4l-2.8,7.9c-0.1,0.4-0.4,0.6-0.8,0.6H40c-0.4,0-0.6-0.2-0.8-0.6L37,24.4l-2.3,6.8c-0.1,0.4-0.4,0.6-0.8,0.6h0
		C33.5,31.8,33.2,31.6,33.1,31.2z"/>
	<path class="st0" d="M45.2,19.4c0-0.5,0.4-0.7,0.8-0.7c0.5,0,0.8,0.3,0.8,0.7v0.2c0,0.4-0.4,0.7-0.8,0.7c-0.5,0-0.8-0.3-0.8-0.7
		V19.4z M45.3,23c0-0.4,0.3-0.7,0.7-0.7c0.4,0,0.7,0.3,0.7,0.7v8.1c0,0.4-0.3,0.7-0.7,0.7c-0.4,0-0.7-0.3-0.7-0.7V23z"/>
	<path class="st0" d="M49.3,29.2v-5.6h-0.8c-0.3,0-0.6-0.3-0.6-0.6c0-0.3,0.3-0.6,0.6-0.6h0.8v-2.2c0-0.4,0.3-0.7,0.7-0.7
		c0.4,0,0.7,0.3,0.7,0.7v2.2h2.4c0.3,0,0.6,0.3,0.6,0.6c0,0.3-0.3,0.6-0.6,0.6h-2.4V29c0,1.1,0.6,1.5,1.6,1.5c0.5,0,0.7-0.1,0.8-0.1
		c0.3,0,0.6,0.3,0.6,0.6c0,0.3-0.2,0.5-0.4,0.5c-0.4,0.2-0.8,0.3-1.4,0.3C50.4,31.8,49.3,31.1,49.3,29.2z"/>
	<path class="st0" d="M55,19.1c0-0.4,0.3-0.7,0.7-0.7c0.4,0,0.7,0.3,0.7,0.7V24c0.6-1,1.6-1.8,3.2-1.8c2.3,0,3.6,1.5,3.6,3.7v5.2
		c0,0.4-0.3,0.7-0.7,0.7c-0.4,0-0.7-0.3-0.7-0.7v-4.8c0-1.7-0.9-2.8-2.6-2.8c-1.6,0-2.8,1.2-2.8,2.9v4.7c0,0.4-0.3,0.7-0.7,0.7
		c-0.4,0-0.7-0.3-0.7-0.7V19.1z"/>
	<path class="st0" d="M69.8,29.2v-5.6h-0.8c-0.3,0-0.6-0.3-0.6-0.6c0-0.3,0.3-0.6,0.6-0.6h0.8v-2.2c0-0.4,0.3-0.7,0.7-0.7
		c0.4,0,0.7,0.3,0.7,0.7v2.2h2.4c0.3,0,0.6,0.3,0.6,0.6c0,0.3-0.3,0.6-0.6,0.6h-2.4V29c0,1.1,0.6,1.5,1.6,1.5c0.5,0,0.7-0.1,0.8-0.1
		c0.3,0,0.6,0.3,0.6,0.6c0,0.3-0.2,0.5-0.4,0.5c-0.4,0.2-0.8,0.3-1.4,0.3C70.9,31.8,69.8,31.1,69.8,29.2z"/>
	<path class="st0" d="M75.5,19.1c0-0.4,0.3-0.7,0.7-0.7c0.4,0,0.7,0.3,0.7,0.7V24c0.6-1,1.6-1.8,3.2-1.8c2.3,0,3.6,1.5,3.6,3.7v5.2
		c0,0.4-0.3,0.7-0.7,0.7c-0.4,0-0.7-0.3-0.7-0.7v-4.8c0-1.7-0.9-2.8-2.6-2.8c-1.6,0-2.8,1.2-2.8,2.9v4.7c0,0.4-0.3,0.7-0.7,0.7
		c-0.4,0-0.7-0.3-0.7-0.7V19.1z"/>
	<path class="st0" d="M89.6,31.9c-2.6,0-4.6-2-4.6-4.8v0c0-2.7,1.9-4.8,4.5-4.8c2.8,0,4.3,2.3,4.3,4.7c0,0.4-0.3,0.6-0.6,0.6h-6.7
		c0.2,2,1.6,3.2,3.3,3.2c1.2,0,2-0.4,2.7-1.1c0.1-0.1,0.2-0.2,0.4-0.2c0.3,0,0.6,0.3,0.6,0.6c0,0.2-0.1,0.3-0.2,0.5
		C92.2,31.3,91.2,31.9,89.6,31.9z M92.3,26.5c-0.1-1.7-1.1-3.2-3-3.2c-1.6,0-2.8,1.4-3,3.2H92.3z"/>
	<path class="st0" d="M99.2,23.1c0-0.6,0.5-1.1,1.1-1.1s1.1,0.5,1.1,1.1v0.5c0.6-0.9,1.5-1.7,3-1.7c2.1,0,3.4,1.4,3.4,3.6v5.1
		c0,0.6-0.5,1.1-1.1,1.1c-0.6,0-1.1-0.5-1.1-1.1v-4.4c0-1.5-0.7-2.3-2-2.3c-1.3,0-2.1,0.9-2.1,2.4v4.4c0,0.6-0.5,1.1-1.1,1.1
		c-0.6,0-1.1-0.5-1.1-1.1V23.1z"/>
	<path class="st0" d="M109.3,19.5c0-0.6,0.5-1.1,1.1-1.1s1.1,0.5,1.1,1.1v4.2c0.7-1,1.7-1.8,3.2-1.8c2.2,0,4.4,1.8,4.4,4.9v0
		c0,3.2-2.2,4.9-4.4,4.9c-1.6,0-2.6-0.8-3.2-1.7v0.5c0,0.6-0.5,1.1-1.1,1.1c-0.6,0-1.1-0.5-1.1-1.1V19.5z M116.9,26.9L116.9,26.9
		c0-1.9-1.2-3.1-2.7-3.1c-1.5,0-2.8,1.2-2.8,3v0c0,1.8,1.3,3,2.8,3C115.7,30,116.9,28.8,116.9,26.9z"/>
	<path class="st0" d="M120.3,23.1c0-0.6,0.5-1.1,1.1-1.1s1.1,0.5,1.1,1.1v0.5c0.6-0.9,1.5-1.7,3-1.7c2.1,0,3.4,1.4,3.4,3.6v5.1
		c0,0.6-0.5,1.1-1.1,1.1s-1.1-0.5-1.1-1.1v-4.4c0-1.5-0.7-2.3-2-2.3c-1.3,0-2.1,0.9-2.1,2.4v4.4c0,0.6-0.5,1.1-1.1,1.1
		c-0.6,0-1.1-0.5-1.1-1.1V23.1z"/>
	<path class="st0" d="M131.3,19.8h-1.5c-0.2,0-0.4-0.2-0.4-0.4c0-0.2,0.2-0.4,0.4-0.4h3.8c0.2,0,0.4,0.2,0.4,0.4
		c0,0.2-0.2,0.4-0.4,0.4h-1.5v4.5c0,0.2-0.2,0.4-0.4,0.4c-0.2,0-0.4-0.2-0.4-0.4V19.8z M135.1,19.4c0-0.2,0.2-0.4,0.4-0.4h0.1
		c0.2,0,0.3,0.1,0.4,0.2l1.9,3l2-3c0.1-0.1,0.2-0.2,0.3-0.2h0.1c0.2,0,0.4,0.2,0.4,0.4v4.9c0,0.2-0.2,0.4-0.4,0.4
		c-0.2,0-0.4-0.2-0.4-0.4v-3.7l-1.7,2.5c-0.1,0.1-0.2,0.2-0.4,0.2c-0.2,0-0.3-0.1-0.4-0.2l-1.7-2.5v3.7c0,0.2-0.2,0.4-0.4,0.4
		c-0.2,0-0.4-0.2-0.4-0.4V19.4z"/>
	<path class="st0" d="M145.5,29L145.5,29c0-2,1.6-3,4-3c1.2,0,2,0.2,2.9,0.4V26c0-1.7-1-2.5-2.8-2.5c-0.9,0-1.7,0.2-2.4,0.5
		c-0.1,0-0.2,0.1-0.3,0.1c-0.3,0-0.6-0.3-0.6-0.6c0-0.3,0.2-0.5,0.4-0.6c0.9-0.4,1.9-0.6,3-0.6c1.3,0,2.3,0.3,3,1
		c0.6,0.6,1,1.5,1,2.7v5.1c0,0.4-0.3,0.7-0.7,0.7c-0.4,0-0.7-0.3-0.7-0.6v-0.8c-0.6,0.8-1.7,1.6-3.4,1.6
		C147.3,31.9,145.5,30.9,145.5,29z M152.4,28.2v-0.9c-0.7-0.2-1.6-0.4-2.7-0.4c-1.7,0-2.7,0.8-2.7,1.9v0c0,1.2,1.1,1.9,2.3,1.9
		C151,30.8,152.4,29.7,152.4,28.2z"/>
	<path class="st0" d="M155,27.1L155,27.1c0-2.7,2.1-4.9,4.8-4.9c1.5,0,2.6,0.6,3.4,1.4c0.1,0.1,0.2,0.3,0.2,0.5
		c0,0.4-0.3,0.7-0.7,0.7c-0.2,0-0.3-0.1-0.4-0.2c-0.7-0.6-1.4-1.1-2.5-1.1c-1.9,0-3.3,1.6-3.3,3.6v0c0,2,1.5,3.6,3.4,3.6
		c1.1,0,1.9-0.5,2.6-1.1c0.1-0.1,0.2-0.2,0.4-0.2c0.3,0,0.6,0.3,0.6,0.6c0,0.2-0.1,0.3-0.2,0.4c-0.9,0.9-1.9,1.5-3.5,1.5
		C157.1,31.9,155,29.7,155,27.1z"/>
	<path class="st0" d="M163.9,27.1L163.9,27.1c0-2.7,2.1-4.9,4.8-4.9c1.5,0,2.6,0.6,3.4,1.4c0.1,0.1,0.2,0.3,0.2,0.5
		c0,0.4-0.3,0.7-0.7,0.7c-0.2,0-0.3-0.1-0.5-0.2c-0.7-0.6-1.4-1.1-2.5-1.1c-1.9,0-3.3,1.6-3.3,3.6v0c0,2,1.5,3.6,3.4,3.6
		c1.1,0,1.9-0.5,2.6-1.1c0.1-0.1,0.2-0.2,0.4-0.2c0.3,0,0.6,0.3,0.6,0.6c0,0.2-0.1,0.3-0.2,0.4c-0.9,0.9-1.9,1.5-3.5,1.5
		C166,31.9,163.9,29.7,163.9,27.1z"/>
	<path class="st0" d="M177.5,31.9c-2.6,0-4.6-2-4.6-4.8v0c0-2.7,1.9-4.8,4.5-4.8c2.8,0,4.3,2.3,4.3,4.7c0,0.4-0.3,0.6-0.6,0.6h-6.7
		c0.2,2,1.6,3.2,3.3,3.2c1.2,0,2-0.4,2.7-1.1c0.1-0.1,0.2-0.2,0.4-0.2c0.3,0,0.6,0.3,0.6,0.6c0,0.2-0.1,0.3-0.2,0.5
		C180.1,31.3,179.1,31.9,177.5,31.9z M180.3,26.5c-0.1-1.7-1.1-3.2-3-3.2c-1.6,0-2.8,1.4-3,3.2H180.3z"/>
	<path class="st0" d="M182.5,30.7c-0.1-0.1-0.3-0.3-0.3-0.5c0-0.3,0.3-0.6,0.6-0.6c0.1,0,0.3,0,0.3,0.1c1,0.6,1.9,1,3,1
		c1.1,0,1.9-0.6,1.9-1.5v0c0-0.9-1.1-1.3-2.3-1.6c-1.5-0.4-3.1-0.9-3.1-2.6v0c0-1.6,1.3-2.7,3.2-2.7c1,0,2.1,0.3,3,0.8
		c0.2,0.1,0.3,0.3,0.3,0.6c0,0.3-0.3,0.6-0.6,0.6c-0.1,0-0.2,0-0.3-0.1c-0.8-0.5-1.6-0.7-2.4-0.7c-1.1,0-1.8,0.6-1.8,1.4v0
		c0,0.9,1.2,1.2,2.4,1.6c1.4,0.4,3,1,3,2.7v0c0,1.8-1.5,2.8-3.3,2.8C184.9,31.8,183.5,31.4,182.5,30.7z"/>
	<path class="st0" d="M190.2,30.7c-0.1-0.1-0.3-0.3-0.3-0.5c0-0.3,0.3-0.6,0.6-0.6c0.1,0,0.3,0,0.3,0.1c1,0.6,1.9,1,3,1
		c1.1,0,1.9-0.6,1.9-1.5v0c0-0.9-1.1-1.3-2.3-1.6c-1.5-0.4-3.1-0.9-3.1-2.6v0c0-1.6,1.3-2.7,3.2-2.7c1,0,2.1,0.3,3,0.8
		c0.2,0.1,0.3,0.3,0.3,0.6c0,0.3-0.3,0.6-0.6,0.6c-0.1,0-0.2,0-0.3-0.1c-0.8-0.5-1.6-0.7-2.4-0.7c-1.1,0-1.8,0.6-1.8,1.4v0
		c0,0.9,1.2,1.2,2.4,1.6c1.4,0.4,3,1,3,2.7v0c0,1.8-1.5,2.8-3.3,2.8C192.6,31.8,191.2,31.4,190.2,30.7z"/>
	<path class="st0" d="M202.9,23c0-0.4,0.3-0.7,0.7-0.7c0.4,0,0.7,0.3,0.7,0.7v1c0.6-1,1.6-1.8,3.2-1.8c2.3,0,3.6,1.5,3.6,3.7v5.2
		c0,0.4-0.3,0.7-0.7,0.7c-0.4,0-0.7-0.3-0.7-0.7v-4.8c0-1.7-0.9-2.8-2.6-2.8c-1.6,0-2.8,1.2-2.8,2.9v4.7c0,0.4-0.3,0.7-0.7,0.7
		c-0.4,0-0.7-0.3-0.7-0.7V23z"/>
	<path class="st0" d="M217,31.9c-2.6,0-4.6-2-4.6-4.8v0c0-2.7,1.9-4.8,4.5-4.8c2.8,0,4.3,2.3,4.3,4.7c0,0.4-0.3,0.6-0.6,0.6h-6.7
		c0.2,2,1.6,3.2,3.3,3.2c1.2,0,2-0.4,2.7-1.1c0.1-0.1,0.2-0.2,0.4-0.2c0.3,0,0.6,0.3,0.6,0.6c0,0.2-0.1,0.3-0.2,0.5
		C219.6,31.3,218.6,31.9,217,31.9z M219.8,26.5c-0.1-1.7-1.1-3.2-3-3.2c-1.6,0-2.8,1.4-3,3.2H219.8z"/>
	<path class="st0" d="M223,29.2v-5.6h-0.8c-0.3,0-0.6-0.3-0.6-0.6c0-0.3,0.3-0.6,0.6-0.6h0.8v-2.2c0-0.4,0.3-0.7,0.7-0.7
		c0.4,0,0.7,0.3,0.7,0.7v2.2h2.4c0.3,0,0.6,0.3,0.6,0.6c0,0.3-0.3,0.6-0.6,0.6h-2.4V29c0,1.1,0.6,1.5,1.6,1.5c0.5,0,0.7-0.1,0.8-0.1
		c0.3,0,0.6,0.3,0.6,0.6c0,0.3-0.2,0.5-0.4,0.5c-0.4,0.2-0.8,0.3-1.4,0.3C224.1,31.8,223,31.1,223,29.2z"/>
	<path class="st0" d="M231,31.2l-2.8-7.9c0-0.1-0.1-0.3-0.1-0.4c0-0.3,0.3-0.7,0.7-0.7c0.4,0,0.6,0.2,0.7,0.6l2.3,7l2.4-7
		c0.1-0.3,0.3-0.6,0.7-0.6h0.1c0.4,0,0.6,0.2,0.7,0.6l2.3,7l2.4-7c0.1-0.3,0.3-0.5,0.7-0.5c0.4,0,0.7,0.3,0.7,0.6
		c0,0.1-0.1,0.3-0.1,0.4l-2.8,7.9c-0.1,0.4-0.4,0.6-0.8,0.6h-0.1c-0.4,0-0.6-0.2-0.8-0.6l-2.3-6.8l-2.3,6.8
		c-0.1,0.4-0.4,0.6-0.8,0.6h0C231.4,31.8,231.1,31.6,231,31.2z"/>
	<path class="st0" d="M242.1,27.1L242.1,27.1c0-2.7,2.1-4.9,4.9-4.9c2.8,0,4.8,2.2,4.8,4.8v0c0,2.6-2.1,4.9-4.9,4.9
		C244.1,31.9,242.1,29.7,242.1,27.1z M250.4,27.1L250.4,27.1c0-2-1.5-3.7-3.5-3.7c-2,0-3.4,1.6-3.4,3.6v0c0,2,1.5,3.6,3.4,3.6
		C249,30.6,250.4,29,250.4,27.1z"/>
	<path class="st0" d="M253.2,23c0-0.4,0.3-0.7,0.7-0.7c0.4,0,0.7,0.3,0.7,0.7v1.7c0.7-1.5,2-2.5,3.2-2.5c0.4,0,0.7,0.3,0.7,0.7
		c0,0.4-0.3,0.6-0.6,0.7c-1.8,0.2-3.3,1.6-3.3,4.2v3.2c0,0.4-0.3,0.7-0.7,0.7c-0.4,0-0.7-0.3-0.7-0.7V23z"/>
	<path class="st0" d="M259.4,19.1c0-0.4,0.3-0.7,0.7-0.7c0.4,0,0.7,0.3,0.7,0.7v8.5l5-5.1c0.2-0.2,0.3-0.3,0.5-0.3
		c0.4,0,0.6,0.3,0.6,0.6c0,0.2-0.1,0.4-0.3,0.5l-3,3l3.3,4.2c0.1,0.2,0.2,0.3,0.2,0.5c0,0.4-0.3,0.6-0.7,0.6c-0.3,0-0.4-0.1-0.6-0.3
		l-3.2-4.1l-1.9,1.9v1.8c0,0.4-0.3,0.7-0.7,0.7c-0.4,0-0.7-0.3-0.7-0.7V19.1z"/>
</g>
</svg>
