<?xml version="1.0" encoding="utf-8"?>
<!-- Generator: Adobe Illustrator 21.1.0, SVG Export Plug-In . SVG Version: 6.00 Build 0)  -->
<svg version="1.1" id="Layer_1" xmlns="http://www.w3.org/2000/svg" xmlns:xlink="http://www.w3.org/1999/xlink" x="0px" y="0px"
	 viewBox="0 0 320 50" style="enable-background:new 0 0 320 50;" xml:space="preserve">
<style type="text/css">
	.st0{fill:#133C7D;}
</style>
<g>
	<path class="st0" d="M74,9.8c0-0.6,0.5-1.1,1.1-1.1h4.5c1.6,0,2.8,0.5,3.6,1.3c0.7,0.7,1,1.6,1,2.7v0c0,2-1.2,3.2-2.9,3.8l2.4,3
		c0.2,0.3,0.4,0.5,0.4,0.8c0,0.6-0.5,1-1.1,1c-0.5,0-0.8-0.2-1.1-0.6L79,16.9h-2.8v3.4c0,0.6-0.5,1.1-1.1,1.1
		c-0.6,0-1.1-0.5-1.1-1.1V9.8z M79.5,14.9c1.6,0,2.6-0.8,2.6-2.1v0c0-1.4-1-2.1-2.6-2.1h-3.2v4.2H79.5z"/>
	<path class="st0" d="M90.1,21.5c-2.8,0-4.9-2-4.9-4.9v0c0-2.7,1.9-5,4.6-5c3,0,4.5,2.5,4.5,4.7c0,0.6-0.5,1-1,1h-6
		c0.2,1.5,1.3,2.4,2.7,2.4c0.9,0,1.6-0.3,2.3-0.8c0.2-0.1,0.3-0.2,0.6-0.2c0.5,0,0.9,0.4,0.9,0.9c0,0.3-0.1,0.5-0.3,0.7
		C92.6,21,91.5,21.5,90.1,21.5z M92.2,15.8c-0.1-1.4-1-2.5-2.4-2.5c-1.3,0-2.3,1-2.5,2.5H92.2z"/>
	<path class="st0" d="M95.8,9.1c0-0.6,0.5-1.1,1.1-1.1S98,8.5,98,9.1v11.2c0,0.6-0.5,1.1-1.1,1.1c-0.6,0-1.1-0.5-1.1-1.1V9.1z"/>
	<path class="st0" d="M100.2,23.9c-0.3-0.1-0.7-0.4-0.7-0.9c0-0.5,0.4-0.9,0.9-0.9c0.2,0,0.3,0,0.4,0.1c0.3,0.1,0.5,0.1,0.8,0.1
		c0.6,0,1-0.3,1.3-1l0.1-0.2l-3.5-7.9c-0.1-0.2-0.1-0.4-0.1-0.5c0-0.6,0.5-1.1,1.1-1.1c0.6,0,0.9,0.3,1.1,0.8l2.6,6.3l2.4-6.3
		c0.2-0.4,0.5-0.8,1-0.8c0.6,0,1,0.4,1,1c0,0.2-0.1,0.4-0.1,0.5l-3.5,8.3c-0.8,1.9-1.7,2.7-3.2,2.7
		C101.1,24.2,100.6,24.1,100.2,23.9z"/>
	<path class="st0" d="M113.6,16.6L113.6,16.6c0-2.8,2.2-5,5.1-5s5.1,2.2,5.1,4.9v0c0,2.7-2.2,5-5.1,5
		C115.7,21.5,113.6,19.3,113.6,16.6z M121.5,16.6L121.5,16.6c0-1.7-1.2-3.1-2.9-3.1c-1.7,0-2.9,1.4-2.9,3v0c0,1.7,1.2,3,2.9,3
		C120.4,19.6,121.5,18.2,121.5,16.6z"/>
	<path class="st0" d="M125,12.7c0-0.6,0.5-1.1,1.1-1.1s1.1,0.5,1.1,1.1v0.5c0.6-0.9,1.5-1.7,3-1.7c2.1,0,3.4,1.4,3.4,3.6v5.1
		c0,0.6-0.5,1.1-1.1,1.1s-1.1-0.5-1.1-1.1v-4.4c0-1.5-0.7-2.3-2-2.3c-1.3,0-2.1,0.9-2.1,2.4v4.4c0,0.6-0.5,1.1-1.1,1.1
		c-0.6,0-1.1-0.5-1.1-1.1V12.7z"/>
	<path class="st0" d="M144.1,21.5c-2.8,0-4.9-2-4.9-4.9v0c0-2.7,1.9-5,4.6-5c3,0,4.5,2.5,4.5,4.7c0,0.6-0.5,1-1,1h-6
		c0.2,1.5,1.3,2.4,2.7,2.4c0.9,0,1.6-0.3,2.2-0.8c0.2-0.1,0.3-0.2,0.6-0.2c0.5,0,0.9,0.4,0.9,0.9c0,0.3-0.1,0.5-0.3,0.7
		C146.7,21,145.6,21.5,144.1,21.5z M146.3,15.8c-0.1-1.4-1-2.5-2.4-2.5c-1.3,0-2.3,1-2.5,2.5H146.3z"/>
	<path class="st0" d="M150.2,13.6h-0.4c-0.5,0-0.9-0.4-0.9-0.9c0-0.5,0.4-0.9,0.9-0.9h0.4v-0.7c0-1,0.3-1.8,0.8-2.3
		c0.5-0.5,1.2-0.8,2.1-0.8c0.4,0,0.8,0,1.1,0.1c0.4,0.1,0.8,0.4,0.8,0.9c0,0.5-0.4,0.9-0.9,0.9c-0.1,0-0.3,0-0.5,0
		c-0.8,0-1.3,0.5-1.3,1.4v0.5h1.7c0.5,0,0.9,0.4,0.9,0.9c0,0.5-0.4,0.9-0.9,0.9h-1.7v6.6c0,0.6-0.5,1.1-1.1,1.1
		c-0.6,0-1.1-0.5-1.1-1.1V13.6z"/>
	<path class="st0" d="M156.1,18.6v-5h-0.4c-0.5,0-0.9-0.4-0.9-0.9c0-0.5,0.4-0.9,0.9-0.9h0.4v-1.6c0-0.6,0.5-1.1,1.1-1.1
		c0.6,0,1.1,0.5,1.1,1.1v1.6h1.7c0.5,0,1,0.4,1,0.9c0,0.5-0.4,0.9-1,0.9h-1.7v4.7c0,0.8,0.4,1.2,1.2,1.2c0.3,0,0.5-0.1,0.5-0.1
		c0.5,0,0.9,0.4,0.9,0.9c0,0.4-0.3,0.7-0.6,0.8c-0.5,0.2-0.9,0.3-1.5,0.3C157.2,21.4,156.1,20.7,156.1,18.6z"/>
	<path class="st0" d="M162.1,12.7c0-0.6,0.5-1.1,1.1-1.1s1.1,0.5,1.1,1.1v0.6c0.7-1,1.7-1.8,3.2-1.8c2.2,0,4.4,1.8,4.4,4.9v0
		c0,3.2-2.2,4.9-4.4,4.9c-1.6,0-2.6-0.8-3.2-1.7v3.4c0,0.6-0.5,1.1-1.1,1.1c-0.6,0-1.1-0.5-1.1-1.1V12.7z M169.7,16.5L169.7,16.5
		c0-1.9-1.2-3.1-2.7-3.1c-1.5,0-2.8,1.2-2.8,3v0c0,1.8,1.3,3,2.8,3C168.5,19.6,169.7,18.4,169.7,16.5z"/>
	<path class="st0" d="M172.8,16.6L172.8,16.6c0-2.8,2.2-5,5.1-5s5.1,2.2,5.1,4.9v0c0,2.7-2.2,5-5.1,5
		C174.9,21.5,172.8,19.3,172.8,16.6z M180.7,16.6L180.7,16.6c0-1.7-1.2-3.1-2.9-3.1c-1.7,0-2.9,1.4-2.9,3v0c0,1.7,1.2,3,2.9,3
		C179.6,19.6,180.7,18.2,180.7,16.6z"/>
	<path class="st0" d="M183.9,20.3c-0.2-0.1-0.4-0.4-0.4-0.8c0-0.5,0.4-0.9,0.9-0.9c0.2,0,0.3,0.1,0.5,0.1c0.9,0.6,1.9,0.9,2.7,0.9
		c0.9,0,1.5-0.4,1.5-1v0c0-0.7-1-1-2.1-1.3c-1.4-0.4-3-1-3-2.8v0c0-1.8,1.5-2.9,3.4-2.9c1,0,2.1,0.3,3,0.8c0.3,0.2,0.5,0.5,0.5,0.8
		c0,0.5-0.4,0.9-0.9,0.9c-0.2,0-0.3,0-0.4-0.1c-0.8-0.4-1.6-0.6-2.2-0.6c-0.8,0-1.3,0.4-1.3,0.9v0c0,0.7,1,1,2.1,1.4
		c1.4,0.4,3,1.1,3,2.8v0c0,2-1.5,3-3.5,3C186.3,21.4,185,21.1,183.9,20.3z"/>
	<path class="st0" d="M191.9,22.9c0.8-0.3,1.3-0.8,1.2-1.6c-0.5-0.1-1-0.6-1-1.2v-0.1c0-0.7,0.5-1.2,1.2-1.2c0.8,0,1.3,0.6,1.3,1.6
		v0.2c0,1.2-0.3,2.1-0.9,2.6c-0.5,0.5-1.2,0.8-1.7,0.8c-0.4,0-0.6-0.2-0.6-0.5C191.5,23.1,191.7,22.9,191.9,22.9z"/>
	<path class="st0" d="M201.3,13.6h-0.4c-0.5,0-0.9-0.4-0.9-0.9c0-0.5,0.4-0.9,0.9-0.9h0.4v-0.7c0-1,0.3-1.8,0.8-2.3
		c0.5-0.5,1.2-0.8,2.1-0.8c0.4,0,0.8,0,1.1,0.1c0.4,0.1,0.8,0.4,0.8,0.9c0,0.5-0.4,0.9-0.9,0.9c-0.1,0-0.3,0-0.5,0
		c-0.8,0-1.3,0.5-1.3,1.4v0.5h1.7c0.5,0,0.9,0.4,0.9,0.9c0,0.5-0.4,0.9-0.9,0.9h-1.7v6.6c0,0.6-0.5,1.1-1.1,1.1
		c-0.6,0-1.1-0.5-1.1-1.1V13.6z"/>
	<path class="st0" d="M205.8,18.5L205.8,18.5c0-2.1,1.6-3.1,3.9-3.1c1.1,0,1.8,0.2,2.6,0.4v-0.2c0-1.4-0.8-2.1-2.4-2.1
		c-0.8,0-1.5,0.1-2.1,0.4c-0.1,0-0.2,0.1-0.3,0.1c-0.5,0-0.9-0.4-0.9-0.9c0-0.4,0.3-0.7,0.6-0.9c0.9-0.3,1.8-0.6,3.1-0.6
		c1.4,0,2.5,0.4,3.2,1.1c0.7,0.7,1,1.7,1,2.9v4.7c0,0.6-0.5,1-1.1,1c-0.6,0-1.1-0.4-1.1-0.9v-0.4c-0.6,0.8-1.6,1.4-3.1,1.4
		C207.3,21.5,205.8,20.4,205.8,18.5z M212.3,17.8v-0.6c-0.6-0.2-1.3-0.4-2.2-0.4c-1.4,0-2.2,0.6-2.2,1.6v0c0,0.9,0.8,1.4,1.9,1.4
		C211.2,19.9,212.3,19,212.3,17.8z"/>
	<path class="st0" d="M215.9,19.7l2.7-3.2l-2.5-3c-0.2-0.3-0.4-0.5-0.4-0.8c0-0.6,0.5-1,1-1c0.4,0,0.7,0.2,1,0.5l2.1,2.8l2.2-2.8
		c0.3-0.3,0.6-0.6,0.9-0.6c0.6,0,1,0.4,1,1c0,0.3-0.1,0.5-0.3,0.7l-2.6,3.1l2.7,3.2c0.2,0.3,0.4,0.5,0.4,0.8c0,0.6-0.5,1-1,1
		c-0.4,0-0.7-0.2-1-0.6l-2.3-3l-2.3,3c-0.3,0.3-0.6,0.6-1,0.6c-0.6,0-1-0.4-1-1C215.5,20.1,215.7,19.9,215.9,19.7z"/>
	<path class="st0" d="M229.4,16.6L229.4,16.6c0-2.8,2.2-5,5.1-5s5.1,2.2,5.1,4.9v0c0,2.7-2.2,5-5.1,5
		C231.6,21.5,229.4,19.3,229.4,16.6z M237.4,16.6L237.4,16.6c0-1.7-1.2-3.1-2.9-3.1c-1.7,0-2.9,1.4-2.9,3v0c0,1.7,1.2,3,2.9,3
		C236.3,19.6,237.4,18.2,237.4,16.6z"/>
	<path class="st0" d="M240.9,12.7c0-0.6,0.5-1.1,1.1-1.1c0.6,0,1.1,0.5,1.1,1.1v1c0.5-1.2,1.4-2.1,2.4-2.1c0.7,0,1.1,0.5,1.1,1.1
		c0,0.6-0.4,1-0.9,1c-1.5,0.3-2.6,1.5-2.6,3.7v2.8c0,0.6-0.5,1.1-1.1,1.1c-0.6,0-1.1-0.5-1.1-1.1V12.7z"/>
	<path class="st0" d="M49.4,32.7c0-0.6,0.5-1.1,1.1-1.1s1.1,0.5,1.1,1.1v0.5c0.6-0.8,1.4-1.6,2.9-1.6c1.4,0,2.3,0.7,2.8,1.7
		c0.8-1,1.8-1.7,3.2-1.7c2.1,0,3.3,1.3,3.3,3.6v5.1c0,0.6-0.5,1.1-1.1,1.1s-1.1-0.5-1.1-1.1v-4.4c0-1.5-0.7-2.3-1.9-2.3
		c-1.2,0-2,0.8-2,2.4v4.4c0,0.6-0.5,1.1-1.1,1.1c-0.6,0-1.1-0.5-1.1-1.1v-4.4c0-1.5-0.7-2.3-1.9-2.3c-1.2,0-2,0.9-2,2.4v4.4
		c0,0.6-0.5,1.1-1.1,1.1c-0.6,0-1.1-0.5-1.1-1.1V32.7z"/>
	<path class="st0" d="M65,36.6L65,36.6c0-2.8,2.2-5,5.1-5s5.1,2.2,5.1,4.9v0c0,2.7-2.2,5-5.1,5C67.2,41.5,65,39.3,65,36.6z M73,36.6
		L73,36.6c0-1.7-1.2-3.1-2.9-3.1c-1.7,0-2.9,1.4-2.9,3v0c0,1.7,1.2,3,2.9,3C71.9,39.6,73,38.2,73,36.6z"/>
	<path class="st0" d="M76.5,32.7c0-0.6,0.5-1.1,1.1-1.1s1.1,0.5,1.1,1.1v0.5c0.6-0.9,1.5-1.7,3-1.7c2.1,0,3.4,1.4,3.4,3.6v5.1
		c0,0.6-0.5,1.1-1.1,1.1s-1.1-0.5-1.1-1.1v-4.4c0-1.5-0.7-2.3-2-2.3c-1.3,0-2.1,0.9-2.1,2.4v4.4c0,0.6-0.5,1.1-1.1,1.1
		c-0.6,0-1.1-0.5-1.1-1.1V32.7z"/>
	<path class="st0" d="M86.7,29.2c0-0.6,0.5-1.1,1.2-1.1s1.2,0.4,1.2,1.1v0.1c0,0.6-0.5,1.1-1.2,1.1s-1.2-0.4-1.2-1.1V29.2z
		 M86.9,32.7c0-0.6,0.5-1.1,1.1-1.1s1.1,0.5,1.1,1.1v7.5c0,0.6-0.5,1.1-1.1,1.1c-0.6,0-1.1-0.5-1.1-1.1V32.7z"/>
	<path class="st0" d="M91.5,38.6v-5h-0.4c-0.5,0-0.9-0.4-0.9-0.9c0-0.5,0.4-0.9,0.9-0.9h0.4v-1.6c0-0.6,0.5-1.1,1.1-1.1
		c0.6,0,1.1,0.5,1.1,1.1v1.6h1.7c0.5,0,1,0.4,1,0.9c0,0.5-0.4,0.9-1,0.9h-1.7v4.7c0,0.8,0.4,1.2,1.2,1.2c0.3,0,0.5-0.1,0.5-0.1
		c0.5,0,0.9,0.4,0.9,0.9c0,0.4-0.3,0.7-0.6,0.8c-0.5,0.2-0.9,0.3-1.5,0.3C92.6,41.4,91.5,40.7,91.5,38.6z"/>
	<path class="st0" d="M96.7,36.6L96.7,36.6c0-2.8,2.2-5,5.1-5s5.1,2.2,5.1,4.9v0c0,2.7-2.2,5-5.1,5C98.9,41.5,96.7,39.3,96.7,36.6z
		 M104.7,36.6L104.7,36.6c0-1.7-1.2-3.1-2.9-3.1c-1.7,0-2.9,1.4-2.9,3v0c0,1.7,1.2,3,2.9,3C103.6,39.6,104.7,38.2,104.7,36.6z"/>
	<path class="st0" d="M108.2,32.7c0-0.6,0.5-1.1,1.1-1.1s1.1,0.5,1.1,1.1v1c0.5-1.2,1.4-2.1,2.4-2.1c0.7,0,1.1,0.5,1.1,1.1
		c0,0.6-0.4,1-0.9,1c-1.5,0.3-2.6,1.5-2.6,3.7v2.8c0,0.6-0.5,1.1-1.1,1.1c-0.6,0-1.1-0.5-1.1-1.1V32.7z"/>
	<path class="st0" d="M118.7,41.5c-2.8,0-4.9-2-4.9-4.9v0c0-2.7,1.9-5,4.6-5c3,0,4.5,2.5,4.5,4.7c0,0.6-0.5,1-1,1h-6
		c0.2,1.5,1.3,2.4,2.7,2.4c0.9,0,1.6-0.3,2.3-0.8c0.2-0.1,0.3-0.2,0.6-0.2c0.5,0,0.9,0.4,0.9,0.9c0,0.3-0.1,0.5-0.3,0.7
		C121.3,41,120.2,41.5,118.7,41.5z M120.9,35.8c-0.1-1.4-1-2.5-2.4-2.5c-1.3,0-2.3,1-2.5,2.5H120.9z"/>
	<path class="st0" d="M133.7,40.3c0,0.6-0.5,1.1-1.1,1.1c-0.6,0-1.1-0.5-1.1-1.1v-0.6c-0.7,1-1.7,1.8-3.2,1.8
		c-2.2,0-4.4-1.8-4.4-4.9v0c0-3.2,2.1-4.9,4.4-4.9c1.6,0,2.6,0.8,3.2,1.7v-4.1c0-0.6,0.5-1.1,1.1-1.1c0.6,0,1.1,0.5,1.1,1.1V40.3z
		 M126.1,36.5L126.1,36.5c0,1.9,1.3,3.1,2.7,3.1c1.5,0,2.8-1.2,2.8-3v0c0-1.8-1.3-3-2.8-3C127.3,33.4,126.1,34.6,126.1,36.5z"/>
	<path class="st0" d="M139.7,40.3c-0.2-0.1-0.4-0.4-0.4-0.8c0-0.5,0.4-0.9,0.9-0.9c0.2,0,0.3,0.1,0.5,0.1c0.9,0.6,1.9,0.9,2.7,0.9
		c0.9,0,1.5-0.4,1.5-1v0c0-0.7-1-1-2.1-1.3c-1.4-0.4-3-1-3-2.8v0c0-1.8,1.5-2.9,3.4-2.9c1,0,2.1,0.3,3,0.8c0.3,0.2,0.5,0.5,0.5,0.8
		c0,0.5-0.4,0.9-0.9,0.9c-0.2,0-0.3,0-0.4-0.1c-0.8-0.4-1.6-0.6-2.2-0.6c-0.8,0-1.3,0.4-1.3,0.9v0c0,0.7,1,1,2.1,1.4
		c1.4,0.4,3,1.1,3,2.8v0c0,2-1.5,3-3.5,3C142.1,41.4,140.8,41.1,139.7,40.3z"/>
	<path class="st0" d="M152.5,41.5c-2.8,0-4.9-2-4.9-4.9v0c0-2.7,1.9-5,4.6-5c3,0,4.5,2.5,4.5,4.7c0,0.6-0.5,1-1,1h-6
		c0.2,1.5,1.3,2.4,2.7,2.4c0.9,0,1.6-0.3,2.3-0.8c0.2-0.1,0.3-0.2,0.6-0.2c0.5,0,0.9,0.4,0.9,0.9c0,0.3-0.1,0.5-0.3,0.7
		C155.1,41,154,41.5,152.5,41.5z M154.7,35.8c-0.1-1.4-1-2.5-2.4-2.5c-1.3,0-2.3,1-2.5,2.5H154.7z"/>
	<path class="st0" d="M157.6,36.6L157.6,36.6c0-2.7,2.1-5,5-5c1.5,0,2.5,0.5,3.3,1.2c0.1,0.1,0.3,0.4,0.3,0.8c0,0.6-0.5,1-1,1
		c-0.3,0-0.5-0.1-0.6-0.2c-0.6-0.5-1.2-0.8-2-0.8c-1.6,0-2.8,1.4-2.8,3v0c0,1.7,1.2,3,2.8,3c0.9,0,1.5-0.3,2.1-0.8
		c0.1-0.1,0.3-0.2,0.6-0.2c0.5,0,0.9,0.4,0.9,1c0,0.3-0.1,0.5-0.3,0.7c-0.8,0.8-1.9,1.4-3.5,1.4C159.7,41.5,157.6,39.3,157.6,36.6z"
		/>
	<path class="st0" d="M175.9,40.3c0,0.6-0.5,1.1-1.1,1.1c-0.6,0-1.1-0.5-1.1-1.1v-0.5c-0.6,0.9-1.5,1.7-3,1.7
		c-2.1,0-3.4-1.4-3.4-3.7v-5.1c0-0.6,0.5-1.1,1.1-1.1c0.6,0,1.1,0.5,1.1,1.1v4.4c0,1.5,0.7,2.3,2,2.3c1.3,0,2.1-0.9,2.1-2.3v-4.4
		c0-0.6,0.5-1.1,1.1-1.1c0.6,0,1.1,0.5,1.1,1.1V40.3z"/>
	<path class="st0" d="M177.7,32.7c0-0.6,0.5-1.1,1.1-1.1s1.1,0.5,1.1,1.1v1c0.5-1.2,1.4-2.1,2.4-2.1c0.7,0,1.1,0.5,1.1,1.1
		c0,0.6-0.4,1-0.9,1c-1.5,0.3-2.6,1.5-2.6,3.7v2.8c0,0.6-0.5,1.1-1.1,1.1c-0.6,0-1.1-0.5-1.1-1.1V32.7z"/>
	<path class="st0" d="M184.2,29.2c0-0.6,0.5-1.1,1.2-1.1s1.2,0.4,1.2,1.1v0.1c0,0.6-0.5,1.1-1.2,1.1s-1.2-0.4-1.2-1.1V29.2z
		 M184.4,32.7c0-0.6,0.5-1.1,1.1-1.1s1.1,0.5,1.1,1.1v7.5c0,0.6-0.5,1.1-1.1,1.1c-0.6,0-1.1-0.5-1.1-1.1V32.7z"/>
	<path class="st0" d="M189,38.6v-5h-0.4c-0.5,0-0.9-0.4-0.9-0.9c0-0.5,0.4-0.9,0.9-0.9h0.4v-1.6c0-0.6,0.5-1.1,1.1-1.1
		c0.6,0,1.1,0.5,1.1,1.1v1.6h1.7c0.5,0,1,0.4,1,0.9c0,0.5-0.4,0.9-1,0.9h-1.7v4.7c0,0.8,0.4,1.2,1.2,1.2c0.3,0,0.5-0.1,0.5-0.1
		c0.5,0,0.9,0.4,0.9,0.9c0,0.4-0.3,0.7-0.6,0.8c-0.5,0.2-0.9,0.3-1.5,0.3C190.1,41.4,189,40.7,189,38.6z"/>
	<path class="st0" d="M195.2,43.9c-0.3-0.1-0.7-0.4-0.7-0.9c0-0.5,0.4-0.9,0.9-0.9c0.2,0,0.3,0,0.4,0.1c0.3,0.1,0.5,0.1,0.8,0.1
		c0.6,0,1-0.3,1.4-1l0.1-0.2l-3.5-7.9c-0.1-0.2-0.1-0.4-0.1-0.5c0-0.6,0.5-1.1,1.1-1.1c0.6,0,0.9,0.3,1.1,0.8l2.6,6.3l2.4-6.3
		c0.2-0.4,0.5-0.8,1-0.8c0.6,0,1,0.5,1,1c0,0.2-0.1,0.4-0.1,0.5l-3.5,8.3c-0.8,1.9-1.7,2.7-3.2,2.7
		C196.1,44.2,195.7,44.1,195.2,43.9z"/>
	<path class="st0" d="M208.6,38.5L208.6,38.5c0-2.1,1.6-3.1,3.9-3.1c1.1,0,1.8,0.2,2.6,0.4v-0.2c0-1.4-0.8-2.1-2.4-2.1
		c-0.8,0-1.5,0.1-2.1,0.4c-0.1,0-0.2,0.1-0.3,0.1c-0.5,0-0.9-0.4-0.9-0.9c0-0.4,0.3-0.7,0.6-0.9c0.9-0.3,1.8-0.6,3.1-0.6
		c1.4,0,2.5,0.4,3.2,1.1c0.7,0.7,1,1.7,1,2.9v4.7c0,0.6-0.5,1-1.1,1c-0.6,0-1.1-0.4-1.1-0.9v-0.4c-0.6,0.8-1.6,1.4-3.1,1.4
		C210.1,41.5,208.6,40.4,208.6,38.5z M215.1,37.8v-0.6c-0.6-0.2-1.3-0.4-2.2-0.4c-1.4,0-2.2,0.6-2.2,1.6v0c0,0.9,0.8,1.4,1.9,1.4
		C214,39.9,215.1,39,215.1,37.8z"/>
	<path class="st0" d="M219,29.1c0-0.6,0.5-1.1,1.1-1.1s1.1,0.5,1.1,1.1v11.2c0,0.6-0.5,1.1-1.1,1.1c-0.6,0-1.1-0.5-1.1-1.1V29.1z"/>
	<path class="st0" d="M222.5,38.5L222.5,38.5c0-2.1,1.6-3.1,3.9-3.1c1.1,0,1.8,0.2,2.6,0.4v-0.2c0-1.4-0.8-2.1-2.4-2.1
		c-0.8,0-1.5,0.1-2.1,0.4c-0.1,0-0.2,0.1-0.3,0.1c-0.5,0-0.9-0.4-0.9-0.9c0-0.4,0.3-0.7,0.6-0.9c0.9-0.3,1.8-0.6,3.1-0.6
		c1.4,0,2.5,0.4,3.2,1.1c0.7,0.7,1,1.7,1,2.9v4.7c0,0.6-0.5,1-1.1,1c-0.6,0-1.1-0.4-1.1-0.9v-0.4c-0.6,0.8-1.6,1.4-3.1,1.4
		C224.1,41.5,222.5,40.4,222.5,38.5z M229,37.8v-0.6c-0.6-0.2-1.3-0.4-2.2-0.4c-1.4,0-2.2,0.6-2.2,1.6v0c0,0.9,0.8,1.4,1.9,1.4
		C227.9,39.9,229,39,229,37.8z"/>
	<path class="st0" d="M232.8,32.7c0-0.6,0.5-1.1,1.1-1.1c0.6,0,1.1,0.5,1.1,1.1v1c0.5-1.2,1.4-2.1,2.4-2.1c0.7,0,1.1,0.5,1.1,1.1
		c0,0.6-0.4,1-0.9,1c-1.5,0.3-2.6,1.5-2.6,3.7v2.8c0,0.6-0.5,1.1-1.1,1.1c-0.6,0-1.1-0.5-1.1-1.1V32.7z"/>
	<path class="st0" d="M239.3,32.7c0-0.6,0.5-1.1,1.1-1.1c0.6,0,1.1,0.5,1.1,1.1v0.5c0.6-0.8,1.4-1.6,2.9-1.6c1.4,0,2.3,0.7,2.8,1.7
		c0.8-1,1.8-1.7,3.2-1.7c2.1,0,3.3,1.3,3.3,3.6v5.1c0,0.6-0.5,1.1-1.1,1.1s-1.1-0.5-1.1-1.1v-4.4c0-1.5-0.7-2.3-1.9-2.3
		c-1.2,0-2,0.8-2,2.4v4.4c0,0.6-0.5,1.1-1.1,1.1c-0.6,0-1.1-0.5-1.1-1.1v-4.4c0-1.5-0.7-2.3-1.9-2.3c-1.2,0-2,0.9-2,2.4v4.4
		c0,0.6-0.5,1.1-1.1,1.1c-0.6,0-1.1-0.5-1.1-1.1V32.7z"/>
	<path class="st0" d="M255.1,40.3c-0.2-0.1-0.4-0.4-0.4-0.8c0-0.5,0.4-0.9,0.9-0.9c0.2,0,0.3,0.1,0.5,0.1c0.9,0.6,1.9,0.9,2.7,0.9
		c0.9,0,1.5-0.4,1.5-1v0c0-0.7-1-1-2.1-1.3c-1.4-0.4-3-1-3-2.8v0c0-1.8,1.5-2.9,3.4-2.9c1,0,2.1,0.3,3,0.8c0.3,0.2,0.5,0.5,0.5,0.8
		c0,0.5-0.4,0.9-0.9,0.9c-0.2,0-0.3,0-0.4-0.1c-0.8-0.4-1.6-0.6-2.2-0.6c-0.8,0-1.3,0.4-1.3,0.9v0c0,0.7,1,1,2.1,1.4
		c1.4,0.4,3,1.1,3,2.8v0c0,2-1.5,3-3.5,3C257.6,41.4,256.2,41.1,255.1,40.3z"/>
	<path class="st0" d="M266,37.4c-0.4,0-0.7-0.3-0.8-0.7l-0.2-1.5c-0.1-0.5,0.2-0.8,0.7-0.9c1.7-0.2,2.6-0.8,2.6-1.9v0
		c0-1-0.8-1.7-2.1-1.7c-1,0-1.7,0.3-2.4,1c-0.2,0.1-0.4,0.3-0.7,0.3c-0.6,0-1-0.5-1-1c0-0.3,0.1-0.6,0.4-0.8c1-0.9,2.2-1.5,3.8-1.5
		c2.5,0,4.2,1.4,4.2,3.7v0c0,2.3-1.6,3.3-3.6,3.6l-0.1,0.8c-0.1,0.4-0.4,0.7-0.8,0.7H266z M266,38.7c0.7,0,1.3,0.5,1.3,1.2v0.2
		c0,0.7-0.5,1.2-1.3,1.2s-1.3-0.5-1.3-1.2v-0.2C264.8,39.2,265.3,38.7,266,38.7z"/>
</g>
</svg>
