<?xml version="1.0" encoding="utf-8"?>
<!-- Generator: Adobe Illustrator 21.1.0, SVG Export Plug-In . SVG Version: 6.00 Build 0)  -->
<svg version="1.1" id="Layer_2" xmlns="http://www.w3.org/2000/svg" xmlns:xlink="http://www.w3.org/1999/xlink" x="0px" y="0px"
	 viewBox="0 0 320 50" style="enable-background:new 0 0 320 50;" xml:space="preserve">
<style type="text/css">
	.st0{fill:#FFFFFF;}
</style>
<g>
	<path class="st0" d="M72.8,14L72.8,14c0-3.6,2.7-6.6,6.4-6.6c2,0,3.3,0.7,4.5,1.6C83.8,9.2,84,9.4,84,9.6c0,0.4-0.3,0.7-0.7,0.7
		c-0.2,0-0.4-0.1-0.5-0.2c-1-0.9-2.1-1.4-3.6-1.4c-2.8,0-4.9,2.3-4.9,5.2v0c0,2.9,2.1,5.2,4.9,5.2c1.6,0,2.7-0.5,3.7-1.5
		c0.1-0.1,0.3-0.2,0.5-0.2c0.4,0,0.7,0.3,0.7,0.7c0,0.2-0.1,0.4-0.2,0.5c-1.2,1.1-2.6,1.9-4.7,1.9C75.5,20.5,72.8,17.6,72.8,14z"/>
	<path class="st0" d="M85.3,7.7C85.3,7.3,85.7,7,86,7c0.4,0,0.7,0.3,0.7,0.7v4.8c0.6-1,1.6-1.8,3.2-1.8c2.3,0,3.6,1.5,3.6,3.7v5.2
		c0,0.4-0.3,0.7-0.7,0.7c-0.4,0-0.7-0.3-0.7-0.7v-4.8c0-1.7-0.9-2.8-2.6-2.8c-1.6,0-2.8,1.2-2.8,2.9v4.7c0,0.4-0.3,0.7-0.7,0.7
		c-0.4,0-0.7-0.3-0.7-0.7V7.7z"/>
	<path class="st0" d="M99.4,20.5c-2.6,0-4.6-2-4.6-4.8v0c0-2.7,1.9-4.8,4.5-4.8c2.8,0,4.3,2.3,4.3,4.7c0,0.4-0.3,0.6-0.6,0.6h-6.7
		c0.2,2,1.6,3.2,3.3,3.2c1.2,0,2-0.5,2.7-1.1c0.1-0.1,0.2-0.2,0.4-0.2c0.3,0,0.6,0.3,0.6,0.6c0,0.2-0.1,0.3-0.2,0.5
		C102.1,19.9,101,20.5,99.4,20.5z M102.2,15.1c-0.1-1.7-1.1-3.2-3-3.2c-1.6,0-2.8,1.4-3,3.2H102.2z"/>
	<path class="st0" d="M104.4,15.6L104.4,15.6c0-2.7,2.1-4.9,4.8-4.9c1.5,0,2.6,0.6,3.4,1.4c0.1,0.1,0.2,0.3,0.2,0.5
		c0,0.4-0.3,0.7-0.7,0.7c-0.2,0-0.3-0.1-0.5-0.2c-0.7-0.6-1.4-1.1-2.5-1.1c-1.9,0-3.3,1.6-3.3,3.6v0c0,2,1.5,3.6,3.4,3.6
		c1.1,0,1.9-0.5,2.6-1.1c0.1-0.1,0.2-0.2,0.4-0.2c0.3,0,0.6,0.3,0.6,0.6c0,0.2-0.1,0.3-0.2,0.4c-0.9,0.9-1.9,1.5-3.5,1.5
		C106.4,20.5,104.4,18.2,104.4,15.6z"/>
	<path class="st0" d="M114.1,7.7c0-0.4,0.3-0.7,0.7-0.7c0.4,0,0.7,0.3,0.7,0.7v8.5l5-5.1c0.2-0.2,0.3-0.3,0.5-0.3
		c0.4,0,0.6,0.3,0.6,0.6c0,0.2-0.1,0.4-0.3,0.5l-3,3l3.3,4.2c0.1,0.2,0.2,0.3,0.2,0.5c0,0.4-0.3,0.6-0.7,0.6c-0.3,0-0.4-0.1-0.6-0.3
		l-3.2-4.1l-1.9,1.9v1.8c0,0.4-0.3,0.7-0.7,0.7c-0.4,0-0.7-0.3-0.7-0.7V7.7z"/>
	<path class="st0" d="M127.6,8c0-0.5,0.4-0.7,0.8-0.7c0.5,0,0.8,0.3,0.8,0.7v0.2c0,0.4-0.4,0.7-0.8,0.7c-0.5,0-0.8-0.3-0.8-0.7V8z
		 M127.7,11.5c0-0.4,0.3-0.7,0.7-0.7c0.4,0,0.7,0.3,0.7,0.7v8.1c0,0.4-0.3,0.7-0.7,0.7c-0.4,0-0.7-0.3-0.7-0.7V11.5z"/>
	<path class="st0" d="M131.8,12.1H131c-0.3,0-0.6-0.3-0.6-0.6c0-0.3,0.3-0.6,0.6-0.6h0.8v-0.8c0-1.1,0.3-1.9,0.8-2.4
		c0.5-0.5,1.2-0.7,2-0.7c0.5,0,0.8,0,1.1,0.1c0.3,0.1,0.5,0.3,0.5,0.6c0,0.4-0.3,0.6-0.7,0.6c-0.2,0-0.5-0.1-0.8-0.1
		c-1.1,0-1.6,0.6-1.6,2V11h2.4c0.3,0,0.6,0.3,0.6,0.6c0,0.3-0.3,0.6-0.6,0.6h-2.4v7.5c0,0.4-0.3,0.7-0.7,0.7s-0.7-0.3-0.7-0.7V12.1z
		"/>
	<path class="st0" d="M140.9,22.9c-0.2-0.1-0.4-0.3-0.4-0.6c0-0.3,0.3-0.6,0.6-0.6c0.1,0,0.2,0,0.3,0.1c0.3,0.1,0.5,0.2,1,0.2
		c0.9,0,1.4-0.5,1.9-1.7l0.1-0.1l-3.9-8.2c-0.1-0.1-0.1-0.3-0.1-0.4c0-0.4,0.3-0.7,0.7-0.7c0.4,0,0.6,0.2,0.7,0.5l3.2,7.3l2.9-7.3
		c0.1-0.3,0.3-0.5,0.7-0.5c0.4,0,0.7,0.3,0.7,0.7c0,0.1,0,0.2-0.1,0.3l-3.6,8.7c-0.8,1.9-1.7,2.6-3.1,2.6
		C141.8,23.2,141.4,23.1,140.9,22.9z"/>
	<path class="st0" d="M149.5,15.6L149.5,15.6c0-2.7,2.1-4.9,4.9-4.9c2.8,0,4.8,2.2,4.8,4.8v0c0,2.6-2.1,4.9-4.9,4.9
		C151.5,20.5,149.5,18.3,149.5,15.6z M157.8,15.6L157.8,15.6c0-2-1.5-3.7-3.5-3.7c-2,0-3.4,1.6-3.4,3.6v0c0,2,1.5,3.6,3.4,3.6
		C156.4,19.2,157.8,17.6,157.8,15.6z"/>
	<path class="st0" d="M168.6,19.6c0,0.4-0.3,0.7-0.7,0.7c-0.4,0-0.7-0.3-0.7-0.7v-1c-0.6,1-1.6,1.8-3.2,1.8c-2.3,0-3.6-1.5-3.6-3.7
		v-5.2c0-0.4,0.3-0.7,0.7-0.7c0.4,0,0.7,0.3,0.7,0.7v4.8c0,1.7,0.9,2.8,2.6,2.8c1.6,0,2.8-1.2,2.8-2.9v-4.7c0-0.4,0.3-0.7,0.7-0.7
		c0.4,0,0.7,0.3,0.7,0.7V19.6z"/>
	<path class="st0" d="M170.6,11.5c0-0.4,0.3-0.7,0.7-0.7c0.4,0,0.7,0.3,0.7,0.7v1.7c0.7-1.5,2-2.5,3.2-2.5c0.4,0,0.7,0.3,0.7,0.7
		c0,0.4-0.3,0.6-0.6,0.7c-1.8,0.2-3.3,1.6-3.3,4.2v3.2c0,0.4-0.3,0.7-0.7,0.7c-0.4,0-0.7-0.3-0.7-0.7V11.5z"/>
	<path class="st0" d="M181.2,7.7c0-0.4,0.3-0.7,0.7-0.7c0.4,0,0.7,0.3,0.7,0.7v5.1c0.8-1.1,1.9-2.1,3.6-2.1c2.2,0,4.4,1.8,4.4,4.8v0
		c0,3-2.2,4.8-4.4,4.8c-1.7,0-2.8-0.9-3.6-2v1.2c0,0.4-0.3,0.7-0.7,0.7c-0.4,0-0.7-0.3-0.7-0.7V7.7z M189.2,15.6L189.2,15.6
		c0-2.2-1.5-3.6-3.3-3.6c-1.7,0-3.4,1.5-3.4,3.6v0c0,2.2,1.6,3.6,3.4,3.6C187.7,19.2,189.2,17.9,189.2,15.6z"/>
	<path class="st0" d="M200,19.6c0,0.4-0.3,0.7-0.7,0.7c-0.4,0-0.7-0.3-0.7-0.7v-1c-0.6,1-1.6,1.8-3.2,1.8c-2.3,0-3.6-1.5-3.6-3.7
		v-5.2c0-0.4,0.3-0.7,0.7-0.7c0.4,0,0.7,0.3,0.7,0.7v4.8c0,1.7,0.9,2.8,2.6,2.8c1.6,0,2.8-1.2,2.8-2.9v-4.7c0-0.4,0.3-0.7,0.7-0.7
		c0.4,0,0.7,0.3,0.7,0.7V19.6z"/>
	<path class="st0" d="M201.6,19.2c-0.1-0.1-0.3-0.3-0.3-0.5c0-0.3,0.3-0.6,0.6-0.6c0.1,0,0.3,0,0.3,0.1c1,0.6,1.9,1,3,1
		c1.1,0,1.9-0.6,1.9-1.5v0c0-0.9-1.1-1.3-2.3-1.6c-1.5-0.4-3.1-0.9-3.1-2.6v0c0-1.6,1.3-2.7,3.2-2.7c1,0,2.1,0.3,3,0.8
		c0.2,0.1,0.3,0.3,0.3,0.6c0,0.3-0.3,0.6-0.6,0.6c-0.1,0-0.2,0-0.3-0.1c-0.8-0.5-1.6-0.7-2.4-0.7c-1.1,0-1.8,0.6-1.8,1.4v0
		c0,0.9,1.2,1.2,2.4,1.6c1.4,0.4,3,1,3,2.7v0c0,1.8-1.5,2.8-3.3,2.8C203.9,20.4,202.6,20,201.6,19.2z"/>
	<path class="st0" d="M209.9,8c0-0.5,0.4-0.7,0.8-0.7c0.5,0,0.8,0.3,0.8,0.7v0.2c0,0.4-0.4,0.7-0.8,0.7c-0.5,0-0.8-0.3-0.8-0.7V8z
		 M210.1,11.5c0-0.4,0.3-0.7,0.7-0.7c0.4,0,0.7,0.3,0.7,0.7v8.1c0,0.4-0.3,0.7-0.7,0.7c-0.4,0-0.7-0.3-0.7-0.7V11.5z"/>
	<path class="st0" d="M213.6,11.5c0-0.4,0.3-0.7,0.7-0.7c0.4,0,0.7,0.3,0.7,0.7v1c0.6-1,1.6-1.8,3.2-1.8c2.2,0,3.6,1.5,3.6,3.7v5.2
		c0,0.4-0.3,0.7-0.7,0.7c-0.4,0-0.7-0.3-0.7-0.7v-4.8c0-1.7-0.9-2.8-2.6-2.8c-1.6,0-2.8,1.2-2.8,2.9v4.7c0,0.4-0.3,0.7-0.7,0.7
		c-0.4,0-0.7-0.3-0.7-0.7V11.5z"/>
	<path class="st0" d="M227.7,20.5c-2.6,0-4.6-2-4.6-4.8v0c0-2.7,1.9-4.8,4.5-4.8c2.8,0,4.3,2.3,4.3,4.7c0,0.4-0.3,0.6-0.6,0.6h-6.7
		c0.2,2,1.6,3.2,3.3,3.2c1.2,0,2-0.5,2.7-1.1c0.1-0.1,0.2-0.2,0.4-0.2c0.3,0,0.6,0.3,0.6,0.6c0,0.2-0.1,0.3-0.2,0.5
		C230.3,19.9,229.3,20.5,227.7,20.5z M230.4,15.1c-0.1-1.7-1.1-3.2-3-3.2c-1.6,0-2.8,1.4-3,3.2H230.4z"/>
	<path class="st0" d="M232.7,19.2c-0.1-0.1-0.3-0.3-0.3-0.5c0-0.3,0.3-0.6,0.6-0.6c0.1,0,0.3,0,0.3,0.1c1,0.6,1.9,1,3,1
		c1.1,0,1.9-0.6,1.9-1.5v0c0-0.9-1.1-1.3-2.3-1.6c-1.5-0.4-3.1-0.9-3.1-2.6v0c0-1.6,1.3-2.7,3.2-2.7c1,0,2.1,0.3,3,0.8
		c0.2,0.1,0.3,0.3,0.3,0.6c0,0.3-0.3,0.6-0.6,0.6c-0.1,0-0.2,0-0.3-0.1c-0.8-0.5-1.6-0.7-2.4-0.7c-1.1,0-1.8,0.6-1.8,1.4v0
		c0,0.9,1.2,1.2,2.4,1.6c1.4,0.4,3,1,3,2.7v0c0,1.8-1.5,2.8-3.3,2.8C235,20.4,233.7,20,232.7,19.2z"/>
	<path class="st0" d="M240.4,19.2c-0.1-0.1-0.3-0.3-0.3-0.5c0-0.3,0.3-0.6,0.6-0.6c0.1,0,0.3,0,0.3,0.1c1,0.6,1.9,1,3,1
		c1.1,0,1.9-0.6,1.9-1.5v0c0-0.9-1.1-1.3-2.3-1.6c-1.5-0.4-3.1-0.9-3.1-2.6v0c0-1.6,1.3-2.7,3.2-2.7c1,0,2.1,0.3,3,0.8
		c0.2,0.1,0.3,0.3,0.3,0.6c0,0.3-0.3,0.6-0.6,0.6c-0.1,0-0.2,0-0.3-0.1c-0.8-0.5-1.6-0.7-2.4-0.7c-1.1,0-1.8,0.6-1.8,1.4v0
		c0,0.9,1.2,1.2,2.4,1.6c1.4,0.4,3,1,3,2.7v0c0,1.8-1.5,2.8-3.3,2.8C242.7,20.4,241.4,20,240.4,19.2z"/>
	<path class="st0" d="M78.6,39.6c0,0.4-0.3,0.7-0.7,0.7c-0.4,0-0.7-0.3-0.7-0.7v-1.3c-0.8,1.1-1.9,2.1-3.6,2.1
		c-2.2,0-4.4-1.8-4.4-4.8v0c0-3,2.2-4.8,4.4-4.8c1.7,0,2.8,0.9,3.6,2v-5c0-0.4,0.3-0.7,0.7-0.7c0.4,0,0.7,0.3,0.7,0.7V39.6z
		 M70.6,35.6L70.6,35.6c0,2.2,1.5,3.6,3.3,3.6c1.7,0,3.4-1.5,3.4-3.6v0c0-2.1-1.6-3.6-3.4-3.6C72.1,32,70.6,33.3,70.6,35.6z"/>
	<path class="st0" d="M84.7,40.5c-2.6,0-4.6-2-4.6-4.8v0c0-2.7,1.9-4.8,4.5-4.8c2.8,0,4.3,2.3,4.3,4.7c0,0.4-0.3,0.6-0.6,0.6h-6.7
		c0.2,2,1.6,3.2,3.3,3.2c1.2,0,2-0.5,2.7-1.1c0.1-0.1,0.2-0.2,0.4-0.2c0.3,0,0.6,0.3,0.6,0.6c0,0.2-0.1,0.3-0.2,0.5
		C87.3,39.9,86.3,40.5,84.7,40.5z M87.4,35.1c-0.1-1.7-1.1-3.2-3-3.2c-1.6,0-2.8,1.4-3,3.2H87.4z"/>
	<path class="st0" d="M93.5,40.4L93.5,40.4c-0.5,0-0.7-0.2-0.9-0.6l-3.5-7.9c0-0.1-0.1-0.3-0.1-0.4c0-0.4,0.3-0.7,0.7-0.7
		s0.6,0.2,0.7,0.5l3,7.3l3.1-7.3c0.1-0.3,0.3-0.5,0.6-0.5c0.4,0,0.7,0.3,0.7,0.7c0,0.1,0,0.3-0.1,0.3l-3.5,7.9
		C94.1,40.1,93.9,40.4,93.5,40.4z"/>
	<path class="st0" d="M99.2,28c0-0.5,0.4-0.7,0.8-0.7c0.5,0,0.8,0.3,0.8,0.7v0.2c0,0.4-0.4,0.7-0.8,0.7c-0.5,0-0.8-0.3-0.8-0.7V28z
		 M99.3,31.5c0-0.4,0.3-0.7,0.7-0.7c0.4,0,0.7,0.3,0.7,0.7v8.1c0,0.4-0.3,0.7-0.7,0.7c-0.4,0-0.7-0.3-0.7-0.7V31.5z"/>
	<path class="st0" d="M102.3,35.6L102.3,35.6c0-2.7,2.1-4.9,4.8-4.9c1.5,0,2.6,0.6,3.4,1.4c0.1,0.1,0.2,0.3,0.2,0.5
		c0,0.4-0.3,0.7-0.7,0.7c-0.2,0-0.3-0.1-0.4-0.2c-0.7-0.6-1.4-1.1-2.5-1.1c-1.9,0-3.3,1.6-3.3,3.6v0c0,2,1.5,3.6,3.4,3.6
		c1.1,0,1.9-0.5,2.6-1.1c0.1-0.1,0.2-0.2,0.4-0.2c0.3,0,0.6,0.3,0.6,0.6c0,0.2-0.1,0.3-0.2,0.4c-0.9,0.9-1.9,1.5-3.5,1.5
		C104.3,40.5,102.3,38.2,102.3,35.6z"/>
	<path class="st0" d="M115.8,40.5c-2.6,0-4.6-2-4.6-4.8v0c0-2.7,1.9-4.8,4.5-4.8c2.8,0,4.3,2.3,4.3,4.7c0,0.4-0.3,0.6-0.6,0.6h-6.7
		c0.2,2,1.6,3.2,3.3,3.2c1.2,0,2-0.5,2.7-1.1c0.1-0.1,0.2-0.2,0.4-0.2c0.3,0,0.6,0.3,0.6,0.6c0,0.2-0.1,0.3-0.2,0.5
		C118.5,39.9,117.4,40.5,115.8,40.5z M118.6,35.1c-0.1-1.7-1.1-3.2-3-3.2c-1.6,0-2.8,1.4-3,3.2H118.6z"/>
	<path class="st0" d="M120.8,39.2c-0.1-0.1-0.3-0.3-0.3-0.5c0-0.3,0.3-0.6,0.6-0.6c0.1,0,0.3,0,0.3,0.1c1,0.6,1.9,1,3,1
		c1.1,0,1.9-0.6,1.9-1.5v0c0-0.9-1.1-1.3-2.3-1.6c-1.5-0.4-3.1-0.9-3.1-2.6v0c0-1.6,1.3-2.7,3.2-2.7c1,0,2.1,0.3,3,0.8
		c0.2,0.1,0.3,0.3,0.3,0.6c0,0.3-0.3,0.6-0.6,0.6c-0.1,0-0.2,0-0.3-0.1c-0.8-0.5-1.6-0.7-2.4-0.7c-1.1,0-1.8,0.6-1.8,1.4v0
		c0,0.9,1.2,1.2,2.4,1.6c1.4,0.4,3,1,3,2.7v0c0,1.8-1.5,2.8-3.3,2.8C123.2,40.4,121.8,40,120.8,39.2z"/>
	<path class="st0" d="M132.8,37.5L132.8,37.5c0-2,1.6-3,4-3c1.2,0,2,0.2,2.9,0.4v-0.3c0-1.7-1-2.5-2.8-2.5c-0.9,0-1.7,0.2-2.4,0.5
		c-0.1,0-0.2,0.1-0.3,0.1c-0.3,0-0.6-0.3-0.6-0.6c0-0.3,0.2-0.5,0.4-0.6c0.9-0.4,1.9-0.6,3-0.6c1.3,0,2.3,0.3,3,1
		c0.6,0.6,1,1.5,1,2.7v5.1c0,0.4-0.3,0.7-0.7,0.7c-0.4,0-0.7-0.3-0.7-0.6v-0.8c-0.6,0.8-1.7,1.6-3.4,1.6
		C134.6,40.4,132.8,39.4,132.8,37.5z M139.7,36.8v-0.9c-0.7-0.2-1.6-0.4-2.7-0.4c-1.7,0-2.7,0.8-2.7,1.9v0c0,1.2,1.1,1.9,2.3,1.9
		C138.3,39.3,139.7,38.3,139.7,36.8z"/>
	<path class="st0" d="M142.9,31.5c0-0.4,0.3-0.7,0.7-0.7c0.4,0,0.7,0.3,0.7,0.7v1.7c0.7-1.5,2-2.5,3.2-2.5c0.4,0,0.7,0.3,0.7,0.7
		c0,0.4-0.3,0.6-0.6,0.7c-1.8,0.2-3.3,1.6-3.3,4.2v3.2c0,0.4-0.3,0.7-0.7,0.7c-0.4,0-0.7-0.3-0.7-0.7V31.5z"/>
	<path class="st0" d="M152.8,40.5c-2.6,0-4.6-2-4.6-4.8v0c0-2.7,1.9-4.8,4.5-4.8c2.8,0,4.3,2.3,4.3,4.7c0,0.4-0.3,0.6-0.6,0.6h-6.7
		c0.2,2,1.6,3.2,3.3,3.2c1.2,0,2-0.5,2.7-1.1c0.1-0.1,0.2-0.2,0.4-0.2c0.3,0,0.6,0.3,0.6,0.6c0,0.2-0.1,0.3-0.2,0.5
		C155.4,39.9,154.3,40.5,152.8,40.5z M155.5,35.1c-0.1-1.7-1.1-3.2-3-3.2c-1.6,0-2.8,1.4-3,3.2H155.5z"/>
	<path class="st0" d="M162,35.6L162,35.6c0-2.7,2.1-4.9,4.8-4.9c1.5,0,2.6,0.6,3.4,1.4c0.1,0.1,0.2,0.3,0.2,0.5
		c0,0.4-0.3,0.7-0.7,0.7c-0.2,0-0.3-0.1-0.5-0.2c-0.7-0.6-1.4-1.1-2.5-1.1c-1.9,0-3.3,1.6-3.3,3.6v0c0,2,1.5,3.6,3.4,3.6
		c1.1,0,1.9-0.5,2.6-1.1c0.1-0.1,0.2-0.2,0.4-0.2c0.3,0,0.6,0.3,0.6,0.6c0,0.2-0.1,0.3-0.2,0.4c-0.9,0.9-1.9,1.5-3.5,1.5
		C164.1,40.5,162,38.2,162,35.6z"/>
	<path class="st0" d="M170.9,35.6L170.9,35.6c0-2.7,2.1-4.9,4.9-4.9c2.8,0,4.8,2.2,4.8,4.8v0c0,2.6-2.1,4.9-4.9,4.9
		C173,40.5,170.9,38.3,170.9,35.6z M179.2,35.6L179.2,35.6c0-2-1.5-3.7-3.5-3.7c-2,0-3.4,1.6-3.4,3.6v0c0,2,1.5,3.6,3.4,3.6
		C177.8,39.2,179.2,37.6,179.2,35.6z"/>
	<path class="st0" d="M182.1,31.5c0-0.4,0.3-0.7,0.7-0.7c0.4,0,0.7,0.3,0.7,0.7v1c0.6-0.9,1.4-1.8,3-1.8c1.5,0,2.5,0.8,3,1.9
		c0.7-1,1.7-1.9,3.3-1.9c2.1,0,3.5,1.4,3.5,3.7v5.1c0,0.4-0.3,0.7-0.7,0.7c-0.4,0-0.7-0.3-0.7-0.7v-4.8c0-1.8-0.9-2.8-2.4-2.8
		c-1.4,0-2.6,1-2.6,2.9v4.8c0,0.4-0.3,0.7-0.7,0.7c-0.4,0-0.7-0.3-0.7-0.7v-4.9c0-1.7-0.9-2.8-2.4-2.8c-1.5,0-2.6,1.2-2.6,2.9v4.7
		c0,0.4-0.3,0.7-0.7,0.7c-0.4,0-0.7-0.3-0.7-0.7V31.5z"/>
	<path class="st0" d="M198.1,31.5c0-0.4,0.3-0.7,0.7-0.7c0.4,0,0.7,0.3,0.7,0.7v1.3c0.8-1.1,1.9-2.1,3.6-2.1c2.2,0,4.4,1.8,4.4,4.8
		v0c0,3-2.2,4.8-4.4,4.8c-1.7,0-2.8-0.9-3.6-2v4.1c0,0.4-0.3,0.7-0.7,0.7c-0.4,0-0.7-0.3-0.7-0.7V31.5z M206.1,35.6L206.1,35.6
		c0-2.2-1.5-3.6-3.3-3.6c-1.7,0-3.4,1.5-3.4,3.6v0c0,2.2,1.6,3.6,3.4,3.6C204.6,39.2,206.1,37.9,206.1,35.6z"/>
	<path class="st0" d="M208.3,37.5L208.3,37.5c0-2,1.6-3,4-3c1.2,0,2,0.2,2.9,0.4v-0.3c0-1.7-1-2.5-2.8-2.5c-0.9,0-1.7,0.2-2.4,0.5
		c-0.1,0-0.2,0.1-0.3,0.1c-0.3,0-0.6-0.3-0.6-0.6c0-0.3,0.2-0.5,0.4-0.6c0.9-0.4,1.9-0.6,3-0.6c1.3,0,2.3,0.3,3,1
		c0.6,0.6,1,1.5,1,2.7v5.1c0,0.4-0.3,0.7-0.7,0.7c-0.4,0-0.7-0.3-0.7-0.6v-0.8c-0.6,0.8-1.7,1.6-3.4,1.6
		C210,40.4,208.3,39.4,208.3,37.5z M215.1,36.8v-0.9c-0.7-0.2-1.6-0.4-2.7-0.4c-1.7,0-2.7,0.8-2.7,1.9v0c0,1.2,1.1,1.9,2.3,1.9
		C213.7,39.3,215.1,38.3,215.1,36.8z"/>
	<path class="st0" d="M218.7,37.8v-5.6H218c-0.3,0-0.6-0.3-0.6-0.6c0-0.3,0.3-0.6,0.6-0.6h0.8v-2.2c0-0.4,0.3-0.7,0.7-0.7
		c0.4,0,0.7,0.3,0.7,0.7v2.2h2.4c0.3,0,0.6,0.3,0.6,0.6c0,0.3-0.3,0.6-0.6,0.6h-2.4v5.4c0,1.1,0.6,1.5,1.6,1.5
		c0.5,0,0.7-0.1,0.8-0.1c0.3,0,0.6,0.3,0.6,0.6c0,0.3-0.2,0.5-0.4,0.5c-0.4,0.2-0.8,0.3-1.4,0.3C219.8,40.4,218.7,39.7,218.7,37.8z"
		/>
	<path class="st0" d="M224.4,28c0-0.5,0.4-0.7,0.8-0.7c0.5,0,0.8,0.3,0.8,0.7v0.2c0,0.4-0.4,0.7-0.8,0.7c-0.5,0-0.8-0.3-0.8-0.7V28z
		 M224.5,31.5c0-0.4,0.3-0.7,0.7-0.7c0.4,0,0.7,0.3,0.7,0.7v8.1c0,0.4-0.3,0.7-0.7,0.7c-0.4,0-0.7-0.3-0.7-0.7V31.5z"/>
	<path class="st0" d="M228.1,27.7c0-0.4,0.3-0.7,0.7-0.7c0.4,0,0.7,0.3,0.7,0.7v5.1c0.8-1.1,1.9-2.1,3.6-2.1c2.2,0,4.4,1.8,4.4,4.8
		v0c0,3-2.2,4.8-4.4,4.8c-1.7,0-2.8-0.9-3.6-2v1.2c0,0.4-0.3,0.7-0.7,0.7c-0.4,0-0.7-0.3-0.7-0.7V27.7z M236.1,35.6L236.1,35.6
		c0-2.2-1.5-3.6-3.3-3.6c-1.7,0-3.4,1.5-3.4,3.6v0c0,2.2,1.6,3.6,3.4,3.6C234.6,39.2,236.1,37.9,236.1,35.6z"/>
	<path class="st0" d="M239.1,27.7c0-0.4,0.3-0.7,0.7-0.7c0.4,0,0.7,0.3,0.7,0.7v11.9c0,0.4-0.3,0.7-0.7,0.7c-0.4,0-0.7-0.3-0.7-0.7
		V27.7z"/>
	<path class="st0" d="M246.7,40.5c-2.6,0-4.6-2-4.6-4.8v0c0-2.7,1.9-4.8,4.5-4.8c2.8,0,4.3,2.3,4.3,4.7c0,0.4-0.3,0.6-0.6,0.6h-6.7
		c0.2,2,1.6,3.2,3.3,3.2c1.2,0,2-0.5,2.7-1.1c0.1-0.1,0.2-0.2,0.4-0.2c0.3,0,0.6,0.3,0.6,0.6c0,0.2-0.1,0.3-0.2,0.5
		C249.3,39.9,248.3,40.5,246.7,40.5z M249.4,35.1c-0.1-1.7-1.1-3.2-3-3.2c-1.6,0-2.8,1.4-3,3.2H249.4z"/>
</g>
</svg>
