<?xml version="1.0" encoding="UTF-8"?>
<svg enable-background="new 0 0 160 600" version="1.1" viewBox="0 0 160 600" xml:space="preserve" xmlns="http://www.w3.org/2000/svg">
<style type="text/css">
	.st0{fill:#133C7D;}
</style>
	<path class="st0" d="m15.4 41v-6.2c0-0.6 0.5-1.1 1.1-1.1s1.1 0.5 1.1 1.1v6.2c0 2.3 1.2 3.6 3.2 3.6s3.2-1.2 3.2-3.5v-6.2c0-0.6 0.5-1.1 1.1-1.1s1.1 0.5 1.1 1.1v6.1c0 3.8-2.1 5.7-5.4 5.7-3.3-0.2-5.4-2.1-5.4-5.7z"/>
	<path class="st0" d="m27.7 45.3c-0.2-0.1-0.4-0.4-0.4-0.8 0-0.5 0.4-0.9 0.9-0.9 0.2 0 0.3 0.1 0.5 0.1 0.9 0.6 1.9 0.9 2.7 0.9 0.9 0 1.5-0.4 1.5-1 0-0.7-1-1-2.1-1.3-1.4-0.4-3-1-3-2.8s1.5-2.9 3.4-2.9c1 0 2.1 0.3 3 0.8 0.3 0.2 0.5 0.5 0.5 0.8 0 0.5-0.4 0.9-0.9 0.9-0.2 0-0.3 0-0.4-0.1-0.8-0.4-1.6-0.6-2.2-0.6-0.8 0-1.3 0.4-1.3 0.9 0 0.7 1 1 2.1 1.4 1.4 0.4 3 1.1 3 2.8 0 2-1.5 3-3.5 3-1.4 0-2.7-0.4-3.8-1.2z"/>
	<path class="st0" d="m40.6 46.5c-2.8 0-4.9-2-4.9-4.9 0-2.7 1.9-5 4.6-5 3 0 4.5 2.5 4.5 4.7 0 0.6-0.5 1-1 1h-6c0.2 1.5 1.3 2.4 2.7 2.4 0.9 0 1.6-0.3 2.3-0.8 0.2-0.1 0.3-0.2 0.6-0.2 0.5 0 0.9 0.4 0.9 0.9 0 0.3-0.1 0.5-0.3 0.7-0.9 0.7-2 1.2-3.4 1.2zm2.1-5.6c-0.1-1.4-1-2.5-2.4-2.5-1.3 0-2.3 1-2.5 2.5h4.9z"/>
	<path class="st0" d="m51.1 43.7v-5h-0.4c-0.5 0-0.9-0.4-0.9-0.9s0.4-0.9 0.9-0.9h0.4v-1.6c0-0.6 0.5-1.1 1.1-1.1s1.1 0.5 1.1 1.1v1.6h1.7c0.5 0 1 0.4 1 0.9s-0.4 0.9-1 0.9h-1.7v4.7c0 0.8 0.4 1.2 1.2 1.2 0.3 0 0.5-0.1 0.5-0.1 0.5 0 0.9 0.4 0.9 0.9 0 0.4-0.3 0.7-0.6 0.8-0.5 0.2-0.9 0.3-1.5 0.3-1.5 0-2.7-0.7-2.7-2.8z"/>
	<path class="st0" d="m57.2 34.1c0-0.6 0.5-1.1 1.1-1.1s1.1 0.5 1.1 1.1v4.1c0.6-0.9 1.5-1.7 3-1.7 2.1 0 3.4 1.4 3.4 3.6v5.1c0 0.6-0.5 1.1-1.1 1.1s-1.1-0.5-1.1-1.1v-4.4c0-1.5-0.7-2.3-2-2.3s-2.1 0.9-2.1 2.4v4.4c0 0.6-0.5 1.1-1.1 1.1s-1.1-0.5-1.1-1.1v-11.2z"/>
	<path class="st0" d="m71.8 46.5c-2.8 0-4.9-2-4.9-4.9 0-2.7 1.9-5 4.6-5 3 0 4.5 2.5 4.5 4.7 0 0.6-0.5 1-1 1h-6c0.2 1.5 1.3 2.4 2.7 2.4 0.9 0 1.6-0.3 2.3-0.8 0.2-0.1 0.3-0.2 0.6-0.2 0.5 0 0.9 0.4 0.9 0.9 0 0.3-0.1 0.5-0.3 0.7-0.8 0.7-1.9 1.2-3.4 1.2zm2.2-5.6c-0.1-1.4-1-2.5-2.4-2.5-1.3 0-2.3 1-2.5 2.5h4.9z"/>
	<path class="st0" d="m15.2 57.9c0-0.8 0.6-1.4 1.4-1.4s1.4 0.6 1.4 1.4v0.1c0.6-0.8 1.4-1.5 2.8-1.5 2.1 0 3.3 1.4 3.3 3.6v5c0 0.8-0.6 1.4-1.4 1.4s-1.4-0.6-1.4-1.4v-4.1c0-1.3-0.6-2-1.7-2-1 0-1.7 0.7-1.7 2v4c0 0.8-0.6 1.4-1.4 1.4s-1.4-0.6-1.4-1.4v-7.1z"/>
	<path class="st0" d="m25.5 54.4c0-0.8 0.6-1.4 1.4-1.4s1.4 0.6 1.4 1.4v3.6c0.7-0.9 1.6-1.6 3-1.6 2.3 0 4.4 1.8 4.4 5s-2.1 5-4.4 5c-1.5 0-2.4-0.7-3-1.4 0 0.7-0.6 1.4-1.4 1.4s-1.4-0.6-1.4-1.4v-10.6zm7.4 7.1c0-1.6-1.1-2.7-2.4-2.7s-2.3 1.1-2.3 2.7 1.1 2.7 2.3 2.7c1.4 0 2.4-1.1 2.4-2.7z"/>
	<path class="st0" d="m36.8 57.9c0-0.8 0.6-1.4 1.4-1.4s1.4 0.6 1.4 1.4v0.1c0.6-0.8 1.4-1.5 2.8-1.5 2.1 0 3.3 1.4 3.3 3.6v5c0 0.8-0.6 1.4-1.4 1.4s-1.4-0.6-1.4-1.4v-4.1c0-1.3-0.6-2-1.7-2-1 0-1.7 0.7-1.7 2v4c0 0.8-0.6 1.4-1.4 1.4s-1.4-0.6-1.4-1.4v-7.1z"/>
	<path class="st0" d="m48.1 54.7h-1.3c-0.3 0-0.5-0.2-0.5-0.5s0.2-0.5 0.5-0.5h3.7c0.3 0 0.5 0.2 0.5 0.5s-0.2 0.5-0.5 0.5h-1.3v4.1c0 0.3-0.2 0.5-0.5 0.5s-0.5-0.2-0.5-0.5v-4.1zm3.9-0.5c0-0.3 0.2-0.5 0.5-0.5h0.1c0.2 0 0.4 0.1 0.5 0.3l1.7 2.7 1.7-2.7c0.1-0.2 0.3-0.3 0.5-0.3h0.1c0.3 0 0.5 0.2 0.5 0.5v4.7c0 0.3-0.2 0.5-0.5 0.5s-0.5-0.2-0.5-0.5v-3.2l-1.3 2c-0.1 0.2-0.2 0.3-0.5 0.3-0.2 0-0.3-0.1-0.5-0.3l-1.3-2v3.2c0 0.3-0.2 0.5-0.5 0.5s-0.5-0.2-0.5-0.5v-4.7z"/>
	<path class="st0" d="m63.3 54.1c0-0.6 0.5-1.1 1.1-1.1s1.1 0.5 1.1 1.1v4.2c0.7-1 1.7-1.8 3.2-1.8 2.2 0 4.4 1.8 4.4 4.9 0 3.2-2.2 4.9-4.4 4.9-1.6 0-2.6-0.8-3.2-1.7v0.5c0 0.6-0.5 1.1-1.1 1.1s-1.1-0.5-1.1-1.1v-11zm7.6 7.5c0-1.9-1.2-3.1-2.7-3.1s-2.8 1.2-2.8 3 1.3 3 2.8 3c1.5 0.1 2.7-1.1 2.7-2.9z"/>
	<path class="st0" d="m82.9 65.3c0 0.6-0.5 1.1-1.1 1.1s-1.1-0.5-1.1-1.1v-0.5c-0.6 0.9-1.5 1.7-3 1.7-2.1 0-3.4-1.4-3.4-3.7v-5.1c0-0.6 0.5-1.1 1.1-1.1s1.1 0.5 1.1 1.1v4.4c0 1.5 0.7 2.3 2 2.3s2.1-0.9 2.1-2.3v-4.4c0-0.6 0.5-1.1 1.1-1.1s1.1 0.5 1.1 1.1v7.6z"/>
	<path class="st0" d="m84.3 65.3c-0.2-0.1-0.4-0.4-0.4-0.8 0-0.5 0.4-0.9 0.9-0.9 0.2 0 0.3 0.1 0.5 0.1 0.9 0.6 1.9 0.9 2.7 0.9 0.9 0 1.5-0.4 1.5-1 0-0.7-1-1-2.1-1.3-1.4-0.4-3-1-3-2.8s1.5-2.9 3.4-2.9c1 0 2.1 0.3 3 0.8 0.3 0.2 0.5 0.5 0.5 0.8 0 0.5-0.4 0.9-0.9 0.9-0.2 0-0.3 0-0.4-0.1-0.8-0.4-1.6-0.6-2.2-0.6-0.8 0-1.3 0.4-1.3 0.9 0 0.7 1 1 2.1 1.4 1.4 0.4 3 1.1 3 2.8 0 2-1.5 3-3.5 3-1.3 0-2.7-0.4-3.8-1.2z"/>
	<path class="st0" d="m92.8 54.2c0-0.6 0.5-1.1 1.2-1.1s1.2 0.4 1.2 1.1v0.1c0 0.6-0.5 1.1-1.2 1.1s-1.2-0.4-1.2-1.1v-0.1zm0.1 3.6c0-0.6 0.5-1.1 1.1-1.1s1.1 0.5 1.1 1.1v7.5c0 0.6-0.5 1.1-1.1 1.1s-1.1-0.5-1.1-1.1v-7.5z"/>
	<path class="st0" d="m97.1 57.8c0-0.6 0.5-1.1 1.1-1.1s1.1 0.5 1.1 1.1v0.5c0.6-0.9 1.5-1.7 3-1.7 2.1 0 3.4 1.4 3.4 3.6v5.1c0 0.6-0.5 1.1-1.1 1.1s-1.1-0.5-1.1-1.1v-4.4c0-1.5-0.7-2.3-2-2.3s-2.1 0.9-2.1 2.4v4.4c0 0.6-0.5 1.1-1.1 1.1s-1.1-0.5-1.1-1.1v-7.6z"/>
	<path class="st0" d="m111.7 66.5c-2.8 0-4.9-2-4.9-4.9 0-2.7 1.9-5 4.6-5 3 0 4.5 2.5 4.5 4.7 0 0.6-0.5 1-1 1h-6c0.2 1.5 1.3 2.4 2.7 2.4 0.9 0 1.6-0.3 2.3-0.8 0.2-0.1 0.3-0.2 0.6-0.2 0.5 0 0.9 0.4 0.9 0.9 0 0.3-0.1 0.5-0.3 0.7-0.9 0.7-1.9 1.2-3.4 1.2zm2.1-5.6c-0.1-1.4-1-2.5-2.4-2.5-1.3 0-2.3 1-2.5 2.5h4.9z"/>
	<path class="st0" d="m116.9 65.3c-0.2-0.1-0.4-0.4-0.4-0.8 0-0.5 0.4-0.9 0.9-0.9 0.2 0 0.3 0.1 0.5 0.1 0.9 0.6 1.9 0.9 2.7 0.9 0.9 0 1.5-0.4 1.5-1 0-0.7-1-1-2.1-1.3-1.4-0.4-3-1-3-2.8s1.5-2.9 3.4-2.9c1 0 2.1 0.3 3 0.8 0.3 0.2 0.5 0.5 0.5 0.8 0 0.5-0.4 0.9-0.9 0.9-0.2 0-0.3 0-0.4-0.1-0.8-0.4-1.6-0.6-2.2-0.6-0.8 0-1.3 0.4-1.3 0.9 0 0.7 1 1 2.1 1.4 1.4 0.4 3 1.1 3 2.8 0 2-1.5 3-3.5 3-1.3 0-2.7-0.4-3.8-1.2z"/>
	<path class="st0" d="m124.9 65.3c-0.2-0.1-0.4-0.4-0.4-0.8 0-0.5 0.4-0.9 0.9-0.9 0.2 0 0.3 0.1 0.5 0.1 0.9 0.6 1.9 0.9 2.7 0.9 0.9 0 1.5-0.4 1.5-1 0-0.7-1-1-2.1-1.3-1.4-0.4-3-1-3-2.8s1.5-2.9 3.4-2.9c1 0 2.1 0.3 3 0.8 0.3 0.2 0.5 0.5 0.5 0.8 0 0.5-0.4 0.9-0.9 0.9-0.2 0-0.3 0-0.4-0.1-0.8-0.4-1.6-0.6-2.2-0.6-0.8 0-1.3 0.4-1.3 0.9 0 0.7 1 1 2.1 1.4 1.4 0.4 3 1.1 3 2.8 0 2-1.5 3-3.5 3-1.4 0-2.7-0.4-3.8-1.2z"/>
	<path class="st0" d="m14.8 81.6c0-2.7 2.1-5 5-5 1.5 0 2.5 0.5 3.3 1.2 0.1 0.1 0.3 0.4 0.3 0.8 0 0.6-0.5 1-1 1-0.3 0-0.5-0.1-0.6-0.2-0.6-0.5-1.2-0.8-2-0.8-1.6 0-2.8 1.4-2.8 3 0 1.7 1.2 3 2.8 3 0.9 0 1.5-0.3 2.1-0.8 0.1-0.1 0.3-0.2 0.6-0.2 0.5 0 0.9 0.4 0.9 1 0 0.3-0.1 0.5-0.3 0.7-0.8 0.8-1.9 1.4-3.5 1.4-2.7-0.2-4.8-2.4-4.8-5.1z"/>
	<path class="st0" d="m24.7 74.1c0-0.6 0.5-1.1 1.1-1.1s1.1 0.5 1.1 1.1v4.1c0.6-0.9 1.5-1.7 3-1.7 2.1 0 3.4 1.4 3.4 3.6v5.1c0 0.6-0.5 1.1-1.1 1.1s-1.1-0.5-1.1-1.1v-4.4c0-1.5-0.7-2.3-2-2.3s-2.1 0.9-2.1 2.4v4.4c0 0.6-0.5 1.1-1.1 1.1s-1.1-0.5-1.1-1.1v-11.2z"/>
	<path class="st0" d="m39.4 86.5c-2.8 0-4.9-2-4.9-4.9 0-2.7 1.9-5 4.6-5 3 0 4.5 2.5 4.5 4.7 0 0.6-0.5 1-1 1h-6c0.2 1.5 1.3 2.4 2.7 2.4 0.9 0 1.6-0.3 2.3-0.8 0.2-0.1 0.3-0.2 0.6-0.2 0.5 0 0.9 0.4 0.9 0.9 0 0.3-0.1 0.5-0.3 0.7-0.9 0.7-2 1.2-3.4 1.2zm2.1-5.6c-0.1-1.4-1-2.5-2.4-2.5-1.3 0-2.3 1-2.5 2.5h4.9z"/>
	<path class="st0" d="m44.5 81.6c0-2.7 2.1-5 5-5 1.5 0 2.5 0.5 3.3 1.2 0.1 0.1 0.3 0.4 0.3 0.8 0 0.6-0.5 1-1 1-0.3 0-0.5-0.1-0.6-0.2-0.6-0.5-1.2-0.8-2-0.8-1.6 0-2.8 1.4-2.8 3 0 1.7 1.2 3 2.8 3 0.9 0 1.5-0.3 2.1-0.8 0.1-0.1 0.3-0.2 0.6-0.2 0.5 0 0.9 0.4 0.9 1 0 0.3-0.1 0.5-0.3 0.7-0.8 0.7-1.8 1.2-3.4 1.2-2.9 0-4.9-2.2-4.9-4.9z"/>
	<path class="st0" d="m54.4 74.1c0-0.6 0.5-1.1 1.1-1.1s1.1 0.5 1.1 1.1v7l4.1-4c0.3-0.3 0.6-0.5 0.9-0.5 0.6 0 1 0.5 1 1 0 0.4-0.2 0.6-0.5 0.9l-2.5 2.3 2.9 3.8c0.2 0.3 0.3 0.5 0.3 0.7 0 0.6-0.5 1-1 1-0.4 0-0.7-0.1-1-0.5l-2.8-3.5-1.4 1.4v1.7c0 0.6-0.5 1.1-1.1 1.1s-1.1-0.5-1.1-1.1v-11.3z"/>
	<path class="st0" d="m64 74.1c0-0.6 0.5-1.1 1.1-1.1s1.1 0.5 1.1 1.1v11.2c0 0.6-0.5 1.1-1.1 1.1s-1.1-0.5-1.1-1.1v-11.2z"/>
	<path class="st0" d="m68.1 74.2c0-0.6 0.5-1.1 1.2-1.1s1.2 0.4 1.2 1.1v0.1c0 0.6-0.5 1.1-1.2 1.1s-1.2-0.4-1.2-1.1v-0.1zm0.2 3.6c0-0.6 0.5-1.1 1.1-1.1s1.1 0.5 1.1 1.1v7.5c0 0.6-0.5 1.1-1.1 1.1s-1.1-0.5-1.1-1.1v-7.5z"/>
	<path class="st0" d="m72 85.3c-0.2-0.1-0.4-0.4-0.4-0.8 0-0.5 0.4-0.9 0.9-0.9 0.2 0 0.3 0.1 0.5 0.1 0.9 0.6 1.9 0.9 2.7 0.9 0.9 0 1.5-0.4 1.5-1 0-0.7-1-1-2.1-1.3-1.4-0.4-3-1-3-2.8s1.5-2.9 3.4-2.9c1 0 2.1 0.3 3 0.8 0.3 0.2 0.5 0.5 0.5 0.8 0 0.5-0.4 0.9-0.9 0.9-0.2 0-0.3 0-0.4-0.1-0.8-0.4-1.6-0.6-2.2-0.6-0.8 0-1.3 0.4-1.3 0.9 0 0.7 1 1 2.1 1.4 1.4 0.4 3 1.1 3 2.8 0 2-1.5 3-3.5 3-1.4 0-2.7-0.4-3.8-1.2z"/>
	<path class="st0" d="m80.8 83.7v-5h-0.4c-0.5 0-0.9-0.4-0.9-0.9s0.4-0.9 0.9-0.9h0.4v-1.6c0-0.6 0.5-1.1 1.1-1.1s1.1 0.5 1.1 1.1v1.6h1.7c0.5 0 1 0.4 1 0.9s-0.4 0.9-1 0.9h-1.7v4.7c0 0.8 0.4 1.2 1.2 1.2 0.3 0 0.5-0.1 0.5-0.1 0.5 0 0.9 0.4 0.9 0.9 0 0.4-0.3 0.7-0.6 0.8-0.5 0.2-0.9 0.3-1.5 0.3-1.6 0-2.7-0.7-2.7-2.8z"/>
	<path class="st0" d="m90.7 83.6c0-2.1 1.6-3.1 3.9-3.1 1.1 0 1.8 0.2 2.6 0.4v-0.2c0-1.4-0.8-2.1-2.4-2.1-0.8 0-1.5 0.1-2.1 0.4-0.1 0-0.2 0.1-0.3 0.1-0.5 0-0.9-0.4-0.9-0.9 0-0.4 0.3-0.7 0.6-0.9 0.9-0.3 1.8-0.6 3.1-0.6 1.4 0 2.5 0.4 3.2 1.1s1 1.7 1 2.9v4.7c0 0.6-0.5 1-1.1 1s-1.1-0.4-1.1-0.9v-0.4c-0.6 0.8-1.6 1.4-3.1 1.4-1.8 0-3.4-1-3.4-2.9zm6.5-0.7v-0.6c-0.6-0.2-1.3-0.4-2.2-0.4-1.4 0-2.2 0.6-2.2 1.6 0 0.9 0.8 1.4 1.9 1.4 1.4 0 2.5-0.8 2.5-2z"/>
	<path class="st0" d="m101 77.8c0-0.6 0.5-1.1 1.1-1.1s1.1 0.5 1.1 1.1v0.5c0.6-0.9 1.5-1.7 3-1.7 2.1 0 3.4 1.4 3.4 3.6v5.1c0 0.6-0.5 1.1-1.1 1.1s-1.1-0.5-1.1-1.1v-4.4c0-1.5-0.7-2.3-2-2.3s-2.1 0.9-2.1 2.4v4.4c0 0.6-0.5 1.1-1.1 1.1s-1.1-0.5-1.1-1.1v-7.6z"/>
	<path class="st0" d="m120.6 85.3c0 0.6-0.5 1.1-1.1 1.1s-1.1-0.5-1.1-1.1v-0.6c-0.7 1-1.7 1.8-3.2 1.8-2.2 0-4.4-1.8-4.4-4.9 0-3.2 2.1-4.9 4.4-4.9 1.6 0 2.6 0.8 3.2 1.7v-4.1c0-0.6 0.5-1.1 1.1-1.1s1.1 0.5 1.1 1.1v11zm-7.6-3.8c0 1.9 1.3 3.1 2.7 3.1 1.5 0 2.8-1.2 2.8-3s-1.3-3-2.8-3c-1.5-0.1-2.7 1-2.7 2.9z"/>
	<path class="st0" d="m15.9 98.7h-0.4c-0.5 0-0.9-0.4-0.9-0.9s0.4-0.9 0.9-0.9h0.4v-0.7c0-1 0.3-1.8 0.8-2.3s1.2-0.8 2.1-0.8c0.4 0 0.8 0 1.1 0.1 0.4 0.1 0.8 0.4 0.8 0.9s-0.4 0.9-0.9 0.9h-0.4c-0.8 0-1.3 0.5-1.3 1.4v0.5h1.7c0.5 0 0.9 0.4 0.9 0.9s-0.4 0.9-0.9 0.9h-1.8v6.6c0 0.6-0.5 1.1-1.1 1.1s-1.1-0.5-1.1-1.1v-6.6zm6.2-4.5c0-0.6 0.5-1.1 1.2-1.1s1.2 0.4 1.2 1.1v0.1c0 0.6-0.5 1.1-1.2 1.1s-1.2-0.4-1.2-1.1v-0.1zm0.2 3.6c0-0.6 0.5-1.1 1.1-1.1s1.1 0.5 1.1 1.1v7.5c0 0.6-0.5 1.1-1.1 1.1s-1.1-0.5-1.1-1.1v-7.5z"/>
	<path class="st0" d="m26.4 97.8c0-0.6 0.5-1.1 1.1-1.1s1.1 0.5 1.1 1.1v0.5c0.6-0.9 1.5-1.7 3-1.7 2.1 0 3.4 1.4 3.4 3.6v5.1c0 0.6-0.5 1.1-1.1 1.1s-1.1-0.5-1.1-1.1v-4.4c0-1.5-0.7-2.3-2-2.3s-2.1 0.9-2.1 2.4v4.4c0 0.6-0.5 1.1-1.1 1.1s-1.1-0.5-1.1-1.1v-7.6z"/>
	<path class="st0" d="m46 105.3c0 0.6-0.5 1.1-1.1 1.1s-1.1-0.5-1.1-1.1v-0.6c-0.7 1-1.7 1.8-3.2 1.8-2.2 0-4.4-1.8-4.4-4.9 0-3.2 2.1-4.9 4.4-4.9 1.6 0 2.6 0.8 3.2 1.7v-4.1c0-0.6 0.5-1.1 1.1-1.1s1.1 0.5 1.1 1.1v11zm-7.6-3.8c0 1.9 1.3 3.1 2.7 3.1 1.5 0 2.8-1.2 2.8-3s-1.3-3-2.8-3c-1.5-0.1-2.7 1-2.7 2.9z"/>
	<path class="st0" d="m51.8 101.6c0-2.8 2.2-5 5.1-5s5.1 2.2 5.1 4.9-2.2 5-5.1 5c-3 0-5.1-2.2-5.1-4.9zm8 0c0-1.7-1.2-3.1-2.9-3.1s-2.9 1.4-2.9 3c0 1.7 1.2 3 2.9 3 1.7 0.1 2.9-1.3 2.9-2.9z"/>
	<path class="st0" d="m71.7 105.3c0 0.6-0.5 1.1-1.1 1.1s-1.1-0.5-1.1-1.1v-0.5c-0.6 0.9-1.5 1.7-3 1.7-2.1 0-3.4-1.4-3.4-3.7v-5.1c0-0.6 0.5-1.1 1.1-1.1s1.1 0.5 1.1 1.1v4.4c0 1.5 0.7 2.3 2 2.3s2.1-0.9 2.1-2.3v-4.4c0-0.6 0.5-1.1 1.1-1.1s1.1 0.5 1.1 1.1v7.6z"/>
	<path class="st0" d="m74 103.7v-5h-0.4c-0.5 0-0.9-0.4-0.9-0.9s0.4-0.9 0.9-0.9h0.4v-1.6c0-0.6 0.5-1.1 1.1-1.1s1.1 0.5 1.1 1.1v1.6h1.7c0.5 0 1 0.4 1 0.9s-0.4 0.9-1 0.9h-1.7v4.7c0 0.8 0.4 1.2 1.2 1.2 0.3 0 0.5-0.1 0.5-0.1 0.5 0 0.9 0.4 0.9 0.9 0 0.4-0.3 0.7-0.6 0.8-0.5 0.2-0.9 0.3-1.5 0.3-1.6 0-2.7-0.7-2.7-2.8z"/>
	<path class="st0" d="m86.5 105.5l-2.6-7.2c-0.1-0.1-0.1-0.4-0.1-0.6 0-0.5 0.4-1 1.1-1 0.5 0 0.9 0.4 1.1 0.9l1.8 5.8 1.9-5.8c0.2-0.5 0.6-0.9 1.1-0.9h0.1c0.6 0 1 0.4 1.1 0.9l1.9 5.8 1.9-5.8c0.1-0.5 0.5-0.8 1.1-0.8s1 0.5 1 1c0 0.2-0.1 0.4-0.1 0.5l-2.6 7.3c-0.2 0.7-0.7 1-1.2 1h-0.1c-0.5 0-1-0.3-1.2-0.9l-1.9-5.7-1.9 5.7c-0.2 0.6-0.6 0.9-1.2 0.9h-0.1c-0.4-0.1-0.9-0.4-1.1-1.1z"/>
	<path class="st0" d="m99 94.1c0-0.6 0.5-1.1 1.1-1.1s1.1 0.5 1.1 1.1v4.1c0.6-0.9 1.5-1.7 3-1.7 2.1 0 3.4 1.4 3.4 3.6v5.1c0 0.6-0.5 1.1-1.1 1.1s-1.1-0.5-1.1-1.1v-4.4c0-1.5-0.7-2.3-2-2.3s-2.1 0.9-2.1 2.4v4.4c0 0.6-0.5 1.1-1.1 1.1s-1.1-0.5-1.1-1.1v-11.2z"/>
	<path class="st0" d="m108.6 103.6c0-2.1 1.6-3.1 3.9-3.1 1.1 0 1.8 0.2 2.6 0.4v-0.2c0-1.4-0.8-2.1-2.4-2.1-0.8 0-1.5 0.1-2.1 0.4-0.1 0-0.2 0.1-0.3 0.1-0.5 0-0.9-0.4-0.9-0.9 0-0.4 0.3-0.7 0.6-0.9 0.9-0.3 1.8-0.6 3.1-0.6 1.4 0 2.5 0.4 3.2 1.1s1 1.7 1 2.9v4.7c0 0.6-0.5 1-1.1 1s-1.1-0.4-1.1-0.9v-0.4c-0.6 0.8-1.6 1.4-3.1 1.4-1.8 0-3.4-1-3.4-2.9zm6.5-0.7v-0.6c-0.6-0.2-1.3-0.4-2.2-0.4-1.4 0-2.2 0.6-2.2 1.6 0 0.9 0.8 1.4 1.9 1.4 1.4 0 2.5-0.8 2.5-2z"/>
	<path class="st0" d="m119.2 103.7v-5h-0.4c-0.5 0-0.9-0.4-0.9-0.9s0.4-0.9 0.9-0.9h0.4v-1.6c0-0.6 0.5-1.1 1.1-1.1s1.1 0.5 1.1 1.1v1.6h1.7c0.5 0 1 0.4 1 0.9s-0.4 0.9-1 0.9h-1.7v4.7c0 0.8 0.4 1.2 1.2 1.2 0.3 0 0.5-0.1 0.5-0.1 0.5 0 0.9 0.4 0.9 0.9 0 0.4-0.3 0.7-0.6 0.8-0.5 0.2-0.9 0.3-1.5 0.3-1.5 0-2.7-0.7-2.7-2.8z"/>
	<path class="st0" d="m15.8 123.7v-5h-0.4c-0.5 0-0.9-0.4-0.9-0.9s0.4-0.9 0.9-0.9h0.4v-1.6c0-0.6 0.5-1.1 1.1-1.1s1.1 0.5 1.1 1.1v1.6h1.7c0.5 0 1 0.4 1 0.9s-0.4 0.9-1 0.9h-1.7v4.7c0 0.8 0.4 1.2 1.2 1.2 0.3 0 0.5-0.1 0.5-0.1 0.5 0 0.9 0.4 0.9 0.9 0 0.4-0.3 0.7-0.6 0.8-0.5 0.2-0.9 0.3-1.5 0.3-1.5 0-2.7-0.7-2.7-2.8z"/>
	<path class="st0" d="m21.1 121.6c0-2.8 2.2-5 5.1-5s5.1 2.2 5.1 4.9-2.2 5-5.1 5c-3 0-5.1-2.2-5.1-4.9zm7.9 0c0-1.7-1.2-3.1-2.9-3.1s-2.9 1.4-2.9 3c0 1.7 1.2 3 2.9 3 1.8 0.1 2.9-1.3 2.9-2.9z"/>
	<path class="st0" d="m46.4 125.3c0 0.6-0.5 1.1-1.1 1.1s-1.1-0.5-1.1-1.1v-0.6c-0.7 1-1.7 1.8-3.2 1.8-2.2 0-4.4-1.8-4.4-4.9 0-3.2 2.1-4.9 4.4-4.9 1.6 0 2.6 0.8 3.2 1.7v-4.1c0-0.6 0.5-1.1 1.1-1.1s1.1 0.5 1.1 1.1v11zm-7.7-3.8c0 1.9 1.3 3.1 2.7 3.1 1.5 0 2.8-1.2 2.8-3s-1.3-3-2.8-3c-1.4-0.1-2.7 1-2.7 2.9z"/>
	<path class="st0" d="m47.7 121.6c0-2.8 2.2-5 5.1-5s5.1 2.2 5.1 4.9-2.2 5-5.1 5c-3 0-5.1-2.2-5.1-4.9zm7.9 0c0-1.7-1.2-3.1-2.9-3.1s-2.9 1.4-2.9 3c0 1.7 1.2 3 2.9 3 1.8 0.1 2.9-1.3 2.9-2.9z"/>
	<path class="st0" d="m63.6 117.8c0-0.6 0.5-1.1 1.1-1.1s1.1 0.5 1.1 1.1v0.5c0.6-0.9 1.5-1.7 3-1.7 2.1 0 3.4 1.4 3.4 3.6v5.1c0 0.6-0.5 1.1-1.1 1.1s-1.1-0.5-1.1-1.1v-4.4c0-1.5-0.7-2.3-2-2.3s-2.1 0.9-2.1 2.4v4.4c0 0.6-0.5 1.1-1.1 1.1s-1.1-0.5-1.1-1.1v-7.6z"/>
	<path class="st0" d="m78.2 126.5c-2.8 0-4.9-2-4.9-4.9 0-2.7 1.9-5 4.6-5 3 0 4.5 2.5 4.5 4.7 0 0.6-0.5 1-1 1h-6c0.2 1.5 1.3 2.4 2.7 2.4 0.9 0 1.6-0.3 2.3-0.8 0.2-0.1 0.3-0.2 0.6-0.2 0.5 0 0.9 0.4 0.9 0.9 0 0.3-0.1 0.5-0.3 0.7-0.8 0.7-1.9 1.2-3.4 1.2zm2.2-5.6c-0.1-1.4-1-2.5-2.4-2.5-1.3 0-2.3 1-2.5 2.5h4.9z"/>
	<path class="st0" d="m83.3 124.7l2.7-3.2-2.5-3c-0.2-0.3-0.4-0.5-0.4-0.8 0-0.6 0.5-1 1-1 0.4 0 0.7 0.2 1 0.5l2.1 2.8 2.2-2.8c0.3-0.3 0.6-0.6 0.9-0.6 0.6 0 1 0.4 1 1 0 0.3-0.1 0.5-0.3 0.7l-2.6 3.1 2.7 3.2c0.2 0.3 0.4 0.5 0.4 0.8 0 0.6-0.5 1-1 1-0.4 0-0.7-0.2-1-0.6l-2.3-3-2.3 3c-0.3 0.3-0.6 0.6-1 0.6-0.6 0-1-0.4-1-1 0.1-0.2 0.2-0.5 0.4-0.7z"/>
	<path class="st0" d="m93.4 123.7v-5h-0.4c-0.5 0-0.9-0.4-0.9-0.9s0.4-0.9 0.9-0.9h0.4v-1.6c0-0.6 0.5-1.1 1.1-1.1s1.1 0.5 1.1 1.1v1.6h1.7c0.5 0 1 0.4 1 0.9s-0.4 0.9-1 0.9h-1.7v4.7c0 0.8 0.4 1.2 1.2 1.2 0.3 0 0.5-0.1 0.5-0.1 0.5 0 0.9 0.4 0.9 0.9 0 0.4-0.3 0.7-0.6 0.8-0.5 0.2-0.9 0.3-1.5 0.3-1.6 0-2.7-0.7-2.7-2.8z"/>
	<path class="st0" d="m100.5 123.7c0.7 0 1.3 0.5 1.3 1.2v0.2c0 0.7-0.5 1.2-1.3 1.2-0.7 0-1.3-0.5-1.3-1.2v-0.1c0-0.7 0.5-1.3 1.3-1.3z"/>
</svg>
